<svg width="300" height="467" viewBox="0 0 300 467" fill="none" xmlns="http://www.w3.org/2000/svg">
<rect x="25" y="22" width="250" height="369" rx="8" fill="#1F2133"/>
<path d="M82.6 82V73.5294H87.4V82H93.4V70.7059H97L85 58L73 70.7059H76.6V82H82.6Z" fill="white" fill-opacity="0.95"/>
<path d="M122.667 66.4H120V58H117.333V66.4H114.667V58H112V66.4C112 68.944 114.213 71.008 117 71.164V82H120.333V71.164C123.12 71.008 125.333 68.944 125.333 66.4V58H122.667V66.4ZM129.333 62.8V72.4H132.667V82H136V58C132.32 58 129.333 60.688 129.333 62.8Z" fill="white" fill-opacity="0.95"/>
<path d="M172.333 58H153.667C152.2 58 151.013 59.2 151.013 60.6667L151 79.3333C151 80.8 152.2 82 153.667 82H172.333C173.8 82 175 80.8 175 79.3333V60.6667C175 59.2 173.8 58 172.333 58ZM171 72.6667H165.667V78H160.333V72.6667H155V67.3333H160.333V62H165.667V67.3333H171V72.6667Z" fill="white" fill-opacity="0.95"/>
<path d="M213.686 77.6165L203.773 67.6439C204.754 65.1234 204.209 62.1645 202.139 60.0824C199.961 57.8906 196.693 57.4522 194.079 58.6577L198.763 63.37L195.495 66.6576L190.702 61.9454C189.395 64.5755 189.939 67.8631 192.118 70.0549C194.188 72.1371 197.129 72.685 199.634 71.6987L209.546 81.6712C209.982 82.1096 210.636 82.1096 211.071 81.6712L213.577 79.1507C214.121 78.7124 214.121 77.9452 213.686 77.6165Z" fill="white" fill-opacity="0.95"/>
<path d="M73.7811 118.246H96.2663V121H73.7811V118.246ZM96.9409 105.358C96.6923 104.256 95.7101 103.596 94.7633 103.898L88.4793 105.854L80.3136 97L78.0296 97.7022L82.929 107.575L77.0473 109.406L74.716 107.286L73 107.823L76.0651 114.005C76.0651 114.005 84.4911 111.389 95.6746 107.905C96.6332 107.589 97.1894 106.46 96.9409 105.358Z" fill="white" fill-opacity="0.95"/>
<path d="M119.2 116.2C117.88 116.2 116.812 117.28 116.812 118.6C116.812 119.92 117.88 121 119.2 121C120.52 121 121.6 119.92 121.6 118.6C121.6 117.28 120.52 116.2 119.2 116.2ZM112 97V99.4H114.4L118.72 108.508L117.1 111.448C116.908 111.784 116.8 112.18 116.8 112.6C116.8 113.92 117.88 115 119.2 115H133.6V112.6H119.704C119.536 112.6 119.404 112.468 119.404 112.3L119.44 112.156L120.52 110.2H129.46C130.36 110.2 131.152 109.708 131.56 108.964L135.856 101.176C135.952 101.008 136 100.804 136 100.6C136 99.94 135.46 99.4 134.8 99.4H117.052L115.924 97H112ZM131.2 116.2C129.88 116.2 128.812 117.28 128.812 118.6C128.812 119.92 129.88 121 131.2 121C132.52 121 133.6 119.92 133.6 118.6C133.6 117.28 132.52 116.2 131.2 116.2Z" fill="white" fill-opacity="0.95"/>
<path d="M173.667 97H152.333V100H173.667V97ZM175 112V109L173.667 101.5H152.333L151 109V112H152.333V121H165.667V112H171V121H173.667V112H175ZM163 118H155V112H163V118Z" fill="white" fill-opacity="0.95"/>
<path d="M191.846 107.277C191.404 107.277 191.046 107.635 191.046 108.077C191.046 108.519 191.404 108.877 191.846 108.877L191.846 107.277ZM216.412 108.643C216.724 108.33 216.724 107.824 216.412 107.511L211.321 102.42C211.008 102.108 210.502 102.108 210.189 102.42C209.877 102.733 209.877 103.239 210.189 103.552L214.715 108.077L210.189 112.603C209.877 112.915 209.877 113.422 210.189 113.734C210.502 114.046 211.008 114.046 211.321 113.734L216.412 108.643ZM191.846 108.877L215.846 108.877L215.846 107.277L191.846 107.277L191.846 108.877Z" fill="white" fill-opacity="0.95"/>
<path d="M95.1538 147.877C95.5956 147.877 95.9538 147.519 95.9538 147.077C95.9538 146.635 95.5956 146.277 95.1538 146.277V147.877ZM70.5881 146.511C70.2757 146.824 70.2757 147.33 70.5881 147.643L75.6793 152.734C75.9917 153.046 76.4982 153.046 76.8107 152.734C77.1231 152.422 77.1231 151.915 76.8107 151.603L72.2852 147.077L76.8107 142.552C77.1231 142.239 77.1231 141.733 76.8107 141.42C76.4982 141.108 75.9917 141.108 75.6793 141.42L70.5881 146.511ZM95.1538 146.277H71.1538V147.877H95.1538V146.277Z" fill="white" fill-opacity="0.95"/>
<path d="M119.627 154.935L113.937 147.472L112 149.996L119.627 160L136 138.523L134.076 136L119.627 154.935Z" fill="white" fill-opacity="0.95"/>
<path d="M157.025 146.487C158.825 150.025 161.725 152.912 165.263 154.725L168.012 151.975C168.35 151.638 168.85 151.525 169.288 151.675C170.688 152.137 172.2 152.388 173.75 152.388C174.438 152.388 175 152.95 175 153.638V158C175 158.688 174.438 159.25 173.75 159.25C162.012 159.25 152.5 149.738 152.5 138C152.5 137.312 153.062 136.75 153.75 136.75H158.125C158.813 136.75 159.375 137.312 159.375 138C159.375 139.562 159.625 141.063 160.087 142.463C160.225 142.9 160.125 143.388 159.775 143.738L157.025 146.487Z" fill="white" fill-opacity="0.95"/>
<path d="M208.429 136H195.571C194.157 136 193.013 137.2 193.013 138.667L193 160L202 156L211 160V138.667C211 137.2 209.843 136 208.429 136Z" fill="white" fill-opacity="0.95"/>
<path d="M99.25 182.5C101.321 182.5 103 180.821 103 178.75C103 176.679 101.321 175 99.25 175C97.1789 175 95.5 176.679 95.5 178.75C95.5 180.821 97.1789 182.5 99.25 182.5Z" fill="white" fill-opacity="0.95"/>
<path d="M92.6924 196.539H89.4924C89.4924 199.179 87.3324 201.339 84.6924 201.339C82.0524 201.339 79.8924 199.179 79.8924 196.539C79.8924 193.899 82.0524 191.739 84.6924 191.739V188.539C80.2764 188.539 76.6924 192.123 76.6924 196.539C76.6924 200.955 80.2764 204.539 84.6924 204.539C89.1084 204.539 92.6924 200.955 92.6924 196.539ZM97.4924 190.939H94.5164L97.1884 185.067C98.1644 182.939 96.5964 180.539 94.2284 180.539H85.9084C84.6124 180.539 83.4444 181.291 82.9164 182.459L81.8444 185.339L84.9164 186.187L85.9564 183.739H89.4924L86.5644 190.299C85.6044 192.427 87.1884 194.939 89.5244 194.939H97.4924V202.939H100.692V194.139C100.692 192.379 99.2524 190.939 97.4924 190.939Z" fill="white" fill-opacity="0.95"/>
<g clip-path="url(#clip0_1768_3339)">
<path d="M116.5 187C117.881 187 119 185.881 119 184.5C119 183.119 117.881 182 116.5 182C115.119 182 114 183.119 114 184.5C114 185.881 115.119 187 116.5 187Z" fill="white" fill-opacity="0.95"/>
<path d="M121 183C122.381 183 123.5 181.881 123.5 180.5C123.5 179.119 122.381 178 121 178C119.619 178 118.5 179.119 118.5 180.5C118.5 181.881 119.619 183 121 183Z" fill="white" fill-opacity="0.95"/>
<path d="M127 183C128.381 183 129.5 181.881 129.5 180.5C129.5 179.119 128.381 178 127 178C125.619 178 124.5 179.119 124.5 180.5C124.5 181.881 125.619 183 127 183Z" fill="white" fill-opacity="0.95"/>
<path d="M131.5 187C132.881 187 134 185.881 134 184.5C134 183.119 132.881 182 131.5 182C130.119 182 129 183.119 129 184.5C129 185.881 130.119 187 131.5 187Z" fill="white" fill-opacity="0.95"/>
<path d="M129.34 189.86C128.47 188.84 127.74 187.97 126.86 186.95C126.4 186.41 125.81 185.87 125.11 185.63C125 185.59 124.89 185.56 124.78 185.54C124.53 185.5 124.26 185.5 124 185.5C123.74 185.5 123.47 185.5 123.21 185.55C123.1 185.57 122.99 185.6 122.88 185.64C122.18 185.88 121.6 186.42 121.13 186.96C120.26 187.98 119.53 188.85 118.65 189.87C117.34 191.18 115.73 192.63 116.03 194.66C116.32 195.68 117.05 196.69 118.36 196.98C119.09 197.13 121.42 196.54 123.9 196.54H124.08C126.56 196.54 128.89 197.12 129.62 196.98C130.93 196.69 131.66 195.67 131.95 194.66C132.26 192.62 130.65 191.17 129.34 189.86Z" fill="white" fill-opacity="0.95"/>
</g>
<path d="M151 192.684C151 193.796 151.585 194.794 152.5 195.488V197.737C152.5 198.432 153.175 199 154 199H155.5C156.325 199 157 198.432 157 197.737V196.474H169V197.737C169 198.432 169.675 199 170.5 199H172C172.825 199 173.5 198.432 173.5 197.737V195.488C174.415 194.794 175 193.796 175 192.684V180.053C175 175.632 169.63 175 163 175C156.37 175 151 175.632 151 180.053V192.684ZM156.25 193.947C155.005 193.947 154 193.101 154 192.053C154 191.004 155.005 190.158 156.25 190.158C157.495 190.158 158.5 191.004 158.5 192.053C158.5 193.101 157.495 193.947 156.25 193.947ZM169.75 193.947C168.505 193.947 167.5 193.101 167.5 192.053C167.5 191.004 168.505 190.158 169.75 190.158C170.995 190.158 172 191.004 172 192.053C172 193.101 170.995 193.947 169.75 193.947ZM172 186.368H154V180.053H172V186.368Z" fill="white" fill-opacity="0.95"/>
<path d="M197.5 177.4C197.5 176.068 198.835 175 200.5 175C202.165 175 203.5 176.068 203.5 177.4C203.5 178.732 202.165 179.8 200.5 179.8C198.835 179.8 197.5 178.732 197.5 177.4ZM208 188.2C207.985 186.592 206.755 185.188 205 184.6C205 182.608 202.99 181 200.5 181C198.01 181 196 182.608 196 184.6V193H199V199H203.5V193H208V188.2Z" fill="white" fill-opacity="0.95"/>
<path d="M77.5 218C77.5 216.89 78.39 216 79.5 216C80.61 216 81.5 216.89 81.5 218C81.5 219.11 80.61 220 79.5 220C78.39 220 77.5 219.11 77.5 218ZM83 224.95V223C83 221.9 82.1 221 81 221H78C76.9 221 76 221.9 76 223V229H78V236H81.5V235.89C80.26 234.63 79.5 232.9 79.5 231C79.5 228.42 80.91 226.16 83 224.95ZM89.5 231C89.5 232.65 88.15 234 86.5 234C84.85 234 83.5 232.65 83.5 231C83.5 229.89 84.11 228.94 85 228.42V226.26C82.98 226.9 81.5079 228.699 81.5 231C81.4905 233.761 83.74 236 86.5 236C89.26 236 91.5 233.76 91.5 231H89.5ZM92.54 228H88V222H86V230H91.46L93.93 233.71L95.59 232.6L92.54 228Z" fill="white" fill-opacity="0.95"/>
<path d="M133.333 214H114.667C113.2 214 112 215.2 112 216.667V235.333C112 236.8 113.2 238 114.667 238H133.333C134.8 238 136 236.8 136 235.333V216.667C136 215.2 134.8 214 133.333 214ZM119.333 218C120.253 218 121 218.747 121 219.667C121 220.587 120.253 221.333 119.333 221.333C118.413 221.333 117.667 220.587 117.667 219.667C117.667 218.747 118.413 218 119.333 218ZM122.667 228.667H121.333V234H117.333V228.667H116V225.333C116 223.867 117.2 222.667 118.667 222.667H120C121.467 222.667 122.667 223.867 122.667 225.333V228.667ZM128.667 232.667L125.333 227.333H132L128.667 232.667ZM125.333 224.667L128.667 219.333L132 224.667H125.333Z" fill="white" fill-opacity="0.95"/>
<path d="M172 219.539C170.428 219.539 169.156 220.626 169.024 222.015C166.768 221.477 165.616 220.077 163 220.077C160.372 220.077 159.232 221.477 156.976 222.015C156.844 220.637 155.572 219.539 154 219.539C152.344 219.539 151 220.745 151 222.231V222.769C151 229.231 155.32 231.18 158.824 231.363C160.036 232.052 161.464 232.462 163 232.462C164.536 232.462 165.964 232.052 167.176 231.363C170.68 231.18 175 229.231 175 222.769V222.231C175 220.745 173.656 219.539 172 219.539ZM152.8 222.769V222.231C152.8 221.639 153.34 221.154 154 221.154C154.66 221.154 155.2 221.639 155.2 222.231V225.462C155.2 226.84 155.656 228.122 156.412 229.209C154.588 228.445 152.8 226.7 152.8 222.769ZM173.2 222.769C173.2 226.7 171.412 228.445 169.588 229.209C170.356 228.122 170.8 226.84 170.8 225.462V222.231C170.8 221.639 171.34 221.154 172 221.154C172.66 221.154 173.2 221.639 173.2 222.231V222.769ZM161.428 224.363C160.9 224.643 160.276 224.966 159.4 225.182V224.062C159.976 223.879 160.408 223.652 160.816 223.437C161.464 223.092 162.076 222.769 163 222.769C163.924 222.769 164.524 223.092 165.16 223.437C165.568 223.652 166.012 223.889 166.6 224.072V225.192C165.7 224.966 165.088 224.643 164.548 224.352C163.996 224.062 163.588 223.846 163 223.846C162.412 223.846 161.992 224.062 161.428 224.363Z" fill="white" fill-opacity="0.95"/>
<path d="M211.6 218.8H206.8V216.4C206.8 215.08 205.72 214 204.4 214H199.6C198.28 214 197.2 215.08 197.2 216.4V218.8H192.4C191.08 218.8 190 219.88 190 221.2V235.6C190 236.92 191.08 238 192.4 238H211.6C212.92 238 214 236.92 214 235.6V221.2C214 219.88 212.92 218.8 211.6 218.8ZM199.6 216.4H204.4V218.8H199.6V216.4ZM206.8 229.6H203.2V233.2H200.8V229.6H197.2V227.2H200.8V223.6H203.2V227.2H206.8V229.6Z" fill="white" fill-opacity="0.95"/>
<path d="M85.4615 253H79V277H82.6923V269H85.4615C88.5169 269 91 265.413 91 261C91 256.587 88.5169 253 85.4615 253ZM85.6462 263.667H82.6923V258.333H85.6462C86.6615 258.333 87.4923 259.533 87.4923 261C87.4923 262.467 86.6615 263.667 85.6462 263.667Z" fill="white" fill-opacity="0.95"/>
<path d="M130.274 256.6L130.994 258.244L132.56 259L130.994 259.756L130.274 261.4L129.554 259.756L127.989 259L129.554 258.244L130.274 256.6ZM123.429 257.956V255.4H125.714C126.366 255.4 126.971 255.604 127.486 255.94L129.12 254.224C128.171 253.468 127.006 253 125.714 253C124.023 253 119.429 253 119.429 253V255.4H121.143V257.968C119.12 258.412 117.497 259.96 116.869 262H121.417L128 264.58V263.836C128 260.932 126.034 258.508 123.429 257.956ZM112 277H116.571V263.8H112V277ZM133.714 271H125.714L123.326 270.124L123.703 268.996L125.714 269.8H128.937C129.68 269.8 130.286 269.164 130.286 268.384C130.286 267.796 129.931 267.268 129.406 267.052L121.109 263.8H118.857V274.624L126.857 277L136 273.4C135.989 272.08 134.983 271 133.714 271ZM133.714 267.4C134.971 267.4 136 266.32 136 265C136 263.68 133.714 260.2 133.714 260.2C133.714 260.2 131.429 263.68 131.429 265C131.429 266.32 132.457 267.4 133.714 267.4Z" fill="white" fill-opacity="0.95"/>
<path d="M153.82 258.539L163 267.667L172.18 258.539L175 261.349L163 273.308L151 261.349L153.82 258.539Z" fill="white" fill-opacity="0.95"/>
<path d="M192.82 273.308L202 264.179L211.18 273.308L214 270.497L202 258.539L190 270.497L192.82 273.308Z" fill="white" fill-opacity="0.95"/>
<path d="M83.5 309.211C83.5 310.229 83.8291 311.144 84.3438 311.781V313.842C84.3438 314.479 84.7234 315 85.1875 315H86.0312C86.4953 315 86.875 314.479 86.875 313.842V312.684H93.625V313.842C93.625 314.479 94.0047 315 94.4688 315H95.3125C95.7766 315 96.1562 314.479 96.1562 313.842V311.781C96.6709 311.144 97 310.229 97 309.211V300.382C97 296.329 93.9794 295.75 90.25 295.75C86.5206 295.75 83.5 296.329 83.5 300.382V309.211ZM86.4531 310.368C85.7528 310.368 85.1875 309.593 85.1875 308.632C85.1875 307.671 85.7528 306.895 86.4531 306.895C87.1534 306.895 87.7188 307.671 87.7188 308.632C87.7188 309.593 87.1534 310.368 86.4531 310.368ZM94.0469 310.368C93.3466 310.368 92.7812 309.593 92.7812 308.632C92.7812 307.671 93.3466 306.895 94.0469 306.895C94.7472 306.895 95.3125 307.671 95.3125 308.632C95.3125 309.593 94.7472 310.368 94.0469 310.368ZM95.3125 303.421H85.1875V300.382H95.3125V303.421Z" fill="white" fill-opacity="0.95"/>
<path d="M76.7261 313.232C77.9557 313.232 78.9617 312.039 78.9617 310.58H80.4521C80.4521 313.02 78.7828 315 76.7261 315C74.6693 315 72.9929 313.021 73 310.58C73.0059 308.546 74.1029 306.956 75.6082 306.391V308.3C74.945 308.759 74.4904 309.599 74.4904 310.58C74.4904 312.039 75.4965 313.232 76.7261 313.232Z" fill="white" fill-opacity="0.95"/>
<path d="M77.8439 307.929H81.2271L83.5 311.995L82.263 312.976L80.4223 309.696H76.3535V302.625H77.8439V307.929Z" fill="white" fill-opacity="0.95"/>
<path d="M133.227 296.896C132.96 296.23 132.213 295.756 131.333 295.756H128V293.5H120V295.756H116.667C115.787 295.756 115.053 296.23 114.773 296.896L112 303.654V312.679C112 313.3 112.6 313.808 113.333 313.808H114.667C115.4 313.808 116 313.3 116 312.679V311.551H132V312.679C132 313.3 132.6 313.808 133.333 313.808H134.667C135.4 313.808 136 313.3 136 312.679V303.654L133.227 296.896ZM116.667 308.167C115.56 308.167 114.667 307.411 114.667 306.474C114.667 305.538 115.56 304.782 116.667 304.782C117.773 304.782 118.667 305.538 118.667 306.474C118.667 307.411 117.773 308.167 116.667 308.167ZM131.333 308.167C130.227 308.167 129.333 307.411 129.333 306.474C129.333 305.538 130.227 304.782 131.333 304.782C132.44 304.782 133.333 305.538 133.333 306.474C133.333 307.411 132.44 308.167 131.333 308.167ZM114.667 302.526L116.667 297.449H131.333L133.333 302.526H114.667Z" fill="white" fill-opacity="0.95"/>
<path d="M168.153 307.094H167.069L166.684 306.724C168.029 305.16 168.839 303.129 168.839 300.919C168.839 295.993 164.846 292 159.919 292C154.993 292 151 295.993 151 300.919C151 305.846 154.993 309.839 159.919 309.839C162.129 309.839 164.16 309.029 165.724 307.684L166.094 308.069V309.153L172.955 316L175 313.955L168.153 307.094ZM159.919 307.094C156.503 307.094 153.744 304.336 153.744 300.919C153.744 297.503 156.503 294.744 159.919 294.744C163.336 294.744 166.094 297.503 166.094 300.919C166.094 304.336 163.336 307.094 159.919 307.094Z" fill="white" fill-opacity="0.95"/>
<path d="M211.175 305.175C211.227 304.8 211.253 304.413 211.253 304C211.253 303.6 211.227 303.2 211.163 302.825L213.771 300.85C214.003 300.675 214.067 300.337 213.925 300.087L211.458 295.938C211.304 295.663 210.983 295.575 210.7 295.662L207.629 296.862C206.986 296.387 206.305 295.987 205.547 295.687L205.084 292.512C205.033 292.212 204.776 292 204.467 292H199.533C199.224 292 198.98 292.212 198.929 292.512L198.466 295.687C197.708 295.987 197.014 296.4 196.384 296.862L193.313 295.662C193.03 295.562 192.709 295.663 192.555 295.938L190.1 300.087C189.946 300.35 189.997 300.675 190.254 300.85L192.863 302.825C192.799 303.2 192.747 303.613 192.747 304C192.747 304.388 192.773 304.8 192.837 305.175L190.229 307.15C189.997 307.325 189.933 307.662 190.075 307.912L192.542 312.063C192.696 312.338 193.017 312.425 193.3 312.338L196.371 311.137C197.014 311.612 197.695 312.013 198.453 312.312L198.916 315.488C198.98 315.788 199.224 316 199.533 316H204.467C204.776 316 205.033 315.788 205.071 315.488L205.534 312.312C206.292 312.013 206.986 311.612 207.616 311.137L210.687 312.338C210.97 312.438 211.291 312.338 211.445 312.063L213.913 307.912C214.067 307.637 214.003 307.325 213.758 307.15L211.175 305.175ZM202 308.5C199.456 308.5 197.374 306.475 197.374 304C197.374 301.525 199.456 299.5 202 299.5C204.544 299.5 206.626 301.525 206.626 304C206.626 306.475 204.544 308.5 202 308.5Z" fill="white" fill-opacity="0.95"/>
<path d="M85 355.75C86.65 355.75 88 354.642 88 353.288H82C82 354.642 83.335 355.75 85 355.75ZM94 348.365V342.212C94 338.433 91.54 335.27 87.25 334.433V333.596C87.25 332.575 86.245 331.75 85 331.75C83.755 331.75 82.75 332.575 82.75 333.596V334.433C78.445 335.27 76 338.421 76 342.212V348.365L73 350.827V352.058H97V350.827L94 348.365Z" fill="white" fill-opacity="0.95"/>
<path d="M133.6 335.8H128.8V333.4C128.8 332.068 127.732 331 126.4 331H121.6C120.268 331 119.2 332.068 119.2 333.4V335.8H114.4C113.068 335.8 112.012 336.868 112.012 338.2L112 351.4C112 352.732 113.068 353.8 114.4 353.8H133.6C134.932 353.8 136 352.732 136 351.4V338.2C136 336.868 134.932 335.8 133.6 335.8ZM126.4 335.8H121.6V333.4H126.4V335.8Z" fill="white"/>
<path d="M157 341.286H153.4V349.286H157V341.286Z" fill="#F3F3F3"/>
<path d="M164.8 341.286H161.2V349.286H164.8V341.286Z" fill="#F3F3F3"/>
<path d="M175 351.571H151V355H175V351.571Z" fill="#F3F3F3"/>
<path d="M172.6 341.286H169V349.286H172.6V341.286Z" fill="#F3F3F3"/>
<path d="M163 331L151 336.714V339H175V336.714L163 331Z" fill="#F3F3F3"/>
<path d="M204.182 336.25L200.091 341.875L203.2 346.15L201.455 347.5C199.611 344.969 196.545 340.75 196.545 340.75L190 349.75H214L204.182 336.25Z" fill="#F3F3F3"/>
<circle cx="38" cy="432" r="12" fill="#3D40CC"/>
<path d="M35.8 440V434H39.2V440H43.45V432H46L37.5 423L29 432H31.55V440H35.8Z" fill="white" fill-opacity="0.95"/>
<circle cx="70" cy="432" r="12" fill="#3D40CC"/>
<path d="M69.1667 429.75H67.5V424.5H65.8333V429.75H64.1667V424.5H62.5V429.75C62.5 431.34 63.8833 432.63 65.625 432.728V439.5H67.7083V432.728C69.45 432.63 70.8333 431.34 70.8333 429.75V424.5H69.1667V429.75ZM73.3333 427.5V433.5H75.4167V439.5H77.5V424.5C75.2 424.5 73.3333 426.18 73.3333 427.5Z" fill="white" fill-opacity="0.95"/>
<circle cx="102" cy="432" r="12" fill="#3D40CC"/>
<path d="M99 436.5C98.175 436.5 97.5075 437.175 97.5075 438C97.5075 438.825 98.175 439.5 99 439.5C99.825 439.5 100.5 438.825 100.5 438C100.5 437.175 99.825 436.5 99 436.5ZM94.5 424.5V426H96L98.7 431.693L97.6875 433.53C97.5675 433.74 97.5 433.988 97.5 434.25C97.5 435.075 98.175 435.75 99 435.75H108V434.25H99.315C99.21 434.25 99.1275 434.168 99.1275 434.062L99.15 433.973L99.825 432.75H105.413C105.975 432.75 106.47 432.443 106.725 431.978L109.41 427.11C109.47 427.005 109.5 426.878 109.5 426.75C109.5 426.337 109.163 426 108.75 426H97.6575L96.9525 424.5H94.5ZM106.5 436.5C105.675 436.5 105.008 437.175 105.008 438C105.008 438.825 105.675 439.5 106.5 439.5C107.325 439.5 108 438.825 108 438C108 437.175 107.325 436.5 106.5 436.5Z" fill="white" fill-opacity="0.95"/>
<circle cx="134" cy="432" r="12" fill="#3D40CC"/>
<path d="M141.304 436.76L135.108 430.527C135.721 428.952 135.381 427.103 134.087 425.801C132.725 424.432 130.683 424.158 129.049 424.911L131.977 427.856L129.934 429.911L126.939 426.966C126.122 428.61 126.462 430.664 127.824 432.034C129.117 433.336 130.955 433.678 132.521 433.062L138.717 439.295C138.989 439.568 139.397 439.568 139.67 439.295L141.235 437.719C141.576 437.445 141.576 436.966 141.304 436.76Z" fill="white" fill-opacity="0.95"/>
<circle cx="166" cy="432" r="12" fill="#3D40CC"/>
<path d="M172.667 424.5H159.333V426.375H172.667V424.5ZM173.5 433.875V432L172.667 427.312H159.333L158.5 432V433.875H159.333V439.5H167.667V433.875H171V439.5H172.667V433.875H173.5ZM166 437.625H161V433.875H166V437.625Z" fill="white" fill-opacity="0.95"/>
<circle cx="198" cy="432" r="12" fill="#3D40CC"/>
<path d="M203.833 424.5H192.167C191.25 424.5 190.508 425.25 190.508 426.167L190.5 437.833C190.5 438.75 191.25 439.5 192.167 439.5H203.833C204.75 439.5 205.5 438.75 205.5 437.833V426.167C205.5 425.25 204.75 424.5 203.833 424.5ZM203 433.667H199.667V437H196.333V433.667H193V430.333H196.333V427H199.667V430.333H203V433.667Z" fill="white" fill-opacity="0.95"/>
<circle cx="230" cy="432" r="12" fill="#3D40CC"/>
<path d="M222.988 437.779H237.041V439.5H222.988V437.779ZM237.463 429.724C237.308 429.035 236.694 428.622 236.102 428.812L232.175 430.034L227.071 424.5L225.643 424.939L228.706 431.109L225.03 432.254L223.572 430.929L222.5 431.264L224.416 435.128C224.416 435.128 229.682 433.493 236.672 431.316C237.271 431.118 237.618 430.412 237.463 429.724Z" fill="white" fill-opacity="0.95"/>
<circle cx="262" cy="432" r="12" fill="#3D40CC"/>
<path d="M263.818 426.938L260.409 431.156L263 434.363L261.545 435.375C260.009 433.477 257.455 430.312 257.455 430.312L252 437.062H272L263.818 426.938Z" fill="#F3F3F3"/>
<defs>
<clipPath id="clip0_1768_3339">
<rect width="24" height="24" fill="white" transform="translate(112 175)"/>
</clipPath>
</defs>
</svg>
