<svg xmlns="http://www.w3.org/2000/svg" xmlns:xlink="http://www.w3.org/1999/xlink" width="1362" height="806" viewBox="0 0 1362 806"><defs><radialGradient id="a" cx="0.493" cy="1" r="1.122" gradientTransform="translate(-0.797 1.493) rotate(-90) scale(1 1.29)" gradientUnits="objectBoundingBox"><stop offset="0" stop-color="#6666b5"/><stop offset="0.51" stop-color="#996ccc"/><stop offset="1" stop-color="#a6a6c9"/></radialGradient><clipPath id="c"><rect width="1362" height="806"/></clipPath></defs><g id="b" clip-path="url(#c)"><rect width="1362" height="806" fill="rgba(255,255,255,0)"/><text transform="translate(211 656)" font-size="32" font-family="Roboto-Medium, Roboto" font-weight="500"><tspan x="0" y="0">Primary</tspan></text><text transform="translate(793 656)" font-size="32" font-family="Roboto-Medium, Roboto" font-weight="500"><tspan x="0" y="0">Other Colors</tspan></text><g transform="translate(-67)"><line x2="1198" transform="translate(138.5 122)" fill="none" stroke="#030303" stroke-linecap="round" stroke-width="2"/><text transform="translate(691 105)" font-size="32" font-family="Roboto-Medium, Roboto" font-weight="500"><tspan x="0" y="0">Colors</tspan></text></g><rect width="417" height="397" rx="3" transform="translate(72 179)" fill="url(#a)"/><rect width="230" height="190" rx="3" transform="translate(519 179)" fill="#a399ca"/><rect width="230" height="190" rx="3" transform="translate(779 179)" fill="#69c"/><text transform="translate(242 557)" fill="#fff" font-size="20" font-family="Roboto-Regular, Roboto"><tspan x="0" y="0">#7C68BF</tspan></text><text transform="translate(237 214)" fill="#fff" font-size="20" font-family="Roboto-Regular, Roboto"><tspan x="0" y="0">#A49DCA</tspan></text><text transform="translate(592 356)" fill="#fff" font-size="20" font-family="Roboto-Regular, Roboto"><tspan x="0" y="0">#A399CA</tspan></text><text transform="translate(852 356)" fill="#fff" font-size="20" font-family="Roboto-Regular, Roboto"><tspan x="0" y="0">#6699CC</tspan></text><rect width="230" height="190" rx="3" transform="translate(1039 179)" fill="#e35d5d"/><rect width="230" height="187" rx="3" transform="translate(519 389)" fill="#6c66b8"/><rect width="230" height="187" rx="3" transform="translate(779 389)" fill="#66c"/><rect width="230" height="187" rx="3" transform="translate(1039 389)" fill="#f1faff"/><text transform="translate(1112 356)" fill="#fff" font-size="20" font-family="Roboto-Regular, Roboto"><tspan x="0" y="0">#E35D5D</tspan></text><text transform="translate(593 557)" fill="#fff" font-size="20" font-family="Roboto-Regular, Roboto"><tspan x="0" y="0">#6C66B8</tspan></text><text transform="translate(854 557)" fill="#fff" font-size="20" font-family="Roboto-Regular, Roboto"><tspan x="0" y="0">#6666CC</tspan></text><text transform="translate(1114 557)" font-size="20" font-family="Roboto-Regular, Roboto"><tspan x="0" y="0">#6C66B8</tspan></text></g></svg>