<svg xmlns="http://www.w3.org/2000/svg" xmlns:xlink="http://www.w3.org/1999/xlink" width="1540" height="806" viewBox="0 0 1540 806"><defs><radialGradient id="a" cx="0.493" cy="1" r="1.122" gradientTransform="translate(-0.797 1.493) rotate(-90) scale(1 1.29)" gradientUnits="objectBoundingBox"><stop offset="0" stop-color="#6666b5"/><stop offset="0.51" stop-color="#996ccc"/><stop offset="1" stop-color="#a6a6c9"/></radialGradient><clipPath id="c"><rect width="1540" height="806"/></clipPath></defs><g id="b" clip-path="url(#c)"><rect width="1540" height="806" fill="rgba(255,255,255,0)"/><text transform="translate(138 105)" font-size="42" font-family="Poppins-Bold, Poppins" font-weight="700"><tspan x="0" y="0">Colors</tspan></text><text transform="translate(278 686)" font-size="32" font-family="Poppins-Medium, Poppins" font-weight="500"><tspan x="0" y="0">Primary</tspan></text><text transform="translate(860 686)" font-size="32" font-family="Poppins-Medium, Poppins" font-weight="500"><tspan x="0" y="0">Other Colors</tspan></text><line x2="1198" transform="translate(138.5 134.5)" fill="none" stroke="#030303" stroke-width="3"/><rect width="417" height="397" rx="3" transform="translate(139 209)" fill="url(#a)"/><rect width="230" height="190" rx="3" transform="translate(586 209)" fill="#a399ca"/><rect width="230" height="190" rx="3" transform="translate(846 209)" fill="#69c"/><text transform="translate(294 587)" fill="#fff" font-size="24" font-family="Poppins-Regular, Poppins"><tspan x="0" y="0">#7C68BF</tspan></text><text transform="translate(289 244)" fill="#fff" font-size="24" font-family="Poppins-Regular, Poppins"><tspan x="0" y="0">#A49DCA</tspan></text><text transform="translate(642 386)" fill="#fff" font-size="24" font-family="Poppins-Regular, Poppins"><tspan x="0" y="0">#A399CA</tspan></text><text transform="translate(903 386)" fill="#fff" font-size="24" font-family="Poppins-Regular, Poppins"><tspan x="0" y="0">#6699CC</tspan></text><rect width="230" height="190" rx="3" transform="translate(1106 209)" fill="#e35d5d"/><rect width="230" height="187" rx="3" transform="translate(586 419)" fill="#6c66b8"/><rect width="230" height="187" rx="3" transform="translate(846 419)" fill="#66c"/><rect width="230" height="187" rx="3" transform="translate(1106 419)" fill="#f1faff"/><text transform="translate(1163 386)" fill="#fff" font-size="24" font-family="Poppins-Regular, Poppins"><tspan x="0" y="0">#E35D5D</tspan></text><text transform="translate(644 587)" fill="#fff" font-size="24" font-family="Poppins-Regular, Poppins"><tspan x="0" y="0">#6C66B8</tspan></text><text transform="translate(905 587)" fill="#fff" font-size="24" font-family="Poppins-Regular, Poppins"><tspan x="0" y="0">#6666CC</tspan></text><text transform="translate(1165 587)" font-size="24" font-family="Poppins-Regular, Poppins"><tspan x="0" y="0">#6C66B8</tspan></text></g></svg>