<svg xmlns="http://www.w3.org/2000/svg" xmlns:xlink="http://www.w3.org/1999/xlink" width="1365" height="567" viewBox="0 0 1365 567"><defs><radialGradient id="a" cx="0.493" cy="1" r="1.122" gradientTransform="translate(-0.797 1.493) rotate(-90) scale(1 1.29)" gradientUnits="objectBoundingBox"><stop offset="0" stop-color="#6666b5"/><stop offset="0.51" stop-color="#996ccc"/><stop offset="1" stop-color="#a6a6c9"/></radialGradient><radialGradient id="b" cx="0.557" cy="1" r="1.381" gradientTransform="translate(-5.637 1.557) rotate(-90) scale(1 6.193)" gradientUnits="objectBoundingBox"><stop offset="0" stop-color="#6666b5"/><stop offset="0.637" stop-color="#996ccc"/><stop offset="1" stop-color="#a6a6c9"/></radialGradient><filter id="d" x="558" y="76.057" width="76" height="76" filterUnits="userSpaceOnUse"><feOffset dy="4" input="SourceAlpha"/><feGaussianBlur stdDeviation="6" result="e"/><feFlood flood-opacity="0.161"/><feComposite operator="in" in2="e"/><feComposite in="SourceGraphic"/></filter><filter id="g" x="558" y="140.922" width="76" height="76" filterUnits="userSpaceOnUse"><feOffset dy="4" input="SourceAlpha"/><feGaussianBlur stdDeviation="6" result="h"/><feFlood flood-opacity="0.161"/><feComposite operator="in" in2="h"/><feComposite in="SourceGraphic"/></filter><radialGradient id="i" cx="0.493" cy="1" r="1.122" gradientTransform="translate(-0.797 1.493) rotate(-90) scale(1 1.29)" gradientUnits="objectBoundingBox"><stop offset="0" stop-color="#f22953"/><stop offset="0.51" stop-color="#ee4170"/><stop offset="1" stop-color="#f39090"/></radialGradient><linearGradient id="j" x1="0.845" y1="0.5" x2="0" y2="0.5" gradientUnits="objectBoundingBox"><stop offset="0" stop-color="#96c"/><stop offset="1" stop-color="#a398ca"/></linearGradient><filter id="k"><feOffset dy="2" input="SourceAlpha"/><feGaussianBlur stdDeviation="0.5" result="l"/><feFlood flood-opacity="0.161" result="m"/><feComposite operator="out" in="SourceGraphic" in2="l"/><feComposite operator="in" in="m"/><feComposite operator="in" in2="SourceGraphic"/></filter><filter id="n" x="783" y="88.461" width="28" height="27" filterUnits="userSpaceOnUse"><feOffset dy="1" input="SourceAlpha"/><feGaussianBlur stdDeviation="1" result="o"/><feFlood flood-opacity="0.161"/><feComposite operator="in" in2="o"/><feComposite in="SourceGraphic"/></filter><filter id="p"><feOffset dy="2" input="SourceAlpha"/><feGaussianBlur stdDeviation="2" result="q"/><feFlood flood-opacity="0.161" result="r"/><feComposite operator="out" in="SourceGraphic" in2="q"/><feComposite operator="in" in="r"/><feComposite operator="in" in2="SourceGraphic"/></filter><filter id="s" x="903" y="88.461" width="28" height="27" filterUnits="userSpaceOnUse"><feOffset dy="1" input="SourceAlpha"/><feGaussianBlur stdDeviation="1" result="t"/><feFlood flood-opacity="0.161"/><feComposite operator="in" in2="t"/><feComposite in="SourceGraphic"/></filter><filter id="u" x="698" y="168.922" width="30" height="30" filterUnits="userSpaceOnUse"><feOffset dy="1" input="SourceAlpha"/><feGaussianBlur stdDeviation="1" result="v"/><feFlood flood-opacity="0.161"/><feComposite operator="in" in2="v"/><feComposite in="SourceGraphic"/></filter><filter id="w" x="703.5" y="174.422" width="19" height="19" filterUnits="userSpaceOnUse"><feOffset dy="1" input="SourceAlpha"/><feGaussianBlur stdDeviation="0.5" result="x"/><feFlood flood-opacity="0.161"/><feComposite operator="in" in2="x"/><feComposite in="SourceGraphic"/></filter><filter id="y" x="744.5" y="168.422" width="33" height="33" filterUnits="userSpaceOnUse"><feOffset dy="2" input="SourceAlpha"/><feGaussianBlur stdDeviation="1.5" result="z"/><feFlood flood-opacity="0.161"/><feComposite operator="in" in2="z"/><feComposite in="SourceGraphic"/></filter><filter id="aa" x="840.5" y="168.422" width="33" height="33" filterUnits="userSpaceOnUse"><feOffset dy="2" input="SourceAlpha"/><feGaussianBlur stdDeviation="1.5" result="ab"/><feFlood flood-opacity="0.161"/><feComposite operator="in" in2="ab"/><feComposite in="SourceGraphic"/></filter><filter id="ac" x="1016.5" y="86.961" width="33" height="33" filterUnits="userSpaceOnUse"><feOffset dy="2" input="SourceAlpha"/><feGaussianBlur stdDeviation="1.5" result="ad"/><feFlood flood-opacity="0.161"/><feComposite operator="in" in2="ad"/><feComposite in="SourceGraphic"/></filter><filter id="ae" x="1064.5" y="86.961" width="33" height="33" filterUnits="userSpaceOnUse"><feOffset dy="2" input="SourceAlpha"/><feGaussianBlur stdDeviation="1.5" result="af"/><feFlood flood-opacity="0.161"/><feComposite operator="in" in2="af"/><feComposite in="SourceGraphic"/></filter><filter id="ag" x="57" y="361.5" width="390" height="86" filterUnits="userSpaceOnUse"><feOffset dy="3" input="SourceAlpha"/><feGaussianBlur stdDeviation="8" result="ah"/><feFlood flood-color="#4b2d56" flood-opacity="0.2"/><feComposite operator="in" in2="ah"/><feComposite in="SourceGraphic"/></filter><filter id="ai" x="57" y="426.5" width="391" height="87" filterUnits="userSpaceOnUse"><feOffset dy="3" input="SourceAlpha"/><feGaussianBlur stdDeviation="8" result="aj"/><feFlood flood-color="#4b2d56" flood-opacity="0.2"/><feComposite operator="in" in2="aj"/><feComposite in="SourceGraphic"/></filter><filter id="ak" x="426" y="296.188" width="369" height="87" filterUnits="userSpaceOnUse"><feOffset dy="3" input="SourceAlpha"/><feGaussianBlur stdDeviation="8" result="al"/><feFlood flood-color="#4b2d56" flood-opacity="0.2"/><feComposite operator="in" in2="al"/><feComposite in="SourceGraphic"/></filter><clipPath id="am"><rect width="17" height="17" fill="#fff"/></clipPath><filter id="an" x="69" y="312.188" width="369.401" height="63" filterUnits="userSpaceOnUse"><feOffset dy="4" input="SourceAlpha"/><feGaussianBlur stdDeviation="4" result="ao"/><feFlood flood-color="#fff" flood-opacity="0.502"/><feComposite operator="in" in2="ao"/><feComposite in="SourceGraphic"/></filter><filter id="ap" x="426" y="360.5" width="371" height="86" filterUnits="userSpaceOnUse"><feOffset dy="3" input="SourceAlpha"/><feGaussianBlur stdDeviation="8" result="aq"/><feFlood flood-color="#4b2d56" flood-opacity="0.2"/><feComposite operator="in" in2="aq"/><feComposite in="SourceGraphic"/></filter><filter id="ar" x="426" y="426.5" width="371" height="85" filterUnits="userSpaceOnUse"><feOffset dy="3" input="SourceAlpha"/><feGaussianBlur stdDeviation="8" result="as"/><feFlood flood-color="#4b2d56" flood-opacity="0.2"/><feComposite operator="in" in2="as"/><feComposite in="SourceGraphic"/></filter><clipPath id="au"><rect width="1365" height="567"/></clipPath></defs><g id="at" clip-path="url(#au)"><rect width="1365" height="567" fill="rgba(255,255,255,0)"/><g transform="translate(-21 -312)"><g transform="translate(188 401.461)"><rect width="115" height="41" rx="3" fill="url(#a)"/><text transform="translate(36 25)" fill="#f1faff" font-size="12" font-family="Poppins-Regular, Poppins"><tspan x="0" y="0">Default</tspan></text></g><g transform="translate(319 401.461)"><rect width="107" height="41" rx="3" fill="url(#b)"/><text transform="translate(36 25)" fill="#f1faff" font-size="12" font-family="Poppins-Regular, Poppins"><tspan x="0" y="0">Hover</tspan></text></g><g transform="translate(597 402.057)"><g transform="matrix(1, 0, 0, 1, -576, -90.06)" filter="url(#d)"><rect width="40" height="40" rx="3" transform="translate(576 90.06)" fill="url(#a)"/></g><g transform="translate(3 1.877)"><path d="M18.4,10.459a1.553,1.553,0,0,1,1.928,0L28.5,17.315a1.018,1.018,0,0,1,0,1.618l-8.171,6.856a1.555,1.555,0,0,1-1.928,0,1.019,1.019,0,0,1,0-1.618l7.209-6.047L18.4,12.076a1.018,1.018,0,0,1,0-1.618Z" transform="translate(-3.898 0)" fill="#fff" fill-rule="evenodd"/><path d="M9,18a1.065,1.065,0,0,1,.991-1.125H22.881a1.134,1.134,0,0,1,0,2.25H9.991A1.065,1.065,0,0,1,9,18Z" transform="translate(0 0.123)" fill="#fff" fill-rule="evenodd"/></g></g><g transform="translate(597 466.922)"><g transform="matrix(1, 0, 0, 1, -576, -154.92)" filter="url(#g)"><rect width="40" height="40" rx="3" transform="translate(576 154.92)" fill="url(#a)"/></g><g transform="translate(3 1.488)"><path d="M9,18.375c0-.828.478-1.5,1.067-1.5H23.933c.589,0,1.067.672,1.067,1.5s-.478,1.5-1.067,1.5H10.067C9.478,19.875,9,19.2,9,18.375Z" transform="translate(0 0.138)" fill="#fff" fill-rule="evenodd"/><path d="M0,1.5C0,.672.478,0,1.067,0H14.933C15.522,0,16,.672,16,1.5S15.522,3,14.933,3H1.067C.478,3,0,2.328,0,1.5Z" transform="translate(18.5 10.512) rotate(90)" fill="#fff" fill-rule="evenodd"/></g></g><g transform="translate(188 466.422)"><g fill="none" stroke="#96c" stroke-width="2"><rect width="115" height="41" rx="3" stroke="none"/><rect x="1" y="1" width="113" height="39" rx="2" fill="none"/></g><text transform="translate(36 25)" fill="#96c" font-size="12" font-family="Poppins-Regular, Poppins"><tspan x="0" y="0">Default</tspan></text></g><g transform="translate(319 466.422)"><g fill="rgba(153,102,204,0.1)" stroke="#96c" stroke-width="2"><rect width="107" height="41" rx="3" stroke="none"/><rect x="1" y="1" width="105" height="39" rx="2" fill="none"/></g><text transform="translate(36 25)" fill="#96c" font-size="12" font-family="Poppins-Regular, Poppins"><tspan x="0" y="0">Hover</tspan></text></g><g transform="translate(442 401.461)"><rect width="139" height="41" rx="3" fill="url(#i)"/><text transform="translate(36 25)" fill="#f1faff" font-size="12" font-family="Poppins-Regular, Poppins"><tspan x="0" y="0">Destructive</tspan></text></g><text transform="translate(188 390.25)" fill="rgba(0,0,0,0.7)" font-size="12" font-family="Roboto-Medium, Roboto" font-weight="500"><tspan x="0" y="0">SOLID</tspan></text><g transform="translate(82 45.461)"><rect width="48" height="23" rx="11.5" transform="translate(640 356)" fill="#fff"/><ellipse cx="11" cy="10.5" rx="11" ry="10.5" transform="translate(641 357)" fill="#e9daf2"/></g><g transform="translate(142 45.461)"><g data-type="innerShadowGroup"><rect width="48" height="23" rx="11.5" transform="translate(640 356)" fill="url(#j)"/><g transform="matrix(1, 0, 0, 1, -121, 266.54)" filter="url(#k)"><rect width="48" height="23" rx="11.5" transform="translate(761 89.46)" fill="#fff"/></g></g><g transform="matrix(1, 0, 0, 1, -121, 266.54)" filter="url(#n)"><ellipse cx="11" cy="10.5" rx="11" ry="10.5" transform="translate(786 90.46)" fill="#f9f2ff"/></g></g><g transform="translate(202 45.461)"><rect width="48" height="23" rx="11.5" transform="translate(640 356)" fill="#cac2cc"/><ellipse cx="11" cy="10.5" rx="11" ry="10.5" transform="translate(641 357)" fill="#e0d7e5"/></g><g transform="translate(262 45.461)"><g data-type="innerShadowGroup"><rect width="48" height="23" rx="11.5" transform="translate(640 356)" fill="#cfb8e6"/><g transform="matrix(1, 0, 0, 1, -241, 266.54)" filter="url(#p)"><rect width="48" height="23" rx="11.5" transform="translate(881 89.46)" fill="#fff"/></g></g><g transform="matrix(1, 0, 0, 1, -241, 266.54)" filter="url(#s)"><ellipse cx="11" cy="10.5" rx="11" ry="10.5" transform="translate(906 90.46)" fill="#9a7db3"/></g></g><text transform="translate(722 390.25)" fill="rgba(0,0,0,0.7)" font-size="12" font-family="Roboto-Medium, Roboto" font-weight="500"><tspan x="0" y="0">SWITCH</tspan></text><g transform="translate(-4)"><g transform="translate(0 0.461)"><g transform="translate(86 54.461)"><g transform="matrix(1, 0, 0, 1, -61, 257.08)" filter="url(#u)"><g transform="translate(701 170.92)" fill="#fff" stroke="#9b79c8" stroke-width="2"><circle cx="12" cy="12" r="12" stroke="none"/><circle cx="12" cy="12" r="11" fill="none"/></g></g><g transform="matrix(1, 0, 0, 1, -61, 257.08)" filter="url(#w)"><g transform="translate(705 174.92)" fill="#9b79c8" stroke="#9b79c8" stroke-width="2"><circle cx="8" cy="8" r="8" stroke="none"/><circle cx="8" cy="8" r="7" fill="none"/></g></g></g><g transform="translate(134 54.461)"><g transform="matrix(1, 0, 0, 1, -109, 257.08)" filter="url(#y)"><g transform="translate(749 170.92)" fill="#fff" stroke="#9b79c8" stroke-width="2"><circle cx="12" cy="12" r="12" stroke="none"/><circle cx="12" cy="12" r="11" fill="none"/></g></g></g><g transform="translate(230 54.461)"><g transform="matrix(1, 0, 0, 1, -205, 257.08)" filter="url(#aa)"><g transform="translate(845 170.92)" fill="#fff" stroke="#9b79c8" stroke-width="2"><circle cx="12" cy="12" r="12" stroke="none"/><circle cx="12" cy="12" r="11" fill="none"/></g></g></g><g transform="translate(182 54.461)"><g transform="translate(640 428)" fill="#fff" stroke="#d7c2f2" stroke-width="2"><circle cx="12" cy="12" r="12" stroke="none"/><circle cx="12" cy="12" r="11" fill="none"/></g><circle cx="8" cy="8" r="8" transform="translate(644 432)" fill="#d7c2f2"/></g></g><text transform="translate(726 470.922)" fill="rgba(0,0,0,0.7)" font-size="12" font-family="Roboto-Medium, Roboto" font-weight="500"><tspan x="0" y="0">RADIO</tspan></text></g><g transform="translate(82 45.461)"><g transform="matrix(1, 0, 0, 1, -61, 266.54)" filter="url(#ac)"><g transform="translate(1021 89.46)" fill="#fff" stroke="#9b79c8" stroke-width="2"><rect width="24" height="24" rx="4" stroke="none"/><rect x="1" y="1" width="22" height="22" rx="3" fill="none"/></g></g></g><g transform="translate(130 45.461)"><g transform="matrix(1, 0, 0, 1, -109, 266.54)" filter="url(#ae)"><g transform="translate(1069 89.46)" fill="#9b79c8" stroke="#9b79c8" stroke-width="2"><rect width="24" height="24" rx="4" stroke="none"/><rect x="1" y="1" width="22" height="22" rx="3" fill="none"/></g></g><g transform="translate(-48)"><path d="M0,0,2.793,2.793" transform="translate(1014.104 371.207)" fill="none" stroke="#e9d9ff" stroke-linecap="round" stroke-width="3"/><line x1="9" y2="12" transform="translate(1016.896 362)" fill="none" stroke="#e9d9ff" stroke-linecap="round" stroke-width="3"/></g></g><g transform="translate(178 45.461)"><rect width="24" height="24" rx="4" transform="translate(960 356)" fill="#e2ccff"/><g transform="translate(-48)"><path d="M0,0,2.793,2.793" transform="translate(1014.104 371.207)" fill="none" stroke="#d3b3ff" stroke-linecap="round" stroke-width="3"/><line x1="9" y2="12" transform="translate(1016.896 362)" fill="none" stroke="#d3b3ff" stroke-linecap="round" stroke-width="3"/></g></g><text transform="translate(1042 390.25)" fill="rgba(0,0,0,0.7)" font-size="12" font-family="Roboto-Medium, Roboto" font-weight="500"><tspan x="0" y="0">CHECKBOX</tspan></text><text transform="translate(188 348.461)" fill="rgba(0,0,0,0.7)" font-size="18" font-family="Roboto-Regular, Roboto"><tspan x="0" y="0">BUTTONS</tspan></text></g><g transform="translate(-21 -276.5)"><g transform="translate(0 1)"><g transform="translate(102 658)"><g transform="matrix(1, 0, 0, 1, -81, -382.5)" filter="url(#ag)"><rect width="342" height="38" rx="5" transform="translate(81 382.5)" fill="#fff"/></g><text transform="translate(16 8)" font-size="16" font-family="Poppins-Regular, Poppins"><tspan x="0" y="17">Input Field</tspan></text></g><g transform="translate(102 723)"><g transform="matrix(1, 0, 0, 1, -81, -447.5)" filter="url(#ai)"><rect width="343" height="39" rx="5" transform="translate(81 447.5)" fill="#fff"/></g><g transform="translate(-43.5 1)"><line x2="12" y2="12" transform="translate(358.5 13.5)" fill="none" stroke="#96c" stroke-width="3"/><line x1="12" y2="12" transform="translate(358.5 13.5)" fill="none" stroke="#96c" stroke-width="3"/></g><text transform="translate(16 8)" font-size="16" font-family="Poppins-Regular, Poppins"><tspan x="0" y="17">Focused Input</tspan></text></g><g transform="translate(471 592.688)"><g transform="matrix(1, 0, 0, 1, -450, -317.19)" filter="url(#ak)"><rect width="321" height="39" rx="5" transform="translate(450 317.19)" fill="#fff"/></g><text transform="translate(41 8)" font-size="16" font-family="Poppins-Regular, Poppins"><tspan x="0" y="17">Input with Icon</tspan></text><g transform="translate(-354.738 -0.248)"><g transform="translate(362.738 11.248)"><g clip-path="url(#am)"><g transform="translate(0 0)"><path d="M6.8,1.7h6.8a5.105,5.105,0,0,1,5.1,5.1V17.85a.85.85,0,0,1-.85.85H6.8a5.105,5.105,0,0,1-5.1-5.1V6.8A5.105,5.105,0,0,1,6.8,1.7ZM3.4,13.6A3.4,3.4,0,0,0,6.8,17H17V6.8a3.4,3.4,0,0,0-3.4-3.4H6.8A3.4,3.4,0,0,0,3.4,6.8Z" transform="translate(-1.7 -1.7)" fill="#96c"/><path d="M14.45,7.65H5.95v1.7h8.5Zm0,3.4H8.5v1.7h5.95Z" transform="translate(-1.7 -1.7)" fill="#96c"/></g></g></g></g></g><g transform="translate(102 595.688)"><g transform="matrix(1, 0, 0, 1, -81, -320.19)" filter="url(#an)"><rect width="345.401" height="39" rx="16" transform="translate(81 320.19)" fill="#fff"/></g><g transform="translate(-53.741 11.446)"><text transform="translate(111.142 -3.446)" font-size="16" font-family="Poppins-Medium, Poppins" font-weight="500"><tspan x="0" y="17">Search Input</tspan></text><path d="M15.462,14.957l4.681,4.987a.979.979,0,0,1,0,1.323.84.84,0,0,1-1.241,0L14.22,16.279a6.661,6.661,0,0,1-9.484-.961,7.774,7.774,0,0,1,.3-10.147,6.653,6.653,0,0,1,9.522-.321,7.764,7.764,0,0,1,.9,10.106Zm-5.5,1.021a5.4,5.4,0,0,0,5.22-5.562,5.4,5.4,0,0,0-5.22-5.562,5.4,5.4,0,0,0-5.22,5.562A5.4,5.4,0,0,0,9.959,15.978Z" transform="translate(66.743 -3.217)" fill="#5b5b5b" fill-rule="evenodd"/></g></g><g transform="translate(-36 -18)"><g transform="translate(-1 -2)"><text transform="translate(535.5 730)" fill="#66cc74" font-size="10" font-family="Poppins-Regular, Poppins"><tspan x="0" y="0">Success Message Goes Here</tspan></text><line x2="2" y2="2" transform="translate(525.5 727.5)" fill="none" stroke="#66cc74" stroke-linecap="round" stroke-width="2"/><line y1="6" x2="4" transform="translate(527.5 723.5)" fill="none" stroke="#66cc74" stroke-linecap="round" stroke-width="2"/></g><g transform="translate(507 675)"><g transform="matrix(1, 0, 0, 1, -450, -381.5)" filter="url(#ap)"><g transform="translate(450 381.5)" fill="#fafffb" stroke="#66cc74" stroke-width="2"><rect width="323" height="38" rx="5" stroke="none"/><rect x="1" y="1" width="321" height="36" rx="4" fill="none"/></g></g><text transform="translate(16 8)" font-size="16" font-family="Poppins-Regular, Poppins"><tspan x="0" y="17">Success Input</tspan></text></g></g><g transform="translate(-36 48)"><g transform="translate(-1 -3)"><text transform="translate(535.5 730)" fill="#cc667b" font-size="10" font-family="Poppins-Regular, Poppins"><tspan x="0" y="0">Success Message Goes Here</tspan></text><line x2="2" y2="2" transform="translate(525.5 727.5)" fill="none" stroke="#cc6674" stroke-linecap="round" stroke-width="2"/><line y1="6" x2="4" transform="translate(527.5 723.5)" fill="none" stroke="#cc6674" stroke-linecap="round" stroke-width="2"/></g><g transform="translate(507 675)"><g transform="matrix(1, 0, 0, 1, -450, -447.5)" filter="url(#ar)"><g transform="translate(450 447.5)" fill="#fffafb" stroke="#cc6674" stroke-width="2"><rect width="323" height="37" rx="5" stroke="none"/><rect x="1" y="1" width="321" height="35" rx="4" fill="none"/></g></g><text transform="translate(16 8)" font-size="16" font-family="Poppins-Regular, Poppins"><tspan x="0" y="17">Error Input</tspan></text></g></g></g><text transform="translate(102 564.688)" fill="rgba(0,0,0,0.7)" font-size="18" font-family="Roboto-Regular, Roboto"><tspan x="0" y="0">INPUTS</tspan></text></g><g transform="translate(-64 -282.313)"><g transform="translate(0 6.5)"><g transform="translate(897 651.5)"><g transform="translate(2 123)"><rect width="192" height="41" fill="#fff"/><text transform="translate(24 12)" font-size="12" font-family="Poppins-Regular, Poppins"><tspan x="14.118" y="13">Dropdown Option 3</tspan></text></g><line x2="192" transform="translate(2.5 123)" fill="none" stroke="#96c" stroke-width="2"/><g transform="translate(2 82)"><rect width="192" height="41" fill="#fff"/><text transform="translate(24 12)" font-size="12" font-family="Poppins-Regular, Poppins"><tspan x="14.202" y="13">Dropdown Option 2</tspan></text></g><line x2="192" transform="translate(2.5 82)" fill="none" stroke="#96c" stroke-width="2"/><g transform="translate(2 41)"><rect width="192" height="41" fill="#fff"/><text transform="translate(24 12)" font-size="12" font-family="Poppins-Regular, Poppins"><tspan x="15.732" y="13">Dropdown Option 1</tspan></text></g><g fill="rgba(153,102,204,0.1)" stroke="#96c" stroke-width="2"><rect width="195" height="41" rx="3" stroke="none"/><rect x="1" y="1" width="193" height="39" rx="2" fill="none"/></g><g transform="translate(23)"><text transform="translate(38 25)" fill="#96c" font-size="12" font-family="Poppins-Regular, Poppins"><tspan x="0" y="0">Dropdown Open</tspan></text><g transform="translate(13 12)"><path d="M6,19l8.5-8.5L23,19l-2.125,2.125L14.5,14.75,8.125,21.125Z" transform="translate(-6 -8.313)" fill="#96c" fill-rule="evenodd"/><rect width="17" height="17" fill="rgba(255,255,255,0)"/></g></g></g><g transform="translate(893 593)"><g fill="none" stroke="#96c" stroke-width="2"><rect width="204" height="41" rx="3" stroke="none"/><rect x="1" y="1" width="202" height="39" rx="2" fill="none"/></g><g transform="translate(151 12)"><path d="M8.125,10.5,14.5,16.875,20.875,10.5,23,12.625l-8.5,8.5L6,12.625Z" transform="translate(-6 -8.313)" fill="#96c" fill-rule="evenodd"/><rect width="17" height="17" fill="rgba(255,255,255,0)"/></g><text transform="translate(36 25)" fill="#96c" font-size="12" font-family="Poppins-Regular, Poppins"><tspan x="0" y="0">Dropdown Closed</tspan></text></g><g transform="translate(1150 593)"><g transform="translate(-752 -1215)"><path d="M9,10.5l9,9,9-9,3,3-12,12L6,13.5Z" transform="translate(837 1216.5)" fill="#69c" fill-rule="evenodd"/><text transform="translate(760 1240)" fill="#69c" font-size="16" font-family="Poppins-Regular, Poppins"><tspan x="0" y="0">Text List 1</tspan></text></g></g><g transform="translate(1123 651)"><g transform="translate(-719 -1207)"><rect width="177" height="104" rx="3" transform="translate(719 1258)" fill="#fff"/><g transform="translate(728 1315)"><rect width="160" height="39" fill="#fff"/><text transform="translate(12 8)" fill="#5b5b5b" font-size="16" font-family="Poppins-Regular, Poppins"><tspan x="0" y="17">Text List 2</tspan></text></g><g transform="translate(727 1266)"><rect width="161" height="39" rx="3" fill="#69c"/><text transform="translate(12 8)" fill="#f1faff" font-size="16" font-family="Poppins-Regular, Poppins"><tspan x="0" y="17">Text List 1</tspan></text></g></g><g transform="translate(-725 -1215)"><path d="M9,10.5l9,9,9-9,3,3-12,12L6,13.5Z" transform="translate(873 1252.5) rotate(180)" fill="#69c" fill-rule="evenodd"/><text transform="translate(760 1240)" fill="#69c" font-size="16" font-family="Poppins-Regular, Poppins"><tspan x="0" y="0">Text List 1</tspan></text></g></g></g><text transform="translate(893 570.5)" fill="rgba(0,0,0,0.7)" font-size="18" font-family="Roboto-Regular, Roboto"><tspan x="0" y="0">DROPDOWN</tspan></text></g></g></svg>