<svg xmlns="http://www.w3.org/2000/svg" xmlns:xlink="http://www.w3.org/1999/xlink" width="1365" height="872" viewBox="0 0 1365 872"><defs><clipPath id="a"><rect width="35" height="35" fill="#fff"/></clipPath><radialGradient id="b" cx="0.493" cy="1" r="1.122" gradientTransform="translate(-0.797 1.493) rotate(-90) scale(1 1.29)" gradientUnits="objectBoundingBox"><stop offset="0" stop-color="#6666b5"/><stop offset="0.51" stop-color="#996ccc"/><stop offset="1" stop-color="#a6a6c9"/></radialGradient><radialGradient id="c" cx="0.557" cy="1" r="1.381" gradientTransform="translate(-5.637 1.557) rotate(-90) scale(1 6.193)" gradientUnits="objectBoundingBox"><stop offset="0" stop-color="#6666b5"/><stop offset="0.637" stop-color="#996ccc"/><stop offset="1" stop-color="#a6a6c9"/></radialGradient><filter id="e" x="579" y="388.057" width="76" height="76" filterUnits="userSpaceOnUse"><feOffset dy="4" input="SourceAlpha"/><feGaussianBlur stdDeviation="6" result="f"/><feFlood flood-opacity="0.161"/><feComposite operator="in" in2="f"/><feComposite in="SourceGraphic"/></filter><filter id="h" x="579" y="452.922" width="76" height="76" filterUnits="userSpaceOnUse"><feOffset dy="4" input="SourceAlpha"/><feGaussianBlur stdDeviation="6" result="i"/><feFlood flood-opacity="0.161"/><feComposite operator="in" in2="i"/><feComposite in="SourceGraphic"/></filter><radialGradient id="j" cx="0.493" cy="1" r="1.122" gradientTransform="translate(-0.797 1.493) rotate(-90) scale(1 1.29)" gradientUnits="objectBoundingBox"><stop offset="0" stop-color="#f22953"/><stop offset="0.51" stop-color="#ee4170"/><stop offset="1" stop-color="#f39090"/></radialGradient><linearGradient id="k" x1="0.845" y1="0.5" x2="0" y2="0.5" gradientUnits="objectBoundingBox"><stop offset="0" stop-color="#96c"/><stop offset="1" stop-color="#a398ca"/></linearGradient><filter id="l"><feOffset dy="2" input="SourceAlpha"/><feGaussianBlur stdDeviation="0.5" result="m"/><feFlood flood-opacity="0.161" result="n"/><feComposite operator="out" in="SourceGraphic" in2="m"/><feComposite operator="in" in="n"/><feComposite operator="in" in2="SourceGraphic"/></filter><filter id="o" x="804" y="400.461" width="28" height="27" filterUnits="userSpaceOnUse"><feOffset dy="1" input="SourceAlpha"/><feGaussianBlur stdDeviation="1" result="p"/><feFlood flood-opacity="0.161"/><feComposite operator="in" in2="p"/><feComposite in="SourceGraphic"/></filter><filter id="q"><feOffset dy="2" input="SourceAlpha"/><feGaussianBlur stdDeviation="2" result="r"/><feFlood flood-opacity="0.161" result="s"/><feComposite operator="out" in="SourceGraphic" in2="r"/><feComposite operator="in" in="s"/><feComposite operator="in" in2="SourceGraphic"/></filter><filter id="t" x="924" y="400.461" width="28" height="27" filterUnits="userSpaceOnUse"><feOffset dy="1" input="SourceAlpha"/><feGaussianBlur stdDeviation="1" result="u"/><feFlood flood-opacity="0.161"/><feComposite operator="in" in2="u"/><feComposite in="SourceGraphic"/></filter><filter id="v" x="719" y="480.922" width="30" height="30" filterUnits="userSpaceOnUse"><feOffset dy="1" input="SourceAlpha"/><feGaussianBlur stdDeviation="1" result="w"/><feFlood flood-opacity="0.161"/><feComposite operator="in" in2="w"/><feComposite in="SourceGraphic"/></filter><filter id="x" x="724.5" y="486.422" width="19" height="19" filterUnits="userSpaceOnUse"><feOffset dy="1" input="SourceAlpha"/><feGaussianBlur stdDeviation="0.5" result="y"/><feFlood flood-opacity="0.161"/><feComposite operator="in" in2="y"/><feComposite in="SourceGraphic"/></filter><filter id="z" x="765.5" y="480.422" width="33" height="33" filterUnits="userSpaceOnUse"><feOffset dy="2" input="SourceAlpha"/><feGaussianBlur stdDeviation="1.5" result="aa"/><feFlood flood-opacity="0.161"/><feComposite operator="in" in2="aa"/><feComposite in="SourceGraphic"/></filter><filter id="ab" x="861.5" y="480.422" width="33" height="33" filterUnits="userSpaceOnUse"><feOffset dy="2" input="SourceAlpha"/><feGaussianBlur stdDeviation="1.5" result="ac"/><feFlood flood-opacity="0.161"/><feComposite operator="in" in2="ac"/><feComposite in="SourceGraphic"/></filter><filter id="ad" x="1037.5" y="398.961" width="33" height="33" filterUnits="userSpaceOnUse"><feOffset dy="2" input="SourceAlpha"/><feGaussianBlur stdDeviation="1.5" result="ae"/><feFlood flood-opacity="0.161"/><feComposite operator="in" in2="ae"/><feComposite in="SourceGraphic"/></filter><filter id="af" x="1085.5" y="398.961" width="33" height="33" filterUnits="userSpaceOnUse"><feOffset dy="2" input="SourceAlpha"/><feGaussianBlur stdDeviation="1.5" result="ag"/><feFlood flood-opacity="0.161"/><feComposite operator="in" in2="ag"/><feComposite in="SourceGraphic"/></filter><filter id="ah" x="78" y="673.5" width="390" height="86" filterUnits="userSpaceOnUse"><feOffset dy="3" input="SourceAlpha"/><feGaussianBlur stdDeviation="8" result="ai"/><feFlood flood-color="#4b2d56" flood-opacity="0.2"/><feComposite operator="in" in2="ai"/><feComposite in="SourceGraphic"/></filter><filter id="aj" x="78" y="738.5" width="391" height="87" filterUnits="userSpaceOnUse"><feOffset dy="3" input="SourceAlpha"/><feGaussianBlur stdDeviation="8" result="ak"/><feFlood flood-color="#4b2d56" flood-opacity="0.2"/><feComposite operator="in" in2="ak"/><feComposite in="SourceGraphic"/></filter><filter id="al" x="447" y="608.188" width="369" height="87" filterUnits="userSpaceOnUse"><feOffset dy="3" input="SourceAlpha"/><feGaussianBlur stdDeviation="8" result="am"/><feFlood flood-color="#4b2d56" flood-opacity="0.2"/><feComposite operator="in" in2="am"/><feComposite in="SourceGraphic"/></filter><clipPath id="an"><rect width="17" height="17" fill="#fff"/></clipPath><filter id="ao" x="90" y="624.188" width="369.401" height="63" filterUnits="userSpaceOnUse"><feOffset dy="4" input="SourceAlpha"/><feGaussianBlur stdDeviation="4" result="ap"/><feFlood flood-color="#fff" flood-opacity="0.502"/><feComposite operator="in" in2="ap"/><feComposite in="SourceGraphic"/></filter><filter id="aq" x="447" y="672.5" width="371" height="86" filterUnits="userSpaceOnUse"><feOffset dy="3" input="SourceAlpha"/><feGaussianBlur stdDeviation="8" result="ar"/><feFlood flood-color="#4b2d56" flood-opacity="0.2"/><feComposite operator="in" in2="ar"/><feComposite in="SourceGraphic"/></filter><filter id="as" x="447" y="738.5" width="371" height="85" filterUnits="userSpaceOnUse"><feOffset dy="3" input="SourceAlpha"/><feGaussianBlur stdDeviation="8" result="at"/><feFlood flood-color="#4b2d56" flood-opacity="0.2"/><feComposite operator="in" in2="at"/><feComposite in="SourceGraphic"/></filter><clipPath id="av"><rect width="1365" height="872"/></clipPath></defs><g id="au" clip-path="url(#av)"><rect width="1365" height="872" fill="rgba(255,255,255,0)"/><g transform="translate(-36.5 -33)"><line x2="1198" transform="translate(138.5 122)" fill="none" stroke="#030303" stroke-linecap="round" stroke-width="2"/><text transform="translate(680 105)" font-size="32" font-family="Roboto-Medium, Roboto" font-weight="500"><tspan x="0" y="0">Icons</tspan></text></g><g transform="translate(-36.5 -36.789)"><line x2="1198" transform="translate(138.5 335.25)" fill="none" stroke="#030303" stroke-linecap="round" stroke-width="2"/><text transform="translate(629.5 318.25)" font-size="32" font-family="Roboto-Medium, Roboto" font-weight="500"><tspan x="0" y="0">Components</tspan></text></g><g transform="translate(-36.5 -33)"><path d="M26.525,25.572l8.836,9.415a1.848,1.848,0,0,1,0,2.5,1.586,1.586,0,0,1-2.343,0l-8.836-9.415a12.574,12.574,0,0,1-17.9-1.814A14.674,14.674,0,0,1,6.846,7.1a12.558,12.558,0,0,1,17.975-.605,14.656,14.656,0,0,1,1.7,19.077ZM16.139,27.5c5.442,0,9.854-4.7,9.854-10.5S21.581,6.5,16.139,6.5,6.285,11.2,6.285,17,10.7,27.5,16.139,27.5Z" transform="translate(1131.008 168)" fill="#96c" fill-rule="evenodd"/><path d="M20.142,3c-4.656,0-5.239.021-7.067.1a12.391,12.391,0,0,0-4.161.814A8.386,8.386,0,0,0,5.876,5.938,8.6,8.6,0,0,0,3.9,9.037a13.138,13.138,0,0,0-.8,4.248C3.019,15.152,3,15.747,3,20.5s.019,5.348.1,7.214a13.114,13.114,0,0,0,.8,4.248,8.6,8.6,0,0,0,1.977,3.1,8.389,8.389,0,0,0,3.038,2.018,12.414,12.414,0,0,0,4.161.814c1.828.084,2.412.1,7.067.1s5.239-.021,7.067-.1a12.391,12.391,0,0,0,4.161-.814,8.388,8.388,0,0,0,3.038-2.018,8.6,8.6,0,0,0,1.977-3.1,13.138,13.138,0,0,0,.8-4.248c.082-1.867.1-2.463.1-7.214s-.021-5.348-.1-7.214a13.114,13.114,0,0,0-.8-4.248,8.6,8.6,0,0,0-1.977-3.1,8.386,8.386,0,0,0-3.038-2.018A12.414,12.414,0,0,0,27.21,3.1C25.38,3.021,24.8,3,20.142,3m0,3.153c4.577,0,5.119.017,6.925.1a9.354,9.354,0,0,1,3.185.6,5.354,5.354,0,0,1,1.971,1.309,5.459,5.459,0,0,1,1.282,2.012,9.888,9.888,0,0,1,.59,3.249c.082,1.847.1,2.4.1,7.072s-.017,5.225-.1,7.07a9.962,9.962,0,0,1-.59,3.251,5.437,5.437,0,0,1-1.282,2.012,5.325,5.325,0,0,1-1.971,1.309,9.344,9.344,0,0,1-3.183.6c-1.807.084-2.348.1-6.928.1s-5.121-.017-6.925-.1a9.413,9.413,0,0,1-3.185-.6A5.3,5.3,0,0,1,8.06,32.833a5.434,5.434,0,0,1-1.282-2.012,9.826,9.826,0,0,1-.59-3.249c-.082-1.847-.1-2.4-.1-7.072s.017-5.225.1-7.07a9.9,9.9,0,0,1,.59-3.251A5.488,5.488,0,0,1,8.06,8.166a5.326,5.326,0,0,1,1.971-1.309,9.286,9.286,0,0,1,3.183-.6c1.809-.084,2.348-.1,6.928-.1m0,20.179A5.834,5.834,0,1,1,25.856,20.5a5.774,5.774,0,0,1-5.714,5.833m0-14.819a8.988,8.988,0,1,0,8.8,8.986,8.9,8.9,0,0,0-8.8-8.986m11.207-.355a2.057,2.057,0,1,1-2.057-2.1,2.079,2.079,0,0,1,2.057,2.1" transform="translate(1044.72 168)" fill="#96c" fill-rule="evenodd"/><path d="M16.476,39c16.188,0,25.045-12.7,25.045-23.694,0-.357,0-.714-.017-1.071a17.425,17.425,0,0,0,4.4-4.323,18.641,18.641,0,0,1-5.062,1.318,8.477,8.477,0,0,0,3.878-4.613,18.131,18.131,0,0,1-5.6,2.016A9.028,9.028,0,0,0,32.7,6a8.585,8.585,0,0,0-8.807,8.332,8.725,8.725,0,0,0,.223,1.9A25.5,25.5,0,0,1,5.97,7.526,8.082,8.082,0,0,0,8.7,18.65a9.3,9.3,0,0,1-3.984-1.039v.114a8.475,8.475,0,0,0,7.057,8.169,9.043,9.043,0,0,1-2.317.292A9.166,9.166,0,0,1,7.8,26.04a8.759,8.759,0,0,0,8.224,5.783A18.307,18.307,0,0,1,5.094,35.394,17.89,17.89,0,0,1,3,35.28,26.1,26.1,0,0,0,16.478,39" transform="translate(949.82 165)" fill="#96c"/><path d="M27.964,38V24.447h4.729l.708-5.282H27.963V15.792c0-1.53.441-2.572,2.724-2.572h2.907V8.495a40.428,40.428,0,0,0-4.238-.21c-4.191,0-7.059,2.463-7.059,6.983v3.9H17.552v5.281h4.743V38H5.008A1.971,1.971,0,0,1,3,36.068V4.932A1.971,1.971,0,0,1,5.008,3H37.371a1.971,1.971,0,0,1,2.008,1.932V36.068A1.971,1.971,0,0,1,37.371,38Z" transform="translate(861.441 168)" fill="#96c" fill-rule="evenodd"/><g transform="translate(757.711 157.543)"><g transform="translate(12.767 13.457)"><path d="M6.339,36.767H1.767V17.76a7.2,7.2,0,0,1,1.054-3.741c1.934-3.549,6.184-5.831,10.87-5.835H25.663V1.767h3.714L43.73,13.7l-14.4,11.98H25.663V19.267H17.877c-3.347.007-6.281,1.86-7.189,4.539Zm7.352-26.25A9.381,9.381,0,0,0,5.368,15l-.026.045a5.2,5.2,0,0,0-.77,2.718V33.35L7.985,23.178c1.248-3.686,5.286-6.236,9.891-6.245H28.469V23.1L39.763,13.7,28.469,4.311v6.206Z" transform="translate(-1.767 -1.767)" fill="#96c"/></g></g><path d="M6.625,4.375A4.375,4.375,0,0,1,11,0H28.5a4.375,4.375,0,0,1,4.375,4.375V33.907a1.094,1.094,0,0,1-1.7.91L19.75,28.659,8.325,34.817a1.094,1.094,0,0,1-1.7-.91ZM11,2.188A2.188,2.188,0,0,0,8.813,4.375V31.864l10.332-5.43a1.094,1.094,0,0,1,1.212,0l10.332,5.43V4.375A2.188,2.188,0,0,0,28.5,2.188Z" transform="translate(685.601 171)" fill="#96c"/><g transform="translate(605.227 171)"><g clip-path="url(#a)"><g transform="translate(0 0)"><path d="M7.656,0A1.094,1.094,0,0,1,8.75,1.094V2.188h17.5V1.094a1.094,1.094,0,1,1,2.188,0V2.188h2.187A4.375,4.375,0,0,1,35,6.563V30.625A4.375,4.375,0,0,1,30.625,35H4.375A4.375,4.375,0,0,1,0,30.625V6.563A4.375,4.375,0,0,1,4.375,2.188H6.563V1.094A1.094,1.094,0,0,1,7.656,0ZM4.375,4.375A2.187,2.187,0,0,0,2.188,6.563V8.75H32.813V6.563a2.188,2.188,0,0,0-2.187-2.188Zm28.438,6.563H2.188V30.625a2.187,2.187,0,0,0,2.188,2.188h26.25a2.187,2.187,0,0,0,2.188-2.187Z" transform="translate(0 0)" fill="#96c"/><path d="M26.087,7.969c0-.293.641-.531,1.431-.531h2.863c.79,0,1.431.238,1.431.531V9.031c0,.293-.641.531-1.431.531H27.519c-.79,0-1.431-.238-1.431-.531Zm-8.587,0c0-.293.641-.531,1.431-.531h2.862c.79,0,1.431.238,1.431.531V9.031c0,.293-.641.531-1.431.531H18.931c-.79,0-1.431-.238-1.431-.531Zm-5.725,3.188c0-.293.641-.531,1.431-.531h2.863c.79,0,1.431.238,1.431.531v1.063c0,.293-.641.531-1.431.531H13.206c-.79,0-1.431-.238-1.431-.531Zm-8.587,0c0-.293.641-.531,1.431-.531H7.481c.79,0,1.431.238,1.431.531v1.063c0,.293-.641.531-1.431.531H4.619c-.79,0-1.431-.238-1.431-.531Z" transform="translate(0 11.455)" fill="#96c"/></g></g></g><g transform="translate(499.227 172)"><rect width="54" height="34" fill="rgba(255,255,255,0)"/><path d="M12.75,10.5,33,29.587,53.25,10.5,60,16.862,33,42.313,6,16.862Z" transform="translate(-6 -8.313)" fill="#96c" fill-rule="evenodd"/></g><g transform="translate(397 172)"><rect width="34" height="34" fill="rgba(255,255,255,0)"/><path d="M6,35.95,31.113,10.5,56.227,35.95l-6.278,6.362L31.113,23.225,12.278,42.313Z" transform="translate(-6 -8.313)" fill="#96c" fill-rule="evenodd"/></g><g transform="translate(311 172)"><path d="M16.038,6,38.131,23,16.038,40,10.5,35.75,27.084,23,10.5,10.25Z" transform="translate(-7.316 -6)" fill="#96c" fill-rule="evenodd"/><rect width="34" height="34" fill="rgba(255,255,255,0)"/></g><g transform="translate(225 172)"><path d="M32.6,6l5.525,4.25L21.55,23,38.125,35.75,32.6,40,10.5,23Z" transform="translate(-7.625 -6)" fill="#96c" fill-rule="evenodd"/><rect width="34" height="34" fill="rgba(255,255,255,0)"/><rect width="34" height="34" fill="rgba(255,255,255,0)"/></g><g transform="translate(142 170)"><rect width="31" height="31" transform="translate(0 2)" fill="rgba(255,255,255,0)"/><g transform="translate(-116 -1254)"><line x2="29.579" transform="translate(116.5 1258.5)" fill="none" stroke="#96c" stroke-width="3"/><line x2="29.579" transform="translate(116.5 1271.714)" fill="none" stroke="#96c" stroke-width="3"/><line x2="29.579" transform="translate(116.5 1284.927)" fill="none" stroke="#96c" stroke-width="3"/><g transform="translate(117 1254)" fill="#fff" stroke="#96c" stroke-width="2"><circle cx="5" cy="5" r="5" stroke="none"/><circle cx="5" cy="5" r="4" fill="none"/></g><g transform="translate(135 1266)" fill="#fff" stroke="#96c" stroke-width="2"><circle cx="5" cy="5" r="5" stroke="none"/><circle cx="5" cy="5" r="4" fill="none"/></g><g transform="translate(125 1280)" fill="#fff" stroke="#96c" stroke-width="2"><circle cx="5" cy="5" r="5" stroke="none"/><circle cx="5" cy="5" r="4" fill="none"/></g></g></g></g><g transform="translate(188 401.461)"><rect width="115" height="41" rx="3" fill="url(#b)"/><text transform="translate(36 25)" fill="#f1faff" font-size="12" font-family="Poppins-Regular, Poppins"><tspan x="0" y="0">Default</tspan></text></g><g transform="translate(319 401.461)"><rect width="107" height="41" rx="3" fill="url(#c)"/><text transform="translate(36 25)" fill="#f1faff" font-size="12" font-family="Poppins-Regular, Poppins"><tspan x="0" y="0">Hover</tspan></text></g><g transform="translate(597 402.057)"><g transform="matrix(1, 0, 0, 1, -597, -402.06)" filter="url(#e)"><rect width="40" height="40" rx="3" transform="translate(597 402.06)" fill="url(#b)"/></g><g transform="translate(3 1.877)"><path d="M18.4,10.459a1.553,1.553,0,0,1,1.928,0L28.5,17.315a1.018,1.018,0,0,1,0,1.618l-8.171,6.856a1.555,1.555,0,0,1-1.928,0,1.019,1.019,0,0,1,0-1.618l7.209-6.047L18.4,12.076a1.018,1.018,0,0,1,0-1.618Z" transform="translate(-3.898 0)" fill="#fff" fill-rule="evenodd"/><path d="M9,18a1.065,1.065,0,0,1,.991-1.125H22.881a1.134,1.134,0,0,1,0,2.25H9.991A1.065,1.065,0,0,1,9,18Z" transform="translate(0 0.123)" fill="#fff" fill-rule="evenodd"/></g></g><g transform="translate(597 466.922)"><g transform="matrix(1, 0, 0, 1, -597, -466.92)" filter="url(#h)"><rect width="40" height="40" rx="3" transform="translate(597 466.92)" fill="url(#b)"/></g><g transform="translate(3 1.488)"><path d="M9,18.375c0-.828.478-1.5,1.067-1.5H23.933c.589,0,1.067.672,1.067,1.5s-.478,1.5-1.067,1.5H10.067C9.478,19.875,9,19.2,9,18.375Z" transform="translate(0 0.138)" fill="#fff" fill-rule="evenodd"/><path d="M0,1.5C0,.672.478,0,1.067,0H14.933C15.522,0,16,.672,16,1.5S15.522,3,14.933,3H1.067C.478,3,0,2.328,0,1.5Z" transform="translate(18.5 10.512) rotate(90)" fill="#fff" fill-rule="evenodd"/></g></g><g transform="translate(188 466.422)"><g fill="none" stroke="#96c" stroke-width="2"><rect width="115" height="41" rx="3" stroke="none"/><rect x="1" y="1" width="113" height="39" rx="2" fill="none"/></g><text transform="translate(36 25)" fill="#96c" font-size="12" font-family="Poppins-Regular, Poppins"><tspan x="0" y="0">Default</tspan></text></g><g transform="translate(319 466.422)"><g fill="rgba(153,102,204,0.1)" stroke="#96c" stroke-width="2"><rect width="107" height="41" rx="3" stroke="none"/><rect x="1" y="1" width="105" height="39" rx="2" fill="none"/></g><text transform="translate(36 25)" fill="#96c" font-size="12" font-family="Poppins-Regular, Poppins"><tspan x="0" y="0">Hover</tspan></text></g><g transform="translate(442 401.461)"><rect width="139" height="41" rx="3" fill="url(#j)"/><text transform="translate(36 25)" fill="#f1faff" font-size="12" font-family="Poppins-Regular, Poppins"><tspan x="0" y="0">Destructive</tspan></text></g><text transform="translate(188 390.25)" fill="rgba(0,0,0,0.7)" font-size="12" font-family="Roboto-Medium, Roboto" font-weight="500"><tspan x="0" y="0">SOLID</tspan></text><g transform="translate(82 45.461)"><rect width="48" height="23" rx="11.5" transform="translate(640 356)" fill="#fff"/><ellipse cx="11" cy="10.5" rx="11" ry="10.5" transform="translate(641 357)" fill="#e9daf2"/></g><g transform="translate(142 45.461)"><g data-type="innerShadowGroup"><rect width="48" height="23" rx="11.5" transform="translate(640 356)" fill="url(#k)"/><g transform="matrix(1, 0, 0, 1, -142, -45.46)" filter="url(#l)"><rect width="48" height="23" rx="11.5" transform="translate(782 401.46)" fill="#fff"/></g></g><g transform="matrix(1, 0, 0, 1, -142, -45.46)" filter="url(#o)"><ellipse cx="11" cy="10.5" rx="11" ry="10.5" transform="translate(807 402.46)" fill="#f9f2ff"/></g></g><g transform="translate(202 45.461)"><rect width="48" height="23" rx="11.5" transform="translate(640 356)" fill="#cac2cc"/><ellipse cx="11" cy="10.5" rx="11" ry="10.5" transform="translate(641 357)" fill="#e0d7e5"/></g><g transform="translate(262 45.461)"><g data-type="innerShadowGroup"><rect width="48" height="23" rx="11.5" transform="translate(640 356)" fill="#cfb8e6"/><g transform="matrix(1, 0, 0, 1, -262, -45.46)" filter="url(#q)"><rect width="48" height="23" rx="11.5" transform="translate(902 401.46)" fill="#fff"/></g></g><g transform="matrix(1, 0, 0, 1, -262, -45.46)" filter="url(#t)"><ellipse cx="11" cy="10.5" rx="11" ry="10.5" transform="translate(927 402.46)" fill="#9a7db3"/></g></g><text transform="translate(722 390.25)" fill="rgba(0,0,0,0.7)" font-size="12" font-family="Roboto-Medium, Roboto" font-weight="500"><tspan x="0" y="0">SWITCH</tspan></text><g transform="translate(-4)"><g transform="translate(0 0.461)"><g transform="translate(86 54.461)"><g transform="matrix(1, 0, 0, 1, -82, -54.92)" filter="url(#v)"><g transform="translate(722 482.92)" fill="#fff" stroke="#9b79c8" stroke-width="2"><circle cx="12" cy="12" r="12" stroke="none"/><circle cx="12" cy="12" r="11" fill="none"/></g></g><g transform="matrix(1, 0, 0, 1, -82, -54.92)" filter="url(#x)"><g transform="translate(726 486.92)" fill="#9b79c8" stroke="#9b79c8" stroke-width="2"><circle cx="8" cy="8" r="8" stroke="none"/><circle cx="8" cy="8" r="7" fill="none"/></g></g></g><g transform="translate(134 54.461)"><g transform="matrix(1, 0, 0, 1, -130, -54.92)" filter="url(#z)"><g transform="translate(770 482.92)" fill="#fff" stroke="#9b79c8" stroke-width="2"><circle cx="12" cy="12" r="12" stroke="none"/><circle cx="12" cy="12" r="11" fill="none"/></g></g></g><g transform="translate(230 54.461)"><g transform="matrix(1, 0, 0, 1, -226, -54.92)" filter="url(#ab)"><g transform="translate(866 482.92)" fill="#fff" stroke="#9b79c8" stroke-width="2"><circle cx="12" cy="12" r="12" stroke="none"/><circle cx="12" cy="12" r="11" fill="none"/></g></g></g><g transform="translate(182 54.461)"><g transform="translate(640 428)" fill="#fff" stroke="#d7c2f2" stroke-width="2"><circle cx="12" cy="12" r="12" stroke="none"/><circle cx="12" cy="12" r="11" fill="none"/></g><circle cx="8" cy="8" r="8" transform="translate(644 432)" fill="#d7c2f2"/></g></g><text transform="translate(726 470.922)" fill="rgba(0,0,0,0.7)" font-size="12" font-family="Roboto-Medium, Roboto" font-weight="500"><tspan x="0" y="0">RADIO</tspan></text></g><g transform="translate(82 45.461)"><g transform="matrix(1, 0, 0, 1, -82, -45.46)" filter="url(#ad)"><g transform="translate(1042 401.46)" fill="#fff" stroke="#9b79c8" stroke-width="2"><rect width="24" height="24" rx="4" stroke="none"/><rect x="1" y="1" width="22" height="22" rx="3" fill="none"/></g></g></g><g transform="translate(130 45.461)"><g transform="matrix(1, 0, 0, 1, -130, -45.46)" filter="url(#af)"><g transform="translate(1090 401.46)" fill="#9b79c8" stroke="#9b79c8" stroke-width="2"><rect width="24" height="24" rx="4" stroke="none"/><rect x="1" y="1" width="22" height="22" rx="3" fill="none"/></g></g><g transform="translate(-48)"><path d="M0,0,2.793,2.793" transform="translate(1014.104 371.207)" fill="none" stroke="#e9d9ff" stroke-linecap="round" stroke-width="3"/><line x1="9" y2="12" transform="translate(1016.896 362)" fill="none" stroke="#e9d9ff" stroke-linecap="round" stroke-width="3"/></g></g><g transform="translate(178 45.461)"><rect width="24" height="24" rx="4" transform="translate(960 356)" fill="#e2ccff"/><g transform="translate(-48)"><path d="M0,0,2.793,2.793" transform="translate(1014.104 371.207)" fill="none" stroke="#d3b3ff" stroke-linecap="round" stroke-width="3"/><line x1="9" y2="12" transform="translate(1016.896 362)" fill="none" stroke="#d3b3ff" stroke-linecap="round" stroke-width="3"/></g></g><text transform="translate(1042 390.25)" fill="rgba(0,0,0,0.7)" font-size="12" font-family="Roboto-Medium, Roboto" font-weight="500"><tspan x="0" y="0">CHECKBOX</tspan></text><text transform="translate(188 348.461)" fill="rgba(0,0,0,0.7)" font-size="18" font-family="Roboto-Regular, Roboto"><tspan x="0" y="0">BUTTONS</tspan></text><g transform="translate(0 35.5)"><g transform="translate(0 1)"><g transform="translate(102 658)"><g transform="matrix(1, 0, 0, 1, -102, -694.5)" filter="url(#ah)"><rect width="342" height="38" rx="5" transform="translate(102 694.5)" fill="#fff"/></g><text transform="translate(16 8)" font-size="16" font-family="Poppins-Regular, Poppins"><tspan x="0" y="17">Input Field</tspan></text></g><g transform="translate(102 723)"><g transform="matrix(1, 0, 0, 1, -102, -759.5)" filter="url(#aj)"><rect width="343" height="39" rx="5" transform="translate(102 759.5)" fill="#fff"/></g><g transform="translate(-43.5 1)"><line x2="12" y2="12" transform="translate(358.5 13.5)" fill="none" stroke="#96c" stroke-width="3"/><line x1="12" y2="12" transform="translate(358.5 13.5)" fill="none" stroke="#96c" stroke-width="3"/></g><text transform="translate(16 8)" font-size="16" font-family="Poppins-Regular, Poppins"><tspan x="0" y="17">Focused Input</tspan></text></g><g transform="translate(471 592.688)"><g transform="matrix(1, 0, 0, 1, -471, -629.19)" filter="url(#al)"><rect width="321" height="39" rx="5" transform="translate(471 629.19)" fill="#fff"/></g><text transform="translate(41 8)" font-size="16" font-family="Poppins-Regular, Poppins"><tspan x="0" y="17">Input with Icon</tspan></text><g transform="translate(-354.738 -0.248)"><g transform="translate(362.738 11.248)"><g clip-path="url(#an)"><g transform="translate(0 0)"><path d="M6.8,1.7h6.8a5.105,5.105,0,0,1,5.1,5.1V17.85a.85.85,0,0,1-.85.85H6.8a5.105,5.105,0,0,1-5.1-5.1V6.8A5.105,5.105,0,0,1,6.8,1.7ZM3.4,13.6A3.4,3.4,0,0,0,6.8,17H17V6.8a3.4,3.4,0,0,0-3.4-3.4H6.8A3.4,3.4,0,0,0,3.4,6.8Z" transform="translate(-1.7 -1.7)" fill="#96c"/><path d="M14.45,7.65H5.95v1.7h8.5Zm0,3.4H8.5v1.7h5.95Z" transform="translate(-1.7 -1.7)" fill="#96c"/></g></g></g></g></g><g transform="translate(102 595.688)"><g transform="matrix(1, 0, 0, 1, -102, -632.19)" filter="url(#ao)"><rect width="345.401" height="39" rx="16" transform="translate(102 632.19)" fill="#fff"/></g><g transform="translate(-53.741 11.446)"><text transform="translate(111.142 -3.446)" font-size="16" font-family="Poppins-Medium, Poppins" font-weight="500"><tspan x="0" y="17">Search Input</tspan></text><path d="M15.462,14.957l4.681,4.987a.979.979,0,0,1,0,1.323.84.84,0,0,1-1.241,0L14.22,16.279a6.661,6.661,0,0,1-9.484-.961,7.774,7.774,0,0,1,.3-10.147,6.653,6.653,0,0,1,9.522-.321,7.764,7.764,0,0,1,.9,10.106Zm-5.5,1.021a5.4,5.4,0,0,0,5.22-5.562,5.4,5.4,0,0,0-5.22-5.562,5.4,5.4,0,0,0-5.22,5.562A5.4,5.4,0,0,0,9.959,15.978Z" transform="translate(66.743 -3.217)" fill="#5b5b5b" fill-rule="evenodd"/></g></g><g transform="translate(-36 -18)"><g transform="translate(-1 -2)"><text transform="translate(535.5 730)" fill="#66cc74" font-size="10" font-family="Poppins-Regular, Poppins"><tspan x="0" y="0">Success Message Goes Here</tspan></text><line x2="2" y2="2" transform="translate(525.5 727.5)" fill="none" stroke="#66cc74" stroke-linecap="round" stroke-width="2"/><line y1="6" x2="4" transform="translate(527.5 723.5)" fill="none" stroke="#66cc74" stroke-linecap="round" stroke-width="2"/></g><g transform="translate(507 675)"><g transform="matrix(1, 0, 0, 1, -471, -693.5)" filter="url(#aq)"><g transform="translate(471 693.5)" fill="#fafffb" stroke="#66cc74" stroke-width="2"><rect width="323" height="38" rx="5" stroke="none"/><rect x="1" y="1" width="321" height="36" rx="4" fill="none"/></g></g><text transform="translate(16 8)" font-size="16" font-family="Poppins-Regular, Poppins"><tspan x="0" y="17">Success Input</tspan></text></g></g><g transform="translate(-36 48)"><g transform="translate(-1 -3)"><text transform="translate(535.5 730)" fill="#cc667b" font-size="10" font-family="Poppins-Regular, Poppins"><tspan x="0" y="0">Success Message Goes Here</tspan></text><line x2="2" y2="2" transform="translate(525.5 727.5)" fill="none" stroke="#cc6674" stroke-linecap="round" stroke-width="2"/><line y1="6" x2="4" transform="translate(527.5 723.5)" fill="none" stroke="#cc6674" stroke-linecap="round" stroke-width="2"/></g><g transform="translate(507 675)"><g transform="matrix(1, 0, 0, 1, -471, -759.5)" filter="url(#as)"><g transform="translate(471 759.5)" fill="#fffafb" stroke="#cc6674" stroke-width="2"><rect width="323" height="37" rx="5" stroke="none"/><rect x="1" y="1" width="321" height="35" rx="4" fill="none"/></g></g><text transform="translate(16 8)" font-size="16" font-family="Poppins-Regular, Poppins"><tspan x="0" y="17">Error Input</tspan></text></g></g></g><text transform="translate(102 564.688)" fill="rgba(0,0,0,0.7)" font-size="18" font-family="Roboto-Regular, Roboto"><tspan x="0" y="0">INPUTS</tspan></text></g><g transform="translate(-43 29.687)"><g transform="translate(0 6.5)"><g transform="translate(897 651.5)"><g transform="translate(2 123)"><rect width="192" height="41" fill="#fff"/><text transform="translate(24 12)" font-size="12" font-family="Poppins-Regular, Poppins"><tspan x="14.118" y="13">Dropdown Option 3</tspan></text></g><line x2="192" transform="translate(2.5 123)" fill="none" stroke="#96c" stroke-width="2"/><g transform="translate(2 82)"><rect width="192" height="41" fill="#fff"/><text transform="translate(24 12)" font-size="12" font-family="Poppins-Regular, Poppins"><tspan x="14.202" y="13">Dropdown Option 2</tspan></text></g><line x2="192" transform="translate(2.5 82)" fill="none" stroke="#96c" stroke-width="2"/><g transform="translate(2 41)"><rect width="192" height="41" fill="#fff"/><text transform="translate(24 12)" font-size="12" font-family="Poppins-Regular, Poppins"><tspan x="15.732" y="13">Dropdown Option 1</tspan></text></g><g fill="rgba(153,102,204,0.1)" stroke="#96c" stroke-width="2"><rect width="195" height="41" rx="3" stroke="none"/><rect x="1" y="1" width="193" height="39" rx="2" fill="none"/></g><g transform="translate(23)"><text transform="translate(38 25)" fill="#96c" font-size="12" font-family="Poppins-Regular, Poppins"><tspan x="0" y="0">Dropdown Open</tspan></text><g transform="translate(13 12)"><path d="M6,19l8.5-8.5L23,19l-2.125,2.125L14.5,14.75,8.125,21.125Z" transform="translate(-6 -8.313)" fill="#96c" fill-rule="evenodd"/><rect width="17" height="17" fill="rgba(255,255,255,0)"/></g></g></g><g transform="translate(893 593)"><g fill="none" stroke="#96c" stroke-width="2"><rect width="204" height="41" rx="3" stroke="none"/><rect x="1" y="1" width="202" height="39" rx="2" fill="none"/></g><g transform="translate(151 12)"><path d="M8.125,10.5,14.5,16.875,20.875,10.5,23,12.625l-8.5,8.5L6,12.625Z" transform="translate(-6 -8.313)" fill="#96c" fill-rule="evenodd"/><rect width="17" height="17" fill="rgba(255,255,255,0)"/></g><text transform="translate(36 25)" fill="#96c" font-size="12" font-family="Poppins-Regular, Poppins"><tspan x="0" y="0">Dropdown Closed</tspan></text></g><g transform="translate(1150 593)"><g transform="translate(-752 -1215)"><path d="M9,10.5l9,9,9-9,3,3-12,12L6,13.5Z" transform="translate(837 1216.5)" fill="#69c" fill-rule="evenodd"/><text transform="translate(760 1240)" fill="#69c" font-size="16" font-family="Poppins-Regular, Poppins"><tspan x="0" y="0">Text List 1</tspan></text></g></g><g transform="translate(1123 651)"><g transform="translate(-719 -1207)"><rect width="177" height="104" rx="3" transform="translate(719 1258)" fill="#fff"/><g transform="translate(728 1315)"><rect width="160" height="39" fill="#fff"/><text transform="translate(12 8)" fill="#5b5b5b" font-size="16" font-family="Poppins-Regular, Poppins"><tspan x="0" y="17">Text List 2</tspan></text></g><g transform="translate(727 1266)"><rect width="161" height="39" rx="3" fill="#69c"/><text transform="translate(12 8)" fill="#f1faff" font-size="16" font-family="Poppins-Regular, Poppins"><tspan x="0" y="17">Text List 1</tspan></text></g></g><g transform="translate(-725 -1215)"><path d="M9,10.5l9,9,9-9,3,3-12,12L6,13.5Z" transform="translate(873 1252.5) rotate(180)" fill="#69c" fill-rule="evenodd"/><text transform="translate(760 1240)" fill="#69c" font-size="16" font-family="Poppins-Regular, Poppins"><tspan x="0" y="0">Text List 1</tspan></text></g></g></g><text transform="translate(893 570.5)" fill="rgba(0,0,0,0.7)" font-size="18" font-family="Roboto-Regular, Roboto"><tspan x="0" y="0">DROPDOWN</tspan></text></g></g></svg>