<svg xmlns="http://www.w3.org/2000/svg" xmlns:xlink="http://www.w3.org/1999/xlink" width="1540" height="872" viewBox="0 0 1540 872"><defs><clipPath id="a"><rect width="35" height="35" fill="#fff"/></clipPath><radialGradient id="b" cx="0.493" cy="1" r="1.122" gradientTransform="translate(-0.797 1.493) rotate(-90) scale(1 1.29)" gradientUnits="objectBoundingBox"><stop offset="0" stop-color="#6666b5"/><stop offset="0.51" stop-color="#996ccc"/><stop offset="1" stop-color="#a6a6c9"/></radialGradient><radialGradient id="d" cx="0.493" cy="1" r="1.122" gradientTransform="translate(-0.797 1.493) rotate(-90) scale(1 1.29)" gradientUnits="objectBoundingBox"><stop offset="0" stop-color="#f22953"/><stop offset="0.51" stop-color="#ee4170"/><stop offset="1" stop-color="#f39090"/></radialGradient><filter id="e" x="214" y="511" width="374" height="87" filterUnits="userSpaceOnUse"><feOffset dy="3" input="SourceAlpha"/><feGaussianBlur stdDeviation="8" result="f"/><feFlood flood-color="#4b2d56" flood-opacity="0.2"/><feComposite operator="in" in2="f"/><feComposite in="SourceGraphic"/></filter><filter id="g" x="214" y="574" width="430.5" height="91" filterUnits="userSpaceOnUse"><feOffset dy="3" input="SourceAlpha"/><feGaussianBlur stdDeviation="8" result="h"/><feFlood flood-color="#4b2d56" flood-opacity="0.2"/><feComposite operator="in" in2="h"/><feComposite in="SourceGraphic"/></filter><filter id="i" x="226" y="654" width="521.122" height="77" filterUnits="userSpaceOnUse"><feOffset dy="4" input="SourceAlpha"/><feGaussianBlur stdDeviation="4" result="j"/><feFlood flood-color="#fff" flood-opacity="0.502"/><feComposite operator="in" in2="j"/><feComposite in="SourceGraphic"/></filter><clipPath id="l"><rect width="1540" height="872"/></clipPath></defs><g id="k" clip-path="url(#l)"><rect width="1540" height="872" fill="rgba(255,255,255,0)"/><text transform="translate(138 105)" font-size="42" font-family="Poppins-Bold, Poppins" font-weight="700"><tspan x="0" y="0">Icons</tspan></text><text transform="translate(138 318.25)" font-size="42" font-family="Poppins-Bold, Poppins" font-weight="700"><tspan x="0" y="0">Components</tspan></text><line x2="1198" transform="translate(138.5 134.5)" fill="none" stroke="#030303" stroke-width="3"/><line x2="1198" transform="translate(138.5 347.75)" fill="none" stroke="#030303" stroke-width="3"/><g transform="translate(142 170)"><rect width="31" height="31" transform="translate(0 2)" fill="rgba(255,255,255,0)"/><g transform="translate(-116 -1254)"><line x2="29.579" transform="translate(116.5 1258.5)" fill="none" stroke="#96c" stroke-width="3"/><line x2="29.579" transform="translate(116.5 1271.714)" fill="none" stroke="#96c" stroke-width="3"/><line x2="29.579" transform="translate(116.5 1284.927)" fill="none" stroke="#96c" stroke-width="3"/><g transform="translate(117 1254)" fill="#fff" stroke="#96c" stroke-width="2"><circle cx="5" cy="5" r="5" stroke="none"/><circle cx="5" cy="5" r="4" fill="none"/></g><g transform="translate(135 1266)" fill="#fff" stroke="#96c" stroke-width="2"><circle cx="5" cy="5" r="5" stroke="none"/><circle cx="5" cy="5" r="4" fill="none"/></g><g transform="translate(125 1280)" fill="#fff" stroke="#96c" stroke-width="2"><circle cx="5" cy="5" r="5" stroke="none"/><circle cx="5" cy="5" r="4" fill="none"/></g></g></g><g transform="translate(203 172)"><path d="M32.6,6l5.525,4.25L21.55,23,38.125,35.75,32.6,40,10.5,23Z" transform="translate(-7.625 -6)" fill="#96c" fill-rule="evenodd"/><rect width="34" height="34" fill="rgba(255,255,255,0)"/><rect width="34" height="34" fill="rgba(255,255,255,0)"/></g><g transform="translate(267 172)"><path d="M16.038,6,38.131,23,16.038,40,10.5,35.75,27.084,23,10.5,10.25Z" transform="translate(-7.316 -6)" fill="#96c" fill-rule="evenodd"/><rect width="34" height="34" fill="rgba(255,255,255,0)"/></g><g transform="translate(331 172)"><rect width="34" height="34" fill="rgba(255,255,255,0)"/><path d="M6,35.95,31.113,10.5,56.227,35.95l-6.278,6.362L31.113,23.225,12.278,42.313Z" transform="translate(-6 -8.313)" fill="#96c" fill-rule="evenodd"/></g><g transform="translate(411.227 172)"><rect width="54" height="34" fill="rgba(255,255,255,0)"/><path d="M12.75,10.5,33,29.587,53.25,10.5,60,16.862,33,42.313,6,16.862Z" transform="translate(-6 -8.313)" fill="#96c" fill-rule="evenodd"/></g><g transform="translate(495.227 171)"><g clip-path="url(#a)"><g transform="translate(0 0)"><path d="M7.656,0A1.094,1.094,0,0,1,8.75,1.094V2.188h17.5V1.094a1.094,1.094,0,1,1,2.188,0V2.188h2.187A4.375,4.375,0,0,1,35,6.563V30.625A4.375,4.375,0,0,1,30.625,35H4.375A4.375,4.375,0,0,1,0,30.625V6.563A4.375,4.375,0,0,1,4.375,2.188H6.563V1.094A1.094,1.094,0,0,1,7.656,0ZM4.375,4.375A2.187,2.187,0,0,0,2.188,6.563V8.75H32.813V6.563a2.188,2.188,0,0,0-2.187-2.188Zm28.438,6.563H2.188V30.625a2.187,2.187,0,0,0,2.188,2.188h26.25a2.187,2.187,0,0,0,2.188-2.187Z" transform="translate(0 0)"/><path d="M26.087,7.969c0-.293.641-.531,1.431-.531h2.863c.79,0,1.431.238,1.431.531V9.031c0,.293-.641.531-1.431.531H27.519c-.79,0-1.431-.238-1.431-.531Zm-8.587,0c0-.293.641-.531,1.431-.531h2.862c.79,0,1.431.238,1.431.531V9.031c0,.293-.641.531-1.431.531H18.931c-.79,0-1.431-.238-1.431-.531Zm-5.725,3.188c0-.293.641-.531,1.431-.531h2.863c.79,0,1.431.238,1.431.531v1.063c0,.293-.641.531-1.431.531H13.206c-.79,0-1.431-.238-1.431-.531Zm-8.587,0c0-.293.641-.531,1.431-.531H7.481c.79,0,1.431.238,1.431.531v1.063c0,.293-.641.531-1.431.531H4.619c-.79,0-1.431-.238-1.431-.531Z" transform="translate(0 11.455)"/></g></g></g><path d="M6.625,4.375A4.375,4.375,0,0,1,11,0H28.5a4.375,4.375,0,0,1,4.375,4.375V33.907a1.094,1.094,0,0,1-1.7.91L19.75,28.659,8.325,34.817a1.094,1.094,0,0,1-1.7-.91ZM11,2.188A2.188,2.188,0,0,0,8.813,4.375V31.864l10.332-5.43a1.094,1.094,0,0,1,1.212,0l10.332,5.43V4.375A2.188,2.188,0,0,0,28.5,2.188Z" transform="translate(553.602 171)" fill="#96c"/><g transform="translate(603.711 157.543)"><g transform="translate(12.767 13.457)"><path d="M6.339,36.767H1.767V17.76a7.2,7.2,0,0,1,1.054-3.741c1.934-3.549,6.184-5.831,10.87-5.835H25.663V1.767h3.714L43.73,13.7l-14.4,11.98H25.663V19.267H17.877c-3.347.007-6.281,1.86-7.189,4.539Zm7.352-26.25A9.381,9.381,0,0,0,5.368,15l-.026.045a5.2,5.2,0,0,0-.77,2.718V33.35L7.985,23.178c1.248-3.686,5.286-6.236,9.891-6.245H28.469V23.1L39.763,13.7,28.469,4.311v6.206Z" transform="translate(-1.767 -1.767)" fill="#96c"/></g></g><path d="M27.964,38V24.447h4.729l.708-5.282H27.963V15.792c0-1.53.441-2.572,2.724-2.572h2.907V8.495a40.428,40.428,0,0,0-4.238-.21c-4.191,0-7.059,2.463-7.059,6.983v3.9H17.552v5.281h4.743V38H5.008A1.971,1.971,0,0,1,3,36.068V4.932A1.971,1.971,0,0,1,5.008,3H37.371a1.971,1.971,0,0,1,2.008,1.932V36.068A1.971,1.971,0,0,1,37.371,38Z" transform="translate(685.441 168)" fill="#96c" fill-rule="evenodd"/><path d="M16.476,39c16.188,0,25.045-12.7,25.045-23.694,0-.357,0-.714-.017-1.071a17.425,17.425,0,0,0,4.4-4.323,18.641,18.641,0,0,1-5.062,1.318,8.477,8.477,0,0,0,3.878-4.613,18.131,18.131,0,0,1-5.6,2.016A9.028,9.028,0,0,0,32.7,6a8.585,8.585,0,0,0-8.807,8.332,8.725,8.725,0,0,0,.223,1.9A25.5,25.5,0,0,1,5.97,7.526,8.082,8.082,0,0,0,8.7,18.65a9.3,9.3,0,0,1-3.984-1.039v.114a8.475,8.475,0,0,0,7.057,8.169,9.043,9.043,0,0,1-2.317.292A9.166,9.166,0,0,1,7.8,26.04a8.759,8.759,0,0,0,8.224,5.783A18.307,18.307,0,0,1,5.094,35.394,17.89,17.89,0,0,1,3,35.28,26.1,26.1,0,0,0,16.478,39" transform="translate(751.82 165)" fill="#96c"/><path d="M20.142,3c-4.656,0-5.239.021-7.067.1a12.391,12.391,0,0,0-4.161.814A8.386,8.386,0,0,0,5.876,5.938,8.6,8.6,0,0,0,3.9,9.037a13.138,13.138,0,0,0-.8,4.248C3.019,15.152,3,15.747,3,20.5s.019,5.348.1,7.214a13.114,13.114,0,0,0,.8,4.248,8.6,8.6,0,0,0,1.977,3.1,8.389,8.389,0,0,0,3.038,2.018,12.414,12.414,0,0,0,4.161.814c1.828.084,2.412.1,7.067.1s5.239-.021,7.067-.1a12.391,12.391,0,0,0,4.161-.814,8.388,8.388,0,0,0,3.038-2.018,8.6,8.6,0,0,0,1.977-3.1,13.138,13.138,0,0,0,.8-4.248c.082-1.867.1-2.463.1-7.214s-.021-5.348-.1-7.214a13.114,13.114,0,0,0-.8-4.248,8.6,8.6,0,0,0-1.977-3.1,8.386,8.386,0,0,0-3.038-2.018A12.414,12.414,0,0,0,27.21,3.1C25.38,3.021,24.8,3,20.142,3m0,3.153c4.577,0,5.119.017,6.925.1a9.354,9.354,0,0,1,3.185.6,5.354,5.354,0,0,1,1.971,1.309,5.459,5.459,0,0,1,1.282,2.012,9.888,9.888,0,0,1,.59,3.249c.082,1.847.1,2.4.1,7.072s-.017,5.225-.1,7.07a9.962,9.962,0,0,1-.59,3.251,5.437,5.437,0,0,1-1.282,2.012,5.325,5.325,0,0,1-1.971,1.309,9.344,9.344,0,0,1-3.183.6c-1.807.084-2.348.1-6.928.1s-5.121-.017-6.925-.1a9.413,9.413,0,0,1-3.185-.6A5.3,5.3,0,0,1,8.06,32.833a5.434,5.434,0,0,1-1.282-2.012,9.826,9.826,0,0,1-.59-3.249c-.082-1.847-.1-2.4-.1-7.072s.017-5.225.1-7.07a9.9,9.9,0,0,1,.59-3.251A5.488,5.488,0,0,1,8.06,8.166a5.326,5.326,0,0,1,1.971-1.309,9.286,9.286,0,0,1,3.183-.6c1.809-.084,2.348-.1,6.928-.1m0,20.179A5.834,5.834,0,1,1,25.856,20.5a5.774,5.774,0,0,1-5.714,5.833m0-14.819a8.988,8.988,0,1,0,8.8,8.986,8.9,8.9,0,0,0-8.8-8.986m11.207-.355a2.057,2.057,0,1,1-2.057-2.1,2.079,2.079,0,0,1,2.057,2.1" transform="translate(824.72 168)" fill="#96c" fill-rule="evenodd"/><path d="M26.525,25.572l8.836,9.415a1.848,1.848,0,0,1,0,2.5,1.586,1.586,0,0,1-2.343,0l-8.836-9.415a12.574,12.574,0,0,1-17.9-1.814A14.674,14.674,0,0,1,6.846,7.1a12.558,12.558,0,0,1,17.975-.605,14.656,14.656,0,0,1,1.7,19.077ZM16.139,27.5c5.442,0,9.854-4.7,9.854-10.5S21.581,6.5,16.139,6.5,6.285,11.2,6.285,17,10.7,27.5,16.139,27.5Z" transform="translate(889.008 168)" fill="#96c" fill-rule="evenodd"/><g transform="translate(238 384)"><rect width="145" height="41" rx="3" fill="url(#b)"/><text transform="translate(36 25)" fill="#f1faff" font-size="12" font-family="Poppins-Regular, Poppins"><tspan x="0" y="0">Sample Text</tspan></text></g><g transform="translate(426.89 444.759)"><rect width="68.672" height="49.405" rx="3" fill="url(#b)"/><g transform="translate(15 4.877)"><path d="M18.4,10.531a1.345,1.345,0,0,1,1.928,0L28.5,18.845a1.4,1.4,0,0,1,0,1.962l-8.171,8.315a1.347,1.347,0,0,1-1.928,0,1.4,1.4,0,0,1,0-1.962l7.209-7.334L18.4,12.492a1.4,1.4,0,0,1,0-1.962Z" transform="translate(0.774 0)" fill="#fff" fill-rule="evenodd"/><path d="M9,18a1.224,1.224,0,0,1,1.3-1.125H27.242A1.224,1.224,0,0,1,28.545,18a1.224,1.224,0,0,1-1.3,1.125H10.3A1.224,1.224,0,0,1,9,18Z" transform="translate(0 1.826)" fill="#fff" fill-rule="evenodd"/></g></g><g transform="translate(238 448.961)"><g fill="none" stroke="#96c" stroke-width="2"><rect width="145" height="41" rx="3" stroke="none"/><rect x="1" y="1" width="143" height="39" rx="2" fill="none"/></g><text transform="translate(36 25)" fill="#96c" font-size="12" font-family="Poppins-Regular, Poppins"><tspan x="0" y="0">Sample Text</tspan></text></g><g transform="translate(414 384)"><rect width="145" height="41" rx="3" fill="url(#d)"/><text transform="translate(36 25)" fill="#f1faff" font-size="12" font-family="Poppins-Regular, Poppins"><tspan x="0" y="0">Sample Text</tspan></text></g><g transform="translate(784 384)"><g transform="translate(-1102 -1278)"><path d="M0,0H106a0,0,0,0,1,0,0V234a3,3,0,0,1-3,3H3a3,3,0,0,1-3-3V0A0,0,0,0,1,0,0Z" transform="translate(1136 1319)" fill="#fff"/><g transform="translate(1148 1515)"><rect width="82" height="41" fill="#fff"/><text transform="translate(24 25)" font-size="12" font-family="Poppins-Regular, Poppins"><tspan x="0" y="0">Item 1</tspan></text></g><g transform="translate(1148 1466)"><rect width="82" height="41" fill="#fff"/><text transform="translate(24 25)" font-size="12" font-family="Poppins-Regular, Poppins"><tspan x="0" y="0">Item 1</tspan></text></g><g transform="translate(1148 1417)"><rect width="82" height="41" fill="#fff"/><text transform="translate(24 25)" font-size="12" font-family="Poppins-Regular, Poppins"><tspan x="0" y="0">Item 1</tspan></text></g><g transform="translate(1148 1368)"><rect width="82" height="41" fill="#fff"/><text transform="translate(24 25)" font-size="12" font-family="Poppins-Regular, Poppins"><tspan x="0" y="0">Item 1</tspan></text></g><g transform="translate(1148 1319)"><rect width="82" height="41" fill="#fff"/><text transform="translate(24 25)" font-size="12" font-family="Poppins-Regular, Poppins"><tspan x="0" y="0">Item 1</tspan></text></g></g><g fill="rgba(153,102,204,0.1)" stroke="#96c" stroke-width="2"><rect width="170" height="41" rx="3" stroke="none"/><rect x="1" y="1" width="168" height="39" rx="2" fill="none"/></g><text transform="translate(36 25)" fill="#96c" font-size="12" font-family="Poppins-Regular, Poppins"><tspan x="0" y="0">Sample Text</tspan></text><g transform="translate(117 12)"><path d="M6,19l8.5-8.5L23,19l-2.125,2.125L14.5,14.75,8.125,21.125Z" transform="translate(-6 -8.313)" fill="#96c" fill-rule="evenodd"/><rect width="17" height="17" fill="rgba(255,255,255,0)"/></g></g><g transform="translate(594 384)"><g fill="none" stroke="#96c" stroke-width="2"><rect width="170" height="41" rx="3" stroke="none"/><rect x="1" y="1" width="168" height="39" rx="2" fill="none"/></g><g transform="translate(117 12)"><path d="M8.125,10.5,14.5,16.875,20.875,10.5,23,12.625l-8.5,8.5L6,12.625Z" transform="translate(-6 -8.313)" fill="#96c" fill-rule="evenodd"/><rect width="17" height="17" fill="rgba(255,255,255,0)"/></g><text transform="translate(36 25)" fill="#96c" font-size="12" font-family="Poppins-Regular, Poppins"><tspan x="0" y="0">Sample Text</tspan></text></g><g transform="translate(238 532)"><g transform="matrix(1, 0, 0, 1, -238, -532)" filter="url(#e)"><rect width="326" height="39" rx="5" transform="translate(238 532)" fill="#fff"/></g><text transform="translate(8 8)" fill="#5b5b5b" font-size="16" font-family="Poppins-Regular, Poppins"><tspan x="0" y="17">Sample Text</tspan></text></g><g transform="translate(238 595)"><g transform="matrix(1, 0, 0, 1, -238, -595)" filter="url(#g)"><rect width="382.5" height="43" rx="5" transform="translate(238 595)" fill="#fff"/></g><text transform="translate(10 10)" fill="rgba(91,91,91,0)" font-size="16" font-family="Poppins-Regular, Poppins"><tspan x="0" y="17">Sample Text</tspan></text><g transform="translate(2 2)"><line x2="12" y2="12" transform="translate(358.5 13.5)" fill="none" stroke="#69c" stroke-width="3"/><line x1="12" y2="12" transform="translate(358.5 13.5)" fill="none" stroke="#69c" stroke-width="3"/></g></g><g transform="translate(238 662)"><g transform="matrix(1, 0, 0, 1, -238, -662)" filter="url(#i)"><rect width="497.122" height="53" rx="4" transform="translate(238 662)" fill="#fff"/></g><g transform="translate(-66.665 14)"><path d="M18.127,17.514l5.681,6.054a1.188,1.188,0,0,1,0,1.605,1.02,1.02,0,0,1-1.507,0l-5.681-6.054A8.085,8.085,0,0,1,5.107,17.953,9.436,9.436,0,0,1,5.472,5.637a8.075,8.075,0,0,1,11.558-.389,9.424,9.424,0,0,1,1.094,12.267Zm-6.679,1.239A6.554,6.554,0,0,0,17.784,12,6.554,6.554,0,0,0,11.448,5.25,6.554,6.554,0,0,0,5.111,12,6.554,6.554,0,0,0,11.448,18.754Z" transform="translate(531.667 -2.067)" fill="#5b5b5b" fill-rule="evenodd"/><text transform="translate(74.665 -4)" fill="#5b5b5b" font-size="24" font-family="Poppins-Medium, Poppins" font-weight="500"><tspan x="81.776" y="25">City, State, or Zip Code</tspan></text></g></g><g transform="translate(1026 385)"><g transform="translate(-752 -1215)"><path d="M9,10.5l9,9,9-9,3,3-12,12L6,13.5Z" transform="translate(837 1216.5)" fill="#69c" fill-rule="evenodd"/><text transform="translate(760 1240)" fill="#69c" font-size="16" font-family="Poppins-Regular, Poppins"><tspan x="0" y="0">Text List 1</tspan></text></g></g><g transform="translate(1026 461)"><g transform="translate(-719 -1207)"><rect width="177" height="202" rx="3" transform="translate(719 1258)" fill="#fff"/><g transform="translate(727 1413)"><rect width="160" height="39" fill="#fff"/><text transform="translate(12 8)" fill="#5b5b5b" font-size="16" font-family="Poppins-Regular, Poppins"><tspan x="0" y="17">Text List 4</tspan></text></g><g transform="translate(728 1364)"><rect width="160" height="39" fill="#fff"/><text transform="translate(12 8)" fill="#5b5b5b" font-size="16" font-family="Poppins-Regular, Poppins"><tspan x="0" y="17">Text List 3</tspan></text></g><g transform="translate(728 1315)"><rect width="160" height="39" fill="#fff"/><text transform="translate(12 8)" fill="#5b5b5b" font-size="16" font-family="Poppins-Regular, Poppins"><tspan x="0" y="17">Text List 2</tspan></text></g><g transform="translate(727 1266)"><rect width="161" height="39" rx="3" fill="#69c"/><text transform="translate(12 8)" fill="#f1faff" font-size="16" font-family="Poppins-Regular, Poppins"><tspan x="0" y="17">Text List 1</tspan></text></g></g><g transform="translate(-690 -1215)"><path d="M9,10.5l9,9,9-9,3,3-12,12L6,13.5Z" transform="translate(873 1252.5) rotate(180)" fill="#69c" fill-rule="evenodd"/><text transform="translate(760 1240)" fill="#69c" font-size="16" font-family="Poppins-Regular, Poppins"><tspan x="0" y="0">Text List 1</tspan></text></g></g></g></svg>