<?xml version="1.0" encoding="UTF-8" standalone="no"?>
<svg
   width="2117"
   height="749"
   viewBox="0 0 2117 749"
   version="1.1"
   id="svg210"
   xmlns="http://www.w3.org/2000/svg"
   xmlns:svg="http://www.w3.org/2000/svg">
  <defs
     id="defs7">
    <style
       id="style2">.a{clip-path:url(#b);}.b{fill:none;stroke:#35b1cb;stroke-linecap:round;stroke-width:5px;}.c{fill:#2e5ee6;}.d{fill:rgba(255,255,255,0.9);font-size:32px;}.d,.f{font-family:SegoeUI-Semibold, Segoe UI;font-weight:600;}.e{fill:#7a90cc;}.f{fill:rgba(255,255,255,0.8);font-size:24px;}.g{fill:#b8c4e6;}.h{font-size:18px;font-family:Roboto-Regular, Roboto;}.i{fill:#e6ecff;}.j{fill:rgba(255,255,255,0);}</style>
    <clipPath
       id="b">
      <rect
         width="2117"
         height="749"
         id="rect4"
         x="0"
         y="0" />
    </clipPath>
  </defs>
  <g
     id="a"
     class="a"
     clip-path="url(#b)">
    <rect
       class="j"
       width="2117"
       height="749"
       id="rect9"
       style="fill:none"
       x="0"
       y="0" />
    <line
       class="b"
       y2="98"
       transform="translate(1025.5,123.5)"
       id="line11"
       x1="0"
       y1="0"
       x2="0" />
    <line
       class="b"
       y2="282.5"
       transform="translate(1025.5,285)"
       id="line13"
       x1="0"
       y1="0"
       x2="0" />
    <line
       class="b"
       y2="370"
       transform="translate(1483,285)"
       id="line15"
       x1="0"
       y1="0"
       x2="0" />
    <line
       class="b"
       y2="282"
       transform="translate(1856,285)"
       id="line17"
       x1="0"
       y1="0"
       x2="0" />
    <line
       class="b"
       x1="38"
       transform="translate(1856,567)"
       id="line19"
       y1="0"
       x2="0"
       y2="0" />
    <line
       class="b"
       x1="38"
       transform="translate(1856,479)"
       id="line21"
       y1="0"
       x2="0"
       y2="0" />
    <line
       class="b"
       x1="38"
       transform="translate(1856,391)"
       id="line23"
       y1="0"
       x2="0"
       y2="0" />
    <line
       class="b"
       x1="40"
       transform="translate(1025.5,567.5)"
       id="line25"
       y1="0"
       x2="0"
       y2="0" />
    <line
       class="b"
       x1="40"
       transform="translate(1025.5,479)"
       id="line27"
       y1="0"
       x2="0"
       y2="0" />
    <line
       class="b"
       x1="38"
       transform="translate(1483,479)"
       id="line29"
       y1="0"
       x2="0"
       y2="0" />
    <line
       class="b"
       x1="38"
       transform="translate(1483,391)"
       id="line31"
       y1="0"
       x2="0"
       y2="0" />
    <line
       class="b"
       x1="38"
       transform="translate(1483,567)"
       id="line33"
       y1="0"
       x2="0"
       y2="0" />
    <line
       class="b"
       x1="38"
       transform="translate(1483,655)"
       id="line35"
       y1="0"
       x2="0"
       y2="0" />
    <line
       class="b"
       x1="40"
       transform="translate(1025.5,391)"
       id="line37"
       y1="0"
       x2="0"
       y2="0" />
    <line
       class="b"
       y2="60"
       transform="translate(1483,161.5)"
       id="line39"
       x1="0"
       y1="0"
       x2="0" />
    <line
       class="b"
       y2="60"
       transform="translate(566,161.5)"
       id="line41"
       x1="0"
       y1="0"
       x2="0" />
    <line
       class="b"
       y2="60"
       transform="translate(198,161.5)"
       id="line43"
       x1="0"
       y1="0"
       x2="0" />
    <line
       class="b"
       y2="282"
       transform="translate(198,285)"
       id="line45"
       x1="0"
       y1="0"
       x2="0" />
    <line
       class="b"
       y2="106"
       transform="translate(566,285)"
       id="line47"
       x1="0"
       y1="0"
       x2="0" />
    <line
       class="b"
       y2="240"
       transform="translate(625,415)"
       id="line49"
       x1="0"
       y1="0"
       x2="0" />
    <line
       class="b"
       x1="28"
       transform="translate(625,655)"
       id="line51"
       y1="0"
       x2="0"
       y2="0" />
    <line
       class="b"
       x1="28"
       transform="translate(625,567)"
       id="line53"
       y1="0"
       x2="0"
       y2="0" />
    <line
       class="b"
       x1="28"
       transform="translate(625,479)"
       id="line55"
       y1="0"
       x2="0"
       y2="0" />
    <line
       class="b"
       x1="29"
       transform="translate(198,391)"
       id="line57"
       y1="0"
       x2="0"
       y2="0" />
    <line
       class="b"
       x1="36"
       transform="translate(567,391)"
       id="line59"
       y1="0"
       x2="0"
       y2="0" />
    <line
       class="b"
       x1="31"
       transform="translate(259,479)"
       id="line61"
       y1="0"
       x2="0"
       y2="0" />
    <line
       class="b"
       y2="60"
       transform="translate(259,419)"
       id="line63"
       x1="0"
       y1="0"
       x2="0" />
    <line
       class="b"
       x1="29"
       transform="translate(198,567)"
       id="line65"
       y1="0"
       x2="0"
       y2="0" />
    <line
       class="b"
       y2="60"
       transform="translate(1893.5,161.5)"
       id="line67"
       x1="0"
       y1="0"
       x2="0" />
    <line
       class="b"
       x1="1695"
       transform="translate(198.5,161.5)"
       id="line69"
       y1="0"
       x2="0"
       y2="0" />
    <rect
       class="c"
       width="240"
       height="71"
       rx="8"
       transform="translate(915,52)"
       id="rect71"
       x="0"
       y="0" />
    <text
       class="d"
       id="text75"
       x="1034.1467"
       y="62.763878"><tspan
         x="950.37366"
         y="97.763878"
         id="tspan73">Home Page</tspan></text>
    <rect
       class="e"
       width="174"
       height="64"
       rx="8"
       transform="translate(479,221)"
       id="rect77"
       x="0"
       y="0" />
    <text
       class="f"
       id="text81"
       x="564.53687"
       y="237"><tspan
         x="528.40186"
         y="263"
         id="tspan79">Search</tspan></text>
    <rect
       class="e"
       width="238"
       height="64"
       rx="8"
       transform="translate(71,221)"
       id="rect83"
       x="0"
       y="0" />
    <text
       class="f"
       transform="translate(190,263)"
       id="text87"><tspan
         x="-87.105003"
         y="0"
         id="tspan85">Create a Listing</tspan></text>
    <rect
       class="e"
       width="264"
       height="64"
       rx="8"
       transform="translate(903,221)"
       id="rect89"
       x="0"
       y="0" />
    <text
       class="f"
       transform="translate(935,263)"
       id="text93"><tspan
         x="0"
         y="0"
         id="tspan91">Immediate Results</tspan></text>
    <rect
       class="e"
       width="132"
       height="64"
       rx="8"
       transform="translate(1417,221)"
       id="rect95"
       x="0"
       y="0" />
    <text
       class="f"
       transform="translate(1449,263)"
       id="text99"><tspan
         x="0"
         y="0"
         id="tspan97">Log In</tspan></text>
    <rect
       class="e"
       width="207"
       height="64"
       rx="8"
       transform="translate(1790,221)"
       id="rect101"
       x="0"
       y="0" />
    <text
       class="f"
       transform="translate(1822,263)"
       id="text105"><tspan
         x="0"
         y="0"
         id="tspan103">Footer/Other</tspan></text>
    <rect
       class="g"
       width="113"
       height="56"
       transform="translate(603,363)"
       id="rect107"
       x="0"
       y="0" />
    <text
       class="h"
       transform="translate(635,398)"
       id="text111"><tspan
         x="0"
         y="0"
         id="tspan109">Filters</tspan></text>
    <rect
       class="g"
       width="196"
       height="56"
       transform="translate(227,363)"
       id="rect113"
       x="0"
       y="0" />
    <text
       class="h"
       transform="translate(259,398)"
       id="text117"><tspan
         x="0"
         y="0"
         id="tspan115">Create your Own</tspan></text>
    <rect
       class="g"
       width="237"
       height="56"
       transform="translate(227,539)"
       id="rect119"
       x="0"
       y="0" />
    <text
       class="h"
       transform="translate(259,574)"
       id="text123"><tspan
         x="0"
         y="0"
         id="tspan121">Manage Your Listings</tspan></text>
    <rect
       class="g"
       width="214"
       height="56"
       transform="translate(1066,363)"
       id="rect125"
       x="0"
       y="0" />
    <text
       class="h"
       transform="translate(1098,398)"
       id="text129"><tspan
         x="0"
         y="0"
         id="tspan127">Suggested Rentals</tspan></text>
    <rect
       class="g"
       width="200"
       height="56"
       transform="translate(1520,363)"
       id="rect131"
       x="0"
       y="0" />
    <text
       class="h"
       transform="translate(1552,398)"
       id="text135"><tspan
         x="0"
         y="0"
         id="tspan133">Manage Account</tspan></text>
    <rect
       class="g"
       width="137"
       height="56"
       transform="translate(1894,363)"
       id="rect137"
       x="0"
       y="0" />
    <text
       class="h"
       transform="translate(1926,398)"
       id="text141"><tspan
         x="0"
         y="0"
         id="tspan139">About Us</tspan></text>
    <rect
       class="g"
       width="193"
       height="56"
       transform="translate(1066,451)"
       id="rect143"
       x="0"
       y="0" />
    <text
       class="h"
       transform="translate(1098,486)"
       id="text147"><tspan
         x="0"
         y="0"
         id="tspan145">Popular Listings</tspan></text>
    <rect
       class="g"
       width="161"
       height="56"
       transform="translate(1520,451)"
       id="rect149"
       x="0"
       y="0" />
    <text
       class="h"
       transform="translate(1552,486)"
       id="text153"><tspan
         x="0"
         y="0"
         id="tspan151">Preferences</tspan></text>
    <rect
       class="g"
       width="152"
       height="56"
       transform="translate(1894,451)"
       id="rect155"
       x="0"
       y="0" />
    <text
       class="h"
       transform="translate(1926,486)"
       id="text159"><tspan
         x="0"
         y="0"
         id="tspan157">Contact Us</tspan></text>
    <rect
       class="g"
       width="188"
       height="56"
       transform="translate(1066,539)"
       id="rect161"
       x="0"
       y="0" />
    <text
       class="h"
       transform="translate(1098,574)"
       id="text165"><tspan
         x="0"
         y="0"
         id="tspan163">Budget Listings</tspan></text>
    <rect
       class="g"
       width="175"
       height="56"
       transform="translate(1520,539)"
       id="rect167"
       x="0"
       y="0" />
    <text
       class="h"
       transform="translate(1552,574)"
       id="text171"><tspan
         x="0"
         y="0"
         id="tspan169">Location Data</tspan></text>
    <rect
       class="g"
       width="101"
       height="56"
       transform="translate(1894,539)"
       id="rect173"
       x="0"
       y="0" />
    <text
       class="h"
       transform="translate(1926,574)"
       id="text177"><tspan
         x="0"
         y="0"
         id="tspan175">Help</tspan></text>
    <rect
       class="g"
       width="130"
       height="56"
       transform="translate(1520,627)"
       id="rect179"
       x="0"
       y="0" />
    <text
       class="h"
       transform="translate(1552,662)"
       id="text183"><tspan
         x="0"
         y="0"
         id="tspan181">Settings</tspan></text>
    <rect
       class="i"
       width="122"
       height="56"
       transform="translate(653,539)"
       id="rect185"
       x="0"
       y="0" />
    <text
       class="h"
       transform="translate(685,574)"
       id="text189"><tspan
         x="0"
         y="0"
         id="tspan187">Homes</tspan></text>
    <rect
       class="i"
       width="158"
       height="56"
       transform="translate(653,451)"
       id="rect191"
       x="0"
       y="0" />
    <text
       class="h"
       transform="translate(685,486)"
       id="text195"><tspan
         x="0"
         y="0"
         id="tspan193">Apartments</tspan></text>
    <rect
       class="i"
       width="184"
       height="56"
       transform="translate(290,451)"
       id="rect197"
       x="0"
       y="0" />
    <text
       class="h"
       transform="translate(322,486)"
       id="text201"><tspan
         x="0"
         y="0"
         id="tspan199">Type Of Listing</tspan></text>
    <rect
       class="i"
       width="126"
       height="56"
       transform="translate(653,627)"
       id="rect203"
       x="0"
       y="0" />
    <text
       class="h"
       transform="translate(685,662)"
       id="text207"><tspan
         x="0"
         y="0"
         id="tspan205">Condos</tspan></text>
  </g>
</svg>
