<svg xmlns="http://www.w3.org/2000/svg" xmlns:xlink="http://www.w3.org/1999/xlink" width="300" height="1600" viewBox="0 0 300 1600">
  <defs>
    <filter id="Rectangle_74" x="-5" y="941.594" width="312" height="85" filterUnits="userSpaceOnUse">
      <feOffset dy="3" input="SourceAlpha"/>
      <feGaussianBlur stdDeviation="8" result="blur"/>
      <feFlood flood-color="#4b2d56" flood-opacity="0.2"/>
      <feComposite operator="in" in2="blur"/>
      <feComposite in="SourceGraphic"/>
    </filter>
    <filter id="Rectangle_74-2" x="-5" y="860.594" width="311" height="86" filterUnits="userSpaceOnUse">
      <feOffset dy="3" input="SourceAlpha"/>
      <feGaussianBlur stdDeviation="8" result="blur-2"/>
      <feFlood flood-color="#4b2d56" flood-opacity="0.2"/>
      <feComposite operator="in" in2="blur-2"/>
      <feComposite in="SourceGraphic"/>
    </filter>
    <filter id="Rectangle_74-3" x="-5" y="797.594" width="310" height="87" filterUnits="userSpaceOnUse">
      <feOffset dy="3" input="SourceAlpha"/>
      <feGaussianBlur stdDeviation="8" result="blur-3"/>
      <feFlood flood-color="#4b2d56" flood-opacity="0.2"/>
      <feComposite operator="in" in2="blur-3"/>
      <feComposite in="SourceGraphic"/>
    </filter>
    <clipPath id="clip-path">
      <rect id="Rectangle_186" data-name="Rectangle 186" width="17" height="17" fill="#fff"/>
    </clipPath>
    <filter id="Rectangle_74-4" x="-5" y="734.594" width="310" height="87" filterUnits="userSpaceOnUse">
      <feOffset dy="3" input="SourceAlpha"/>
      <feGaussianBlur stdDeviation="8" result="blur-4"/>
      <feFlood flood-color="#4b2d56" flood-opacity="0.2"/>
      <feComposite operator="in" in2="blur-4"/>
      <feComposite in="SourceGraphic"/>
    </filter>
    <filter id="Rectangle_74-5" x="-5" y="671.594" width="311" height="87" filterUnits="userSpaceOnUse">
      <feOffset dy="3" input="SourceAlpha"/>
      <feGaussianBlur stdDeviation="8" result="blur-5"/>
      <feFlood flood-color="#4b2d56" flood-opacity="0.2"/>
      <feComposite operator="in" in2="blur-5"/>
      <feComposite in="SourceGraphic"/>
    </filter>
    <filter id="Rectangle_86" x="7" y="621.594" width="288.401" height="63" filterUnits="userSpaceOnUse">
      <feOffset dy="4" input="SourceAlpha"/>
      <feGaussianBlur stdDeviation="4" result="blur-6"/>
      <feFlood flood-color="#fff" flood-opacity="0.502"/>
      <feComposite operator="in" in2="blur-6"/>
      <feComposite in="SourceGraphic"/>
    </filter>
    <radialGradient id="radial-gradient" cx="0.493" cy="1" r="1.122" gradientTransform="translate(-0.797 1.493) rotate(-90) scale(1 1.29)" gradientUnits="objectBoundingBox">
      <stop offset="0" stop-color="#6666b5"/>
      <stop offset="0.51" stop-color="#996ccc"/>
      <stop offset="1" stop-color="#a6a6c9"/>
    </radialGradient>
    <radialGradient id="radial-gradient-2" cx="0.557" cy="1" r="1.381" gradientTransform="translate(-5.637 1.557) rotate(-90) scale(1 6.193)" gradientUnits="objectBoundingBox">
      <stop offset="0" stop-color="#6666b5"/>
      <stop offset="0.637" stop-color="#996ccc"/>
      <stop offset="1" stop-color="#a6a6c9"/>
    </radialGradient>
    <filter id="Rectangle_85" x="199" y="204.979" width="76" height="76" filterUnits="userSpaceOnUse">
      <feOffset dy="4" input="SourceAlpha"/>
      <feGaussianBlur stdDeviation="6" result="blur-7"/>
      <feFlood flood-opacity="0.161"/>
      <feComposite operator="in" in2="blur-7"/>
      <feComposite in="SourceGraphic"/>
    </filter>
    <filter id="Rectangle_85-2" x="199" y="269.844" width="76" height="76" filterUnits="userSpaceOnUse">
      <feOffset dy="4" input="SourceAlpha"/>
      <feGaussianBlur stdDeviation="6" result="blur-8"/>
      <feFlood flood-opacity="0.161"/>
      <feComposite operator="in" in2="blur-8"/>
      <feComposite in="SourceGraphic"/>
    </filter>
    <radialGradient id="radial-gradient-5" cx="0.493" cy="1" r="1.122" gradientTransform="translate(-0.797 1.493) rotate(-90) scale(1 1.29)" gradientUnits="objectBoundingBox">
      <stop offset="0" stop-color="#f22953"/>
      <stop offset="0.51" stop-color="#ee4170"/>
      <stop offset="1" stop-color="#f39090"/>
    </radialGradient>
    <filter id="Rectangle_240">
      <feOffset dy="2" input="SourceAlpha"/>
      <feGaussianBlur stdDeviation="2" result="blur-9"/>
      <feFlood flood-opacity="0.161" result="color"/>
      <feComposite operator="out" in="SourceGraphic" in2="blur-9"/>
      <feComposite operator="in" in="color"/>
      <feComposite operator="in" in2="SourceGraphic"/>
    </filter>
    <filter id="Ellipse_49" x="221" y="369.461" width="28" height="27" filterUnits="userSpaceOnUse">
      <feOffset dy="1" input="SourceAlpha"/>
      <feGaussianBlur stdDeviation="1" result="blur-10"/>
      <feFlood flood-opacity="0.161"/>
      <feComposite operator="in" in2="blur-10"/>
      <feComposite in="SourceGraphic"/>
    </filter>
    <linearGradient id="linear-gradient" x1="0.845" y1="0.5" x2="0" y2="0.5" gradientUnits="objectBoundingBox">
      <stop offset="0" stop-color="#96c"/>
      <stop offset="1" stop-color="#a398ca"/>
    </linearGradient>
    <filter id="Rectangle_240-2">
      <feOffset dy="2" input="SourceAlpha"/>
      <feGaussianBlur stdDeviation="0.5" result="blur-11"/>
      <feFlood flood-opacity="0.161" result="color-2"/>
      <feComposite operator="out" in="SourceGraphic" in2="blur-11"/>
      <feComposite operator="in" in="color-2"/>
      <feComposite operator="in" in2="SourceGraphic"/>
    </filter>
    <filter id="Ellipse_49-2" x="101" y="369.461" width="28" height="27" filterUnits="userSpaceOnUse">
      <feOffset dy="1" input="SourceAlpha"/>
      <feGaussianBlur stdDeviation="1" result="blur-12"/>
      <feFlood flood-opacity="0.161"/>
      <feComposite operator="in" in2="blur-12"/>
      <feComposite in="SourceGraphic"/>
    </filter>
    <filter id="Ellipse_50" x="61" y="449.922" width="30" height="30" filterUnits="userSpaceOnUse">
      <feOffset dy="1" input="SourceAlpha"/>
      <feGaussianBlur stdDeviation="1" result="blur-13"/>
      <feFlood flood-opacity="0.161"/>
      <feComposite operator="in" in2="blur-13"/>
      <feComposite in="SourceGraphic"/>
    </filter>
    <filter id="Ellipse_51" x="66.5" y="455.422" width="19" height="19" filterUnits="userSpaceOnUse">
      <feOffset dy="1" input="SourceAlpha"/>
      <feGaussianBlur stdDeviation="0.5" result="blur-14"/>
      <feFlood flood-opacity="0.161"/>
      <feComposite operator="in" in2="blur-14"/>
      <feComposite in="SourceGraphic"/>
    </filter>
    <filter id="Ellipse_50-2" x="107.5" y="449.422" width="33" height="33" filterUnits="userSpaceOnUse">
      <feOffset dy="2" input="SourceAlpha"/>
      <feGaussianBlur stdDeviation="1.5" result="blur-15"/>
      <feFlood flood-opacity="0.161"/>
      <feComposite operator="in" in2="blur-15"/>
      <feComposite in="SourceGraphic"/>
    </filter>
    <filter id="Ellipse_50-3" x="203.5" y="449.422" width="33" height="33" filterUnits="userSpaceOnUse">
      <feOffset dy="2" input="SourceAlpha"/>
      <feGaussianBlur stdDeviation="1.5" result="blur-16"/>
      <feFlood flood-opacity="0.161"/>
      <feComposite operator="in" in2="blur-16"/>
      <feComposite in="SourceGraphic"/>
    </filter>
    <filter id="Rectangle_241" x="84.5" y="531.094" width="33" height="33" filterUnits="userSpaceOnUse">
      <feOffset dy="2" input="SourceAlpha"/>
      <feGaussianBlur stdDeviation="1.5" result="blur-17"/>
      <feFlood flood-opacity="0.161"/>
      <feComposite operator="in" in2="blur-17"/>
      <feComposite in="SourceGraphic"/>
    </filter>
    <filter id="Rectangle_241-2" x="132.5" y="531.094" width="33" height="33" filterUnits="userSpaceOnUse">
      <feOffset dy="2" input="SourceAlpha"/>
      <feGaussianBlur stdDeviation="1.5" result="blur-18"/>
      <feFlood flood-opacity="0.161"/>
      <feComposite operator="in" in2="blur-18"/>
      <feComposite in="SourceGraphic"/>
    </filter>
    <clipPath id="clip-components-mobile">
      <rect width="300" height="1600"/>
    </clipPath>
  </defs>
  <g id="components-mobile" clip-path="url(#clip-components-mobile)">
    <rect width="300" height="1600" fill="rgba(255,255,255,0)"/>
    <g id="Group_261" data-name="Group 261">
      <g id="dropdown-group" transform="translate(-874 491.094)">
        <g id="dropdown-component" transform="translate(33 6.5)">
          <g id="DropDown_Menu_Text" data-name="DropDown Menu Text" transform="translate(907 909)">
            <g id="DropDown_Container" data-name="DropDown Container" transform="translate(-719 -1207)">
              <rect id="Rectangle_182" data-name="Rectangle 182" width="177" height="104" rx="3" transform="translate(719 1258)" fill="#fff"/>
              <g id="Text_List" data-name="Text List">
                <g id="Text_Button" data-name="Text Button" transform="translate(728 1315)">
                  <rect id="Rectangle_183" data-name="Rectangle 183" width="160" height="39" fill="#fff"/>
                  <text id="Text_List_2" data-name="Text List 2" transform="translate(12 8)" fill="#5b5b5b" font-size="16" font-family="Poppins-Regular, Poppins"><tspan x="0" y="17">Text List 2</tspan></text>
                </g>
                <g id="Text_Button-2" data-name="Text Button" transform="translate(727 1266)">
                  <rect id="Rectangle_183-2" data-name="Rectangle 183" width="161" height="39" rx="3" fill="#69c"/>
                  <text id="Text_List_1" data-name="Text List 1" transform="translate(12 8)" fill="#f1faff" font-size="16" font-family="Poppins-Regular, Poppins"><tspan x="0" y="17">Text List 1</tspan></text>
                </g>
              </g>
            </g>
            <g id="DropDown_List_Main_Selected" data-name="DropDown List Main Selected" transform="translate(-752 -1215)">
              <path id="arrow-down" d="M9,10.5l9,9,9-9,3,3-12,12L6,13.5Z" transform="translate(873 1252.5) rotate(180)" fill="#69c" fill-rule="evenodd"/>
              <text id="Text_List_1-2" data-name="Text List 1" transform="translate(760 1240)" fill="#69c" font-size="16" font-family="Poppins-Regular, Poppins"><tspan x="0" y="0">Text List 1</tspan></text>
            </g>
          </g>
          <g id="DropDown_Menu_Text-2" data-name="DropDown Menu Text" transform="translate(907 846)">
            <g id="DropDown_List_Main_Selected-2" data-name="DropDown List Main Selected" transform="translate(-752 -1215)">
              <path id="arrow-down-2" data-name="arrow-down" d="M9,10.5l9,9,9-9,3,3-12,12L6,13.5Z" transform="translate(837 1216.5)" fill="#69c" fill-rule="evenodd"/>
              <text id="Text_List_1-3" data-name="Text List 1" transform="translate(760 1240)" fill="#69c" font-size="16" font-family="Poppins-Regular, Poppins"><tspan x="0" y="0">Text List 1</tspan></text>
            </g>
          </g>
          <g id="DropDown_Button" data-name="DropDown Button" transform="translate(897 658)">
            <g id="Text_Box" data-name="Text Box" transform="translate(2 123)">
              <rect id="Rectangle_192" data-name="Rectangle 192" width="192" height="41" fill="#fff"/>
              <text id="Dropdown_Option_3" data-name="Dropdown Option 3" transform="translate(24 12)" font-size="12" font-family="Poppins-Regular, Poppins"><tspan x="14.118" y="13">Dropdown Option 3</tspan></text>
            </g>
            <line id="Line_49" data-name="Line 49" x2="192" transform="translate(2.5 123)" fill="none" stroke="#96c" stroke-width="2"/>
            <g id="Text_Box-2" data-name="Text Box" transform="translate(2 82)">
              <rect id="Rectangle_192-2" data-name="Rectangle 192" width="192" height="41" fill="#fff"/>
              <text id="Dropdown_Option_2" data-name="Dropdown Option 2" transform="translate(24 12)" font-size="12" font-family="Poppins-Regular, Poppins"><tspan x="14.202" y="13">Dropdown Option 2</tspan></text>
            </g>
            <line id="Line_48" data-name="Line 48" x2="192" transform="translate(2.5 82)" fill="none" stroke="#96c" stroke-width="2"/>
            <g id="Text_Box-3" data-name="Text Box" transform="translate(2 41)">
              <rect id="Rectangle_192-3" data-name="Rectangle 192" width="192" height="41" fill="#fff"/>
              <text id="Dropdown_Option_1" data-name="Dropdown Option 1" transform="translate(24 12)" font-size="12" font-family="Poppins-Regular, Poppins"><tspan x="15.732" y="13">Dropdown Option 1</tspan></text>
            </g>
            <g id="Button">
              <g id="Rectangle_85-3" data-name="Rectangle 85" fill="rgba(153,102,204,0.1)" stroke="#96c" stroke-width="2">
                <rect width="195" height="41" rx="3" stroke="none"/>
                <rect x="1" y="1" width="193" height="39" rx="2" fill="none"/>
              </g>
              <g id="dropdown-text" transform="translate(23)">
                <text id="Dropdown_Open" data-name="Dropdown Open" transform="translate(38 25)" fill="#96c" font-size="12" font-family="Poppins-Regular, Poppins"><tspan x="0" y="0">Dropdown Open</tspan></text>
                <g id="Icon_Set" data-name="Icon Set" transform="translate(13 12)">
                  <path id="arrow-up" d="M6,19l8.5-8.5L23,19l-2.125,2.125L14.5,14.75,8.125,21.125Z" transform="translate(-6 -8.313)" fill="#96c" fill-rule="evenodd"/>
                  <rect id="Rectangle_186-2" data-name="Rectangle 186" width="17" height="17" fill="rgba(255,255,255,0)"/>
                </g>
              </g>
            </g>
          </g>
          <g id="DropDown_Button-2" data-name="DropDown Button" transform="translate(893 593)">
            <g id="Button-2" data-name="Button">
              <g id="Rectangle_85-4" data-name="Rectangle 85" fill="none" stroke="#96c" stroke-width="2">
                <rect width="204" height="41" rx="3" stroke="none"/>
                <rect x="1" y="1" width="202" height="39" rx="2" fill="none"/>
              </g>
              <g id="Text_With_Icon" data-name="Text With Icon">
                <g id="Icon_Set-2" data-name="Icon Set" transform="translate(151 12)">
                  <path id="arrow-down-3" data-name="arrow-down" d="M8.125,10.5,14.5,16.875,20.875,10.5,23,12.625l-8.5,8.5L6,12.625Z" transform="translate(-6 -8.313)" fill="#96c" fill-rule="evenodd"/>
                  <rect id="Rectangle_186-3" data-name="Rectangle 186" width="17" height="17" fill="rgba(255,255,255,0)"/>
                </g>
                <text id="Dropdown_Closed" data-name="Dropdown Closed" transform="translate(36 25)" fill="#96c" font-size="12" font-family="Poppins-Regular, Poppins"><tspan x="0" y="0">Dropdown Closed</tspan></text>
              </g>
            </g>
          </g>
        </g>
        <text id="dropdown-title" transform="translate(893 570.5)" fill="rgba(0,0,0,0.7)" font-size="18" font-family="Roboto-Regular, Roboto"><tspan x="0" y="0">DROPDOWN</tspan></text>
      </g>
      <g id="input-group" transform="translate(-83 32.906)">
        <g id="input-components" transform="translate(0 1)">
          <g id="success-input" transform="translate(-405 253.688)">
            <g id="success-message" transform="translate(-1 -3)">
              <text id="Success_Message_Goes_Here" data-name="Success Message Goes Here" transform="translate(535.5 730)" fill="#cc667b" font-size="10" font-family="Poppins-Regular, Poppins"><tspan x="0" y="0">Success Message Goes Here</tspan></text>
              <g id="checkmark">
                <line id="Line_46" data-name="Line 46" x2="2" y2="2" transform="translate(525.5 727.5)" fill="none" stroke="#cc6674" stroke-linecap="round" stroke-width="2"/>
                <line id="Line_47" data-name="Line 47" y1="6" x2="4" transform="translate(527.5 723.5)" fill="none" stroke="#cc6674" stroke-linecap="round" stroke-width="2"/>
              </g>
            </g>
            <g id="Input_Field" data-name="Input Field" transform="translate(507 675)">
              <g transform="matrix(1, 0, 0, 1, -19, -962.59)" filter="url(#Rectangle_74)">
                <g id="Rectangle_74-6" data-name="Rectangle 74" transform="translate(19 962.59)" fill="#fffafb" stroke="#cc6674" stroke-width="2">
                  <rect width="264" height="37" rx="5" stroke="none"/>
                  <rect x="1" y="1" width="262" height="35" rx="4" fill="none"/>
                </g>
              </g>
              <text id="Error_Input" data-name="Error Input" transform="translate(16 8)" font-size="16" font-family="Poppins-Regular, Poppins"><tspan x="0" y="17">Error Input</tspan></text>
            </g>
          </g>
          <g id="success-input-2" data-name="success-input" transform="translate(-405 172.688)">
            <g id="success-message-2" data-name="success-message" transform="translate(-1 -2)">
              <text id="Success_Message_Goes_Here-2" data-name="Success Message Goes Here" transform="translate(535.5 730)" fill="#66cc74" font-size="10" font-family="Poppins-Regular, Poppins"><tspan x="0" y="0">Success Message Goes Here</tspan></text>
              <g id="checkmark-2" data-name="checkmark">
                <line id="Line_46-2" data-name="Line 46" x2="2" y2="2" transform="translate(525.5 727.5)" fill="none" stroke="#66cc74" stroke-linecap="round" stroke-width="2"/>
                <line id="Line_47-2" data-name="Line 47" y1="6" x2="4" transform="translate(527.5 723.5)" fill="none" stroke="#66cc74" stroke-linecap="round" stroke-width="2"/>
              </g>
            </g>
            <g id="Input_Field-2" data-name="Input Field" transform="translate(507 675)">
              <g transform="matrix(1, 0, 0, 1, -19, -881.59)" filter="url(#Rectangle_74-2)">
                <g id="Rectangle_74-7" data-name="Rectangle 74" transform="translate(19 881.59)" fill="#fafffb" stroke="#66cc74" stroke-width="2">
                  <rect width="263" height="38" rx="5" stroke="none"/>
                  <rect x="1" y="1" width="261" height="36" rx="4" fill="none"/>
                </g>
              </g>
              <text id="Success_Input" data-name="Success Input" transform="translate(16 8)" font-size="16" font-family="Poppins-Regular, Poppins"><tspan x="0" y="17">Success Input</tspan></text>
            </g>
          </g>
          <g id="Input_Field-3" data-name="Input Field" transform="translate(102 784.688)">
            <g transform="matrix(1, 0, 0, 1, -19, -818.59)" filter="url(#Rectangle_74-3)">
              <rect id="Rectangle_74-8" data-name="Rectangle 74" width="262" height="39" rx="5" transform="translate(19 818.59)" fill="#fff"/>
            </g>
            <g id="icon-text">
              <text id="Input_with_Icon" data-name="Input with Icon" transform="translate(41 8)" font-size="16" font-family="Poppins-Regular, Poppins"><tspan x="0" y="17">Input with Icon</tspan></text>
              <g id="Icon" transform="translate(-354.738 -0.248)">
                <g id="Icon_Set-3" data-name="Icon Set" transform="translate(362.738 11.248)">
                  <g id="Mask_Group_16" data-name="Mask Group 16" clip-path="url(#clip-path)">
                    <g id="__TEMP__SVG__" transform="translate(0 0)">
                      <path id="Path_370" data-name="Path 370" d="M6.8,1.7h6.8a5.105,5.105,0,0,1,5.1,5.1V17.85a.85.85,0,0,1-.85.85H6.8a5.105,5.105,0,0,1-5.1-5.1V6.8A5.105,5.105,0,0,1,6.8,1.7ZM3.4,13.6A3.4,3.4,0,0,0,6.8,17H17V6.8a3.4,3.4,0,0,0-3.4-3.4H6.8A3.4,3.4,0,0,0,3.4,6.8Z" transform="translate(-1.7 -1.7)" fill="#96c"/>
                      <path id="Path_371" data-name="Path 371" d="M14.45,7.65H5.95v1.7h8.5Zm0,3.4H8.5v1.7h5.95Z" transform="translate(-1.7 -1.7)" fill="#96c"/>
                    </g>
                  </g>
                </g>
              </g>
            </g>
          </g>
          <g id="Input_Field-4" data-name="Input Field" transform="translate(102 721.688)">
            <g transform="matrix(1, 0, 0, 1, -19, -755.59)" filter="url(#Rectangle_74-4)">
              <rect id="Rectangle_74-9" data-name="Rectangle 74" width="262" height="39" rx="5" transform="translate(19 755.59)" fill="#fff"/>
            </g>
            <g id="Input">
              <g id="Icon-2" data-name="Icon" transform="translate(-124.5 1)">
                <g id="Close_Icon" data-name="Close Icon">
                  <line id="Line_36" data-name="Line 36" x2="12" y2="12" transform="translate(358.5 13.5)" fill="none" stroke="#96c" stroke-width="3"/>
                  <line id="Line_37" data-name="Line 37" x1="12" y2="12" transform="translate(358.5 13.5)" fill="none" stroke="#96c" stroke-width="3"/>
                </g>
              </g>
              <text id="Focused_Input" data-name="Focused Input" transform="translate(16 8)" font-size="16" font-family="Poppins-Regular, Poppins"><tspan x="0" y="17">Focused Input</tspan></text>
            </g>
          </g>
          <g id="Input_Field-5" data-name="Input Field" transform="translate(102 658.688)">
            <g transform="matrix(1, 0, 0, 1, -19, -692.59)" filter="url(#Rectangle_74-5)">
              <rect id="Rectangle_74-10" data-name="Rectangle 74" width="263" height="39" rx="5" transform="translate(19 692.59)" fill="#fff"/>
            </g>
            <text id="Input_Field-6" data-name="Input Field" transform="translate(16 8)" font-size="16" font-family="Poppins-Regular, Poppins"><tspan x="0" y="17">Input Field</tspan></text>
          </g>
          <g id="Search_Bar" data-name="Search Bar" transform="translate(102 595.688)">
            <g transform="matrix(1, 0, 0, 1, -19, -629.59)" filter="url(#Rectangle_86)">
              <rect id="Rectangle_86-2" data-name="Rectangle 86" width="264.401" height="39" rx="16" transform="translate(19 629.59)" fill="#fff"/>
            </g>
            <g id="Search_Text" data-name="Search Text" transform="translate(-53.741 11.446)">
              <text id="Search_Input" data-name="Search Input" transform="translate(111.142 -3.446)" font-size="16" font-family="Poppins-Medium, Poppins" font-weight="500"><tspan x="0" y="17">Search Input</tspan></text>
              <path id="search" d="M15.462,14.957l4.681,4.987a.979.979,0,0,1,0,1.323.84.84,0,0,1-1.241,0L14.22,16.279a6.661,6.661,0,0,1-9.484-.961,7.774,7.774,0,0,1,.3-10.147,6.653,6.653,0,0,1,9.522-.321,7.764,7.764,0,0,1,.9,10.106Zm-5.5,1.021a5.4,5.4,0,0,0,5.22-5.562,5.4,5.4,0,0,0-5.22-5.562,5.4,5.4,0,0,0-5.22,5.562A5.4,5.4,0,0,0,9.959,15.978Z" transform="translate(66.743 -3.217)" fill="#5b5b5b" fill-rule="evenodd"/>
            </g>
          </g>
        </g>
        <text id="input-title" transform="translate(102 567.688)" fill="rgba(0,0,0,0.7)" font-size="18" font-family="Roboto-Regular, Roboto"><tspan x="0" y="0">INPUTS</tspan></text>
      </g>
      <g id="buttons-group" transform="translate(-169 -313)">
        <g id="buttons">
          <g id="solid-buttons">
            <g id="button-components">
              <g id="Button-3" data-name="Button" transform="translate(188 401.461)">
                <rect id="Rectangle_85-5" data-name="Rectangle 85" width="115" height="41" rx="3" fill="url(#radial-gradient)"/>
                <text id="Default" transform="translate(36 25)" fill="#f1faff" font-size="12" font-family="Poppins-Regular, Poppins"><tspan x="0" y="0">Default</tspan></text>
              </g>
              <g id="Button-4" data-name="Button" transform="translate(319 401.461)">
                <rect id="Rectangle_85-6" data-name="Rectangle 85" width="107" height="41" rx="3" fill="url(#radial-gradient-2)"/>
                <text id="Hover" transform="translate(36 25)" fill="#f1faff" font-size="12" font-family="Poppins-Regular, Poppins"><tspan x="0" y="0">Hover</tspan></text>
              </g>
              <g id="Button-5" data-name="Button" transform="translate(386 531.979)">
                <g transform="matrix(1, 0, 0, 1, -217, -218.98)" filter="url(#Rectangle_85)">
                  <rect id="Rectangle_85-7" data-name="Rectangle 85" width="40" height="40" rx="3" transform="translate(217 218.98)" fill="url(#radial-gradient)"/>
                </g>
                <g id="arrow-right-short" transform="translate(3 1.877)">
                  <path id="Path_240" data-name="Path 240" d="M18.4,10.459a1.553,1.553,0,0,1,1.928,0L28.5,17.315a1.018,1.018,0,0,1,0,1.618l-8.171,6.856a1.555,1.555,0,0,1-1.928,0,1.019,1.019,0,0,1,0-1.618l7.209-6.047L18.4,12.076a1.018,1.018,0,0,1,0-1.618Z" transform="translate(-3.898 0)" fill="#fff" fill-rule="evenodd"/>
                  <path id="Path_241" data-name="Path 241" d="M9,18a1.065,1.065,0,0,1,.991-1.125H22.881a1.134,1.134,0,0,1,0,2.25H9.991A1.065,1.065,0,0,1,9,18Z" transform="translate(0 0.123)" fill="#fff" fill-rule="evenodd"/>
                </g>
              </g>
              <g id="Button-6" data-name="Button" transform="translate(386 596.844)">
                <g transform="matrix(1, 0, 0, 1, -217, -283.84)" filter="url(#Rectangle_85-2)">
                  <rect id="Rectangle_85-8" data-name="Rectangle 85" width="40" height="40" rx="3" transform="translate(217 283.84)" fill="url(#radial-gradient)"/>
                </g>
                <g id="arrow-right-short-2" data-name="arrow-right-short" transform="translate(3 1.488)">
                  <path id="Path_241-2" data-name="Path 241" d="M9,18.375c0-.828.478-1.5,1.067-1.5H23.933c.589,0,1.067.672,1.067,1.5s-.478,1.5-1.067,1.5H10.067C9.478,19.875,9,19.2,9,18.375Z" transform="translate(0 0.138)" fill="#fff" fill-rule="evenodd"/>
                  <path id="Path_372" data-name="Path 372" d="M0,1.5C0,.672.478,0,1.067,0H14.933C15.522,0,16,.672,16,1.5S15.522,3,14.933,3H1.067C.478,3,0,2.328,0,1.5Z" transform="translate(18.5 10.512) rotate(90)" fill="#fff" fill-rule="evenodd"/>
                </g>
              </g>
              <g id="Button-7" data-name="Button" transform="translate(188 466.422)">
                <g id="Rectangle_85-9" data-name="Rectangle 85" fill="none" stroke="#96c" stroke-width="2">
                  <rect width="115" height="41" rx="3" stroke="none"/>
                  <rect x="1" y="1" width="113" height="39" rx="2" fill="none"/>
                </g>
                <text id="Default-2" data-name="Default" transform="translate(36 25)" fill="#96c" font-size="12" font-family="Poppins-Regular, Poppins"><tspan x="0" y="0">Default</tspan></text>
              </g>
              <g id="Button-8" data-name="Button" transform="translate(319 466.422)">
                <g id="Rectangle_85-10" data-name="Rectangle 85" fill="rgba(153,102,204,0.1)" stroke="#96c" stroke-width="2">
                  <rect width="107" height="41" rx="3" stroke="none"/>
                  <rect x="1" y="1" width="105" height="39" rx="2" fill="none"/>
                </g>
                <text id="Hover-2" data-name="Hover" transform="translate(36 25)" fill="#96c" font-size="12" font-family="Poppins-Regular, Poppins"><tspan x="0" y="0">Hover</tspan></text>
              </g>
              <g id="Button-9" data-name="Button" transform="translate(188 531.383)">
                <rect id="Rectangle_85-11" data-name="Rectangle 85" width="139" height="41" rx="3" fill="url(#radial-gradient-5)"/>
                <text id="Destructive" transform="translate(36 25)" fill="#f1faff" font-size="12" font-family="Poppins-Regular, Poppins"><tspan x="0" y="0">Destructive</tspan></text>
              </g>
            </g>
            <text id="solid-button-title" transform="translate(188 390.25)" fill="rgba(0,0,0,0.7)" font-size="12" font-family="Roboto-Medium, Roboto" font-weight="500"><tspan x="0" y="0">SOLID</tspan></text>
          </g>
          <g id="switch-buttons" transform="translate(-534 282)">
            <g id="switch-component">
              <g id="switch-on-inactive" transform="translate(262 45.461)">
                <g data-type="innerShadowGroup">
                  <rect id="Rectangle_240-3" data-name="Rectangle 240" width="48" height="23" rx="11.5" transform="translate(640 356)" fill="#cfb8e6"/>
                  <g transform="matrix(1, 0, 0, 1, 441, -14.46)" filter="url(#Rectangle_240)">
                    <rect id="Rectangle_240-4" data-name="Rectangle 240" width="48" height="23" rx="11.5" transform="translate(199 370.46)" fill="#fff"/>
                  </g>
                </g>
                <g transform="matrix(1, 0, 0, 1, 441, -14.46)" filter="url(#Ellipse_49)">
                  <ellipse id="Ellipse_49-3" data-name="Ellipse 49" cx="11" cy="10.5" rx="11" ry="10.5" transform="translate(224 371.46)" fill="#9a7db3"/>
                </g>
              </g>
              <g id="switch-off-inactive" transform="translate(202 45.461)">
                <rect id="Rectangle_240-5" data-name="Rectangle 240" width="48" height="23" rx="11.5" transform="translate(640 356)" fill="#cac2cc"/>
                <ellipse id="Ellipse_49-4" data-name="Ellipse 49" cx="11" cy="10.5" rx="11" ry="10.5" transform="translate(641 357)" fill="#e0d7e5"/>
              </g>
              <g id="switch-on-active" transform="translate(142 45.461)">
                <g data-type="innerShadowGroup">
                  <rect id="Rectangle_240-6" data-name="Rectangle 240" width="48" height="23" rx="11.5" transform="translate(640 356)" fill="url(#linear-gradient)"/>
                  <g transform="matrix(1, 0, 0, 1, 561, -14.46)" filter="url(#Rectangle_240-2)">
                    <rect id="Rectangle_240-7" data-name="Rectangle 240" width="48" height="23" rx="11.5" transform="translate(79 370.46)" fill="#fff"/>
                  </g>
                </g>
                <g transform="matrix(1, 0, 0, 1, 561, -14.46)" filter="url(#Ellipse_49-2)">
                  <ellipse id="Ellipse_49-5" data-name="Ellipse 49" cx="11" cy="10.5" rx="11" ry="10.5" transform="translate(104 371.46)" fill="#f9f2ff"/>
                </g>
              </g>
              <g id="switch-off-active" transform="translate(82 45.461)">
                <rect id="Rectangle_240-8" data-name="Rectangle 240" width="48" height="23" rx="11.5" transform="translate(640 356)" fill="#fff"/>
                <ellipse id="Ellipse_49-6" data-name="Ellipse 49" cx="11" cy="10.5" rx="11" ry="10.5" transform="translate(641 357)" fill="#e9daf2"/>
              </g>
            </g>
            <text id="switch-button-title" transform="translate(722 390.25)" fill="rgba(0,0,0,0.7)" font-size="12" font-family="Roboto-Medium, Roboto" font-weight="500"><tspan x="0" y="0">SWITCH</tspan></text>
          </g>
          <g id="radio-buttons" transform="translate(-538 282)">
            <g id="radio-components" transform="translate(45 0.461)">
              <g id="radio-selected-active" transform="translate(86 54.461)">
                <g transform="matrix(1, 0, 0, 1, 576, -23.92)" filter="url(#Ellipse_50)">
                  <g id="Ellipse_50-4" data-name="Ellipse 50" transform="translate(64 451.92)" fill="#fff" stroke="#9b79c8" stroke-width="2">
                    <circle cx="12" cy="12" r="12" stroke="none"/>
                    <circle cx="12" cy="12" r="11" fill="none"/>
                  </g>
                </g>
                <g transform="matrix(1, 0, 0, 1, 576, -23.92)" filter="url(#Ellipse_51)">
                  <g id="Ellipse_51-2" data-name="Ellipse 51" transform="translate(68 455.92)" fill="#9b79c8" stroke="#9b79c8" stroke-width="2">
                    <circle cx="8" cy="8" r="8" stroke="none"/>
                    <circle cx="8" cy="8" r="7" fill="none"/>
                  </g>
                </g>
              </g>
              <g id="radio-unselected-active" transform="translate(134 54.461)">
                <g transform="matrix(1, 0, 0, 1, 528, -23.92)" filter="url(#Ellipse_50-2)">
                  <g id="Ellipse_50-5" data-name="Ellipse 50" transform="translate(112 451.92)" fill="#fff" stroke="#9b79c8" stroke-width="2">
                    <circle cx="12" cy="12" r="12" stroke="none"/>
                    <circle cx="12" cy="12" r="11" fill="none"/>
                  </g>
                </g>
              </g>
              <g id="radio-unselected-inactive" transform="translate(230 54.461)">
                <g transform="matrix(1, 0, 0, 1, 432, -23.92)" filter="url(#Ellipse_50-3)">
                  <g id="Ellipse_50-6" data-name="Ellipse 50" transform="translate(208 451.92)" fill="#fff" stroke="#9b79c8" stroke-width="2">
                    <circle cx="12" cy="12" r="12" stroke="none"/>
                    <circle cx="12" cy="12" r="11" fill="none"/>
                  </g>
                </g>
              </g>
              <g id="radio-selected-inactive" transform="translate(182 54.461)">
                <g id="Ellipse_50-7" data-name="Ellipse 50" transform="translate(640 428)" fill="#fff" stroke="#d7c2f2" stroke-width="2">
                  <circle cx="12" cy="12" r="12" stroke="none"/>
                  <circle cx="12" cy="12" r="11" fill="none"/>
                </g>
                <circle id="Ellipse_51-3" data-name="Ellipse 51" cx="8" cy="8" r="8" transform="translate(644 432)" fill="#d7c2f2"/>
              </g>
            </g>
            <text id="radio-button-title" transform="translate(726 470.922)" fill="rgba(0,0,0,0.7)" font-size="12" font-family="Roboto-Medium, Roboto" font-weight="500"><tspan x="0" y="0">RADIO</tspan></text>
          </g>
          <g id="checkbox-buttons" transform="translate(-854 445.133)">
            <g id="checkbox-component" transform="translate(70)">
              <g id="checkbox-unselected" transform="translate(82 45.461)">
                <g transform="matrix(1, 0, 0, 1, 871, -177.59)" filter="url(#Rectangle_241)">
                  <g id="Rectangle_241-3" data-name="Rectangle 241" transform="translate(89 533.59)" fill="#fff" stroke="#9b79c8" stroke-width="2">
                    <rect width="24" height="24" rx="4" stroke="none"/>
                    <rect x="1" y="1" width="22" height="22" rx="3" fill="none"/>
                  </g>
                </g>
              </g>
              <g id="checkbox-selected" transform="translate(130 45.461)">
                <g transform="matrix(1, 0, 0, 1, 823, -177.59)" filter="url(#Rectangle_241-2)">
                  <g id="Rectangle_241-4" data-name="Rectangle 241" transform="translate(137 533.59)" fill="#9b79c8" stroke="#9b79c8" stroke-width="2">
                    <rect width="24" height="24" rx="4" stroke="none"/>
                    <rect x="1" y="1" width="22" height="22" rx="3" fill="none"/>
                  </g>
                </g>
                <g id="checkmark-3" data-name="checkmark" transform="translate(-48)">
                  <path id="Path_373" data-name="Path 373" d="M0,0,2.793,2.793" transform="translate(1014.104 371.207)" fill="none" stroke="#e9d9ff" stroke-linecap="round" stroke-width="3"/>
                  <line id="Line_51" data-name="Line 51" x1="9" y2="12" transform="translate(1016.896 362)" fill="none" stroke="#e9d9ff" stroke-linecap="round" stroke-width="3"/>
                </g>
              </g>
              <g id="checkbox-selected-inactive" transform="translate(178 45.461)">
                <rect id="Rectangle_241-5" data-name="Rectangle 241" width="24" height="24" rx="4" transform="translate(960 356)" fill="#e2ccff"/>
                <g id="checkmark-4" data-name="checkmark" transform="translate(-48)">
                  <path id="Path_373-2" data-name="Path 373" d="M0,0,2.793,2.793" transform="translate(1014.104 371.207)" fill="none" stroke="#d3b3ff" stroke-linecap="round" stroke-width="3"/>
                  <line id="Line_51-2" data-name="Line 51" x1="9" y2="12" transform="translate(1016.896 362)" fill="none" stroke="#d3b3ff" stroke-linecap="round" stroke-width="3"/>
                </g>
              </g>
            </g>
            <text id="checkbox-button-title" transform="translate(1042 390.25)" fill="rgba(0,0,0,0.7)" font-size="12" font-family="Roboto-Medium, Roboto" font-weight="500"><tspan x="0" y="0">CHECKBOX</tspan></text>
          </g>
        </g>
        <text id="buttons-title" transform="translate(188 348.461)" fill="rgba(0,0,0,0.7)" font-size="18" font-family="Roboto-Regular, Roboto"><tspan x="0" y="0">BUTTONS</tspan></text>
      </g>
    </g>
  </g>
</svg>
