<svg xmlns="http://www.w3.org/2000/svg" xmlns:xlink="http://www.w3.org/1999/xlink" width="300" height="301" viewBox="0 0 300 301">
  <defs>
    <clipPath id="clip-path">
      <rect id="Rectangle_197" data-name="Rectangle 197" width="35" height="35" fill="#fff"/>
    </clipPath>
    <clipPath id="clip-icons-mobile">
      <rect width="300" height="301"/>
    </clipPath>
  </defs>
  <g id="icons-mobile" clip-path="url(#clip-icons-mobile)">
    <rect width="300" height="301" fill="rgba(255,255,255,0)"/>
    <g id="icon-group" transform="translate(-89.194 -134)">
      <path id="search" d="M26.525,25.572l8.836,9.415a1.848,1.848,0,0,1,0,2.5,1.586,1.586,0,0,1-2.343,0l-8.836-9.415a12.574,12.574,0,0,1-17.9-1.814A14.674,14.674,0,0,1,6.846,7.1a12.558,12.558,0,0,1,17.975-.605,14.656,14.656,0,0,1,1.7,19.077ZM16.139,27.5c5.442,0,9.854-4.7,9.854-10.5S21.581,6.5,16.139,6.5,6.285,11.2,6.285,17,10.7,27.5,16.139,27.5Z" transform="translate(307.389 362)" fill="#96c" fill-rule="evenodd"/>
      <path id="instagram" d="M20.142,3c-4.656,0-5.239.021-7.067.1a12.391,12.391,0,0,0-4.161.814A8.386,8.386,0,0,0,5.876,5.938,8.6,8.6,0,0,0,3.9,9.037a13.138,13.138,0,0,0-.8,4.248C3.019,15.152,3,15.747,3,20.5s.019,5.348.1,7.214a13.114,13.114,0,0,0,.8,4.248,8.6,8.6,0,0,0,1.977,3.1,8.389,8.389,0,0,0,3.038,2.018,12.414,12.414,0,0,0,4.161.814c1.828.084,2.412.1,7.067.1s5.239-.021,7.067-.1a12.391,12.391,0,0,0,4.161-.814,8.388,8.388,0,0,0,3.038-2.018,8.6,8.6,0,0,0,1.977-3.1,13.138,13.138,0,0,0,.8-4.248c.082-1.867.1-2.463.1-7.214s-.021-5.348-.1-7.214a13.114,13.114,0,0,0-.8-4.248,8.6,8.6,0,0,0-1.977-3.1,8.386,8.386,0,0,0-3.038-2.018A12.414,12.414,0,0,0,27.21,3.1C25.38,3.021,24.8,3,20.142,3m0,3.153c4.577,0,5.119.017,6.925.1a9.354,9.354,0,0,1,3.185.6,5.354,5.354,0,0,1,1.971,1.309,5.459,5.459,0,0,1,1.282,2.012,9.888,9.888,0,0,1,.59,3.249c.082,1.847.1,2.4.1,7.072s-.017,5.225-.1,7.07a9.962,9.962,0,0,1-.59,3.251,5.437,5.437,0,0,1-1.282,2.012,5.325,5.325,0,0,1-1.971,1.309,9.344,9.344,0,0,1-3.183.6c-1.807.084-2.348.1-6.928.1s-5.121-.017-6.925-.1a9.413,9.413,0,0,1-3.185-.6A5.3,5.3,0,0,1,8.06,32.833a5.434,5.434,0,0,1-1.282-2.012,9.826,9.826,0,0,1-.59-3.249c-.082-1.847-.1-2.4-.1-7.072s.017-5.225.1-7.07a9.9,9.9,0,0,1,.59-3.251A5.488,5.488,0,0,1,8.06,8.166a5.326,5.326,0,0,1,1.971-1.309,9.286,9.286,0,0,1,3.183-.6c1.809-.084,2.348-.1,6.928-.1m0,20.179A5.834,5.834,0,1,1,25.856,20.5a5.774,5.774,0,0,1-5.714,5.833m0-14.819a8.988,8.988,0,1,0,8.8,8.986,8.9,8.9,0,0,0-8.8-8.986m11.207-.355a2.057,2.057,0,1,1-2.057-2.1,2.079,2.079,0,0,1,2.057,2.1" transform="translate(215.496 363)" fill="#96c" fill-rule="evenodd"/>
      <path id="twitter" d="M16.476,39c16.188,0,25.045-12.7,25.045-23.694,0-.357,0-.714-.017-1.071a17.425,17.425,0,0,0,4.4-4.323,18.641,18.641,0,0,1-5.062,1.318,8.477,8.477,0,0,0,3.878-4.613,18.131,18.131,0,0,1-5.6,2.016A9.028,9.028,0,0,0,32.7,6a8.585,8.585,0,0,0-8.807,8.332,8.725,8.725,0,0,0,.223,1.9A25.5,25.5,0,0,1,5.97,7.526,8.082,8.082,0,0,0,8.7,18.65a9.3,9.3,0,0,1-3.984-1.039v.114a8.475,8.475,0,0,0,7.057,8.169,9.043,9.043,0,0,1-2.317.292A9.166,9.166,0,0,1,7.8,26.04a8.759,8.759,0,0,0,8.224,5.783A18.307,18.307,0,0,1,5.094,35.394,17.89,17.89,0,0,1,3,35.28,26.1,26.1,0,0,0,16.478,39" transform="translate(129.387 360)" fill="#96c"/>
      <path id="facebook" d="M27.964,38V24.447h4.729l.708-5.282H27.963V15.792c0-1.53.441-2.572,2.724-2.572h2.907V8.495a40.428,40.428,0,0,0-4.238-.21c-4.191,0-7.059,2.463-7.059,6.983v3.9H17.552v5.281h4.743V38H5.008A1.971,1.971,0,0,1,3,36.068V4.932A1.971,1.971,0,0,1,5.008,3H37.371a1.971,1.971,0,0,1,2.008,1.932V36.068A1.971,1.971,0,0,1,37.371,38Z" transform="translate(305.621 292)" fill="#96c" fill-rule="evenodd"/>
      <g id="__TEMP__SVG__" transform="translate(201.891 281.543)">
        <g id="Group_78" data-name="Group 78" transform="translate(12.767 13.457)">
          <path id="Path_248" data-name="Path 248" d="M6.339,36.767H1.767V17.76a7.2,7.2,0,0,1,1.054-3.741c1.934-3.549,6.184-5.831,10.87-5.835H25.663V1.767h3.714L43.73,13.7l-14.4,11.98H25.663V19.267H17.877c-3.347.007-6.281,1.86-7.189,4.539Zm7.352-26.25A9.381,9.381,0,0,0,5.368,15l-.026.045a5.2,5.2,0,0,0-.77,2.718V33.35L7.985,23.178c1.248-3.686,5.286-6.236,9.891-6.245H28.469V23.1L39.763,13.7,28.469,4.311v6.206Z" transform="translate(-1.767 -1.767)" fill="#96c"/>
        </g>
      </g>
      <path id="Path_247" data-name="Path 247" d="M6.625,4.375A4.375,4.375,0,0,1,11,0H28.5a4.375,4.375,0,0,1,4.375,4.375V33.907a1.094,1.094,0,0,1-1.7.91L19.75,28.659,8.325,34.817a1.094,1.094,0,0,1-1.7-.91ZM11,2.188A2.188,2.188,0,0,0,8.813,4.375V31.864l10.332-5.43a1.094,1.094,0,0,1,1.212,0l10.332,5.43V4.375A2.188,2.188,0,0,0,28.5,2.188Z" transform="translate(129.782 295)" fill="#96c"/>
      <g id="Icon_Set" data-name="Icon Set" transform="translate(311 233)">
        <g id="Mask_Group_6" data-name="Mask Group 6" clip-path="url(#clip-path)">
          <g id="__TEMP__SVG__2" data-name="__TEMP__SVG__" transform="translate(0 0)">
            <g id="Group_76" data-name="Group 76">
              <path id="Path_245" data-name="Path 245" d="M7.656,0A1.094,1.094,0,0,1,8.75,1.094V2.188h17.5V1.094a1.094,1.094,0,1,1,2.188,0V2.188h2.187A4.375,4.375,0,0,1,35,6.563V30.625A4.375,4.375,0,0,1,30.625,35H4.375A4.375,4.375,0,0,1,0,30.625V6.563A4.375,4.375,0,0,1,4.375,2.188H6.563V1.094A1.094,1.094,0,0,1,7.656,0ZM4.375,4.375A2.187,2.187,0,0,0,2.188,6.563V8.75H32.813V6.563a2.188,2.188,0,0,0-2.187-2.188Zm28.438,6.563H2.188V30.625a2.187,2.187,0,0,0,2.188,2.188h26.25a2.187,2.187,0,0,0,2.188-2.187Z" transform="translate(0 0)" fill="#96c"/>
              <path id="Path_246" data-name="Path 246" d="M26.087,7.969c0-.293.641-.531,1.431-.531h2.863c.79,0,1.431.238,1.431.531V9.031c0,.293-.641.531-1.431.531H27.519c-.79,0-1.431-.238-1.431-.531Zm-8.587,0c0-.293.641-.531,1.431-.531h2.862c.79,0,1.431.238,1.431.531V9.031c0,.293-.641.531-1.431.531H18.931c-.79,0-1.431-.238-1.431-.531Zm-5.725,3.188c0-.293.641-.531,1.431-.531h2.863c.79,0,1.431.238,1.431.531v1.063c0,.293-.641.531-1.431.531H13.206c-.79,0-1.431-.238-1.431-.531Zm-8.587,0c0-.293.641-.531,1.431-.531H7.481c.79,0,1.431.238,1.431.531v1.063c0,.293-.641.531-1.431.531H4.619c-.79,0-1.431-.238-1.431-.531Z" transform="translate(0 11.455)" fill="#96c"/>
            </g>
          </g>
        </g>
      </g>
      <g id="Icon_Set-2" data-name="Icon Set" transform="translate(215 234)">
        <rect id="Rectangle_186" data-name="Rectangle 186" width="54" height="34" fill="rgba(255,255,255,0)"/>
        <path id="arrow-down" d="M12.75,10.5,33,29.587,53.25,10.5,60,16.862,33,42.313,6,16.862Z" transform="translate(-6 -8.313)" fill="#96c" fill-rule="evenodd"/>
      </g>
      <g id="Icon_Set-3" data-name="Icon Set" transform="translate(132.387 234)">
        <rect id="Rectangle_186-2" data-name="Rectangle 186" width="34" height="34" fill="rgba(255,255,255,0)"/>
        <path id="arrow-up" d="M6,35.95,31.113,10.5,56.227,35.95l-6.278,6.362L31.113,23.225,12.278,42.313Z" transform="translate(-6 -8.313)" fill="#96c" fill-rule="evenodd"/>
      </g>
      <g id="Icon_Set-4" data-name="Icon Set" transform="translate(311 172)">
        <path id="arrow-right" d="M16.038,6,38.131,23,16.038,40,10.5,35.75,27.084,23,10.5,10.25Z" transform="translate(-7.316 -6)" fill="#96c" fill-rule="evenodd"/>
        <rect id="Rectangle_186-3" data-name="Rectangle 186" width="34" height="34" fill="rgba(255,255,255,0)"/>
      </g>
      <g id="Icon_Set-5" data-name="Icon Set" transform="translate(225 172)">
        <path id="arrow-left" d="M32.6,6l5.525,4.25L21.55,23,38.125,35.75,32.6,40,10.5,23Z" transform="translate(-7.625 -6)" fill="#96c" fill-rule="evenodd"/>
        <rect id="Rectangle_186-4" data-name="Rectangle 186" width="34" height="34" fill="rgba(255,255,255,0)"/>
        <rect id="Rectangle_237" data-name="Rectangle 237" width="34" height="34" fill="rgba(255,255,255,0)"/>
      </g>
      <g id="Icon_Set-6" data-name="Icon Set" transform="translate(142 170)">
        <rect id="Rectangle_186-5" data-name="Rectangle 186" width="31" height="31" transform="translate(0 2)" fill="rgba(255,255,255,0)"/>
        <g id="Settings" transform="translate(-116 -1254)">
          <line id="Line_38" data-name="Line 38" x2="29.579" transform="translate(116.5 1258.5)" fill="none" stroke="#96c" stroke-width="3"/>
          <line id="Line_39" data-name="Line 39" x2="29.579" transform="translate(116.5 1271.714)" fill="none" stroke="#96c" stroke-width="3"/>
          <line id="Line_40" data-name="Line 40" x2="29.579" transform="translate(116.5 1284.927)" fill="none" stroke="#96c" stroke-width="3"/>
          <g id="Ellipse_31" data-name="Ellipse 31" transform="translate(117 1254)" fill="#fff" stroke="#96c" stroke-width="2">
            <circle cx="5" cy="5" r="5" stroke="none"/>
            <circle cx="5" cy="5" r="4" fill="none"/>
          </g>
          <g id="Ellipse_32" data-name="Ellipse 32" transform="translate(135 1266)" fill="#fff" stroke="#96c" stroke-width="2">
            <circle cx="5" cy="5" r="5" stroke="none"/>
            <circle cx="5" cy="5" r="4" fill="none"/>
          </g>
          <g id="Ellipse_48" data-name="Ellipse 48" transform="translate(125 1280)" fill="#fff" stroke="#96c" stroke-width="2">
            <circle cx="5" cy="5" r="5" stroke="none"/>
            <circle cx="5" cy="5" r="4" fill="none"/>
          </g>
        </g>
      </g>
    </g>
  </g>
</svg>
