<svg xmlns="http://www.w3.org/2000/svg" xmlns:xlink="http://www.w3.org/1999/xlink" width="1365" height="580" viewBox="0 0 1365 580">
  <defs>
    <clipPath id="clip-colors">
      <rect width="1365" height="580"/>
    </clipPath>
  </defs>
  <g id="colors" clip-path="url(#clip-colors)">
    <rect width="1365" height="580" fill="rgba(255,255,255,0)"/>
    <text id="Primary" transform="translate(220 522)" font-size="32" font-family="Roboto-Medium, Roboto" font-weight="500"><tspan x="0" y="0">Primary</tspan></text>
    <text id="Other_Colors" data-name="Other Colors" transform="translate(802 522)" font-size="32" font-family="Roboto-Medium, Roboto" font-weight="500"><tspan x="0" y="0">Other Colors</tspan></text>
    <rect id="Rectangle_205" data-name="Rectangle 205" width="417" height="397" rx="3" transform="translate(81 45)" fill="#3498db"/>
    <rect id="Rectangle_206" data-name="Rectangle 206" width="230" height="190" rx="3" transform="translate(528 45)" fill="#2c3e50"/>
    <rect id="Rectangle_209" data-name="Rectangle 209" width="230" height="190" rx="3" transform="translate(788 45)" fill="#bdc3c7"/>
    <text id="_3498DB" data-name="#3498DB" transform="translate(236 423)" fill="#fff" font-size="24" font-family="Roboto-Medium, Roboto" font-weight="500"><tspan x="0" y="0">#3498DB</tspan></text>
    <text id="_2C3E50" data-name="#2C3E50" transform="translate(594 222)" fill="#fff" font-size="24" font-family="Roboto-Medium, Roboto" font-weight="500"><tspan x="0" y="0">#2C3E50</tspan></text>
    <text id="_BDC3C7" data-name="#BDC3C7" transform="translate(845 222)" fill="#030303" font-size="24" font-family="Roboto-Medium, Roboto" font-weight="500"><tspan x="0" y="0">#BDC3C7</tspan></text>
    <rect id="Rectangle_207" data-name="Rectangle 207" width="230" height="187" rx="3" transform="translate(528 255)" fill="#fbfdff"/>
    <rect id="Rectangle_208" data-name="Rectangle 208" width="230" height="187" rx="3" transform="translate(788 255)" fill="#d93423"/>
    <rect id="Rectangle_266" data-name="Rectangle 266" width="230" height="187" rx="3" transform="translate(1055 45)" fill="#e3f0f9"/>
    <rect id="Rectangle_267" data-name="Rectangle 267" width="230" height="187" rx="3" transform="translate(1055 255)" fill="#a8cce4"/>
    <text id="_FBFDFF" data-name="#FBFDFF" transform="translate(594 423)" font-size="24" font-family="Roboto-Medium, Roboto" font-weight="500"><tspan x="0" y="0">#FBFDFF</tspan></text>
    <text id="_D93423" data-name="#D93423" transform="translate(847 423)" fill="#fff" font-size="24" font-family="Roboto-Medium, Roboto" font-weight="500"><tspan x="0" y="0">#D93423</tspan></text>
    <text id="_E3F0F9" data-name="#E3F0F9" transform="translate(1114 213)" font-size="24" font-family="Roboto-Medium, Roboto" font-weight="500"><tspan x="0" y="0">#E3F0F9</tspan></text>
    <text id="_E3F0F9-2" data-name="#E3F0F9" transform="translate(1114 423)" font-size="24" font-family="Roboto-Medium, Roboto" font-weight="500"><tspan x="0" y="0">#E3F0F9</tspan></text>
  </g>
</svg>
