<svg xmlns="http://www.w3.org/2000/svg" xmlns:xlink="http://www.w3.org/1999/xlink" width="1540" height="806" viewBox="0 0 1540 806"><defs><clipPath id="b"><rect width="1540" height="806"/></clipPath></defs><g id="a" clip-path="url(#b)"><rect width="1540" height="806" fill="rgba(255,255,255,0)"/><text transform="translate(138 105)" font-size="42" font-family="Poppins-Bold, Poppins" font-weight="700"><tspan x="0" y="0">Colors</tspan></text><text transform="translate(278 686)" font-size="32" font-family="Poppins-Medium, Poppins" font-weight="500"><tspan x="0" y="0">Primary</tspan></text><text transform="translate(860 686)" font-size="32" font-family="Poppins-Medium, Poppins" font-weight="500"><tspan x="0" y="0">Other Colors</tspan></text><line x2="1198" transform="translate(138.5 134.5)" fill="none" stroke="#030303" stroke-width="3"/><rect width="417" height="397" rx="3" transform="translate(139 209)" fill="#3498db"/><rect width="230" height="190" rx="3" transform="translate(586 209)" fill="#2c3e50"/><rect width="230" height="190" rx="3" transform="translate(846 209)" fill="#bdc3c7"/><text transform="translate(294 587)" fill="#fff" font-size="24" font-family="Poppins-Regular, Poppins"><tspan x="0" y="0">#3498DB</tspan></text><text transform="translate(642 386)" fill="#fff" font-size="24" font-family="Poppins-Regular, Poppins"><tspan x="0" y="0">#2C3E50</tspan></text><text transform="translate(903 386)" fill="#fff" font-size="24" font-family="Poppins-Regular, Poppins"><tspan x="0" y="0">#BDC3C7</tspan></text><rect width="230" height="187" rx="3" transform="translate(586 419)" fill="#fbfdff"/><rect width="230" height="187" rx="3" transform="translate(846 419)" fill="#d93423"/><text transform="translate(644 587)" font-size="24" font-family="Poppins-Regular, Poppins"><tspan x="0" y="0">#FBFDFF</tspan></text><text transform="translate(905 587)" fill="#fff" font-size="24" font-family="Poppins-Regular, Poppins"><tspan x="0" y="0">#D93423</tspan></text></g></svg>