<svg xmlns="http://www.w3.org/2000/svg" xmlns:xlink="http://www.w3.org/1999/xlink" width="1365" height="521" viewBox="0 0 1365 521">
  <defs>
    <filter id="Rectangle_116" x="250.088" y="105.25" width="130" height="48" filterUnits="userSpaceOnUse">
      <feOffset dy="-3" input="SourceAlpha"/>
      <feGaussianBlur result="blur"/>
      <feFlood flood-opacity="0.161" result="color"/>
      <feComposite operator="out" in="SourceGraphic" in2="blur"/>
      <feComposite operator="in" in="color"/>
      <feComposite operator="in" in2="SourceGraphic"/>
    </filter>
    <filter id="Rectangle_116-2" x="391.088" y="105.25" width="141" height="48" filterUnits="userSpaceOnUse">
      <feOffset dy="-3" input="SourceAlpha"/>
      <feGaussianBlur result="blur-2"/>
      <feFlood flood-opacity="0.161" result="color-2"/>
      <feComposite operator="out" in="SourceGraphic" in2="blur-2"/>
      <feComposite operator="in" in="color-2"/>
      <feComposite operator="in" in2="SourceGraphic"/>
    </filter>
    <clipPath id="clip-components">
      <rect width="1365" height="521"/>
    </clipPath>
  </defs>
  <g id="components" clip-path="url(#clip-components)">
    <rect width="1365" height="521" fill="rgba(255,255,255,0)"/>
    <g id="buttons" transform="translate(111.588 -360)">
      <g id="solid-buttons-group" transform="translate(0 13)">
        <g id="selection-buttons" transform="translate(-5.176 28.748)">
          <g id="left-group">
            <g id="switch-button-group" transform="translate(0 28.252)">
              <g id="switch-button-components" transform="translate(0 -8.252)">
                <g id="Toggle_Switch" data-name="Toggle Switch" transform="translate(668.676 402.502)">
                  <rect id="Rectangle_149" data-name="Rectangle 149" width="38" height="22" rx="11" fill="#3498db"/>
                  <circle id="Ellipse_35" data-name="Ellipse 35" cx="9" cy="9" r="9" transform="translate(2 2)" fill="#fbfdff"/>
                  <line id="Line_128" data-name="Line 128" x2="6.063" y2="6.063" transform="translate(6.5 7.469)" fill="none" stroke="#fbfdff" stroke-linecap="round" stroke-width="2"/>
                  <line id="Line_129" data-name="Line 129" x1="6.063" y2="6.063" transform="translate(6.5 7.469)" fill="none" stroke="#fbfdff" stroke-linecap="round" stroke-width="2"/>
                  <line id="Line_130" data-name="Line 130" x1="6.063" y2="6.063" transform="translate(27.5 7.469)" fill="none" stroke="#fbfdff" stroke-linecap="round" stroke-width="2"/>
                  <line id="Line_131" data-name="Line 131" x2="2" y2="2.031" transform="translate(25.5 11.5)" fill="none" stroke="#fbfdff" stroke-linecap="round" stroke-width="2"/>
                </g>
                <g id="Toggle_Switch-2" data-name="Toggle Switch" transform="translate(769.676 402.502)">
                  <rect id="Rectangle_149-2" data-name="Rectangle 149" width="38" height="22" rx="11" fill="#afc9db"/>
                  <circle id="Ellipse_35-2" data-name="Ellipse 35" cx="9" cy="9" r="9" transform="translate(2 2)" fill="#83b8db"/>
                  <line id="Line_128-2" data-name="Line 128" x2="6.063" y2="6.063" transform="translate(6.5 7.469)" fill="none" stroke="rgba(251,253,255,0)" stroke-linecap="round" stroke-width="2"/>
                  <line id="Line_129-2" data-name="Line 129" x1="6.063" y2="6.063" transform="translate(6.5 7.469)" fill="none" stroke="rgba(251,253,255,0)" stroke-linecap="round" stroke-width="2"/>
                </g>
                <g id="Toggle_Switch-3" data-name="Toggle Switch" transform="translate(722.25 402.502)">
                  <rect id="Rectangle_149-3" data-name="Rectangle 149" width="38" height="22" rx="11" fill="#d93423"/>
                  <circle id="Ellipse_35-3" data-name="Ellipse 35" cx="9" cy="9" r="9" transform="translate(18 2)" fill="#fbfdff"/>
                  <line id="Line_128-3" data-name="Line 128" x2="6.063" y2="6.063" transform="translate(6.5 7.469)" fill="none" stroke="#fbfdff" stroke-linecap="round" stroke-width="2"/>
                  <line id="Line_129-3" data-name="Line 129" x1="6.063" y2="6.063" transform="translate(6.5 7.469)" fill="none" stroke="#fbfdff" stroke-linecap="round" stroke-width="2"/>
                  <line id="Line_130-2" data-name="Line 130" x1="6.063" y2="6.063" transform="translate(27.5 7.469)" fill="none" stroke="#fbfdff" stroke-linecap="round" stroke-width="2"/>
                  <line id="Line_131-2" data-name="Line 131" x2="2" y2="2.031" transform="translate(25.5 11.5)" fill="none" stroke="#fbfdff" stroke-linecap="round" stroke-width="2"/>
                </g>
                <g id="Toggle_Switch-4" data-name="Toggle Switch" transform="translate(823.25 402.502)">
                  <rect id="Rectangle_149-4" data-name="Rectangle 149" width="38" height="22" rx="11" fill="#d9b2ae"/>
                  <circle id="Ellipse_35-4" data-name="Ellipse 35" cx="9" cy="9" r="9" transform="translate(18 2)" fill="#d98a82"/>
                  <line id="Line_130-3" data-name="Line 130" x1="6.063" y2="6.063" transform="translate(27.5 7.469)" fill="none" stroke="rgba(251,253,255,0)" stroke-linecap="round" stroke-width="2"/>
                  <line id="Line_131-3" data-name="Line 131" x2="2" y2="2.031" transform="translate(25.5 11.5)" fill="none" stroke="rgba(251,253,255,0)" stroke-linecap="round" stroke-width="2"/>
                </g>
              </g>
              <text id="switch-button-title" transform="translate(668.676 383.25)" fill="rgba(0,0,0,0.7)" font-size="12" font-family="Roboto-Medium, Roboto" font-weight="500"><tspan x="0" y="0">SWITCH</tspan></text>
            </g>
            <g id="radio-button-group" transform="translate(0 23)">
              <g id="radio-button-component" transform="translate(0 0.502)">
                <g id="radio-button-unselected-active">
                  <g id="Rectangle_255" data-name="Rectangle 255" transform="translate(669 484)" fill="#f2faff" stroke="#429fdb" stroke-width="3">
                    <rect width="24" height="24" rx="12" stroke="none"/>
                    <rect x="1.5" y="1.5" width="21" height="21" rx="10.5" fill="none"/>
                  </g>
                </g>
                <g id="radio-button-selected-active" transform="translate(8)">
                  <g id="Rectangle_256" data-name="Rectangle 256" transform="translate(701 484)" fill="#f2faff" stroke="#429ddb" stroke-width="3">
                    <rect width="24" height="24" rx="12" stroke="none"/>
                    <rect x="1.5" y="1.5" width="21" height="21" rx="10.5" fill="none"/>
                  </g>
                  <rect id="Rectangle_257" data-name="Rectangle 257" width="14" height="14" rx="7" transform="translate(706 489)" fill="#429ddb"/>
                </g>
                <g id="radio-button-selected-inactive" transform="translate(88)">
                  <g id="Rectangle_256-2" data-name="Rectangle 256" transform="translate(701 484)" fill="#f2faff" stroke="#afc9db" stroke-width="3">
                    <rect width="24" height="24" rx="12" stroke="none"/>
                    <rect x="1.5" y="1.5" width="21" height="21" rx="10.5" fill="none"/>
                  </g>
                  <rect id="Rectangle_257-2" data-name="Rectangle 257" width="14" height="14" rx="7" transform="translate(706 489)" fill="#afc9db"/>
                </g>
                <g id="radio-button-unselected-inactive" transform="translate(48)">
                  <g id="Rectangle_256-3" data-name="Rectangle 256" transform="translate(701 484)" fill="#f2faff" stroke="#afc9db" stroke-width="3">
                    <rect width="24" height="24" rx="12" stroke="none"/>
                    <rect x="1.5" y="1.5" width="21" height="21" rx="10.5" fill="none"/>
                  </g>
                </g>
              </g>
              <text id="radio-button-title" transform="translate(668.676 473.502)" fill="rgba(0,0,0,0.7)" font-size="12" font-family="Roboto-Medium, Roboto" font-weight="500"><tspan x="0" y="0">RADIO</tspan></text>
            </g>
          </g>
          <g id="right-group">
            <g id="checkbox-button-group">
              <text id="checkbox-button-title" transform="translate(926 411.502)" fill="rgba(0,0,0,0.7)" font-size="12" font-family="Roboto-Medium, Roboto" font-weight="500"><tspan x="0" y="0">CHECKBOX</tspan></text>
              <g id="checkbox-button-component" transform="translate(-3)">
                <g id="checkbox-selected-active">
                  <g id="Rectangle_260" data-name="Rectangle 260" transform="translate(969 423)" fill="#3799db" stroke="#3799db" stroke-width="2">
                    <rect width="24" height="24" rx="2" stroke="none"/>
                    <rect x="1" y="1" width="22" height="22" rx="1" fill="none"/>
                  </g>
                  <line id="Line_151" data-name="Line 151" x2="4" y2="4" transform="translate(973.5 436.5)" fill="none" stroke="#cceaff" stroke-linecap="round" stroke-width="3"/>
                  <line id="Line_152" data-name="Line 152" x1="11" y2="11" transform="translate(977.5 429.5)" fill="none" stroke="#cceaff" stroke-linecap="round" stroke-width="3"/>
                </g>
                <g id="checkbox-inactive">
                  <rect id="Rectangle_261" data-name="Rectangle 261" width="24" height="24" rx="2" transform="translate(1009 423)" fill="#afc9db"/>
                  <line id="Line_154" data-name="Line 154" x2="4" y2="4" transform="translate(1013.5 436.5)" fill="none" stroke="#6cacd9" stroke-linecap="round" stroke-width="3"/>
                  <line id="Line_153" data-name="Line 153" x1="11" y2="11" transform="translate(1017.5 429.5)" fill="none" stroke="#6cacd9" stroke-linecap="round" stroke-width="3"/>
                </g>
                <g id="checkbox-unselected-active">
                  <g id="Rectangle_259" data-name="Rectangle 259" transform="translate(929 423)" fill="#f2faff" stroke="#3799db" stroke-width="2">
                    <rect width="24" height="24" rx="2" stroke="none"/>
                    <rect x="1" y="1" width="22" height="22" rx="1" fill="none"/>
                  </g>
                </g>
              </g>
            </g>
            <g id="selector-button-group" transform="translate(0 10)">
              <text id="selector-button-title" transform="translate(925.676 486.502)" fill="rgba(0,0,0,0.7)" font-size="12" font-family="Roboto-Medium, Roboto" font-weight="500"><tspan x="0" y="0">SELECTOR</tspan></text>
              <g id="selector-button-component">
                <g id="selector-button-selected">
                  <circle id="Ellipse_41" data-name="Ellipse 41" cx="12" cy="12" r="12" transform="translate(966 499)" fill="#3799db"/>
                  <line id="Line_157" data-name="Line 157" x2="3" y2="3" transform="translate(972 512.5)" fill="none" stroke="#cceaff" stroke-linecap="round" stroke-width="3"/>
                  <line id="Line_158" data-name="Line 158" x1="9" y2="9" transform="translate(975 506.5)" fill="none" stroke="#cceaff" stroke-linecap="round" stroke-width="3"/>
                </g>
                <g id="selector-button-unselected">
                  <g id="Ellipse_40" data-name="Ellipse 40" transform="translate(926 499)" fill="#e6f5ff" stroke="#3799db" stroke-width="3">
                    <circle cx="12" cy="12" r="12" stroke="none"/>
                    <circle cx="12" cy="12" r="10.5" fill="none"/>
                  </g>
                </g>
              </g>
            </g>
          </g>
        </g>
        <g id="Group_275" data-name="Group 275">
          <g id="button-components" transform="translate(0 16.211)">
            <g id="Button_Component" data-name="Button Component" transform="translate(138.5 436.039)">
              <g data-type="innerShadowGroup">
                <rect id="Rectangle_116-3" data-name="Rectangle 116" width="130" height="48" rx="3" fill="#3498db"/>
                <g transform="matrix(1, 0, 0, 1, -250.09, -105.25)" filter="url(#Rectangle_116)">
                  <rect id="Rectangle_116-4" data-name="Rectangle 116" width="130" height="48" rx="3" transform="translate(250.09 105.25)" fill="#fff"/>
                </g>
              </g>
              <text id="Default" transform="translate(36 31)" fill="rgba(255,255,255,0.98)" font-size="18" font-family="Roboto-Regular, Roboto"><tspan x="0" y="0">Default</tspan></text>
            </g>
            <g id="Button_Component-2" data-name="Button Component" transform="translate(279.5 436.039)">
              <g data-type="innerShadowGroup">
                <rect id="Rectangle_116-5" data-name="Rectangle 116" width="141" height="48" rx="3" fill="#f2faff"/>
                <g transform="matrix(1, 0, 0, 1, -391.09, -105.25)" filter="url(#Rectangle_116-2)">
                  <rect id="Rectangle_116-6" data-name="Rectangle 116" width="141" height="48" rx="3" transform="translate(391.09 105.25)" fill="#fff"/>
                </g>
              </g>
              <text id="Disabled" transform="translate(36 31)" fill="#73b7e6" font-size="18" font-family="Roboto-Regular, Roboto"><tspan x="0" y="0">Disabled</tspan></text>
            </g>
            <g id="Button_Component-3" data-name="Button Component" transform="translate(138.5 497.539)">
              <g id="Rectangle_25" data-name="Rectangle 25" fill="none" stroke="#3498db" stroke-width="2">
                <rect width="130" height="48" rx="3" stroke="none"/>
                <rect x="1" y="1" width="128" height="46" rx="2" fill="none"/>
              </g>
              <text id="Default-2" data-name="Default" transform="translate(36 31)" fill="#3498db" font-size="18" font-family="Roboto-Regular, Roboto"><tspan x="0" y="0">Default</tspan></text>
            </g>
            <g id="Button_Component-4" data-name="Button Component" transform="translate(279.5 497.539)">
              <g id="Rectangle_25-2" data-name="Rectangle 25" fill="none" stroke="#73b7e6" stroke-width="2">
                <rect width="141" height="48" rx="3" stroke="none"/>
                <rect x="1" y="1" width="139" height="46" rx="2" fill="none"/>
              </g>
              <text id="Disabled-2" data-name="Disabled" transform="translate(36 31)" fill="#73b7e6" font-size="18" font-family="Roboto-Regular, Roboto"><tspan x="0" y="0">Disabled</tspan></text>
            </g>
            <g id="Button_Component-5" data-name="Button Component" transform="translate(429.5 436.039)">
              <rect id="Rectangle_25-3" data-name="Rectangle 25" width="162" height="48" rx="3" fill="rgba(255,46,46,0.9)"/>
              <text id="Destructive" transform="translate(36 31)" fill="rgba(255,255,255,0.98)" font-size="18" font-family="Roboto-Regular, Roboto"><tspan x="0" y="0">Destructive</tspan></text>
            </g>
            <g id="Button_Component-6" data-name="Button Component" transform="translate(429.5 497.539)">
              <g id="Rectangle_25-4" data-name="Rectangle 25" fill="none" stroke="#fc3f3f" stroke-width="2">
                <rect width="162" height="48" rx="3" stroke="none"/>
                <rect x="1" y="1" width="160" height="46" rx="2" fill="none"/>
              </g>
              <text id="Destructive-2" data-name="Destructive" transform="translate(36 31)" fill="#fc3f3f" font-size="18" font-family="Roboto-Regular, Roboto"><tspan x="0" y="0">Destructive</tspan></text>
            </g>
          </g>
          <text id="solid-button-title" transform="translate(138.5 440.25)" fill="rgba(0,0,0,0.7)" font-size="12" font-family="Roboto-Medium, Roboto" font-weight="500"><tspan x="0" y="0">SOLID</tspan></text>
        </g>
      </g>
      <text id="button-title" transform="translate(138.5 411.25)" fill="rgba(0,0,0,0.7)" font-size="18" font-family="Roboto-Regular, Roboto"><tspan x="0" y="0">BUTTONS</tspan></text>
    </g>
    <g id="input-group" transform="translate(22.75 -336)">
      <g id="input-components">
        <g id="search-input" transform="translate(-67)">
          <rect id="Rectangle_17" data-name="Rectangle 17" width="361.3" height="44.038" rx="22.019" transform="translate(138.5 630.002)" fill="#e3f0f9"/>
          <path id="bx-search-alt-2" d="M19.2,17.928q-.668-.671-1.3-1.38c-.354-.377-.567-.651-.567-.651l-2.664-1.333A7.133,7.133,0,0,0,16.32,9.977,6.833,6.833,0,0,0,9.66,3,6.833,6.833,0,0,0,3,9.977a6.833,6.833,0,0,0,6.66,6.977,6.457,6.457,0,0,0,4.379-1.734l1.272,2.791s.262.223.622.594.853.851,1.317,1.362l1.292,1.388.575.644,2.018-2.114-.615-.6c-.361-.371-.842-.863-1.324-1.356ZM9.66,14.961A4.88,4.88,0,0,1,4.9,9.977,4.88,4.88,0,0,1,9.66,4.994a4.88,4.88,0,0,1,4.757,4.984A4.88,4.88,0,0,1,9.66,14.961Z" transform="translate(149.53 639.061)" fill="#174573"/>
          <text id="Search_Input" data-name="Search Input" transform="translate(187.8 642.002)" fill="#174573" font-size="14" font-family="Roboto-Regular, Roboto"><tspan x="0" y="15">Search Input</tspan></text>
        </g>
        <g id="search-input-2" data-name="search-input" transform="translate(319)">
          <rect id="Rectangle_17-2" data-name="Rectangle 17" width="209.3" height="44.038" rx="3" transform="translate(138.5 630.002)" fill="#e3f0f9"/>
          <g id="Group_274" data-name="Group 274" transform="translate(-7)">
            <text id="Input_With_Icon" data-name="Input With Icon" transform="translate(185 642.002)" fill="#174573" font-size="14" font-family="Roboto-Regular, Roboto"><tspan x="0" y="15">Input With Icon</tspan></text>
            <g id="bx-calendar" transform="translate(155 640)">
              <path id="Path_275" data-name="Path 275" d="M14,22h1.6v1.667H14Zm0,3.333h1.6V27H14ZM17.2,22h1.6v1.667H17.2Zm0,3.333h1.6V27H17.2ZM20.4,22H22v1.667H20.4Zm0,3.333H22V27H20.4Z" transform="translate(-4.057 -10.639)" fill="#174573"/>
              <path id="Path_276" data-name="Path 276" d="M7.778,20H20.222A1.7,1.7,0,0,0,22,18.4V7.2a1.7,1.7,0,0,0-1.778-1.6H18.444V4H16.667V5.6H11.333V4H9.556V5.6H7.778A1.7,1.7,0,0,0,6,7.2V18.4A1.7,1.7,0,0,0,7.778,20ZM20.222,8.8v9.6H7.778V8.8Z" fill="#174573"/>
            </g>
          </g>
        </g>
        <g id="error-input-message" transform="translate(319 71)">
          <g id="Rectangle_17-3" data-name="Rectangle 17" transform="translate(138.5 630.002)" fill="#f9f4f4" stroke="#fc3f3f" stroke-width="2">
            <rect width="209.3" height="44.038" rx="3" stroke="none"/>
            <rect x="1" y="1" width="207.3" height="42.038" rx="2" fill="none"/>
          </g>
          <g id="input" transform="translate(-8)">
            <text id="Error_Input" data-name="Error Input" transform="translate(161 642.002)" fill="#174573" font-size="14" font-family="Roboto-Regular, Roboto"><tspan x="0" y="15">Error Input</tspan></text>
          </g>
          <g id="error-message" transform="translate(-9 -4)">
            <text id="Error_Message_Goes_Here" data-name="Error Message Goes Here" transform="translate(163 682)" fill="#fc3f3f" font-size="8" font-family="Roboto-Regular, Roboto"><tspan x="0" y="8">Error Message Goes Here</tspan></text>
            <g id="urgent-icon">
              <path id="Polygon_2" data-name="Polygon 2" d="M5.5,0,11,8H0Z" transform="translate(148 683)" fill="#fc3f3f"/>
              <rect id="Rectangle_262" data-name="Rectangle 262" width="1" height="1" transform="translate(153 689)" fill="#fff"/>
              <rect id="Rectangle_263" data-name="Rectangle 263" width="1" height="3" transform="translate(153 685)" fill="#fff"/>
            </g>
          </g>
        </g>
        <g id="success-input-message" transform="translate(316 135.963)">
          <g id="Rectangle_17-4" data-name="Rectangle 17" transform="translate(138.5 630.002)" fill="#fcfffd" stroke="#47b364" stroke-width="2">
            <rect width="209.3" height="44.038" rx="3" stroke="none"/>
            <rect x="1" y="1" width="207.3" height="42.038" rx="2" fill="none"/>
          </g>
          <g id="input-2" data-name="input" transform="translate(-8)">
            <text id="Success_Input" data-name="Success Input" transform="translate(161 642.002)" fill="#174573" font-size="14" font-family="Roboto-Regular, Roboto"><tspan x="0" y="15">Success Input</tspan></text>
          </g>
          <g id="success-message" transform="translate(-9 -4)">
            <text id="Success_Message_Goes_Here" data-name="Success Message Goes Here" transform="translate(163.013 682)" fill="#47b364" font-size="8" font-family="Roboto-Regular, Roboto"><tspan x="0" y="8">Success Message Goes Here</tspan></text>
            <g id="checkmark" transform="translate(-378.549 -131.963)">
              <line id="Line_161" data-name="Line 161" x1="6.063" y2="6.063" transform="translate(531.5 815.719)" fill="none" stroke="#47b364" stroke-linecap="round" stroke-width="2"/>
              <line id="Line_162" data-name="Line 162" x2="2" y2="2.031" transform="translate(529.5 819.75)" fill="none" stroke="#47b364" stroke-linecap="round" stroke-width="2"/>
            </g>
          </g>
        </g>
        <g id="focused-input" transform="translate(-67)">
          <rect id="Rectangle_17-5" data-name="Rectangle 17" width="361.3" height="44" rx="3" transform="translate(138.5 698.002)" fill="#e3f0f9"/>
          <text id="Focused_Input" data-name="Focused Input" transform="translate(150.5 710.002)" fill="#8fa1b3" font-size="14" font-family="Roboto-Regular, Roboto"><tspan x="0" y="15">Focused Input</tspan></text>
          <g id="close-outline" transform="translate(479.749 715.977)">
            <path id="Path_127" data-name="Path 127" d="M18.176,18.176l-8.051-8.051" transform="translate(-10.125 -10.125)" fill="none" stroke="#2c3e50" stroke-linecap="round" stroke-linejoin="round" stroke-width="2"/>
            <path id="Path_128" data-name="Path 128" d="M18.176,10.125l-8.051,8.051" transform="translate(-10.125 -10.125)" fill="none" stroke="#2c3e50" stroke-linecap="round" stroke-linejoin="round" stroke-width="2"/>
          </g>
        </g>
        <g id="input-typed" transform="translate(-67)">
          <rect id="Rectangle_17-6" data-name="Rectangle 17" width="361.3" height="44" rx="3" transform="translate(138.5 765.965)" fill="#e3f0f9"/>
          <text id="Input-3" data-name="Input" transform="translate(150.5 777.965)" fill="#174573" font-size="14" font-family="Roboto-Regular, Roboto"><tspan x="0" y="15">Input</tspan></text>
          <g id="close-outline-2" data-name="close-outline" transform="translate(479.749 783.939)">
            <path id="Path_127-2" data-name="Path 127" d="M18.176,18.176l-8.051-8.051" transform="translate(-10.125 -10.125)" fill="none" stroke="#2c3e50" stroke-linecap="round" stroke-linejoin="round" stroke-width="2"/>
            <path id="Path_128-2" data-name="Path 128" d="M18.176,10.125l-8.051,8.051" transform="translate(-10.125 -10.125)" fill="none" stroke="#2c3e50" stroke-linecap="round" stroke-linejoin="round" stroke-width="2"/>
          </g>
        </g>
      </g>
      <text id="input-title" transform="translate(80.75 601.039)" fill="rgba(0,0,0,0.7)" font-size="18" font-family="Roboto-Regular, Roboto"><tspan x="0" y="0">INPUTS</tspan></text>
    </g>
    <text id="dropdown-title" transform="translate(755.5 269.75)" fill="rgba(0,0,0,0.7)" font-size="18" font-family="Roboto-Regular, Roboto"><tspan x="0" y="0">DROPDOWN</tspan></text>
    <g id="dropdown-menu-closed" transform="translate(34.75 -332)">
      <rect id="Rectangle_264" data-name="Rectangle 264" width="243" height="40" rx="3" transform="translate(721 632)" fill="#e3f0f9"/>
      <path id="Polygon_3" data-name="Polygon 3" d="M6,0l6,10H0Z" transform="translate(948 657) rotate(180)" fill="#3498db"/>
      <text id="Dropdown_Menu_Closed" data-name="Dropdown Menu Closed" transform="translate(737 659)" fill="#3498db" font-size="18" font-family="Roboto-Regular, Roboto"><tspan x="0" y="0">Dropdown Menu Closed</tspan></text>
    </g>
    <g id="dropdown-menu-open" transform="translate(22.75 -336)">
      <g id="dropdown-menu-box" transform="translate(284 4)">
        <rect id="Rectangle_264-2" data-name="Rectangle 264" width="243" height="40" rx="3" transform="translate(721 632)" fill="#e3f0f9"/>
        <path id="Polygon_3-2" data-name="Polygon 3" d="M6,0l6,10H0Z" transform="translate(936 647)" fill="#3498db"/>
        <text id="Dropdown_Menu_Closed-2" data-name="Dropdown Menu Closed" transform="translate(737 659)" fill="#3498db" font-size="18" font-family="Roboto-Regular, Roboto"><tspan x="0" y="0">Dropdown Menu Closed</tspan></text>
      </g>
      <g id="dropdown-menu-dropdown" transform="translate(0 -8)">
        <g id="dropdown-menu-container" transform="translate(7.338 110)">
          <rect id="Rectangle_265" data-name="Rectangle 265" width="242" height="51" transform="translate(998.662 676)" fill="#e3f0f9"/>
          <g id="dropdown-option">
            <text id="Dropdown_Option_2" data-name="Dropdown Option 2" transform="translate(1040 692)" fill="#3498db" font-size="14" font-family="Roboto-Regular, Roboto"><tspan x="0" y="15">Dropdown Option 2</tspan></text>
            <g id="radio-button-selected-active-2" data-name="radio-button-selected-active" transform="translate(1014.662 693.501)">
              <g id="Rectangle_256-4" data-name="Rectangle 256" fill="#f2faff" stroke="#429ddb" stroke-width="2">
                <rect width="16" height="16" rx="8" stroke="none"/>
                <rect x="1" y="1" width="14" height="14" rx="7" fill="none"/>
              </g>
            </g>
          </g>
        </g>
        <line id="Line_163" data-name="Line 163" x2="241" transform="translate(1006.5 786)" fill="none" stroke="#597080" stroke-width="1"/>
        <g id="dropdown-menu-container-2" data-name="dropdown-menu-container" transform="translate(7.338 59)">
          <rect id="Rectangle_265-2" data-name="Rectangle 265" width="242" height="51" transform="translate(998.662 676)" fill="#e3f0f9"/>
          <g id="dropdown-option-2" data-name="dropdown-option">
            <text id="Dropdown_Option_2-2" data-name="Dropdown Option 2" transform="translate(1040 692)" fill="#3498db" font-size="14" font-family="Roboto-Regular, Roboto"><tspan x="0" y="15">Dropdown Option 2</tspan></text>
            <g id="radio-button-selected-active-3" data-name="radio-button-selected-active" transform="translate(1014.662 693.501)">
              <g id="Rectangle_256-5" data-name="Rectangle 256" fill="#f2faff" stroke="#429ddb" stroke-width="2">
                <rect width="16" height="16" rx="8" stroke="none"/>
                <rect x="1" y="1" width="14" height="14" rx="7" fill="none"/>
              </g>
            </g>
          </g>
        </g>
        <line id="Line_164" data-name="Line 164" x2="241" transform="translate(1006.5 735)" fill="none" stroke="#597080" stroke-width="1"/>
        <g id="dropdown-menu-container-3" data-name="dropdown-menu-container" transform="translate(7.338 8)">
          <path id="Rectangle_265-3" data-name="Rectangle 265" d="M3,0H239a3,3,0,0,1,3,3V51a0,0,0,0,1,0,0H0a0,0,0,0,1,0,0V3A3,3,0,0,1,3,0Z" transform="translate(998.662 676)" fill="#e3f0f9"/>
          <g id="dropdown-option-3" data-name="dropdown-option">
            <text id="Dropdown_Option_1" data-name="Dropdown Option 1" transform="translate(1040 692)" fill="#3498db" font-size="14" font-family="Roboto-Regular, Roboto"><tspan x="0" y="15">Dropdown Option 1</tspan></text>
            <g id="radio-button-selected-active-4" data-name="radio-button-selected-active" transform="translate(1014.662 693.501)">
              <g id="Rectangle_256-6" data-name="Rectangle 256" fill="#f2faff" stroke="#429ddb" stroke-width="2">
                <rect width="16" height="16" rx="8" stroke="none"/>
                <rect x="1" y="1" width="14" height="14" rx="7" fill="none"/>
              </g>
              <rect id="Rectangle_257-3" data-name="Rectangle 257" width="8.798" height="8.798" rx="4.399" transform="translate(3.601 3.6)" fill="#429ddb"/>
            </g>
          </g>
        </g>
      </g>
    </g>
  </g>
</svg>
