<svg xmlns="http://www.w3.org/2000/svg" xmlns:xlink="http://www.w3.org/1999/xlink" width="1258" height="765" viewBox="0 0 1258 765"><defs><filter id="a" x="424.256" y="274.074" width="405.488" height="468.352" filterUnits="userSpaceOnUse"><feOffset dy="3" input="SourceAlpha"/><feGaussianBlur stdDeviation="5" result="b"/><feFlood flood-opacity="0.2"/><feComposite operator="in" in2="b"/><feComposite in="SourceGraphic"/></filter><clipPath id="c"><rect x="-4" y="8" width="343.906" height="72" fill="none"/></clipPath><clipPath id="d"><rect width="649" height="72" fill="none"/></clipPath><filter id="e" x="515.92" y="388.074" width="205.82" height="99.5" filterUnits="userSpaceOnUse"><feOffset dy="3" input="SourceAlpha"/><feGaussianBlur stdDeviation="3" result="f"/><feFlood flood-opacity="0.161"/><feComposite operator="in" in2="f"/><feComposite in="SourceGraphic"/></filter><clipPath id="h"><rect width="1258" height="765"/></clipPath></defs><g id="g" clip-path="url(#h)"><rect width="1258" height="765" fill="rgba(255,255,255,0)"/><g transform="translate(-100)"><text transform="translate(553 105)" font-size="32" font-family="Roboto-Medium, Roboto" font-weight="500"><tspan x="0" y="0">Grid and Hierarchy Layout</tspan></text><line x2="1198" transform="translate(138.5 134.5)" fill="none" stroke="#333" stroke-linecap="round" stroke-width="2"/></g><g transform="translate(439.256 79.555)"><g transform="translate(0 -28.001)"><g transform="matrix(1, 0, 0, 1, -439.26, -51.55)" filter="url(#a)"><rect width="375.488" height="438.352" transform="translate(439.26 286.07)" fill="#fbfdff"/></g><g transform="translate(0 -0.001)"><g transform="translate(0 -16.999)"><g transform="translate(19 585.873)" clip-path="url(#c)" style="isolation:isolate"><g transform="translate(0 8)" clip-path="url(#d)"><g transform="translate(-165 -548.146)"><g transform="translate(168.744 548.146)"><text transform="translate(0 51)" fill="#2c3e50" font-size="14" font-family="Roboto-Medium, Roboto" font-weight="500"><tspan x="7.384" y="15">72°</tspan></text><g transform="translate(6 23)"><g transform="translate(0 -2.25)"><path d="M16.911,28.146H5.272a5.571,5.571,0,0,1-3.657-1.2A4.826,4.826,0,0,1,0,23.119a4.748,4.748,0,0,1,1.449-3.533,5.629,5.629,0,0,1,2.934-1.417s0,0,0,0a8.676,8.676,0,0,1,2.5-5.052,6.747,6.747,0,0,1,4.65-1.864A6.371,6.371,0,0,1,15.6,12.684a7.455,7.455,0,0,1,2.1,2.809.807.807,0,0,0,.557.475,6.357,6.357,0,0,1,3.241,1.8,6.006,6.006,0,0,1,1.579,4.214,6.116,6.116,0,0,1-1.841,4.463A6.18,6.18,0,0,1,16.911,28.146ZM17.856,15.887Z" transform="translate(0 -1.896)" fill="#a5a5a5"/><path d="M26.911,14.8a11.686,11.686,0,0,1,2.328.928.282.282,0,0,0,.235.013.258.258,0,0,0,.155-.167,5.793,5.793,0,0,0,.236-1.684,6.279,6.279,0,0,0-6.423-6.014c-2.352.022-3.1.943-4.18,1.658h0a.208.208,0,0,0-.092.209.218.218,0,0,0,.159.17,16.554,16.554,0,0,1,3.926,1.1,11.192,11.192,0,0,1,3.035,3.314,1.063,1.063,0,0,0,.626.47Z" transform="translate(-8.168 -2.145)" fill="#f9e773"/><path d="M23.367,5.47a.838.838,0,0,1-.867-.8V3.055a.87.87,0,0,1,1.734,0v1.61A.838.838,0,0,1,23.367,5.47Z" transform="translate(-6.086)" fill="#f9e773"/><path d="M23.339,5.514A.828.828,0,0,1,22.5,4.7V3.066a.84.84,0,0,1,1.678,0V4.7A.828.828,0,0,1,23.339,5.514Z" transform="translate(9.6 -14.523) rotate(50)" fill="#f9e773"/><path d="M23.136,4.241a.58.58,0,0,1-.636-.5v-1a.655.655,0,0,1,1.272,0v1A.58.58,0,0,1,23.136,4.241Z" transform="translate(18.71 -12.741) rotate(72)" fill="#f9e773"/><path d="M23.191,5.25A.722.722,0,0,1,22.5,4.5V3a.693.693,0,1,1,1.382,0V4.5A.722.722,0,0,1,23.191,5.25Z" transform="translate(-9.411 12.94) rotate(-31)" fill="#f9e773"/></g></g><text transform="translate(0 15)" fill="#2c3e50" font-size="14" font-family="Roboto-Medium, Roboto" font-weight="500"><tspan x="0" y="0">12pm</tspan></text></g></g><g transform="translate(-105 -548.146)"><g transform="translate(166.744 548.146)"><text transform="translate(0 51)" fill="#2c3e50" font-size="14" font-family="Roboto-Medium, Roboto" font-weight="500"><tspan x="7.384" y="15">71°</tspan></text><g transform="translate(6 23)"><rect width="24" height="24" fill="rgba(255,255,255,0)"/><g transform="translate(-1491.68 -270.126)"><path d="M20.591,7.866A8.692,8.692,0,0,0,18.214,3.3a7.087,7.087,0,0,0-6.7-1.983A7.882,7.882,0,0,0,6.14,6.19a5.718,5.718,0,0,0-5.015,5.936c0,3.279,2.392,5.947,5.332,5.947H20.515a4.849,4.849,0,0,0,4.609-5.062,4.871,4.871,0,0,0-4.534-5.146Z" transform="translate(1490.555 272.526)" fill="#a5a5a5"/></g></g><text fill="#2c3e50" font-size="14" font-family="Roboto-Medium, Roboto" font-weight="500"><tspan x="3.99" y="15">1pm</tspan></text></g></g><g transform="translate(-45 -548.146)"><g transform="translate(166.744 548.146)"><text transform="translate(0 51)" fill="#2c3e50" font-size="14" font-family="Roboto-Medium, Roboto" font-weight="500"><tspan x="7.384" y="15">69°</tspan></text><g transform="translate(6 23)"><rect width="24" height="24" fill="rgba(255,255,255,0)"/><g transform="translate(-1491.68 -270.126)"><path d="M20.591,7.866A8.692,8.692,0,0,0,18.214,3.3a7.087,7.087,0,0,0-6.7-1.983A7.882,7.882,0,0,0,6.14,6.19a5.718,5.718,0,0,0-5.015,5.936c0,3.279,2.392,5.947,5.332,5.947H20.515a4.849,4.849,0,0,0,4.609-5.062,4.871,4.871,0,0,0-4.534-5.146Z" transform="translate(1490.555 272.526)" fill="#a5a5a5"/></g></g><text fill="#2c3e50" font-size="14" font-family="Roboto-Medium, Roboto" font-weight="500"><tspan x="3.99" y="15">2pm</tspan></text></g></g><g transform="translate(15 -548.146)"><g transform="translate(166.744 548.146)"><text transform="translate(0 51)" fill="#2c3e50" font-size="14" font-family="Roboto-Medium, Roboto" font-weight="500"><tspan x="7.384" y="15">67°</tspan></text><g transform="translate(6 23)"><rect width="24" height="24" fill="rgba(255,255,255,0)"/><g transform="translate(-1491.68 -270.126)"><path d="M20.591,7.866A8.692,8.692,0,0,0,18.214,3.3a7.087,7.087,0,0,0-6.7-1.983A7.882,7.882,0,0,0,6.14,6.19a5.718,5.718,0,0,0-5.015,5.936c0,3.279,2.392,5.947,5.332,5.947H20.515a4.849,4.849,0,0,0,4.609-5.062,4.871,4.871,0,0,0-4.534-5.146Z" transform="translate(1490.555 272.526)" fill="#a5a5a5"/></g></g><text fill="#2c3e50" font-size="14" font-family="Roboto-Medium, Roboto" font-weight="500"><tspan x="3.99" y="15">3pm</tspan></text></g></g><g transform="translate(75 -548.146)"><g transform="translate(166.744 548.146)"><text transform="translate(0 51)" fill="#2c3e50" font-size="14" font-family="Roboto-Medium, Roboto" font-weight="500"><tspan x="7.384" y="15">67°</tspan></text><g transform="translate(6 23)"><rect width="24" height="24" fill="rgba(255,255,255,0)"/><g transform="translate(-1491.68 -270.126)"><path d="M20.591,7.866A8.692,8.692,0,0,0,18.214,3.3a7.087,7.087,0,0,0-6.7-1.983A7.882,7.882,0,0,0,6.14,6.19a5.718,5.718,0,0,0-5.015,5.936c0,3.279,2.392,5.947,5.332,5.947H20.515a4.849,4.849,0,0,0,4.609-5.062,4.871,4.871,0,0,0-4.534-5.146Z" transform="translate(1490.555 272.526)" fill="#a5a5a5"/></g></g><text fill="#2c3e50" font-size="14" font-family="Roboto-Medium, Roboto" font-weight="500"><tspan x="3.99" y="15">4pm</tspan></text></g></g><g transform="translate(135 -548.146)"><g transform="translate(166.744 548.146)"><text transform="translate(0 51)" fill="#2c3e50" font-size="14" font-family="Roboto-Medium, Roboto" font-weight="500"><tspan x="7.384" y="15">65°</tspan></text><g transform="translate(6 23)"><rect width="24" height="24" fill="rgba(255,255,255,0)"/><g transform="translate(-1491.68 -270.126)"><path d="M20.591,7.866A8.692,8.692,0,0,0,18.214,3.3a7.087,7.087,0,0,0-6.7-1.983A7.882,7.882,0,0,0,6.14,6.19a5.718,5.718,0,0,0-5.015,5.936c0,3.279,2.392,5.947,5.332,5.947H20.515a4.849,4.849,0,0,0,4.609-5.062,4.871,4.871,0,0,0-4.534-5.146Z" transform="translate(1490.555 272.526)" fill="#a5a5a5"/></g></g><text fill="#2c3e50" font-size="14" font-family="Roboto-Medium, Roboto" font-weight="500"><tspan x="3.99" y="15">5pm</tspan></text></g></g><g transform="translate(195 -548.146)"><g transform="translate(165 548.146)"><text transform="translate(3 66)" fill="#2c3e50" font-size="14" font-family="Roboto-Medium, Roboto" font-weight="500"><tspan x="0" y="0">64°</tspan></text><g transform="translate(0 23)"><rect width="24" height="24" fill="rgba(255,255,255,0)"/><g transform="translate(-1491.68 -270.126)"><path d="M20.591,7.866A8.692,8.692,0,0,0,18.214,3.3a7.087,7.087,0,0,0-6.7-1.983A7.882,7.882,0,0,0,6.14,6.19a5.718,5.718,0,0,0-5.015,5.936c0,3.279,2.392,5.947,5.332,5.947H20.515a4.849,4.849,0,0,0,4.609-5.062,4.871,4.871,0,0,0-4.534-5.146Z" transform="translate(1490.555 272.526)" fill="#a5a5a5"/></g></g><text transform="translate(0 15)" fill="#2c3e50" font-size="14" font-family="Roboto-Medium, Roboto" font-weight="500"><tspan x="0" y="0">6pm</tspan></text></g></g><g transform="translate(255 -548.146)"><g transform="translate(165 548.146)"><text transform="translate(3 66)" fill="#2c3e50" font-size="14" font-family="Roboto-Medium, Roboto" font-weight="500"><tspan x="0" y="0">63°</tspan></text><g transform="translate(0 23)"><rect width="24" height="24" fill="rgba(255,255,255,0)"/><g transform="translate(-1491.68 -270.126)"><path d="M20.591,7.866A8.692,8.692,0,0,0,18.214,3.3a7.087,7.087,0,0,0-6.7-1.983A7.882,7.882,0,0,0,6.14,6.19a5.718,5.718,0,0,0-5.015,5.936c0,3.279,2.392,5.947,5.332,5.947H20.515a4.849,4.849,0,0,0,4.609-5.062,4.871,4.871,0,0,0-4.534-5.146Z" transform="translate(1490.555 272.526)" fill="#a5a5a5"/></g></g><text transform="translate(0 15)" fill="#2c3e50" font-size="14" font-family="Roboto-Medium, Roboto" font-weight="500"><tspan x="0" y="0">7pm</tspan></text></g></g><g transform="translate(315 -548.146)"><g transform="translate(165 548.146)"><text transform="translate(3 66)" fill="#2c3e50" font-size="14" font-family="Roboto-Medium, Roboto" font-weight="500"><tspan x="0" y="0">58°</tspan></text><g transform="translate(0 23)"><rect width="24" height="24" fill="rgba(255,255,255,0)"/><g transform="translate(-1491.68 -270.126)"><path d="M20.591,7.866A8.692,8.692,0,0,0,18.214,3.3a7.087,7.087,0,0,0-6.7-1.983A7.882,7.882,0,0,0,6.14,6.19a5.718,5.718,0,0,0-5.015,5.936c0,3.279,2.392,5.947,5.332,5.947H20.515a4.849,4.849,0,0,0,4.609-5.062,4.871,4.871,0,0,0-4.534-5.146Z" transform="translate(1490.555 272.526)" fill="#a5a5a5"/></g></g><text transform="translate(0 15)" fill="#2c3e50" font-size="14" font-family="Roboto-Medium, Roboto" font-weight="500"><tspan x="0" y="0">8pm</tspan></text></g></g><g transform="translate(375 -548.146)"><g transform="translate(165 548.146)"><text transform="translate(3 66)" fill="#2c3e50" font-size="14" font-family="Roboto-Medium, Roboto" font-weight="500"><tspan x="0" y="0">58°</tspan></text><g transform="translate(0 23)"><rect width="24" height="24" fill="rgba(255,255,255,0)"/><g transform="translate(-1491.68 -270.126)"><path d="M20.591,7.866A8.692,8.692,0,0,0,18.214,3.3a7.087,7.087,0,0,0-6.7-1.983A7.882,7.882,0,0,0,6.14,6.19a5.718,5.718,0,0,0-5.015,5.936c0,3.279,2.392,5.947,5.332,5.947H20.515a4.849,4.849,0,0,0,4.609-5.062,4.871,4.871,0,0,0-4.534-5.146Z" transform="translate(1490.555 272.526)" fill="#a5a5a5"/></g></g><text transform="translate(0 15)" fill="#2c3e50" font-size="14" font-family="Roboto-Medium, Roboto" font-weight="500"><tspan x="0" y="0">9pm</tspan></text></g></g><g transform="translate(435 -548.146)"><g transform="translate(164.744 548.146)"><text transform="translate(8 66)" fill="#2c3e50" font-size="14" font-family="Roboto-Medium, Roboto" font-weight="500"><tspan x="0" y="0">58°</tspan></text><g transform="translate(6 23)"><rect width="24" height="24" fill="rgba(255,255,255,0)"/><g transform="translate(-1491.68 -270.126)"><path d="M20.591,7.866A8.692,8.692,0,0,0,18.214,3.3a7.087,7.087,0,0,0-6.7-1.983A7.882,7.882,0,0,0,6.14,6.19a5.718,5.718,0,0,0-5.015,5.936c0,3.279,2.392,5.947,5.332,5.947H20.515a4.849,4.849,0,0,0,4.609-5.062,4.871,4.871,0,0,0-4.534-5.146Z" transform="translate(1490.555 272.526)" fill="#a5a5a5"/></g></g><text transform="translate(0 15)" fill="#2c3e50" font-size="14" font-family="Roboto-Medium, Roboto" font-weight="500"><tspan x="0" y="0">10pm</tspan></text></g></g></g></g><g transform="translate(15 20633.873)"><text transform="translate(0 -20052)" fill="#2c3e50" font-size="14" font-family="Roboto-Medium, Roboto" font-weight="500"><tspan x="0" y="0">Hourly Forecast</tspan></text><line x2="227.988" y2="0.023" transform="translate(117.5 -20057.5)" fill="none" stroke="rgba(52,152,219,0.5)" stroke-width="2"/></g></g><g transform="translate(-25.546 506.725)" opacity="0.9"><g transform="translate(40.026)"><text transform="translate(272.251 15)" fill="#2c3e50" font-size="14" font-family="Roboto-Medium, Roboto" font-weight="500"><tspan x="0" y="0">753mb</tspan></text><path d="M0,7.922A7.762,7.762,0,0,1,.629,4.839,7.863,7.863,0,0,1,2.323,2.313,8.077,8.077,0,0,1,4.854.629,7.822,7.822,0,0,1,11,.629a7.8,7.8,0,0,1,4.215,4.215,7.739,7.739,0,0,1,.629,3.079,7.588,7.588,0,0,1-1.557,4.691,7.808,7.808,0,0,1-4.012,2.826V19H5.691V15.48a7.764,7.764,0,0,1-4.1-2.82A7.611,7.611,0,0,1,0,7.922Zm1.745,0a5.863,5.863,0,0,0,1.826,4.321,5.915,5.915,0,0,0,4.352,1.816A6.189,6.189,0,0,0,13.279,11a6.084,6.084,0,0,0,.34-5.467A6.207,6.207,0,0,0,12.3,3.566a6.289,6.289,0,0,0-1.978-1.319,6.061,6.061,0,0,0-4.784,0A6.322,6.322,0,0,0,3.561,3.566,6.183,6.183,0,0,0,2.237,5.534,6,6,0,0,0,1.745,7.922Zm.629.385V7.527H4.717v.781ZM3.551,4.483l.568-.558L5.762,5.569,5.2,6.137ZM6.29,9.819a1.652,1.652,0,0,1,.472-1.177,1.593,1.593,0,0,1,1.151-.517l2.952-4.859.71.375L9.393,8.866a1.72,1.72,0,0,1-.213,2.156,1.648,1.648,0,0,1-1.207.491A1.68,1.68,0,0,1,6.29,9.819ZM7.71,4.767V2.425h.751V4.768H7.71ZM10.885,8.3V7.5h2.343v.8Z" transform="translate(244.406)" fill="#3498db"/></g><g transform="translate(26.025)"><text transform="translate(200.407 15)" fill="#2c3e50" font-size="14" font-family="Roboto-Medium, Roboto" font-weight="500"><tspan x="0" y="0">35%</tspan></text><path d="M0,7.718A3.72,3.72,0,0,1,.659,5.959,14.365,14.365,0,0,1,1.921,4.152q.163-.2.407-.481t.277-.318L3.24,4.1A10.669,10.669,0,0,1,4.56,5.959a3.778,3.778,0,0,1,.6,1.758,2.551,2.551,0,0,1-.741,1.84,2.434,2.434,0,0,1-1.816.766,2.5,2.5,0,0,1-1.84-.765A2.516,2.516,0,0,1,0,7.718Zm5.422,7.213a4.6,4.6,0,0,1,.424-1.75,9.207,9.207,0,0,1,1.041-1.848,22.127,22.127,0,0,1,2.28-2.654,5,5,0,0,0,.456-.424l.44.424a23.178,23.178,0,0,1,2.3,2.638,9.069,9.069,0,0,1,1.083,1.872,4.509,4.509,0,0,1,.414,1.742,4.158,4.158,0,0,1-4.233,4.217,4.027,4.027,0,0,1-2.98-1.238A4.089,4.089,0,0,1,5.422,14.931ZM8.06,2.947Q8.06,1.824,9.8,0l.44.489a7.541,7.541,0,0,1,.879,1.278,2.605,2.605,0,0,1,.391,1.181,1.6,1.6,0,0,1-.5,1.2A1.675,1.675,0,0,1,9.8,4.624a1.72,1.72,0,0,1-1.246-.481,1.594,1.594,0,0,1-.5-1.2Z" transform="translate(174.551 0)" fill="#3498db"/></g><path d="M0,9.113a1.1,1.1,0,0,1,.283-.787,1.183,1.183,0,0,1,.85-.3,1.064,1.064,0,0,1,.787.3l6.5,6.5V12.733A1.1,1.1,0,0,1,9.554,11.6a1.068,1.068,0,0,1,.8.33,1.106,1.106,0,0,1,.323.8V17.55a1.1,1.1,0,0,1-.323.811,1.081,1.081,0,0,1-.8.323H4.738a1.081,1.081,0,0,1-.8-.323,1.1,1.1,0,0,1-.323-.811,1.053,1.053,0,0,1,.323-.787,1.1,1.1,0,0,1,.8-.314H6.815L.283,9.932A1.214,1.214,0,0,1,0,9.113Z" transform="translate(157.904 -2.789)" fill="#3498db"/><text transform="translate(98.904 15)" fill="#2c3e50" font-size="14" font-family="Roboto-Medium, Roboto" font-weight="500"><tspan x="0" y="0">20 mph</tspan></text><g transform="translate(-1501.267 0.903)"><path d="M2481.682-2338.475h.72c3.893,0,7.714.1,9.233,0s2.96-.6,3.466-2.062a2.787,2.787,0,0,0-.879-3.4,4,4,0,0,0-2.587-.5c-1.5.2-2.474,1.22-2.072,2.528s2.3,1.155,3.032.436" transform="translate(-913.353 2344.479)" fill="none" stroke="#3498db" stroke-linecap="round" stroke-width="1.5"/><path d="M2471.613-2339.291c19.961-.044,16.782.1,18.11,0s2.64-.771,2.781-1.99.172-1.984-.594-2.828a2.662,2.662,0,0,0-2.187-.6,1.723,1.723,0,0,0-1.562,2.3,1.194,1.194,0,0,0,2.092.571" transform="translate(-904.411 2348.57)" fill="none" stroke="#3498db" stroke-linecap="round" stroke-width="1.5"/><path d="M2463.928-2343.784c16.092.074,13.817-.15,15.5-.021a3.878,3.878,0,0,1,2.68,1.1c.141.2.781.8.359,2.563s-2.4,1.833-3.223,1.7a2.141,2.141,0,0,1-1.9-2,1.33,1.33,0,0,1,2.281-.943" transform="translate(-896.727 2355.594)" fill="none" stroke="#3498db" stroke-linecap="round" stroke-width="1.5"/></g></g><g transform="translate(34.453 440.021)"><rect width="305" height="42.704" rx="1" fill="#d93423"/><g transform="translate(36.273 12)"><text transform="translate(42 1)" fill="rgba(255,255,255,0.9)" font-size="16" font-family="ArialMT, Arial"><tspan x="0" y="14">Hurricane Approaching</tspan></text><path d="M24.136,2.586a.815.815,0,0,0-.676-.336H3.035a.816.816,0,0,0-.675.335.611.611,0,0,0-.016.678L12.556,20.418a.884.884,0,0,0,1.382,0L24.151,3.263a.612.612,0,0,0-.015-.678ZM12.363,4.306H14.13v6.852H12.363Zm.885,10.963a1.111,1.111,0,0,1-1.179-1.028,1.111,1.111,0,0,1,1.179-1.028,1.111,1.111,0,0,1,1.179,1.028A1.111,1.111,0,0,1,13.248,15.268Z" transform="translate(-2.249 -2.25)" fill="rgba(255,255,255,0.9)"/></g><path d="M6,0l6,8H0Z" transform="translate(268.791 25.652) rotate(180)" fill="rgba(255,255,255,0.95)"/></g><g transform="translate(48.549 64.777)"><g transform="matrix(1, 0, 0, 1, -487.8, -116.33)" filter="url(#e)"><rect width="187.82" height="81.5" transform="translate(524.92 394.07)" fill="#fff"/></g><g transform="translate(128.002 280.244)"><text transform="translate(1.113)" fill="#2c3e50" font-size="60" font-family="Roboto-Bold, Roboto" font-weight="700"><tspan x="0" y="63">74</tspan></text><path d="M0,6.426A3.663,3.663,0,0,1,1.025,3.819,3.269,3.269,0,0,1,3.486,2.733,3.219,3.219,0,0,1,5.921,3.819,3.679,3.679,0,0,1,6.936,6.426,3.723,3.723,0,0,1,5.921,9.044a3.2,3.2,0,0,1-2.435,1.095A3.262,3.262,0,0,1,1.033,9.044,3.688,3.688,0,0,1,0,6.426Zm1.689,0A1.9,1.9,0,0,0,2.21,7.778a1.71,1.71,0,0,0,2.551,0A1.9,1.9,0,0,0,5.3,6.426a1.871,1.871,0,0,0-.539-1.342,1.707,1.707,0,0,0-1.276-.561,1.687,1.687,0,0,0-1.276.552,1.9,1.9,0,0,0-.521,1.352Zm8.464,13.993a1.059,1.059,0,0,0,.3.752.958.958,0,0,0,1.419,0,1.053,1.053,0,0,0,.3-.752V12.729h5.48a.931.931,0,0,0,.71-.324,1.088,1.088,0,0,0,.3-.762,1.066,1.066,0,0,0-.288-.762.947.947,0,0,0-.719-.3h-5.48V5.037H19.5a.873.873,0,0,0,.683-.3,1.1,1.1,0,0,0,.269-.762,1.113,1.113,0,0,0-.269-.762.87.87,0,0,0-.683-.3H10.35q-.2,0-.2.228V20.419Z" transform="translate(76.484 18.014)" fill="#2c3e50"/></g><g transform="translate(29 271.244)"><text transform="translate(8.115 79)" fill="#2c3e50" font-size="20" font-family="Roboto-Medium, Roboto" font-weight="500"><tspan x="0" y="0">Overcast</tspan></text><g transform="translate(20.092 6.5)"><rect width="56" height="51" transform="translate(1.381)" fill="rgba(255,255,255,0)"/><g transform="translate(0 2.191)"><path d="M40.359,42.42H12.582a15.988,15.988,0,0,1-8.728-2.205A8.119,8.119,0,0,1,0,33.147a7.907,7.907,0,0,1,3.459-6.518,15.308,15.308,0,0,1,7-2.614c.007,0,.01,0,.01-.006a15.057,15.057,0,0,1,5.971-9.32,18.884,18.884,0,0,1,11.1-3.438,18.171,18.171,0,0,1,9.7,2.646,14.71,14.71,0,0,1,5.007,5.183,1.869,1.869,0,0,0,1.329.877,16.777,16.777,0,0,1,7.735,3.312,9.807,9.807,0,0,1,3.768,7.774,10.186,10.186,0,0,1-4.393,8.233A17.318,17.318,0,0,1,40.359,42.42ZM42.614,19.8Z" transform="translate(0 2.364)" fill="#a5a5a5"/><path d="M28.6,16.834a14.3,14.3,0,0,1,8.683,3.848.282.282,0,0,0,.235.013.258.258,0,0,0,.155-.167,5.793,5.793,0,0,0,.236-1.684c.4-16.085-14.353-15.865-17.836-14.806a18.593,18.593,0,0,0-6.186,3.356h0a.208.208,0,0,0-.092.209.218.218,0,0,0,.159.17c5.455.475,7.59,1.594,9.963,3.254,1.238.9,3.3,4.053,4.061,5.339a1.062,1.062,0,0,0,.626.47Z" transform="translate(15.213 4.467)" fill="#f9e773"/><path d="M1.8,6.668A1.735,1.735,0,0,1,0,5V1.667A1.735,1.735,0,0,1,1.8,0a1.735,1.735,0,0,1,1.8,1.667V5A1.735,1.735,0,0,1,1.8,6.668Z" transform="translate(41.486 0) rotate(7)" fill="#f9e773"/><path d="M1.63,6.34A1.608,1.608,0,0,1,0,4.755V1.585A1.608,1.608,0,0,1,1.63,0,1.608,1.608,0,0,1,3.26,1.585v3.17A1.608,1.608,0,0,1,1.63,6.34Z" transform="matrix(0.545, 0.839, -0.839, 0.545, 56.184, 6.368)" fill="#f9e773"/><path d="M1.6,6.782A1.648,1.648,0,0,1,0,5.087V1.7A1.648,1.648,0,0,1,1.6,0a1.648,1.648,0,0,1,1.6,1.7V5.087A1.648,1.648,0,0,1,1.6,6.782Z" transform="matrix(0.07, 0.998, -0.998, 0.07, 60.895, 19.013)" fill="#f9e773"/><path d="M1.907,8.276A1.993,1.993,0,0,1,0,6.207V2.069A1.993,1.993,0,0,1,1.907,0,1.993,1.993,0,0,1,3.813,2.069V6.207A1.993,1.993,0,0,1,1.907,8.276Z" transform="translate(26.363 2.369) rotate(-31)" fill="#f9e773"/></g></g></g></g><g transform="translate(16 74.521)"><g transform="translate(1.398 26)"><text transform="translate(117.783 213)" fill="#2c3e50" font-size="20" font-family="Roboto-Medium, Roboto" font-weight="500"><tspan x="0" y="0">11:54am</tspan></text><text transform="translate(-0.217 213)" fill="#2c3e50" font-size="20" font-family="Roboto-Medium, Roboto" font-weight="500"><tspan x="0" y="0">Tuesday, 27</tspan></text></g><g transform="translate(-37 103)"><text transform="translate(72.777 102)" fill="#2c3e50" font-size="20" font-family="Roboto-Medium, Roboto" font-weight="500"><tspan x="0" y="0">Pine Buff, AR</tspan></text><g transform="translate(34 81.545)"><path d="M20.4,16.2A4.2,4.2,0,1,1,16.2,12,4.2,4.2,0,0,1,20.4,16.2Z" transform="translate(-1.311 -4.816)" fill="#2c3e50"/><path d="M16.078,5.356V3H13.7V5.355a9.328,9.328,0,0,0-8.24,7.89H3v2.277H5.459a9.326,9.326,0,0,0,8.24,7.89v2.355h2.378V23.413a9.325,9.325,0,0,0,8.24-7.89h2.459V13.245H24.318a9.326,9.326,0,0,0-8.24-7.89ZM14.889,21.214a6.994,6.994,0,0,1-7.133-6.83,6.994,6.994,0,0,1,7.133-6.83,6.994,6.994,0,0,1,7.133,6.83A6.994,6.994,0,0,1,14.889,21.214Z" transform="translate(0 -3)" fill="#2c3e50"/></g></g></g></g></g></g><g transform="translate(-100)"><g transform="translate(202 201)"><rect width="45" height="24" rx="4" transform="translate(211 170)" fill="#e120c1"/><text transform="translate(227 187)" fill="#fff" font-size="12" font-family="Roboto-Regular, Roboto"><tspan x="0" y="0">24</tspan></text></g><g transform="translate(202 364)"><rect width="45" height="24" rx="4" transform="translate(211 170)" fill="#e120c1"/><text transform="translate(227 187)" fill="#fff" font-size="12" font-family="Roboto-Regular, Roboto"><tspan x="0" y="0">24</tspan></text></g><g transform="translate(202 410)"><rect width="45" height="24" rx="4" transform="translate(211 170)" fill="#e120c1"/><text transform="translate(227 187)" fill="#fff" font-size="12" font-family="Roboto-Regular, Roboto"><tspan x="0" y="0">24</tspan></text></g><g transform="translate(202 531)"><rect width="45" height="24" rx="4" transform="translate(211 170)" fill="#e120c1"/><text transform="translate(227 187)" fill="#fff" font-size="12" font-family="Roboto-Regular, Roboto"><tspan x="0" y="0">24</tspan></text></g><g transform="translate(483 371)" fill="rgba(225,32,193,0.1)" stroke="#e120c1" stroke-width="1.25" stroke-dasharray="12 4"><rect width="432" height="24" stroke="none"/><rect x="0.625" y="0.625" width="430.75" height="22.75" fill="none"/></g><g transform="translate(483 534)" fill="rgba(225,32,193,0.1)" stroke="#e120c1" stroke-width="1.25" stroke-dasharray="12 4"><rect width="432" height="24" stroke="none"/><rect x="0.625" y="0.625" width="430.75" height="22.75" fill="none"/></g><g transform="translate(483 580)" fill="rgba(225,32,193,0.1)" stroke="#e120c1" stroke-width="1.25" stroke-dasharray="12 4"><rect width="432" height="24" stroke="none"/><rect x="0.625" y="0.625" width="430.75" height="22.75" fill="none"/></g><g transform="translate(483 701)" fill="rgba(225,32,193,0.1)" stroke="#e120c1" stroke-width="1.25" stroke-dasharray="12 4"><rect width="432" height="24" stroke="none"/><rect x="0.625" y="0.625" width="430.75" height="22.75" fill="none"/></g><g transform="translate(250 302)"><rect width="45" height="24" rx="4" transform="translate(211 170)" fill="#8e20e1"/><text transform="translate(227 187)" fill="#fff" font-size="12" font-family="Roboto-Regular, Roboto"><tspan x="0" y="0">16</tspan></text></g><g transform="translate(528 476)" fill="rgba(142,32,225,0.1)" stroke="#8e20e1" stroke-width="1.25" stroke-dasharray="6 1"><rect width="387" height="16" stroke="none"/><rect x="0.625" y="0.625" width="385.75" height="14.75" fill="none"/></g><g transform="translate(169 160)"><rect width="39" height="24" rx="4" transform="translate(211 170)" fill="#204de1"/><text transform="translate(227 187)" fill="#fff" font-size="12" font-family="Roboto-Regular, Roboto"><tspan x="0" y="0">8</tspan></text></g><g transform="translate(169 442)"><rect width="39" height="24" rx="4" transform="translate(211 170)" fill="#204de1"/><text transform="translate(227 187)" fill="#fff" font-size="12" font-family="Roboto-Regular, Roboto"><tspan x="0" y="0">8</tspan></text></g><g transform="translate(444 338)" fill="rgba(32,77,225,0.1)" stroke="#204de1" stroke-width="1.25" stroke-dasharray="6 1"><rect width="471" height="8" stroke="none"/><rect x="0.625" y="0.625" width="469.75" height="6.75" fill="none"/></g><g transform="translate(444 620)" fill="rgba(32,77,225,0.1)" stroke="#204de1" stroke-width="1.25" stroke-dasharray="6 1"><rect width="471" height="8" stroke="none"/><rect x="0.625" y="0.625" width="469.75" height="6.75" fill="none"/></g></g><g transform="translate(-100)"><text transform="translate(139 196)" fill="#171717" font-size="24" font-family="Poppins-SemiBold, Poppins" font-weight="600"><tspan x="0" y="0">Grid</tspan></text><g transform="translate(-1 9)"><g transform="translate(215 158)" fill="#fff" stroke="#000" stroke-width="2"><rect width="112" height="41" rx="4" stroke="none"/><rect x="1" y="1" width="110" height="39" rx="3" fill="none"/></g><text transform="translate(227 187)" font-size="24" font-family="Poppins-Regular, Poppins"><tspan x="0" y="0">8-Point</tspan></text></g><g transform="translate(139 9)"><rect width="47" height="41" rx="4" transform="translate(211 158)" fill="#204de1"/><text transform="translate(227 187)" fill="#fff" font-size="24" font-family="Poppins-Regular, Poppins"><tspan x="0" y="0">8</tspan></text></g><g transform="translate(202 9)"><rect width="55" height="41" rx="4" transform="translate(211 158)" fill="#8e20e1"/><text transform="translate(227 187)" fill="#fff" font-size="24" font-family="Poppins-Regular, Poppins"><tspan x="0" y="0">16</tspan></text></g><g transform="translate(273 9)"><rect width="61" height="41" rx="4" transform="translate(211 158)" fill="#e120c1"/><text transform="translate(227 187)" fill="#fff" font-size="24" font-family="Poppins-Regular, Poppins"><tspan x="0" y="0">24</tspan></text></g></g><g transform="translate(-100)"><g transform="translate(6)"><text transform="translate(989 661)" font-size="24" font-family="Roboto-Medium, Roboto" font-weight="500"><tspan x="0" y="0">Future Forecast</tspan></text><text transform="translate(989 578)" font-size="24" font-family="Roboto-Medium, Roboto" font-weight="500"><tspan x="0" y="0">Extra Details</tspan></text><text transform="translate(989 523)" font-size="24" font-family="Roboto-Medium, Roboto" font-weight="500"><tspan x="0" y="0">Alert</tspan></text><text transform="translate(989 445)" font-size="24" font-family="Roboto-Medium, Roboto" font-weight="500"><tspan x="0" y="0">Current Weather</tspan></text><text transform="translate(989 334)" font-size="24" font-family="Roboto-Medium, Roboto" font-weight="500"><tspan x="0" y="0">Location</tspan></text></g><g transform="translate(1)"><rect width="16" height="85" transform="translate(925 286)" fill="#7fe327"/><rect width="37" height="4" transform="translate(941 327)" fill="#7fe327"/><rect width="16" height="81" transform="translate(925 395)" fill="#e3cc35"/><rect width="37" height="4" transform="translate(941 434)" fill="#e3cc35"/><rect width="16" height="42" transform="translate(925 492)" fill="#e3a335"/><rect width="37" height="4" transform="translate(941 511)" fill="#e3a335"/><rect width="16" height="23" transform="translate(925 558)" fill="#e38635"/><rect width="37" height="4" transform="translate(941 568)" fill="#e38635"/><rect width="16" height="97" transform="translate(925 604)" fill="#e34d35"/><rect width="37" height="4" transform="translate(941 651)" fill="#e34d35"/></g></g></g></svg>