<svg xmlns="http://www.w3.org/2000/svg" xmlns:xlink="http://www.w3.org/1999/xlink" width="1365" height="160" viewBox="0 0 1365 160">
  <defs>
    <clipPath id="clip-icons">
      <rect width="1365" height="160"/>
    </clipPath>
  </defs>
  <g id="icons" clip-path="url(#clip-icons)">
    <rect width="1365" height="160" fill="rgba(255,255,255,0)"/>
    <g id="icons-2" data-name="icons" transform="translate(92.086 -89.75)">
      <rect id="Rectangle_268" data-name="Rectangle 268" width="1014.828" height="104.5" transform="translate(83 117.5)" fill="#e3f0f9"/>
      <g id="trash-outline" transform="translate(1037.203 157.227)">
        <path id="Path_53" data-name="Path 53" d="M7.875,7.875,9,22.557a1.666,1.666,0,0,0,1.794,1.468H21.109A1.67,1.67,0,0,0,22.9,22.557L24.025,7.875" transform="translate(-0.825 -1.65)" fill="none" stroke="#cb5050" stroke-linecap="round" stroke-linejoin="round" stroke-width="1.4"/>
        <path id="Path_54" data-name="Path 54" d="M5.625,7.875h19" transform="translate(0 -1.65)" stroke="#cb5050" stroke-linecap="round" stroke-miterlimit="10" stroke-width="1.4"/>
        <path id="Path_55" data-name="Path 55" d="M13.5,6.225V4.444h0a1.066,1.066,0,0,1,1.069-1.069h3.562A1.066,1.066,0,0,1,19.2,4.444h0V6.226" transform="translate(-1.225 0)" fill="none" stroke="#cb5050" stroke-linecap="round" stroke-linejoin="round" stroke-width="1.4"/>
        <path id="Path_56" data-name="Path 56" d="M18,12.375V22.35" transform="translate(-2.875 -2.983)" fill="none" stroke="#cb5050" stroke-linecap="round" stroke-linejoin="round" stroke-width="1.4"/>
        <path id="Path_57" data-name="Path 57" d="M12.938,12.375l.357,9.975" transform="translate(-1.676 -2.983)" fill="none" stroke="#cb5050" stroke-linecap="round" stroke-linejoin="round" stroke-width="1.4"/>
        <path id="Path_58" data-name="Path 58" d="M22.857,12.375,22.5,22.35" transform="translate(-3.868 -2.983)" fill="none" stroke="#cb5050" stroke-linecap="round" stroke-linejoin="round" stroke-width="1.4"/>
      </g>
      <g id="menu-options" transform="translate(788.309 -67.789)">
        <path id="Path_272" data-name="Path 272" d="M6.188,10.688H31.672" transform="translate(184.82 220.18)" fill="#c1c1c1" stroke="rgba(187,187,187,0.9)" stroke-linecap="round" stroke-miterlimit="10" stroke-width="3"/>
        <path id="Path_273" data-name="Path 273" d="M6.188,18H31.672" transform="translate(184.82 222.578)" fill="#c1c1c1" stroke="rgba(187,187,187,0.9)" stroke-linecap="round" stroke-miterlimit="10" stroke-width="3"/>
        <path id="Path_274" data-name="Path 274" d="M6.188,25.313H31.672" transform="translate(184.82 224.977)" fill="#c1c1c1" stroke="rgba(187,187,187,0.9)" stroke-linecap="round" stroke-miterlimit="10" stroke-width="3"/>
        <circle id="Ellipse_37" data-name="Ellipse 37" cx="3.5" cy="3.5" r="3.5" transform="translate(192.34 227.289)" fill="#c1c1c1"/>
        <circle id="Ellipse_38" data-name="Ellipse 38" cx="3.5" cy="3.5" r="3.5" transform="translate(209.34 237.289)" fill="#c1c1c1"/>
        <circle id="Ellipse_39" data-name="Ellipse 39" cx="3.5" cy="3.5" r="3.5" transform="translate(199.34 246.289)" fill="#c1c1c1"/>
      </g>
      <g id="menu-options-notification" transform="translate(790.986 -67.5)">
        <path id="Path_226" data-name="Path 226" d="M6.188,10.688H31.672" transform="translate(112.812 219.891)" fill="#c1c1c1" stroke="rgba(187,187,187,0.9)" stroke-linecap="round" stroke-miterlimit="10" stroke-width="3"/>
        <path id="Path_227" data-name="Path 227" d="M6.188,18H31.672" transform="translate(112.812 222.289)" fill="#c1c1c1" stroke="rgba(187,187,187,0.9)" stroke-linecap="round" stroke-miterlimit="10" stroke-width="3"/>
        <path id="Path_228" data-name="Path 228" d="M6.188,25.313H31.672" transform="translate(112.812 224.688)" fill="#c1c1c1" stroke="rgba(187,187,187,0.9)" stroke-linecap="round" stroke-miterlimit="10" stroke-width="3"/>
        <circle id="Ellipse_31" data-name="Ellipse 31" cx="3.5" cy="3.5" r="3.5" transform="translate(120.331 227)" fill="#c1c1c1"/>
        <circle id="Ellipse_32" data-name="Ellipse 32" cx="3.5" cy="3.5" r="3.5" transform="translate(137.331 237)" fill="#c1c1c1"/>
        <circle id="Ellipse_33" data-name="Ellipse 33" cx="3.5" cy="3.5" r="3.5" transform="translate(127.331 246)" fill="#c1c1c1"/>
        <path id="bell" d="M7.44,0V.973A4.921,4.921,0,0,0,3.329,5.638V9.832l-3.384,2.68v.73H17.189v-.73l-3.384-2.68V5.638A4.921,4.921,0,0,0,9.694.972V0ZM8.567,13.445a1.155,1.155,0,1,0,0,2.3,1.155,1.155,0,1,0,0-2.3Z" transform="translate(134.142 221)" fill="#d93423"/>
      </g>
      <g id="account-icon" transform="translate(514.493 -71.5)">
        <path id="Path_232" data-name="Path 232" d="M16.465,3A13.644,13.644,0,0,0,3,16.465a13.531,13.531,0,0,0,5.386,10.67v.1h.137a13.057,13.057,0,0,0,15.884,0h.137v-.1a13.53,13.53,0,0,0,5.386-10.67A13.644,13.644,0,0,0,16.465,3ZM11.179,25.792a4.042,4.042,0,0,1,3.94-3.169h2.693a4.044,4.044,0,0,1,3.94,3.17,10.4,10.4,0,0,1-10.573,0Zm12.841-1.732a6.742,6.742,0,0,0-6.208-4.13H15.119a6.742,6.742,0,0,0-6.208,4.131,10.746,10.746,0,0,1-3.218-7.6A10.916,10.916,0,0,1,16.465,5.693,10.915,10.915,0,0,1,27.238,16.465a10.747,10.747,0,0,1-3.218,7.6Z" transform="translate(327.535 224.535)" fill="#9a9a9a"/>
        <path id="Path_233" data-name="Path 233" d="M16.9,9A4.79,4.79,0,0,0,12,13.9a4.79,4.79,0,0,0,4.9,4.9,4.79,4.79,0,0,0,4.9-4.9A4.79,4.79,0,0,0,16.9,9Zm0,7.345A2.342,2.342,0,0,1,14.448,13.9,2.342,2.342,0,0,1,16.9,11.448,2.342,2.342,0,0,1,19.345,13.9,2.342,2.342,0,0,1,16.9,16.345Z" transform="translate(327.104 223.84)" fill="#9a9a9a"/>
      </g>
      <g id="WeatherIcon" transform="translate(783 158)">
        <rect id="Rectangle_115" data-name="Rectangle 115" width="24" height="24" transform="translate(0 0)" fill="rgba(255,255,255,0)"/>
        <g id="rainy" transform="translate(-1.688 -1.125)">
          <path id="Path_109" data-name="Path 109" d="M24.046,6.335A7.316,7.316,0,0,0,20.675,4.9a.815.815,0,0,1-.579-.38,6.393,6.393,0,0,0-2.182-2.247,7.957,7.957,0,0,0-4.227-1.147A8.257,8.257,0,0,0,8.852,2.617a6.534,6.534,0,0,0-2.5,3.625.762.762,0,0,1-.606.514A5.616,5.616,0,0,0,3.2,7.793,3.411,3.411,0,0,0,1.688,10.62a3.516,3.516,0,0,0,1.679,3.065,6.992,6.992,0,0,0,3.8.956h12.1a7.572,7.572,0,0,0,4.5-1.364,4.416,4.416,0,0,0,1.914-3.57A4.246,4.246,0,0,0,24.046,6.335Z" fill="#bdc3c7"/>
          <path id="Path_110" data-name="Path 110" d="M7.875,31.5a1.125,1.125,0,0,1-.935-1.749l2.25-3.375a1.125,1.125,0,0,1,1.872,1.249L8.812,31A1.125,1.125,0,0,1,7.875,31.5Z" transform="translate(-2.75 -9.75)" fill="rgba(64,149,222,0.9)"/>
          <path id="Path_111" data-name="Path 111" d="M11.25,34.875a1.125,1.125,0,0,1-.934-1.749l4.5-6.75a1.125,1.125,0,1,1,1.872,1.249l-4.5,6.75A1.125,1.125,0,0,1,11.25,34.875Z" transform="translate(-4.01 -9.75)" fill="rgba(64,149,222,0.9)"/>
          <path id="Path_112" data-name="Path 112" d="M19.125,31.5a1.125,1.125,0,0,1-.935-1.749l2.25-3.375a1.125,1.125,0,0,1,1.872,1.249L20.062,31A1.125,1.125,0,0,1,19.125,31.5Z" transform="translate(-4.526 -9.75)" fill="rgba(64,149,222,0.9)"/>
          <path id="Path_113" data-name="Path 113" d="M22.5,34.875a1.125,1.125,0,0,1-.935-1.749l4.5-6.75a1.125,1.125,0,1,1,1.872,1.249l-4.5,6.75a1.125,1.125,0,0,1-.937.5Z" transform="translate(-5.213 -9.75)" fill="rgba(64,149,222,0.9)"/>
        </g>
      </g>
      <g id="WeatherIcon-2" data-name="WeatherIcon" transform="translate(721 158)">
        <g id="sunny" transform="translate(-2.001 -1.828)">
          <path id="Path_94" data-name="Path 94" d="M17.453,6.828a1.111,1.111,0,0,1-1-1.2V3.024a1.111,1.111,0,0,1,1-1.2,1.111,1.111,0,0,1,1,1.2V5.632a1.111,1.111,0,0,1-1,1.2Z" transform="translate(-3.614)" fill="#f9e773"/>
          <path id="Path_205" data-name="Path 205" d="M1,5A1.111,1.111,0,0,1,0,3.8V1.2A1.111,1.111,0,0,1,1,0,1.111,1.111,0,0,1,2,1.2V3.8A1.111,1.111,0,0,1,1,5Z" transform="translate(25.997 12.828) rotate(90)" fill="#f9e773"/>
          <path id="Path_207" data-name="Path 207" d="M1,5A1.111,1.111,0,0,1,0,3.8V1.2A1.111,1.111,0,0,1,1,0,1.111,1.111,0,0,1,2,1.2V3.8A1.111,1.111,0,0,1,1,5Z" transform="translate(21.776 4.637) rotate(45)" fill="#f9e773"/>
          <path id="Path_209" data-name="Path 209" d="M1,5A1.111,1.111,0,0,1,0,3.8V1.2A1.111,1.111,0,0,1,1,0,1.111,1.111,0,0,1,2,1.2V3.8A1.111,1.111,0,0,1,1,5Z" transform="translate(23.191 21.605) rotate(135)" fill="#f9e773"/>
          <path id="Path_204" data-name="Path 204" d="M17.453,6.828a1.111,1.111,0,0,1-1-1.2V3.024a1.111,1.111,0,0,1,1-1.2,1.111,1.111,0,0,1,1,1.2V5.632a1.111,1.111,0,0,1-1,1.2Z" transform="translate(-3.614 19)" fill="#f9e773"/>
          <path id="Path_206" data-name="Path 206" d="M1,5A1.111,1.111,0,0,1,0,3.8V1.2A1.111,1.111,0,0,1,1,0,1.111,1.111,0,0,1,2,1.2V3.8A1.111,1.111,0,0,1,1,5Z" transform="translate(7.001 12.828) rotate(90)" fill="#f9e773"/>
          <path id="Path_208" data-name="Path 208" d="M1,5A1.111,1.111,0,0,1,0,3.8V1.2A1.111,1.111,0,0,1,1,0,1.111,1.111,0,0,1,2,1.2V3.8A1.111,1.111,0,0,1,1,5Z" transform="translate(8.343 18.069) rotate(45)" fill="#f9e773"/>
          <path id="Path_210" data-name="Path 210" d="M1,5A1.111,1.111,0,0,1,0,3.8V1.2A1.111,1.111,0,0,1,1,0,1.111,1.111,0,0,1,2,1.2V3.8A1.111,1.111,0,0,1,1,5Z" transform="translate(9.758 8.173) rotate(135)" fill="#f9e773"/>
          <path id="Path_102" data-name="Path 102" d="M15.828,20.828a5,5,0,1,1,5-5A5,5,0,0,1,15.828,20.828Z" transform="translate(-1.991 -2)" fill="#f9e773"/>
        </g>
      </g>
      <g id="WeatherIcon-3" data-name="WeatherIcon" transform="translate(660 158)">
        <rect id="Rectangle_115-2" data-name="Rectangle 115" width="24" height="24" transform="translate(0)" fill="rgba(255,255,255,0)"/>
        <g id="partly-sunny" transform="translate(0 -2.25)">
          <path id="Path_103" data-name="Path 103" d="M16.911,28.146H5.272a5.571,5.571,0,0,1-3.657-1.2A4.826,4.826,0,0,1,0,23.119a4.748,4.748,0,0,1,1.449-3.533,5.629,5.629,0,0,1,2.934-1.417s0,0,0,0a8.676,8.676,0,0,1,2.5-5.052,6.747,6.747,0,0,1,4.65-1.864A6.371,6.371,0,0,1,15.6,12.684a7.455,7.455,0,0,1,2.1,2.809.807.807,0,0,0,.557.475,6.357,6.357,0,0,1,3.241,1.8,6.006,6.006,0,0,1,1.579,4.214,6.116,6.116,0,0,1-1.841,4.463A6.18,6.18,0,0,1,16.911,28.146ZM17.856,15.887Z" transform="translate(0 -1.896)" fill="#a5a5a5"/>
          <path id="Path_104" data-name="Path 104" d="M26.911,14.8a11.686,11.686,0,0,1,2.328.928.282.282,0,0,0,.235.013.258.258,0,0,0,.155-.167,5.793,5.793,0,0,0,.236-1.684,6.279,6.279,0,0,0-6.423-6.014c-2.352.022-3.1.943-4.18,1.658h0a.208.208,0,0,0-.092.209.218.218,0,0,0,.159.17,16.554,16.554,0,0,1,3.926,1.1,11.192,11.192,0,0,1,3.035,3.314,1.063,1.063,0,0,0,.626.47Z" transform="translate(-8.168 -2.145)" fill="#f9e773"/>
          <path id="Path_106" data-name="Path 106" d="M23.367,5.47a.838.838,0,0,1-.867-.8V3.055a.87.87,0,0,1,1.734,0v1.61A.838.838,0,0,1,23.367,5.47Z" transform="translate(-6.086)" fill="#f9e773"/>
          <path id="Path_213" data-name="Path 213" d="M23.339,5.514A.828.828,0,0,1,22.5,4.7V3.066a.84.84,0,0,1,1.678,0V4.7A.828.828,0,0,1,23.339,5.514Z" transform="translate(9.6 -14.523) rotate(50)" fill="#f9e773"/>
          <path id="Path_214" data-name="Path 214" d="M23.136,4.241a.58.58,0,0,1-.636-.5v-1a.655.655,0,0,1,1.272,0v1A.58.58,0,0,1,23.136,4.241Z" transform="translate(18.71 -12.741) rotate(72)" fill="#f9e773"/>
          <path id="Path_212" data-name="Path 212" d="M23.191,5.25A.722.722,0,0,1,22.5,4.5V3a.693.693,0,1,1,1.382,0V4.5A.722.722,0,0,1,23.191,5.25Z" transform="translate(-9.411 12.94) rotate(-31)" fill="#f9e773"/>
        </g>
      </g>
      <g id="WeatherIcon-4" data-name="WeatherIcon" transform="translate(598 158.203)">
        <g id="Hurricane" transform="translate(-1719.102 -199.477)">
          <path id="Path_126" data-name="Path 126" d="M16.91.563a39.071,39.071,0,0,0-4.383.922A27.769,27.769,0,0,0,8.59,3.316a9.637,9.637,0,0,0-5.166,7.912A6.958,6.958,0,0,0,6.418,17.25s2.245,1.183,2.172,1.984-.554,1.1-2.628,2.162-6.7,1.861-6.193,2.275,7.474-.46,8.208-.62a29.235,29.235,0,0,0,2.926-.983,18.221,18.221,0,0,0,2.825-1.335,21.8,21.8,0,0,0,2.251-1.5c.946-.685.99-.683,1.785-1.306.5-.405,1.868-1.663,1.868-1.663s2.839-2.751,2.839-5.035c0-4.57-4.318-6.162-4.318-6.162S16.91,4.632,16.91,3.574c0-.956,2.711-1.918,2.711-1.918S23.871.094,23.7.022,21.965-.09,16.91.563Z" transform="translate(1719.371 199.493)" fill="#bdc3c7"/>
        </g>
      </g>
      <g id="WeatherIcon-5" data-name="WeatherIcon" transform="translate(537 158)">
        <g id="snow-outline" transform="translate(-4.359 -2.25)">
          <path id="Path_79" data-name="Path 79" d="M18,2.25v24" transform="translate(-1.64)" fill="none" stroke="#9a9a9a" stroke-linecap="round" stroke-linejoin="round" stroke-width="2.25"/>
          <path id="Path_80" data-name="Path 80" d="M20.773,5.625a5.748,5.748,0,0,1-6.831,0" transform="translate(-1.051 -1.563)" fill="none" stroke="#9a9a9a" stroke-linecap="round" stroke-linejoin="round" stroke-width="2.25"/>
          <path id="Path_81" data-name="Path 81" d="M13.942,30.375a5.746,5.746,0,0,1,6.83,0" transform="translate(-1.05 -5.5)" fill="none" stroke="#9a9a9a" stroke-linecap="round" stroke-linejoin="round" stroke-width="2.25"/>
          <path id="Path_82" data-name="Path 82" d="M28.256,10.125,4.36,25.807" transform="translate(0 -3.682)" fill="none" stroke="#9a9a9a" stroke-linecap="round" stroke-linejoin="round" stroke-width="2.25"/>
          <path id="Path_83" data-name="Path 83" d="M29.094,13.008A5.436,5.436,0,0,1,26.687,8.3" transform="translate(-2.279 -2.533)" fill="none" stroke="#9a9a9a" stroke-linecap="round" stroke-linejoin="round" stroke-width="2.25"/>
          <path id="Path_84" data-name="Path 84" d="M5.254,20.672a6.555,6.555,0,0,1,3.355,5.843" transform="translate(-0.738 -2.699)" fill="none" stroke="#9a9a9a" stroke-linecap="round" stroke-linejoin="round" stroke-width="2.25"/>
          <path id="Path_85" data-name="Path 85" d="M4.36,10.125,26.487,24.646" transform="translate(-0.001 -3.751)" fill="none" stroke="#9a9a9a" stroke-linecap="round" stroke-linejoin="round" stroke-width="2.25"/>
          <path id="Path_86" data-name="Path 86" d="M5.254,14.146A6.483,6.483,0,0,0,8.921,8.3" transform="translate(-0.895 -3.672)" fill="none" stroke="#9a9a9a" stroke-linecap="round" stroke-linejoin="round" stroke-width="2.25"/>
          <path id="Path_87" data-name="Path 87" d="M29.1,20.672a5.249,5.249,0,0,0-2.408,4.585" transform="translate(-2.28 -2.945)" fill="none" stroke="#9a9a9a" stroke-linecap="round" stroke-linejoin="round" stroke-width="2.25"/>
        </g>
      </g>
      <g id="Weather_Card_Icon" data-name="Weather Card Icon" transform="translate(467 154)">
        <rect id="Rectangle_124" data-name="Rectangle 124" width="32" height="32" fill="none"/>
        <path id="humidity" d="M0,13.9a8.675,8.675,0,0,1,.946-3.591A20.287,20.287,0,0,1,3.377,6.382,44.465,44.465,0,0,1,8.7.855L9.678,0a7.825,7.825,0,0,0,1.081.855q.811.743,2.469,2.469T16.064,6.46a20.59,20.59,0,0,1,2.37,3.846A8.612,8.612,0,0,1,19.4,13.9a7.856,7.856,0,0,1-.761,3.391,8.8,8.8,0,0,1-2.057,2.791,9.76,9.76,0,0,1-3.1,1.87,10.8,10.8,0,0,1-7.559.022,9.746,9.746,0,0,1-3.089-1.832,8.606,8.606,0,0,1-2.07-2.786A8,8,0,0,1,0,13.9Zm2.96-3.474a3.711,3.711,0,0,0,.688,2.353,2.49,2.49,0,0,0,2.088.877,2.529,2.529,0,0,0,2.106-.871,3.734,3.734,0,0,0,.706-2.358,3.76,3.76,0,0,0-.706-2.364,2.522,2.522,0,0,0-2.106-.877,2.49,2.49,0,0,0-2.088.877,3.73,3.73,0,0,0-.688,2.364Zm2.063,0q0-.267.006-.411t.024-.389a1.787,1.787,0,0,1,.061-.383,2.03,2.03,0,0,1,.117-.289.461.461,0,0,1,.2-.216.656.656,0,0,1,.3-.067.619.619,0,0,1,.43.144.83.83,0,0,1,.227.455,3.637,3.637,0,0,1,.08.533q.013.221.013.621t-.013.616a3.407,3.407,0,0,1-.08.527.842.842,0,0,1-.227.455.616.616,0,0,1-.43.144.645.645,0,0,1-.3-.067.465.465,0,0,1-.2-.216,1.991,1.991,0,0,1-.117-.289,1.8,1.8,0,0,1-.061-.383q-.018-.244-.024-.383t-.006-.405ZM5.785,19.6H7.516L14.05,6.881H12.281Zm5.637-3.54a3.812,3.812,0,0,0,.718,2.364,2.508,2.508,0,0,0,2.094.877,2.5,2.5,0,0,0,2.094-.871,3.8,3.8,0,0,0,.694-2.37,3.784,3.784,0,0,0-.694-2.359,2.494,2.494,0,0,0-2.094-.871,2.515,2.515,0,0,0-2.094.871,3.787,3.787,0,0,0-.718,2.359Zm2.063,0q0-.4.013-.616a3.508,3.508,0,0,1,.08-.527.839.839,0,0,1,.227-.455.613.613,0,0,1,.43-.144.674.674,0,0,1,.313.067.493.493,0,0,1,.209.222,2.827,2.827,0,0,1,.129.283,1.321,1.321,0,0,1,.061.383l.018.383.006.405q0,.289-.006.416l-.018.383-.061.383-.129.283-.209.222-.313.067a.619.619,0,0,1-.43-.144.83.83,0,0,1-.227-.455,3.637,3.637,0,0,1-.08-.533q-.013-.221-.013-.621Z" transform="translate(6.297 4.68)" fill="#9a9a9a"/>
      </g>
      <g id="Weather_Card_Icon-2" data-name="Weather Card Icon" transform="translate(397 154)">
        <rect id="Rectangle_124-2" data-name="Rectangle 124" width="32" height="32" fill="none"/>
        <g id="windy" transform="translate(-1561.645 -200.352)">
          <path id="Path_123" data-name="Path 123" d="M2481.682-2338.475h.72c3.893,0,7.714.1,9.233,0s2.96-.6,3.466-2.062a2.787,2.787,0,0,0-.879-3.4,4,4,0,0,0-2.587-.5c-1.5.2-2.474,1.22-2.072,2.528s2.3,1.155,3.032.436" transform="translate(-913.353 2552.233)" fill="none" stroke="#9a9a9a" stroke-linecap="round" stroke-width="1.5"/>
          <path id="Path_124" data-name="Path 124" d="M2471.613-2339.291c19.961-.044,16.782.1,18.11,0s2.64-.771,2.781-1.99.172-1.984-.594-2.828a2.662,2.662,0,0,0-2.187-.6,1.723,1.723,0,0,0-1.562,2.3,1.194,1.194,0,0,0,2.092.571" transform="translate(-904.411 2556.324)" fill="none" stroke="#9a9a9a" stroke-linecap="round" stroke-width="1.5"/>
          <path id="Path_125" data-name="Path 125" d="M2463.928-2343.784c16.092.074,13.817-.15,15.5-.021a3.878,3.878,0,0,1,2.68,1.1c.141.2.781.8.359,2.563s-2.4,1.833-3.223,1.7a2.141,2.141,0,0,1-1.9-2,1.33,1.33,0,0,1,2.281-.943" transform="translate(-896.727 2563.348)" fill="none" stroke="#9a9a9a" stroke-linecap="round" stroke-width="1.5"/>
        </g>
      </g>
      <g id="Weather_Card_Icon-3" data-name="Weather Card Icon" transform="translate(328 154)">
        <rect id="Rectangle_124-3" data-name="Rectangle 124" width="32" height="32" fill="none"/>
        <path id="barometer" d="M0,8.715A8.538,8.538,0,0,1,.692,5.323,8.649,8.649,0,0,1,2.556,2.544,8.885,8.885,0,0,1,5.339.692a8.6,8.6,0,0,1,6.762,0,8.579,8.579,0,0,1,4.636,4.636,8.513,8.513,0,0,1,.692,3.386,8.347,8.347,0,0,1-1.713,5.161A8.589,8.589,0,0,1,11.3,16.984V20.9H6.26V17.028a8.54,8.54,0,0,1-4.508-3.1A8.372,8.372,0,0,1,0,8.715Zm1.919,0a6.45,6.45,0,0,0,2.009,4.754,6.507,6.507,0,0,0,4.787,2A6.808,6.808,0,0,0,14.608,12.1a6.692,6.692,0,0,0,.374-6.014,6.827,6.827,0,0,0-1.456-2.165,6.918,6.918,0,0,0-2.176-1.451,6.668,6.668,0,0,0-5.262,0,6.954,6.954,0,0,0-2.17,1.451A6.8,6.8,0,0,0,2.461,6.087,6.6,6.6,0,0,0,1.919,8.715Zm.692.424V8.279H5.189v.859ZM3.906,4.932l.625-.614L6.339,6.126l-.614.625ZM6.919,10.8a1.818,1.818,0,0,1,.519-1.295A1.753,1.753,0,0,1,8.7,8.938l3.247-5.345.781.413-2.4,5.747a1.892,1.892,0,0,1-.235,2.372,1.813,1.813,0,0,1-1.328.541A1.848,1.848,0,0,1,6.919,10.8ZM8.481,5.244V2.667h.826V5.245H8.481Zm3.493,3.883V8.246h2.578v.881Z" transform="translate(7.285 5.551)" fill="#9a9a9a"/>
      </g>
      <g id="Weather_Card_Icon-4" data-name="Weather Card Icon" transform="translate(258 154)">
        <rect id="Rectangle_124-4" data-name="Rectangle 124" width="32" height="32" fill="none"/>
        <path id="fog" d="M0,16.086a.956.956,0,0,1,.3-.719,1.026,1.026,0,0,1,.741-.287H23.052a.967.967,0,0,1,1.007,1.007.9.9,0,0,1-.293.685,1,1,0,0,1-.713.277H1.039A1.048,1.048,0,0,1,.3,16.773a.9.9,0,0,1-.3-.685Zm3.085-3.7a.9.9,0,0,1,.31-.707.942.942,0,0,1,.7-.265H26.115a.921.921,0,0,1,.685.282.95.95,0,0,1,.277.691,1,1,0,0,1-.277.713.9.9,0,0,1-.685.293H4.091a.961.961,0,0,1-.713-.3.976.976,0,0,1-.293-.707Zm.155-2.808q0,.155.177.155H5.108q.11,0,.232-.188a3.683,3.683,0,0,1,1.255-1.5,3.616,3.616,0,0,1,1.83-.663l.652-.088q.2,0,.2-.21l.077-.586a4.758,4.758,0,0,1,1.62-3.19,5.044,5.044,0,0,1,6.69-.016,4.745,4.745,0,0,1,1.62,3.162l.088.675q0,.2.232.2h1.879a3.78,3.78,0,0,1,3.461,2.222q.122.188.243.188h1.692q.21,0,.165-.265A5.51,5.51,0,0,0,24.987,6.5a5.7,5.7,0,0,0-3.5-1.15h-.376A6.923,6.923,0,0,0,18.636,1.5,6.738,6.738,0,0,0,14.329,0a6.81,6.81,0,0,0-4.4,1.553A6.9,6.9,0,0,0,7.463,5.517,5.794,5.794,0,0,0,3.251,9.508V9.464a.377.377,0,0,0-.011.11ZM5.141,19.7a.894.894,0,0,1,.31-.7.956.956,0,0,1,.707-.265H28.193a1,1,0,0,1,.713.277.9.9,0,0,1,.293.685.98.98,0,0,1-.3.719.967.967,0,0,1-.707.3H6.159A1.039,1.039,0,0,1,5.141,19.7Z" transform="translate(1.4 5.641)" fill="#9a9a9a"/>
      </g>
      <g id="Weather_Card_Icon-5" data-name="Weather Card Icon" transform="translate(189 154)">
        <rect id="Rectangle_124-5" data-name="Rectangle 124" width="32" height="32" fill="none"/>
        <g id="Dew" transform="translate(-78.77 -553.074)">
          <path id="thermometer" d="M0,19.454a5.667,5.667,0,0,1,.675-2.719,6.007,6.007,0,0,1,1.887-2.107V3.282A3.184,3.184,0,0,1,3.507.955,3.135,3.135,0,0,1,5.824,0,3.162,3.162,0,0,1,8.156.954,3.173,3.173,0,0,1,9.1,3.282V14.628a5.917,5.917,0,0,1,1.877,2.107,5.814,5.814,0,0,1-5.158,8.542A5.713,5.713,0,0,1,2.907,24.5,5.777,5.777,0,0,1,.783,22.382,5.7,5.7,0,0,1,0,19.454Zm2.005,0a3.737,3.737,0,0,0,1.121,2.729,3.663,3.663,0,0,0,2.7,1.132,3.764,3.764,0,0,0,2.751-1.147,3.791,3.791,0,0,0,.6-4.692,3.816,3.816,0,0,0-1.506-1.41L7.347,15.9a.323.323,0,0,1-.171-.332V3.282a1.215,1.215,0,0,0-.386-.923,1.348,1.348,0,0,0-.965-.364,1.344,1.344,0,0,0-.949.364,1.206,1.206,0,0,0-.392.923v12.29a.327.327,0,0,1-.161.332l-.311.161a3.7,3.7,0,0,0-1.475,1.4A3.836,3.836,0,0,0,2.005,19.454Zm.89,0a2.871,2.871,0,0,0,.836,2.08,2.713,2.713,0,0,0,2.016.858A2.809,2.809,0,0,0,7.8,21.528a2.821,2.821,0,0,0,.869-2.075,2.763,2.763,0,0,0-.746-1.909,2.922,2.922,0,0,0-1.806-.975v-8.4A.32.32,0,0,0,6,7.952a.351.351,0,0,0-.252-.113.317.317,0,0,0-.242.1.33.33,0,0,0-.091.236v8.4a2.873,2.873,0,0,0-1.786.976A2.786,2.786,0,0,0,2.9,19.454Z" transform="translate(85.676 556.871)" fill="#9a9a9a"/>
          <path id="raindrops" d="M0,4.381a2.112,2.112,0,0,1,.374-1,8.155,8.155,0,0,1,.716-1.026q.092-.111.231-.273t.157-.18l.36.425a6.057,6.057,0,0,1,.749,1.054,2.145,2.145,0,0,1,.342,1,1.448,1.448,0,0,1-.42,1.044,1.382,1.382,0,0,1-1.031.435A1.419,1.419,0,0,1,.434,5.426,1.428,1.428,0,0,1,0,4.381ZM3.078,8.476a2.614,2.614,0,0,1,.24-.994A5.227,5.227,0,0,1,3.91,6.434,12.561,12.561,0,0,1,5.2,4.927a2.839,2.839,0,0,0,.259-.24l.25.24a13.158,13.158,0,0,1,1.3,1.5,5.148,5.148,0,0,1,.615,1.063,2.56,2.56,0,0,1,.235.989,2.36,2.36,0,0,1-2.4,2.394,2.286,2.286,0,0,1-1.692-.7,2.321,2.321,0,0,1-.693-1.692Zm1.5-6.8A2.861,2.861,0,0,1,5.565,0l.25.277a4.281,4.281,0,0,1,.5.726,1.479,1.479,0,0,1,.222.67.907.907,0,0,1-.282.679.951.951,0,0,1-.689.272.977.977,0,0,1-.707-.273.905.905,0,0,1-.282-.679Z" transform="translate(96 556)" fill="#9a9a9a"/>
        </g>
      </g>
      <g id="Weather_Card_Icon-6" data-name="Weather Card Icon" transform="translate(119 154)">
        <rect id="Rectangle_124-6" data-name="Rectangle 124" width="32" height="32" fill="none"/>
        <path id="Thermometer-2" data-name="Thermometer" d="M0,24.073a7.013,7.013,0,0,1,.836-3.364A7.433,7.433,0,0,1,3.171,18.1V4.061A3.94,3.94,0,0,1,4.339,1.182,3.879,3.879,0,0,1,7.206,0a3.913,3.913,0,0,1,2.886,1.181,3.926,3.926,0,0,1,1.174,2.88V18.1a7.323,7.323,0,0,1,2.322,2.607,7.195,7.195,0,0,1-6.383,10.57A7.07,7.07,0,0,1,3.6,30.317,7.149,7.149,0,0,1,.969,27.7,7.048,7.048,0,0,1,0,24.073Zm2.481,0A4.624,4.624,0,0,0,3.868,27.45a4.532,4.532,0,0,0,3.338,1.4,4.658,4.658,0,0,0,3.4-1.42,4.691,4.691,0,0,0,.742-5.807A4.722,4.722,0,0,0,9.489,19.88l-.4-.2a.4.4,0,0,1-.212-.411V4.061A1.5,1.5,0,0,0,8.4,2.919a1.668,1.668,0,0,0-1.195-.451,1.663,1.663,0,0,0-1.175.451,1.492,1.492,0,0,0-.485,1.142V19.27a.4.4,0,0,1-.2.411l-.385.2a4.575,4.575,0,0,0-1.825,1.739A4.746,4.746,0,0,0,2.481,24.073Zm1.1,0a3.552,3.552,0,0,0,1.035,2.574,3.357,3.357,0,0,0,2.495,1.062A3.476,3.476,0,0,0,9.647,26.64a3.491,3.491,0,0,0,1.075-2.568A3.419,3.419,0,0,0,9.8,21.71,3.616,3.616,0,0,0,7.564,20.5V10.113a.4.4,0,0,0-.139-.272.435.435,0,0,0-.312-.14.393.393,0,0,0-.3.119.408.408,0,0,0-.113.292V20.5a3.556,3.556,0,0,0-2.21,1.208A3.448,3.448,0,0,0,3.583,24.073Z" transform="translate(8.793 0.359)" fill="#9a9a9a"/>
      </g>
    </g>
  </g>
</svg>
