<svg xmlns="http://www.w3.org/2000/svg" xmlns:xlink="http://www.w3.org/1999/xlink" width="1920" height="1080" viewBox="0 0 1920 1080"><defs><style>.a,.u,.v,.w{fill:none;}.b{clip-path:url(#j);}.ab,.c,.t{fill:#fff;}.d,.i,.l,.m,.n,.o,.p,.r{fill:#707070;}.d,.n{font-size:20px;}.d,.i,.r{font-family:SegoeUI, Segoe UI;}.e{isolation:isolate;clip-path:url(#a);}.f{clip-path:url(#b);}.g{fill:#e3e3e3;}.h{fill:#9b9b9b;}.i,.p{font-size:16px;}.j{clip-path:url(#c);}.k{fill:#b8b8b8;}.l,.m,.x{font-size:14px;}.l,.n,.p,.x,.y,.z{font-family:ArialMT, Arial;}.m{font-family:Arial-BoldMT, Arial;font-weight:700;}.q{fill:#bbb;}.r{font-size:30px;}.s{fill:#d1d1d1;}.t,.v,.w{stroke:#707070;}.u{stroke:#959595;stroke-width:3px;}.w{stroke-width:5px;}.x,.y{fill:#9a9a9a;}.y{font-size:10px;}.z{fill:#ff3e3e;font-size:12px;}.aa{fill:#aaa;}.ab{stroke:#5b5b5b;}.ac{clip-path:url(#h);}.ad{stroke:none;}.ae{fill:rgba(255,255,255,0);}.af{filter:url(#d);}</style><clipPath id="a"><rect class="a" x="-15" width="428" height="151"/></clipPath><clipPath id="b"><rect class="a" width="633" height="151"/></clipPath><clipPath id="c"><rect class="a" width="354" height="128"/></clipPath><filter id="d" x="77" y="841" width="360" height="118" filterUnits="userSpaceOnUse"><feOffset dy="2" input="SourceAlpha"/><feGaussianBlur stdDeviation="1" result="e"/><feFlood flood-opacity="0.161"/><feComposite operator="in" in2="e"/><feComposite in="SourceGraphic"/></filter><clipPath id="h"><rect class="a" width="380" height="266"/></clipPath><clipPath id="j"><rect width="1920" height="1080"/></clipPath></defs><g id="i" class="b"><rect class="ae" width="1920" height="1080"/><g transform="translate(-53 2)"><rect class="c" width="428" height="838" transform="translate(96 130)"/><text class="d" transform="translate(133 293)"><tspan x="0" y="0">Forecast for [Location]</tspan></text><text class="d" transform="translate(133 810)"><tspan x="0" y="0">News Articles</tspan></text><g class="e" transform="translate(111 317)"><g class="f"><g transform="translate(-15 -300)"><g transform="translate(22)"><rect class="g" width="112" height="151" transform="translate(15 300)"/><rect class="h" width="112" height="87" transform="translate(15 300)"/><line class="a" y1="86" x2="111" transform="translate(15.5 300.5)"/><line class="a" x1="111" y1="86" transform="translate(15.5 300.5)"/><text class="d" transform="translate(56 389)"><tspan x="0" y="22">99°</tspan></text><text class="i" transform="translate(59 416)"><tspan x="0" y="17">99°</tspan></text></g></g><g transform="translate(113 -300)"><g transform="translate(22)"><rect class="g" width="112" height="151" transform="translate(15 300)"/><rect class="h" width="112" height="87" transform="translate(15 300)"/><line class="a" y1="86" x2="111" transform="translate(15.5 300.5)"/><line class="a" x1="111" y1="86" transform="translate(15.5 300.5)"/><text class="d" transform="translate(56 389)"><tspan x="0" y="22">99°</tspan></text><text class="i" transform="translate(59 416)"><tspan x="0" y="17">99°</tspan></text></g></g><g transform="translate(241 -300)"><g transform="translate(22)"><rect class="g" width="112" height="151" transform="translate(15 300)"/><rect class="h" width="112" height="87" transform="translate(15 300)"/><line class="a" y1="86" x2="111" transform="translate(15.5 300.5)"/><line class="a" x1="111" y1="86" transform="translate(15.5 300.5)"/><text class="d" transform="translate(56 389)"><tspan x="0" y="22">99°</tspan></text><text class="i" transform="translate(59 416)"><tspan x="0" y="17">99°</tspan></text></g></g><g transform="translate(369 -300)"><g transform="translate(22)"><rect class="g" width="112" height="151" transform="translate(15 300)"/><rect class="h" width="112" height="87" transform="translate(15 300)"/><line class="a" y1="86" x2="111" transform="translate(15.5 300.5)"/><line class="a" x1="111" y1="86" transform="translate(15.5 300.5)"/><text class="d" transform="translate(56 389)"><tspan x="0" y="22">99°</tspan></text><text class="i" transform="translate(59 416)"><tspan x="0" y="17">99°</tspan></text></g></g><g transform="translate(497 -300)"><g transform="translate(22)"><rect class="g" width="112" height="151" transform="translate(15 300)"/><rect class="h" width="112" height="87" transform="translate(15 300)"/><line class="a" y1="86" x2="111" transform="translate(15.5 300.5)"/><line class="a" x1="111" y1="86" transform="translate(15.5 300.5)"/><text class="d" transform="translate(56 389)"><tspan x="0" y="22">99°</tspan></text><text class="i" transform="translate(59 416)"><tspan x="0" y="17">99°</tspan></text></g></g></g></g><g class="j" transform="translate(133 840)"><g transform="translate(-32 -410)"><g class="af" transform="matrix(1, 0, 0, 1, -48, -432)"><rect class="c" width="354" height="112" transform="translate(80 842)"/></g><rect class="k" width="100" height="112" transform="translate(32 410)"/><text class="l" transform="translate(139 410)"><tspan x="0" y="13">Excepteur sint occaecat cupidatat non </tspan><tspan x="0" y="37">proident, sunt in culpa qui officia. He </tspan><tspan x="0" y="61">bam twa mo le sanytea milragy</tspan></text><text class="m" transform="translate(141 501)"><tspan x="0" y="0">Author Name</tspan></text><text class="l" transform="translate(253 501)"><tspan x="0" y="0">11/11/1111</tspan></text><line class="a" x1="99.5" y1="111" transform="translate(32.5 410.5)"/><line class="a" y1="111" x2="99.5" transform="translate(32.5 410.5)"/></g></g><g transform="translate(96 9)"><rect class="c" width="354" height="91" rx="10" transform="translate(37 146)"/><text class="n" transform="translate(124 170)"><tspan x="0" y="0">Your Weather Alerts</tspan></text><path class="o" d="M24.136,2.586a.815.815,0,0,0-.676-.336H3.035a.816.816,0,0,0-.675.335.611.611,0,0,0-.016.678L12.556,20.418a.884.884,0,0,0,1.382,0L24.151,3.263a.612.612,0,0,0-.015-.678ZM12.363,4.306H14.13v6.852H12.363Zm.885,10.963a1.111,1.111,0,0,1-1.179-1.028,1.111,1.111,0,0,1,1.179-1.028,1.111,1.111,0,0,1,1.179,1.028A1.111,1.111,0,0,1,13.248,15.268Z" transform="translate(46.751 181.75)"/><text class="p" transform="translate(87 184)"><tspan x="0" y="14">Lorem ipsum dolor sit amet, consetetur </tspan><tspan x="0" y="38">sadipscing elitr, sed diam nonumy eirmod.</tspan></text></g><g transform="translate(96 58)"><rect class="q" width="428" height="72"/><g transform="translate(16.5 2.5)"><line class="a" x2="43" transform="translate(20.5 18.5)"/><line class="a" x2="43" transform="translate(20.5 33.5)"/><line class="a" x2="43" transform="translate(20.5 48.5)"/></g><text class="r" transform="translate(134 47)"><tspan x="0" y="0">WeatherLert</tspan></text><g transform="translate(347.355 13.053)"><path class="o" d="M22.947,2.25a20.7,20.7,0,1,0,20.7,20.7A20.7,20.7,0,0,0,22.947,2.25Zm-8.87,36.042V35.335a4.761,4.761,0,0,1,4.435-5h8.87a4.761,4.761,0,0,1,4.435,5.012v2.957a17.622,17.622,0,0,1-17.741,0Zm20.7-2.159v-.9a7.7,7.7,0,0,0-7.392-7.849h-8.87a7.688,7.688,0,0,0-7.392,7.851v.873a17.741,17.741,0,1,1,23.654,0Z" transform="translate(0 0)"/><path class="o" d="M19.767,7.875a7.392,7.392,0,1,0,7.392,7.392,7.392,7.392,0,0,0-7.392-7.392Zm0,11.827A4.435,4.435,0,1,1,24.2,15.267,4.435,4.435,0,0,1,19.767,19.7Z" transform="translate(3.18 1.767)"/></g></g><rect class="s" width="354" height="182" transform="translate(133 519)"/><text class="n" transform="translate(133 511)"><tspan x="0" y="0">Doppler Radar</tspan></text><line class="a" x2="354" y2="182" transform="translate(133 519)"/><line class="a" y1="182" x2="354" transform="translate(133 519)"/><rect class="c" width="208" height="43" rx="13" transform="translate(206 719)"/><text class="n" transform="translate(235 748)"><tspan x="0" y="0">Go to Live Radar</tspan></text></g><g transform="translate(-53 2)"><rect class="c" width="428" height="836" transform="translate(564 132)"/><rect class="h" width="428" height="356" transform="translate(564 193)"/><text class="n" transform="translate(713 178)"><tspan x="0" y="0">Doppler Radar</tspan></text><g class="t" transform="translate(597 699)"><rect class="ad" width="356" height="37"/><rect class="a" x="0.5" y="0.5" width="355" height="36"/></g><path class="u" d="M355,0" transform="translate(597.5 718.5)"/><line class="v" y2="15" transform="translate(597.5 734.5)"/><text class="l" transform="translate(584 768)"><tspan x="0" y="0">Now</tspan></text><text class="l" transform="translate(933 768)"><tspan x="0" y="0">12am</tspan></text><text class="l" transform="translate(759 768)"><tspan x="0" y="0">7pm</tspan></text><line class="v" y2="19" transform="translate(952.5 730.5)"/><line class="v" y2="14.75" transform="translate(772.5 735.5)"/><path class="v" d="M518,636.991l43.99,1.325s20.076.655,22.791.655,29.861.609,31.445.609,30.585-1.176,36.2-1.828,18.152-8.454,20.1-10.053c1.523-1.436,11.093-7.679,14.83-9.622a8.207,8.207,0,0,1,3.074-.731,23.4,23.4,0,0,1,8.144,1.066c2.405.625,39,1.066,39,1.066s17.351.792,20,.99,28.821,1.782,29.7,1.98,17.351,1.782,19.116,2.178,12.646,3.564,13.822,4.553,9.7,5.345,11.469,5.741,9.7,1.766,12.646,2.071,15.587,1.279,17.351,1.98,11.469,3.869,11.469,3.869" transform="translate(80 93.388)"/><text class="p" transform="translate(597 691)"><tspan x="0" y="0">Percipitation %</tspan></text><g transform="translate(564 58)"><rect class="q" width="428" height="72"/><g transform="translate(16.5 2.5)"><line class="w" x2="43" transform="translate(20.5 18.5)"/><line class="w" x2="43" transform="translate(20.5 33.5)"/><line class="w" x2="43" transform="translate(20.5 48.5)"/></g><text class="r" transform="translate(134 47)"><tspan x="0" y="0">WeatherLert</tspan></text><g transform="translate(347.355 13.053)"><path class="o" d="M22.947,2.25a20.7,20.7,0,1,0,20.7,20.7A20.7,20.7,0,0,0,22.947,2.25Zm-8.87,36.042V35.335a4.761,4.761,0,0,1,4.435-5h8.87a4.761,4.761,0,0,1,4.435,5.012v2.957a17.622,17.622,0,0,1-17.741,0Zm20.7-2.159v-.9a7.7,7.7,0,0,0-7.392-7.849h-8.87a7.688,7.688,0,0,0-7.392,7.851v.873a17.741,17.741,0,1,1,23.654,0Z" transform="translate(0 0)"/><path class="o" d="M19.767,7.875a7.392,7.392,0,1,0,7.392,7.392,7.392,7.392,0,0,0-7.392-7.392Zm0,11.827A4.435,4.435,0,1,1,24.2,15.267,4.435,4.435,0,0,1,19.767,19.7Z" transform="translate(3.18 1.767)"/></g></g><g class="e" transform="translate(579 785)"><g class="f"><g transform="translate(-15 -300)"><g transform="translate(22)"><rect class="g" width="112" height="151" transform="translate(15 300)"/><rect class="h" width="112" height="87" transform="translate(15 300)"/><line class="v" y1="86" x2="111" transform="translate(15.5 300.5)"/><line class="v" x1="111" y1="86" transform="translate(15.5 300.5)"/><text class="d" transform="translate(56 389)"><tspan x="0" y="22">99°</tspan></text><text class="i" transform="translate(59 416)"><tspan x="0" y="17">99°</tspan></text></g></g><g transform="translate(113 -300)"><g transform="translate(22)"><rect class="g" width="112" height="151" transform="translate(15 300)"/><rect class="h" width="112" height="87" transform="translate(15 300)"/><line class="v" y1="86" x2="111" transform="translate(15.5 300.5)"/><line class="v" x1="111" y1="86" transform="translate(15.5 300.5)"/><text class="d" transform="translate(56 389)"><tspan x="0" y="22">99°</tspan></text><text class="i" transform="translate(59 416)"><tspan x="0" y="17">99°</tspan></text></g></g><g transform="translate(241 -300)"><g transform="translate(22)"><rect class="g" width="112" height="151" transform="translate(15 300)"/><rect class="h" width="112" height="87" transform="translate(15 300)"/><line class="v" y1="86" x2="111" transform="translate(15.5 300.5)"/><line class="v" x1="111" y1="86" transform="translate(15.5 300.5)"/><text class="d" transform="translate(56 389)"><tspan x="0" y="22">99°</tspan></text><text class="i" transform="translate(59 416)"><tspan x="0" y="17">99°</tspan></text></g></g><g transform="translate(369 -300)"><g transform="translate(22)"><rect class="g" width="112" height="151" transform="translate(15 300)"/><rect class="h" width="112" height="87" transform="translate(15 300)"/><line class="v" y1="86" x2="111" transform="translate(15.5 300.5)"/><line class="v" x1="111" y1="86" transform="translate(15.5 300.5)"/><text class="d" transform="translate(56 389)"><tspan x="0" y="22">99°</tspan></text><text class="i" transform="translate(59 416)"><tspan x="0" y="17">99°</tspan></text></g></g><g transform="translate(497 -300)"><g transform="translate(22)"><rect class="g" width="112" height="151" transform="translate(15 300)"/><rect class="h" width="112" height="87" transform="translate(15 300)"/><line class="v" y1="86" x2="111" transform="translate(15.5 300.5)"/><line class="v" x1="111" y1="86" transform="translate(15.5 300.5)"/><text class="d" transform="translate(56 389)"><tspan x="0" y="22">99°</tspan></text><text class="i" transform="translate(59 416)"><tspan x="0" y="17">99°</tspan></text></g></g></g></g><g transform="translate(564 418)"><g class="t" transform="translate(37 146)"><rect class="ad" width="354" height="91" rx="10"/><rect class="a" x="0.5" y="0.5" width="353" height="90" rx="9.5"/></g><text class="n" transform="translate(124 170)"><tspan x="0" y="0">Your Weather Alerts</tspan></text><path class="o" d="M24.136,2.586a.815.815,0,0,0-.676-.336H3.035a.816.816,0,0,0-.675.335.611.611,0,0,0-.016.678L12.556,20.418a.884.884,0,0,0,1.382,0L24.151,3.263a.612.612,0,0,0-.015-.678ZM12.363,4.306H14.13v6.852H12.363Zm.885,10.963a1.111,1.111,0,0,1-1.179-1.028,1.111,1.111,0,0,1,1.179-1.028,1.111,1.111,0,0,1,1.179,1.028A1.111,1.111,0,0,1,13.248,15.268Z" transform="translate(46.751 181.75)"/><text class="p" transform="translate(87 184)"><tspan x="0" y="14">Lorem ipsum dolor sit amet, consetetur </tspan><tspan x="0" y="38">sadipscing elitr, sed diam nonumy eirmod.</tspan></text></g></g><g transform="translate(-53 2)"><rect class="c" width="431" height="910" transform="translate(1032 129)"/><g transform="translate(1035 58)"><rect class="q" width="428" height="72"/><g transform="translate(37 21)"><line class="w" x2="43"/><line class="w" x2="43" transform="translate(0 15)"/><line class="w" x2="43" transform="translate(0 30)"/></g><text class="r" transform="translate(134 47)"><tspan x="0" y="0">WeatherLert</tspan></text><g transform="translate(349.605 15.303)"><path class="o" d="M22.947,2.25a20.7,20.7,0,1,0,20.7,20.7A20.7,20.7,0,0,0,22.947,2.25Zm-8.87,36.042V35.335a4.761,4.761,0,0,1,4.435-5h8.87a4.761,4.761,0,0,1,4.435,5.012v2.957a17.622,17.622,0,0,1-17.741,0Zm20.7-2.159v-.9a7.7,7.7,0,0,0-7.392-7.849h-8.87a7.688,7.688,0,0,0-7.392,7.851v.873a17.741,17.741,0,1,1,23.654,0Z" transform="translate(-2.25 -2.25)"/><path class="o" d="M19.767,7.875a7.392,7.392,0,1,0,7.392,7.392,7.392,7.392,0,0,0-7.392-7.392Zm0,11.827A4.435,4.435,0,1,1,24.2,15.267,4.435,4.435,0,0,1,19.767,19.7Z" transform="translate(0.93 -0.483)"/></g></g><text class="n" transform="translate(1071 168)"><tspan x="0" y="0">Your Weather Alerts</tspan></text><text class="x" transform="translate(1071.5 202)"><tspan x="0" y="0">Today</tspan></text><text class="x" transform="translate(1070 552)"><tspan x="0" y="0">Yesterday</tspan></text><g transform="translate(1034 207.269)"><rect class="c" width="428" height="107" transform="translate(0.5)"/><line class="v" x2="429" transform="translate(0 106.5)"/><text class="x" transform="translate(37 24.731)"><tspan x="0" y="0">Weather Alert</tspan></text><text class="x" transform="translate(233 24.731)"><tspan x="0" y="0">12:12pm</tspan></text><text class="y" transform="translate(37 35.731)"><tspan x="0" y="9">Lorem ipsum dolor sit amet, consetetur sadipscing elitr, sed </tspan><tspan x="0" y="23">diam nonumy eirmod tempor invidunt ut labore et dolore </tspan><tspan x="0" y="37">magna aliquyam erat, sed diam voluptua. At vero eos et…</tspan></text><text class="z" transform="translate(37 79.731)"><tspan x="0" y="11">Warnings Go Here</tspan></text><rect class="aa" width="85" height="83" transform="translate(306 11.731)"/><path class="v" d="M0,0,84.5,82.524" transform="translate(306.5 12.5)"/><path class="v" d="M80,0-.428,82.42" transform="translate(306.5 12.5)"/></g><g transform="translate(1033 307.72)"><rect class="c" width="428" height="107" transform="translate(0.5)"/><line class="v" x2="429" transform="translate(0 106.5)"/><text class="x" transform="translate(37 25.28)"><tspan x="0" y="0">General Safety Alert</tspan></text><text class="y" transform="translate(37 36.28)"><tspan x="0" y="9">Lorem ipsum dolor sit amet, consetetur sadipscing elitr, sed </tspan><tspan x="0" y="23">diam nonumy eirmod tempor invidunt ut labore et dolore </tspan><tspan x="0" y="37">magna aliquyam erat, sed diam voluptua. At vero eos et…</tspan></text><text class="z" transform="translate(37 80.28)"><tspan x="0" y="11">Warnings Go Here</tspan></text><rect class="aa" width="85" height="83" transform="translate(306 12.28)"/><path class="v" d="M0,0,84.5,82.524" transform="translate(306.5 12.5)"/><path class="v" d="M80,0-.428,82.42" transform="translate(306.5 12.5)"/><text class="x" transform="translate(234 25.28)"><tspan x="0" y="0">12:12pm</tspan></text></g><g transform="translate(1032 662.584)"><rect class="c" width="428" height="107" transform="translate(0.5)"/><line class="v" x2="429" transform="translate(0 106.5)"/><text class="x" transform="translate(37 25.416)"><tspan x="0" y="0">General Safety Alert</tspan></text><text class="y" transform="translate(37 36.416)"><tspan x="0" y="9">Lorem ipsum dolor sit amet, consetetur sadipscing elitr, sed </tspan><tspan x="0" y="23">diam nonumy eirmod tempor invidunt ut labore et dolore </tspan><tspan x="0" y="37">magna aliquyam erat, sed diam voluptua. At vero eos et…</tspan></text><text class="z" transform="translate(37 80.416)"><tspan x="0" y="11">Warnings Go Here</tspan></text><rect class="aa" width="85" height="83" transform="translate(306 12.416)"/><path class="v" d="M0,0,84.5,82.524" transform="translate(306.5 12.5)"/><path class="v" d="M80,0-.428,82.42" transform="translate(306.5 12.5)"/></g><g transform="translate(1033 763.036)"><rect class="c" width="428" height="107" transform="translate(0.5)"/><line class="v" x2="429" transform="translate(0 106.5)"/><text class="x" transform="translate(37 24.964)"><tspan x="0" y="0">General Safety Alert</tspan></text><text class="y" transform="translate(37 35.964)"><tspan x="0" y="9">Lorem ipsum dolor sit amet, consetetur sadipscing elitr, sed </tspan><tspan x="0" y="23">diam nonumy eirmod tempor invidunt ut labore et dolore </tspan><tspan x="0" y="37">magna aliquyam erat, sed diam voluptua. At vero eos et…</tspan></text><text class="z" transform="translate(37 79.964)"><tspan x="0" y="11">Warnings Go Here</tspan></text><rect class="aa" width="85" height="83" transform="translate(306 11.964)"/><path class="v" d="M0,0,84.5,82.524" transform="translate(306.5 12.5)"/><path class="v" d="M80,0-.428,82.42" transform="translate(306.5 12.5)"/></g><g transform="translate(1034 859.019)"><rect class="c" width="428" height="107" transform="translate(0.5)"/><line class="v" x2="429" transform="translate(0 106.5)"/><text class="x" transform="translate(37 24.981)"><tspan x="0" y="0">General Safety Alert</tspan></text><text class="y" transform="translate(37 35.981)"><tspan x="0" y="9">Lorem ipsum dolor sit amet, consetetur sadipscing elitr, sed </tspan><tspan x="0" y="23">diam nonumy eirmod tempor invidunt ut labore et dolore </tspan><tspan x="0" y="37">magna aliquyam erat, sed diam voluptua. At vero eos et…</tspan></text><text class="z" transform="translate(37 79.981)"><tspan x="0" y="11">Warnings Go Here</tspan></text><rect class="aa" width="85" height="83" transform="translate(306 11.981)"/><path class="v" d="M0,0,84.5,82.524" transform="translate(306.5 12.5)"/><path class="v" d="M80,0-.428,82.42" transform="translate(306.5 12.5)"/></g><g transform="translate(1034 408.171)"><rect class="c" width="428" height="107" transform="translate(0.5)"/><line class="v" x2="429" transform="translate(0 106.5)"/><text class="x" transform="translate(37 24.829)"><tspan x="0" y="0">Weather Alert</tspan></text><text class="y" transform="translate(37 35.829)"><tspan x="0" y="9">Lorem ipsum dolor sit amet, consetetur sadipscing elitr, sed </tspan><tspan x="0" y="23">diam nonumy eirmod tempor invidunt ut labore et dolore </tspan><tspan x="0" y="37">magna aliquyam erat, sed diam voluptua. At vero eos et…</tspan></text><text class="z" transform="translate(37 79.829)"><tspan x="0" y="11">Warnings Go Here</tspan></text><rect class="aa" width="85" height="83" transform="translate(306 11.829)"/><path class="v" d="M0,0,84.5,82.524" transform="translate(306.5 12.5)"/><path class="v" d="M80,0-.428,82.42" transform="translate(306.5 12.5)"/></g><g transform="translate(1033 562.133)"><rect class="c" width="428" height="107" transform="translate(0.5)"/><line class="v" x2="429" transform="translate(0 106.5)"/><text class="x" transform="translate(37 24.867)"><tspan x="0" y="0">Weather Alert</tspan></text><text class="y" transform="translate(37 35.867)"><tspan x="0" y="9">Lorem ipsum dolor sit amet, consetetur sadipscing elitr, sed </tspan><tspan x="0" y="23">diam nonumy eirmod tempor invidunt ut labore et dolore </tspan><tspan x="0" y="37">magna aliquyam erat, sed diam voluptua. At vero eos et…</tspan></text><text class="z" transform="translate(37 79.867)"><tspan x="0" y="11">Warnings Go Here</tspan></text><rect class="aa" width="85" height="83" transform="translate(306 11.867)"/><path class="v" d="M0,0,84.5,82.524" transform="translate(306.5 12.5)"/><path class="v" d="M80,0-.428,82.42" transform="translate(306.5 12.5)"/></g><g class="ab" transform="translate(1111 998)"><rect class="ad" width="277" height="41" rx="7"/><rect class="a" x="0.5" y="0.5" width="276" height="40" rx="6.5"/></g><text class="n" transform="translate(1206 1026)"><tspan x="0" y="0">See More</tspan></text><path class="o" d="M20.25,6.75,18.675,8.325l8.438,8.55H9.479v2.25H27.113l-8.438,8.55L20.25,29.25,31.5,18Z" transform="translate(1296.625 1001.269)"/><text class="x" transform="translate(1267 434)"><tspan x="0" y="0">12:12pm</tspan></text><text class="x" transform="translate(1267 588)"><tspan x="0" y="0">12:12pm</tspan></text><text class="x" transform="translate(1267 689)"><tspan x="0" y="0">12:12pm</tspan></text><text class="x" transform="translate(1267 791)"><tspan x="0" y="0">12:12pm</tspan></text><text class="x" transform="translate(1267 885)"><tspan x="0" y="0">12:12pm</tspan></text></g><g transform="translate(-53 2)"><g class="t" transform="translate(1503 126)"><rect class="ad" width="428" height="623"/><rect class="a" x="0.5" y="0.5" width="427" height="622"/></g><g transform="translate(1503 58)"><rect class="q" width="428" height="72"/><g transform="translate(16.5 2.5)"><line class="w" x2="43" transform="translate(20.5 18.5)"/><line class="w" x2="43" transform="translate(20.5 33.5)"/><line class="w" x2="43" transform="translate(20.5 48.5)"/></g><text class="r" transform="translate(134 47)"><tspan x="0" y="0">WeatherLert</tspan></text><g transform="translate(347.355 13.053)"><path class="o" d="M22.947,2.25a20.7,20.7,0,1,0,20.7,20.7A20.7,20.7,0,0,0,22.947,2.25Zm-8.87,36.042V35.335a4.761,4.761,0,0,1,4.435-5h8.87a4.761,4.761,0,0,1,4.435,5.012v2.957a17.622,17.622,0,0,1-17.741,0Zm20.7-2.159v-.9a7.7,7.7,0,0,0-7.392-7.849h-8.87a7.688,7.688,0,0,0-7.392,7.851v.873a17.741,17.741,0,1,1,23.654,0Z" transform="translate(0 0)"/><path class="o" d="M19.767,7.875a7.392,7.392,0,1,0,7.392,7.392,7.392,7.392,0,0,0-7.392-7.392Zm0,11.827A4.435,4.435,0,1,1,24.2,15.267,4.435,4.435,0,0,1,19.767,19.7Z" transform="translate(3.18 1.767)"/></g></g><text class="n" transform="translate(1540 200)"><tspan x="0" y="0">Your Cities/ Locations</tspan></text><g class="ac" transform="translate(1540 236)"><g transform="translate(-21 -278)"><g class="t" transform="translate(21 278)"><rect class="ad" width="354" height="43"/><rect class="a" x="0.5" y="0.5" width="353" height="42"/></g><text class="n" transform="translate(37 307)"><tspan x="0" y="0">City/ Location Name</tspan></text><g transform="translate(346 288.167)"><path class="o" d="M13.5,13.5h1.619v9.714H13.5Z" transform="translate(-7.024 -5.405)"/><path class="o" d="M20.25,13.5h1.619v9.714H20.25Z" transform="translate(-8.917 -5.405)"/><path class="o" d="M4.5,6.75V8.369H6.119v16.19a1.619,1.619,0,0,0,1.619,1.619H20.69a1.619,1.619,0,0,0,1.619-1.619V8.369h1.619V6.75ZM7.738,24.559V8.369H20.69v16.19Z" transform="translate(-4.5 -3.512)"/><path class="o" d="M13.5,2.25h6.476V3.869H13.5Z" transform="translate(-7.024 -2.25)"/></g><g transform="translate(302.29 288.167)"><path class="o" d="M2.25,29.25H26.659v1.744H2.25Z" transform="translate(-2.25 -8.328)"/><path class="o" d="M23.156,8.352a1.685,1.685,0,0,0,0-2.441L20.017,2.773a1.685,1.685,0,0,0-2.441,0L4.5,15.85v5.579h5.579ZM18.8,3.994l3.138,3.138L19.32,9.747,16.182,6.609ZM6.244,19.685V16.547l8.718-8.718L18.1,10.968,9.382,19.685Z" transform="translate(-2.756 -2.25)"/></g></g><g transform="translate(-21 -205)"><g class="t" transform="translate(21 278)"><rect class="ad" width="354" height="43"/><rect class="a" x="0.5" y="0.5" width="353" height="42"/></g><text class="n" transform="translate(37 307)"><tspan x="0" y="0">City/ Location Name</tspan></text><g transform="translate(346 288.167)"><path class="o" d="M13.5,13.5h1.619v9.714H13.5Z" transform="translate(-7.024 -5.405)"/><path class="o" d="M20.25,13.5h1.619v9.714H20.25Z" transform="translate(-8.917 -5.405)"/><path class="o" d="M4.5,6.75V8.369H6.119v16.19a1.619,1.619,0,0,0,1.619,1.619H20.69a1.619,1.619,0,0,0,1.619-1.619V8.369h1.619V6.75ZM7.738,24.559V8.369H20.69v16.19Z" transform="translate(-4.5 -3.512)"/><path class="o" d="M13.5,2.25h6.476V3.869H13.5Z" transform="translate(-7.024 -2.25)"/></g><g transform="translate(302.29 288.167)"><path class="o" d="M2.25,29.25H26.659v1.744H2.25Z" transform="translate(-2.25 -8.328)"/><path class="o" d="M23.156,8.352a1.685,1.685,0,0,0,0-2.441L20.017,2.773a1.685,1.685,0,0,0-2.441,0L4.5,15.85v5.579h5.579ZM18.8,3.994l3.138,3.138L19.32,9.747,16.182,6.609ZM6.244,19.685V16.547l8.718-8.718L18.1,10.968,9.382,19.685Z" transform="translate(-2.756 -2.25)"/></g></g><g transform="translate(-21 -132)"><g class="t" transform="translate(21 278)"><rect class="ad" width="354" height="43"/><rect class="a" x="0.5" y="0.5" width="353" height="42"/></g><text class="n" transform="translate(37 307)"><tspan x="0" y="0">City/ Location Name</tspan></text><g transform="translate(346 288.167)"><path class="o" d="M13.5,13.5h1.619v9.714H13.5Z" transform="translate(-7.024 -5.405)"/><path class="o" d="M20.25,13.5h1.619v9.714H20.25Z" transform="translate(-8.917 -5.405)"/><path class="o" d="M4.5,6.75V8.369H6.119v16.19a1.619,1.619,0,0,0,1.619,1.619H20.69a1.619,1.619,0,0,0,1.619-1.619V8.369h1.619V6.75ZM7.738,24.559V8.369H20.69v16.19Z" transform="translate(-4.5 -3.512)"/><path class="o" d="M13.5,2.25h6.476V3.869H13.5Z" transform="translate(-7.024 -2.25)"/></g><g transform="translate(302.29 288.167)"><path class="o" d="M2.25,29.25H26.659v1.744H2.25Z" transform="translate(-2.25 -8.328)"/><path class="o" d="M23.156,8.352a1.685,1.685,0,0,0,0-2.441L20.017,2.773a1.685,1.685,0,0,0-2.441,0L4.5,15.85v5.579h5.579ZM18.8,3.994l3.138,3.138L19.32,9.747,16.182,6.609ZM6.244,19.685V16.547l8.718-8.718L18.1,10.968,9.382,19.685Z" transform="translate(-2.756 -2.25)"/></g></g><g transform="translate(-21 -59)"><g class="t" transform="translate(21 278)"><rect class="ad" width="354" height="43"/><rect class="a" x="0.5" y="0.5" width="353" height="42"/></g><text class="n" transform="translate(37 307)"><tspan x="0" y="0">City/ Location Name</tspan></text><g transform="translate(346 288.167)"><path class="o" d="M13.5,13.5h1.619v9.714H13.5Z" transform="translate(-7.024 -5.405)"/><path class="o" d="M20.25,13.5h1.619v9.714H20.25Z" transform="translate(-8.917 -5.405)"/><path class="o" d="M4.5,6.75V8.369H6.119v16.19a1.619,1.619,0,0,0,1.619,1.619H20.69a1.619,1.619,0,0,0,1.619-1.619V8.369h1.619V6.75ZM7.738,24.559V8.369H20.69v16.19Z" transform="translate(-4.5 -3.512)"/><path class="o" d="M13.5,2.25h6.476V3.869H13.5Z" transform="translate(-7.024 -2.25)"/></g><g transform="translate(302.29 288.167)"><path class="o" d="M2.25,29.25H26.659v1.744H2.25Z" transform="translate(-2.25 -8.328)"/><path class="o" d="M23.156,8.352a1.685,1.685,0,0,0,0-2.441L20.017,2.773a1.685,1.685,0,0,0-2.441,0L4.5,15.85v5.579h5.579ZM18.8,3.994l3.138,3.138L19.32,9.747,16.182,6.609ZM6.244,19.685V16.547l8.718-8.718L18.1,10.968,9.382,19.685Z" transform="translate(-2.756 -2.25)"/></g></g></g><g transform="translate(1503 -48)"><g class="t" transform="translate(58 593)"><rect class="ad" width="313" height="43" rx="14"/><rect class="a" x="0.5" y="0.5" width="312" height="42" rx="13.5"/></g><text class="n" transform="translate(133 622)"><tspan x="0" y="0">Add New Location</tspan></text><g transform="translate(79.75 600.923)"><path class="o" d="M14.077,3.94A10.137,10.137,0,1,1,3.94,14.077,10.167,10.167,0,0,1,14.077,3.94m0-1.69A11.827,11.827,0,1,0,25.9,14.077,11.862,11.862,0,0,0,14.077,2.25Z"/><path class="o" d="M22.517,14.913H16.6V9h-1.69v5.913H9V16.6h5.913v5.913H16.6V16.6h5.913Z" transform="translate(-1.681 -1.681)"/></g></g></g></g></svg>