<svg xmlns="http://www.w3.org/2000/svg" xmlns:xlink="http://www.w3.org/1999/xlink" width="979" height="1089" viewBox="0 0 979 1089">
  <defs>
    <clipPath id="clip-user-journey">
      <rect width="979" height="1089"/>
    </clipPath>
  </defs>
  <g id="user-journey" clip-path="url(#clip-user-journey)">
    <rect width="979" height="1089" fill="rgba(255,255,255,0)"/>
    <g id="Page_Sitemap_" data-name="Page (Sitemap)" transform="translate(-168.5 -4)">
      <rect id="Rectangle_38" data-name="Rectangle 38" width="258" height="82" rx="4" transform="translate(831 76)" fill="#5d2fdf"/>
      <text id="Open_App" data-name="Open App" transform="translate(903 127)" fill="rgba(248,252,255,0.9)" font-size="26" font-family="Roboto-Medium, Roboto" font-weight="500"><tspan x="0" y="0">Open App</tspan></text>
    </g>
    <g id="Page_Sitemap_2" data-name="Page (Sitemap)" transform="translate(-514.5 131)">
      <rect id="Rectangle_38-2" data-name="Rectangle 38" width="337" height="82" rx="4" transform="translate(831 76)" fill="#5d2fdf"/>
      <text id="Sign_In_Sign_Up" data-name="Sign In / Sign Up" transform="translate(903 127)" fill="rgba(248,252,255,0.9)" font-size="26" font-family="Roboto-Medium, Roboto" font-weight="500"><tspan x="0" y="0">Sign In / Sign Up</tspan></text>
    </g>
    <g id="Page_Sitemap_3" data-name="Page (Sitemap)" transform="translate(-189.5 265)">
      <rect id="Rectangle_38-3" data-name="Rectangle 38" width="339" height="82" rx="4" transform="translate(790.178 76)" fill="#5d2fdf"/>
      <text id="Home_Screen" data-name="Home Screen" transform="translate(900.178 127)" fill="rgba(248,252,255,0.9)" font-size="26" font-family="Roboto-Medium, Roboto" font-weight="500"><tspan x="0" y="0">Home Screen</tspan></text>
      <path id="home" d="M16.735,2.459a1,1,0,0,0-1.24,0L1.125,13.667l1.24,1.579,1.76-1.38V26.244a2,2,0,0,0,2,2h20a2,2,0,0,0,2-2V13.877l1.76,1.369,1.24-1.569Zm1.39,23.785h-4v-8h4Zm2,0v-8a2,2,0,0,0-2-2h-4a2,2,0,0,0-2,2v8h-6V12.308l10-7.789,10,7.8V26.244Z" transform="translate(861.053 101.756)" fill="rgba(255,255,255,0.9)"/>
    </g>
    <line id="Line_46" data-name="Line 46" y2="186" transform="translate(792 154.5)" fill="none" stroke="#707070" stroke-width="1"/>
    <line id="Line_144" data-name="Line 144" y2="507" transform="translate(792 423.5)" fill="none" stroke="#707070" stroke-width="1"/>
    <line id="Line_141" data-name="Line 141" y2="27" transform="translate(485 179.5)" fill="none" stroke="#707070" stroke-width="1"/>
    <line id="Line_142" data-name="Line 142" y1="27" transform="translate(484.5 289)" fill="none" stroke="#707070" stroke-width="1"/>
    <line id="Line_140" data-name="Line 140" x1="307" transform="translate(485 180.5)" fill="none" stroke="#707070" stroke-width="1"/>
    <line id="Line_143" data-name="Line 143" x1="307" transform="translate(484.5 315)" fill="none" stroke="#707070" stroke-width="1"/>
    <line id="Line_145" data-name="Line 145" x1="150" transform="translate(641.5 506)" fill="none" stroke="#707070" stroke-width="1"/>
    <line id="Line_146" data-name="Line 146" x1="150" transform="translate(641.5 612)" fill="none" stroke="#707070" stroke-width="1"/>
    <line id="Line_147" data-name="Line 147" x1="150" transform="translate(641.5 718)" fill="none" stroke="#707070" stroke-width="1"/>
    <line id="Line_148" data-name="Line 148" x1="150" transform="translate(641.5 824)" fill="none" stroke="#707070" stroke-width="1"/>
    <line id="Line_149" data-name="Line 149" x1="150" transform="translate(641.5 930)" fill="none" stroke="#707070" stroke-width="1"/>
    <g id="Group_258" data-name="Group 258" transform="translate(-383.5 -121)">
      <rect id="Rectangle_252" data-name="Rectangle 252" width="183.182" height="66" transform="translate(839.408 594)" fill="#9f2fdf"/>
      <text id="Search" transform="translate(905.59 637)" fill="rgba(248,252,255,0.9)" font-size="26" font-family="Roboto-Medium, Roboto" font-weight="500"><tspan x="0" y="0">Search</tspan></text>
      <path id="search-2" data-name="search" d="M18.886,18.039l5.967,6.273a1.219,1.219,0,0,1,0,1.663,1.081,1.081,0,0,1-1.582,0L17.3,19.7a8.569,8.569,0,0,1-12.09-1.208A9.679,9.679,0,0,1,5.6,5.732a8.56,8.56,0,0,1,12.138-.4,9.67,9.67,0,0,1,1.149,12.711Zm-7.014,1.284a6.831,6.831,0,0,0,6.654-7,6.831,6.831,0,0,0-6.654-7,6.831,6.831,0,0,0-6.654,7A6.831,6.831,0,0,0,11.872,19.324Z" transform="translate(872.41 612.34)" fill="rgba(255,255,255,0.9)" fill-rule="evenodd"/>
    </g>
    <g id="Group_259" data-name="Group 259" transform="translate(-384.5 -15)">
      <rect id="Rectangle_252-2" data-name="Rectangle 252" width="252.822" height="66" transform="translate(773.178 594)" fill="#9f2fdf"/>
      <text id="Map_Radar" data-name="Map / Radar" transform="translate(847 637)" fill="rgba(248,252,255,0.9)" font-size="26" font-family="Roboto-Medium, Roboto" font-weight="500"><tspan x="0" y="0">Map / Radar</tspan></text>
      <g id="Map" transform="translate(809.178 614)">
        <path id="Path_219" data-name="Path 219" d="M3.011,6.759a1.881,1.881,0,0,0-1.1,1.664v17.7a1.872,1.872,0,0,0,1.054,1.64,2.455,2.455,0,0,0,2.15.052c.029-.014.058-.028.086-.044l5.736-3.283a.466.466,0,0,0,.247-.4V2.77a.473.473,0,0,0-.29-.423.613.613,0,0,0-.563.027Z" transform="translate(-1.908 -2.268)" fill="rgba(255,255,255,0.9)"/>
        <path id="Path_220" data-name="Path 220" d="M12.886,2.344a.783.783,0,0,0-.632-.019.477.477,0,0,0-.325.418V24.067a.462.462,0,0,0,.281.4l7.439,3.723a.782.782,0,0,0,.633.02.477.477,0,0,0,.326-.419V6.481a.463.463,0,0,0-.282-.4Z" transform="translate(-0.689 -2.268)" fill="rgba(255,255,255,0.9)"/>
        <path id="Path_221" data-name="Path 221" d="M28.047,2.771a2.06,2.06,0,0,0-1.969-.053A.763.763,0,0,0,26,2.763l-5.259,3.28a.472.472,0,0,0-.227.4V27.761a.475.475,0,0,0,.266.423.521.521,0,0,0,.516-.027l6.69-4.381a1.9,1.9,0,0,0,1.026-1.67V4.452a1.934,1.934,0,0,0-.967-1.683Z" transform="translate(0.986 -2.268)" fill="rgba(255,255,255,0.9)"/>
      </g>
    </g>
    <g id="Group_260" data-name="Group 260" transform="translate(-483.5 91)">
      <rect id="Rectangle_252-3" data-name="Rectangle 252" width="352" height="66" transform="translate(772.179 594)" fill="#9f2fdf"/>
      <text id="Alerts_Notifications" data-name="Alerts / Notifications" transform="translate(846.179 637)" fill="rgba(248,252,255,0.9)" font-size="26" font-family="Roboto-Medium, Roboto" font-weight="500"><tspan x="0" y="0">Alerts / Notifications</tspan></text>
      <g id="Notifications" transform="translate(808.18 614)">
        <path id="Path_224" data-name="Path 224" d="M29.978,20.177l-.342-.351C28.1,18.25,27.17,17.3,27.17,12.837A8.114,8.114,0,0,0,25.235,7.21a9.155,9.155,0,0,0-3.914-2.435.207.207,0,0,1-.058-.04,4.417,4.417,0,0,0-8.279,0,.216.216,0,0,1-.057.039C8.991,6.146,7.077,8.784,7.077,12.835c0,4.464-.928,5.415-2.466,6.989l-.342.351A1.834,1.834,0,0,0,3.945,22.4a2.69,2.69,0,0,0,2.4,1.248h21.57A2.686,2.686,0,0,0,30.3,22.407a1.835,1.835,0,0,0-.322-2.231Z" transform="translate(-2.124 -1.856)" fill="rgba(255,255,255,0.9)"/>
        <path id="Path_225" data-name="Path 225" d="M18.1,27.386c3.056,0,5.865-.781,7.313-2.031a.111.111,0,0,0-.011-.19.617.617,0,0,0-.357-.093H11.16a.619.619,0,0,0-.358.093.111.111,0,0,0-.011.19C12.238,26.6,15.047,27.385,18.1,27.386Z" transform="translate(-3.103 -1.386)" fill="rgba(255,255,255,0.9)"/>
        <rect id="Rectangle_123" data-name="Rectangle 123" width="30" height="26" transform="translate(-0.001)" fill="none"/>
      </g>
    </g>
    <g id="Group_261" data-name="Group 261" transform="translate(-356.5 197)">
      <rect id="Rectangle_252-4" data-name="Rectangle 252" width="212.765" height="66" transform="translate(785.235 594)" fill="#9f2fdf"/>
      <text id="Locations" transform="translate(847 637)" fill="rgba(248,252,255,0.9)" font-size="26" font-family="Roboto-Medium, Roboto" font-weight="500"><tspan x="0" y="0">Locations</tspan></text>
      <path id="Location" d="M14.513,1.857c-4.937,0-8.942,2.988-8.942,6.669,0,5.928,8.942,14.078,8.942,14.078s8.942-8.15,8.942-14.078C23.455,4.845,19.45,1.857,14.513,1.857Zm0,10.373c-1.975,0-3.577-1.327-3.577-2.964S12.538,6.3,14.513,6.3,18.09,7.63,18.09,9.267,16.488,12.229,14.513,12.231Z" transform="translate(815.664 614.77)" fill="rgba(255,255,255,0.9)"/>
    </g>
    <g id="Group_262" data-name="Group 262" transform="translate(-331.5 303)">
      <rect id="Rectangle_252-5" data-name="Rectangle 252" width="162" height="66" transform="translate(811 594)" fill="#9f2fdf"/>
      <text id="Articles" transform="translate(847 637)" fill="rgba(248,252,255,0.9)" font-size="26" font-family="Roboto-Medium, Roboto" font-weight="500"><tspan x="0" y="0">Articles</tspan></text>
    </g>
    <g id="Group_263" data-name="Group 263" transform="translate(-774.5 303)">
      <rect id="Rectangle_252-6" data-name="Rectangle 252" width="214" height="66" transform="translate(811 594)" fill="#9f2fdf"/>
      <text id="Article_Page" data-name="Article Page" transform="translate(847 637)" fill="rgba(248,252,255,0.9)" font-size="26" font-family="Roboto-Medium, Roboto" font-weight="500"><tspan x="0" y="0">Article Page</tspan></text>
    </g>
    <line id="Line_150" data-name="Line 150" x1="230" transform="translate(250 930.5)" fill="none" stroke="#707070" stroke-width="1"/>
  </g>
</svg>
