<svg xmlns="http://www.w3.org/2000/svg" xmlns:xlink="http://www.w3.org/1999/xlink" width="300" height="825" viewBox="0 0 300 825">
  <defs>
    <clipPath id="clip-colors-mobile">
      <rect width="300" height="825"/>
    </clipPath>
  </defs>
  <g id="colors-mobile" clip-path="url(#clip-colors-mobile)">
    <rect width="300" height="825" fill="rgba(255,255,255,0)"/>
    <text id="Primary" transform="translate(108 41)" font-size="24" font-family="Roboto-Medium, Roboto" font-weight="500"><tspan x="0" y="0">Primary</tspan></text>
    <rect id="Rectangle_205" data-name="Rectangle 205" width="250" height="250" rx="3" transform="translate(25 64)" fill="#3498db"/>
    <rect id="Rectangle_206" data-name="Rectangle 206" width="115" height="115" rx="3" transform="translate(25 404)" fill="#2c3e50"/>
    <rect id="Rectangle_209" data-name="Rectangle 209" width="115" height="115" rx="3" transform="translate(160 404)" fill="#bdc3c7"/>
    <text id="_3498DB" data-name="#3498DB" transform="translate(100 299)" fill="#fff" font-size="24" font-family="Roboto-Medium, Roboto" font-weight="500"><tspan x="0" y="0">#3498DB</tspan></text>
    <text id="_2C3E50" data-name="#2C3E50" transform="translate(58 510)" fill="#fff" font-size="12" font-family="Roboto-Medium, Roboto" font-weight="500"><tspan x="0" y="0">#2C3E50</tspan></text>
    <rect id="Rectangle_207" data-name="Rectangle 207" width="115" height="115" rx="3" transform="translate(25 537)" fill="#fbfdff"/>
    <text id="_BDC3C7" data-name="#BDC3C7" transform="translate(192 510)" fill="#030303" font-size="12" font-family="Roboto-Medium, Roboto" font-weight="500"><tspan x="0" y="0">#BDC3C7</tspan></text>
    <text id="_FBFDFF" data-name="#FBFDFF" transform="translate(58 642)" font-size="12" font-family="Roboto-Medium, Roboto" font-weight="500"><tspan x="0" y="0">#FBFDFF</tspan></text>
    <text id="Other_Colors" data-name="Other Colors" transform="translate(83 381)" font-size="24" font-family="Roboto-Medium, Roboto" font-weight="500"><tspan x="0" y="0">Other Colors</tspan></text>
    <rect id="Rectangle_266" data-name="Rectangle 266" width="115" height="115" rx="3" transform="translate(160 537)" fill="#e3f0f9"/>
    <text id="_E3F0F9" data-name="#E3F0F9" transform="translate(194 642)" font-size="12" font-family="Roboto-Medium, Roboto" font-weight="500"><tspan x="0" y="0">#E3F0F9</tspan></text>
    <rect id="Rectangle_208" data-name="Rectangle 208" width="115" height="115" rx="3" transform="translate(25 676)" fill="#d93423"/>
    <text id="_D93423" data-name="#D93423" transform="translate(58 780)" fill="#fff" font-size="12" font-family="Roboto-Medium, Roboto" font-weight="500"><tspan x="0" y="0">#D93423</tspan></text>
    <rect id="Rectangle_267" data-name="Rectangle 267" width="115" height="115" rx="3" transform="translate(160 676)" fill="#a8cce4"/>
    <text id="_E3F0F9-2" data-name="#E3F0F9" transform="translate(194 780)" font-size="12" font-family="Roboto-Medium, Roboto" font-weight="500"><tspan x="0" y="0">#E3F0F9</tspan></text>
  </g>
</svg>
