<?xml version="1.0" encoding="UTF-8" standalone="no"?>
<!-- Uploaded to: SVG Repo, www.svgrepo.com, Transformed by: SVG Repo Mixer Tools -->

<svg
   fill="#4e8807"
   height="800"
   width="800.00165"
   version="1.1"
   id="Layer_1"
   viewBox="0 0 512.00105 512"
   xml:space="preserve"
   stroke="#4e8807"
   stroke-width="1.536"
   sodipodi:docname="design-icon.svg"
   xmlns:inkscape="http://www.inkscape.org/namespaces/inkscape"
   xmlns:sodipodi="http://sodipodi.sourceforge.net/DTD/sodipodi-0.dtd"
   xmlns="http://www.w3.org/2000/svg"
   xmlns:svg="http://www.w3.org/2000/svg"><defs
   id="defs36" /><sodipodi:namedview
   id="namedview34"
   pagecolor="#505050"
   bordercolor="#eeeeee"
   borderopacity="1"
   inkscape:showpageshadow="0"
   inkscape:pageopacity="0"
   inkscape:pagecheckerboard="0"
   inkscape:deskcolor="#505050"
   showgrid="false" />





<g
   id="SVGRepo_iconCarrier"
   style="fill:#497da2;fill-opacity:1;stroke:none"> <g
   id="g30"
   style="fill:#497da2;fill-opacity:1;stroke:none"> <g
   id="g28"
   style="fill:#497da2;fill-opacity:1;stroke:none"> <g
   id="g26"
   style="fill:#497da2;fill-opacity:1;stroke:none"> <path
   d="m 128,273.067 h 51.2 c 4.71,0 8.533,-3.823 8.533,-8.533 0,-4.71 -3.823,-8.533 -8.533,-8.533 h -42.667 v -17.067 h 8.533 c 4.71,0 8.533,-3.823 8.533,-8.533 0,-4.71 -3.823,-8.533 -8.533,-8.533 h -8.533 V 204.8 h 8.533 c 4.71,0 8.533,-3.823 8.533,-8.533 0,-4.71 -3.823,-8.533 -8.533,-8.533 h -8.533 V 170.667 H 179.2 c 4.71,0 8.533,-3.823 8.533,-8.533 0,-4.71 -3.823,-8.533 -8.533,-8.533 h -42.667 v -17.067 h 8.533 c 4.71,0 8.533,-3.823 8.533,-8.533 0,-4.71 -3.823,-8.533 -8.533,-8.533 h -8.533 V 102.4 h 8.533 c 4.71,0 8.533,-3.823 8.533,-8.533 0,-4.71 -3.823,-8.533 -8.533,-8.533 h -8.533 V 68.267 H 179.2 c 4.71,0 8.533,-3.823 8.533,-8.533 0,-4.71 -3.823,-8.534 -8.533,-8.534 H 136.533 V 17.067 H 256 v 247.467 c 0,4.71 3.823,8.533 8.533,8.533 4.71,0 8.533,-3.823 8.533,-8.533 v -256 c 0,-4.71 -3.823,-8.533 -8.533,-8.533 H 128 c -4.71,0 -8.533,3.823 -8.533,8.533 v 256 c 0,4.71 3.823,8.533 8.533,8.533 z"
   id="path4"
   style="fill:#497da2;fill-opacity:1;stroke:none" /> <path
   d="m 8.533,273.067 c 4.71,0 8.533,-3.823 8.533,-8.533 V 42.667 c 0,-12.442 13.158,-25.6 25.6,-25.6 h 51.2 c 4.71,0 8.533,-3.823 8.533,-8.533 C 102.399,3.824 98.577,0 93.867,0 h -51.2 C 20.736,0 0,20.736 0,42.667 v 221.867 c 0,4.71 3.823,8.533 8.533,8.533 z"
   id="path6"
   style="fill:#497da2;fill-opacity:1;stroke:none" /> <path
   d="m 384,102.4 c -4.71,0 -8.533,3.823 -8.533,8.533 v 153.6 c 0,4.71 3.823,8.533 8.533,8.533 4.71,0 8.533,-3.823 8.533,-8.533 v -153.6 c 0,-4.71 -3.823,-8.533 -8.533,-8.533 z"
   id="path8"
   style="fill:#497da2;fill-opacity:1;stroke:none" /> <path
   d="m 332.8,110.933 v 153.6 c 0,4.71 3.823,8.533 8.533,8.533 4.71,0 8.533,-3.823 8.533,-8.533 v -153.6 c 0,-4.71 -3.823,-8.533 -8.533,-8.533 -4.71,0 -8.533,3.823 -8.533,8.533 z"
   id="path10"
   style="fill:#497da2;fill-opacity:1;stroke:none" /> <path
   d="m 349.867,494.933 h -8.533 V 486.4 c 0,-4.71 -3.823,-8.533 -8.533,-8.533 -4.71,0 -8.533,3.823 -8.533,8.533 v 8.533 H 307.2 V 486.4 c 0,-4.71 -3.823,-8.533 -8.533,-8.533 -4.71,0 -8.533,3.823 -8.533,8.533 v 8.533 H 273.067 V 486.4 c 0,-4.71 -3.823,-8.533 -8.533,-8.533 -4.71,0 -8.533,3.823 -8.533,8.533 v 8.533 H 238.934 V 486.4 c 0,-4.71 -3.823,-8.533 -8.533,-8.533 -4.71,0 -8.533,3.823 -8.533,8.533 v 8.533 H 204.8 V 486.4 c 0,-4.71 -3.823,-8.533 -8.533,-8.533 -4.71,0 -8.533,3.823 -8.533,8.533 v 8.533 H 170.667 V 486.4 c 0,-4.71 -3.823,-8.533 -8.533,-8.533 -4.71,0 -8.533,3.823 -8.533,8.533 v 8.533 H 136.534 V 486.4 c 0,-4.71 -3.823,-8.533 -8.533,-8.533 -4.71,0 -8.533,3.823 -8.533,8.533 v 8.533 H 102.4 V 486.4 c 0,-4.71 -3.823,-8.533 -8.533,-8.533 -4.71,0 -8.533,3.823 -8.533,8.533 v 8.533 H 68.267 V 486.4 c 0,-4.71 -3.823,-8.533 -8.533,-8.533 -4.71,0 -8.534,3.823 -8.534,8.533 v 8.533 h -8.533 c -4.71,0 -8.533,3.823 -8.533,8.533 0,4.71 3.822,8.534 8.533,8.534 h 307.2 c 4.71,0 8.533,-3.823 8.533,-8.533 0,-4.71 -3.823,-8.534 -8.533,-8.534 z"
   id="path12"
   style="fill:#497da2;fill-opacity:1;stroke:none" /> <path
   d="m 298.667,273.067 c 4.71,0 8.533,-3.823 8.533,-8.533 V 79.249 l 34.133,-54.613 27.273,43.631 H 332.8 c -4.71,0 -8.533,3.823 -8.533,8.533 0,4.71 3.823,8.533 8.533,8.533 H 384 c 3.106,0 5.956,-1.681 7.467,-4.395 1.502,-2.714 1.417,-6.033 -0.23,-8.661 L 348.57,4.011 c -3.123,-4.992 -11.349,-4.992 -14.473,0 L 291.43,72.277 c -0.845,1.357 -1.297,2.918 -1.297,4.523 v 187.733 c 0,4.711 3.823,8.534 8.534,8.534 z"
   id="path14"
   style="fill:#497da2;fill-opacity:1;stroke:none" /> <path
   d="M 469.333,0 H 384 c -4.71,0 -8.533,3.823 -8.533,8.533 0,4.71 3.823,8.533 8.533,8.533 h 85.333 c 12.442,0 25.6,13.158 25.6,25.6 v 307.2 c 0,12.442 -13.158,25.6 -25.6,25.6 H 42.667 c -12.442,0 -25.6,-13.158 -25.6,-25.6 V 307.2 h 452.267 c 4.71,0 8.533,-3.823 8.533,-8.533 0,-4.71 -3.823,-8.533 -8.533,-8.533 H 8.533 c -4.71,0 -8.533,3.823 -8.533,8.533 v 51.2 c 0,21.931 20.736,42.667 42.667,42.667 h 426.667 c 21.931,0 42.667,-20.736 42.667,-42.667 V 42.667 C 512,20.736 491.264,0 469.333,0 Z"
   id="path16"
   style="fill:#497da2;fill-opacity:1;stroke:none" /> <path
   d="m 238.933,341.333 c 0,9.412 7.654,17.067 17.067,17.067 9.412,0 17.067,-7.654 17.067,-17.067 0,-9.412 -7.654,-17.067 -17.067,-17.067 -9.412,10e-4 -17.067,7.655 -17.067,17.067 z"
   id="path18"
   style="fill:#497da2;fill-opacity:1;stroke:none" /> <path
   d="m 298.667,460.8 c 4.71,0 8.533,-3.823 8.533,-8.533 v -34.133 c 0,-4.71 -3.823,-8.533 -8.533,-8.533 -4.71,0 -8.533,3.823 -8.533,8.533 v 34.133 c -0.001,4.71 3.822,8.533 8.533,8.533 z"
   id="path20"
   style="fill:#497da2;fill-opacity:1;stroke:none" /> <path
   d="m 221.867,452.267 v -34.133 c 0,-4.71 -3.823,-8.533 -8.533,-8.533 -4.71,0 -8.533,3.823 -8.533,8.533 v 34.133 c 0,4.71 3.823,8.533 8.533,8.533 4.71,0 8.533,-3.823 8.533,-8.533 z"
   id="path22"
   style="fill:#497da2;fill-opacity:1;stroke:none" /> <path
   d="m 443.733,460.8 h -17.067 c -18.825,0 -34.133,15.309 -34.133,34.133 v 8.533 c 0,4.71 3.823,8.533 8.533,8.533 h 68.267 c 4.71,0 8.533,-3.823 8.533,-8.533 v -8.533 C 477.867,476.109 462.558,460.8 443.733,460.8 Z M 409.6,494.933 c 0,-9.412 7.654,-17.067 17.067,-17.067 h 17.067 c 9.412,0 17.067,7.654 17.067,17.067 z"
   id="path24"
   style="fill:#497da2;fill-opacity:1;stroke:none" /> </g> </g> </g> </g>

</svg>
