<?xml version="1.0" encoding="UTF-8" standalone="no"?>
<!-- Uploaded to: SVG Repo, www.svgrepo.com, Transformed by: SVG Repo Mixer Tools -->

<svg
   version="1.1"
   id="Layer_1"
   width="620.12006"
   height="640"
   viewBox="0 0 31.006003 32"
   enable-background="new 0 0 40 40"
   xml:space="preserve"
   fill="#4e8807"
   sodipodi:docname="idea-icon.svg"
   xmlns:inkscape="http://www.inkscape.org/namespaces/inkscape"
   xmlns:sodipodi="http://sodipodi.sourceforge.net/DTD/sodipodi-0.dtd"
   xmlns="http://www.w3.org/2000/svg"
   xmlns:svg="http://www.w3.org/2000/svg"><defs
   id="defs342" /><sodipodi:namedview
   id="namedview340"
   pagecolor="#505050"
   bordercolor="#eeeeee"
   borderopacity="1"
   inkscape:showpageshadow="0"
   inkscape:pageopacity="0"
   inkscape:pagecheckerboard="0"
   inkscape:deskcolor="#505050"
   showgrid="false" />





<g
   id="SVGRepo_iconCarrier"
   style="fill:#497da2;fill-opacity:1"
   transform="translate(-4.4970002,-4)"> <g
   display="none"
   id="g8"
   style="fill:#497da2;fill-opacity:1"> <path
   display="inline"
   d="m 20.01,36.5 c -0.277,0 -0.537,-0.137 -0.693,-0.368 L 9.468,21.529 C 8.297,19.668 7.678,17.536 7.678,15.367 7.678,8.824 13.206,3.5 20,3.5 c 6.795,0 12.322,5.324 12.322,11.867 0,2.164 -0.612,4.284 -1.77,6.129 L 20.701,36.132 C 20.547,36.363 20.287,36.5 20.01,36.5 Z M 20,5.17 c -5.873,0 -10.652,4.574 -10.652,10.197 0,1.854 0.525,3.669 1.52,5.251 l 9.14,13.55 9.146,-13.581 c 0.981,-1.566 1.499,-3.371 1.499,-5.22 C 30.652,9.744 25.873,5.17 20,5.17 Z"
   id="path4"
   style="fill:#497da2;fill-opacity:1" /> <path
   display="inline"
   d="m 20,20.857 c -3.159,0 -5.728,-2.482 -5.728,-5.535 0,-3.051 2.569,-5.534 5.728,-5.534 3.159,0 5.729,2.483 5.729,5.534 0,3.053 -2.571,5.535 -5.729,5.535 z m 0,-9.399 c -2.237,0 -4.057,1.734 -4.057,3.864 0,2.13 1.82,3.865 4.057,3.865 2.237,0 4.058,-1.734 4.058,-3.865 0,-2.13 -1.822,-3.864 -4.058,-3.864 z"
   id="path6"
   style="fill:#497da2;fill-opacity:1" /> </g> <path
   display="none"
   d="M 36.705,34.289 26.059,23.615 C 29.977,18.925 29.747,11.907 25.352,7.501 23.1,5.243 20.104,4 16.919,4 13.734,4 10.74,5.243 8.488,7.501 c -4.647,4.66 -4.647,12.241 0,16.899 2.253,2.257 5.248,3.5 8.431,3.5 2.866,0 5.573,-1.015 7.728,-2.86 l 10.639,10.665 c 0.193,0.197 0.452,0.295 0.708,0.295 0.256,0 0.514,-0.098 0.709,-0.293 0.393,-0.391 0.394,-1.027 0.002,-1.418 z M 9.766,23.126 c -3.945,-3.958 -3.945,-10.395 0,-14.351 1.912,-1.914 4.452,-2.97 7.153,-2.97 2.701,0 5.243,1.056 7.153,2.97 3.946,3.956 3.946,10.394 0,14.351 -1.91,1.914 -4.452,2.969 -7.153,2.969 -2.701,0 -5.241,-1.055 -7.153,-2.969 z"
   id="path10"
   style="fill:#497da2;fill-opacity:1" /> <path
   display="none"
   d="m 25.38,34.848 c -0.066,0 -0.136,-0.009 -0.206,-0.024 L 14.676,32.263 4.066,34.824 C 3.997,34.84 3.927,34.848 3.861,34.848 3.67,34.848 3.481,34.784 3.329,34.664 3.12,34.5 3,34.252 3,33.986 V 8.635 C 3,8.238 3.27,7.894 3.657,7.799 L 14.417,5.176 14.824,5.179 25.328,7.737 35.935,5.176 C 36,5.16 36.07,5.153 36.138,5.153 c 0.195,0 0.38,0.063 0.533,0.183 C 36.881,5.499 37,5.746 37,6.012 v 25.352 c 0,0.397 -0.27,0.741 -0.656,0.837 l -10.759,2.622 c -0.069,0.016 -0.139,0.025 -0.205,0.025 z m -9.899,-4.16 9.039,2.203 V 9.311 L 15.481,7.108 Z M 26.24,9.311 v 23.58 l 9.039,-2.202 V 7.108 Z m -21.519,0 v 23.58 L 13.76,30.689 V 7.108 Z"
   id="path12"
   style="fill:#497da2;fill-opacity:1" /> <g
   display="none"
   id="g20"
   style="fill:#497da2;fill-opacity:1"> <path
   display="inline"
   d="M 9.708,35 C 7.112,35 5,32.893 5,30.303 c 0,-2.592 2.112,-4.699 4.708,-4.699 2.595,0 4.707,2.107 4.707,4.699 0,2.59 -2.112,4.697 -4.707,4.697 z m 0,-7.555 c -1.578,0 -2.863,1.281 -2.863,2.857 0,1.574 1.285,2.855 2.863,2.855 1.578,0 2.861,-1.281 2.861,-2.855 -0.001,-1.575 -1.284,-2.857 -2.861,-2.857 z"
   id="path14"
   style="fill:#497da2;fill-opacity:1" /> <path
   display="inline"
   d="M 24.574,35 C 23.953,35 23.449,34.495 23.449,33.874 23.449,24.322 15.678,16.55 6.126,16.55 5.505,16.55 5,16.045 5,15.425 c 0,-0.62 0.505,-1.126 1.126,-1.126 10.792,0 19.573,8.781 19.573,19.575 0,0.621 -0.506,1.126 -1.125,1.126 z"
   id="path16"
   style="fill:#497da2;fill-opacity:1" /> <path
   display="inline"
   d="m 33.916,35 c -0.597,0 -1.082,-0.486 -1.082,-1.084 0,-14.75 -12,-26.751 -26.751,-26.751 C 5.486,7.165 5,6.68 5,6.083 5,5.486 5.486,5 6.083,5 22.027,5 35,17.972 35,33.916 35,34.514 34.514,35 33.916,35 Z"
   id="path18"
   style="fill:#497da2;fill-opacity:1" /> </g> <g
   display="none"
   id="g26"
   style="fill:#497da2;fill-opacity:1"> <path
   display="inline"
   fill-rule="evenodd"
   clip-rule="evenodd"
   d="m 20,29.616 c -6.911,0 -13.412,-3.681 -17,-9.615 3.588,-5.935 10.089,-9.617 17,-9.617 6.91,0 13.412,3.682 17,9.617 -3.588,5.935 -10.09,9.615 -17,9.615 z M 19.998,12.254 c -5.817,0 -11.309,2.848 -14.687,7.618 l -0.088,0.125 0.088,0.124 c 3.378,4.77 8.87,7.618 14.687,7.618 5.82,0 11.311,-2.849 14.687,-7.618 l 0.089,-0.124 -0.089,-0.125 C 31.309,15.103 25.818,12.254 19.998,12.254 Z"
   id="path22"
   style="fill:#497da2;fill-opacity:1" /> <path
   display="inline"
   fill-rule="evenodd"
   clip-rule="evenodd"
   d="m 19.987,13.521 c -3.574,0 -6.478,2.9 -6.478,6.479 0,3.579 2.904,6.478 6.478,6.478 3.581,0 6.478,-2.898 6.478,-6.478 0,-3.58 -2.897,-6.479 -6.478,-6.479 z m 0,11.336 c -2.68,0 -4.858,-2.175 -4.858,-4.858 0,-2.683 2.178,-4.859 4.858,-4.859 2.686,0 4.858,2.175 4.858,4.859 0,2.684 -2.172,4.858 -4.858,4.858 z"
   id="path24"
   style="fill:#497da2;fill-opacity:1" /> </g> <path
   display="none"
   d="m 7.336,35.5 c -0.399,0 -0.725,-0.325 -0.725,-0.726 v -7.599 c 0,-0.4 0.326,-0.725 0.725,-0.725 h 3.181 v -6.336 c 0,-0.342 0.276,-0.619 0.619,-0.619 h 8.247 v -5.949 h -3.181 c -0.398,0 -0.725,-0.325 -0.725,-0.726 V 5.223 C 15.477,4.824 15.803,4.5 16.202,4.5 H 23.8 c 0.398,0 0.725,0.324 0.725,0.723 v 7.599 c 0,0.401 -0.326,0.726 -0.725,0.726 h -3.18 v 5.949 h 8.245 c 0.341,0 0.618,0.277 0.618,0.619 v 6.336 h 3.182 c 0.397,0 0.724,0.324 0.724,0.725 v 7.599 c 0,0.399 -0.326,0.725 -0.724,0.725 h -7.599 c -0.4,0 -0.726,-0.325 -0.726,-0.725 v -7.599 c 0,-0.4 0.325,-0.725 0.726,-0.725 h 3.179 V 20.735 H 11.754 v 5.717 h 3.18 c 0.399,0 0.725,0.324 0.725,0.725 v 7.599 c 0,0.4 -0.325,0.726 -0.725,0.726 H 7.336 Z M 8.061,34.051 H 14.21 V 27.9 H 8.061 Z m 17.729,0 h 6.149 V 27.9 H 25.79 Z M 16.927,12.099 h 6.146 v -6.15 h -6.146 z"
   id="path28"
   style="fill:#497da2;fill-opacity:1" /> <g
   display="none"
   id="g38"
   style="fill:#497da2;fill-opacity:1"> <path
   display="inline"
   d="m 11.018,35.01 c -0.402,0 -0.736,-0.314 -0.759,-0.717 L 8.879,9.946 H 5.75 C 5.331,9.946 4.99,9.604 4.99,9.186 4.99,8.767 5.331,8.425 5.75,8.425 H 9.34 L 9.495,8.45 9.6,8.426 h 5.171 V 5.75 c 0,-0.419 0.34,-0.76 0.76,-0.76 h 8.939 c 0.419,0 0.76,0.341 0.76,0.76 v 2.676 h 5.174 l 0.175,0.028 0.118,-0.028 h 3.554 c 0.419,0 0.76,0.342 0.76,0.761 0,0.418 -0.341,0.76 -0.76,0.76 h -3.128 l -1.36,24.346 c -0.023,0.402 -0.356,0.718 -0.759,0.718 H 11.018 Z m 0.717,-1.52 H 28.284 L 29.6,9.946 H 10.4 Z M 16.29,8.426 h 7.42 V 6.51 h -7.42 z"
   id="path30"
   style="fill:#497da2;fill-opacity:1" /> <path
   display="inline"
   d="m 14.302,12.201 c -0.249,0.012 -0.435,0.102 -0.57,0.252 -0.135,0.152 -0.203,0.348 -0.192,0.551 l 0.998,17.608 c 0.024,0.401 0.357,0.716 0.759,0.716 v 0.19 l 0.045,-0.19 c 0.417,-0.024 0.737,-0.385 0.715,-0.804 L 15.058,12.918 c -0.024,-0.402 -0.356,-0.717 -0.756,-0.717 z"
   id="path32"
   style="fill:#497da2;fill-opacity:1" /> <path
   display="inline"
   d="m 25.709,12.202 c -0.445,0 -0.776,0.314 -0.8,0.716 l -1,17.606 c -0.022,0.419 0.298,0.779 0.717,0.804 l 0.044,0.19 v -0.19 c 0.402,0 0.735,-0.314 0.757,-0.716 l 1.001,-17.608 c 0.011,-0.203 -0.058,-0.398 -0.192,-0.551 -0.136,-0.15 -0.321,-0.24 -0.523,-0.251 -0.002,0 -0.003,0 -0.004,0 z"
   id="path34"
   style="fill:#497da2;fill-opacity:1" /> <path
   display="inline"
   d="m 20,12.201 c -0.419,0 -0.76,0.341 -0.76,0.76 v 17.607 c 0,0.419 0.341,0.76 0.76,0.76 0.419,0 0.76,-0.341 0.76,-0.76 V 12.961 c 0,-0.419 -0.341,-0.76 -0.76,-0.76 z"
   id="path36"
   style="fill:#497da2;fill-opacity:1" /> </g> <g
   display="none"
   id="g46"
   style="fill:#497da2;fill-opacity:1"> <path
   display="inline"
   d="M 8.236,15.765 C 5.901,15.765 4,17.665 4,20 c 0,2.336 1.901,4.234 4.236,4.234 2.336,0 4.235,-1.898 4.235,-4.234 10e-4,-2.335 -1.899,-4.235 -4.235,-4.235 z m 0,7.059 c -1.557,0 -2.823,-1.268 -2.823,-2.824 0,-1.557 1.267,-2.824 2.823,-2.824 1.558,0 2.822,1.267 2.822,2.824 10e-4,1.557 -1.264,2.824 -2.822,2.824 z"
   id="path40"
   style="fill:#497da2;fill-opacity:1" /> <path
   display="inline"
   d="m 20,15.765 c -2.334,0 -4.236,1.899 -4.236,4.235 0,2.336 1.902,4.234 4.236,4.234 2.337,0 4.236,-1.898 4.236,-4.234 0,-2.335 -1.899,-4.235 -4.236,-4.235 z m 0,7.059 c -1.557,0 -2.822,-1.268 -2.822,-2.824 0,-1.557 1.266,-2.824 2.822,-2.824 1.559,0 2.822,1.267 2.822,2.824 0,1.557 -1.263,2.824 -2.822,2.824 z"
   id="path42"
   style="fill:#497da2;fill-opacity:1" /> <path
   display="inline"
   d="m 31.764,15.765 c -2.334,0 -4.235,1.899 -4.235,4.235 0,2.336 1.901,4.234 4.235,4.234 C 34.101,24.234 36,22.336 36,20 36,17.665 34.101,15.765 31.764,15.765 Z m 0,7.059 c -1.556,0 -2.822,-1.268 -2.822,-2.824 0,-1.557 1.267,-2.824 2.822,-2.824 1.559,0 2.823,1.267 2.823,2.824 0,1.557 -1.265,2.824 -2.823,2.824 z"
   id="path44"
   style="fill:#497da2;fill-opacity:1" /> </g> <path
   display="none"
   d="M 33.125,19.125 H 8.98 L 20.841,7.5 C 21.186,7.162 21.192,6.608 20.854,6.263 20.516,5.918 19.962,5.913 19.617,6.251 L 6.262,19.339 C 6.095,19.503 6,19.729 6,19.965 c 0,0.005 0,0.011 0,0.017 0,0.007 0,0.012 0,0.018 0,0.319 0.171,0.598 0.427,0.751 L 19.69,33.75 c 0.17,0.167 0.392,0.25 0.613,0.25 0.227,0 0.453,-0.088 0.625,-0.262 0.338,-0.346 0.332,-0.9 -0.013,-1.238 L 9.055,20.875 h 24.07 C 33.607,20.875 34,20.483 34,20 34,19.517 33.607,19.125 33.125,19.125 Z"
   id="path48"
   style="fill:#497da2;fill-opacity:1" /> <path
   display="none"
   d="m 34,20 c 0,-0.32 -0.172,-0.599 -0.428,-0.751 L 20.31,6.25 C 19.965,5.912 19.411,5.917 19.073,6.262 18.735,6.607 18.738,7.161 19.084,7.5 L 30.945,19.125 H 6.875 C 6.393,19.125 6,19.517 6,20 c 0,0.483 0.393,0.875 0.875,0.875 H 31.02 L 19.158,32.5 c -0.344,0.339 -0.35,0.893 -0.012,1.238 0.172,0.174 0.399,0.262 0.625,0.262 0.221,0 0.442,-0.083 0.612,-0.25 L 33.736,20.661 C 33.904,20.497 34,20.271 34,20.035 34,20.03 33.999,20.024 33.999,20.018 33.999,20.011 34,20.006 34,20 Z"
   id="path50"
   style="fill:#497da2;fill-opacity:1" /> <path
   display="none"
   d="M 33.75,19.616 20.66,6.262 C 20.496,6.095 20.271,6 20.037,6 20.03,6 20.023,6.001 20.017,6.001 20.011,6.001 20.006,6 20,6 19.68,6 19.402,6.172 19.249,6.428 L 6.25,19.69 c -0.338,0.345 -0.332,0.899 0.013,1.237 0.171,0.167 0.391,0.25 0.612,0.25 C 7.102,21.176 7.329,21.089 7.5,20.914 L 19.125,9.054 v 24.07 c 0,0.483 0.393,0.876 0.875,0.876 0.483,0 0.875,-0.393 0.875,-0.875 V 8.981 L 32.5,20.841 c 0.338,0.345 0.893,0.35 1.237,0.013 0.345,-0.339 0.351,-0.894 0.013,-1.238 z"
   id="path52"
   style="fill:#497da2;fill-opacity:1" /> <path
   display="none"
   d="M 33.737,19.071 C 33.392,18.734 32.838,18.739 32.5,19.085 L 20.875,30.945 V 6.875 C 20.875,6.392 20.483,6 20,6 19.518,6 19.125,6.392 19.125,6.875 V 31.02 L 7.5,19.159 C 7.162,18.814 6.608,18.808 6.263,19.146 5.918,19.484 5.912,20.038 6.25,20.383 l 13.09,13.354 c 0.164,0.168 0.389,0.263 0.625,0.263 0.005,0 0.012,-10e-4 0.018,-10e-4 0.006,0 0.011,10e-4 0.017,10e-4 0.32,0 0.599,-0.172 0.752,-0.428 L 33.75,20.31 c 0.338,-0.345 0.332,-0.9 -0.013,-1.239 z"
   id="path54"
   style="fill:#497da2;fill-opacity:1" /> <path
   display="none"
   d="m 26.714,34 c -0.222,0 -0.442,-0.083 -0.612,-0.251 L 12.673,20.589 c -0.167,-0.164 -0.262,-0.39 -0.262,-0.624 0,-0.236 0.095,-0.462 0.262,-0.626 L 26.027,6.251 c 0.344,-0.339 0.898,-0.334 1.237,0.011 0.338,0.346 0.331,0.899 -0.013,1.237 l -12.715,12.466 12.79,12.536 c 0.345,0.337 0.351,0.892 0.013,1.237 C 27.168,33.912 26.939,34 26.714,34 Z"
   id="path56"
   style="fill:#497da2;fill-opacity:1" /> <path
   display="none"
   d="m 13.36,34 c -0.225,0 -0.453,-0.088 -0.624,-0.262 -0.339,-0.346 -0.333,-0.899 0.01,-1.237 L 25.463,20.035 12.673,7.499 C 12.328,7.16 12.323,6.606 12.66,6.262 13,5.918 13.554,5.912 13.898,6.25 l 13.429,13.161 c 0.167,0.164 0.262,0.39 0.262,0.624 0,0.236 -0.094,0.461 -0.262,0.625 L 13.974,33.75 C 13.803,33.917 13.581,34 13.36,34 Z"
   id="path58"
   style="fill:#497da2;fill-opacity:1" /> <path
   display="none"
   d="M 5.938,28.131 C 5.702,28.131 5.464,28.042 5.281,27.862 4.913,27.5 4.906,26.906 5.269,26.537 L 19.37,12.149 c 0.176,-0.179 0.417,-0.28 0.669,-0.28 0.252,0 0.493,0.101 0.669,0.28 l 14.023,14.308 c 0.363,0.369 0.356,0.963 -0.012,1.326 -0.37,0.361 -0.965,0.356 -1.326,-0.014 L 20.039,14.146 6.608,27.85 c -0.185,0.187 -0.426,0.28 -0.67,0.281 z"
   id="path60"
   style="fill:#497da2;fill-opacity:1" /> <path
   display="none"
   d="m 19.962,28.131 c -0.253,0 -0.493,-0.102 -0.67,-0.281 L 5.27,13.542 C 4.906,13.172 4.913,12.579 5.281,12.216 5.653,11.854 6.246,11.86 6.607,12.229 L 19.961,25.854 33.394,12.15 c 0.361,-0.37 0.954,-0.376 1.326,-0.015 0.368,0.363 0.375,0.957 0.013,1.327 L 20.632,27.85 c -0.178,0.179 -0.418,0.281 -0.67,0.281 z"
   id="path62"
   style="fill:#497da2;fill-opacity:1" /> <g
   display="none"
   id="g82"
   style="fill:#497da2;fill-opacity:1"> <path
   display="inline"
   d="M 6.72,34 C 6.323,34 6,33.678 6,33.281 V 27.47 c 0,-0.396 0.323,-0.721 0.72,-0.721 h 5.81 c 0.397,0 0.72,0.324 0.72,0.721 v 5.811 C 13.25,33.677 12.927,34 12.53,34 Z M 7.439,32.561 H 11.81 V 28.19 H 7.439 Z"
   id="path64"
   style="fill:#497da2;fill-opacity:1" /> <path
   display="inline"
   d="m 17.095,34 c -0.396,0 -0.72,-0.322 -0.72,-0.719 V 27.47 c 0,-0.396 0.323,-0.721 0.72,-0.721 h 5.811 c 0.396,0 0.72,0.324 0.72,0.721 v 5.811 c 0,0.396 -0.323,0.719 -0.72,0.719 z m 0.72,-1.439 h 4.371 V 28.19 h -4.371 z"
   id="path66"
   style="fill:#497da2;fill-opacity:1" /> <path
   display="inline"
   d="M 27.471,34 C 27.074,34 26.75,33.678 26.75,33.281 V 27.47 c 0,-0.396 0.323,-0.721 0.721,-0.721 h 5.81 c 0.396,0 0.72,0.324 0.72,0.721 v 5.811 C 34,33.678 33.677,34 33.28,34 Z m 0.718,-1.439 H 32.56 V 28.19 h -4.371 z"
   id="path68"
   style="fill:#497da2;fill-opacity:1" /> <path
   display="inline"
   d="M 6.72,23.625 C 6.324,23.625 6,23.303 6,22.906 v -5.811 c 0,-0.397 0.323,-0.72 0.72,-0.72 h 5.81 c 0.397,0 0.72,0.323 0.72,0.72 v 5.811 c 0,0.396 -0.323,0.719 -0.72,0.719 z M 7.439,22.186 H 11.81 V 17.815 H 7.439 Z"
   id="path70"
   style="fill:#497da2;fill-opacity:1" /> <path
   display="inline"
   d="m 17.095,23.625 c -0.396,0 -0.72,-0.322 -0.72,-0.719 v -5.811 c 0,-0.397 0.323,-0.72 0.72,-0.72 h 5.811 c 0.396,0 0.72,0.323 0.72,0.72 v 5.811 c 0,0.396 -0.323,0.719 -0.72,0.719 z m 0.72,-1.439 h 4.371 v -4.371 h -4.371 z"
   id="path72"
   style="fill:#497da2;fill-opacity:1" /> <path
   display="inline"
   d="m 27.471,23.625 c -0.397,0 -0.721,-0.322 -0.721,-0.719 v -5.811 c 0,-0.397 0.323,-0.72 0.721,-0.72 h 5.81 c 0.396,0 0.72,0.323 0.72,0.72 v 5.811 c 0,0.396 -0.323,0.719 -0.72,0.719 z m 0.718,-1.439 h 4.371 v -4.371 h -4.371 z"
   id="path74"
   style="fill:#497da2;fill-opacity:1" /> <path
   display="inline"
   d="M 6.72,13.25 C 6.323,13.25 6,12.927 6,12.531 V 6.721 C 6,6.324 6.323,6 6.72,6 h 5.81 c 0.397,0 0.72,0.323 0.72,0.72 v 5.81 c 0,0.396 -0.323,0.719 -0.72,0.719 H 6.72 Z M 7.439,11.811 H 11.81 V 7.439 H 7.439 Z"
   id="path76"
   style="fill:#497da2;fill-opacity:1" /> <path
   display="inline"
   d="m 17.095,13.25 c -0.396,0 -0.72,-0.322 -0.72,-0.719 v -5.81 c 0,-0.397 0.323,-0.72 0.72,-0.72 h 5.811 c 0.396,0 0.72,0.323 0.72,0.72 v 5.81 c 0,0.396 -0.323,0.719 -0.72,0.719 z m 0.72,-1.439 h 4.371 V 7.439 h -4.371 z"
   id="path78"
   style="fill:#497da2;fill-opacity:1" /> <path
   display="inline"
   d="m 27.471,13.25 c -0.397,0 -0.721,-0.322 -0.721,-0.719 v -5.81 c 0,-0.397 0.323,-0.72 0.721,-0.72 h 5.81 C 33.677,6 34,6.324 34,6.721 v 5.81 c 0,0.396 -0.323,0.719 -0.72,0.719 z m 0.718,-1.439 H 32.56 V 7.439 h -4.371 z"
   id="path80"
   style="fill:#497da2;fill-opacity:1" /> </g> <g
   display="none"
   id="g102"
   style="fill:#497da2;fill-opacity:1"> <path
   display="inline"
   d="M 16.225,8.013 H 33.174 C 33.63,8.013 34,7.642 34,7.185 34,6.73 33.63,6.359 33.174,6.359 H 16.225 c -0.457,0 -0.827,0.371 -0.827,0.826 0,0.457 0.37,0.828 0.827,0.828 z"
   id="path84"
   style="fill:#497da2;fill-opacity:1" /> <path
   display="inline"
   d="M 33.174,11.423 H 16.225 c -0.457,0 -0.827,0.369 -0.827,0.826 0,0.457 0.37,0.826 0.827,0.826 h 16.949 c 0.456,0 0.826,-0.369 0.826,-0.826 0,-0.457 -0.37,-0.826 -0.826,-0.826 z"
   id="path86"
   style="fill:#497da2;fill-opacity:1" /> <path
   display="inline"
   d="M 33.174,16.692 H 16.225 c -0.457,0 -0.827,0.371 -0.827,0.827 0,0.456 0.37,0.827 0.827,0.827 h 16.949 c 0.456,0 0.826,-0.371 0.826,-0.827 0,-0.456 -0.37,-0.827 -0.826,-0.827 z"
   id="path88"
   style="fill:#497da2;fill-opacity:1" /> <path
   display="inline"
   d="M 33.174,21.653 H 16.225 c -0.457,0 -0.827,0.371 -0.827,0.827 0,0.456 0.37,0.827 0.827,0.827 H 33.174 C 33.63,23.307 34,22.936 34,22.48 34,22.024 33.63,21.653 33.174,21.653 Z"
   id="path90"
   style="fill:#497da2;fill-opacity:1" /> <path
   display="inline"
   d="M 33.174,27.027 H 16.225 c -0.457,0 -0.827,0.37 -0.827,0.827 0,0.456 0.37,0.826 0.827,0.826 H 33.174 C 33.63,28.68 34,28.31 34,27.854 34,27.397 33.63,27.027 33.174,27.027 Z"
   id="path92"
   style="fill:#497da2;fill-opacity:1" /> <path
   display="inline"
   d="M 33.174,31.987 H 16.225 c -0.457,0 -0.827,0.371 -0.827,0.828 0,0.455 0.37,0.826 0.827,0.826 H 33.174 C 33.63,33.641 34,33.27 34,32.815 34,32.358 33.63,31.987 33.174,31.987 Z"
   id="path94"
   style="fill:#497da2;fill-opacity:1" /> <path
   display="inline"
   d="M 6.717,33.53 C 6.322,33.53 6,33.21 6,32.815 v -4.961 c 0,-0.396 0.322,-0.717 0.717,-0.717 h 4.961 c 0.395,0 0.717,0.321 0.717,0.717 v 4.961 c 0,0.395 -0.322,0.715 -0.717,0.715 z M 7.434,32.098 H 10.96 V 28.57 H 7.434 Z"
   id="path96"
   style="fill:#497da2;fill-opacity:1" /> <path
   display="inline"
   d="M 6.717,23.196 C 6.322,23.196 6,22.876 6,22.48 v -4.96 c 0,-0.396 0.322,-0.717 0.717,-0.717 h 4.961 c 0.395,0 0.717,0.321 0.717,0.717 v 4.961 c 0,0.396 -0.322,0.716 -0.717,0.716 H 6.717 Z M 7.434,21.763 H 10.96 V 18.236 H 7.434 Z"
   id="path98"
   style="fill:#497da2;fill-opacity:1" /> <path
   display="inline"
   d="M 6.717,12.862 C 6.322,12.862 6,12.541 6,12.146 V 7.185 C 6,6.79 6.322,6.468 6.717,6.468 h 4.961 c 0.395,0 0.717,0.322 0.717,0.717 v 4.961 c 0,0.396 -0.322,0.717 -0.717,0.717 H 6.717 Z M 7.434,11.429 H 10.96 V 7.901 H 7.434 Z"
   id="path100"
   style="fill:#497da2;fill-opacity:1" /> </g> <g
   display="none"
   id="g112"
   style="fill:#497da2;fill-opacity:1"> <path
   display="inline"
   d="M 34.063,10.625 H 5.938 C 5.419,10.625 5,10.204 5,9.688 5,9.17 5.419,8.75 5.938,8.75 H 34.063 C 34.58,8.75 35,9.17 35,9.688 c 0,0.516 -0.42,0.937 -0.937,0.937"
   id="path104"
   style="fill:#497da2;fill-opacity:1" /> <path
   display="inline"
   d="M 34.063,20.938 H 5.938 C 5.419,20.938 5,20.517 5,20 5,19.482 5.419,19.062 5.938,19.062 H 34.063 C 34.58,19.063 35,19.482 35,20 c 0,0.517 -0.42,0.938 -0.937,0.938"
   id="path106"
   style="fill:#497da2;fill-opacity:1" /> <path
   display="inline"
   d="M 34.063,31.25 H 5.938 C 5.419,31.25 5,30.829 5,30.313 5,29.795 5.419,29.375 5.938,29.375 h 28.125 c 0.518,0 0.938,0.42 0.938,0.938 C 35,30.829 34.58,31.25 34.063,31.25"
   id="path108"
   style="fill:#497da2;fill-opacity:1" /> <path
   display="inline"
   d="M 34.063,20.938 H 5.938 C 5.419,20.938 5,20.517 5,20 5,19.482 5.419,19.062 5.938,19.062 H 34.063 C 34.58,19.063 35,19.482 35,20 c 0,0.517 -0.42,0.938 -0.937,0.938"
   id="path110"
   style="fill:#497da2;fill-opacity:1" /> </g> <path
   display="none"
   d="M 21.414,20 33.207,8.207 c 0.391,-0.39 0.391,-1.023 0,-1.414 -0.391,-0.391 -1.023,-0.391 -1.414,0 L 20,18.586 8.207,6.793 c -0.39,-0.391 -1.023,-0.391 -1.414,0 -0.391,0.391 -0.391,1.023 0,1.414 L 18.586,20 6.793,31.793 c -0.391,0.391 -0.391,1.023 0,1.414 0.195,0.195 0.452,0.293 0.707,0.293 0.256,0 0.511,-0.098 0.707,-0.293 L 20,21.414 31.793,33.207 c 0.195,0.195 0.451,0.293 0.707,0.293 0.256,0 0.512,-0.098 0.707,-0.293 0.391,-0.391 0.391,-1.023 0,-1.414 z"
   id="path114"
   style="fill:#497da2;fill-opacity:1" /> <path
   display="none"
   d="M 9.411,35 C 9,35 8.653,34.658 8.653,34.254 V 5.758 C 8.653,5.34 8.992,5 9.411,5 h 14.706 c 0.198,0 0.394,0.084 0.546,0.236 l 6.449,6.461 c 0.15,0.13 0.235,0.324 0.235,0.535 V 34.253 C 31.347,34.658 31,35 30.589,35 Z M 10.17,33.496 H 29.842 V 12.989 h -5.726 c -0.419,0 -0.759,-0.34 -0.759,-0.757 V 6.504 H 10.17 Z M 24.875,11.485 h 3.9 l -3.9,-3.914 z"
   id="path116"
   style="fill:#497da2;fill-opacity:1" /> <g
   display="none"
   id="g126"
   style="fill:#497da2;fill-opacity:1"> <path
   display="inline"
   d="m 12.966,17.262 c -0.483,0 -0.878,0.395 -0.878,0.878 0,0.483 0.395,0.877 0.878,0.877 h 13.518 c 0.483,0 0.878,-0.394 0.878,-0.877 0,-0.483 -0.395,-0.878 -0.878,-0.878 z"
   id="path118"
   style="fill:#497da2;fill-opacity:1" /> <path
   display="inline"
   d="M 9.411,35 C 9,35 8.652,34.658 8.652,34.254 V 5.758 C 8.652,5.34 8.992,5 9.411,5 h 14.704 c 0.2,0 0.395,0.084 0.547,0.236 l 6.449,6.461 c 0.15,0.13 0.236,0.324 0.236,0.534 v 22.022 c 0,0.404 -0.349,0.746 -0.759,0.746 H 9.411 Z M 10.17,33.496 H 29.842 V 12.989 h -5.727 c -0.417,0 -0.758,-0.34 -0.758,-0.757 V 6.504 H 10.17 Z M 24.875,11.485 h 3.9 l -3.9,-3.915 z"
   id="path120"
   style="fill:#497da2;fill-opacity:1" /> <path
   display="inline"
   d="m 12.966,21.164 c -0.483,0 -0.878,0.395 -0.878,0.878 0,0.483 0.395,0.878 0.878,0.878 h 13.518 c 0.483,0 0.878,-0.395 0.878,-0.878 0,-0.483 -0.395,-0.878 -0.878,-0.878 z"
   id="path122"
   style="fill:#497da2;fill-opacity:1" /> <path
   display="inline"
   d="m 12.966,25.065 c -0.483,0 -0.878,0.395 -0.878,0.878 0,0.484 0.395,0.877 0.878,0.877 h 13.518 c 0.483,0 0.878,-0.393 0.878,-0.877 0,-0.483 -0.395,-0.878 -0.878,-0.878 z"
   id="path124"
   style="fill:#497da2;fill-opacity:1" /> </g> <g
   display="none"
   id="g142"
   style="fill:#497da2;fill-opacity:1"> <path
   display="inline"
   d="m 14.766,16.227 c 0,0.45 0.367,0.816 0.817,0.816 h 12.578 c 0.449,0 0.817,-0.367 0.817,-0.816 0,-0.451 -0.368,-0.817 -0.817,-0.817 H 15.583 c -0.45,0 -0.817,0.366 -0.817,0.817 z"
   id="path128"
   style="fill:#497da2;fill-opacity:1" /> <path
   display="inline"
   d="M 32.468,10.232 26.466,4.219 C 26.324,4.078 26.144,4 25.959,4 H 12.274 c -0.389,0 -0.706,0.316 -0.706,0.706 v 26.516 c 0,0.377 0.323,0.694 0.706,0.694 h 14.757 v 2.685 H 8.727 V 9.484 H 11.5 v -1.4 H 8.02 c -0.389,0 -0.706,0.317 -0.706,0.707 V 35.306 C 7.313,35.683 7.637,36 8.02,36 h 19.706 c 0.383,0 0.706,-0.317 0.706,-0.694 v -3.39 h 3.549 c 0.383,0 0.706,-0.317 0.706,-0.694 V 10.729 c 0,-0.196 -0.08,-0.375 -0.219,-0.497 z m -5.804,-3.839 3.63,3.642 h -3.63 z m 4.622,24.123 H 12.981 V 5.399 h 12.271 v 5.33 c 0,0.388 0.315,0.705 0.706,0.705 h 5.327 v 19.082 z"
   id="path130"
   style="fill:#497da2;fill-opacity:1" /> <path
   display="inline"
   d="M 28.161,19.041 H 15.583 c -0.45,0 -0.817,0.367 -0.817,0.817 0,0.45 0.367,0.816 0.817,0.816 h 12.578 c 0.449,0 0.817,-0.367 0.817,-0.816 10e-4,-0.451 -0.368,-0.817 -0.817,-0.817 z"
   id="path132"
   style="fill:#497da2;fill-opacity:1" /> <path
   display="inline"
   d="M 28.161,22.672 H 15.583 c -0.45,0 -0.817,0.365 -0.817,0.816 0,0.451 0.367,0.816 0.817,0.816 h 12.578 c 0.449,0 0.817,-0.365 0.817,-0.816 0,-0.451 -0.368,-0.816 -0.817,-0.816 z"
   id="path134"
   style="fill:#497da2;fill-opacity:1" /> <path
   display="inline"
   d="m 11.5,19.495 h -0.172 c -0.45,0 -0.817,0.367 -0.817,0.816 0,0.451 0.367,0.818 0.817,0.818 H 11.5 Z"
   id="path136"
   style="fill:#497da2;fill-opacity:1" /> <path
   display="inline"
   d="m 11.5,23.125 h -0.172 c -0.45,0 -0.817,0.367 -0.817,0.816 0,0.451 0.367,0.818 0.817,0.818 H 11.5 Z"
   id="path138"
   style="fill:#497da2;fill-opacity:1" /> <path
   display="inline"
   d="m 10.511,27.573 c 0,0.45 0.367,0.816 0.817,0.816 H 11.5 v -1.634 h -0.172 c -0.45,0.001 -0.817,0.368 -0.817,0.818 z"
   id="path140"
   style="fill:#497da2;fill-opacity:1" /> </g> <path
   display="none"
   d="M 35.823,14.582 C 35.678,14.408 35.464,14.308 35.238,14.308 H 32.952 V 8.381 c 0,-0.42 -0.341,-0.762 -0.762,-0.762 H 7.81 C 7.389,7.619 7.048,7.96 7.048,8.381 V 11.66 H 4.762 c -0.222,0 -0.435,0.097 -0.579,0.267 -0.145,0.169 -0.208,0.394 -0.173,0.614 l 3.048,19.197 c 0.06,0.369 0.377,0.643 0.752,0.643 h 24.38 c 0.367,0 0.683,-0.264 0.75,-0.625 l 3.048,-16.549 c 0.04,-0.222 -0.019,-0.452 -0.165,-0.625 z M 8.571,9.144 h 22.857 v 5.165 H 16.437 L 12.816,11.797 C 12.689,11.708 12.539,11.661 12.381,11.661 H 8.571 Z M 31.558,30.856 H 8.46 L 5.655,13.184 h 6.487 l 3.621,2.511 c 0.127,0.089 0.28,0.137 0.435,0.137 h 18.125 z"
   id="path144"
   style="fill:#497da2;fill-opacity:1" /> <path
   display="none"
   d="M 8.944,35 C 7.89,35 6.9,34.59 6.155,33.844 5.41,33.1 5,32.109 5,31.056 5,30.003 5.41,29.012 6.155,28.268 L 18.704,15.719 17.808,11.724 c -0.074,-0.276 0.004,-0.569 0.202,-0.768 L 23.737,5.232 C 23.887,5.083 24.084,5 24.295,5 c 0.069,0 0.138,0.009 0.203,0.027 L 28.8,6.18 c 0.271,0.072 0.485,0.285 0.558,0.556 0.072,0.272 -0.006,0.564 -0.203,0.762 l -4.27,4.271 0.609,2.497 2.623,0.883 4.383,-4.301 c 0.15,-0.15 0.348,-0.232 0.56,-0.232 0.069,0 0.138,0.009 0.204,0.026 0.271,0.073 0.484,0.288 0.557,0.559 l 1.152,4.302 c 0.074,0.272 -0.004,0.563 -0.203,0.761 l -5.727,5.726 c -0.149,0.15 -0.347,0.231 -0.558,0.231 -0.069,0 -0.138,-0.009 -0.203,-0.027 l -3.673,-0.983 -2.324,2.084 -10.552,10.55 C 10.988,34.59 9.997,35 8.944,35 Z m 10.505,-23.25 1.035,3.862 c 0.072,0.271 -0.006,0.563 -0.204,0.761 L 7.27,29.382 c -0.447,0.446 -0.694,1.042 -0.694,1.674 0,0.633 0.247,1.227 0.694,1.673 0.449,0.448 1.043,0.695 1.674,0.695 0.632,0 1.227,-0.247 1.674,-0.695 L 23.627,19.724 c 0.146,-0.147 0.35,-0.231 0.559,-0.231 0.069,0 0.138,0.009 0.203,0.026 l 3.672,0.983 5.131,-4.89 -0.387,-2.106 -0.154,-0.579 -3.672,3.673 c -0.149,0.149 -0.348,0.231 -0.558,0.231 -0.069,0 -0.138,-0.009 -0.203,-0.026 L 24.697,15.862 C 24.426,15.79 24.213,15.577 24.14,15.306 l -0.943,-3.521 c -0.072,-0.272 0.006,-0.564 0.203,-0.762 l 3.673,-3.672 -2.544,-0.68 z"
   id="path146"
   style="fill:#497da2;fill-opacity:1" /> <path
   display="none"
   d="M 35.667,18.241 20.476,7.193 C 20.338,7.091 20.173,7.038 20,7.038 c -0.173,0 -0.337,0.054 -0.477,0.155 l -6.715,4.884 v -1.85 c 0,-0.53 -0.371,-0.961 -0.828,-0.961 H 8.334 c -0.457,0 -0.828,0.432 -0.828,0.961 v 5.706 l -3.173,2.308 c -0.361,0.263 -0.441,0.771 -0.178,1.132 0.151,0.208 0.397,0.332 0.655,0.332 0.172,0 0.336,-0.053 0.477,-0.154 l 2.321,-1.688 v 14.29 c 0,0.447 0.363,0.811 0.81,0.811 h 8.178 c 0.447,0 0.81,-0.363 0.81,-0.811 v -9.715 h 5.191 v 9.715 c 0,0.447 0.362,0.811 0.809,0.811 h 8.178 c 0.447,0 0.811,-0.363 0.811,-0.811 v -14.29 l 2.322,1.688 c 0.137,0.101 0.301,0.154 0.475,0.154 0.259,0 0.504,-0.124 0.656,-0.332 0.259,-0.362 0.179,-0.869 -0.181,-1.132 z M 9.162,11.188 h 1.991 v 2.092 l -1.991,1.448 z m 21.61,20.154 h -6.558 v -9.714 c 0,-0.446 -0.363,-0.81 -0.811,-0.81 h -6.809 c -0.447,0 -0.81,0.364 -0.81,0.81 v 9.714 H 9.228 V 16.684 L 20,8.85 30.772,16.684 Z"
   id="path148"
   style="fill:#497da2;fill-opacity:1" /> <g
   display="none"
   id="g152"
   style="fill:#497da2;fill-opacity:1"> <path
   display="inline"
   d="M 9.196,36 C 8.766,36 8.43,35.662 8.43,35.233 c 0,-0.431 0.336,-0.768 0.766,-0.768 h 2.006 V 10.234 L 11.131,10.213 C 10.464,10.012 9.903,9.625 9.465,9.065 9.029,8.51 8.809,7.864 8.809,7.145 8.809,6.265 9.117,5.515 9.724,4.916 10.337,4.308 11.092,4 11.968,4 c 0.888,0 1.627,0.299 2.26,0.915 0.617,0.604 0.93,1.354 0.93,2.229 0,0.708 -0.226,1.354 -0.672,1.92 -0.449,0.576 -0.998,0.951 -1.681,1.147 l -0.072,0.021 v 0.956 l 10.374,2.568 c 0.359,0.089 0.602,0.397 0.602,0.77 v 2.013 l 9.285,2.478 c 0.355,0.093 0.543,0.315 0.572,0.681 0.027,0.363 -0.113,0.622 -0.417,0.77 l -9.903,4.772 c -0.1,0.066 -0.202,0.098 -0.32,0.098 -0.144,0 -0.285,-0.043 -0.418,-0.125 -0.237,-0.148 -0.348,-0.357 -0.348,-0.656 v -1.558 l -9.426,3.362 v 8.104 h 2.037 c 0.438,0 0.782,0.337 0.782,0.768 0,0.429 -0.343,0.767 -0.782,0.767 H 9.196 Z M 12.734,24.729 22.16,21.37 v -6.242 l -9.426,-2.334 z m 10.975,-1.399 6.888,-3.335 -6.888,-1.85 z M 11.964,5.534 c -0.433,0 -0.836,0.166 -1.137,0.468 -0.625,0.624 -0.625,1.654 -10e-4,2.297 0.297,0.306 0.701,0.474 1.138,0.474 0.437,0 0.848,-0.168 1.16,-0.473 C 13.445,7.988 13.621,7.574 13.618,7.135 13.615,6.702 13.439,6.3 13.123,6 12.808,5.7 12.396,5.534 11.964,5.534 Z"
   id="path150"
   style="fill:#497da2;fill-opacity:1" /> </g> <path
   display="none"
   d="m 33.334,12.095 h -6.857 v -1.143 c 0,-1.996 -1.623,-3.619 -3.619,-3.619 h -5.714 c -1.995,0 -3.619,1.623 -3.619,3.619 v 1.143 H 6.667 C 5.196,12.095 4,13.292 4,14.762 V 20.476 30 c 0,1.471 1.196,2.666 2.667,2.666 H 33.334 C 34.805,32.666 36,31.471 36,30 v -9.524 -5.714 c 0,-1.47 -1.195,-2.667 -2.666,-2.667 z M 15.048,10.952 c 0,-1.154 0.94,-2.095 2.095,-2.095 h 5.714 c 1.155,0 2.095,0.941 2.095,2.095 v 1.143 h -9.904 z m -9.524,3.81 c 0,-0.631 0.513,-1.143 1.143,-1.143 h 26.667 c 0.631,0 1.143,0.512 1.143,1.143 v 4.953 H 5.524 Z m 19.238,6.476 h 3.81 v 2.158 h -3.81 z m -13.332,0 h 3.81 v 2.158 h -3.81 z m 21.904,9.905 H 6.667 C 6.037,31.143 5.524,30.629 5.524,30 v -8.762 h 4.382 v 2.92 c 0,0.422 0.34,0.762 0.762,0.762 h 5.333 c 0.421,0 0.762,-0.34 0.762,-0.762 v -2.92 h 6.476 v 2.92 c 0,0.422 0.342,0.762 0.762,0.762 h 5.334 c 0.421,0 0.762,-0.34 0.762,-0.762 v -2.92 h 4.381 V 30 c -0.001,0.629 -0.513,1.143 -1.144,1.143 z"
   id="path154"
   style="fill:#497da2;fill-opacity:1" /> <path
   display="none"
   d="m 25.033,14.427 v -5.28 c 1.936,-0.543 3.324,-2.324 3.324,-4.388 0,-0.42 -0.34,-0.76 -0.76,-0.76 H 12.402 c -0.419,0 -0.76,0.339 -0.76,0.76 0,2.063 1.389,3.844 3.324,4.388 v 5.28 c -1.935,0.543 -3.324,2.324 -3.324,4.389 v 1.899 c 0,0.419 0.34,0.759 0.76,0.759 h 5.01 c 0.125,3.184 0.419,6.59 0.821,9.459 0.186,1.328 0.384,2.461 0.572,3.277 0.204,0.88 0.413,1.79 1.195,1.79 0.781,0 0.991,-0.91 1.195,-1.789 0.188,-0.816 0.386,-1.949 0.572,-3.277 0.402,-2.869 0.697,-6.275 0.822,-9.459 h 5.008 c 0.42,0 0.76,-0.34 0.76,-0.759 v -1.899 c 0,-2.066 -1.388,-3.847 -3.324,-4.39 z M 20,32.434 c -0.412,-2.4 -0.888,-6.395 -1.068,-10.959 h 2.137 C 20.891,26.039 20.414,30.033 20,32.434 Z m 6.838,-12.478 h -4.982 -3.711 -4.982 v -1.14 c 0,-1.531 1.144,-2.826 2.659,-3.015 0.38,-0.047 0.665,-0.371 0.665,-0.754 V 8.527 C 16.487,8.144 16.202,7.821 15.822,7.774 14.566,7.618 13.564,6.701 13.259,5.52 H 26.741 C 26.436,6.701 25.435,7.618 24.18,7.774 23.8,7.821 23.513,8.145 23.513,8.527 v 6.521 c 0,0.383 0.287,0.707 0.667,0.754 1.516,0.189 2.657,1.484 2.657,3.015 v 1.139 z"
   id="path156"
   style="fill:#497da2;fill-opacity:1" /> <g
   display="none"
   id="g162"
   style="fill:#497da2;fill-opacity:1"> <path
   display="inline"
   d="M 27.758,32.244 34,19.074 V 7.756 H 21.241 V 19.76 h 4.87 l -4.87,12.484 z M 23.146,17.855 V 9.662 h 8.948 v 8.983 l -5.543,11.693 h -2.522 l 4.868,-12.482 h -5.751 z"
   id="path158"
   style="fill:#497da2;fill-opacity:1" /> <path
   display="inline"
   d="m 12.517,32.244 6.242,-13.17 V 7.756 H 6 V 19.76 h 4.871 L 6,32.244 Z M 7.905,17.855 V 9.662 h 8.948 v 8.983 L 11.311,30.338 H 8.789 L 13.657,17.856 H 7.905 Z"
   id="path160"
   style="fill:#497da2;fill-opacity:1" /> </g> <g
   display="none"
   id="g168"
   style="fill:#497da2;fill-opacity:1"> <path
   display="inline"
   d="m 23.83,28.146 c -0.414,0 -0.75,0.337 -0.75,0.75 v 5.25 H 8.287 V 5.854 H 23.08 v 5.25 c 0,0.414 0.336,0.75 0.75,0.75 0.414,0 0.75,-0.336 0.75,-0.75 v -6 c 0,-0.414 -0.336,-0.75 -0.75,-0.75 H 7.537 c -0.414,0 -0.75,0.336 -0.75,0.75 v 29.793 c 0,0.415 0.336,0.75 0.75,0.75 H 23.83 c 0.414,0 0.75,-0.335 0.75,-0.75 v -6 c 0,-0.414 -0.336,-0.751 -0.75,-0.751 z"
   id="path164"
   style="fill:#497da2;fill-opacity:1" /> <path
   display="inline"
   d="m 34.168,24.248 -2.48,-8.688 c -0.08,-0.277 -0.311,-0.484 -0.594,-0.533 -0.285,-0.05 -0.572,0.069 -0.738,0.304 L 29.307,16.8 c -1.635,-1.122 -3.586,-1.735 -5.693,-1.783 -0.02,-10e-4 -0.037,0 -0.057,0.001 -4.104,0.216 -6.771,1.523 -10.574,5.178 -0.258,0.248 -0.305,0.642 -0.115,0.942 0.191,0.302 0.568,0.426 0.902,0.3 1.627,-0.619 3.34,-0.946 4.955,-0.946 1.795,0 4.295,0.403 6.336,2.252 l -0.947,1.327 c -0.162,0.229 -0.186,0.529 -0.057,0.779 0.129,0.25 0.387,0.407 0.668,0.407 h 8.738 v 0 c 0.416,0 0.75,-0.336 0.75,-0.75 0,-0.091 -0.016,-0.178 -0.045,-0.259 z m -7.986,-0.491 0.475,-0.665 c 0.209,-0.292 0.18,-0.692 -0.068,-0.953 -1.961,-2.059 -4.68,-3.147 -7.863,-3.147 -0.754,0 -1.527,0.063 -2.305,0.188 2.352,-1.809 4.373,-2.511 7.188,-2.663 2.041,0.052 3.906,0.717 5.391,1.925 0.162,0.131 0.369,0.189 0.574,0.161 0.205,-0.027 0.391,-0.139 0.51,-0.308 l 0.59,-0.826 1.795,6.288 z"
   id="path166"
   style="fill:#497da2;fill-opacity:1" /> </g> <path
   display="none"
   d="m 11.087,35.498 c -0.655,0 -1.272,-0.256 -1.737,-0.719 L 5.222,30.649 C 4.756,30.185 4.5,29.567 4.5,28.912 c 0,-0.656 0.256,-1.274 0.722,-1.738 l 8.354,-8.355 c 0.466,-0.464 1.083,-0.719 1.738,-0.719 0.656,0 1.274,0.255 1.736,0.719 l 1.483,1.484 1.771,-1.771 -1.485,-1.482 c -0.463,-0.464 -0.72,-1.082 -0.72,-1.738 0,-0.656 0.257,-1.272 0.72,-1.737 l 8.356,-8.354 c 0.463,-0.465 1.08,-0.72 1.737,-0.72 0.657,0 1.274,0.254 1.737,0.72 l 4.13,4.128 c 0.464,0.463 0.72,1.08 0.72,1.737 0,0.657 -0.256,1.275 -0.72,1.738 l -8.355,8.355 c -0.464,0.465 -1.081,0.72 -1.738,0.72 -0.654,0 -1.272,-0.255 -1.736,-0.72 l -1.483,-1.484 -1.77,1.771 1.483,1.482 c 0.466,0.464 0.72,1.081 0.72,1.736 0,0.656 -0.254,1.273 -0.72,1.738 l -8.354,8.355 c -0.465,0.465 -1.082,0.721 -1.739,0.721 z m 4.226,-15.751 c -0.125,0 -0.365,0.03 -0.571,0.236 l -8.356,8.356 c -0.206,0.206 -0.237,0.448 -0.237,0.573 0,0.125 0.031,0.366 0.237,0.572 l 4.13,4.13 c 0.207,0.207 0.447,0.237 0.571,0.237 0.125,0 0.367,-0.03 0.573,-0.237 l 8.356,-8.354 c 0.207,-0.207 0.236,-0.448 0.236,-0.574 0,-0.124 -0.029,-0.364 -0.236,-0.57 l -1.483,-1.486 -2.482,2.484 c -0.155,0.156 -0.362,0.242 -0.581,0.242 -0.222,0 -0.428,-0.086 -0.582,-0.242 -0.321,-0.322 -0.321,-0.844 -0.002,-1.163 l 2.484,-2.483 -1.483,-1.483 c -0.208,-0.208 -0.449,-0.238 -0.574,-0.238 z m 9.338,-5.221 c 0.219,0 0.426,0.085 0.58,0.24 0.156,0.156 0.244,0.363 0.244,0.583 0,0.22 -0.088,0.426 -0.242,0.581 l -2.604,2.602 1.485,1.483 c 0.206,0.206 0.446,0.236 0.571,0.236 0.126,0 0.367,-0.03 0.574,-0.235 l 8.354,-8.356 c 0.208,-0.206 0.237,-0.448 0.237,-0.574 0,-0.125 -0.029,-0.365 -0.235,-0.573 L 29.486,6.385 C 29.278,6.177 29.037,6.147 28.912,6.147 c -0.125,0 -0.367,0.03 -0.573,0.238 l -8.354,8.354 c -0.208,0.206 -0.239,0.448 -0.239,0.573 0,0.125 0.031,0.366 0.236,0.573 l 1.483,1.483 2.601,-2.602 c 0.159,-0.154 0.365,-0.24 0.585,-0.24 z"
   id="path170"
   style="fill:#497da2;fill-opacity:1" /> <g
   display="none"
   id="g178"
   style="fill:#497da2;fill-opacity:1"> <path
   display="inline"
   fill-rule="evenodd"
   clip-rule="evenodd"
   d="m 13.786,29.113 c -1.022,0 -1.853,-0.829 -1.853,-1.85 L 11.688,25.784 11.401,23.86 C 11.349,23.672 11.325,23.512 11.325,23.362 L 9.373,9.702 9.035,7.667 H 5.377 C 4.894,7.667 4.5,7.274 4.5,6.791 4.5,6.309 4.894,5.916 5.377,5.916 h 3.899 c 0.056,0 0.111,0.014 0.169,0.03 L 9.47,5.952 9.545,5.959 C 9.652,5.93 9.708,5.915 9.763,5.915 c 0.484,0 0.878,0.393 0.878,0.875 l 0.186,1.122 0.097,-0.017 c 0.099,-0.017 0.199,-0.033 0.304,-0.033 h 22.421 c 1.021,0 1.852,0.831 1.852,1.853 v 11.699 c 0,1.021 -0.83,1.851 -1.852,1.851 -0.092,10e-4 -9.072,0.071 -14.472,0.638 -2.596,0.273 -5.058,1.01 -5.75,1.229 l -0.079,0.025 0.329,2.203 h 18.997 c 0.482,0 0.877,0.394 0.877,0.877 0,0.483 -0.395,0.876 -0.877,0.876 z M 12.445,9.618 c -0.592,0 -1.073,0.48 -1.073,1.071 l 1.626,11.387 c -10e-4,0.578 0.481,1.059 1.074,1.059 0.054,-0.015 1.638,-0.682 4.483,-1.018 4.797,-0.565 14.026,-0.605 14.12,-0.605 0.59,0 1.072,-0.48 1.072,-1.073 v -9.75 c 0,-0.59 -0.482,-1.071 -1.072,-1.071 z"
   id="path172"
   style="fill:#497da2;fill-opacity:1" /> <path
   display="inline"
   fill-rule="evenodd"
   clip-rule="evenodd"
   d="m 15.948,30.188 c -1.076,0 -1.948,0.872 -1.948,1.949 0,1.076 0.872,1.948 1.948,1.948 1.079,0 1.951,-0.872 1.951,-1.948 0,-1.077 -0.872,-1.949 -1.951,-1.949 z"
   id="path174"
   style="fill:#497da2;fill-opacity:1" /> <circle
   display="inline"
   fill-rule="evenodd"
   clip-rule="evenodd"
   cx="29.598"
   cy="32.136002"
   r="1.949"
   id="circle176"
   style="fill:#497da2;fill-opacity:1" /> </g> <path
   display="none"
   fill="#010101"
   d="M 32,10.465 C 32,9.517 31.34,8.17 28.192,7.128 25.993,6.4 23.084,6 20,6 16.917,6 14.007,6.4 11.808,7.128 8.661,8.169 8,9.517 8,10.465 8,10.473 8,10.479 8.001,10.487 8.001,10.491 8,10.495 8,10.496 v 6.326 c 0,0.007 0,0.014 10e-4,0.023 C 8.001,16.848 8,16.851 8,16.853 v 6.325 c 0,0.008 0,0.016 10e-4,0.023 0,0.003 -10e-4,0.007 -10e-4,0.01 v 6.324 c 0,0.947 0.661,2.295 3.808,3.337 C 14.007,33.6 16.917,34 20,34 23.084,34 25.993,33.6 28.192,32.872 31.34,31.83 32,30.482 32,29.535 v -6.324 c 0,-0.003 0,-0.007 0,-0.01 0,-0.008 0,-0.016 0,-0.023 v -6.325 c 0,-0.002 0,-0.005 0,-0.008 0,-0.009 0,-0.016 0,-0.023 v -6.326 c 0,-0.001 0,-0.005 0,-0.009 0,-0.008 0,-0.014 0,-0.022 z m -1.5,19.07 c 0,1.215 -4.09,2.977 -10.5,2.977 -6.41,0 -10.5,-1.762 -10.5,-2.977 v -4.052 c 0.557,0.371 1.306,0.732 2.308,1.063 2.199,0.729 5.109,1.129 8.192,1.129 3.084,0 5.993,-0.4 8.192,-1.129 1.001,-0.331 1.751,-0.692 2.308,-1.063 z m 0,-6.357 c 0,1.214 -4.09,2.977 -10.5,2.977 -6.41,0 -10.5,-1.763 -10.5,-2.977 v -4.052 c 0.557,0.371 1.306,0.733 2.308,1.065 2.199,0.728 5.109,1.127 8.192,1.127 3.084,0 5.993,-0.4 8.192,-1.127 1.001,-0.332 1.751,-0.694 2.308,-1.065 z m 0,-6.356 c 0,1.213 -4.09,2.975 -10.5,2.975 -6.41,0 -10.5,-1.762 -10.5,-2.975 v -4.053 c 0.557,0.371 1.306,0.733 2.308,1.065 2.199,0.728 5.109,1.128 8.192,1.128 3.084,0 5.993,-0.4 8.192,-1.128 1.001,-0.332 1.751,-0.694 2.308,-1.065 z M 20,13.44 c -6.41,0 -10.5,-1.762 -10.5,-2.975 0,-1.214 4.09,-2.976 10.5,-2.976 6.41,0 10.5,1.762 10.5,2.976 0,1.213 -4.09,2.975 -10.5,2.975 z"
   id="path180"
   style="fill:#497da2;fill-opacity:1" /> <path
   display="none"
   fill="#010101"
   d="M 31,10 V 6.667 C 31,6.299 30.647,6 30.214,6 H 9.785 C 9.353,6 9,6.299 9,6.667 V 10 c 0,0.369 0.353,0.667 0.785,0.667 h 1.179 v 0.996 c 0,3.418 2.296,6.533 5.893,8.052 v 0.569 c -3.596,1.518 -5.893,4.629 -5.893,8.049 v 1.002 H 9.785 C 9.353,29.334 9,29.633 9,29.999 v 3.335 C 9,33.702 9.353,34 9.785,34 H 30.214 C 30.647,34 31,33.702 31,33.334 v -3.335 c 0,-0.366 -0.353,-0.665 -0.786,-0.665 h -1.179 v -1.002 c 0,-3.42 -2.297,-6.533 -5.896,-8.051 v -0.565 c 3.599,-1.518 5.896,-4.632 5.896,-8.054 v -0.996 h 1.179 C 30.647,10.667 31,10.369 31,10 Z m -2.428,20.666 h 0.855 v 2 H 10.571 v -2 h 1.179 16.5 z m -1.392,-17.1 c -0.148,0.574 -0.566,1.333 -0.566,1.333 -0.914,1.655 -2.516,3.018 -4.575,3.783 -0.286,0.106 -0.47,0.346 -0.47,0.611 v 1.413 c 0,0.265 0.184,0.504 0.47,0.611 3.296,1.226 5.427,3.979 5.427,7.016 v 1.003 h -0.686 -2.015 -9.532 -1.998 -0.7 v -1.002 c 0,-3.037 2.13,-5.789 5.423,-7.016 0.286,-0.105 0.47,-0.344 0.47,-0.609 V 19.29 c 0,-0.264 -0.184,-0.503 -0.47,-0.61 -2.057,-0.766 -3.658,-2.127 -4.572,-3.782 -0.344,-0.56 -0.565,-1.333 -0.565,-1.333 -0.187,-0.613 -0.286,-1.252 -0.286,-1.903 v -0.985 h 14.93 v 0.985 c 0,0.651 -0.1,1.291 -0.285,1.904 z M 29.428,9.333 H 28.25 c -0.046,0 -0.09,0.004 -0.134,0.01 H 11.883 C 11.84,9.337 11.796,9.333 11.75,9.333 h -1.179 v -2 h 18.856 v 2 z"
   id="path182"
   style="fill:#497da2;fill-opacity:1" /> <path
   display="none"
   fill="#010101"
   d="M 29.112,30.927 H 9.876 C 6.085,30.927 3,27.842 3,24.051 3,20.434 5.806,17.46 9.356,17.193 c 0.77,-2.392 3.021,-4.066 5.583,-4.066 0.369,0 0.744,0.041 1.133,0.125 1.362,-2.559 4.023,-4.177 6.963,-4.177 3.729,0 6.934,2.659 7.688,6.276 3.619,0.754 6.277,3.96 6.277,7.688 0,4.35 -3.538,7.888 -7.888,7.888 z M 9.833,18.791 c -2.879,0.024 -5.215,2.375 -5.215,5.26 0,2.898 2.359,5.258 5.258,5.258 h 19.236 c 3.457,0 6.271,-2.813 6.271,-6.27 0,-3.122 -2.35,-5.78 -5.466,-6.185 -0.364,-0.048 -0.651,-0.334 -0.698,-0.699 -0.404,-3.115 -3.063,-5.463 -6.184,-5.463 -2.527,0 -4.794,1.504 -5.779,3.831 -0.163,0.387 -0.596,0.584 -0.996,0.453 -0.48,-0.156 -0.912,-0.232 -1.32,-0.232 -2.018,0 -3.769,1.434 -4.164,3.409 -0.076,0.377 -0.408,0.65 -0.793,0.65 -0.062,0 -0.114,-0.007 -0.15,-0.012 z"
   id="path184"
   style="fill:#497da2;fill-opacity:1" /> <g
   display="none"
   id="g190"
   style="fill:#497da2;fill-opacity:1"> <path
   display="inline"
   fill="#010101"
   d="m 29.364,15.71 c -0.431,0 -0.78,0.35 -0.78,0.78 v 3.901 c 0,4.733 -3.851,8.585 -8.584,8.585 -4.733,0 -8.585,-3.852 -8.585,-8.585 V 16.49 c 0,-0.431 -0.35,-0.78 -0.78,-0.78 -0.432,0 -0.78,0.35 -0.78,0.78 v 3.901 c 0,5.331 4.134,9.716 9.365,10.116 v 3.932 h -5.463 c -0.432,0 -0.781,0.349 -0.781,0.78 0,0.431 0.35,0.78 0.781,0.78 h 12.486 c 0.431,0 0.78,-0.35 0.78,-0.78 0,-0.432 -0.35,-0.78 -0.78,-0.78 H 20.78 v -3.932 c 5.23,-0.4 9.365,-4.785 9.365,-10.116 V 16.49 c 0.001,-0.43 -0.349,-0.78 -0.781,-0.78 z"
   id="path186"
   style="fill:#497da2;fill-opacity:1" /> <path
   display="inline"
   fill="#010101"
   d="m 20,27.025 c 3.657,0 6.633,-2.975 6.633,-6.633 v -9.76 C 26.633,6.976 23.657,4 20,4 16.343,4 13.367,6.976 13.367,10.633 v 9.76 c 0,3.658 2.976,6.632 6.633,6.632 z M 14.928,10.633 c 0,-2.797 2.275,-5.072 5.072,-5.072 2.797,0 5.072,2.275 5.072,5.072 v 9.76 c 0,2.797 -2.275,5.072 -5.072,5.072 -2.797,0 -5.072,-2.275 -5.072,-5.072 z"
   id="path188"
   style="fill:#497da2;fill-opacity:1" /> </g> <g
   display="none"
   id="g206"
   style="fill:#497da2;fill-opacity:1"> <path
   display="inline"
   fill="#010101"
   d="m 22.603,19.604 c 1.136,-0.807 1.88,-2.131 1.88,-3.626 0,-2.452 -1.994,-4.446 -4.444,-4.446 -2.451,0 -4.445,1.994 -4.445,4.446 0,1.495 0.745,2.82 1.881,3.627 l -5.008,14.432 c -0.132,0.378 0.068,0.791 0.447,0.924 0.077,0.025 0.158,0.039 0.236,0.039 0.3,0 0.581,-0.188 0.684,-0.488 l 1.02,-2.933 h 10.37 l 1.017,2.933 c 0.103,0.301 0.385,0.488 0.686,0.488 0.078,0 0.157,-0.014 0.237,-0.039 0.378,-0.133 0.578,-0.546 0.446,-0.924 z m -2.565,-6.613 c 1.646,0 2.986,1.34 2.986,2.987 0,1.646 -1.34,2.986 -2.986,2.986 -1.647,0 -2.986,-1.34 -2.986,-2.986 0,-1.647 1.339,-2.987 2.986,-2.987 z m 0,7.432 c 0.435,0 0.854,-0.064 1.252,-0.181 l 1.603,4.622 h -5.709 l 1.604,-4.622 c 0.397,0.117 0.816,0.181 1.25,0.181 z m -4.682,9.706 1.324,-3.814 h 6.715 l 1.325,3.814 z"
   id="path192"
   style="fill:#497da2;fill-opacity:1" /> <path
   display="inline"
   fill="#010101"
   d="m 14.12,21.617 c 0.142,0.142 0.327,0.212 0.511,0.212 0.187,0 0.373,-0.07 0.515,-0.212 0.282,-0.283 0.282,-0.743 0,-1.025 -1.234,-1.231 -1.913,-2.87 -1.913,-4.613 0,-1.743 0.678,-3.381 1.911,-4.613 0.282,-0.283 0.282,-0.742 0,-1.026 -0.285,-0.282 -0.743,-0.282 -1.025,0 -1.507,1.506 -2.336,3.508 -2.336,5.639 -10e-4,2.129 0.829,4.132 2.337,5.638 z"
   id="path194"
   style="fill:#497da2;fill-opacity:1" /> <path
   display="inline"
   fill="#010101"
   d="m 12.581,23.154 c -1.919,-1.916 -2.974,-4.465 -2.974,-7.176 0,-2.71 1.055,-5.259 2.973,-7.178 0.283,-0.283 0.283,-0.742 0,-1.025 -0.284,-0.283 -0.743,-0.282 -1.025,10e-4 -2.191,2.191 -3.398,5.104 -3.398,8.202 0,3.098 1.208,6.011 3.4,8.202 0.142,0.142 0.326,0.212 0.512,0.212 0.186,0 0.372,-0.07 0.513,-0.212 0.282,-0.284 0.282,-0.742 -0.001,-1.026 z"
   id="path196"
   style="fill:#497da2;fill-opacity:1" /> <path
   display="inline"
   fill="#010101"
   d="m 5.982,15.979 c 0,-3.678 1.432,-7.137 4.034,-9.741 0.283,-0.283 0.283,-0.742 0,-1.025 -0.283,-0.283 -0.743,-0.283 -1.025,0 -2.876,2.877 -4.46,6.7 -4.46,10.766 0,4.065 1.584,7.889 4.46,10.766 0.142,0.141 0.327,0.211 0.513,0.211 0.186,0 0.372,-0.07 0.513,-0.211 0.283,-0.284 0.283,-0.744 0,-1.026 -2.602,-2.604 -4.035,-6.063 -4.035,-9.74 z"
   id="path198"
   style="fill:#497da2;fill-opacity:1" /> <path
   display="inline"
   fill="#010101"
   d="m 26.768,15.979 c 0,1.742 -0.679,3.38 -1.911,4.612 -0.282,0.282 -0.282,0.741 0,1.024 0.142,0.142 0.328,0.213 0.514,0.213 0.185,0 0.37,-0.071 0.512,-0.213 1.507,-1.506 2.337,-3.508 2.337,-5.637 0,-2.131 -0.831,-4.134 -2.338,-5.64 -0.283,-0.283 -0.741,-0.282 -1.026,0 -0.282,0.283 -0.282,0.742 10e-4,1.025 1.232,1.233 1.911,2.872 1.911,4.616 z"
   id="path200"
   style="fill:#497da2;fill-opacity:1" /> <path
   display="inline"
   fill="#010101"
   d="M 28.445,7.775 C 28.16,7.492 27.701,7.493 27.419,7.776 c -0.284,0.283 -0.284,0.742 0,1.024 1.917,1.917 2.973,4.466 2.973,7.178 0,2.709 -1.055,5.258 -2.971,7.178 -0.284,0.282 -0.284,0.74 0,1.024 0.142,0.142 0.328,0.212 0.513,0.212 0.186,0 0.372,-0.07 0.513,-0.212 2.19,-2.192 3.397,-5.105 3.397,-8.202 0,-3.099 -1.208,-6.012 -3.399,-8.203 z"
   id="path202"
   style="fill:#497da2;fill-opacity:1" /> <path
   display="inline"
   fill="#010101"
   d="m 31.007,5.212 c -0.282,-0.282 -0.741,-0.282 -1.025,0 -0.283,0.283 -0.283,0.743 0,1.025 2.603,2.603 4.037,6.063 4.037,9.741 0,3.677 -1.434,7.136 -4.035,9.74 -0.283,0.283 -0.283,0.741 0,1.025 0.141,0.141 0.327,0.211 0.513,0.211 0.185,0 0.371,-0.07 0.513,-0.211 2.876,-2.879 4.459,-6.701 4.459,-10.766 C 35.468,11.912 33.884,8.089 31.007,5.212 Z"
   id="path204"
   style="fill:#497da2;fill-opacity:1" /> </g> <g
   display="none"
   id="g212"
   style="fill:#497da2;fill-opacity:1"> <path
   display="inline"
   fill="#010101"
   d="m 26.197,5 c -4.854,0 -8.803,3.948 -8.803,8.802 0,0.704 0.084,1.402 0.249,2.082 L 5,28.554 V 35 h 6.979 v -3.542 h 3.542 v -3.542 h 3.541 v -3.541 h 3.056 l 2.014,-2.016 c 0.674,0.163 1.367,0.244 2.066,0.244 4.853,0 8.803,-3.947 8.803,-8.801 C 35,8.949 31.05,5 26.197,5 Z m 0,15.938 c -0.705,0 -1.403,-0.103 -2.074,-0.307 l -0.476,-0.144 -2.223,2.221 h -4.03 v 3.542 h -3.541 v 3.541 h -3.541 v 3.542 H 6.667 V 29.242 L 19.518,16.367 19.372,15.888 c -0.205,-0.674 -0.311,-1.376 -0.311,-2.086 0,-3.935 3.2,-7.136 7.136,-7.136 3.935,0 7.135,3.201 7.135,7.136 0,3.935 -3.2,7.136 -7.135,7.136 z"
   id="path208"
   style="fill:#497da2;fill-opacity:1" /> <circle
   display="inline"
   fill="#010101"
   cx="27.671"
   cy="12.348"
   r="1.666"
   id="circle210"
   style="fill:#497da2;fill-opacity:1" /> </g> <path
   display="none"
   fill="#040305"
   d="M 5.812,35.5 V 7.128 h 6.317 V 4.5 h 1.594 V 7.128 H 26.125 V 4.5 h 1.604 v 2.628 h 6.458 V 35.5 Z M 32.584,33.896 V 14.626 H 7.416 v 19.269 h 25.168 z m 0,-20.874 V 8.733 H 27.73 v 1.675 H 26.126 V 8.733 H 13.723 v 1.675 H 12.129 V 8.733 H 7.416 v 4.289 z"
   id="path214"
   style="fill:#497da2;fill-opacity:1" /> <path
   display="none"
   fill-rule="evenodd"
   clip-rule="evenodd"
   d="m 22.672,29.195 -7.148,3.457 c -0.331,-0.021 -0.63,-0.235 -0.951,-0.766 L 5,6.985 C 5.013,6.631 5.356,6.288 5.778,6.288 l 28.958,15.838 c 0.131,0.141 0.304,0.615 0.256,0.94 -0.018,0.122 -0.063,0.202 -0.135,0.239 l -6.256,3.024 v 5.654 c 0,0.926 -0.731,1.685 -1.646,1.726 z m 1.06,-0.506 2.346,2.471 c 0.339,0.345 0.504,0.492 0.673,0.492 h 10e-4 c 0.115,0 0.261,-0.062 0.297,-0.363 0.016,-0.135 0.018,-0.341 0.018,-0.622 v -3.22 l 0.012,-0.011 0.012,-0.133 -0.014,-0.102 -0.007,-0.004 -0.003,-0.651 -0.003,0.002 c 0.008,-0.487 0.029,-1.026 0.029,-1.026 l 0.005,-0.103 -8.106,-5.941 -0.256,0.283 5.957,6.661 0.036,-0.019 0.786,0.937 0.293,0.328 z M 9.12,9.995 c -0.448,0 -0.812,0.363 -0.812,0.811 l 7.175,18.895 c 0.195,0.325 0.464,0.665 0.957,0.665 l 6.112,-2.922 0.146,-0.038 1.488,-0.735 -9.567,-10.689 13.229,8.908 3.224,-1.551 c 0.103,-0.054 0.224,-0.163 0.259,-0.392 0.043,-0.292 -0.086,-0.704 -0.281,-0.898 L 9.169,9.995 Z"
   id="path216"
   style="fill:#497da2;fill-opacity:1" /> <path
   display="none"
   d="M 34.285,10 H 5.714 C 5.32,10 5,10.319 5,10.714 V 29.285 C 5,29.68 5.32,30 5.714,30 H 34.285 C 34.681,30 35,29.68 35,29.285 V 10.714 C 35,10.319 34.681,10 34.285,10 Z m -27.856,2.269 8.818,7.068 -8.818,8.124 z M 20,21.318 7.665,11.428 h 24.671 z m -3.626,-1.077 3.178,2.548 c 0.001,0 0.003,0.002 0.004,0.002 0.007,0.006 0.015,0.012 0.021,0.017 0.013,0.009 0.025,0.019 0.038,0.026 0.008,0.006 0.016,0.01 0.024,0.015 0.014,0.009 0.029,0.017 0.043,0.024 0.007,0.002 0.013,0.006 0.019,0.01 0.022,0.009 0.045,0.018 0.067,0.025 10e-4,0 0.002,0 0.003,0.002 0.021,0.006 0.044,0.014 0.066,0.017 0.006,0.002 0.011,0.004 0.017,0.004 0.019,0.005 0.037,0.007 0.056,0.009 0.005,0.002 0.012,0.002 0.017,0.002 0.024,0.004 0.047,0.006 0.071,0.006 v 0 0 c 0.024,0 0.048,-0.002 0.072,-0.006 0.005,0 0.011,0 0.016,-0.002 0.02,-0.002 0.039,-0.004 0.057,-0.009 0.006,0 0.012,-0.002 0.017,-0.004 0.022,-0.003 0.044,-0.011 0.066,-0.017 0.001,-0.002 0.002,-0.002 0.003,-0.002 0.023,-0.008 0.045,-0.017 0.067,-0.025 0.007,-0.004 0.013,-0.008 0.019,-0.01 0.015,-0.008 0.029,-0.016 0.045,-0.024 0.008,-0.005 0.016,-0.009 0.023,-0.015 0.012,-0.008 0.025,-0.018 0.037,-0.026 0.008,-0.005 0.016,-0.011 0.022,-0.017 0.001,0 0.003,-0.002 0.004,-0.002 l 3.178,-2.548 9.043,8.33 H 7.332 Z m 8.38,-0.904 8.817,-7.068 v 15.175 z"
   id="path218"
   style="fill:#497da2;fill-opacity:1" /> <g
   display="none"
   id="g224"
   style="fill:#497da2;fill-opacity:1"> <g
   display="inline"
   id="g222"
   style="fill:#497da2;fill-opacity:1"> <path
   d="M 20.01,5.5 C 12.008,5.5 5.5,12.005 5.5,20 c 0,7.997 6.508,14.5 14.51,14.5 2.701,0 5.34,-0.75 7.633,-2.166 0.209,-0.13 0.354,-0.332 0.408,-0.568 0.057,-0.238 0.016,-0.481 -0.112,-0.689 -0.17,-0.273 -0.462,-0.438 -0.782,-0.438 -0.168,0 -0.333,0.049 -0.477,0.138 -2,1.239 -4.307,1.895 -6.67,1.895 -6.99,0 -12.677,-5.687 -12.677,-12.67 0,-6.984 5.687,-12.667 12.677,-12.667 4.227,0 8.162,2.095 10.525,5.603 1.17,1.739 1.895,3.758 2.094,5.841 0.047,0.494 0.152,2.249 -0.475,4.098 -0.588,1.732 -2.268,2.978 -3.943,2.903 -1.047,-0.038 -1.807,-0.407 -2.326,-1.126 -1.666,-2.338 -0.511,-7.771 0.074,-9.666 0.145,-0.472 -0.105,-0.969 -0.571,-1.134 -0.199,-0.069 -2.062,-0.694 -4.348,-0.694 -1.554,0 -2.929,0.292 -4.088,0.863 -1.801,0.888 -3.064,2.42 -3.755,4.554 -0.87,2.684 -0.403,5.274 1.249,6.928 0.991,0.993 2.305,1.537 3.696,1.537 0.549,0 1.096,-0.086 1.624,-0.258 1.015,-0.323 1.929,-0.933 2.718,-1.811 l 0.923,-1.025 0.649,1.216 c 0.101,0.189 0.213,0.371 0.332,0.54 0.846,1.189 2.148,1.846 3.767,1.904 0.063,0.002 0.124,0.002 0.186,0.002 2.401,0 4.737,-1.742 5.552,-4.148 0.723,-2.141 0.635,-4.112 0.563,-4.858 C 34.227,16.216 33.397,13.905 32.06,11.916 29.349,7.898 24.846,5.5 20.01,5.5 Z m -1.871,19.714 v 0 c -0.901,0 -1.752,-0.356 -2.397,-1.003 -1.173,-1.176 -1.466,-3.023 -0.804,-5.069 0.538,-1.658 1.456,-2.794 2.808,-3.473 0.922,-0.459 2.026,-0.69 3.285,-0.69 0.688,0 1.834,0.153 1.883,0.158 l 0.981,0.133 -0.156,0.979 c -0.013,0.078 -0.317,1.959 -0.844,4.058 -0.604,2.413 -1.983,4.186 -3.69,4.737 -0.352,0.113 -0.71,0.17 -1.066,0.17 z"
   id="path220"
   style="fill:#497da2;fill-opacity:1" /> </g> </g> <path
   display="none"
   d="M 34.949,21.604 30.081,8.122 C 29.975,7.825 29.691,7.626 29.375,7.626 h -18.75 c -0.315,0 -0.598,0.199 -0.705,0.496 L 5.051,21.604 C 5.019,21.688 5.001,21.777 5,21.871 v 0 c 0,0.002 0,0.002 0,0.002 v 0 0 0.002 0 9.749 c 0,0.414 0.336,0.75 0.75,0.75 h 28.5 c 0.415,0 0.75,-0.336 0.75,-0.75 v -9.749 0 -0.002 0 0 c 0,0 0,0 0,-0.002 v 0 c 0,-0.094 -0.018,-0.183 -0.051,-0.267 z M 11.151,9.125 H 28.85 l 4.333,12 h -1.682 l -2.024,-6.004 c -0.104,-0.305 -0.389,-0.51 -0.711,-0.51 H 11.71 c -0.314,0 -0.596,0.197 -0.704,0.492 l -2.207,6.022 h -1.98 z m 18.767,12 h -4.293 c -0.283,0 -0.543,0.16 -0.67,0.414 l -1.668,3.336 h -6.573 l -1.668,-3.336 c -0.127,-0.254 -0.387,-0.414 -0.671,-0.414 h -3.978 l 1.837,-5.014 h 15.992 z m 3.582,9.749 h -27 v -8.249 h 7.412 l 1.668,3.335 c 0.127,0.254 0.387,0.414 0.67,0.414 h 7.5 c 0.285,0 0.545,-0.16 0.672,-0.414 l 1.668,-3.335 h 7.41 z"
   id="path226"
   style="fill:#497da2;fill-opacity:1" /> <g
   display="none"
   id="g234"
   style="fill:#497da2;fill-opacity:1"> <path
   display="inline"
   d="m 20,21.569 c -0.095,0 -0.189,-0.021 -0.282,-0.062 L 5.434,15.115 C 5.165,14.995 4.994,14.72 5,14.413 5.006,14.11 5.191,13.835 5.46,13.73 L 19.746,8.049 C 19.828,8.017 19.913,8 20,8 c 0.086,0 0.172,0.017 0.254,0.049 l 14.285,5.679 c 0.275,0.11 0.455,0.378 0.461,0.683 0.008,0.308 -0.163,0.584 -0.434,0.704 L 20.281,21.51 C 20.192,21.549 20.096,21.569 20,21.569 Z M 7.626,14.468 19.965,19.99 32.374,14.468 20,9.549 Z"
   id="path228"
   style="fill:#497da2;fill-opacity:1" /> <path
   display="inline"
   d="M 5.434,20.49 C 5.073,20.327 4.904,19.886 5.058,19.507 5.171,19.232 5.43,19.053 5.717,19.053 c 0.097,0 0.191,0.021 0.282,0.062 l 13.967,6.249 14.037,-6.249 c 0.092,-0.042 0.186,-0.062 0.283,-0.062 0.286,0 0.544,0.177 0.656,0.454 0.155,0.379 -0.014,0.82 -0.376,0.983 L 20,27.008 Z"
   id="path230"
   style="fill:#497da2;fill-opacity:1" /> <path
   display="inline"
   d="M 5.434,25.48 C 5.072,25.316 4.903,24.876 5.058,24.499 5.171,24.224 5.43,24.045 5.717,24.045 c 0.097,0 0.191,0.021 0.282,0.061 l 13.967,6.25 14.037,-6.25 c 0.09,-0.039 0.186,-0.061 0.283,-0.061 0.286,0 0.544,0.179 0.656,0.454 0.155,0.378 -0.014,0.819 -0.375,0.981 L 20,32 Z"
   id="path232"
   style="fill:#497da2;fill-opacity:1" /> </g> <g
   display="none"
   id="g240"
   style="fill:#497da2;fill-opacity:1"> <path
   display="inline"
   d="M 21.768,34 C 21.58,34 21.402,33.927 21.266,33.792 L 6.207,18.733 C 6.075,18.6 5.999,18.416 5.999,18.23 L 6.041,6.707 C 6.042,6.317 6.361,6 6.751,6 L 18.23,6.002 c 0.19,0 0.368,0.072 0.504,0.207 l 15.059,15.059 c 0.133,0.135 0.208,0.313 0.208,0.503 0,0.188 -0.075,0.366 -0.21,0.501 L 22.27,33.792 C 22.136,33.927 21.957,34 21.768,34 Z M 7.42,17.866 21.767,32.289 32.288,21.77 17.988,7.472 7.457,7.417 Z"
   id="path236"
   style="fill:#497da2;fill-opacity:1" /> <circle
   display="inline"
   cx="11.78"
   cy="11.777"
   r="1.33"
   id="circle238"
   style="fill:#497da2;fill-opacity:1" /> </g> <g
   display="none"
   id="g246"
   style="fill:#497da2;fill-opacity:1"> <path
   display="inline"
   fill-rule="evenodd"
   clip-rule="evenodd"
   d="m 10.738,35.5 c -0.462,0 -0.531,-0.451 -0.531,-0.721 V 6.297 c 0,-0.991 0.806,-1.797 1.797,-1.797 h 15.99 c 0.992,0 1.799,0.806 1.799,1.797 v 28.482 c 0,0.229 -0.056,0.408 -0.16,0.521 -0.093,0.1 -0.225,0.15 -0.391,0.15 v 0 c -0.34,0 -0.754,-0.211 -1.106,-0.563 l -8.137,-8.138 -8.137,8.138 c -0.389,0.39 -0.799,0.613 -1.124,0.613 z m 16.116,-3.826 c 0.241,0.24 0.491,0.367 0.723,0.367 0.363,0 0.618,-0.313 0.618,-0.76 V 7.297 c 0,-0.662 -0.538,-1.198 -1.199,-1.198 h -13.99 c -0.662,0 -1.201,0.537 -1.201,1.198 v 23.984 c 0,0.209 0.054,0.391 0.154,0.525 0.113,0.15 0.278,0.234 0.466,0.234 0.23,0 0.48,-0.127 0.722,-0.367 l 6.854,-6.855 z"
   id="path242"
   style="fill:#497da2;fill-opacity:1" /> <path
   display="inline"
   fill-rule="evenodd"
   clip-rule="evenodd"
   d="m 25.791,15.35 c -0.004,0 -0.006,-0.006 -0.012,-0.008 -0.053,-0.023 -0.111,-0.039 -0.176,-0.039 -0.023,0 -0.041,0.01 -0.063,0.012 -1.507,-0.037 -3.844,-0.098 -3.844,-0.098 0,0 -0.795,-2.249 -1.296,-3.666 -0.012,-0.037 -0.027,-0.068 -0.047,-0.1 -0.021,-0.041 -0.043,-0.07 -0.064,-0.082 -0.076,-0.07 -0.176,-0.117 -0.287,-0.117 -0.111,0 -0.213,0.047 -0.287,0.117 -0.021,0.012 -0.041,0.041 -0.063,0.082 -0.021,0.031 -0.037,0.063 -0.049,0.1 -0.501,1.417 -1.296,3.666 -1.296,3.666 0,0 -2.339,0.061 -3.842,0.098 -0.023,-0.002 -0.043,-0.012 -0.066,-0.012 -0.063,0 -0.119,0.016 -0.176,0.039 -0.004,0.002 -0.004,0.008 -0.01,0.008 -0.138,0.068 -0.237,0.21 -0.237,0.376 0,0.084 0.031,0.156 0.072,0.223 0,0 0,0 0.002,0 0.035,0.059 0.081,0.102 0.138,0.137 1.195,0.916 3.071,2.354 3.071,2.354 0,0 -0.662,2.239 -1.092,3.681 -0.035,0.061 -0.059,0.127 -0.059,0.199 0,0.236 0.191,0.428 0.424,0.428 0.127,0 0.238,-0.059 0.314,-0.146 0.303,-0.207 0.644,-0.441 0.989,-0.68 L 20,20.433 l 2.167,1.489 c 0.346,0.238 0.685,0.473 0.987,0.68 0.078,0.088 0.188,0.146 0.313,0.146 0.234,0 0.424,-0.191 0.424,-0.428 0,-0.072 -0.023,-0.139 -0.055,-0.199 -0.43,-1.442 -1.096,-3.681 -1.096,-3.681 0,0 1.878,-1.438 3.073,-2.354 0.057,-0.035 0.105,-0.078 0.138,-0.137 0.043,-0.066 0.072,-0.139 0.072,-0.223 0.003,-0.165 -0.093,-0.308 -0.232,-0.376 z m -4.363,2.581 0.754,2.533 -2.179,-1.499 -2.181,1.499 0.754,-2.533 -2.099,-1.611 2.644,-0.066 0.882,-2.497 0.88,2.497 2.647,0.066 z"
   id="path244"
   style="fill:#497da2;fill-opacity:1" /> </g> <path
   display="none"
   d="m 29.387,34.986 c -0.145,0 -0.289,-0.037 -0.416,-0.112 L 20,29.544 l -8.977,5.33 c -0.124,0.075 -0.267,0.112 -0.412,0.112 -0.174,0 -0.34,-0.053 -0.481,-0.158 -0.262,-0.191 -0.383,-0.521 -0.307,-0.84 l 2.389,-10 -7.926,-6.717 C 4.035,17.058 3.938,16.717 4.04,16.405 4.141,16.092 4.417,15.873 4.744,15.845 l 10.45,-0.862 4.062,-9.479 c 0.127,-0.296 0.419,-0.49 0.744,-0.49 0.324,0 0.617,0.194 0.746,0.493 l 4.06,9.477 10.45,0.862 c 0.329,0.028 0.605,0.247 0.706,0.56 0.1,0.314 0.003,0.653 -0.248,0.864 l -7.928,6.719 2.389,10.002 c 0.076,0.316 -0.046,0.646 -0.309,0.838 -0.141,0.105 -0.307,0.157 -0.479,0.157 z M 16.489,16.069 c -0.117,0.277 -0.377,0.464 -0.677,0.488 l -8.986,0.742 6.813,5.773 c 0.232,0.199 0.334,0.508 0.264,0.807 l -2.06,8.624 7.744,-4.599 c 0.123,-0.073 0.266,-0.113 0.412,-0.113 0.146,0 0.289,0.04 0.412,0.113 l 7.742,4.599 -2.06,-8.624 c -0.071,-0.299 0.029,-0.607 0.265,-0.807 l 6.814,-5.773 -8.988,-0.742 c -0.3,-0.024 -0.56,-0.211 -0.677,-0.486 L 20,7.882 Z"
   id="path248"
   style="fill:#497da2;fill-opacity:1" /> <g
   display="none"
   id="g256"
   style="fill:#497da2;fill-opacity:1"> <path
   display="inline"
   d="M 33.125,35 H 6.875 C 6.356,35 5.937,34.579 5.937,34.062 v -5.75 c 0,-0.519 0.419,-0.938 0.938,-0.938 0.518,0 0.938,0.42 0.938,0.938 v 4.813 h 24.375 v -4.813 c 0,-0.519 0.419,-0.938 0.938,-0.938 0.518,0 0.938,0.42 0.938,0.938 v 5.75 C 34.063,34.579 33.643,35 33.125,35"
   id="path250"
   style="fill:#497da2;fill-opacity:1" /> <path
   display="inline"
   d="m 27.576,14.153 c -0.234,0 -0.47,-0.087 -0.651,-0.264 L 20.041,7.24 13.157,13.889 c -0.371,0.36 -0.965,0.351 -1.325,-0.021 -0.359,-0.374 -0.349,-0.966 0.024,-1.326 l 7.535,-7.277 c 0.362,-0.354 0.939,-0.354 1.301,0 l 7.535,7.277 c 0.373,0.36 0.383,0.952 0.023,1.326 -0.185,0.189 -0.429,0.285 -0.674,0.285"
   id="path252"
   style="fill:#497da2;fill-opacity:1" /> <path
   display="inline"
   d="m 20.041,29.248 c -0.518,0 -0.937,-0.42 -0.937,-0.937 V 5.937 C 19.104,5.421 19.523,5 20.041,5 c 0.519,0 0.938,0.421 0.938,0.937 v 22.375 c 0,0.516 -0.419,0.936 -0.938,0.936"
   id="path254"
   style="fill:#497da2;fill-opacity:1" /> </g> <g
   display="none"
   id="g264"
   style="fill:#497da2;fill-opacity:1"> <path
   display="inline"
   d="M 33.125,35 H 6.875 C 6.356,35 5.937,34.58 5.937,34.062 v -5.75 c 0,-0.518 0.419,-0.938 0.938,-0.938 0.518,0 0.937,0.421 0.937,0.938 v 4.813 h 24.375 v -4.813 c 0,-0.518 0.419,-0.938 0.938,-0.938 0.518,0 0.938,0.421 0.938,0.938 v 5.75 c 0,0.518 -0.42,0.938 -0.938,0.938"
   id="path258"
   style="fill:#497da2;fill-opacity:1" /> <path
   display="inline"
   d="m 20.042,29.249 c -0.235,0 -0.469,-0.089 -0.651,-0.265 l -7.535,-7.277 c -0.373,-0.36 -0.383,-0.954 -0.023,-1.326 0.358,-0.372 0.954,-0.384 1.325,-0.023 l 6.884,6.649 6.884,-6.649 c 0.372,-0.36 0.968,-0.349 1.324,0.023 0.36,0.372 0.351,0.966 -0.022,1.326 l -7.534,7.277 c -0.182,0.176 -0.417,0.265 -0.652,0.265"
   id="path260"
   style="fill:#497da2;fill-opacity:1" /> <path
   display="inline"
   d="m 20.042,29.249 c -0.518,0 -0.938,-0.421 -0.938,-0.939 V 5.937 C 19.104,5.418 19.524,5 20.042,5 20.561,5 20.98,5.418 20.98,5.937 V 28.31 c -0.001,0.518 -0.419,0.939 -0.938,0.939"
   id="path262"
   style="fill:#497da2;fill-opacity:1" /> </g> <g
   display="none"
   id="g274"
   style="fill:#497da2;fill-opacity:1"> <path
   display="inline"
   d="M 33.732,10.556 H 24.888 C 24.845,9.068 23.628,7.87 22.13,7.87 H 6.267 C 4.741,7.87 3.5,9.11 3.5,10.637 v 10.405 c 0,1.527 1.241,2.768 2.767,2.768 h 1.292 l 4.637,5.353 c 0.156,0.181 0.382,0.282 0.619,0.282 0.094,0 0.19,-0.016 0.287,-0.051 0.318,-0.119 0.532,-0.428 0.532,-0.768 V 23.81 h 1.478 c 0.043,1.487 1.26,2.687 2.758,2.687 h 8.498 v 4.815 c 0,0.34 0.214,0.648 0.534,0.769 0.095,0.034 0.19,0.05 0.284,0.05 0.236,0 0.463,-0.102 0.619,-0.281 l 4.637,-5.353 h 1.291 c 1.526,0 2.768,-1.241 2.768,-2.768 V 13.323 C 36.5,11.796 35.259,10.556 33.732,10.556 Z m -18.63,2.767 v 8.848 h -2.288 c -0.452,0 -0.819,0.368 -0.819,0.819 v 3.44 L 8.552,22.452 C 8.395,22.274 8.17,22.17 7.906,22.17 c 0,0 -1.638,0 -1.638,0 -0.623,0 -1.129,-0.505 -1.129,-1.129 V 10.637 c 0,-0.622 0.507,-1.13 1.129,-1.13 h 15.864 c 0.594,0 1.068,0.466 1.111,1.049 h -5.374 c -1.526,0 -2.767,1.24 -2.767,2.767 z m 19.76,10.406 c 0,0.623 -0.507,1.129 -1.13,1.129 h -1.664 c -0.236,0 -0.463,0.102 -0.621,0.282 l -3.442,3.977 v -3.44 c 0,-0.451 -0.368,-0.818 -0.819,-0.818 h -9.317 c -0.622,0 -1.128,-0.506 -1.128,-1.129 V 13.323 c 0,-0.623 0.506,-1.13 1.128,-1.13 h 15.864 c 0.623,0 1.13,0.507 1.13,1.13 v 10.406 z"
   id="path266"
   style="fill:#497da2;fill-opacity:1" /> <path
   display="inline"
   d="m 32.841,14.703 h -14.08 c -0.452,0 -0.819,0.367 -0.819,0.818 0,0.451 0.367,0.819 0.819,0.819 h 14.08 c 0.452,0 0.82,-0.368 0.82,-0.819 0,-0.451 -0.368,-0.818 -0.82,-0.818 z"
   id="path268"
   style="fill:#497da2;fill-opacity:1" /> <path
   display="inline"
   d="m 32.841,17.706 h -14.08 c -0.452,0 -0.819,0.367 -0.819,0.819 0,0.451 0.367,0.819 0.819,0.819 h 14.08 c 0.452,0 0.82,-0.368 0.82,-0.819 0,-0.452 -0.368,-0.819 -0.82,-0.819 z"
   id="path270"
   style="fill:#497da2;fill-opacity:1" /> <path
   display="inline"
   d="m 25.426,20.71 h -6.665 c -0.452,0 -0.819,0.367 -0.819,0.818 0,0.451 0.367,0.819 0.819,0.819 h 6.665 c 0.451,0 0.818,-0.368 0.818,-0.819 0,-0.451 -0.367,-0.818 -0.818,-0.818 z"
   id="path272"
   style="fill:#497da2;fill-opacity:1" /> </g> <g
   display="none"
   id="g286"
   style="fill:#497da2;fill-opacity:1"> <g
   display="inline"
   id="g284"
   style="fill:#497da2;fill-opacity:1"> <path
   d="M 31.228,5 H 8.772 C 6.762,5 5.125,6.637 5.125,8.646 v 14.731 c 0,2.011 1.636,3.646 3.647,3.646 H 21.07 v 7.086 c 0,0.372 0.23,0.705 0.578,0.833 0.103,0.039 0.207,0.058 0.312,0.058 0.253,0 0.499,-0.107 0.673,-0.307 l 6.644,-7.669 h 1.951 c 2.011,0 3.647,-1.636 3.647,-3.646 V 8.646 C 34.875,6.637 33.238,5 31.228,5 Z m 1.868,18.378 c 0,1.028 -0.838,1.867 -1.868,1.867 0,0 -2.303,0 -2.315,0 -0.264,-0.013 -0.529,0.093 -0.716,0.306 l -5.347,6.173 v -5.589 c 0,-0.492 -0.398,-0.89 -0.89,-0.89 H 8.772 c -1.029,0 -1.866,-0.839 -1.866,-1.867 V 8.646 c 0,-1.028 0.837,-1.865 1.866,-1.865 h 22.455 c 1.03,0 1.868,0.837 1.868,1.865 v 14.732 z"
   id="path276"
   style="fill:#497da2;fill-opacity:1" /> <path
   d="m 29.965,10.87 h -19.93 c -0.491,0 -0.89,0.399 -0.89,0.892 0,0.49 0.398,0.89 0.89,0.89 h 19.93 c 0.492,0 0.891,-0.399 0.891,-0.89 C 30.855,11.27 30.457,10.87 29.965,10.87 Z"
   id="path278"
   style="fill:#497da2;fill-opacity:1" /> <path
   d="m 29.965,15.123 h -19.93 c -0.491,0 -0.89,0.397 -0.89,0.89 0,0.489 0.398,0.89 0.89,0.89 h 19.93 c 0.492,0 0.891,-0.4 0.891,-0.89 -0.001,-0.492 -0.399,-0.89 -0.891,-0.89 z"
   id="path280"
   style="fill:#497da2;fill-opacity:1" /> <path
   d="m 19.469,19.373 h -9.434 c -0.491,0 -0.89,0.399 -0.89,0.89 0,0.492 0.398,0.892 0.89,0.892 h 9.434 c 0.491,0 0.89,-0.399 0.89,-0.892 -0.001,-0.491 -0.399,-0.89 -0.89,-0.89 z"
   id="path282"
   style="fill:#497da2;fill-opacity:1" /> </g> </g> <path
   display="none"
   d="m 20.014,34.519 c -0.225,0 -0.437,-0.096 -0.585,-0.262 C 15.019,29.332 6.645,19.978 6.509,19.818 5.214,18.236 4.5,16.267 4.5,14.273 c 0,-4.85 4.026,-8.792 8.974,-8.792 2.429,0 4.697,0.927 6.387,2.615 L 20,8.234 20.139,8.096 c 1.69,-1.688 3.958,-2.615 6.388,-2.615 4.948,0 8.974,3.942 8.974,8.792 0,2.02 -0.684,3.923 -1.975,5.499 L 20.597,34.257 c -0.149,0.166 -0.361,0.262 -0.583,0.262 z M 13.474,7.05 c -4.083,0 -7.405,3.24 -7.405,7.224 0,1.656 0.561,3.216 1.62,4.507 0.245,0.284 8.05,9.006 12.175,13.612 l 0.147,0.164 12.321,-13.803 c 1.047,-1.278 1.598,-2.826 1.598,-4.48 0,-3.983 -3.321,-7.224 -7.404,-7.224 -2.339,0 -4.491,1.045 -5.907,2.869 -0.15,0.191 -0.375,0.303 -0.619,0.303 -0.244,0 -0.471,-0.111 -0.621,-0.303 C 17.965,8.095 15.813,7.05 13.474,7.05 Z"
   id="path288"
   style="fill:#497da2;fill-opacity:1" /> <path
   display="none"
   d="m 16,31 c -0.256,0 -0.513,-0.098 -0.707,-0.293 l -10,-10 c -0.391,-0.391 -0.391,-1.023 0,-1.414 0.391,-0.391 1.023,-0.391 1.414,0 L 16,28.586 35.293,9.293 c 0.391,-0.391 1.022,-0.391 1.414,0 0.391,0.391 0.391,1.023 0,1.414 l -20,20 C 16.512,30.902 16.256,31 16,31"
   id="path290"
   style="fill:#497da2;fill-opacity:1" /> <path
   display="none"
   d="m 28.757,35.5 c -2.557,0 -4.637,-2.079 -4.637,-4.637 0,-0.508 0.095,-1.02 0.291,-1.562 l 0.053,-0.147 -9.788,-6.17 -0.11,0.115 c -0.885,0.912 -2.065,1.416 -3.322,1.416 -2.556,0 -4.636,-2.081 -4.636,-4.638 0,-2.558 2.08,-4.637 4.636,-4.637 1.241,0 2.409,0.489 3.289,1.374 l 0.106,0.107 9.877,-5.731 -0.063,-0.156 c -0.221,-0.558 -0.333,-1.131 -0.333,-1.7 0,-2.556 2.08,-4.635 4.637,-4.635 2.556,0 4.636,2.079 4.636,4.635 0,2.559 -2.08,4.639 -4.636,4.639 -1.234,0 -2.397,-0.482 -3.275,-1.358 l -0.106,-0.107 -9.884,5.735 0.062,0.157 c 0.217,0.554 0.327,1.119 0.327,1.678 0,0.533 -0.104,1.081 -0.312,1.627 l -0.057,0.149 9.769,6.156 0.111,-0.116 c 0.892,-0.947 2.086,-1.466 3.365,-1.466 2.556,0 4.636,2.078 4.636,4.635 0,2.558 -2.08,4.637 -4.636,4.637 z m 0,-7.702 c -1.052,0 -2.019,0.534 -2.587,1.433 l -0.052,0.094 c -0.284,0.487 -0.429,1.004 -0.429,1.539 0,1.691 1.376,3.067 3.067,3.067 1.69,0 3.066,-1.376 3.066,-3.067 0.001,-1.691 -1.375,-3.066 -3.065,-3.066 z M 11.243,16.811 c -1.69,0 -3.066,1.376 -3.066,3.067 0,1.69 1.376,3.068 3.066,3.068 1.041,0 2.002,-0.527 2.571,-1.406 0.329,-0.523 0.496,-1.089 0.496,-1.662 0,-0.522 -0.14,-1.028 -0.411,-1.508 -0.087,-0.094 -0.133,-0.151 -0.169,-0.213 l -0.045,-0.116 c -0.588,-0.782 -1.479,-1.23 -2.442,-1.23 z M 28.757,6.069 c -1.691,0 -3.067,1.376 -3.067,3.065 0,1.692 1.376,3.069 3.067,3.069 1.69,0 3.066,-1.377 3.066,-3.069 0,-1.689 -1.376,-3.065 -3.066,-3.065 z"
   id="path292"
   style="fill:#497da2;fill-opacity:1" /> <g
   id="g336"
   style="fill:#497da2;fill-opacity:1"> <g
   id="g306"
   style="fill:#497da2;fill-opacity:1"> <g
   id="g296"
   style="fill:#497da2;fill-opacity:1"> <path
   d="m 22.746,31.173 h -5.538 c -0.505,0 -0.912,-0.41 -0.912,-0.912 V 29.62 c 0.006,-0.551 -0.021,-0.938 -0.079,-1.154 -0.311,-1.139 -1.134,-2.094 -1.931,-3.02 -0.263,-0.303 -0.511,-0.592 -0.739,-0.883 -1.147,-1.459 -1.757,-3.207 -1.757,-5.061 0,-4.526 3.684,-8.207 8.21,-8.207 4.525,0 8.208,3.681 8.208,8.207 0,1.855 -0.607,3.605 -1.757,5.063 -0.201,0.258 -0.433,0.528 -0.675,0.813 -0.816,0.96 -1.727,2.031 -2.041,3.162 -0.055,0.202 -0.082,0.565 -0.078,1.073 v 0.646 c 0,0.504 -0.407,0.914 -0.911,0.914 z m -4.624,-1.826 h 3.712 c 0.01,-0.71 0.079,-1.06 0.142,-1.288 0.423,-1.523 1.471,-2.76 2.396,-3.846 0.243,-0.286 0.456,-0.536 0.645,-0.774 0.893,-1.136 1.366,-2.495 1.366,-3.936 0,-3.52 -2.862,-6.384 -6.382,-6.384 -3.52,0 -6.384,2.864 -6.384,6.384 0,1.438 0.472,2.798 1.366,3.934 0.211,0.27 0.442,0.535 0.687,0.818 0.843,0.979 1.888,2.192 2.31,3.733 0.062,0.241 0.134,0.608 0.142,1.359 z"
   id="path294"
   style="fill:#497da2;fill-opacity:1" /> </g> <g
   id="g300"
   style="fill:#497da2;fill-opacity:1"> <path
   d="m 22.746,33.588 h -5.538 c -0.505,0 -0.912,-0.409 -0.912,-0.914 0,-0.504 0.407,-0.911 0.912,-0.911 h 5.538 c 0.504,0 0.911,0.407 0.911,0.911 0,0.505 -0.407,0.914 -0.911,0.914 z"
   id="path298"
   style="fill:#497da2;fill-opacity:1" /> </g> <g
   id="g304"
   style="fill:#497da2;fill-opacity:1"> <path
   d="m 21.362,36 h -2.769 c -0.505,0 -0.914,-0.409 -0.914,-0.912 0,-0.504 0.409,-0.914 0.914,-0.914 h 2.769 c 0.502,0 0.912,0.41 0.912,0.914 0,0.503 -0.41,0.912 -0.912,0.912 z"
   id="path302"
   style="fill:#497da2;fill-opacity:1" /> </g> </g> <g
   id="g310"
   style="fill:#497da2;fill-opacity:1"> <path
   d="m 34.592,20.415 h -3.648 c -0.504,0 -0.914,-0.407 -0.914,-0.912 0,-0.504 0.41,-0.912 0.914,-0.912 h 3.648 c 0.504,0 0.911,0.408 0.911,0.912 0,0.505 -0.407,0.912 -0.911,0.912 z"
   id="path308"
   style="fill:#497da2;fill-opacity:1" /> </g> <g
   id="g314"
   style="fill:#497da2;fill-opacity:1"> <path
   d="M 9.057,20.415 H 5.408 c -0.504,0 -0.911,-0.407 -0.911,-0.912 0,-0.504 0.407,-0.912 0.911,-0.912 h 3.648 c 0.504,0 0.914,0.408 0.914,0.912 10e-4,0.505 -0.409,0.912 -0.913,0.912 z"
   id="path312"
   style="fill:#497da2;fill-opacity:1" /> </g> <g
   id="g318"
   style="fill:#497da2;fill-opacity:1"> <path
   d="m 20,9.474 c -0.505,0 -0.914,-0.407 -0.914,-0.912 V 4.912 C 19.086,4.409 19.495,4 20,4 c 0.505,0 0.912,0.409 0.912,0.912 v 3.649 c 0,0.505 -0.407,0.913 -0.912,0.913 z"
   id="path316"
   style="fill:#497da2;fill-opacity:1" /> </g> <g
   id="g322"
   style="fill:#497da2;fill-opacity:1"> <path
   d="m 30.314,30.733 c -0.232,0 -0.465,-0.089 -0.644,-0.268 l -2.579,-2.58 c -0.356,-0.355 -0.356,-0.934 0,-1.291 0.357,-0.356 0.934,-0.354 1.29,0.002 l 2.579,2.579 c 0.357,0.357 0.357,0.936 0,1.292 -0.178,0.179 -0.41,0.266 -0.646,0.266 z"
   id="path320"
   style="fill:#497da2;fill-opacity:1" /> </g> <g
   id="g326"
   style="fill:#497da2;fill-opacity:1"> <path
   d="m 12.26,12.679 c -0.232,0 -0.466,-0.089 -0.646,-0.268 L 9.037,9.833 C 8.68,9.476 8.68,8.897 9.037,8.54 c 0.357,-0.356 0.934,-0.356 1.29,0 l 2.579,2.579 c 0.357,0.356 0.357,0.936 0,1.292 -0.178,0.179 -0.411,0.268 -0.646,0.268 z"
   id="path324"
   style="fill:#497da2;fill-opacity:1" /> </g> <g
   id="g330"
   style="fill:#497da2;fill-opacity:1"> <path
   d="m 9.682,30.733 c -0.233,0 -0.466,-0.087 -0.645,-0.266 -0.357,-0.356 -0.357,-0.935 0,-1.292 l 2.581,-2.581 c 0.354,-0.356 0.931,-0.356 1.288,0 0.357,0.357 0.357,0.936 0,1.293 l -2.579,2.58 c -0.179,0.178 -0.411,0.266 -0.645,0.266 z"
   id="path328"
   style="fill:#497da2;fill-opacity:1" /> </g> <g
   id="g334"
   style="fill:#497da2;fill-opacity:1"> <path
   d="m 27.738,12.679 c -0.233,0 -0.466,-0.089 -0.646,-0.268 -0.354,-0.356 -0.354,-0.934 0,-1.29 l 2.579,-2.579 c 0.354,-0.356 0.935,-0.358 1.29,-0.002 0.357,0.357 0.357,0.934 0,1.291 l -2.577,2.578 c -0.178,0.179 -0.411,0.27 -0.646,0.27 z"
   id="path332"
   style="fill:#497da2;fill-opacity:1" /> </g> </g> </g>

</svg>
