<?xml version="1.0" encoding="UTF-8" standalone="no"?>
<!-- Uploaded to: SVG Repo, www.svgrepo.com, Transformed by: SVG Repo Mixer Tools -->

<svg
   fill="#4e8807"
   version="1.1"
   id="Capa_1"
   viewBox="0 0 45.999996 60"
   xml:space="preserve"
   width="61.333328"
   height="80"
   stroke="#4e8807"
   sodipodi:docname="research-icon.svg"
   xmlns:inkscape="http://www.inkscape.org/namespaces/inkscape"
   xmlns:sodipodi="http://sodipodi.sourceforge.net/DTD/sodipodi-0.dtd"
   xmlns="http://www.w3.org/2000/svg"
   xmlns:svg="http://www.w3.org/2000/svg"><defs
   id="defs5600" /><sodipodi:namedview
   id="namedview5598"
   pagecolor="#505050"
   bordercolor="#eeeeee"
   borderopacity="1"
   inkscape:showpageshadow="0"
   inkscape:pageopacity="0"
   inkscape:pagecheckerboard="0"
   inkscape:deskcolor="#505050"
   showgrid="false" />





<g
   id="SVGRepo_iconCarrier"
   style="fill:#497da2;fill-opacity:1;stroke:none"
   transform="translate(-7)"> <g
   id="g5594"
   style="fill:#497da2;fill-opacity:1;stroke:none"> <g
   id="g5562"
   style="fill:#497da2;fill-opacity:1;stroke:none"> <g
   id="g5560"
   style="fill:#497da2;fill-opacity:1;stroke:none"> <path
   d="m 53,12 c 0,-0.1 0,-0.2 -0.1,-0.3 v -0.1 c -0.1,-0.1 -0.1,-0.2 -0.2,-0.3 l -11,-11 C 41.6,0.2 41.5,0.2 41.4,0.1 H 41.3 C 41.2,0.1 41.1,0 41,0 V 0 H 8 C 7.4,0 7,0.4 7,1 v 58 c 0,0.6 0.4,1 1,1 h 5 6 5 9 19 c 0.6,0 1,-0.4 1,-1 z M 49.6,11 H 42 V 3.4 Z M 14,23 h 4 V 52 H 14 Z M 14.5,21 16,17.5 17.5,21 Z M 14,58 v -4 h 4 v 4 z m 11,0 v -6 h 4 v -2 h -4 v -6 h 4 v -2 h -4 v -7 h 4 v -2 h -4 v -6 h 4 v -2 h -4 v -5 h 7 v 38 z m 9,0 V 19 c 0,-0.6 -0.4,-1 -1,-1 h -9 c -0.6,0 -1,0.4 -1,1 V 58 H 20 V 53 22 c 0,-0.3 -0.1,-0.6 -0.3,-0.7 l -2.8,-6.6 c -0.1,-0.4 -0.5,-0.6 -0.9,-0.6 -0.4,0 -0.7,0.2 -0.9,0.6 l -2.8,6.6 C 12.1,21.5 12,21.7 12,22 v 31 5 H 9 V 2 h 31 v 10 c 0,0.6 0.4,1 1,1 h 10 v 45 z"
   id="path5540"
   style="fill:#497da2;fill-opacity:1;stroke:none" /> <rect
   x="12"
   y="5"
   width="8"
   height="2"
   id="rect5542"
   style="fill:#497da2;fill-opacity:1;stroke:none" /> <rect
   x="38"
   y="22"
   width="9"
   height="2"
   id="rect5544"
   style="fill:#497da2;fill-opacity:1;stroke:none" /> <rect
   x="38"
   y="27"
   width="9"
   height="2"
   id="rect5546"
   style="fill:#497da2;fill-opacity:1;stroke:none" /> <rect
   x="38"
   y="32"
   width="9"
   height="2"
   id="rect5548"
   style="fill:#497da2;fill-opacity:1;stroke:none" /> <rect
   x="38"
   y="37"
   width="9"
   height="2"
   id="rect5550"
   style="fill:#497da2;fill-opacity:1;stroke:none" /> <rect
   x="38"
   y="42"
   width="9"
   height="2"
   id="rect5552"
   style="fill:#497da2;fill-opacity:1;stroke:none" /> <rect
   x="38"
   y="47"
   width="9"
   height="2"
   id="rect5554"
   style="fill:#497da2;fill-opacity:1;stroke:none" /> <rect
   x="38"
   y="52"
   width="9"
   height="2"
   id="rect5556"
   style="fill:#497da2;fill-opacity:1;stroke:none" /> <rect
   x="12"
   y="9"
   width="16"
   height="2"
   id="rect5558"
   style="fill:#497da2;fill-opacity:1;stroke:none" /> </g> </g> <g
   id="g5564"
   style="fill:#497da2;fill-opacity:1;stroke:none"> </g> <g
   id="g5566"
   style="fill:#497da2;fill-opacity:1;stroke:none"> </g> <g
   id="g5568"
   style="fill:#497da2;fill-opacity:1;stroke:none"> </g> <g
   id="g5570"
   style="fill:#497da2;fill-opacity:1;stroke:none"> </g> <g
   id="g5572"
   style="fill:#497da2;fill-opacity:1;stroke:none"> </g> <g
   id="g5574"
   style="fill:#497da2;fill-opacity:1;stroke:none"> </g> <g
   id="g5576"
   style="fill:#497da2;fill-opacity:1;stroke:none"> </g> <g
   id="g5578"
   style="fill:#497da2;fill-opacity:1;stroke:none"> </g> <g
   id="g5580"
   style="fill:#497da2;fill-opacity:1;stroke:none"> </g> <g
   id="g5582"
   style="fill:#497da2;fill-opacity:1;stroke:none"> </g> <g
   id="g5584"
   style="fill:#497da2;fill-opacity:1;stroke:none"> </g> <g
   id="g5586"
   style="fill:#497da2;fill-opacity:1;stroke:none"> </g> <g
   id="g5588"
   style="fill:#497da2;fill-opacity:1;stroke:none"> </g> <g
   id="g5590"
   style="fill:#497da2;fill-opacity:1;stroke:none"> </g> <g
   id="g5592"
   style="fill:#497da2;fill-opacity:1;stroke:none"> </g> </g> </g>

</svg>
