<svg width="28" height="28" viewBox="0 0 28 28" fill="none" xmlns="http://www.w3.org/2000/svg">
<path d="M0 10.1333C0 6.58633 0 4.81283 0.69029 3.45806C1.29749 2.26637 2.26637 1.29749 3.45806 0.69029C4.81283 0 6.58633 0 10.1333 0H17.8667C21.4137 0 23.1872 0 24.5419 0.69029C25.7336 1.29749 26.7025 2.26637 27.3097 3.45806C28 4.81283 28 6.58633 28 10.1333V17.8667C28 21.4137 28 23.1872 27.3097 24.5419C26.7025 25.7336 25.7336 26.7025 24.5419 27.3097C23.1872 28 21.4137 28 17.8667 28H10.1333C6.58633 28 4.81283 28 3.45806 27.3097C2.26637 26.7025 1.29749 25.7336 0.69029 24.5419C0 23.1872 0 21.4137 0 17.8667V10.1333Z" fill="white"/>
<path d="M0 10.1333C0 6.58633 0 4.81283 0.69029 3.45806C1.29749 2.26637 2.26637 1.29749 3.45806 0.69029C4.81283 0 6.58633 0 10.1333 0H17.8667C21.4137 0 23.1872 0 24.5419 0.69029C25.7336 1.29749 26.7025 2.26637 27.3097 3.45806C28 4.81283 28 6.58633 28 10.1333V17.8667C28 21.4137 28 23.1872 27.3097 24.5419C26.7025 25.7336 25.7336 26.7025 24.5419 27.3097C23.1872 28 21.4137 28 17.8667 28H10.1333C6.58633 28 4.81283 28 3.45806 27.3097C2.26637 26.7025 1.29749 25.7336 0.69029 24.5419C0 23.1872 0 21.4137 0 17.8667V10.1333Z" fill="url(#paint0_radial_879_11)"/>
<path d="M0 10.1333C0 6.58633 0 4.81283 0.69029 3.45806C1.29749 2.26637 2.26637 1.29749 3.45806 0.69029C4.81283 0 6.58633 0 10.1333 0H17.8667C21.4137 0 23.1872 0 24.5419 0.69029C25.7336 1.29749 26.7025 2.26637 27.3097 3.45806C28 4.81283 28 6.58633 28 10.1333V17.8667C28 21.4137 28 23.1872 27.3097 24.5419C26.7025 25.7336 25.7336 26.7025 24.5419 27.3097C23.1872 28 21.4137 28 17.8667 28H10.1333C6.58633 28 4.81283 28 3.45806 27.3097C2.26637 26.7025 1.29749 25.7336 0.69029 24.5419C0 23.1872 0 21.4137 0 17.8667V10.1333Z" fill="url(#paint1_radial_879_11)"/>
<path d="M0 10.1333C0 6.58633 0 4.81283 0.69029 3.45806C1.29749 2.26637 2.26637 1.29749 3.45806 0.69029C4.81283 0 6.58633 0 10.1333 0H17.8667C21.4137 0 23.1872 0 24.5419 0.69029C25.7336 1.29749 26.7025 2.26637 27.3097 3.45806C28 4.81283 28 6.58633 28 10.1333V17.8667C28 21.4137 28 23.1872 27.3097 24.5419C26.7025 25.7336 25.7336 26.7025 24.5419 27.3097C23.1872 28 21.4137 28 17.8667 28H10.1333C6.58633 28 4.81283 28 3.45806 27.3097C2.26637 26.7025 1.29749 25.7336 0.69029 24.5419C0 23.1872 0 21.4137 0 17.8667V10.1333Z" fill="url(#paint2_radial_879_11)"/>
<path d="M0 10.1333C0 6.58633 0 4.81283 0.69029 3.45806C1.29749 2.26637 2.26637 1.29749 3.45806 0.69029C4.81283 0 6.58633 0 10.1333 0H17.8667C21.4137 0 23.1872 0 24.5419 0.69029C25.7336 1.29749 26.7025 2.26637 27.3097 3.45806C28 4.81283 28 6.58633 28 10.1333V17.8667C28 21.4137 28 23.1872 27.3097 24.5419C26.7025 25.7336 25.7336 26.7025 24.5419 27.3097C23.1872 28 21.4137 28 17.8667 28H10.1333C6.58633 28 4.81283 28 3.45806 27.3097C2.26637 26.7025 1.29749 25.7336 0.69029 24.5419C0 23.1872 0 21.4137 0 17.8667V10.1333Z" fill="url(#paint3_radial_879_11)"/>
<path d="M0 10.1333C0 6.58633 0 4.81283 0.69029 3.45806C1.29749 2.26637 2.26637 1.29749 3.45806 0.69029C4.81283 0 6.58633 0 10.1333 0H17.8667C21.4137 0 23.1872 0 24.5419 0.69029C25.7336 1.29749 26.7025 2.26637 27.3097 3.45806C28 4.81283 28 6.58633 28 10.1333V17.8667C28 21.4137 28 23.1872 27.3097 24.5419C26.7025 25.7336 25.7336 26.7025 24.5419 27.3097C23.1872 28 21.4137 28 17.8667 28H10.1333C6.58633 28 4.81283 28 3.45806 27.3097C2.26637 26.7025 1.29749 25.7336 0.69029 24.5419C0 23.1872 0 21.4137 0 17.8667V10.1333Z" fill="url(#paint4_radial_879_11)"/>
<path d="M0 10.1333C0 6.58633 0 4.81283 0.69029 3.45806C1.29749 2.26637 2.26637 1.29749 3.45806 0.69029C4.81283 0 6.58633 0 10.1333 0H17.8667C21.4137 0 23.1872 0 24.5419 0.69029C25.7336 1.29749 26.7025 2.26637 27.3097 3.45806C28 4.81283 28 6.58633 28 10.1333V17.8667C28 21.4137 28 23.1872 27.3097 24.5419C26.7025 25.7336 25.7336 26.7025 24.5419 27.3097C23.1872 28 21.4137 28 17.8667 28H10.1333C6.58633 28 4.81283 28 3.45806 27.3097C2.26637 26.7025 1.29749 25.7336 0.69029 24.5419C0 23.1872 0 21.4137 0 17.8667V10.1333Z" fill="url(#paint5_radial_879_11)"/>
<path d="M0 10.1333C0 6.58633 0 4.81283 0.69029 3.45806C1.29749 2.26637 2.26637 1.29749 3.45806 0.69029C4.81283 0 6.58633 0 10.1333 0H17.8667C21.4137 0 23.1872 0 24.5419 0.69029C25.7336 1.29749 26.7025 2.26637 27.3097 3.45806C28 4.81283 28 6.58633 28 10.1333V17.8667C28 21.4137 28 23.1872 27.3097 24.5419C26.7025 25.7336 25.7336 26.7025 24.5419 27.3097C23.1872 28 21.4137 28 17.8667 28H10.1333C6.58633 28 4.81283 28 3.45806 27.3097C2.26637 26.7025 1.29749 25.7336 0.69029 24.5419C0 23.1872 0 21.4137 0 17.8667V10.1333Z" fill="url(#paint6_radial_879_11)"/>
<path d="M22.4703 8.436C20.9886 6.79672 18.9003 5.87536 16.7303 5.88732C14.6069 5.88732 12.4486 6.82066 11.0603 8.3283C10.8036 8.3044 10.5469 8.2805 10.3019 8.2805C6.13693 8.2805 3.55859 11.8702 3.55859 15.1967C3.57026 16.9916 4.24693 18.7147 5.44859 20.0309C6.70859 21.407 8.4586 22.1848 10.3019 22.1848H16.7303C21.0936 22.1848 24.6403 18.5113 24.6403 14.0121C24.6169 11.942 23.8469 9.9557 22.4703 8.436ZM10.1736 21.0121C7.08193 21.0121 4.58526 18.4395 4.58526 15.2685C4.58526 12.1215 7.07026 9.5608 10.1503 9.5369C11.5153 9.5369 12.9503 9.9916 13.8603 10.9848L16.2053 13.4497C16.5903 13.8566 16.5786 14.5027 16.1819 14.8976C15.7853 15.2925 15.1553 15.2805 14.7703 14.8736L12.4836 12.4566C10.9903 11.1403 8.7386 11.3078 7.45526 12.8395C6.89526 13.4976 6.59193 14.3472 6.59193 15.2207C6.59193 17.2309 8.2603 18.9301 10.2319 18.9301H10.6869C11.3403 19.8634 13.1719 21.0121 13.1719 21.0121H10.1736ZM21.6303 18.954C20.3819 20.2942 18.6553 21.048 16.8469 21.06C15.1319 21.06 13.3819 20.2702 12.0403 18.9061L8.9836 15.7472C8.5986 15.3403 8.6103 14.6942 8.9953 14.2993C9.1819 14.1078 9.4269 14.0121 9.6953 14.0121C9.9636 14.0121 10.2203 14.1198 10.4069 14.3232L13.4519 17.4463C14.4203 18.4395 15.6569 19.0019 16.8469 19.0019C18.1186 19.0019 19.3319 18.4634 20.2069 17.5061C21.1053 16.5608 21.6069 15.2925 21.6069 13.9762C21.6069 11.2719 19.4603 9.0822 16.8236 9.0702C15.8203 9.0702 14.9919 9.2736 14.1753 9.86C13.7129 9.3858 12.7169 8.9147 12.2619 8.8189C13.5219 7.6104 15.0969 7.02408 16.8236 7.02408C20.5686 7.02408 23.5903 10.1352 23.6019 13.9762C23.6019 15.8309 22.9019 17.6258 21.6303 18.954Z" fill="white"/>
<defs>
<radialGradient id="paint0_radial_879_11" cx="0" cy="0" r="1" gradientUnits="userSpaceOnUse" gradientTransform="translate(23.275 23.9316) rotate(46.87) scale(16.7238 17.1298)">
<stop stop-color="#68E048"/>
<stop offset="1" stop-color="#5CE049" stop-opacity="0"/>
</radialGradient>
<radialGradient id="paint1_radial_879_11" cx="0" cy="0" r="1" gradientUnits="userSpaceOnUse" gradientTransform="translate(4.43333 23.812) rotate(137.364) scale(17.0478 17.527)">
<stop stop-color="#308CFE"/>
<stop offset="1" stop-color="#2F8BFF" stop-opacity="0"/>
</radialGradient>
<radialGradient id="paint2_radial_879_11" cx="0" cy="0" r="1" gradientUnits="userSpaceOnUse" gradientTransform="translate(22.75 15.6752) rotate(7.9001) scale(10.0117 10.5219)">
<stop stop-color="#FDD511"/>
<stop offset="1" stop-color="#FDD20D" stop-opacity="0"/>
</radialGradient>
<radialGradient id="paint3_radial_879_11" cx="0" cy="0" r="1" gradientUnits="userSpaceOnUse" gradientTransform="translate(4.78333 10.1111) rotate(-127.134) scale(14.7842 15.0641)">
<stop stop-color="#F928C2"/>
<stop offset="1" stop-color="#F922BC" stop-opacity="0"/>
</radialGradient>
<radialGradient id="paint4_radial_879_11" cx="0" cy="0" r="1" gradientUnits="userSpaceOnUse" gradientTransform="translate(15.8667 4.66667) rotate(-63.404) scale(14.8538 15.0084)">
<stop stop-color="#F90700"/>
<stop offset="1" stop-color="#F90700" stop-opacity="0"/>
</radialGradient>
<radialGradient id="paint5_radial_879_11" cx="0" cy="0" r="1" gradientUnits="userSpaceOnUse" gradientTransform="translate(26.4833 4.06838) rotate(-65.6935) scale(8.92818 9.00675)">
<stop stop-color="#FB4200"/>
<stop offset="1" stop-color="#FB4300" stop-opacity="0"/>
</radialGradient>
<radialGradient id="paint6_radial_879_11" cx="0" cy="0" r="1" gradientUnits="userSpaceOnUse" gradientTransform="translate(2.91667 3.41026) rotate(-133.672) scale(7.94077 8.13743)">
<stop stop-color="#FE0D88"/>
<stop offset="1" stop-color="#FE0D88" stop-opacity="0"/>
</radialGradient>
</defs>
</svg>
