<svg width="24" height="24" viewBox="0 0 24 24" fill="none" xmlns="http://www.w3.org/2000/svg">
<path d="M20.5819 1.48267L20.5819 1.48268C21.4152 1.90727 22.0927 2.58476 22.5173 3.41804C22.7294 3.83419 22.8605 4.35829 22.9294 5.20167C22.9992 6.05672 23 7.14906 23 8.68569V15.3143C23 16.851 22.9992 17.9433 22.9294 18.7983C22.8605 19.6417 22.7294 20.1658 22.5173 20.5819L22.5173 20.5819C22.0927 21.4152 21.4152 22.0927 20.5819 22.5173L20.5819 22.5173C20.1658 22.7294 19.6417 22.8605 18.7983 22.9294C17.9433 22.9992 16.851 23 15.3143 23H8.68569C7.14906 23 6.05672 22.9992 5.20167 22.9294C4.35829 22.8605 3.83419 22.7294 3.41805 22.5173C2.58476 22.0927 1.90727 21.4152 1.48268 20.5819L1.48267 20.5819C1.27065 20.1658 1.13955 19.6417 1.07064 18.7983C1.00078 17.9433 1 16.851 1 15.3143V8.68569C1 7.14906 1.00078 6.05672 1.07064 5.20166C1.13955 4.35828 1.27065 3.83419 1.48268 3.41804C1.90727 2.58476 2.58476 1.90727 3.41804 1.48268C3.83419 1.27065 4.35828 1.13955 5.20166 1.07064C6.05672 1.00078 7.14906 1 8.68569 1H15.3143C16.851 1 17.9433 1.00078 18.7983 1.07064C19.6417 1.13955 20.1658 1.27065 20.5819 1.48267Z" stroke="#820165" stroke-width="2"/>
<path d="M12.5543 7.05754L9.55968 12.127L12.7635 17.5101C12.8301 17.6322 12.7635 17.6592 12.667 17.6592H10.3808C10.2198 17.6592 10.1071 17.6534 10.0427 17.5432C9.8278 17.1139 9.61317 16.6873 9.39863 16.2634C9.18383 15.8397 8.95574 15.4077 8.71446 14.9672C8.47291 14.527 8.23411 14.0812 7.99797 13.6297C7.78317 14.0701 7.54428 14.5104 7.31371 14.9507C7.0828 15.3911 6.85471 15.8287 6.62946 16.2634C6.40408 16.6984 6.17331 17.1305 5.93718 17.5597C5.89416 17.6588 5.81892 17.669 5.71174 17.669H3.50608C3.41941 17.669 3.40896 17.6038 3.45779 17.5267L6.56506 12.2921L3.53826 7.04099C3.48328 6.96608 3.53059 6.88628 3.61878 6.89237H5.88884C5.98714 6.88688 6.07401 6.92391 6.13035 7.00799C6.32356 7.44839 6.53822 7.88879 6.77434 8.32902C7.01028 8.76942 7.24917 9.20434 7.4908 9.63351C7.73234 10.0629 7.97114 10.4977 8.17506 10.9381C8.3896 10.4868 8.60697 10.0465 8.82708 9.61705C9.04703 9.18771 9.27237 8.75562 9.50328 8.32079C9.73403 7.88605 9.95671 7.45397 10.1714 7.02454C10.2 6.93034 10.2682 6.88259 10.3646 6.89237H12.4737C12.5543 6.89237 12.5875 7.00234 12.5543 7.05754Z" fill="#FF61F6"/>
<path d="M17.1749 17.8736C15.755 17.8958 14.2678 17.3111 13.5202 16.0159C13.1552 15.394 12.9727 14.6152 12.9728 13.6793C12.9667 12.9214 13.1555 12.1753 13.5202 11.5161C14.4611 9.83426 16.3565 9.20409 18.157 9.36951V6.11645C18.157 6.03956 18.1892 6.00087 18.2536 6.00087H20.2822C20.3376 5.99274 20.3867 6.04305 20.3788 6.09993V15.859C20.3788 16.2616 20.4187 16.6629 20.4432 17.0644C20.4472 17.133 20.4075 17.2009 20.3465 17.2296C19.3443 17.6583 18.2597 17.8686 17.1749 17.8736ZM18.157 15.8259V11.318C16.6865 10.9095 15.2588 12.0295 15.259 13.5802C15.2241 15.1835 16.6061 16.2912 18.157 15.8259Z" fill="#FF61F6"/>
</svg>
