<svg width="36" height="36" viewBox="0 0 36 36" fill="none" xmlns="http://www.w3.org/2000/svg">
<path d="M15.338 5.58564L14.3851 3.16951C13.7701 1.61017 11.5633 1.61017 10.9483 3.16949L9.04244 8.00177C8.85469 8.47784 8.47784 8.85467 8.00177 9.04244L3.16951 10.9483C1.61017 11.5632 1.61017 13.7701 3.16949 14.3851L8.00177 16.2909C8.47784 16.4786 8.85467 16.8555 9.04244 17.3316L10.9483 22.1639C11.5632 23.7232 13.7701 23.7232 14.3851 22.1639L16.2909 17.3316C16.4786 16.8555 16.8555 16.4786 17.3316 16.2909L22.1639 14.3851C23.7232 13.7701 23.7232 11.5633 22.1639 10.9483L19.7478 9.99535" stroke="#D9DC58" stroke-width="3" stroke-linecap="round"/>
<path d="M25.9796 20.3966C26.3049 19.5716 27.4729 19.5716 27.7982 20.3966L29.2215 24.0055C29.3209 24.2574 29.5204 24.4569 29.7723 24.5563L33.3812 25.9796C34.2063 26.3049 34.2063 27.4729 33.3812 27.7982L29.7723 29.2215C29.5204 29.3209 29.3209 29.5204 29.2215 29.7723L27.7982 33.3812C27.4729 34.2063 26.3049 34.2063 25.9796 33.3812L24.5563 29.7723C24.4569 29.5204 24.2574 29.3209 24.0055 29.2215L20.3966 27.7982C19.5716 27.4729 19.5716 26.3049 20.3966 25.9796L24.0055 24.5563C24.2574 24.4569 24.4569 24.2574 24.5563 24.0055L25.9796 20.3966Z" stroke="#D9DC58" stroke-width="3"/>
</svg>
