<?xml version="1.0" encoding="UTF-8" standalone="no"?>
<!-- Uploaded to: SVG Repo, www.svgrepo.com, Transformed by: SVG Repo Mixer Tools -->

<svg
   fill="#ffffff"
   height="801.5625"
   width="801.5625"
   version="1.1"
   id="Layer_1"
   viewBox="0 0 513 513"
   xml:space="preserve"
   stroke="#ffffff"
   sodipodi:docname="behance-white.svg"
   xmlns:inkscape="http://www.inkscape.org/namespaces/inkscape"
   xmlns:sodipodi="http://sodipodi.sourceforge.net/DTD/sodipodi-0.dtd"
   xmlns="http://www.w3.org/2000/svg"
   xmlns:svg="http://www.w3.org/2000/svg"><defs
   id="defs2382" /><sodipodi:namedview
   id="namedview2380"
   pagecolor="#505050"
   bordercolor="#eeeeee"
   borderopacity="1"
   inkscape:showpageshadow="0"
   inkscape:pageopacity="0"
   inkscape:pagecheckerboard="0"
   inkscape:deskcolor="#505050"
   showgrid="false" />





<g
   id="SVGRepo_iconCarrier"
   style="fill:#3378e0;fill-opacity:1"
   transform="translate(0.5,0.5)"> <g
   id="g2376"
   style="fill:#3378e0;fill-opacity:1"> <path
   d="m 344.1,244.5 c -4.9,-4.2 -11,-6.3 -18.2,-6.3 -7.8,0 -13.9,2.2 -18.3,6.7 -4.3,4.5 -7,10.5 -8.2,18.1 h 52.7 c -0.4,-8.1 -3.2,-14.2 -8,-18.5 z"
   id="path2368"
   style="fill:#3378e0;fill-opacity:1" /> <path
   d="m 214.3,266.1 c -3.8,-1.7 -9,-2.6 -15.8,-2.7 h -39 v 42.2 H 198 c 6.9,0 12.2,-0.9 16,-2.8 7,-3.5 10.4,-10 10.4,-19.7 0,-8.2 -3.4,-13.9 -10.1,-17 z"
   id="path2370"
   style="fill:#3378e0;fill-opacity:1" /> <path
   d="M 256,0 C 114.6,0 0,114.6 0,256 0,397.4 114.6,512 256,512 397.4,512 512,397.4 512,256 512,114.6 397.4,0 256,0 Z m 35.6,182.3 h 67.8 V 202 h -67.8 z m -40.9,128.3 c -3,4.9 -6.7,9.1 -11.2,12.4 -5,3.9 -11,6.5 -17.9,8 -6.9,1.4 -14.3,2.1 -22.4,2.1 H 128 V 174.9 h 76.5 c 19.3,0.3 33,5.9 41,16.9 4.8,6.7 7.2,14.8 7.2,24.2 0,9.6 -2.4,17.4 -7.3,23.3 -2.7,3.3 -6.8,6.3 -12.1,9 8.1,3 14.2,7.6 18.3,14 4.1,6.4 6.2,14.1 6.2,23.2 0,9.2 -2.4,17.6 -7.1,25.1 z M 384,283.2 h -85.2 c 0.5,11.7 4.5,20 12.2,24.7 4.7,2.9 10.3,4.4 16.9,4.4 6.9,0 12.6,-1.8 17,-5.4 2.4,-1.9 4.5,-4.6 6.3,-8.1 h 31.2 c -0.8,6.9 -4.6,14 -11.3,21.2 -10.5,11.4 -25.1,17.1 -44,17.1 -15.6,0 -29.3,-4.8 -41.2,-14.4 C 274,313.1 268,297.5 268,275.9 c 0,-20.3 5.4,-35.8 16.1,-46.6 10.8,-10.8 24.7,-16.2 41.8,-16.2 10.2,0 19.4,1.8 27.5,5.5 8.2,3.6 14.9,9.4 20.2,17.3 4.8,6.9 7.9,15 9.3,24.2 0.9,5.3 1.2,13 1.1,23.1 z"
   id="path2372"
   style="fill:#3378e0;fill-opacity:1" /> <path
   d="m 214.8,233.3 c 4.3,-2.6 6.4,-7.3 6.4,-13.9 0,-7.4 -2.8,-12.2 -8.5,-14.6 -4.9,-1.6 -11.1,-2.5 -18.7,-2.5 h -34.4 v 34.9 H 198 c 6.9,0.1 12.4,-1.2 16.8,-3.9 z"
   id="path2374"
   style="fill:#3378e0;fill-opacity:1" /> </g> </g>

</svg>
