<?xml version="1.0" encoding="UTF-8" standalone="no"?>
<!-- Uploaded to: SVG Repo, www.svgrepo.com, Generator: SVG Repo Mixer Tools -->

<svg
   width="23.999996"
   height="23.999996"
   viewBox="0 0 1.4399998 1.4399998"
   fill="none"
   version="1.1"
   id="svg8"
   sodipodi:docname="behance.svg"
   xmlns:inkscape="http://www.inkscape.org/namespaces/inkscape"
   xmlns:sodipodi="http://sodipodi.sourceforge.net/DTD/sodipodi-0.dtd"
   xmlns="http://www.w3.org/2000/svg"
   xmlns:svg="http://www.w3.org/2000/svg">
  <defs
     id="defs12" />
  <sodipodi:namedview
     id="namedview10"
     pagecolor="#505050"
     bordercolor="#eeeeee"
     borderopacity="1"
     inkscape:showpageshadow="0"
     inkscape:pageopacity="0"
     inkscape:pagecheckerboard="0"
     inkscape:deskcolor="#505050"
     showgrid="false" />
  <circle
     cx="0.72000003"
     cy="0.72000003"
     fill="#1769ff"
     id="circle2"
     style="stroke-width:0.0360001"
     r="0.72000003" />
  <path
     d="m 0.53931984,0.43200024 c 0.024894,0 0.047891,0.0019 0.068994,0.00759 0.0211,0.00379 0.038408,0.011621 0.05382,0.021103 0.015412,0.00948 0.026791,0.022997 0.034614,0.040306 0.00759,0.017309 0.011617,0.038408 0.011617,0.061409 0,0.026791 -0.00569,0.049788 -0.019202,0.067097 -0.011617,0.017305 -0.030586,0.032717 -0.05382,0.0441 0.032717,0.00948 0.057611,0.026791 0.072785,0.049788 0.015174,0.022997 0.024898,0.051685 0.024898,0.084406 0,0.026791 -0.00569,0.049788 -0.015412,0.068994 -0.00949,0.019202 -0.024894,0.036511 -0.042203,0.047891 -0.017309,0.011621 -0.038408,0.021103 -0.061409,0.026791 -0.022997,0.00569 -0.045994,0.00949 -0.068994,0.00949 l -0.2570076,4.654e-4 v -0.5294304 z m -0.015412,0.2148048 c 0.0211,0 0.038408,-0.00569 0.051685,-0.015408 0.013277,-0.00972 0.019206,-0.026795 0.019206,-0.047894 0,-0.011617 -0.0019,-0.022997 -0.00569,-0.030586 -0.00379,-0.00759 -0.00948,-0.013514 -0.017309,-0.019202 -0.00759,-0.00379 -0.015408,-0.00759 -0.024894,-0.00949 -0.00948,-0.0019 -0.019202,-0.0019 -0.030586,-0.0019 h -0.1111972 v 0.1247112 c 0,-2.376e-4 0.1187856,-2.376e-4 0.1187852,-2.376e-4 z m 0.00569,0.2264256 c 0.011617,0 0.022997,-0.0019 0.032717,-0.00379 0.00948,-0.0019 0.019206,-0.00569 0.026791,-0.011617 0.00759,-0.00593 0.013514,-0.011617 0.019206,-0.0211 0.00379,-0.00949 0.00759,-0.021103 0.00759,-0.034618 0,-0.026791 -0.00759,-0.045994 -0.022997,-0.059508 -0.015412,-0.011621 -0.036511,-0.017309 -0.061409,-0.017309 h -0.1263732 v 0.147708 h 0.1244772 z"
     fill="#ffffff"
     id="path4"
     style="stroke-width:0.0360001" />
  <path
     d="m 0.89992824,0.87132984 c 0.015412,0.015412 0.038408,0.023 0.068994,0.023 0.021103,0 0.040306,-0.00569 0.055717,-0.015412 0.015412,-0.011617 0.024894,-0.022997 0.028688,-0.034618 h 0.093888 c -0.015408,0.0459984 -0.038408,0.0787188 -0.068994,0.0998184 -0.030582,0.019206 -0.067097,0.0305856 -0.11119676,0.0305856 -0.030582,0 -0.057611,-0.00569 -0.082508,-0.015412 -0.024894,-0.00948 -0.044096,-0.022997 -0.061405,-0.042203 -0.017309,-0.017309 -0.030586,-0.038408 -0.038408,-0.063302 -0.00949,-0.024894 -0.013514,-0.051689 -0.013514,-0.082508 0,-0.028688 0.00379,-0.055717 0.013514,-0.080611 0.00972,-0.024898 0.022997,-0.045997 0.040306,-0.065203 0.017309,-0.017305 0.038408,-0.032717 0.061405,-0.042203 0.024898,-0.00948 0.049792,-0.015408 0.080611,-0.015408 0.03272,0 0.061409,0.00569 0.086303,0.019202 0.024894,0.013514 0.0441,0.028688 0.059512,0.051685 0.015412,0.021103 0.026791,0.045997 0.034614,0.072788 0.00379,0.026791 0.00569,0.05382 0.00379,0.084406 H 0.87313704 c 0,0.031298 0.01138,0.059987 0.0267912,0.075395 z M 1.020845,0.66980184 c -0.013511,-0.013514 -0.034614,-0.0211 -0.059508,-0.0211 -0.017309,0 -0.030586,0.00379 -0.042203,0.00948 -0.011617,0.00569 -0.019206,0.013514 -0.026791,0.0211 -0.00759,0.00759 -0.011617,0.017309 -0.013514,0.026795 -0.0019,0.00948 -0.00379,0.017305 -0.00379,0.024894 H 1.0476398 c -0.00379,-0.0284486 -0.013514,-0.0476546 -0.026795,-0.061169 z M 0.85203744,0.46851144 H 1.0668422 v 0.051685 H 0.85203744 Z"
     fill="#ffffff"
     id="path6"
     style="stroke-width:0.0360001"
     inkscape:export-filename="path6.svg"
     inkscape:export-xdpi="96"
     inkscape:export-ydpi="96" />
</svg>
