<svg width="36" height="35" viewBox="0 0 36 35" fill="none" xmlns="http://www.w3.org/2000/svg">
<path d="M17.44 28.4147C17.44 28.4147 16.1726 24.4734 16.1726 21.8651C16.1726 19.2566 17.44 15.3155 17.44 15.3155M10.469 30.3794C10.469 30.3794 9.39857 25.6249 9.20158 22.52C8.87608 17.3899 10.469 9.4209 10.469 9.4209" stroke="#C82E37" stroke-width="3" stroke-linecap="round"/>
<path d="M19.2299 28.3307L10.7568 31.2496C6.13384 32.8423 3.82234 33.6386 2.60218 32.3775C1.38203 31.1164 2.15252 28.7275 3.69353 23.9497L6.51789 15.1927C7.79846 11.2224 8.43874 9.23718 9.95374 8.86755C11.4688 8.49792 12.9005 9.97759 15.7639 12.9369L21.4126 18.7748C24.276 21.7342 25.7078 23.2139 25.35 24.7797" stroke="#2E51C8" stroke-width="3" stroke-linecap="round"/>
<path d="M21.2417 14.0055L21.4824 12.7616C21.7253 11.5057 22.601 10.4807 23.7765 10.0757C24.9522 9.67073 25.8277 8.64573 26.0708 7.38985L26.3115 6.146" stroke="#2EC875" stroke-width="3" stroke-linecap="round"/>
<path d="M26.3574 19.6158L26.7133 19.8282C27.8118 20.4837 29.193 20.3391 30.142 19.4693C31.0015 18.6817 32.2253 18.4819 33.2778 18.9576L33.7651 19.1777" stroke="#2E51C8" stroke-width="3" stroke-linecap="round"/>
<path d="M13.3609 1.51929C12.7967 2.47309 12.9381 3.70216 13.703 4.49264L13.8665 4.66175C14.5238 5.34102 14.7662 6.33891 14.4973 7.25846" stroke="#C5C82E" stroke-width="3" stroke-linecap="round"/>
<path d="M8.56732 3.52631C8.91749 3.16441 9.48523 3.16441 9.8354 3.52631C10.1856 3.88822 10.1856 4.47498 9.8354 4.83689C9.48523 5.1988 8.91749 5.1988 8.56732 4.83689C8.21714 4.47498 8.21714 3.88822 8.56732 3.52631Z" fill="#F5F7FE"/>
<path d="M17.3095 9.0832C17.6598 8.72129 18.2275 8.72129 18.5777 9.0832C18.9278 9.4451 18.9278 10.0319 18.5777 10.3938C18.2275 10.7557 17.6598 10.7557 17.3095 10.3938C16.9593 10.0319 16.9593 9.4451 17.3095 9.0832Z" fill="#F5F7FE"/>
<path d="M25.6684 14.2665C26.0187 13.9046 26.5864 13.9046 26.9366 14.2665C27.2867 14.6285 27.2867 15.2152 26.9366 15.5772C26.5864 15.939 26.0187 15.939 25.6684 15.5772C25.3182 15.2152 25.3182 14.6285 25.6684 14.2665Z" fill="#F5F7FE"/>
<path d="M28.847 23.175C29.1972 22.8131 29.765 22.8131 30.1152 23.175C30.4652 23.5368 30.4652 24.1235 30.1152 24.4855C29.765 24.8475 29.1972 24.8475 28.847 24.4855C28.497 24.1235 28.497 23.5368 28.847 23.175Z" fill="#F5F7FE"/>
<path d="M29.354 10.0463C28.2335 11.2044 29.0376 14.562 29.0376 14.562C29.0376 14.562 32.2864 15.393 33.407 14.2349C34.5937 13.0085 33.9222 11.3987 32.0935 11.4037C32.0985 9.51385 30.5408 8.81986 29.354 10.0463Z" stroke="#C82E37" stroke-width="2" stroke-linejoin="round"/>
<path d="M22.3769 2.6223L22.3308 2.79008C22.2801 2.97437 22.2547 3.06651 22.2668 3.15697C22.2786 3.24744 22.3266 3.32596 22.4226 3.48303L22.5098 3.62603C22.8474 4.17876 23.016 4.45511 22.901 4.68117C22.7862 4.9072 22.4635 4.93322 21.8186 4.98528L21.6517 4.99874C21.4683 5.01353 21.3767 5.02092 21.2967 5.06444C21.2166 5.10797 21.1571 5.18269 21.038 5.33212L20.9296 5.46818C20.5106 5.99406 20.3012 6.257 20.0623 6.22319C19.8234 6.18938 19.7132 5.88121 19.4929 5.26486L19.4359 5.10539C19.3732 4.93025 19.3419 4.84267 19.2804 4.77911C19.2189 4.71555 19.1341 4.68321 18.9646 4.61849L18.8103 4.55959C18.214 4.33187 17.9158 4.21802 17.8832 3.97108C17.8504 3.72413 18.1048 3.50765 18.6137 3.07468L18.7453 2.96266C18.8899 2.83963 18.9623 2.77812 19.0042 2.69531C19.0464 2.6125 19.0536 2.51779 19.0679 2.32836L19.081 2.1559C19.1313 1.48928 19.1565 1.15596 19.3752 1.03717C19.5939 0.918352 19.8613 1.09273 20.3961 1.44149L20.5345 1.53173C20.6865 1.63083 20.7624 1.68038 20.85 1.69277C20.9374 1.70515 21.0267 1.67896 21.2049 1.6266L21.3674 1.57893C21.9948 1.39465 22.3086 1.30251 22.4764 1.47602C22.6442 1.64954 22.5551 1.9738 22.3769 2.6223Z" stroke="#C5C82E" stroke-width="2"/>
</svg>
