<svg width="201" height="163" viewBox="0 0 201 163" fill="none" xmlns="http://www.w3.org/2000/svg">
<path d="M167 52H34C19.6406 52 8 63.6406 8 78C8 92.3594 19.6406 104 34 104H167C181.359 104 193 92.3594 193 78C193 63.6406 181.359 52 167 52Z" fill="url(#paint0_linear_733_14)"/>
<path d="M57.152 78.288C57.7493 78.3947 58.256 78.7093 58.672 79.232C59.088 79.7547 59.296 80.3467 59.296 81.008C59.296 81.5733 59.1467 82.0853 58.848 82.544C58.56 82.992 58.1387 83.3493 57.584 83.616C57.0293 83.872 56.384 84 55.648 84H51.2V72.88H55.44C56.1973 72.88 56.848 73.008 57.392 73.264C57.936 73.52 58.3467 73.8667 58.624 74.304C58.9013 74.7307 59.04 75.2107 59.04 75.744C59.04 76.384 58.8693 76.9173 58.528 77.344C58.1867 77.7707 57.728 78.0853 57.152 78.288ZM53.024 77.552H55.28C55.8773 77.552 56.3413 77.4187 56.672 77.152C57.0133 76.8747 57.184 76.48 57.184 75.968C57.184 75.4667 57.0133 75.0773 56.672 74.8C56.3413 74.512 55.8773 74.368 55.28 74.368H53.024V77.552ZM55.488 82.512C56.1067 82.512 56.592 82.3627 56.944 82.064C57.296 81.7653 57.472 81.3493 57.472 80.816C57.472 80.272 57.2853 79.84 56.912 79.52C56.5387 79.2 56.0427 79.04 55.424 79.04H53.024V82.512H55.488ZM69.2621 75.184V84H67.4381V82.96C67.1501 83.3227 66.7715 83.6107 66.3021 83.824C65.8435 84.0267 65.3528 84.128 64.8301 84.128C64.1368 84.128 63.5128 83.984 62.9581 83.696C62.4141 83.408 61.9821 82.9813 61.6621 82.416C61.3528 81.8507 61.1981 81.168 61.1981 80.368V75.184H63.0061V80.096C63.0061 80.8853 63.2035 81.4933 63.5981 81.92C63.9928 82.336 64.5315 82.544 65.2141 82.544C65.8968 82.544 66.4355 82.336 66.8301 81.92C67.2355 81.4933 67.4381 80.8853 67.4381 80.096V75.184H69.2621ZM73.7968 76.672V81.552C73.7968 81.8827 73.8714 82.1227 74.0208 82.272C74.1808 82.4107 74.4474 82.48 74.8208 82.48H75.9408V84H74.5008C73.6794 84 73.0501 83.808 72.6128 83.424C72.1754 83.04 71.9568 82.416 71.9568 81.552V76.672H70.9168V75.184H71.9568V72.992H73.7968V75.184H75.9408V76.672H73.7968ZM79.7499 76.672V81.552C79.7499 81.8827 79.8245 82.1227 79.9739 82.272C80.1339 82.4107 80.4005 82.48 80.7739 82.48H81.8939V84H80.4539C79.6325 84 79.0032 83.808 78.5659 83.424C78.1285 83.04 77.9099 82.416 77.9099 81.552V76.672H76.8699V75.184H77.9099V72.992H79.7499V75.184H81.8939V76.672H79.7499ZM87.399 84.144C86.567 84.144 85.815 83.9573 85.143 83.584C84.471 83.2 83.943 82.6667 83.559 81.984C83.175 81.2907 82.983 80.4907 82.983 79.584C82.983 78.688 83.1803 77.8933 83.575 77.2C83.9697 76.5067 84.5083 75.9733 85.191 75.6C85.8737 75.2267 86.6363 75.04 87.479 75.04C88.3217 75.04 89.0843 75.2267 89.767 75.6C90.4497 75.9733 90.9883 76.5067 91.383 77.2C91.7777 77.8933 91.975 78.688 91.975 79.584C91.975 80.48 91.7723 81.2747 91.367 81.968C90.9617 82.6613 90.407 83.2 89.703 83.584C89.0097 83.9573 88.2417 84.144 87.399 84.144ZM87.399 82.56C87.8683 82.56 88.3057 82.448 88.711 82.224C89.127 82 89.463 81.664 89.719 81.216C89.975 80.768 90.103 80.224 90.103 79.584C90.103 78.944 89.9803 78.4053 89.735 77.968C89.4897 77.52 89.1643 77.184 88.759 76.96C88.3537 76.736 87.9163 76.624 87.447 76.624C86.9777 76.624 86.5403 76.736 86.135 76.96C85.7403 77.184 85.4257 77.52 85.191 77.968C84.9563 78.4053 84.839 78.944 84.839 79.584C84.839 80.5333 85.079 81.2693 85.559 81.792C86.0497 82.304 86.663 82.56 87.399 82.56ZM98.2261 75.04C98.9195 75.04 99.5381 75.184 100.082 75.472C100.637 75.76 101.069 76.1867 101.378 76.752C101.687 77.3173 101.842 78 101.842 78.8V84H100.034V79.072C100.034 78.2827 99.8368 77.68 99.4421 77.264C99.0475 76.8373 98.5088 76.624 97.8261 76.624C97.1435 76.624 96.5995 76.8373 96.1941 77.264C95.7995 77.68 95.6021 78.2827 95.6021 79.072V84H93.7781V75.184H95.6021V76.192C95.9008 75.8293 96.2795 75.5467 96.7381 75.344C97.2075 75.1413 97.7035 75.04 98.2261 75.04ZM110.149 82.528H113.909V84H108.325V72.88H110.149V82.528ZM114.826 79.552C114.826 78.6667 115.008 77.8827 115.37 77.2C115.744 76.5173 116.245 75.9893 116.874 75.616C117.514 75.232 118.218 75.04 118.986 75.04C119.68 75.04 120.282 75.1787 120.794 75.456C121.317 75.7227 121.733 76.0587 122.042 76.464V75.184H123.882V84H122.042V82.688C121.733 83.104 121.312 83.4507 120.778 83.728C120.245 84.0053 119.637 84.144 118.954 84.144C118.197 84.144 117.504 83.952 116.874 83.568C116.245 83.1733 115.744 82.6293 115.37 81.936C115.008 81.232 114.826 80.4373 114.826 79.552ZM122.042 79.584C122.042 78.976 121.914 78.448 121.658 78C121.413 77.552 121.088 77.2107 120.682 76.976C120.277 76.7413 119.84 76.624 119.37 76.624C118.901 76.624 118.464 76.7413 118.058 76.976C117.653 77.2 117.322 77.536 117.066 77.984C116.821 78.4213 116.698 78.944 116.698 79.552C116.698 80.16 116.821 80.6933 117.066 81.152C117.322 81.6107 117.653 81.9627 118.058 82.208C118.474 82.4427 118.912 82.56 119.37 82.56C119.84 82.56 120.277 82.4427 120.682 82.208C121.088 81.9733 121.413 81.632 121.658 81.184C121.914 80.7253 122.042 80.192 122.042 79.584ZM128.102 76.496C128.411 76.0693 128.833 75.7227 129.366 75.456C129.91 75.1787 130.513 75.04 131.174 75.04C131.953 75.04 132.657 75.2267 133.286 75.6C133.915 75.9733 134.411 76.5067 134.774 77.2C135.137 77.8827 135.318 78.6667 135.318 79.552C135.318 80.4373 135.137 81.232 134.774 81.936C134.411 82.6293 133.91 83.1733 133.27 83.568C132.641 83.952 131.942 84.144 131.174 84.144C130.491 84.144 129.883 84.0107 129.35 83.744C128.827 83.4773 128.411 83.136 128.102 82.72V84H126.278V72.16H128.102V76.496ZM133.462 79.552C133.462 78.944 133.334 78.4213 133.078 77.984C132.833 77.536 132.502 77.2 132.086 76.976C131.681 76.7413 131.243 76.624 130.774 76.624C130.315 76.624 129.878 76.7413 129.462 76.976C129.057 77.2107 128.726 77.552 128.47 78C128.225 78.448 128.102 78.976 128.102 79.584C128.102 80.192 128.225 80.7253 128.47 81.184C128.726 81.632 129.057 81.9733 129.462 82.208C129.878 82.4427 130.315 82.56 130.774 82.56C131.243 82.56 131.681 82.4427 132.086 82.208C132.502 81.9627 132.833 81.6107 133.078 81.152C133.334 80.6933 133.462 80.16 133.462 79.552ZM145.202 79.376C145.202 79.7067 145.181 80.0053 145.138 80.272H138.402C138.455 80.976 138.717 81.5413 139.186 81.968C139.655 82.3947 140.231 82.608 140.914 82.608C141.895 82.608 142.589 82.1973 142.994 81.376H144.962C144.695 82.1867 144.21 82.8533 143.506 83.376C142.813 83.888 141.949 84.144 140.914 84.144C140.071 84.144 139.314 83.9573 138.642 83.584C137.981 83.2 137.458 82.6667 137.074 81.984C136.701 81.2907 136.514 80.4907 136.514 79.584C136.514 78.6773 136.695 77.8827 137.058 77.2C137.431 76.5067 137.949 75.9733 138.61 75.6C139.282 75.2267 140.05 75.04 140.914 75.04C141.746 75.04 142.487 75.2213 143.138 75.584C143.789 75.9467 144.295 76.4587 144.658 77.12C145.021 77.7707 145.202 78.5227 145.202 79.376ZM143.298 78.8C143.287 78.128 143.047 77.5893 142.578 77.184C142.109 76.7787 141.527 76.576 140.834 76.576C140.205 76.576 139.666 76.7787 139.218 77.184C138.77 77.5787 138.503 78.1173 138.418 78.8H143.298ZM148.821 72.16V84H146.997V72.16H148.821Z" fill="white"/>
<rect x="9.5" y="52.5" width="39" height="50" fill="#FF7575" fill-opacity="0.45" stroke="#CA0000" stroke-width="3" stroke-dasharray="6 6"/>
<rect x="152.5" y="52.5" width="39" height="50" fill="#FF7575" fill-opacity="0.45" stroke="#CA0000" stroke-width="3" stroke-dasharray="6 6"/>
<g filter="url(#filter0_dd_733_14)">
<rect x="8" y="113" width="42" height="42" rx="8" fill="#B72A43"/>
</g>
<g filter="url(#filter1_dd_733_14)">
<rect x="151" y="113" width="42" height="42" rx="8" fill="#B72A43"/>
</g>
<path d="M24.527 140V137.648H19.557V136.276L24.457 129.57H26.095V136.276H27.537V137.648H26.095V140H24.527ZM20.775 136.878L20.509 136.276H24.527V130.886L24.975 131.026L20.775 136.878ZM29.3218 140V138.81L32.1778 135.758C32.7378 135.161 33.1765 134.68 33.4938 134.316C33.8205 133.943 34.0538 133.616 34.1938 133.336C34.3431 133.056 34.4178 132.762 34.4178 132.454C34.4178 131.95 34.2638 131.563 33.9558 131.292C33.6478 131.012 33.2511 130.872 32.7658 130.872C32.2618 130.872 31.8278 131.017 31.4638 131.306C31.0998 131.586 30.8478 131.997 30.7078 132.538L29.2518 132.118C29.3638 131.567 29.5878 131.091 29.9238 130.69C30.2598 130.279 30.6705 129.962 31.1558 129.738C31.6505 129.514 32.1825 129.402 32.7518 129.402C33.4145 129.402 33.9931 129.528 34.4878 129.78C34.9825 130.023 35.3651 130.363 35.6358 130.802C35.9158 131.241 36.0558 131.749 36.0558 132.328C36.0558 132.711 35.9811 133.084 35.8318 133.448C35.6918 133.803 35.4725 134.181 35.1738 134.582C34.8751 134.974 34.4925 135.417 34.0258 135.912L31.5058 138.6H36.2518V140H29.3218Z" fill="white"/>
<path d="M167.527 140V137.648H162.557V136.276L167.457 129.57H169.095V136.276H170.537V137.648H169.095V140H167.527ZM163.775 136.878L163.509 136.276H167.527V130.886L167.975 131.026L163.775 136.878ZM172.322 140V138.81L175.178 135.758C175.738 135.161 176.176 134.68 176.494 134.316C176.82 133.943 177.054 133.616 177.194 133.336C177.343 133.056 177.418 132.762 177.418 132.454C177.418 131.95 177.264 131.563 176.956 131.292C176.648 131.012 176.251 130.872 175.766 130.872C175.262 130.872 174.828 131.017 174.464 131.306C174.1 131.586 173.848 131.997 173.708 132.538L172.252 132.118C172.364 131.567 172.588 131.091 172.924 130.69C173.26 130.279 173.67 129.962 174.156 129.738C174.65 129.514 175.182 129.402 175.752 129.402C176.414 129.402 176.993 129.528 177.488 129.78C177.982 130.023 178.365 130.363 178.636 130.802C178.916 131.241 179.056 131.749 179.056 132.328C179.056 132.711 178.981 133.084 178.832 133.448C178.692 133.803 178.472 134.181 178.174 134.582C177.875 134.974 177.492 135.417 177.026 135.912L174.506 138.6H179.252V140H172.322Z" fill="white"/>
<path d="M100.5 63V31.5M100.5 63L108.5 55M100.5 63L92.5 55" stroke="#EAEBEB" stroke-width="3" stroke-linecap="round" stroke-linejoin="round"/>
<rect x="55" width="91" height="30" rx="8" fill="#5870DC"/>
<path d="M69.7515 19.12C69.2848 19.12 68.8515 19.0333 68.4515 18.86C68.0515 18.68 67.7115 18.4367 67.4315 18.13C67.1515 17.8233 66.9448 17.47 66.8115 17.07L67.8115 16.65C67.9915 17.11 68.2548 17.4633 68.6015 17.71C68.9481 17.9567 69.3481 18.08 69.8015 18.08C70.0681 18.08 70.3015 18.04 70.5015 17.96C70.7015 17.8733 70.8548 17.7533 70.9615 17.6C71.0748 17.4467 71.1315 17.27 71.1315 17.07C71.1315 16.7967 71.0548 16.58 70.9015 16.42C70.7481 16.26 70.5215 16.1333 70.2215 16.04L68.8215 15.6C68.2615 15.4267 67.8348 15.1633 67.5415 14.81C67.2481 14.45 67.1015 14.03 67.1015 13.55C67.1015 13.13 67.2048 12.7633 67.4115 12.45C67.6181 12.13 67.9015 11.88 68.2615 11.7C68.6281 11.52 69.0448 11.43 69.5115 11.43C69.9581 11.43 70.3648 11.51 70.7315 11.67C71.0981 11.8233 71.4115 12.0367 71.6715 12.31C71.9381 12.5833 72.1315 12.9 72.2515 13.26L71.2715 13.69C71.1248 13.2967 70.8948 12.9933 70.5815 12.78C70.2748 12.5667 69.9181 12.46 69.5115 12.46C69.2648 12.46 69.0481 12.5033 68.8615 12.59C68.6748 12.67 68.5281 12.79 68.4215 12.95C68.3215 13.1033 68.2715 13.2833 68.2715 13.49C68.2715 13.73 68.3481 13.9433 68.5015 14.13C68.6548 14.3167 68.8881 14.4567 69.2015 14.55L70.5015 14.96C71.0948 15.14 71.5415 15.4 71.8415 15.74C72.1415 16.0733 72.2915 16.49 72.2915 16.99C72.2915 17.4033 72.1815 17.77 71.9615 18.09C71.7481 18.41 71.4515 18.6633 71.0715 18.85C70.6915 19.03 70.2515 19.12 69.7515 19.12ZM76.4461 19.12C75.9061 19.12 75.4261 18.9967 75.0061 18.75C74.5928 18.4967 74.2694 18.1567 74.0361 17.73C73.8028 17.2967 73.6861 16.8133 73.6861 16.28C73.6861 15.7333 73.8028 15.25 74.0361 14.83C74.2761 14.41 74.5961 14.08 74.9961 13.84C75.3961 13.5933 75.8494 13.47 76.3561 13.47C76.7628 13.47 77.1261 13.54 77.4461 13.68C77.7661 13.82 78.0361 14.0133 78.2561 14.26C78.4761 14.5 78.6428 14.7767 78.7561 15.09C78.8761 15.4033 78.9361 15.7367 78.9361 16.09C78.9361 16.1767 78.9328 16.2667 78.9261 16.36C78.9194 16.4533 78.9061 16.54 78.8861 16.62H74.5761V15.72H78.2461L77.7061 16.13C77.7728 15.8033 77.7494 15.5133 77.6361 15.26C77.5294 15 77.3628 14.7967 77.1361 14.65C76.9161 14.4967 76.6561 14.42 76.3561 14.42C76.0561 14.42 75.7894 14.4967 75.5561 14.65C75.3228 14.7967 75.1428 15.01 75.0161 15.29C74.8894 15.5633 74.8394 15.8967 74.8661 16.29C74.8328 16.6567 74.8828 16.9767 75.0161 17.25C75.1561 17.5233 75.3494 17.7367 75.5961 17.89C75.8494 18.0433 76.1361 18.12 76.4561 18.12C76.7828 18.12 77.0594 18.0467 77.2861 17.9C77.5194 17.7533 77.7028 17.5633 77.8361 17.33L78.7561 17.78C78.6494 18.0333 78.4828 18.2633 78.2561 18.47C78.0361 18.67 77.7694 18.83 77.4561 18.95C77.1494 19.0633 76.8128 19.12 76.4461 19.12ZM80.4389 19V13.59H81.5189V14.76L81.3789 14.58C81.4922 14.2133 81.6989 13.9367 81.9989 13.75C82.2989 13.5633 82.6422 13.47 83.0289 13.47C83.4622 13.47 83.8456 13.5867 84.1789 13.82C84.5189 14.0467 84.7456 14.35 84.8589 14.73L84.5389 14.76C84.6989 14.3267 84.9422 14.0033 85.2689 13.79C85.6022 13.5767 85.9822 13.47 86.4089 13.47C86.7822 13.47 87.1189 13.5567 87.4189 13.73C87.7256 13.9033 87.9689 14.1433 88.1489 14.45C88.3289 14.7567 88.4189 15.1067 88.4189 15.5V19H87.2889V15.81C87.2889 15.5367 87.2389 15.3067 87.1389 15.12C87.0456 14.9267 86.9122 14.78 86.7389 14.68C86.5722 14.5733 86.3756 14.52 86.1489 14.52C85.9222 14.52 85.7222 14.5733 85.5489 14.68C85.3756 14.78 85.2389 14.9267 85.1389 15.12C85.0389 15.3133 84.9889 15.5433 84.9889 15.81V19H83.8689V15.81C83.8689 15.5367 83.8189 15.3067 83.7189 15.12C83.6256 14.9267 83.4922 14.78 83.3189 14.68C83.1522 14.5733 82.9522 14.52 82.7189 14.52C82.4922 14.52 82.2922 14.5733 82.1189 14.68C81.9456 14.78 81.8089 14.9267 81.7089 15.12C81.6156 15.3133 81.5689 15.5433 81.5689 15.81V19H80.4389ZM90.0284 19V13.59H91.1584V19H90.0284ZM90.0284 12.85V11.55H91.1584V12.85H90.0284ZM95.1376 19V11.55H98.2776C98.7442 11.55 99.1476 11.6333 99.4876 11.8C99.8276 11.96 100.088 12.1933 100.268 12.5C100.448 12.8 100.538 13.1567 100.538 13.57C100.538 13.93 100.444 14.26 100.258 14.56C100.078 14.8533 99.7942 15.0867 99.4076 15.26V14.76C99.7476 14.8933 100.024 15.0633 100.238 15.27C100.451 15.47 100.604 15.6967 100.698 15.95C100.798 16.2033 100.848 16.47 100.848 16.75C100.848 17.45 100.618 18 100.158 18.4C99.7042 18.8 99.0809 19 98.2876 19H95.1376ZM96.3176 17.95H98.3776C98.7709 17.95 99.0842 17.8433 99.3176 17.63C99.5509 17.41 99.6676 17.12 99.6676 16.76C99.6676 16.3933 99.5509 16.1033 99.3176 15.89C99.0842 15.67 98.7709 15.56 98.3776 15.56H96.3176V17.95ZM96.3176 14.52H98.3076C98.6276 14.52 98.8842 14.43 99.0776 14.25C99.2709 14.0633 99.3676 13.82 99.3676 13.52C99.3676 13.22 99.2709 12.9867 99.0776 12.82C98.8842 12.6533 98.6276 12.57 98.3076 12.57H96.3176V14.52ZM104.961 19.12C104.441 19.12 103.965 18.9967 103.531 18.75C103.105 18.5033 102.765 18.1667 102.511 17.74C102.258 17.3133 102.131 16.83 102.131 16.29C102.131 15.7433 102.258 15.26 102.511 14.84C102.765 14.4133 103.105 14.08 103.531 13.84C103.958 13.5933 104.435 13.47 104.961 13.47C105.495 13.47 105.971 13.5933 106.391 13.84C106.818 14.08 107.155 14.4133 107.401 14.84C107.655 15.26 107.781 15.7433 107.781 16.29C107.781 16.8367 107.655 17.3233 107.401 17.75C107.148 18.1767 106.808 18.5133 106.381 18.76C105.955 19 105.481 19.12 104.961 19.12ZM104.961 18.07C105.281 18.07 105.565 17.9933 105.811 17.84C106.058 17.6867 106.251 17.4767 106.391 17.21C106.538 16.9367 106.611 16.63 106.611 16.29C106.611 15.95 106.538 15.6467 106.391 15.38C106.251 15.1133 106.058 14.9033 105.811 14.75C105.565 14.5967 105.281 14.52 104.961 14.52C104.648 14.52 104.365 14.5967 104.111 14.75C103.865 14.9033 103.668 15.1133 103.521 15.38C103.381 15.6467 103.311 15.95 103.311 16.29C103.311 16.63 103.381 16.9367 103.521 17.21C103.668 17.4767 103.865 17.6867 104.111 17.84C104.365 17.9933 104.648 18.07 104.961 18.07ZM109.285 19V11.43H110.415V19H109.285ZM114.636 19.12C114.116 19.12 113.649 18.9967 113.236 18.75C112.829 18.4967 112.506 18.1567 112.266 17.73C112.032 17.3033 111.916 16.8233 111.916 16.29C111.916 15.7567 112.036 15.2767 112.276 14.85C112.516 14.4233 112.839 14.0867 113.246 13.84C113.652 13.5933 114.112 13.47 114.626 13.47C115.059 13.47 115.442 13.5567 115.776 13.73C116.109 13.9033 116.372 14.1433 116.566 14.45L116.396 14.71V11.43H117.516V19H116.446V17.9L116.576 18.11C116.389 18.4367 116.122 18.6867 115.776 18.86C115.429 19.0333 115.049 19.12 114.636 19.12ZM114.746 18.07C115.059 18.07 115.339 17.9933 115.586 17.84C115.839 17.6867 116.036 17.4767 116.176 17.21C116.322 16.9367 116.396 16.63 116.396 16.29C116.396 15.95 116.322 15.6467 116.176 15.38C116.036 15.1133 115.839 14.9033 115.586 14.75C115.339 14.5967 115.059 14.52 114.746 14.52C114.432 14.52 114.149 14.5967 113.896 14.75C113.642 14.9033 113.446 15.1133 113.306 15.38C113.166 15.6467 113.096 15.95 113.096 16.29C113.096 16.63 113.166 16.9367 113.306 17.21C113.446 17.4767 113.639 17.6867 113.886 17.84C114.139 17.9933 114.426 18.07 114.746 18.07ZM119.525 20.47V19.92C119.745 19.8667 119.915 19.7633 120.035 19.61C120.155 19.4633 120.228 19.26 120.255 19H119.725V17.7H120.875V18.55C120.875 19.0833 120.762 19.5133 120.535 19.84C120.308 20.1667 119.972 20.3767 119.525 20.47ZM126.164 19V12.55H124.734V11.55H127.334V19H126.164ZM131.633 19.12C131.146 19.12 130.713 19.0133 130.333 18.8C129.953 18.5867 129.653 18.2933 129.433 17.92C129.219 17.5467 129.113 17.1233 129.113 16.65C129.113 16.4033 129.139 16.1567 129.193 15.91C129.246 15.6633 129.339 15.4067 129.473 15.14C129.613 14.8733 129.799 14.5867 130.033 14.28L132.113 11.55H133.523L130.973 14.85L130.773 14.72C130.866 14.6133 130.966 14.53 131.073 14.47C131.186 14.41 131.303 14.3667 131.423 14.34C131.549 14.3133 131.683 14.3 131.823 14.3C132.269 14.3 132.669 14.4033 133.023 14.61C133.376 14.8167 133.653 15.0967 133.853 15.45C134.059 15.8033 134.163 16.21 134.163 16.67C134.163 17.1367 134.053 17.5567 133.833 17.93C133.613 18.2967 133.313 18.5867 132.933 18.8C132.559 19.0133 132.126 19.12 131.633 19.12ZM131.633 18.07C131.893 18.07 132.123 18.01 132.323 17.89C132.523 17.77 132.683 17.6067 132.803 17.4C132.923 17.1867 132.983 16.9467 132.983 16.68C132.983 16.4067 132.923 16.1667 132.803 15.96C132.689 15.7533 132.529 15.5933 132.323 15.48C132.123 15.36 131.893 15.3 131.633 15.3C131.379 15.3 131.149 15.36 130.943 15.48C130.743 15.5933 130.583 15.7533 130.463 15.96C130.343 16.1667 130.283 16.4067 130.283 16.68C130.283 16.9467 130.343 17.1867 130.463 17.4C130.583 17.6067 130.743 17.77 130.943 17.89C131.149 18.01 131.379 18.07 131.633 18.07Z" fill="white"/>
<defs>
<filter id="filter0_dd_733_14" x="0" y="105" width="58" height="58" filterUnits="userSpaceOnUse" color-interpolation-filters="sRGB">
<feFlood flood-opacity="0" result="BackgroundImageFix"/>
<feColorMatrix in="SourceAlpha" type="matrix" values="0 0 0 0 0 0 0 0 0 0 0 0 0 0 0 0 0 0 127 0" result="hardAlpha"/>
<feOffset dx="3" dy="3"/>
<feGaussianBlur stdDeviation="2.5"/>
<feComposite in2="hardAlpha" operator="out"/>
<feColorMatrix type="matrix" values="0 0 0 0 0.623529 0 0 0 0 0.145098 0 0 0 0 0.227451 0 0 0 0.3 0"/>
<feBlend mode="normal" in2="BackgroundImageFix" result="effect1_dropShadow_733_14"/>
<feColorMatrix in="SourceAlpha" type="matrix" values="0 0 0 0 0 0 0 0 0 0 0 0 0 0 0 0 0 0 127 0" result="hardAlpha"/>
<feOffset dx="-3" dy="-3"/>
<feGaussianBlur stdDeviation="2.5"/>
<feComposite in2="hardAlpha" operator="out"/>
<feColorMatrix type="matrix" values="0 0 0 0 0.811765 0 0 0 0 0.184314 0 0 0 0 0.298039 0 0 0 0.3 0"/>
<feBlend mode="normal" in2="effect1_dropShadow_733_14" result="effect2_dropShadow_733_14"/>
<feBlend mode="normal" in="SourceGraphic" in2="effect2_dropShadow_733_14" result="shape"/>
</filter>
<filter id="filter1_dd_733_14" x="143" y="105" width="58" height="58" filterUnits="userSpaceOnUse" color-interpolation-filters="sRGB">
<feFlood flood-opacity="0" result="BackgroundImageFix"/>
<feColorMatrix in="SourceAlpha" type="matrix" values="0 0 0 0 0 0 0 0 0 0 0 0 0 0 0 0 0 0 127 0" result="hardAlpha"/>
<feOffset dx="3" dy="3"/>
<feGaussianBlur stdDeviation="2.5"/>
<feComposite in2="hardAlpha" operator="out"/>
<feColorMatrix type="matrix" values="0 0 0 0 0.623529 0 0 0 0 0.145098 0 0 0 0 0.227451 0 0 0 0.3 0"/>
<feBlend mode="normal" in2="BackgroundImageFix" result="effect1_dropShadow_733_14"/>
<feColorMatrix in="SourceAlpha" type="matrix" values="0 0 0 0 0 0 0 0 0 0 0 0 0 0 0 0 0 0 127 0" result="hardAlpha"/>
<feOffset dx="-3" dy="-3"/>
<feGaussianBlur stdDeviation="2.5"/>
<feComposite in2="hardAlpha" operator="out"/>
<feColorMatrix type="matrix" values="0 0 0 0 0.811765 0 0 0 0 0.184314 0 0 0 0 0.298039 0 0 0 0.3 0"/>
<feBlend mode="normal" in2="effect1_dropShadow_733_14" result="effect2_dropShadow_733_14"/>
<feBlend mode="normal" in="SourceGraphic" in2="effect2_dropShadow_733_14" result="shape"/>
</filter>
<linearGradient id="paint0_linear_733_14" x1="100.5" y1="52" x2="100.5" y2="104" gradientUnits="userSpaceOnUse">
<stop stop-color="#48C6EF"/>
<stop offset="1" stop-color="#6F86D6"/>
</linearGradient>
</defs>
</svg>
