<svg width="196" height="171" viewBox="0 0 196 171" fill="none" xmlns="http://www.w3.org/2000/svg">
<g filter="url(#filter0_d_624_2)">
<rect x="8" y="51" width="180" height="51.1353" rx="8" fill="#2F67D4"/>
</g>
<path d="M50.1226 81.8491V69.9291H55.1466C55.8933 69.9291 56.5386 70.0625 57.0826 70.3291C57.6266 70.5851 58.0426 70.9585 58.3306 71.4491C58.6186 71.9291 58.7626 72.4998 58.7626 73.1611C58.7626 73.7371 58.6133 74.2651 58.3146 74.7451C58.0266 75.2145 57.5733 75.5878 56.9546 75.8651V75.0651C57.4986 75.2785 57.9413 75.5505 58.2826 75.8811C58.624 76.2011 58.8693 76.5638 59.0186 76.9691C59.1786 77.3745 59.2586 77.8011 59.2586 78.2491C59.2586 79.3691 58.8906 80.2491 58.1546 80.8891C57.4293 81.5291 56.432 81.8491 55.1626 81.8491H50.1226ZM52.0106 80.1691H55.3066C55.936 80.1691 56.4373 79.9985 56.8106 79.6571C57.184 79.3051 57.3706 78.8411 57.3706 78.2651C57.3706 77.6785 57.184 77.2145 56.8106 76.8731C56.4373 76.5211 55.936 76.3451 55.3066 76.3451H52.0106V80.1691ZM52.0106 74.6811H55.1946C55.7066 74.6811 56.1173 74.5371 56.4266 74.2491C56.736 73.9505 56.8906 73.5611 56.8906 73.0811C56.8906 72.6011 56.736 72.2278 56.4266 71.9611C56.1173 71.6945 55.7066 71.5611 55.1946 71.5611H52.0106V74.6811ZM64.1128 82.0411C63.4621 82.0411 62.8914 81.8971 62.4008 81.6091C61.9101 81.3105 61.5261 80.8998 61.2488 80.3771C60.9821 79.8438 60.8488 79.2305 60.8488 78.5371V73.1931H62.6568V78.3771C62.6568 78.7718 62.7368 79.1185 62.8968 79.4171C63.0568 79.7158 63.2808 79.9505 63.5688 80.1211C63.8568 80.2811 64.1874 80.3611 64.5608 80.3611C64.9448 80.3611 65.2808 80.2758 65.5688 80.1051C65.8568 79.9345 66.0808 79.6945 66.2408 79.3851C66.4114 79.0758 66.4968 78.7131 66.4968 78.2971V73.1931H68.2888V81.8491H66.5768V80.1531L66.7688 80.3771C66.5661 80.9105 66.2301 81.3211 65.7608 81.6091C65.2914 81.8971 64.7421 82.0411 64.1128 82.0411ZM74.1438 81.9451C73.2371 81.9451 72.5331 81.6891 72.0318 81.1771C71.5304 80.6651 71.2798 79.9451 71.2798 79.0171V74.8251H69.7598V73.1931H69.9998C70.4051 73.1931 70.7198 73.0758 70.9438 72.8411C71.1678 72.6065 71.2798 72.2865 71.2798 71.8811V71.2091H73.0878V73.1931H75.0558V74.8251H73.0878V78.9371C73.0878 79.2358 73.1358 79.4918 73.2318 79.7051C73.3278 79.9078 73.4824 80.0678 73.6958 80.1851C73.9091 80.2918 74.1864 80.3451 74.5278 80.3451C74.6131 80.3451 74.7091 80.3398 74.8158 80.3291C74.9224 80.3185 75.0238 80.3078 75.1198 80.2971V81.8491C74.9704 81.8705 74.8051 81.8918 74.6238 81.9131C74.4424 81.9345 74.2824 81.9451 74.1438 81.9451ZM80.6281 81.9451C79.7215 81.9451 79.0175 81.6891 78.5161 81.1771C78.0148 80.6651 77.7641 79.9451 77.7641 79.0171V74.8251H76.2441V73.1931H76.4841C76.8895 73.1931 77.2041 73.0758 77.4281 72.8411C77.6521 72.6065 77.7641 72.2865 77.7641 71.8811V71.2091H79.5721V73.1931H81.5401V74.8251H79.5721V78.9371C79.5721 79.2358 79.6201 79.4918 79.7161 79.7051C79.8121 79.9078 79.9668 80.0678 80.1801 80.1851C80.3935 80.2918 80.6708 80.3451 81.0121 80.3451C81.0975 80.3451 81.1935 80.3398 81.3001 80.3291C81.4068 80.3185 81.5081 80.3078 81.6041 80.2971V81.8491C81.4548 81.8705 81.2895 81.8918 81.1081 81.9131C80.9268 81.9345 80.7668 81.9451 80.6281 81.9451ZM87.3883 82.0411C86.5563 82.0411 85.7936 81.8438 85.1003 81.4491C84.4176 81.0545 83.8736 80.5158 83.4683 79.8331C83.0629 79.1505 82.8603 78.3771 82.8603 77.5131C82.8603 76.6385 83.0629 75.8651 83.4683 75.1931C83.8736 74.5105 84.4176 73.9771 85.1003 73.5931C85.7829 73.1985 86.5456 73.0011 87.3883 73.0011C88.2416 73.0011 89.0043 73.1985 89.6763 73.5931C90.3589 73.9771 90.8976 74.5105 91.2923 75.1931C91.6976 75.8651 91.9003 76.6385 91.9003 77.5131C91.9003 78.3878 91.6976 79.1665 91.2923 79.8491C90.8869 80.5318 90.3429 81.0705 89.6603 81.4651C88.9776 81.8491 88.2203 82.0411 87.3883 82.0411ZM87.3883 80.3611C87.9003 80.3611 88.3536 80.2385 88.7483 79.9931C89.1429 79.7478 89.4523 79.4118 89.6763 78.9851C89.9109 78.5478 90.0283 78.0571 90.0283 77.5131C90.0283 76.9691 89.9109 76.4838 89.6763 76.0571C89.4523 75.6305 89.1429 75.2945 88.7483 75.0491C88.3536 74.8038 87.9003 74.6811 87.3883 74.6811C86.8869 74.6811 86.4336 74.8038 86.0283 75.0491C85.6336 75.2945 85.3189 75.6305 85.0843 76.0571C84.8603 76.4838 84.7483 76.9691 84.7483 77.5131C84.7483 78.0571 84.8603 78.5478 85.0843 78.9851C85.3189 79.4118 85.6336 79.7478 86.0283 79.9931C86.4336 80.2385 86.8869 80.3611 87.3883 80.3611ZM93.6654 81.8491V73.1931H95.3934V74.8891L95.1854 74.6651C95.3987 74.1211 95.74 73.7105 96.2094 73.4331C96.6787 73.1451 97.2227 73.0011 97.8414 73.0011C98.4814 73.0011 99.0467 73.1398 99.5374 73.4171C100.028 73.6945 100.412 74.0785 100.689 74.5691C100.967 75.0598 101.105 75.6251 101.105 76.2651V81.8491H99.3134V76.7451C99.3134 76.3078 99.2334 75.9398 99.0734 75.6411C98.9134 75.3318 98.684 75.0971 98.3854 74.9371C98.0974 74.7665 97.7667 74.6811 97.3934 74.6811C97.02 74.6811 96.684 74.7665 96.3854 74.9371C96.0974 75.0971 95.8734 75.3318 95.7134 75.6411C95.5534 75.9505 95.4734 76.3185 95.4734 76.7451V81.8491H93.6654ZM106.013 81.8491V69.9291H107.901V80.1691H113.053V81.8491H106.013ZM117.054 82.0411C116.468 82.0411 115.95 81.9398 115.502 81.7371C115.065 81.5238 114.724 81.2358 114.478 80.8731C114.233 80.4998 114.11 80.0625 114.11 79.5611C114.11 79.0918 114.212 78.6705 114.414 78.2971C114.628 77.9238 114.953 77.6091 115.39 77.3531C115.828 77.0971 116.377 76.9158 117.038 76.8091L120.046 76.3131V77.7371L117.39 78.2011C116.91 78.2865 116.558 78.4411 116.334 78.6651C116.11 78.8785 115.998 79.1558 115.998 79.4971C115.998 79.8278 116.121 80.0998 116.366 80.3131C116.622 80.5158 116.948 80.6171 117.342 80.6171C117.833 80.6171 118.26 80.5105 118.622 80.2971C118.996 80.0838 119.284 79.8011 119.486 79.4491C119.689 79.0865 119.79 78.6865 119.79 78.2491V76.0251C119.79 75.5985 119.63 75.2518 119.31 74.9851C119.001 74.7078 118.585 74.5691 118.062 74.5691C117.582 74.5691 117.161 74.6971 116.798 74.9531C116.446 75.1985 116.185 75.5185 116.014 75.9131L114.51 75.1611C114.67 74.7345 114.932 74.3611 115.294 74.0411C115.657 73.7105 116.078 73.4545 116.558 73.2731C117.049 73.0918 117.566 73.0011 118.11 73.0011C118.793 73.0011 119.396 73.1291 119.918 73.3851C120.452 73.6411 120.862 73.9985 121.15 74.4571C121.449 74.9051 121.598 75.4278 121.598 76.0251V81.8491H119.87V80.2811L120.238 80.3291C120.036 80.6811 119.774 80.9851 119.454 81.2411C119.145 81.4971 118.788 81.6945 118.382 81.8331C117.988 81.9718 117.545 82.0411 117.054 82.0411ZM128.336 82.0411C127.664 82.0411 127.051 81.9025 126.496 81.6251C125.952 81.3478 125.531 80.9478 125.232 80.4251L125.44 80.0891V81.8491H123.712V69.7371H125.52V74.9851L125.232 74.5691C125.552 74.0785 125.979 73.6945 126.512 73.4171C127.046 73.1398 127.654 73.0011 128.336 73.0011C129.158 73.0011 129.894 73.1985 130.544 73.5931C131.206 73.9878 131.723 74.5265 132.096 75.2091C132.48 75.8918 132.672 76.6598 132.672 77.5131C132.672 78.3665 132.48 79.1345 132.096 79.8171C131.723 80.4998 131.211 81.0438 130.56 81.4491C129.91 81.8438 129.168 82.0411 128.336 82.0411ZM128.16 80.3611C128.672 80.3611 129.126 80.2385 129.52 79.9931C129.915 79.7478 130.224 79.4118 130.448 78.9851C130.683 78.5478 130.8 78.0571 130.8 77.5131C130.8 76.9691 130.683 76.4838 130.448 76.0571C130.224 75.6305 129.915 75.2945 129.52 75.0491C129.126 74.8038 128.672 74.6811 128.16 74.6811C127.659 74.6811 127.206 74.8038 126.8 75.0491C126.406 75.2945 126.091 75.6305 125.856 76.0571C125.632 76.4838 125.52 76.9691 125.52 77.5131C125.52 78.0571 125.632 78.5478 125.856 78.9851C126.091 79.4118 126.406 79.7478 126.8 79.9931C127.206 80.2385 127.659 80.3611 128.16 80.3611ZM138.495 82.0411C137.631 82.0411 136.863 81.8438 136.191 81.4491C135.53 81.0438 135.012 80.4998 134.639 79.8171C134.266 79.1238 134.079 78.3505 134.079 77.4971C134.079 76.6225 134.266 75.8491 134.639 75.1771C135.023 74.5051 135.535 73.9771 136.175 73.5931C136.815 73.1985 137.54 73.0011 138.351 73.0011C139.002 73.0011 139.583 73.1131 140.095 73.3371C140.607 73.5611 141.039 73.8705 141.391 74.2651C141.743 74.6491 142.01 75.0918 142.191 75.5931C142.383 76.0945 142.479 76.6278 142.479 77.1931C142.479 77.3318 142.474 77.4758 142.463 77.6251C142.452 77.7745 142.431 77.9131 142.399 78.0411H135.503V76.6011H141.375L140.511 77.2571C140.618 76.7345 140.58 76.2705 140.399 75.8651C140.228 75.4491 139.962 75.1238 139.599 74.8891C139.247 74.6438 138.831 74.5211 138.351 74.5211C137.871 74.5211 137.444 74.6438 137.071 74.8891C136.698 75.1238 136.41 75.4651 136.207 75.9131C136.004 76.3505 135.924 76.8838 135.967 77.5131C135.914 78.0998 135.994 78.6118 136.207 79.0491C136.431 79.4865 136.74 79.8278 137.135 80.0731C137.54 80.3185 137.999 80.4411 138.511 80.4411C139.034 80.4411 139.476 80.3238 139.839 80.0891C140.212 79.8545 140.506 79.5505 140.719 79.1771L142.191 79.8971C142.02 80.3025 141.754 80.6705 141.391 81.0011C141.039 81.3211 140.612 81.5771 140.111 81.7691C139.62 81.9505 139.082 82.0411 138.495 82.0411ZM144.243 81.8491V69.7371H146.052V81.8491H144.243Z" fill="white"/>
<rect x="9.5" y="52.5" width="39" height="59" fill="#A91111" fill-opacity="0.45" stroke="#A91111" stroke-width="3" stroke-dasharray="6 6"/>
<g filter="url(#filter1_dd_624_2)">
<rect x="8" y="121" width="42" height="42" rx="8" fill="#B72A43"/>
</g>
<g filter="url(#filter2_dd_624_2)">
<rect x="146" y="121" width="42" height="42" rx="8" fill="#B72A43"/>
</g>
<rect x="147.5" y="52.5" width="39" height="59" fill="#A91111" fill-opacity="0.45" stroke="#A91111" stroke-width="3" stroke-dasharray="6 6"/>
<path d="M24.527 148V145.648H19.557V144.276L24.457 137.57H26.095V144.276H27.537V145.648H26.095V148H24.527ZM20.775 144.878L20.509 144.276H24.527V138.886L24.975 139.026L20.775 144.878ZM29.3218 148V146.81L32.1778 143.758C32.7378 143.161 33.1765 142.68 33.4938 142.316C33.8205 141.943 34.0538 141.616 34.1938 141.336C34.3431 141.056 34.4178 140.762 34.4178 140.454C34.4178 139.95 34.2638 139.563 33.9558 139.292C33.6478 139.012 33.2511 138.872 32.7658 138.872C32.2618 138.872 31.8278 139.017 31.4638 139.306C31.0998 139.586 30.8478 139.997 30.7078 140.538L29.2518 140.118C29.3638 139.567 29.5878 139.091 29.9238 138.69C30.2598 138.279 30.6705 137.962 31.1558 137.738C31.6505 137.514 32.1825 137.402 32.7518 137.402C33.4145 137.402 33.9931 137.528 34.4878 137.78C34.9825 138.023 35.3651 138.363 35.6358 138.802C35.9158 139.241 36.0558 139.749 36.0558 140.328C36.0558 140.711 35.9811 141.084 35.8318 141.448C35.6918 141.803 35.4725 142.181 35.1738 142.582C34.8751 142.974 34.4925 143.417 34.0258 143.912L31.5058 146.6H36.2518V148H29.3218Z" fill="white"/>
<path d="M162.527 148V145.648H157.557V144.276L162.457 137.57H164.095V144.276H165.537V145.648H164.095V148H162.527ZM158.775 144.878L158.509 144.276H162.527V138.886L162.975 139.026L158.775 144.878ZM167.322 148V146.81L170.178 143.758C170.738 143.161 171.176 142.68 171.494 142.316C171.82 141.943 172.054 141.616 172.194 141.336C172.343 141.056 172.418 140.762 172.418 140.454C172.418 139.95 172.264 139.563 171.956 139.292C171.648 139.012 171.251 138.872 170.766 138.872C170.262 138.872 169.828 139.017 169.464 139.306C169.1 139.586 168.848 139.997 168.708 140.538L167.252 140.118C167.364 139.567 167.588 139.091 167.924 138.69C168.26 138.279 168.67 137.962 169.156 137.738C169.65 137.514 170.182 137.402 170.752 137.402C171.414 137.402 171.993 137.528 172.488 137.78C172.982 138.023 173.365 138.363 173.636 138.802C173.916 139.241 174.056 139.749 174.056 140.328C174.056 140.711 173.981 141.084 173.832 141.448C173.692 141.803 173.472 142.181 173.174 142.582C172.875 142.974 172.492 143.417 172.026 143.912L169.506 146.6H174.252V148H167.322Z" fill="white"/>
<path d="M95.5 63V31.5M95.5 63L103.5 55M95.5 63L87.5 55" stroke="#EAEBEB" stroke-width="3" stroke-linecap="round" stroke-linejoin="round"/>
<rect x="50" width="91" height="30" rx="8" fill="#5870DC"/>
<path d="M64.7515 19.12C64.2848 19.12 63.8515 19.0333 63.4515 18.86C63.0515 18.68 62.7115 18.4367 62.4315 18.13C62.1515 17.8233 61.9448 17.47 61.8115 17.07L62.8115 16.65C62.9915 17.11 63.2548 17.4633 63.6015 17.71C63.9481 17.9567 64.3481 18.08 64.8015 18.08C65.0681 18.08 65.3015 18.04 65.5015 17.96C65.7015 17.8733 65.8548 17.7533 65.9615 17.6C66.0748 17.4467 66.1315 17.27 66.1315 17.07C66.1315 16.7967 66.0548 16.58 65.9015 16.42C65.7481 16.26 65.5215 16.1333 65.2215 16.04L63.8215 15.6C63.2615 15.4267 62.8348 15.1633 62.5415 14.81C62.2481 14.45 62.1015 14.03 62.1015 13.55C62.1015 13.13 62.2048 12.7633 62.4115 12.45C62.6181 12.13 62.9015 11.88 63.2615 11.7C63.6281 11.52 64.0448 11.43 64.5115 11.43C64.9581 11.43 65.3648 11.51 65.7315 11.67C66.0981 11.8233 66.4115 12.0367 66.6715 12.31C66.9381 12.5833 67.1315 12.9 67.2515 13.26L66.2715 13.69C66.1248 13.2967 65.8948 12.9933 65.5815 12.78C65.2748 12.5667 64.9181 12.46 64.5115 12.46C64.2648 12.46 64.0481 12.5033 63.8615 12.59C63.6748 12.67 63.5281 12.79 63.4215 12.95C63.3215 13.1033 63.2715 13.2833 63.2715 13.49C63.2715 13.73 63.3481 13.9433 63.5015 14.13C63.6548 14.3167 63.8881 14.4567 64.2015 14.55L65.5015 14.96C66.0948 15.14 66.5415 15.4 66.8415 15.74C67.1415 16.0733 67.2915 16.49 67.2915 16.99C67.2915 17.4033 67.1815 17.77 66.9615 18.09C66.7481 18.41 66.4515 18.6633 66.0715 18.85C65.6915 19.03 65.2515 19.12 64.7515 19.12ZM71.4461 19.12C70.9061 19.12 70.4261 18.9967 70.0061 18.75C69.5928 18.4967 69.2694 18.1567 69.0361 17.73C68.8028 17.2967 68.6861 16.8133 68.6861 16.28C68.6861 15.7333 68.8028 15.25 69.0361 14.83C69.2761 14.41 69.5961 14.08 69.9961 13.84C70.3961 13.5933 70.8494 13.47 71.3561 13.47C71.7628 13.47 72.1261 13.54 72.4461 13.68C72.7661 13.82 73.0361 14.0133 73.2561 14.26C73.4761 14.5 73.6428 14.7767 73.7561 15.09C73.8761 15.4033 73.9361 15.7367 73.9361 16.09C73.9361 16.1767 73.9328 16.2667 73.9261 16.36C73.9194 16.4533 73.9061 16.54 73.8861 16.62H69.5761V15.72H73.2461L72.7061 16.13C72.7728 15.8033 72.7494 15.5133 72.6361 15.26C72.5294 15 72.3628 14.7967 72.1361 14.65C71.9161 14.4967 71.6561 14.42 71.3561 14.42C71.0561 14.42 70.7894 14.4967 70.5561 14.65C70.3228 14.7967 70.1428 15.01 70.0161 15.29C69.8894 15.5633 69.8394 15.8967 69.8661 16.29C69.8328 16.6567 69.8828 16.9767 70.0161 17.25C70.1561 17.5233 70.3494 17.7367 70.5961 17.89C70.8494 18.0433 71.1361 18.12 71.4561 18.12C71.7828 18.12 72.0594 18.0467 72.2861 17.9C72.5194 17.7533 72.7028 17.5633 72.8361 17.33L73.7561 17.78C73.6494 18.0333 73.4828 18.2633 73.2561 18.47C73.0361 18.67 72.7694 18.83 72.4561 18.95C72.1494 19.0633 71.8128 19.12 71.4461 19.12ZM75.4389 19V13.59H76.5189V14.76L76.3789 14.58C76.4922 14.2133 76.6989 13.9367 76.9989 13.75C77.2989 13.5633 77.6422 13.47 78.0289 13.47C78.4622 13.47 78.8456 13.5867 79.1789 13.82C79.5189 14.0467 79.7456 14.35 79.8589 14.73L79.5389 14.76C79.6989 14.3267 79.9422 14.0033 80.2689 13.79C80.6022 13.5767 80.9822 13.47 81.4089 13.47C81.7822 13.47 82.1189 13.5567 82.4189 13.73C82.7256 13.9033 82.9689 14.1433 83.1489 14.45C83.3289 14.7567 83.4189 15.1067 83.4189 15.5V19H82.2889V15.81C82.2889 15.5367 82.2389 15.3067 82.1389 15.12C82.0456 14.9267 81.9122 14.78 81.7389 14.68C81.5722 14.5733 81.3756 14.52 81.1489 14.52C80.9222 14.52 80.7222 14.5733 80.5489 14.68C80.3756 14.78 80.2389 14.9267 80.1389 15.12C80.0389 15.3133 79.9889 15.5433 79.9889 15.81V19H78.8689V15.81C78.8689 15.5367 78.8189 15.3067 78.7189 15.12C78.6256 14.9267 78.4922 14.78 78.3189 14.68C78.1522 14.5733 77.9522 14.52 77.7189 14.52C77.4922 14.52 77.2922 14.5733 77.1189 14.68C76.9456 14.78 76.8089 14.9267 76.7089 15.12C76.6156 15.3133 76.5689 15.5433 76.5689 15.81V19H75.4389ZM85.0284 19V13.59H86.1584V19H85.0284ZM85.0284 12.85V11.55H86.1584V12.85H85.0284ZM90.1376 19V11.55H93.2776C93.7442 11.55 94.1476 11.6333 94.4876 11.8C94.8276 11.96 95.0876 12.1933 95.2676 12.5C95.4476 12.8 95.5376 13.1567 95.5376 13.57C95.5376 13.93 95.4442 14.26 95.2576 14.56C95.0776 14.8533 94.7942 15.0867 94.4076 15.26V14.76C94.7476 14.8933 95.0242 15.0633 95.2376 15.27C95.4509 15.47 95.6042 15.6967 95.6976 15.95C95.7976 16.2033 95.8476 16.47 95.8476 16.75C95.8476 17.45 95.6176 18 95.1576 18.4C94.7042 18.8 94.0809 19 93.2876 19H90.1376ZM91.3176 17.95H93.3776C93.7709 17.95 94.0842 17.8433 94.3176 17.63C94.5509 17.41 94.6676 17.12 94.6676 16.76C94.6676 16.3933 94.5509 16.1033 94.3176 15.89C94.0842 15.67 93.7709 15.56 93.3776 15.56H91.3176V17.95ZM91.3176 14.52H93.3076C93.6276 14.52 93.8842 14.43 94.0776 14.25C94.2709 14.0633 94.3676 13.82 94.3676 13.52C94.3676 13.22 94.2709 12.9867 94.0776 12.82C93.8842 12.6533 93.6276 12.57 93.3076 12.57H91.3176V14.52ZM99.9614 19.12C99.4414 19.12 98.9647 18.9967 98.5314 18.75C98.1047 18.5033 97.7647 18.1667 97.5114 17.74C97.2581 17.3133 97.1314 16.83 97.1314 16.29C97.1314 15.7433 97.2581 15.26 97.5114 14.84C97.7647 14.4133 98.1047 14.08 98.5314 13.84C98.9581 13.5933 99.4347 13.47 99.9614 13.47C100.495 13.47 100.971 13.5933 101.391 13.84C101.818 14.08 102.155 14.4133 102.401 14.84C102.655 15.26 102.781 15.7433 102.781 16.29C102.781 16.8367 102.655 17.3233 102.401 17.75C102.148 18.1767 101.808 18.5133 101.381 18.76C100.955 19 100.481 19.12 99.9614 19.12ZM99.9614 18.07C100.281 18.07 100.565 17.9933 100.811 17.84C101.058 17.6867 101.251 17.4767 101.391 17.21C101.538 16.9367 101.611 16.63 101.611 16.29C101.611 15.95 101.538 15.6467 101.391 15.38C101.251 15.1133 101.058 14.9033 100.811 14.75C100.565 14.5967 100.281 14.52 99.9614 14.52C99.6481 14.52 99.3647 14.5967 99.1114 14.75C98.8647 14.9033 98.6681 15.1133 98.5214 15.38C98.3814 15.6467 98.3114 15.95 98.3114 16.29C98.3114 16.63 98.3814 16.9367 98.5214 17.21C98.6681 17.4767 98.8647 17.6867 99.1114 17.84C99.3647 17.9933 99.6481 18.07 99.9614 18.07ZM104.285 19V11.43H105.415V19H104.285ZM109.636 19.12C109.116 19.12 108.649 18.9967 108.236 18.75C107.829 18.4967 107.506 18.1567 107.266 17.73C107.032 17.3033 106.916 16.8233 106.916 16.29C106.916 15.7567 107.036 15.2767 107.276 14.85C107.516 14.4233 107.839 14.0867 108.246 13.84C108.652 13.5933 109.112 13.47 109.626 13.47C110.059 13.47 110.442 13.5567 110.776 13.73C111.109 13.9033 111.372 14.1433 111.566 14.45L111.396 14.71V11.43H112.516V19H111.446V17.9L111.576 18.11C111.389 18.4367 111.122 18.6867 110.776 18.86C110.429 19.0333 110.049 19.12 109.636 19.12ZM109.746 18.07C110.059 18.07 110.339 17.9933 110.586 17.84C110.839 17.6867 111.036 17.4767 111.176 17.21C111.322 16.9367 111.396 16.63 111.396 16.29C111.396 15.95 111.322 15.6467 111.176 15.38C111.036 15.1133 110.839 14.9033 110.586 14.75C110.339 14.5967 110.059 14.52 109.746 14.52C109.432 14.52 109.149 14.5967 108.896 14.75C108.642 14.9033 108.446 15.1133 108.306 15.38C108.166 15.6467 108.096 15.95 108.096 16.29C108.096 16.63 108.166 16.9367 108.306 17.21C108.446 17.4767 108.639 17.6867 108.886 17.84C109.139 17.9933 109.426 18.07 109.746 18.07ZM114.525 20.47V19.92C114.745 19.8667 114.915 19.7633 115.035 19.61C115.155 19.4633 115.228 19.26 115.255 19H114.725V17.7H115.875V18.55C115.875 19.0833 115.762 19.5133 115.535 19.84C115.308 20.1667 114.972 20.3767 114.525 20.47ZM121.164 19V12.55H119.734V11.55H122.334V19H121.164ZM126.633 19.12C126.146 19.12 125.713 19.0133 125.333 18.8C124.953 18.5867 124.653 18.2933 124.433 17.92C124.219 17.5467 124.113 17.1233 124.113 16.65C124.113 16.4033 124.139 16.1567 124.193 15.91C124.246 15.6633 124.339 15.4067 124.473 15.14C124.613 14.8733 124.799 14.5867 125.033 14.28L127.113 11.55H128.523L125.973 14.85L125.773 14.72C125.866 14.6133 125.966 14.53 126.073 14.47C126.186 14.41 126.303 14.3667 126.423 14.34C126.549 14.3133 126.683 14.3 126.823 14.3C127.269 14.3 127.669 14.4033 128.023 14.61C128.376 14.8167 128.653 15.0967 128.853 15.45C129.059 15.8033 129.163 16.21 129.163 16.67C129.163 17.1367 129.053 17.5567 128.833 17.93C128.613 18.2967 128.313 18.5867 127.933 18.8C127.559 19.0133 127.126 19.12 126.633 19.12ZM126.633 18.07C126.893 18.07 127.123 18.01 127.323 17.89C127.523 17.77 127.683 17.6067 127.803 17.4C127.923 17.1867 127.983 16.9467 127.983 16.68C127.983 16.4067 127.923 16.1667 127.803 15.96C127.689 15.7533 127.529 15.5933 127.323 15.48C127.123 15.36 126.893 15.3 126.633 15.3C126.379 15.3 126.149 15.36 125.943 15.48C125.743 15.5933 125.583 15.7533 125.463 15.96C125.343 16.1667 125.283 16.4067 125.283 16.68C125.283 16.9467 125.343 17.1867 125.463 17.4C125.583 17.6067 125.743 17.77 125.943 17.89C126.149 18.01 126.379 18.07 126.633 18.07Z" fill="white"/>
<defs>
<filter id="filter0_d_624_2" x="0" y="48" width="196" height="67.1353" filterUnits="userSpaceOnUse" color-interpolation-filters="sRGB">
<feFlood flood-opacity="0" result="BackgroundImageFix"/>
<feColorMatrix in="SourceAlpha" type="matrix" values="0 0 0 0 0 0 0 0 0 0 0 0 0 0 0 0 0 0 127 0" result="hardAlpha"/>
<feOffset dy="5"/>
<feGaussianBlur stdDeviation="4"/>
<feComposite in2="hardAlpha" operator="out"/>
<feColorMatrix type="matrix" values="0 0 0 0 0.184314 0 0 0 0 0.403922 0 0 0 0 0.831373 0 0 0 0.3 0"/>
<feBlend mode="normal" in2="BackgroundImageFix" result="effect1_dropShadow_624_2"/>
<feBlend mode="normal" in="SourceGraphic" in2="effect1_dropShadow_624_2" result="shape"/>
</filter>
<filter id="filter1_dd_624_2" x="0" y="113" width="58" height="58" filterUnits="userSpaceOnUse" color-interpolation-filters="sRGB">
<feFlood flood-opacity="0" result="BackgroundImageFix"/>
<feColorMatrix in="SourceAlpha" type="matrix" values="0 0 0 0 0 0 0 0 0 0 0 0 0 0 0 0 0 0 127 0" result="hardAlpha"/>
<feOffset dx="3" dy="3"/>
<feGaussianBlur stdDeviation="2.5"/>
<feComposite in2="hardAlpha" operator="out"/>
<feColorMatrix type="matrix" values="0 0 0 0 0.623529 0 0 0 0 0.145098 0 0 0 0 0.227451 0 0 0 0.3 0"/>
<feBlend mode="normal" in2="BackgroundImageFix" result="effect1_dropShadow_624_2"/>
<feColorMatrix in="SourceAlpha" type="matrix" values="0 0 0 0 0 0 0 0 0 0 0 0 0 0 0 0 0 0 127 0" result="hardAlpha"/>
<feOffset dx="-3" dy="-3"/>
<feGaussianBlur stdDeviation="2.5"/>
<feComposite in2="hardAlpha" operator="out"/>
<feColorMatrix type="matrix" values="0 0 0 0 0.811765 0 0 0 0 0.184314 0 0 0 0 0.298039 0 0 0 0.3 0"/>
<feBlend mode="normal" in2="effect1_dropShadow_624_2" result="effect2_dropShadow_624_2"/>
<feBlend mode="normal" in="SourceGraphic" in2="effect2_dropShadow_624_2" result="shape"/>
</filter>
<filter id="filter2_dd_624_2" x="138" y="113" width="58" height="58" filterUnits="userSpaceOnUse" color-interpolation-filters="sRGB">
<feFlood flood-opacity="0" result="BackgroundImageFix"/>
<feColorMatrix in="SourceAlpha" type="matrix" values="0 0 0 0 0 0 0 0 0 0 0 0 0 0 0 0 0 0 127 0" result="hardAlpha"/>
<feOffset dx="3" dy="3"/>
<feGaussianBlur stdDeviation="2.5"/>
<feComposite in2="hardAlpha" operator="out"/>
<feColorMatrix type="matrix" values="0 0 0 0 0.623529 0 0 0 0 0.145098 0 0 0 0 0.227451 0 0 0 0.3 0"/>
<feBlend mode="normal" in2="BackgroundImageFix" result="effect1_dropShadow_624_2"/>
<feColorMatrix in="SourceAlpha" type="matrix" values="0 0 0 0 0 0 0 0 0 0 0 0 0 0 0 0 0 0 127 0" result="hardAlpha"/>
<feOffset dx="-3" dy="-3"/>
<feGaussianBlur stdDeviation="2.5"/>
<feComposite in2="hardAlpha" operator="out"/>
<feColorMatrix type="matrix" values="0 0 0 0 0.811765 0 0 0 0 0.184314 0 0 0 0 0.298039 0 0 0 0.3 0"/>
<feBlend mode="normal" in2="effect1_dropShadow_624_2" result="effect2_dropShadow_624_2"/>
<feBlend mode="normal" in="SourceGraphic" in2="effect2_dropShadow_624_2" result="shape"/>
</filter>
</defs>
</svg>
