<svg width="902" height="493" viewBox="0 0 902 493" fill="none" xmlns="http://www.w3.org/2000/svg">
<g filter="url(#filter0_dd_736_2)">
<rect x="24" y="24" width="854" height="445" rx="8" fill="#35363E"/>
</g>
<path d="M96 90C96 91.9863 96 171 96 171M96 90H90M96 90V83M96 413V333M96 413V418M96 413H469H845H855M96 171H90M96 171V252M96 252H90M96 252V333M96 333H90" stroke="#F5F5F5" stroke-width="4" stroke-linecap="round" stroke-linejoin="round"/>
<path d="M155.983 430.872H151.535L150.799 433H148.447L152.463 421.816H155.071L159.087 433H156.719L155.983 430.872ZM155.375 429.08L153.759 424.408L152.143 429.08H155.375ZM164.652 425.976H163.1V433H160.828V425.976H159.82V424.136H160.828V423.688C160.828 422.6 161.138 421.8 161.756 421.288C162.375 420.776 163.308 420.536 164.556 420.568V422.456C164.012 422.445 163.634 422.536 163.42 422.728C163.207 422.92 163.1 423.267 163.1 423.768V424.136H164.652V425.976ZM170.168 425.976H168.616V433H166.344V425.976H165.336V424.136H166.344V423.688C166.344 422.6 166.653 421.8 167.272 421.288C167.891 420.776 168.824 420.536 170.072 420.568V422.456C169.528 422.445 169.149 422.536 168.936 422.728C168.723 422.92 168.616 423.267 168.616 423.768V424.136H170.168V425.976ZM175.556 433.144C174.702 433.144 173.934 432.957 173.252 432.584C172.569 432.2 172.03 431.661 171.636 430.968C171.252 430.275 171.06 429.475 171.06 428.568C171.06 427.661 171.257 426.861 171.652 426.168C172.057 425.475 172.606 424.941 173.3 424.568C173.993 424.184 174.766 423.992 175.62 423.992C176.473 423.992 177.246 424.184 177.94 424.568C178.633 424.941 179.177 425.475 179.572 426.168C179.977 426.861 180.18 427.661 180.18 428.568C180.18 429.475 179.972 430.275 179.556 430.968C179.15 431.661 178.596 432.2 177.892 432.584C177.198 432.957 176.42 433.144 175.556 433.144ZM175.556 431.192C175.961 431.192 176.34 431.096 176.692 430.904C177.054 430.701 177.342 430.403 177.556 430.008C177.769 429.613 177.876 429.133 177.876 428.568C177.876 427.725 177.652 427.08 177.204 426.632C176.766 426.173 176.228 425.944 175.588 425.944C174.948 425.944 174.409 426.173 173.972 426.632C173.545 427.08 173.332 427.725 173.332 428.568C173.332 429.411 173.54 430.061 173.956 430.52C174.382 430.968 174.916 431.192 175.556 431.192ZM184.063 425.512C184.351 425.043 184.724 424.675 185.183 424.408C185.652 424.141 186.185 424.008 186.783 424.008V426.36H186.191C185.487 426.36 184.953 426.525 184.591 426.856C184.239 427.187 184.063 427.763 184.063 428.584V433H181.823V424.136H184.063V425.512ZM187.715 428.536C187.715 427.64 187.891 426.845 188.243 426.152C188.606 425.459 189.097 424.925 189.716 424.552C190.334 424.179 191.022 423.992 191.78 423.992C192.356 423.992 192.905 424.12 193.428 424.376C193.95 424.621 194.366 424.952 194.676 425.368V421.16H196.948V433H194.676V431.688C194.398 432.125 194.009 432.477 193.508 432.744C193.006 433.011 192.425 433.144 191.764 433.144C191.017 433.144 190.334 432.952 189.716 432.568C189.097 432.184 188.606 431.645 188.243 430.952C187.891 430.248 187.715 429.443 187.715 428.536ZM194.692 428.568C194.692 428.024 194.585 427.56 194.372 427.176C194.158 426.781 193.87 426.483 193.508 426.28C193.145 426.067 192.756 425.96 192.34 425.96C191.924 425.96 191.54 426.061 191.188 426.264C190.836 426.467 190.548 426.765 190.324 427.16C190.11 427.544 190.004 428.003 190.004 428.536C190.004 429.069 190.11 429.539 190.324 429.944C190.548 430.339 190.836 430.643 191.188 430.856C191.55 431.069 191.934 431.176 192.34 431.176C192.756 431.176 193.145 431.075 193.508 430.872C193.87 430.659 194.158 430.36 194.372 429.976C194.585 429.581 194.692 429.112 194.692 428.568ZM198.559 428.536C198.559 427.64 198.735 426.845 199.087 426.152C199.45 425.459 199.935 424.925 200.543 424.552C201.162 424.179 201.85 423.992 202.607 423.992C203.269 423.992 203.845 424.125 204.335 424.392C204.837 424.659 205.237 424.995 205.535 425.4V424.136H207.791V433H205.535V431.704C205.247 432.12 204.847 432.467 204.335 432.744C203.834 433.011 203.253 433.144 202.591 433.144C201.845 433.144 201.162 432.952 200.543 432.568C199.935 432.184 199.45 431.645 199.087 430.952C198.735 430.248 198.559 429.443 198.559 428.536ZM205.535 428.568C205.535 428.024 205.429 427.56 205.215 427.176C205.002 426.781 204.714 426.483 204.351 426.28C203.989 426.067 203.599 425.96 203.183 425.96C202.767 425.96 202.383 426.061 202.031 426.264C201.679 426.467 201.391 426.765 201.167 427.16C200.954 427.544 200.847 428.003 200.847 428.536C200.847 429.069 200.954 429.539 201.167 429.944C201.391 430.339 201.679 430.643 202.031 430.856C202.394 431.069 202.778 431.176 203.183 431.176C203.599 431.176 203.989 431.075 204.351 430.872C204.714 430.659 205.002 430.36 205.215 429.976C205.429 429.581 205.535 429.112 205.535 428.568ZM212.219 425.432C212.507 425.005 212.902 424.659 213.403 424.392C213.915 424.125 214.496 423.992 215.147 423.992C215.904 423.992 216.587 424.179 217.195 424.552C217.814 424.925 218.299 425.459 218.651 426.152C219.014 426.835 219.195 427.629 219.195 428.536C219.195 429.443 219.014 430.248 218.651 430.952C218.299 431.645 217.814 432.184 217.195 432.568C216.587 432.952 215.904 433.144 215.147 433.144C214.486 433.144 213.904 433.016 213.403 432.76C212.912 432.493 212.518 432.152 212.219 431.736V433H209.979V421.16H212.219V425.432ZM216.907 428.536C216.907 428.003 216.795 427.544 216.571 427.16C216.358 426.765 216.07 426.467 215.707 426.264C215.355 426.061 214.971 425.96 214.555 425.96C214.15 425.96 213.766 426.067 213.403 426.28C213.051 426.483 212.763 426.781 212.539 427.176C212.326 427.571 212.219 428.035 212.219 428.568C212.219 429.101 212.326 429.565 212.539 429.96C212.763 430.355 213.051 430.659 213.403 430.872C213.766 431.075 214.15 431.176 214.555 431.176C214.971 431.176 215.355 431.069 215.707 430.856C216.07 430.643 216.358 430.339 216.571 429.944C216.795 429.549 216.907 429.08 216.907 428.536ZM221.959 423.08C221.564 423.08 221.233 422.957 220.967 422.712C220.711 422.456 220.583 422.141 220.583 421.768C220.583 421.395 220.711 421.085 220.967 420.84C221.233 420.584 221.564 420.456 221.959 420.456C222.353 420.456 222.679 420.584 222.935 420.84C223.201 421.085 223.335 421.395 223.335 421.768C223.335 422.141 223.201 422.456 222.935 422.712C222.679 422.957 222.353 423.08 221.959 423.08ZM223.063 424.136V433H220.823V424.136H223.063ZM227.516 421.16V433H225.276V421.16H227.516ZM230.865 423.08C230.47 423.08 230.14 422.957 229.873 422.712C229.617 422.456 229.489 422.141 229.489 421.768C229.489 421.395 229.617 421.085 229.873 420.84C230.14 420.584 230.47 420.456 230.865 420.456C231.26 420.456 231.585 420.584 231.841 420.84C232.108 421.085 232.241 421.395 232.241 421.768C232.241 422.141 232.108 422.456 231.841 422.712C231.585 422.957 231.26 423.08 230.865 423.08ZM231.969 424.136V433H229.729V424.136H231.969ZM236.79 425.976V430.264C236.79 430.563 236.859 430.781 236.998 430.92C237.147 431.048 237.393 431.112 237.734 431.112H238.774V433H237.366C235.478 433 234.534 432.083 234.534 430.248V425.976H233.478V424.136H234.534V421.944H236.79V424.136H238.774V425.976H236.79ZM248.865 424.136L243.377 437.192H240.993L242.913 432.776L239.361 424.136H241.873L244.161 430.328L246.481 424.136H248.865Z" fill="white"/>
<path d="M373.764 425.288C373.764 425.885 373.62 426.445 373.332 426.968C373.054 427.491 372.612 427.912 372.004 428.232C371.406 428.552 370.649 428.712 369.732 428.712H367.86V433H365.62V421.832H369.732C370.596 421.832 371.332 421.981 371.94 422.28C372.548 422.579 373.001 422.989 373.3 423.512C373.609 424.035 373.764 424.627 373.764 425.288ZM369.636 426.904C370.254 426.904 370.713 426.765 371.012 426.488C371.31 426.2 371.46 425.8 371.46 425.288C371.46 424.2 370.852 423.656 369.636 423.656H367.86V426.904H369.636ZM377.594 425.512C377.882 425.043 378.255 424.675 378.714 424.408C379.183 424.141 379.717 424.008 380.314 424.008V426.36H379.722C379.018 426.36 378.485 426.525 378.122 426.856C377.77 427.187 377.594 427.763 377.594 428.584V433H375.354V424.136H377.594V425.512ZM385.759 433.144C384.905 433.144 384.137 432.957 383.455 432.584C382.772 432.2 382.233 431.661 381.839 430.968C381.455 430.275 381.263 429.475 381.263 428.568C381.263 427.661 381.46 426.861 381.855 426.168C382.26 425.475 382.809 424.941 383.503 424.568C384.196 424.184 384.969 423.992 385.823 423.992C386.676 423.992 387.449 424.184 388.143 424.568C388.836 424.941 389.38 425.475 389.775 426.168C390.18 426.861 390.383 427.661 390.383 428.568C390.383 429.475 390.175 430.275 389.759 430.968C389.353 431.661 388.799 432.2 388.095 432.584C387.401 432.957 386.623 433.144 385.759 433.144ZM385.759 431.192C386.164 431.192 386.543 431.096 386.895 430.904C387.257 430.701 387.545 430.403 387.759 430.008C387.972 429.613 388.079 429.133 388.079 428.568C388.079 427.725 387.855 427.08 387.407 426.632C386.969 426.173 386.431 425.944 385.791 425.944C385.151 425.944 384.612 426.173 384.175 426.632C383.748 427.08 383.535 427.725 383.535 428.568C383.535 429.411 383.743 430.061 384.159 430.52C384.585 430.968 385.119 431.192 385.759 431.192ZM394.266 425.416C394.554 425.011 394.949 424.675 395.45 424.408C395.962 424.131 396.543 423.992 397.194 423.992C397.951 423.992 398.634 424.179 399.242 424.552C399.861 424.925 400.346 425.459 400.698 426.152C401.061 426.835 401.242 427.629 401.242 428.536C401.242 429.443 401.061 430.248 400.698 430.952C400.346 431.645 399.861 432.184 399.242 432.568C398.634 432.952 397.951 433.144 397.194 433.144C396.543 433.144 395.967 433.011 395.466 432.744C394.975 432.477 394.575 432.141 394.266 431.736V437.224H392.026V424.136H394.266V425.416ZM398.954 428.536C398.954 428.003 398.842 427.544 398.618 427.16C398.405 426.765 398.117 426.467 397.754 426.264C397.402 426.061 397.018 425.96 396.602 425.96C396.197 425.96 395.813 426.067 395.45 426.28C395.098 426.483 394.81 426.781 394.586 427.176C394.373 427.571 394.266 428.035 394.266 428.568C394.266 429.101 394.373 429.565 394.586 429.96C394.81 430.355 395.098 430.659 395.45 430.872C395.813 431.075 396.197 431.176 396.602 431.176C397.018 431.176 397.402 431.069 397.754 430.856C398.117 430.643 398.405 430.339 398.618 429.944C398.842 429.549 398.954 429.08 398.954 428.536ZM411.11 428.376C411.11 428.696 411.088 428.984 411.046 429.24H404.566C404.619 429.88 404.843 430.381 405.238 430.744C405.632 431.107 406.118 431.288 406.694 431.288C407.526 431.288 408.118 430.931 408.47 430.216H410.886C410.63 431.069 410.139 431.773 409.414 432.328C408.688 432.872 407.798 433.144 406.742 433.144C405.888 433.144 405.12 432.957 404.438 432.584C403.766 432.2 403.238 431.661 402.854 430.968C402.48 430.275 402.294 429.475 402.294 428.568C402.294 427.651 402.48 426.845 402.854 426.152C403.227 425.459 403.75 424.925 404.422 424.552C405.094 424.179 405.867 423.992 406.742 423.992C407.584 423.992 408.336 424.173 408.998 424.536C409.67 424.899 410.187 425.416 410.55 426.088C410.923 426.749 411.11 427.512 411.11 428.376ZM408.79 427.736C408.779 427.16 408.571 426.701 408.166 426.36C407.76 426.008 407.264 425.832 406.678 425.832C406.123 425.832 405.654 426.003 405.27 426.344C404.896 426.675 404.667 427.139 404.582 427.736H408.79ZM414.985 425.512C415.273 425.043 415.646 424.675 416.105 424.408C416.574 424.141 417.107 424.008 417.705 424.008V426.36H417.113C416.409 426.36 415.875 426.525 415.513 426.856C415.161 427.187 414.985 427.763 414.985 428.584V433H412.745V424.136H414.985V425.512ZM421.821 425.976V430.264C421.821 430.563 421.891 430.781 422.029 430.92C422.179 431.048 422.424 431.112 422.765 431.112H423.805V433H422.397C420.509 433 419.565 432.083 419.565 430.248V425.976H418.509V424.136H419.565V421.944H421.821V424.136H423.805V425.976H421.821ZM433.897 424.136L428.409 437.192H426.025L427.945 432.776L424.393 424.136H426.905L429.193 430.328L431.513 424.136H433.897Z" fill="white"/>
<path d="M568.891 431.224H572.571V433H566.651V421.832H568.891V431.224ZM577.931 433.144C577.077 433.144 576.309 432.957 575.627 432.584C574.944 432.2 574.405 431.661 574.011 430.968C573.627 430.275 573.435 429.475 573.435 428.568C573.435 427.661 573.632 426.861 574.027 426.168C574.432 425.475 574.981 424.941 575.675 424.568C576.368 424.184 577.141 423.992 577.995 423.992C578.848 423.992 579.621 424.184 580.315 424.568C581.008 424.941 581.552 425.475 581.947 426.168C582.352 426.861 582.555 427.661 582.555 428.568C582.555 429.475 582.347 430.275 581.931 430.968C581.525 431.661 580.971 432.2 580.267 432.584C579.573 432.957 578.795 433.144 577.931 433.144ZM577.931 431.192C578.336 431.192 578.715 431.096 579.067 430.904C579.429 430.701 579.717 430.403 579.931 430.008C580.144 429.613 580.251 429.133 580.251 428.568C580.251 427.725 580.027 427.08 579.579 426.632C579.141 426.173 578.603 425.944 577.963 425.944C577.323 425.944 576.784 426.173 576.347 426.632C575.92 427.08 575.707 427.725 575.707 428.568C575.707 429.411 575.915 430.061 576.331 430.52C576.757 430.968 577.291 431.192 577.931 431.192ZM583.622 428.568C583.622 427.651 583.808 426.851 584.182 426.168C584.555 425.475 585.072 424.941 585.734 424.568C586.395 424.184 587.152 423.992 588.006 423.992C589.104 423.992 590.011 424.269 590.726 424.824C591.451 425.368 591.936 426.136 592.182 427.128H589.766C589.638 426.744 589.419 426.445 589.11 426.232C588.811 426.008 588.438 425.896 587.99 425.896C587.35 425.896 586.843 426.131 586.47 426.6C586.096 427.059 585.91 427.715 585.91 428.568C585.91 429.411 586.096 430.067 586.47 430.536C586.843 430.995 587.35 431.224 587.99 431.224C588.896 431.224 589.488 430.819 589.766 430.008H592.182C591.936 430.968 591.451 431.731 590.726 432.296C590 432.861 589.094 433.144 588.006 433.144C587.152 433.144 586.395 432.957 585.734 432.584C585.072 432.2 584.555 431.667 584.182 430.984C583.808 430.291 583.622 429.485 583.622 428.568ZM593.247 428.536C593.247 427.64 593.423 426.845 593.775 426.152C594.137 425.459 594.623 424.925 595.231 424.552C595.849 424.179 596.537 423.992 597.295 423.992C597.956 423.992 598.532 424.125 599.023 424.392C599.524 424.659 599.924 424.995 600.223 425.4V424.136H602.479V433H600.223V431.704C599.935 432.12 599.535 432.467 599.023 432.744C598.521 433.011 597.94 433.144 597.279 433.144C596.532 433.144 595.849 432.952 595.231 432.568C594.623 432.184 594.137 431.645 593.775 430.952C593.423 430.248 593.247 429.443 593.247 428.536ZM600.223 428.568C600.223 428.024 600.116 427.56 599.903 427.176C599.689 426.781 599.401 426.483 599.039 426.28C598.676 426.067 598.287 425.96 597.871 425.96C597.455 425.96 597.071 426.061 596.719 426.264C596.367 426.467 596.079 426.765 595.855 427.16C595.641 427.544 595.535 428.003 595.535 428.536C595.535 429.069 595.641 429.539 595.855 429.944C596.079 430.339 596.367 430.643 596.719 430.856C597.081 431.069 597.465 431.176 597.871 431.176C598.287 431.176 598.676 431.075 599.039 430.872C599.401 430.659 599.689 430.36 599.903 429.976C600.116 429.581 600.223 429.112 600.223 428.568ZM607.275 425.976V430.264C607.275 430.563 607.344 430.781 607.483 430.92C607.632 431.048 607.877 431.112 608.219 431.112H609.259V433H607.851C605.963 433 605.019 432.083 605.019 430.248V425.976H603.963V424.136H605.019V421.944H607.275V424.136H609.259V425.976H607.275ZM612.006 423.08C611.611 423.08 611.28 422.957 611.014 422.712C610.758 422.456 610.63 422.141 610.63 421.768C610.63 421.395 610.758 421.085 611.014 420.84C611.28 420.584 611.611 420.456 612.006 420.456C612.4 420.456 612.726 420.584 612.982 420.84C613.248 421.085 613.382 421.395 613.382 421.768C613.382 422.141 613.248 422.456 612.982 422.712C612.726 422.957 612.4 423.08 612.006 423.08ZM613.11 424.136V433H610.87V424.136H613.11ZM619.259 433.144C618.405 433.144 617.637 432.957 616.955 432.584C616.272 432.2 615.733 431.661 615.339 430.968C614.955 430.275 614.763 429.475 614.763 428.568C614.763 427.661 614.96 426.861 615.355 426.168C615.76 425.475 616.309 424.941 617.003 424.568C617.696 424.184 618.469 423.992 619.323 423.992C620.176 423.992 620.949 424.184 621.643 424.568C622.336 424.941 622.88 425.475 623.275 426.168C623.68 426.861 623.883 427.661 623.883 428.568C623.883 429.475 623.675 430.275 623.259 430.968C622.853 431.661 622.299 432.2 621.595 432.584C620.901 432.957 620.123 433.144 619.259 433.144ZM619.259 431.192C619.664 431.192 620.043 431.096 620.395 430.904C620.757 430.701 621.045 430.403 621.259 430.008C621.472 429.613 621.579 429.133 621.579 428.568C621.579 427.725 621.355 427.08 620.907 426.632C620.469 426.173 619.931 425.944 619.291 425.944C618.651 425.944 618.112 426.173 617.675 426.632C617.248 427.08 617.035 427.725 617.035 428.568C617.035 429.411 617.243 430.061 617.659 430.52C618.085 430.968 618.619 431.192 619.259 431.192ZM630.438 424.008C631.494 424.008 632.347 424.344 632.998 425.016C633.649 425.677 633.974 426.605 633.974 427.8V433H631.734V428.104C631.734 427.4 631.558 426.861 631.206 426.488C630.854 426.104 630.374 425.912 629.766 425.912C629.147 425.912 628.657 426.104 628.294 426.488C627.942 426.861 627.766 427.4 627.766 428.104V433H625.526V424.136H627.766V425.24C628.065 424.856 628.443 424.557 628.902 424.344C629.371 424.12 629.883 424.008 630.438 424.008Z" fill="white"/>
<path d="M759.811 439.872H755.363L754.627 442H752.275L756.291 430.816H758.899L762.915 442H760.547L759.811 439.872ZM759.203 438.08L757.587 433.408L755.971 438.08H759.203ZM775.425 433.008C776.513 433.008 777.387 433.344 778.049 434.016C778.721 434.677 779.057 435.605 779.057 436.8V442H776.817V437.104C776.817 436.411 776.641 435.883 776.289 435.52C775.937 435.147 775.457 434.96 774.849 434.96C774.241 434.96 773.755 435.147 773.393 435.52C773.041 435.883 772.865 436.411 772.865 437.104V442H770.625V437.104C770.625 436.411 770.449 435.883 770.097 435.52C769.745 435.147 769.265 434.96 768.657 434.96C768.038 434.96 767.547 435.147 767.185 435.52C766.833 435.883 766.657 436.411 766.657 437.104V442H764.417V433.136H766.657V434.208C766.945 433.835 767.313 433.541 767.761 433.328C768.219 433.115 768.721 433.008 769.265 433.008C769.958 433.008 770.577 433.157 771.121 433.456C771.665 433.744 772.086 434.16 772.385 434.704C772.673 434.192 773.089 433.781 773.633 433.472C774.187 433.163 774.785 433.008 775.425 433.008ZM792.19 433.008C793.278 433.008 794.153 433.344 794.814 434.016C795.486 434.677 795.822 435.605 795.822 436.8V442H793.582V437.104C793.582 436.411 793.406 435.883 793.054 435.52C792.702 435.147 792.222 434.96 791.614 434.96C791.006 434.96 790.521 435.147 790.158 435.52C789.806 435.883 789.63 436.411 789.63 437.104V442H787.39V437.104C787.39 436.411 787.214 435.883 786.862 435.52C786.51 435.147 786.03 434.96 785.422 434.96C784.803 434.96 784.313 435.147 783.95 435.52C783.598 435.883 783.422 436.411 783.422 437.104V442H781.182V433.136H783.422V434.208C783.71 433.835 784.078 433.541 784.526 433.328C784.985 433.115 785.486 433.008 786.03 433.008C786.723 433.008 787.342 433.157 787.886 433.456C788.43 433.744 788.851 434.16 789.15 434.704C789.438 434.192 789.854 433.781 790.398 433.472C790.953 433.163 791.55 433.008 792.19 433.008ZM806.188 437.376C806.188 437.696 806.166 437.984 806.124 438.24H799.644C799.697 438.88 799.921 439.381 800.316 439.744C800.71 440.107 801.196 440.288 801.772 440.288C802.604 440.288 803.196 439.931 803.548 439.216H805.964C805.708 440.069 805.217 440.773 804.492 441.328C803.766 441.872 802.876 442.144 801.82 442.144C800.966 442.144 800.198 441.957 799.516 441.584C798.844 441.2 798.316 440.661 797.932 439.968C797.558 439.275 797.372 438.475 797.372 437.568C797.372 436.651 797.558 435.845 797.932 435.152C798.305 434.459 798.828 433.925 799.5 433.552C800.172 433.179 800.945 432.992 801.82 432.992C802.662 432.992 803.414 433.173 804.076 433.536C804.748 433.899 805.265 434.416 805.628 435.088C806.001 435.749 806.188 436.512 806.188 437.376ZM803.868 436.736C803.857 436.16 803.649 435.701 803.244 435.36C802.838 435.008 802.342 434.832 801.756 434.832C801.201 434.832 800.732 435.003 800.348 435.344C799.974 435.675 799.745 436.139 799.66 436.736H803.868ZM812.735 433.008C813.791 433.008 814.644 433.344 815.295 434.016C815.945 434.677 816.271 435.605 816.271 436.8V442H814.031V437.104C814.031 436.4 813.855 435.861 813.503 435.488C813.151 435.104 812.671 434.912 812.063 434.912C811.444 434.912 810.953 435.104 810.591 435.488C810.239 435.861 810.063 436.4 810.063 437.104V442H807.823V433.136H810.063V434.24C810.361 433.856 810.74 433.557 811.199 433.344C811.668 433.12 812.18 433.008 812.735 433.008ZM819.537 432.08C819.142 432.08 818.812 431.957 818.545 431.712C818.289 431.456 818.161 431.141 818.161 430.768C818.161 430.395 818.289 430.085 818.545 429.84C818.812 429.584 819.142 429.456 819.537 429.456C819.932 429.456 820.257 429.584 820.513 429.84C820.78 430.085 820.913 430.395 820.913 430.768C820.913 431.141 820.78 431.456 820.513 431.712C820.257 431.957 819.932 432.08 819.537 432.08ZM820.641 433.136V442H818.401V433.136H820.641ZM825.462 434.976V439.264C825.462 439.563 825.531 439.781 825.67 439.92C825.819 440.048 826.065 440.112 826.406 440.112H827.446V442H826.038C824.15 442 823.206 441.083 823.206 439.248V434.976H822.15V433.136H823.206V430.944H825.462V433.136H827.446V434.976H825.462ZM830.193 432.08C829.798 432.08 829.468 431.957 829.201 431.712C828.945 431.456 828.817 431.141 828.817 430.768C828.817 430.395 828.945 430.085 829.201 429.84C829.468 429.584 829.798 429.456 830.193 429.456C830.588 429.456 830.913 429.584 831.169 429.84C831.436 430.085 831.569 430.395 831.569 430.768C831.569 431.141 831.436 431.456 831.169 431.712C830.913 431.957 830.588 432.08 830.193 432.08ZM831.297 433.136V442H829.057V433.136H831.297ZM841.75 437.376C841.75 437.696 841.729 437.984 841.686 438.24H835.206C835.26 438.88 835.484 439.381 835.878 439.744C836.273 440.107 836.758 440.288 837.334 440.288C838.166 440.288 838.758 439.931 839.11 439.216H841.526C841.27 440.069 840.78 440.773 840.054 441.328C839.329 441.872 838.438 442.144 837.382 442.144C836.529 442.144 835.761 441.957 835.078 441.584C834.406 441.2 833.878 440.661 833.494 439.968C833.121 439.275 832.934 438.475 832.934 437.568C832.934 436.651 833.121 435.845 833.494 435.152C833.868 434.459 834.39 433.925 835.062 433.552C835.734 433.179 836.508 432.992 837.382 432.992C838.225 432.992 838.977 433.173 839.638 433.536C840.31 433.899 840.828 434.416 841.19 435.088C841.564 435.749 841.75 436.512 841.75 437.376ZM839.43 436.736C839.42 436.16 839.212 435.701 838.806 435.36C838.401 435.008 837.905 434.832 837.318 434.832C836.764 434.832 836.294 435.003 835.91 435.344C835.537 435.675 835.308 436.139 835.222 436.736H839.43ZM846.777 442.144C846.052 442.144 845.401 442.016 844.825 441.76C844.249 441.493 843.791 441.136 843.449 440.688C843.119 440.24 842.937 439.744 842.905 439.2H845.161C845.204 439.541 845.369 439.824 845.657 440.048C845.956 440.272 846.324 440.384 846.761 440.384C847.188 440.384 847.519 440.299 847.753 440.128C847.999 439.957 848.121 439.739 848.121 439.472C848.121 439.184 847.972 438.971 847.673 438.832C847.385 438.683 846.921 438.523 846.281 438.352C845.62 438.192 845.076 438.027 844.649 437.856C844.233 437.685 843.871 437.424 843.561 437.072C843.263 436.72 843.113 436.245 843.113 435.648C843.113 435.157 843.252 434.709 843.529 434.304C843.817 433.899 844.223 433.579 844.745 433.344C845.279 433.109 845.903 432.992 846.617 432.992C847.673 432.992 848.516 433.259 849.145 433.792C849.775 434.315 850.121 435.024 850.185 435.92H848.041C848.009 435.568 847.86 435.291 847.593 435.088C847.337 434.875 846.991 434.768 846.553 434.768C846.148 434.768 845.833 434.843 845.609 434.992C845.396 435.141 845.289 435.349 845.289 435.616C845.289 435.915 845.439 436.144 845.737 436.304C846.036 436.453 846.5 436.608 847.129 436.768C847.769 436.928 848.297 437.093 848.713 437.264C849.129 437.435 849.487 437.701 849.785 438.064C850.095 438.416 850.255 438.885 850.265 439.472C850.265 439.984 850.121 440.443 849.833 440.848C849.556 441.253 849.151 441.573 848.617 441.808C848.095 442.032 847.481 442.144 846.777 442.144Z" fill="white"/>
<path d="M59.1761 413.016C59.1761 411.171 59.5068 409.725 60.1681 408.68C60.8401 407.635 61.9495 407.112 63.4961 407.112C65.0428 407.112 66.1468 407.635 66.8081 408.68C67.4801 409.725 67.8161 411.171 67.8161 413.016C67.8161 414.872 67.4801 416.328 66.8081 417.384C66.1468 418.44 65.0428 418.968 63.4961 418.968C61.9495 418.968 60.8401 418.44 60.1681 417.384C59.5068 416.328 59.1761 414.872 59.1761 413.016ZM65.6081 413.016C65.6081 412.227 65.5548 411.565 65.4481 411.032C65.3521 410.488 65.1495 410.045 64.8401 409.704C64.5415 409.363 64.0935 409.192 63.4961 409.192C62.8988 409.192 62.4455 409.363 62.1361 409.704C61.8375 410.045 61.6348 410.488 61.5281 411.032C61.4321 411.565 61.3841 412.227 61.3841 413.016C61.3841 413.827 61.4321 414.509 61.5281 415.064C61.6241 415.608 61.8268 416.051 62.1361 416.392C62.4455 416.723 62.8988 416.888 63.4961 416.888C64.0935 416.888 64.5468 416.723 64.8561 416.392C65.1655 416.051 65.3681 415.608 65.4641 415.064C65.5601 414.509 65.6081 413.827 65.6081 413.016Z" fill="white"/>
<path d="M182.286 151.408C182.34 150.341 182.713 149.52 183.406 148.944C184.11 148.357 185.033 148.064 186.174 148.064C186.953 148.064 187.62 148.203 188.174 148.48C188.729 148.747 189.145 149.115 189.422 149.584C189.71 150.043 189.854 150.565 189.854 151.152C189.854 151.824 189.678 152.395 189.326 152.864C188.985 153.323 188.574 153.632 188.094 153.792V153.856C188.713 154.048 189.193 154.389 189.534 154.88C189.886 155.371 190.062 156 190.062 156.768C190.062 157.408 189.913 157.979 189.614 158.48C189.326 158.981 188.894 159.376 188.318 159.664C187.753 159.941 187.07 160.08 186.27 160.08C185.065 160.08 184.084 159.776 183.326 159.168C182.569 158.56 182.169 157.664 182.126 156.48H184.302C184.324 157.003 184.5 157.424 184.83 157.744C185.172 158.053 185.636 158.208 186.222 158.208C186.766 158.208 187.182 158.059 187.47 157.76C187.769 157.451 187.918 157.056 187.918 156.576C187.918 155.936 187.716 155.477 187.31 155.2C186.905 154.923 186.276 154.784 185.422 154.784H184.958V152.944H185.422C186.937 152.944 187.694 152.437 187.694 151.424C187.694 150.965 187.556 150.608 187.278 150.352C187.012 150.096 186.622 149.968 186.11 149.968C185.609 149.968 185.22 150.107 184.942 150.384C184.676 150.651 184.521 150.992 184.478 151.408H182.286ZM191.832 154.016C191.832 152.171 192.163 150.725 192.824 149.68C193.496 148.635 194.606 148.112 196.152 148.112C197.699 148.112 198.803 148.635 199.464 149.68C200.136 150.725 200.472 152.171 200.472 154.016C200.472 155.872 200.136 157.328 199.464 158.384C198.803 159.44 197.699 159.968 196.152 159.968C194.606 159.968 193.496 159.44 192.824 158.384C192.163 157.328 191.832 155.872 191.832 154.016ZM198.264 154.016C198.264 153.227 198.211 152.565 198.104 152.032C198.008 151.488 197.806 151.045 197.496 150.704C197.198 150.363 196.75 150.192 196.152 150.192C195.555 150.192 195.102 150.363 194.792 150.704C194.494 151.045 194.291 151.488 194.184 152.032C194.088 152.565 194.04 153.227 194.04 154.016C194.04 154.827 194.088 155.509 194.184 156.064C194.28 156.608 194.483 157.051 194.792 157.392C195.102 157.723 195.555 157.888 196.152 157.888C196.75 157.888 197.203 157.723 197.512 157.392C197.822 157.051 198.024 156.608 198.12 156.064C198.216 155.509 198.264 154.827 198.264 154.016ZM201.92 151.2C201.92 150.389 202.155 149.755 202.624 149.296C203.104 148.837 203.717 148.608 204.464 148.608C205.211 148.608 205.819 148.837 206.288 149.296C206.768 149.755 207.008 150.389 207.008 151.2C207.008 152.021 206.768 152.661 206.288 153.12C205.819 153.579 205.211 153.808 204.464 153.808C203.717 153.808 203.104 153.579 202.624 153.12C202.155 152.661 201.92 152.021 201.92 151.2ZM212.192 148.8L205.904 160H203.728L210 148.8H212.192ZM204.448 149.952C203.861 149.952 203.568 150.368 203.568 151.2C203.568 152.043 203.861 152.464 204.448 152.464C204.736 152.464 204.96 152.363 205.12 152.16C205.28 151.947 205.36 151.627 205.36 151.2C205.36 150.368 205.056 149.952 204.448 149.952ZM208.944 157.584C208.944 156.763 209.179 156.128 209.648 155.68C210.128 155.221 210.741 154.992 211.488 154.992C212.235 154.992 212.837 155.221 213.296 155.68C213.765 156.128 214 156.763 214 157.584C214 158.405 213.765 159.045 213.296 159.504C212.837 159.963 212.235 160.192 211.488 160.192C210.731 160.192 210.117 159.963 209.648 159.504C209.179 159.045 208.944 158.405 208.944 157.584ZM211.472 156.336C210.864 156.336 210.56 156.752 210.56 157.584C210.56 158.427 210.864 158.848 211.472 158.848C212.069 158.848 212.368 158.427 212.368 157.584C212.368 156.752 212.069 156.336 211.472 156.336Z" fill="white"/>
<path d="M384.036 216.472C385.06 215.619 385.876 214.909 386.484 214.344C387.092 213.768 387.599 213.171 388.004 212.552C388.41 211.933 388.612 211.325 388.612 210.728C388.612 210.184 388.484 209.757 388.228 209.448C387.972 209.139 387.578 208.984 387.044 208.984C386.511 208.984 386.1 209.165 385.812 209.528C385.524 209.88 385.375 210.365 385.364 210.984H383.188C383.231 209.704 383.61 208.733 384.324 208.072C385.05 207.411 385.967 207.08 387.076 207.08C388.292 207.08 389.226 207.405 389.876 208.056C390.527 208.696 390.852 209.544 390.852 210.6C390.852 211.432 390.628 212.227 390.18 212.984C389.732 213.741 389.22 214.403 388.644 214.968C388.068 215.523 387.316 216.195 386.388 216.984H391.108V218.84H383.204V217.176L384.036 216.472ZM392.552 210.408C392.605 209.341 392.979 208.52 393.672 207.944C394.376 207.357 395.299 207.064 396.44 207.064C397.219 207.064 397.885 207.203 398.44 207.48C398.995 207.747 399.411 208.115 399.688 208.584C399.976 209.043 400.12 209.565 400.12 210.152C400.12 210.824 399.944 211.395 399.592 211.864C399.251 212.323 398.84 212.632 398.36 212.792V212.856C398.979 213.048 399.459 213.389 399.8 213.88C400.152 214.371 400.328 215 400.328 215.768C400.328 216.408 400.179 216.979 399.88 217.48C399.592 217.981 399.16 218.376 398.584 218.664C398.019 218.941 397.336 219.08 396.536 219.08C395.331 219.08 394.349 218.776 393.592 218.168C392.835 217.56 392.435 216.664 392.392 215.48H394.568C394.589 216.003 394.765 216.424 395.096 216.744C395.437 217.053 395.901 217.208 396.488 217.208C397.032 217.208 397.448 217.059 397.736 216.76C398.035 216.451 398.184 216.056 398.184 215.576C398.184 214.936 397.981 214.477 397.576 214.2C397.171 213.923 396.541 213.784 395.688 213.784H395.224V211.944H395.688C397.203 211.944 397.96 211.437 397.96 210.424C397.96 209.965 397.821 209.608 397.544 209.352C397.277 209.096 396.888 208.968 396.376 208.968C395.875 208.968 395.485 209.107 395.208 209.384C394.941 209.651 394.787 209.992 394.744 210.408H392.552ZM401.842 210.2C401.842 209.389 402.077 208.755 402.546 208.296C403.026 207.837 403.639 207.608 404.386 207.608C405.133 207.608 405.741 207.837 406.21 208.296C406.69 208.755 406.93 209.389 406.93 210.2C406.93 211.021 406.69 211.661 406.21 212.12C405.741 212.579 405.133 212.808 404.386 212.808C403.639 212.808 403.026 212.579 402.546 212.12C402.077 211.661 401.842 211.021 401.842 210.2ZM412.114 207.8L405.826 219H403.65L409.922 207.8H412.114ZM404.37 208.952C403.783 208.952 403.49 209.368 403.49 210.2C403.49 211.043 403.783 211.464 404.37 211.464C404.658 211.464 404.882 211.363 405.042 211.16C405.202 210.947 405.282 210.627 405.282 210.2C405.282 209.368 404.978 208.952 404.37 208.952ZM408.866 216.584C408.866 215.763 409.101 215.128 409.57 214.68C410.05 214.221 410.663 213.992 411.41 213.992C412.157 213.992 412.759 214.221 413.218 214.68C413.687 215.128 413.922 215.763 413.922 216.584C413.922 217.405 413.687 218.045 413.218 218.504C412.759 218.963 412.157 219.192 411.41 219.192C410.653 219.192 410.039 218.963 409.57 218.504C409.101 218.045 408.866 217.405 408.866 216.584ZM411.394 215.336C410.786 215.336 410.482 215.752 410.482 216.584C410.482 217.427 410.786 217.848 411.394 217.848C411.991 217.848 412.29 217.427 412.29 216.584C412.29 215.752 411.991 215.336 411.394 215.336Z" fill="white"/>
<path d="M586.037 244.4V242.336H589.893V254H587.589V244.4H586.037ZM594.698 250.72C594.783 251.189 594.975 251.552 595.274 251.808C595.583 252.053 595.994 252.176 596.506 252.176C597.167 252.176 597.647 251.904 597.946 251.36C598.244 250.805 598.394 249.877 598.394 248.576C598.148 248.917 597.802 249.184 597.354 249.376C596.916 249.568 596.442 249.664 595.93 249.664C595.247 249.664 594.628 249.525 594.074 249.248C593.53 248.96 593.098 248.539 592.778 247.984C592.458 247.419 592.298 246.736 592.298 245.936C592.298 244.752 592.65 243.813 593.354 243.12C594.058 242.416 595.018 242.064 596.234 242.064C597.748 242.064 598.815 242.549 599.434 243.52C600.063 244.491 600.378 245.952 600.378 247.904C600.378 249.291 600.255 250.427 600.01 251.312C599.775 252.197 599.364 252.869 598.778 253.328C598.202 253.787 597.412 254.016 596.41 254.016C595.62 254.016 594.948 253.867 594.394 253.568C593.839 253.259 593.412 252.859 593.114 252.368C592.826 251.867 592.66 251.317 592.618 250.72H594.698ZM596.394 247.84C596.948 247.84 597.386 247.669 597.706 247.328C598.026 246.987 598.186 246.528 598.186 245.952C598.186 245.323 598.015 244.837 597.674 244.496C597.343 244.144 596.89 243.968 596.314 243.968C595.738 243.968 595.279 244.149 594.938 244.512C594.607 244.864 594.442 245.333 594.442 245.92C594.442 246.485 594.602 246.949 594.922 247.312C595.252 247.664 595.743 247.84 596.394 247.84ZM601.865 245.2C601.865 244.389 602.1 243.755 602.569 243.296C603.049 242.837 603.663 242.608 604.409 242.608C605.156 242.608 605.764 242.837 606.233 243.296C606.713 243.755 606.953 244.389 606.953 245.2C606.953 246.021 606.713 246.661 606.233 247.12C605.764 247.579 605.156 247.808 604.409 247.808C603.663 247.808 603.049 247.579 602.569 247.12C602.1 246.661 601.865 246.021 601.865 245.2ZM612.137 242.8L605.849 254H603.673L609.945 242.8H612.137ZM604.393 243.952C603.807 243.952 603.513 244.368 603.513 245.2C603.513 246.043 603.807 246.464 604.393 246.464C604.681 246.464 604.905 246.363 605.065 246.16C605.225 245.947 605.305 245.627 605.305 245.2C605.305 244.368 605.001 243.952 604.393 243.952ZM608.889 251.584C608.889 250.763 609.124 250.128 609.593 249.68C610.073 249.221 610.687 248.992 611.433 248.992C612.18 248.992 612.783 249.221 613.241 249.68C613.711 250.128 613.945 250.763 613.945 251.584C613.945 252.405 613.711 253.045 613.241 253.504C612.783 253.963 612.18 254.192 611.433 254.192C610.676 254.192 610.063 253.963 609.593 253.504C609.124 253.045 608.889 252.405 608.889 251.584ZM611.417 250.336C610.809 250.336 610.505 250.752 610.505 251.584C610.505 252.427 610.809 252.848 611.417 252.848C612.015 252.848 612.313 252.427 612.313 251.584C612.313 250.752 612.015 250.336 611.417 250.336Z" fill="white"/>
<path d="M785.685 173.472C786.709 172.619 787.525 171.909 788.133 171.344C788.741 170.768 789.247 170.171 789.653 169.552C790.058 168.933 790.261 168.325 790.261 167.728C790.261 167.184 790.133 166.757 789.877 166.448C789.621 166.139 789.226 165.984 788.693 165.984C788.159 165.984 787.749 166.165 787.461 166.528C787.173 166.88 787.023 167.365 787.013 167.984H784.837C784.879 166.704 785.258 165.733 785.973 165.072C786.698 164.411 787.615 164.08 788.725 164.08C789.941 164.08 790.874 164.405 791.525 165.056C792.175 165.696 792.501 166.544 792.501 167.6C792.501 168.432 792.277 169.227 791.829 169.984C791.381 170.741 790.869 171.403 790.293 171.968C789.717 172.523 788.965 173.195 788.037 173.984H792.757V175.84H784.853V174.176L785.685 173.472ZM796.12 169.824C795.054 169.269 794.52 168.411 794.52 167.248C794.52 166.672 794.664 166.149 794.952 165.68C795.251 165.2 795.694 164.821 796.28 164.544C796.878 164.256 797.603 164.112 798.456 164.112C799.31 164.112 800.03 164.256 800.616 164.544C801.214 164.821 801.656 165.2 801.944 165.68C802.243 166.149 802.392 166.672 802.392 167.248C802.392 167.835 802.248 168.352 801.96 168.8C801.672 169.237 801.288 169.579 800.808 169.824C801.395 170.08 801.854 170.453 802.184 170.944C802.515 171.435 802.68 172.016 802.68 172.688C802.68 173.413 802.494 174.048 802.12 174.592C801.758 175.125 801.256 175.536 800.616 175.824C799.976 176.112 799.256 176.256 798.456 176.256C797.656 176.256 796.936 176.112 796.296 175.824C795.667 175.536 795.166 175.125 794.792 174.592C794.43 174.048 794.248 173.413 794.248 172.688C794.248 172.016 794.414 171.435 794.744 170.944C795.075 170.443 795.534 170.069 796.12 169.824ZM800.216 167.568C800.216 167.045 800.056 166.64 799.736 166.352C799.427 166.064 799 165.92 798.456 165.92C797.923 165.92 797.496 166.064 797.176 166.352C796.867 166.64 796.712 167.051 796.712 167.584C796.712 168.064 796.872 168.448 797.192 168.736C797.523 169.024 797.944 169.168 798.456 169.168C798.968 169.168 799.39 169.024 799.72 168.736C800.051 168.437 800.216 168.048 800.216 167.568ZM798.456 170.8C797.848 170.8 797.352 170.955 796.968 171.264C796.595 171.573 796.408 172.016 796.408 172.592C796.408 173.125 796.59 173.563 796.952 173.904C797.326 174.235 797.827 174.4 798.456 174.4C799.086 174.4 799.582 174.229 799.944 173.888C800.307 173.547 800.488 173.115 800.488 172.592C800.488 172.027 800.302 171.589 799.928 171.28C799.555 170.96 799.064 170.8 798.456 170.8ZM804.194 167.2C804.194 166.389 804.428 165.755 804.898 165.296C805.378 164.837 805.991 164.608 806.738 164.608C807.484 164.608 808.092 164.837 808.562 165.296C809.042 165.755 809.282 166.389 809.282 167.2C809.282 168.021 809.042 168.661 808.562 169.12C808.092 169.579 807.484 169.808 806.738 169.808C805.991 169.808 805.378 169.579 804.898 169.12C804.428 168.661 804.194 168.021 804.194 167.2ZM814.466 164.8L808.178 176H806.002L812.274 164.8H814.466ZM806.722 165.952C806.135 165.952 805.842 166.368 805.842 167.2C805.842 168.043 806.135 168.464 806.722 168.464C807.01 168.464 807.234 168.363 807.394 168.16C807.554 167.947 807.634 167.627 807.634 167.2C807.634 166.368 807.33 165.952 806.722 165.952ZM811.218 173.584C811.218 172.763 811.452 172.128 811.922 171.68C812.402 171.221 813.015 170.992 813.762 170.992C814.508 170.992 815.111 171.221 815.57 171.68C816.039 172.128 816.274 172.763 816.274 173.584C816.274 174.405 816.039 175.045 815.57 175.504C815.111 175.963 814.508 176.192 813.762 176.192C813.004 176.192 812.391 175.963 811.922 175.504C811.452 175.045 811.218 174.405 811.218 173.584ZM813.746 172.336C813.138 172.336 812.834 172.752 812.834 173.584C812.834 174.427 813.138 174.848 813.746 174.848C814.343 174.848 814.642 174.427 814.642 173.584C814.642 172.752 814.343 172.336 813.746 172.336Z" fill="white"/>
<path d="M48.1583 93.728V91.968L53.3903 84.48H55.9983V91.776H57.4062V93.728H55.9983V96H53.7583V93.728H48.1583ZM53.9023 86.88L50.6223 91.776H53.9023V86.88ZM58.8324 90.016C58.8324 88.1707 59.163 86.7253 59.8244 85.68C60.4964 84.6347 61.6057 84.112 63.1524 84.112C64.699 84.112 65.803 84.6347 66.4644 85.68C67.1364 86.7253 67.4724 88.1707 67.4724 90.016C67.4724 91.872 67.1364 93.328 66.4644 94.384C65.803 95.44 64.699 95.968 63.1524 95.968C61.6057 95.968 60.4964 95.44 59.8244 94.384C59.163 93.328 58.8324 91.872 58.8324 90.016ZM65.2644 90.016C65.2644 89.2267 65.211 88.5653 65.1044 88.032C65.0084 87.488 64.8057 87.0453 64.4964 86.704C64.1977 86.3627 63.7497 86.192 63.1524 86.192C62.555 86.192 62.1017 86.3627 61.7924 86.704C61.4937 87.0453 61.291 87.488 61.1844 88.032C61.0884 88.5653 61.0404 89.2267 61.0404 90.016C61.0404 90.8267 61.0884 91.5093 61.1844 92.064C61.2804 92.608 61.483 93.0507 61.7924 93.392C62.1017 93.7227 62.555 93.888 63.1524 93.888C63.7497 93.888 64.203 93.7227 64.5124 93.392C64.8217 93.0507 65.0244 92.608 65.1204 92.064C65.2164 91.5093 65.2644 90.8267 65.2644 90.016ZM68.9201 87.2C68.9201 86.3893 69.1548 85.7547 69.6241 85.296C70.1041 84.8373 70.7175 84.608 71.4641 84.608C72.2108 84.608 72.8188 84.8373 73.2881 85.296C73.7681 85.7547 74.0081 86.3893 74.0081 87.2C74.0081 88.0213 73.7681 88.6613 73.2881 89.12C72.8188 89.5787 72.2108 89.808 71.4641 89.808C70.7175 89.808 70.1041 89.5787 69.6241 89.12C69.1548 88.6613 68.9201 88.0213 68.9201 87.2ZM79.1921 84.8L72.9041 96H70.7281L77.0001 84.8H79.1921ZM71.4481 85.952C70.8615 85.952 70.5681 86.368 70.5681 87.2C70.5681 88.0427 70.8615 88.464 71.4481 88.464C71.7361 88.464 71.9601 88.3627 72.1201 88.16C72.2801 87.9467 72.3601 87.6267 72.3601 87.2C72.3601 86.368 72.0561 85.952 71.4481 85.952ZM75.9441 93.584C75.9441 92.7627 76.1788 92.128 76.6481 91.68C77.1281 91.2213 77.7415 90.992 78.4881 90.992C79.2348 90.992 79.8375 91.2213 80.2961 91.68C80.7655 92.128 81.0001 92.7627 81.0001 93.584C81.0001 94.4053 80.7655 95.0453 80.2961 95.504C79.8375 95.9627 79.2348 96.192 78.4881 96.192C77.7308 96.192 77.1175 95.9627 76.6481 95.504C76.1788 95.0453 75.9441 94.4053 75.9441 93.584ZM78.4721 92.336C77.8641 92.336 77.5601 92.752 77.5601 93.584C77.5601 94.4267 77.8641 94.848 78.4721 94.848C79.0695 94.848 79.3681 94.4267 79.3681 93.584C79.3681 92.752 79.0695 92.336 78.4721 92.336Z" fill="white"/>
<path d="M48.2863 167.408C48.3396 166.341 48.7129 165.52 49.4062 164.944C50.1103 164.357 51.0329 164.064 52.1743 164.064C52.9529 164.064 53.6196 164.203 54.1743 164.48C54.7289 164.747 55.1449 165.115 55.4223 165.584C55.7103 166.043 55.8542 166.565 55.8542 167.152C55.8542 167.824 55.6783 168.395 55.3263 168.864C54.9849 169.323 54.5743 169.632 54.0943 169.792V169.856C54.7129 170.048 55.1929 170.389 55.5343 170.88C55.8863 171.371 56.0623 172 56.0623 172.768C56.0623 173.408 55.9129 173.979 55.6143 174.48C55.3263 174.981 54.8943 175.376 54.3183 175.664C53.7529 175.941 53.0703 176.08 52.2703 176.08C51.0649 176.08 50.0836 175.776 49.3263 175.168C48.5689 174.56 48.1689 173.664 48.1263 172.48H50.3023C50.3236 173.003 50.4996 173.424 50.8303 173.744C51.1716 174.053 51.6356 174.208 52.2223 174.208C52.7663 174.208 53.1823 174.059 53.4703 173.76C53.7689 173.451 53.9183 173.056 53.9183 172.576C53.9183 171.936 53.7156 171.477 53.3103 171.2C52.9049 170.923 52.2756 170.784 51.4223 170.784H50.9583V168.944H51.4223C52.9369 168.944 53.6943 168.437 53.6943 167.424C53.6943 166.965 53.5556 166.608 53.2783 166.352C53.0116 166.096 52.6223 165.968 52.1102 165.968C51.6089 165.968 51.2196 166.107 50.9423 166.384C50.6756 166.651 50.5209 166.992 50.4783 167.408H48.2863ZM57.8324 170.016C57.8324 168.171 58.163 166.725 58.8244 165.68C59.4964 164.635 60.6057 164.112 62.1524 164.112C63.699 164.112 64.803 164.635 65.4644 165.68C66.1364 166.725 66.4724 168.171 66.4724 170.016C66.4724 171.872 66.1364 173.328 65.4644 174.384C64.803 175.44 63.699 175.968 62.1524 175.968C60.6057 175.968 59.4964 175.44 58.8244 174.384C58.163 173.328 57.8324 171.872 57.8324 170.016ZM64.2644 170.016C64.2644 169.227 64.211 168.565 64.1044 168.032C64.0084 167.488 63.8057 167.045 63.4964 166.704C63.1977 166.363 62.7497 166.192 62.1524 166.192C61.555 166.192 61.1017 166.363 60.7924 166.704C60.4937 167.045 60.291 167.488 60.1844 168.032C60.0884 168.565 60.0404 169.227 60.0404 170.016C60.0404 170.827 60.0884 171.509 60.1844 172.064C60.2804 172.608 60.483 173.051 60.7924 173.392C61.1017 173.723 61.555 173.888 62.1524 173.888C62.7497 173.888 63.203 173.723 63.5124 173.392C63.8217 173.051 64.0244 172.608 64.1204 172.064C64.2164 171.509 64.2644 170.827 64.2644 170.016ZM67.9201 167.2C67.9201 166.389 68.1548 165.755 68.6241 165.296C69.1041 164.837 69.7175 164.608 70.4641 164.608C71.2108 164.608 71.8188 164.837 72.2881 165.296C72.7681 165.755 73.0081 166.389 73.0081 167.2C73.0081 168.021 72.7681 168.661 72.2881 169.12C71.8188 169.579 71.2108 169.808 70.4641 169.808C69.7175 169.808 69.1041 169.579 68.6241 169.12C68.1548 168.661 67.9201 168.021 67.9201 167.2ZM78.1921 164.8L71.9041 176H69.7281L76.0001 164.8H78.1921ZM70.4481 165.952C69.8615 165.952 69.5681 166.368 69.5681 167.2C69.5681 168.043 69.8615 168.464 70.4481 168.464C70.7361 168.464 70.9601 168.363 71.1201 168.16C71.2801 167.947 71.3601 167.627 71.3601 167.2C71.3601 166.368 71.0561 165.952 70.4481 165.952ZM74.9441 173.584C74.9441 172.763 75.1788 172.128 75.6481 171.68C76.1281 171.221 76.7415 170.992 77.4881 170.992C78.2348 170.992 78.8375 171.221 79.2961 171.68C79.7655 172.128 80.0001 172.763 80.0001 173.584C80.0001 174.405 79.7655 175.045 79.2961 175.504C78.8375 175.963 78.2348 176.192 77.4881 176.192C76.7308 176.192 76.1175 175.963 75.6481 175.504C75.1788 175.045 74.9441 174.405 74.9441 173.584ZM77.4721 172.336C76.8641 172.336 76.5601 172.752 76.5601 173.584C76.5601 174.427 76.8641 174.848 77.4721 174.848C78.0695 174.848 78.3681 174.427 78.3681 173.584C78.3681 172.752 78.0695 172.336 77.4721 172.336Z" fill="white"/>
<path d="M49.6536 254.472C50.6776 253.619 51.4936 252.909 52.1016 252.344C52.7096 251.768 53.2162 251.171 53.6216 250.552C54.0269 249.933 54.2296 249.325 54.2296 248.728C54.2296 248.184 54.1016 247.757 53.8456 247.448C53.5896 247.139 53.1949 246.984 52.6616 246.984C52.1282 246.984 51.7176 247.165 51.4296 247.528C51.1416 247.88 50.9922 248.365 50.9816 248.984H48.8056C48.8482 247.704 49.2269 246.733 49.9416 246.072C50.6669 245.411 51.5842 245.08 52.6936 245.08C53.9096 245.08 54.8429 245.405 55.4936 246.056C56.1442 246.696 56.4696 247.544 56.4696 248.6C56.4696 249.432 56.2456 250.227 55.7976 250.984C55.3496 251.741 54.8376 252.403 54.2616 252.968C53.6856 253.523 52.9336 254.195 52.0056 254.984H56.7256V256.84H48.8216V255.176L49.6536 254.472ZM58.1371 251.016C58.1371 249.171 58.4677 247.725 59.1291 246.68C59.8011 245.635 60.9104 245.112 62.4571 245.112C64.0037 245.112 65.1077 245.635 65.7691 246.68C66.4411 247.725 66.7771 249.171 66.7771 251.016C66.7771 252.872 66.4411 254.328 65.7691 255.384C65.1077 256.44 64.0037 256.968 62.4571 256.968C60.9104 256.968 59.8011 256.44 59.1291 255.384C58.4677 254.328 58.1371 252.872 58.1371 251.016ZM64.5691 251.016C64.5691 250.227 64.5157 249.565 64.4091 249.032C64.3131 248.488 64.1104 248.045 63.8011 247.704C63.5024 247.363 63.0544 247.192 62.4571 247.192C61.8597 247.192 61.4064 247.363 61.0971 247.704C60.7984 248.045 60.5957 248.488 60.4891 249.032C60.3931 249.565 60.3451 250.227 60.3451 251.016C60.3451 251.827 60.3931 252.509 60.4891 253.064C60.5851 253.608 60.7877 254.051 61.0971 254.392C61.4064 254.723 61.8597 254.888 62.4571 254.888C63.0544 254.888 63.5077 254.723 63.8171 254.392C64.1264 254.051 64.3291 253.608 64.4251 253.064C64.5211 252.509 64.5691 251.827 64.5691 251.016ZM68.2248 248.2C68.2248 247.389 68.4595 246.755 68.9288 246.296C69.4088 245.837 70.0221 245.608 70.7688 245.608C71.5155 245.608 72.1235 245.837 72.5928 246.296C73.0728 246.755 73.3128 247.389 73.3128 248.2C73.3128 249.021 73.0728 249.661 72.5928 250.12C72.1235 250.579 71.5155 250.808 70.7688 250.808C70.0221 250.808 69.4088 250.579 68.9288 250.12C68.4595 249.661 68.2248 249.021 68.2248 248.2ZM78.4968 245.8L72.2088 257H70.0328L76.3048 245.8H78.4968ZM70.7528 246.952C70.1661 246.952 69.8728 247.368 69.8728 248.2C69.8728 249.043 70.1661 249.464 70.7528 249.464C71.0408 249.464 71.2648 249.363 71.4248 249.16C71.5848 248.947 71.6648 248.627 71.6648 248.2C71.6648 247.368 71.3608 246.952 70.7528 246.952ZM75.2488 254.584C75.2488 253.763 75.4835 253.128 75.9528 252.68C76.4328 252.221 77.0461 251.992 77.7928 251.992C78.5395 251.992 79.1421 252.221 79.6008 252.68C80.0701 253.128 80.3048 253.763 80.3048 254.584C80.3048 255.405 80.0701 256.045 79.6008 256.504C79.1421 256.963 78.5395 257.192 77.7928 257.192C77.0355 257.192 76.4221 256.963 75.9528 256.504C75.4835 256.045 75.2488 255.405 75.2488 254.584ZM77.7768 253.336C77.1688 253.336 76.8648 253.752 76.8648 254.584C76.8648 255.427 77.1688 255.848 77.7768 255.848C78.3741 255.848 78.6728 255.427 78.6728 254.584C78.6728 253.752 78.3741 253.336 77.7768 253.336Z" fill="white"/>
<path d="M49.8729 328.4V326.336H53.7289V338H51.4249V328.4H49.8729ZM55.9418 332.016C55.9418 330.171 56.2724 328.725 56.9338 327.68C57.6058 326.635 58.7151 326.112 60.2618 326.112C61.8084 326.112 62.9124 326.635 63.5738 327.68C64.2458 328.725 64.5818 330.171 64.5818 332.016C64.5818 333.872 64.2458 335.328 63.5738 336.384C62.9124 337.44 61.8084 337.968 60.2618 337.968C58.7151 337.968 57.6058 337.44 56.9338 336.384C56.2724 335.328 55.9418 333.872 55.9418 332.016ZM62.3738 332.016C62.3738 331.227 62.3204 330.565 62.2138 330.032C62.1178 329.488 61.9151 329.045 61.6058 328.704C61.3071 328.363 60.8591 328.192 60.2618 328.192C59.6644 328.192 59.2111 328.363 58.9018 328.704C58.6031 329.045 58.4004 329.488 58.2938 330.032C58.1978 330.565 58.1498 331.227 58.1498 332.016C58.1498 332.827 58.1978 333.509 58.2938 334.064C58.3898 334.608 58.5924 335.051 58.9018 335.392C59.2111 335.723 59.6644 335.888 60.2618 335.888C60.8591 335.888 61.3124 335.723 61.6218 335.392C61.9311 335.051 62.1338 334.608 62.2298 334.064C62.3258 333.509 62.3738 332.827 62.3738 332.016ZM66.0295 329.2C66.0295 328.389 66.2642 327.755 66.7335 327.296C67.2135 326.837 67.8268 326.608 68.5735 326.608C69.3202 326.608 69.9282 326.837 70.3975 327.296C70.8775 327.755 71.1175 328.389 71.1175 329.2C71.1175 330.021 70.8775 330.661 70.3975 331.12C69.9282 331.579 69.3202 331.808 68.5735 331.808C67.8268 331.808 67.2135 331.579 66.7335 331.12C66.2642 330.661 66.0295 330.021 66.0295 329.2ZM76.3015 326.8L70.0135 338H67.8375L74.1095 326.8H76.3015ZM68.5575 327.952C67.9708 327.952 67.6775 328.368 67.6775 329.2C67.6775 330.043 67.9708 330.464 68.5575 330.464C68.8455 330.464 69.0695 330.363 69.2295 330.16C69.3895 329.947 69.4695 329.627 69.4695 329.2C69.4695 328.368 69.1655 327.952 68.5575 327.952ZM73.0535 335.584C73.0535 334.763 73.2882 334.128 73.7575 333.68C74.2375 333.221 74.8508 332.992 75.5975 332.992C76.3442 332.992 76.9468 333.221 77.4055 333.68C77.8748 334.128 78.1095 334.763 78.1095 335.584C78.1095 336.405 77.8748 337.045 77.4055 337.504C76.9468 337.963 76.3442 338.192 75.5975 338.192C74.8402 338.192 74.2268 337.963 73.7575 337.504C73.2882 337.045 73.0535 336.405 73.0535 335.584ZM75.5815 334.336C74.9735 334.336 74.6695 334.752 74.6695 335.584C74.6695 336.427 74.9735 336.848 75.5815 336.848C76.1788 336.848 76.4775 336.427 76.4775 335.584C76.4775 334.752 76.1788 334.336 75.5815 334.336Z" fill="white"/>
<path d="M163 411L163 177C163 172.582 166.582 169 171 169H225C229.418 169 233 172.582 233 177L233 411H163Z" fill="#7589E2"/>
<path d="M364 411V233C364 228.582 367.582 225 372 225H426C430.418 225 434 228.582 434 233V411H364Z" fill="#7589E2"/>
<path d="M565 411V268C565 263.582 568.582 260 573 260H627C631.418 260 635 263.582 635 268V411H565Z" fill="#7589E2"/>
<path d="M766 411V190C766 185.582 769.582 182 774 182H828C832.418 182 836 185.582 836 190V411H766Z" fill="#7589E2"/>
<defs>
<filter id="filter0_dd_736_2" x="0" y="0" width="902" height="493" filterUnits="userSpaceOnUse" color-interpolation-filters="sRGB">
<feFlood flood-opacity="0" result="BackgroundImageFix"/>
<feColorMatrix in="SourceAlpha" type="matrix" values="0 0 0 0 0 0 0 0 0 0 0 0 0 0 0 0 0 0 127 0" result="hardAlpha"/>
<feOffset dx="-8" dy="-8"/>
<feGaussianBlur stdDeviation="8"/>
<feComposite in2="hardAlpha" operator="out"/>
<feColorMatrix type="matrix" values="0 0 0 0 0.317647 0 0 0 0 0.321569 0 0 0 0 0.368627 0 0 0 1 0"/>
<feBlend mode="normal" in2="BackgroundImageFix" result="effect1_dropShadow_736_2"/>
<feColorMatrix in="SourceAlpha" type="matrix" values="0 0 0 0 0 0 0 0 0 0 0 0 0 0 0 0 0 0 127 0" result="hardAlpha"/>
<feOffset dx="8" dy="8"/>
<feGaussianBlur stdDeviation="8"/>
<feComposite in2="hardAlpha" operator="out"/>
<feColorMatrix type="matrix" values="0 0 0 0 0.0980392 0 0 0 0 0.101961 0 0 0 0 0.117647 0 0 0 1 0"/>
<feBlend mode="normal" in2="effect1_dropShadow_736_2" result="effect2_dropShadow_736_2"/>
<feBlend mode="normal" in="SourceGraphic" in2="effect2_dropShadow_736_2" result="shape"/>
</filter>
</defs>
</svg>
