<svg width="356" height="197" viewBox="0 0 356 197" fill="none" xmlns="http://www.w3.org/2000/svg">
<g filter="url(#filter0_dd_726_44)">
<rect x="6" y="6" width="344" height="185" rx="8" fill="#35363E"/>
</g>
<path d="M90 44C90 44.7412 90 74 90 74M90 44H88M90 44V28M90 151V135M90 151V153M90 151H205M321 151H205M321 151V153M321 151H324M90 74H88M90 74V104M90 104H88M90 104V135M90 135H88M205 151V153" stroke="#F5F5F5" stroke-width="2" stroke-linecap="round" stroke-linejoin="round"/>
<path d="M25.8841 45.67H23.1041L22.6441 47H21.1741L23.6841 40.01H25.3141L27.8241 47H26.3441L25.8841 45.67ZM25.5041 44.55L24.4941 41.63L23.4841 44.55H25.5041ZM31.3023 42.61H30.3323V47H28.9123V42.61H28.2823V41.46H28.9123V41.18C28.9123 40.5 29.1056 40 29.4923 39.68C29.8789 39.36 30.4623 39.21 31.2423 39.23V40.41C30.9023 40.4033 30.6656 40.46 30.5323 40.58C30.3989 40.7 30.3323 40.9167 30.3323 41.23V41.46H31.3023V42.61ZM34.7495 42.61H33.7795V47H32.3595V42.61H31.7295V41.46H32.3595V41.18C32.3595 40.5 32.5529 40 32.9395 39.68C33.3262 39.36 33.9095 39.21 34.6895 39.23V40.41C34.3495 40.4033 34.1129 40.46 33.9795 40.58C33.8462 40.7 33.7795 40.9167 33.7795 41.23V41.46H34.7495V42.61ZM38.1168 47.09C37.5835 47.09 37.1035 46.9733 36.6768 46.74C36.2501 46.5 35.9135 46.1633 35.6668 45.73C35.4268 45.2967 35.3068 44.7967 35.3068 44.23C35.3068 43.6633 35.4301 43.1633 35.6768 42.73C35.9301 42.2967 36.2735 41.9633 36.7068 41.73C37.1401 41.49 37.6235 41.37 38.1568 41.37C38.6901 41.37 39.1735 41.49 39.6068 41.73C40.0401 41.9633 40.3801 42.2967 40.6268 42.73C40.8801 43.1633 41.0068 43.6633 41.0068 44.23C41.0068 44.7967 40.8768 45.2967 40.6168 45.73C40.3635 46.1633 40.0168 46.5 39.5768 46.74C39.1435 46.9733 38.6568 47.09 38.1168 47.09ZM38.1168 45.87C38.3701 45.87 38.6068 45.81 38.8268 45.69C39.0535 45.5633 39.2335 45.3767 39.3668 45.13C39.5001 44.8833 39.5668 44.5833 39.5668 44.23C39.5668 43.7033 39.4268 43.3 39.1468 43.02C38.8735 42.7333 38.5368 42.59 38.1368 42.59C37.7368 42.59 37.4001 42.7333 37.1268 43.02C36.8601 43.3 36.7268 43.7033 36.7268 44.23C36.7268 44.7567 36.8568 45.1633 37.1168 45.45C37.3835 45.73 37.7168 45.87 38.1168 45.87ZM43.4338 42.32C43.6138 42.0267 43.8471 41.7967 44.1338 41.63C44.4271 41.4633 44.7604 41.38 45.1338 41.38V42.85H44.7638C44.3238 42.85 43.9904 42.9533 43.7638 43.16C43.5438 43.3667 43.4338 43.7267 43.4338 44.24V47H42.0338V41.46H43.4338V42.32ZM45.7167 44.21C45.7167 43.65 45.8267 43.1533 46.0467 42.72C46.2734 42.2867 46.5801 41.9533 46.9667 41.72C47.3534 41.4867 47.7834 41.37 48.2567 41.37C48.6167 41.37 48.9601 41.45 49.2867 41.61C49.6134 41.7633 49.8734 41.97 50.0667 42.23V39.6H51.4867V47H50.0667V46.18C49.8934 46.4533 49.6501 46.6733 49.3367 46.84C49.0234 47.0067 48.6601 47.09 48.2467 47.09C47.7801 47.09 47.3534 46.97 46.9667 46.73C46.5801 46.49 46.2734 46.1533 46.0467 45.72C45.8267 45.28 45.7167 44.7767 45.7167 44.21ZM50.0767 44.23C50.0767 43.89 50.0101 43.6 49.8767 43.36C49.7434 43.1133 49.5634 42.9267 49.3367 42.8C49.1101 42.6667 48.8667 42.6 48.6067 42.6C48.3467 42.6 48.1067 42.6633 47.8867 42.79C47.6667 42.9167 47.4867 43.1033 47.3467 43.35C47.2134 43.59 47.1467 43.8767 47.1467 44.21C47.1467 44.5433 47.2134 44.8367 47.3467 45.09C47.4867 45.3367 47.6667 45.5267 47.8867 45.66C48.1134 45.7933 48.3534 45.86 48.6067 45.86C48.8667 45.86 49.1101 45.7967 49.3367 45.67C49.5634 45.5367 49.7434 45.35 49.8767 45.11C50.0101 44.8633 50.0767 44.57 50.0767 44.23ZM52.4941 44.21C52.4941 43.65 52.6041 43.1533 52.8241 42.72C53.0507 42.2867 53.3541 41.9533 53.7341 41.72C54.1207 41.4867 54.5507 41.37 55.0241 41.37C55.4374 41.37 55.7974 41.4533 56.1041 41.62C56.4174 41.7867 56.6674 41.9967 56.8541 42.25V41.46H58.2641V47H56.8541V46.19C56.6741 46.45 56.4241 46.6667 56.1041 46.84C55.7907 47.0067 55.4274 47.09 55.0141 47.09C54.5474 47.09 54.1207 46.97 53.7341 46.73C53.3541 46.49 53.0507 46.1533 52.8241 45.72C52.6041 45.28 52.4941 44.7767 52.4941 44.21ZM56.8541 44.23C56.8541 43.89 56.7874 43.6 56.6541 43.36C56.5207 43.1133 56.3407 42.9267 56.1141 42.8C55.8874 42.6667 55.6441 42.6 55.3841 42.6C55.1241 42.6 54.8841 42.6633 54.6641 42.79C54.4441 42.9167 54.2641 43.1033 54.1241 43.35C53.9907 43.59 53.9241 43.8767 53.9241 44.21C53.9241 44.5433 53.9907 44.8367 54.1241 45.09C54.2641 45.3367 54.4441 45.5267 54.6641 45.66C54.8907 45.7933 55.1307 45.86 55.3841 45.86C55.6441 45.86 55.8874 45.7967 56.1141 45.67C56.3407 45.5367 56.5207 45.35 56.6541 45.11C56.7874 44.8633 56.8541 44.57 56.8541 44.23ZM61.0314 42.27C61.2114 42.0033 61.4581 41.7867 61.7714 41.62C62.0914 41.4533 62.4547 41.37 62.8614 41.37C63.3347 41.37 63.7614 41.4867 64.1414 41.72C64.5281 41.9533 64.8314 42.2867 65.0514 42.72C65.2781 43.1467 65.3914 43.6433 65.3914 44.21C65.3914 44.7767 65.2781 45.28 65.0514 45.72C64.8314 46.1533 64.5281 46.49 64.1414 46.73C63.7614 46.97 63.3347 47.09 62.8614 47.09C62.4481 47.09 62.0847 47.01 61.7714 46.85C61.4647 46.6833 61.2181 46.47 61.0314 46.21V47H59.6314V39.6H61.0314V42.27ZM63.9614 44.21C63.9614 43.8767 63.8914 43.59 63.7514 43.35C63.6181 43.1033 63.4381 42.9167 63.2114 42.79C62.9914 42.6633 62.7514 42.6 62.4914 42.6C62.2381 42.6 61.9981 42.6667 61.7714 42.8C61.5514 42.9267 61.3714 43.1133 61.2314 43.36C61.0981 43.6067 61.0314 43.8967 61.0314 44.23C61.0314 44.5633 61.0981 44.8533 61.2314 45.1C61.3714 45.3467 61.5514 45.5367 61.7714 45.67C61.9981 45.7967 62.2381 45.86 62.4914 45.86C62.7514 45.86 62.9914 45.7933 63.2114 45.66C63.4381 45.5267 63.6181 45.3367 63.7514 45.09C63.8914 44.8433 63.9614 44.55 63.9614 44.21ZM67.1188 40.8C66.8721 40.8 66.6654 40.7233 66.4988 40.57C66.3388 40.41 66.2588 40.2133 66.2588 39.98C66.2588 39.7467 66.3388 39.5533 66.4988 39.4C66.6654 39.24 66.8721 39.16 67.1188 39.16C67.3654 39.16 67.5688 39.24 67.7288 39.4C67.8954 39.5533 67.9788 39.7467 67.9788 39.98C67.9788 40.2133 67.8954 40.41 67.7288 40.57C67.5688 40.7233 67.3654 40.8 67.1188 40.8ZM67.8088 41.46V47H66.4088V41.46H67.8088ZM70.592 39.6V47H69.192V39.6H70.592ZM72.6852 40.8C72.4385 40.8 72.2318 40.7233 72.0652 40.57C71.9052 40.41 71.8252 40.2133 71.8252 39.98C71.8252 39.7467 71.9052 39.5533 72.0652 39.4C72.2318 39.24 72.4385 39.16 72.6852 39.16C72.9318 39.16 73.1352 39.24 73.2952 39.4C73.4618 39.5533 73.5452 39.7467 73.5452 39.98C73.5452 40.2133 73.4618 40.41 73.2952 40.57C73.1352 40.7233 72.9318 40.8 72.6852 40.8ZM73.3752 41.46V47H71.9752V41.46H73.3752ZM76.3884 42.61V45.29C76.3884 45.4767 76.4317 45.6133 76.5184 45.7C76.6117 45.78 76.765 45.82 76.9784 45.82H77.6284V47H76.7484C75.5684 47 74.9784 46.4267 74.9784 45.28V42.61H74.3184V41.46H74.9784V40.09H76.3884V41.46H77.6284V42.61H76.3884ZM83.9353 41.46L80.5053 49.62H79.0153L80.2153 46.86L77.9953 41.46H79.5653L80.9953 45.33L82.4453 41.46H83.9353Z" fill="white"/>
<path d="M46.3523 72.18C46.3523 72.5533 46.2623 72.9033 46.0823 73.23C45.9089 73.5567 45.6323 73.82 45.2523 74.02C44.8789 74.22 44.4056 74.32 43.8323 74.32H42.6623V77H41.2623V70.02H43.8323C44.3723 70.02 44.8323 70.1133 45.2123 70.3C45.5923 70.4867 45.8756 70.7433 46.0623 71.07C46.2556 71.3967 46.3523 71.7667 46.3523 72.18ZM43.7723 73.19C44.1589 73.19 44.4456 73.1033 44.6323 72.93C44.8189 72.75 44.9123 72.5 44.9123 72.18C44.9123 71.5 44.5323 71.16 43.7723 71.16H42.6623V73.19H43.7723ZM48.7463 72.32C48.9263 72.0267 49.1596 71.7967 49.4463 71.63C49.7396 71.4633 50.0729 71.38 50.4463 71.38V72.85H50.0763C49.6363 72.85 49.3029 72.9533 49.0763 73.16C48.8563 73.3667 48.7463 73.7267 48.7463 74.24V77H47.3463V71.46H48.7463V72.32ZM53.8492 77.09C53.3159 77.09 52.8359 76.9733 52.4092 76.74C51.9826 76.5 51.6459 76.1633 51.3992 75.73C51.1592 75.2967 51.0392 74.7967 51.0392 74.23C51.0392 73.6633 51.1626 73.1633 51.4092 72.73C51.6626 72.2967 52.0059 71.9633 52.4392 71.73C52.8726 71.49 53.3559 71.37 53.8892 71.37C54.4226 71.37 54.9059 71.49 55.3392 71.73C55.7726 71.9633 56.1126 72.2967 56.3592 72.73C56.6126 73.1633 56.7392 73.6633 56.7392 74.23C56.7392 74.7967 56.6092 75.2967 56.3492 75.73C56.0959 76.1633 55.7492 76.5 55.3092 76.74C54.8759 76.9733 54.3892 77.09 53.8492 77.09ZM53.8492 75.87C54.1026 75.87 54.3392 75.81 54.5592 75.69C54.7859 75.5633 54.9659 75.3767 55.0992 75.13C55.2326 74.8833 55.2992 74.5833 55.2992 74.23C55.2992 73.7033 55.1592 73.3 54.8792 73.02C54.6059 72.7333 54.2692 72.59 53.8692 72.59C53.4692 72.59 53.1326 72.7333 52.8592 73.02C52.5926 73.3 52.4592 73.7033 52.4592 74.23C52.4592 74.7567 52.5892 75.1633 52.8492 75.45C53.1159 75.73 53.4492 75.87 53.8492 75.87ZM59.1662 72.26C59.3462 72.0067 59.5928 71.7967 59.9062 71.63C60.2262 71.4567 60.5895 71.37 60.9962 71.37C61.4695 71.37 61.8962 71.4867 62.2762 71.72C62.6628 71.9533 62.9662 72.2867 63.1862 72.72C63.4128 73.1467 63.5262 73.6433 63.5262 74.21C63.5262 74.7767 63.4128 75.28 63.1862 75.72C62.9662 76.1533 62.6628 76.49 62.2762 76.73C61.8962 76.97 61.4695 77.09 60.9962 77.09C60.5895 77.09 60.2295 77.0067 59.9162 76.84C59.6095 76.6733 59.3595 76.4633 59.1662 76.21V79.64H57.7662V71.46H59.1662V72.26ZM62.0962 74.21C62.0962 73.8767 62.0262 73.59 61.8862 73.35C61.7528 73.1033 61.5728 72.9167 61.3462 72.79C61.1262 72.6633 60.8862 72.6 60.6262 72.6C60.3728 72.6 60.1328 72.6667 59.9062 72.8C59.6862 72.9267 59.5062 73.1133 59.3662 73.36C59.2328 73.6067 59.1662 73.8967 59.1662 74.23C59.1662 74.5633 59.2328 74.8533 59.3662 75.1C59.5062 75.3467 59.6862 75.5367 59.9062 75.67C60.1328 75.7967 60.3728 75.86 60.6262 75.86C60.8862 75.86 61.1262 75.7933 61.3462 75.66C61.5728 75.5267 61.7528 75.3367 61.8862 75.09C62.0262 74.8433 62.0962 74.55 62.0962 74.21ZM69.6935 74.11C69.6935 74.31 69.6802 74.49 69.6535 74.65H65.6035C65.6368 75.05 65.7768 75.3633 66.0235 75.59C66.2702 75.8167 66.5735 75.93 66.9335 75.93C67.4535 75.93 67.8235 75.7067 68.0435 75.26H69.5535C69.3935 75.7933 69.0868 76.2333 68.6335 76.58C68.1802 76.92 67.6235 77.09 66.9635 77.09C66.4302 77.09 65.9502 76.9733 65.5235 76.74C65.1035 76.5 64.7735 76.1633 64.5335 75.73C64.3002 75.2967 64.1835 74.7967 64.1835 74.23C64.1835 73.6567 64.3002 73.1533 64.5335 72.72C64.7668 72.2867 65.0935 71.9533 65.5135 71.72C65.9335 71.4867 66.4168 71.37 66.9635 71.37C67.4902 71.37 67.9602 71.4833 68.3735 71.71C68.7935 71.9367 69.1168 72.26 69.3435 72.68C69.5768 73.0933 69.6935 73.57 69.6935 74.11ZM68.2435 73.71C68.2368 73.35 68.1068 73.0633 67.8535 72.85C67.6002 72.63 67.2902 72.52 66.9235 72.52C66.5768 72.52 66.2835 72.6267 66.0435 72.84C65.8102 73.0467 65.6668 73.3367 65.6135 73.71H68.2435ZM72.1154 72.32C72.2954 72.0267 72.5287 71.7967 72.8154 71.63C73.1087 71.4633 73.4421 71.38 73.8154 71.38V72.85H73.4454C73.0054 72.85 72.6721 72.9533 72.4454 73.16C72.2254 73.3667 72.1154 73.7267 72.1154 74.24V77H70.7154V71.46H72.1154V72.32ZM76.3884 72.61V75.29C76.3884 75.4767 76.4317 75.6133 76.5184 75.7C76.6117 75.78 76.765 75.82 76.9784 75.82H77.6284V77H76.7484C75.5684 77 74.9784 76.4267 74.9784 75.28V72.61H74.3184V71.46H74.9784V70.09H76.3884V71.46H77.6284V72.61H76.3884ZM83.9353 71.46L80.5053 79.62H79.0153L80.2153 76.86L77.9953 71.46H79.5653L80.9953 75.33L82.4453 71.46H83.9353Z" fill="white"/>
<path d="M42.6818 106.89H44.9818V108H41.2818V101.02H42.6818V106.89ZM48.3316 108.09C47.7983 108.09 47.3183 107.973 46.8916 107.74C46.465 107.5 46.1283 107.163 45.8816 106.73C45.6416 106.297 45.5216 105.797 45.5216 105.23C45.5216 104.663 45.645 104.163 45.8916 103.73C46.145 103.297 46.4883 102.963 46.9216 102.73C47.355 102.49 47.8383 102.37 48.3716 102.37C48.905 102.37 49.3883 102.49 49.8216 102.73C50.255 102.963 50.595 103.297 50.8416 103.73C51.095 104.163 51.2216 104.663 51.2216 105.23C51.2216 105.797 51.0916 106.297 50.8316 106.73C50.5783 107.163 50.2316 107.5 49.7916 107.74C49.3583 107.973 48.8716 108.09 48.3316 108.09ZM48.3316 106.87C48.585 106.87 48.8216 106.81 49.0416 106.69C49.2683 106.563 49.4483 106.377 49.5816 106.13C49.715 105.883 49.7816 105.583 49.7816 105.23C49.7816 104.703 49.6416 104.3 49.3616 104.02C49.0883 103.733 48.7516 103.59 48.3516 103.59C47.9516 103.59 47.615 103.733 47.3416 104.02C47.075 104.3 46.9416 104.703 46.9416 105.23C46.9416 105.757 47.0716 106.163 47.3316 106.45C47.5983 106.73 47.9316 106.87 48.3316 106.87ZM51.8886 105.23C51.8886 104.657 52.0053 104.157 52.2386 103.73C52.4719 103.297 52.7953 102.963 53.2086 102.73C53.6219 102.49 54.0953 102.37 54.6286 102.37C55.3153 102.37 55.8819 102.543 56.3286 102.89C56.7819 103.23 57.0853 103.71 57.2386 104.33H55.7286C55.6486 104.09 55.5119 103.903 55.3186 103.77C55.1319 103.63 54.8986 103.56 54.6186 103.56C54.2186 103.56 53.9019 103.707 53.6686 104C53.4353 104.287 53.3186 104.697 53.3186 105.23C53.3186 105.757 53.4353 106.167 53.6686 106.46C53.9019 106.747 54.2186 106.89 54.6186 106.89C55.1853 106.89 55.5553 106.637 55.7286 106.13H57.2386C57.0853 106.73 56.7819 107.207 56.3286 107.56C55.8753 107.913 55.3086 108.09 54.6286 108.09C54.0953 108.09 53.6219 107.973 53.2086 107.74C52.7953 107.5 52.4719 107.167 52.2386 106.74C52.0053 106.307 51.8886 105.803 51.8886 105.23ZM57.9042 105.21C57.9042 104.65 58.0142 104.153 58.2342 103.72C58.4609 103.287 58.7642 102.953 59.1442 102.72C59.5309 102.487 59.9609 102.37 60.4342 102.37C60.8476 102.37 61.2076 102.453 61.5142 102.62C61.8276 102.787 62.0776 102.997 62.2642 103.25V102.46H63.6742V108H62.2642V107.19C62.0842 107.45 61.8342 107.667 61.5142 107.84C61.2009 108.007 60.8376 108.09 60.4242 108.09C59.9576 108.09 59.5309 107.97 59.1442 107.73C58.7642 107.49 58.4609 107.153 58.2342 106.72C58.0142 106.28 57.9042 105.777 57.9042 105.21ZM62.2642 105.23C62.2642 104.89 62.1976 104.6 62.0642 104.36C61.9309 104.113 61.7509 103.927 61.5242 103.8C61.2976 103.667 61.0542 103.6 60.7942 103.6C60.5342 103.6 60.2942 103.663 60.0742 103.79C59.8542 103.917 59.6742 104.103 59.5342 104.35C59.4009 104.59 59.3342 104.877 59.3342 105.21C59.3342 105.543 59.4009 105.837 59.5342 106.09C59.6742 106.337 59.8542 106.527 60.0742 106.66C60.3009 106.793 60.5409 106.86 60.7942 106.86C61.0542 106.86 61.2976 106.797 61.5242 106.67C61.7509 106.537 61.9309 106.35 62.0642 106.11C62.1976 105.863 62.2642 105.57 62.2642 105.23ZM66.6716 103.61V106.29C66.6716 106.477 66.7149 106.613 66.8016 106.7C66.8949 106.78 67.0482 106.82 67.2616 106.82H67.9116V108H67.0316C65.8516 108 65.2616 107.427 65.2616 106.28V103.61H64.6016V102.46H65.2616V101.09H66.6716V102.46H67.9116V103.61H66.6716ZM69.6285 101.8C69.3818 101.8 69.1752 101.723 69.0085 101.57C68.8485 101.41 68.7685 101.213 68.7685 100.98C68.7685 100.747 68.8485 100.553 69.0085 100.4C69.1752 100.24 69.3818 100.16 69.6285 100.16C69.8752 100.16 70.0785 100.24 70.2385 100.4C70.4052 100.553 70.4885 100.747 70.4885 100.98C70.4885 101.213 70.4052 101.41 70.2385 101.57C70.0785 101.723 69.8752 101.8 69.6285 101.8ZM70.3185 102.46V108H68.9185V102.46H70.3185ZM74.1617 108.09C73.6284 108.09 73.1484 107.973 72.7217 107.74C72.2951 107.5 71.9584 107.163 71.7117 106.73C71.4717 106.297 71.3517 105.797 71.3517 105.23C71.3517 104.663 71.4751 104.163 71.7217 103.73C71.9751 103.297 72.3184 102.963 72.7517 102.73C73.1851 102.49 73.6684 102.37 74.2017 102.37C74.7351 102.37 75.2184 102.49 75.6517 102.73C76.0851 102.963 76.4251 103.297 76.6717 103.73C76.9251 104.163 77.0517 104.663 77.0517 105.23C77.0517 105.797 76.9217 106.297 76.6617 106.73C76.4084 107.163 76.0617 107.5 75.6217 107.74C75.1884 107.973 74.7017 108.09 74.1617 108.09ZM74.1617 106.87C74.4151 106.87 74.6517 106.81 74.8717 106.69C75.0984 106.563 75.2784 106.377 75.4117 106.13C75.5451 105.883 75.6117 105.583 75.6117 105.23C75.6117 104.703 75.4717 104.3 75.1917 104.02C74.9184 103.733 74.5817 103.59 74.1817 103.59C73.7817 103.59 73.4451 103.733 73.1717 104.02C72.9051 104.3 72.7717 104.703 72.7717 105.23C72.7717 105.757 72.9017 106.163 73.1617 106.45C73.4284 106.73 73.7617 106.87 74.1617 106.87ZM81.1487 102.38C81.8087 102.38 82.342 102.59 82.7487 103.01C83.1553 103.423 83.3587 104.003 83.3587 104.75V108H81.9587V104.94C81.9587 104.5 81.8487 104.163 81.6287 103.93C81.4087 103.69 81.1087 103.57 80.7287 103.57C80.342 103.57 80.0353 103.69 79.8087 103.93C79.5887 104.163 79.4787 104.5 79.4787 104.94V108H78.0787V102.46H79.4787V103.15C79.6653 102.91 79.902 102.723 80.1887 102.59C80.482 102.45 80.802 102.38 81.1487 102.38Z" fill="white"/>
<path d="M27.0071 136.67H24.2271L23.7671 138H22.2971L24.8071 131.01H26.4371L28.9471 138H27.4671L27.0071 136.67ZM26.6271 135.55L25.6171 132.63L24.6071 135.55H26.6271ZM36.7653 132.38C37.4453 132.38 37.992 132.59 38.4053 133.01C38.8253 133.423 39.0353 134.003 39.0353 134.75V138H37.6353V134.94C37.6353 134.507 37.5253 134.177 37.3053 133.95C37.0853 133.717 36.7853 133.6 36.4053 133.6C36.0253 133.6 35.722 133.717 35.4953 133.95C35.2753 134.177 35.1653 134.507 35.1653 134.94V138H33.7653V134.94C33.7653 134.507 33.6553 134.177 33.4353 133.95C33.2153 133.717 32.9153 133.6 32.5353 133.6C32.1486 133.6 31.842 133.717 31.6153 133.95C31.3953 134.177 31.2853 134.507 31.2853 134.94V138H29.8853V132.46H31.2853V133.13C31.4653 132.897 31.6953 132.713 31.9753 132.58C32.262 132.447 32.5753 132.38 32.9153 132.38C33.3486 132.38 33.7353 132.473 34.0753 132.66C34.4153 132.84 34.6786 133.1 34.8653 133.44C35.0453 133.12 35.3053 132.863 35.6453 132.67C35.992 132.477 36.3653 132.38 36.7653 132.38ZM47.2438 132.38C47.9238 132.38 48.4705 132.59 48.8838 133.01C49.3038 133.423 49.5138 134.003 49.5138 134.75V138H48.1138V134.94C48.1138 134.507 48.0038 134.177 47.7838 133.95C47.5638 133.717 47.2638 133.6 46.8838 133.6C46.5038 133.6 46.2005 133.717 45.9738 133.95C45.7538 134.177 45.6438 134.507 45.6438 134.94V138H44.2438V134.94C44.2438 134.507 44.1338 134.177 43.9138 133.95C43.6938 133.717 43.3938 133.6 43.0138 133.6C42.6272 133.6 42.3205 133.717 42.0938 133.95C41.8738 134.177 41.7638 134.507 41.7638 134.94V138H40.3638V132.46H41.7638V133.13C41.9438 132.897 42.1738 132.713 42.4538 132.58C42.7405 132.447 43.0538 132.38 43.3938 132.38C43.8272 132.38 44.2138 132.473 44.5538 132.66C44.8938 132.84 45.1572 133.1 45.3438 133.44C45.5238 133.12 45.7838 132.863 46.1238 132.67C46.4705 132.477 46.8438 132.38 47.2438 132.38ZM55.9923 135.11C55.9923 135.31 55.979 135.49 55.9523 135.65H51.9023C51.9357 136.05 52.0757 136.363 52.3223 136.59C52.569 136.817 52.8723 136.93 53.2323 136.93C53.7523 136.93 54.1223 136.707 54.3423 136.26H55.8523C55.6923 136.793 55.3857 137.233 54.9323 137.58C54.479 137.92 53.9223 138.09 53.2623 138.09C52.729 138.09 52.249 137.973 51.8223 137.74C51.4023 137.5 51.0723 137.163 50.8323 136.73C50.599 136.297 50.4823 135.797 50.4823 135.23C50.4823 134.657 50.599 134.153 50.8323 133.72C51.0657 133.287 51.3923 132.953 51.8123 132.72C52.2323 132.487 52.7157 132.37 53.2623 132.37C53.789 132.37 54.259 132.483 54.6723 132.71C55.0923 132.937 55.4157 133.26 55.6423 133.68C55.8757 134.093 55.9923 134.57 55.9923 135.11ZM54.5423 134.71C54.5357 134.35 54.4057 134.063 54.1523 133.85C53.899 133.63 53.589 133.52 53.2223 133.52C52.8757 133.52 52.5823 133.627 52.3423 133.84C52.109 134.047 51.9657 134.337 51.9123 134.71H54.5423ZM60.0842 132.38C60.7442 132.38 61.2776 132.59 61.6842 133.01C62.0909 133.423 62.2942 134.003 62.2942 134.75V138H60.8942V134.94C60.8942 134.5 60.7842 134.163 60.5642 133.93C60.3442 133.69 60.0442 133.57 59.6642 133.57C59.2776 133.57 58.9709 133.69 58.7442 133.93C58.5242 134.163 58.4142 134.5 58.4142 134.94V138H57.0142V132.46H58.4142V133.15C58.6009 132.91 58.8376 132.723 59.1242 132.59C59.4176 132.45 59.7376 132.38 60.0842 132.38ZM64.3355 131.8C64.0889 131.8 63.8822 131.723 63.7155 131.57C63.5555 131.41 63.4755 131.213 63.4755 130.98C63.4755 130.747 63.5555 130.553 63.7155 130.4C63.8822 130.24 64.0889 130.16 64.3355 130.16C64.5822 130.16 64.7855 130.24 64.9455 130.4C65.1122 130.553 65.1955 130.747 65.1955 130.98C65.1955 131.213 65.1122 131.41 64.9455 131.57C64.7855 131.723 64.5822 131.8 64.3355 131.8ZM65.0255 132.46V138H63.6255V132.46H65.0255ZM68.0388 133.61V136.29C68.0388 136.477 68.0821 136.613 68.1688 136.7C68.2621 136.78 68.4154 136.82 68.6288 136.82H69.2788V138H68.3988C67.2188 138 66.6288 137.427 66.6288 136.28V133.61H65.9688V132.46H66.6288V131.09H68.0388V132.46H69.2788V133.61H68.0388ZM70.9957 131.8C70.749 131.8 70.5424 131.723 70.3757 131.57C70.2157 131.41 70.1357 131.213 70.1357 130.98C70.1357 130.747 70.2157 130.553 70.3757 130.4C70.5424 130.24 70.749 130.16 70.9957 130.16C71.2424 130.16 71.4457 130.24 71.6057 130.4C71.7724 130.553 71.8557 130.747 71.8557 130.98C71.8557 131.213 71.7724 131.41 71.6057 131.57C71.4457 131.723 71.2424 131.8 70.9957 131.8ZM71.6857 132.46V138H70.2857V132.46H71.6857ZM78.2189 135.11C78.2189 135.31 78.2056 135.49 78.1789 135.65H74.1289C74.1622 136.05 74.3022 136.363 74.5489 136.59C74.7956 136.817 75.0989 136.93 75.4589 136.93C75.9789 136.93 76.3489 136.707 76.5689 136.26H78.0789C77.9189 136.793 77.6122 137.233 77.1589 137.58C76.7056 137.92 76.1489 138.09 75.4889 138.09C74.9556 138.09 74.4756 137.973 74.0489 137.74C73.6289 137.5 73.2989 137.163 73.0589 136.73C72.8256 136.297 72.7089 135.797 72.7089 135.23C72.7089 134.657 72.8256 134.153 73.0589 133.72C73.2922 133.287 73.6189 132.953 74.0389 132.72C74.4589 132.487 74.9422 132.37 75.4889 132.37C76.0156 132.37 76.4856 132.483 76.8989 132.71C77.3189 132.937 77.6422 133.26 77.8689 133.68C78.1022 134.093 78.2189 134.57 78.2189 135.11ZM76.7689 134.71C76.7622 134.35 76.6322 134.063 76.3789 133.85C76.1256 133.63 75.8156 133.52 75.4489 133.52C75.1022 133.52 74.8089 133.627 74.5689 133.84C74.3356 134.047 74.1922 134.337 74.1389 134.71H76.7689ZM81.3608 138.09C80.9074 138.09 80.5008 138.01 80.1408 137.85C79.7808 137.683 79.4941 137.46 79.2808 137.18C79.0741 136.9 78.9608 136.59 78.9408 136.25H80.3508C80.3774 136.463 80.4808 136.64 80.6608 136.78C80.8474 136.92 81.0774 136.99 81.3508 136.99C81.6174 136.99 81.8241 136.937 81.9708 136.83C82.1241 136.723 82.2008 136.587 82.2008 136.42C82.2008 136.24 82.1074 136.107 81.9208 136.02C81.7408 135.927 81.4508 135.827 81.0508 135.72C80.6374 135.62 80.2974 135.517 80.0308 135.41C79.7708 135.303 79.5441 135.14 79.3508 134.92C79.1641 134.7 79.0708 134.403 79.0708 134.03C79.0708 133.723 79.1574 133.443 79.3308 133.19C79.5108 132.937 79.7641 132.737 80.0908 132.59C80.4241 132.443 80.8141 132.37 81.2608 132.37C81.9208 132.37 82.4474 132.537 82.8408 132.87C83.2341 133.197 83.4508 133.64 83.4908 134.2H82.1508C82.1308 133.98 82.0374 133.807 81.8708 133.68C81.7108 133.547 81.4941 133.48 81.2208 133.48C80.9674 133.48 80.7708 133.527 80.6308 133.62C80.4974 133.713 80.4308 133.843 80.4308 134.01C80.4308 134.197 80.5241 134.34 80.7108 134.44C80.8974 134.533 81.1874 134.63 81.5808 134.73C81.9808 134.83 82.3108 134.933 82.5708 135.04C82.8308 135.147 83.0541 135.313 83.2408 135.54C83.4341 135.76 83.5341 136.053 83.5408 136.42C83.5408 136.74 83.4508 137.027 83.2708 137.28C83.0974 137.533 82.8441 137.733 82.5108 137.88C82.1841 138.02 81.8008 138.09 81.3608 138.09Z" fill="white"/>
<path d="M80.162 164.401C80.162 163.247 80.3686 162.344 80.782 161.691C81.202 161.037 81.8953 160.711 82.862 160.711C83.8286 160.711 84.5186 161.037 84.932 161.691C85.352 162.344 85.562 163.247 85.562 164.401C85.562 165.561 85.352 166.471 84.932 167.131C84.5186 167.791 83.8286 168.121 82.862 168.121C81.8953 168.121 81.202 167.791 80.782 167.131C80.3686 166.471 80.162 165.561 80.162 164.401ZM84.182 164.401C84.182 163.907 84.1486 163.494 84.082 163.161C84.022 162.821 83.8953 162.544 83.702 162.331C83.5153 162.117 83.2353 162.011 82.862 162.011C82.4886 162.011 82.2053 162.117 82.012 162.331C81.8253 162.544 81.6986 162.821 81.632 163.161C81.572 163.494 81.542 163.907 81.542 164.401C81.542 164.907 81.572 165.334 81.632 165.681C81.692 166.021 81.8186 166.297 82.012 166.511C82.2053 166.717 82.4886 166.821 82.862 166.821C83.2353 166.821 83.5186 166.717 83.712 166.511C83.9053 166.297 84.032 166.021 84.092 165.681C84.152 165.334 84.182 164.907 84.182 164.401Z" fill="white"/>
<path d="M194.221 166.42C194.861 165.887 195.371 165.443 195.751 165.09C196.131 164.73 196.448 164.357 196.701 163.97C196.954 163.583 197.081 163.203 197.081 162.83C197.081 162.49 197.001 162.223 196.841 162.03C196.681 161.837 196.434 161.74 196.101 161.74C195.768 161.74 195.511 161.853 195.331 162.08C195.151 162.3 195.058 162.603 195.051 162.99H193.691C193.718 162.19 193.954 161.583 194.401 161.17C194.854 160.757 195.428 160.55 196.121 160.55C196.881 160.55 197.464 160.753 197.871 161.16C198.278 161.56 198.481 162.09 198.481 162.75C198.481 163.27 198.341 163.767 198.061 164.24C197.781 164.713 197.461 165.127 197.101 165.48C196.741 165.827 196.271 166.247 195.691 166.74H198.641V167.9H193.701V166.86L194.221 166.42ZM199.523 164.26C199.523 163.107 199.73 162.203 200.143 161.55C200.563 160.897 201.256 160.57 202.223 160.57C203.19 160.57 203.88 160.897 204.293 161.55C204.713 162.203 204.923 163.107 204.923 164.26C204.923 165.42 204.713 166.33 204.293 166.99C203.88 167.65 203.19 167.98 202.223 167.98C201.256 167.98 200.563 167.65 200.143 166.99C199.73 166.33 199.523 165.42 199.523 164.26ZM203.543 164.26C203.543 163.767 203.51 163.353 203.443 163.02C203.383 162.68 203.256 162.403 203.063 162.19C202.876 161.977 202.596 161.87 202.223 161.87C201.85 161.87 201.566 161.977 201.373 162.19C201.186 162.403 201.06 162.68 200.993 163.02C200.933 163.353 200.903 163.767 200.903 164.26C200.903 164.767 200.933 165.193 200.993 165.54C201.053 165.88 201.18 166.157 201.373 166.37C201.566 166.577 201.85 166.68 202.223 166.68C202.596 166.68 202.88 166.577 203.073 166.37C203.266 166.157 203.393 165.88 203.453 165.54C203.513 165.193 203.543 164.767 203.543 164.26ZM205.828 162.5C205.828 161.993 205.975 161.597 206.268 161.31C206.568 161.023 206.951 160.88 207.418 160.88C207.885 160.88 208.265 161.023 208.558 161.31C208.858 161.597 209.008 161.993 209.008 162.5C209.008 163.013 208.858 163.413 208.558 163.7C208.265 163.987 207.885 164.13 207.418 164.13C206.951 164.13 206.568 163.987 206.268 163.7C205.975 163.413 205.828 163.013 205.828 162.5ZM212.248 161L208.318 168H206.958L210.878 161H212.248ZM207.408 161.72C207.041 161.72 206.858 161.98 206.858 162.5C206.858 163.027 207.041 163.29 207.408 163.29C207.588 163.29 207.728 163.227 207.828 163.1C207.928 162.967 207.978 162.767 207.978 162.5C207.978 161.98 207.788 161.72 207.408 161.72ZM210.218 166.49C210.218 165.977 210.365 165.58 210.658 165.3C210.958 165.013 211.341 164.87 211.808 164.87C212.275 164.87 212.651 165.013 212.938 165.3C213.231 165.58 213.378 165.977 213.378 166.49C213.378 167.003 213.231 167.403 212.938 167.69C212.651 167.977 212.275 168.12 211.808 168.12C211.335 168.12 210.951 167.977 210.658 167.69C210.365 167.403 210.218 167.003 210.218 166.49ZM211.798 165.71C211.418 165.71 211.228 165.97 211.228 166.49C211.228 167.017 211.418 167.28 211.798 167.28C212.171 167.28 212.358 167.017 212.358 166.49C212.358 165.97 212.171 165.71 211.798 165.71Z" fill="white"/>
<path d="M279.179 41.63C279.212 40.9633 279.446 40.45 279.879 40.09C280.319 39.7233 280.896 39.54 281.609 39.54C282.096 39.54 282.512 39.6267 282.859 39.8C283.206 39.9667 283.466 40.1967 283.639 40.49C283.819 40.7767 283.909 41.1033 283.909 41.47C283.909 41.89 283.799 42.2467 283.579 42.54C283.366 42.8267 283.109 43.02 282.809 43.12V43.16C283.196 43.28 283.496 43.4933 283.709 43.8C283.929 44.1067 284.039 44.5 284.039 44.98C284.039 45.38 283.946 45.7367 283.759 46.05C283.579 46.3633 283.309 46.61 282.949 46.79C282.596 46.9633 282.169 47.05 281.669 47.05C280.916 47.05 280.302 46.86 279.829 46.48C279.356 46.1 279.106 45.54 279.079 44.8H280.439C280.452 45.1267 280.562 45.39 280.769 45.59C280.982 45.7833 281.272 45.88 281.639 45.88C281.979 45.88 282.239 45.7867 282.419 45.6C282.606 45.4067 282.699 45.16 282.699 44.86C282.699 44.46 282.572 44.1733 282.319 44C282.066 43.8267 281.672 43.74 281.139 43.74H280.849V42.59H281.139C282.086 42.59 282.559 42.2733 282.559 41.64C282.559 41.3533 282.472 41.13 282.299 40.97C282.132 40.81 281.889 40.73 281.569 40.73C281.256 40.73 281.012 40.8167 280.839 40.99C280.672 41.1567 280.576 41.37 280.549 41.63H279.179ZM285.145 43.26C285.145 42.1067 285.352 41.2033 285.765 40.55C286.185 39.8967 286.879 39.57 287.845 39.57C288.812 39.57 289.502 39.8967 289.915 40.55C290.335 41.2033 290.545 42.1067 290.545 43.26C290.545 44.42 290.335 45.33 289.915 45.99C289.502 46.65 288.812 46.98 287.845 46.98C286.879 46.98 286.185 46.65 285.765 45.99C285.352 45.33 285.145 44.42 285.145 43.26ZM289.165 43.26C289.165 42.7667 289.132 42.3533 289.065 42.02C289.005 41.68 288.879 41.4033 288.685 41.19C288.499 40.9767 288.219 40.87 287.845 40.87C287.472 40.87 287.189 40.9767 286.995 41.19C286.809 41.4033 286.682 41.68 286.615 42.02C286.555 42.3533 286.525 42.7667 286.525 43.26C286.525 43.7667 286.555 44.1933 286.615 44.54C286.675 44.88 286.802 45.1567 286.995 45.37C287.189 45.5767 287.472 45.68 287.845 45.68C288.219 45.68 288.502 45.5767 288.695 45.37C288.889 45.1567 289.015 44.88 289.075 44.54C289.135 44.1933 289.165 43.7667 289.165 43.26ZM291.45 41.5C291.45 40.9933 291.597 40.5967 291.89 40.31C292.19 40.0233 292.573 39.88 293.04 39.88C293.507 39.88 293.887 40.0233 294.18 40.31C294.48 40.5967 294.63 40.9933 294.63 41.5C294.63 42.0133 294.48 42.4133 294.18 42.7C293.887 42.9867 293.507 43.13 293.04 43.13C292.573 43.13 292.19 42.9867 291.89 42.7C291.597 42.4133 291.45 42.0133 291.45 41.5ZM297.87 40L293.94 47H292.58L296.5 40H297.87ZM293.03 40.72C292.663 40.72 292.48 40.98 292.48 41.5C292.48 42.0267 292.663 42.29 293.03 42.29C293.21 42.29 293.35 42.2267 293.45 42.1C293.55 41.9667 293.6 41.7667 293.6 41.5C293.6 40.98 293.41 40.72 293.03 40.72ZM295.84 45.49C295.84 44.9767 295.987 44.58 296.28 44.3C296.58 44.0133 296.963 43.87 297.43 43.87C297.897 43.87 298.273 44.0133 298.56 44.3C298.853 44.58 299 44.9767 299 45.49C299 46.0033 298.853 46.4033 298.56 46.69C298.273 46.9767 297.897 47.12 297.43 47.12C296.957 47.12 296.573 46.9767 296.28 46.69C295.987 46.4033 295.84 46.0033 295.84 45.49ZM297.42 44.71C297.04 44.71 296.85 44.97 296.85 45.49C296.85 46.0167 297.04 46.28 297.42 46.28C297.793 46.28 297.98 46.0167 297.98 45.49C297.98 44.97 297.793 44.71 297.42 44.71Z" fill="white"/>
<path d="M231.46 75.42C232.1 74.8867 232.61 74.4433 232.99 74.09C233.37 73.73 233.687 73.3567 233.94 72.97C234.194 72.5833 234.32 72.2033 234.32 71.83C234.32 71.49 234.24 71.2233 234.08 71.03C233.92 70.8367 233.674 70.74 233.34 70.74C233.007 70.74 232.75 70.8533 232.57 71.08C232.39 71.3 232.297 71.6033 232.29 71.99H230.93C230.957 71.19 231.194 70.5833 231.64 70.17C232.094 69.7567 232.667 69.55 233.36 69.55C234.12 69.55 234.704 69.7533 235.11 70.16C235.517 70.56 235.72 71.09 235.72 71.75C235.72 72.27 235.58 72.7667 235.3 73.24C235.02 73.7133 234.7 74.1267 234.34 74.48C233.98 74.8267 233.51 75.2467 232.93 75.74H235.88V76.9H230.94V75.86L231.46 75.42ZM236.782 71.63C236.816 70.9633 237.049 70.45 237.482 70.09C237.922 69.7233 238.499 69.54 239.212 69.54C239.699 69.54 240.116 69.6267 240.462 69.8C240.809 69.9667 241.069 70.1967 241.242 70.49C241.422 70.7767 241.512 71.1033 241.512 71.47C241.512 71.89 241.402 72.2467 241.182 72.54C240.969 72.8267 240.712 73.02 240.412 73.12V73.16C240.799 73.28 241.099 73.4933 241.312 73.8C241.532 74.1067 241.642 74.5 241.642 74.98C241.642 75.38 241.549 75.7367 241.362 76.05C241.182 76.3633 240.912 76.61 240.552 76.79C240.199 76.9633 239.772 77.05 239.272 77.05C238.519 77.05 237.906 76.86 237.432 76.48C236.959 76.1 236.709 75.54 236.682 74.8H238.042C238.056 75.1267 238.166 75.39 238.372 75.59C238.586 75.7833 238.876 75.88 239.242 75.88C239.582 75.88 239.842 75.7867 240.022 75.6C240.209 75.4067 240.302 75.16 240.302 74.86C240.302 74.46 240.176 74.1733 239.922 74C239.669 73.8267 239.276 73.74 238.742 73.74H238.452V72.59H238.742C239.689 72.59 240.162 72.2733 240.162 71.64C240.162 71.3533 240.076 71.13 239.902 70.97C239.736 70.81 239.492 70.73 239.172 70.73C238.859 70.73 238.616 70.8167 238.442 70.99C238.276 71.1567 238.179 71.37 238.152 71.63H236.782ZM242.589 71.5C242.589 70.9933 242.735 70.5967 243.029 70.31C243.329 70.0233 243.712 69.88 244.179 69.88C244.645 69.88 245.025 70.0233 245.319 70.31C245.619 70.5967 245.769 70.9933 245.769 71.5C245.769 72.0133 245.619 72.4133 245.319 72.7C245.025 72.9867 244.645 73.13 244.179 73.13C243.712 73.13 243.329 72.9867 243.029 72.7C242.735 72.4133 242.589 72.0133 242.589 71.5ZM249.009 70L245.079 77H243.719L247.639 70H249.009ZM244.169 70.72C243.802 70.72 243.619 70.98 243.619 71.5C243.619 72.0267 243.802 72.29 244.169 72.29C244.349 72.29 244.489 72.2267 244.589 72.1C244.689 71.9667 244.739 71.7667 244.739 71.5C244.739 70.98 244.549 70.72 244.169 70.72ZM246.979 75.49C246.979 74.9767 247.125 74.58 247.419 74.3C247.719 74.0133 248.102 73.87 248.569 73.87C249.035 73.87 249.412 74.0133 249.699 74.3C249.992 74.58 250.139 74.9767 250.139 75.49C250.139 76.0033 249.992 76.4033 249.699 76.69C249.412 76.9767 249.035 77.12 248.569 77.12C248.095 77.12 247.712 76.9767 247.419 76.69C247.125 76.4033 246.979 76.0033 246.979 75.49ZM248.559 74.71C248.179 74.71 247.989 74.97 247.989 75.49C247.989 76.0167 248.179 76.28 248.559 76.28C248.932 76.28 249.119 76.0167 249.119 75.49C249.119 74.97 248.932 74.71 248.559 74.71Z" fill="white"/>
<path d="M201.273 102V100.71H203.683V108H202.243V102H201.273ZM206.686 105.95C206.739 106.243 206.859 106.47 207.046 106.63C207.239 106.783 207.496 106.86 207.816 106.86C208.229 106.86 208.529 106.69 208.716 106.35C208.903 106.003 208.996 105.423 208.996 104.61C208.843 104.823 208.626 104.99 208.346 105.11C208.073 105.23 207.776 105.29 207.456 105.29C207.029 105.29 206.643 105.203 206.296 105.03C205.956 104.85 205.686 104.587 205.486 104.24C205.286 103.887 205.186 103.46 205.186 102.96C205.186 102.22 205.406 101.633 205.846 101.2C206.286 100.76 206.886 100.54 207.646 100.54C208.593 100.54 209.259 100.843 209.646 101.45C210.039 102.057 210.236 102.97 210.236 104.19C210.236 105.057 210.159 105.767 210.006 106.32C209.859 106.873 209.603 107.293 209.236 107.58C208.876 107.867 208.383 108.01 207.756 108.01C207.263 108.01 206.843 107.917 206.496 107.73C206.149 107.537 205.883 107.287 205.696 106.98C205.516 106.667 205.413 106.323 205.386 105.95H206.686ZM207.746 104.15C208.093 104.15 208.366 104.043 208.566 103.83C208.766 103.617 208.866 103.33 208.866 102.97C208.866 102.577 208.759 102.273 208.546 102.06C208.339 101.84 208.056 101.73 207.696 101.73C207.336 101.73 207.049 101.843 206.836 102.07C206.629 102.29 206.526 102.583 206.526 102.95C206.526 103.303 206.626 103.593 206.826 103.82C207.033 104.04 207.339 104.15 207.746 104.15ZM211.166 102.5C211.166 101.993 211.313 101.597 211.606 101.31C211.906 101.023 212.289 100.88 212.756 100.88C213.223 100.88 213.603 101.023 213.896 101.31C214.196 101.597 214.346 101.993 214.346 102.5C214.346 103.013 214.196 103.413 213.896 103.7C213.603 103.987 213.223 104.13 212.756 104.13C212.289 104.13 211.906 103.987 211.606 103.7C211.313 103.413 211.166 103.013 211.166 102.5ZM217.586 101L213.656 108H212.296L216.216 101H217.586ZM212.746 101.72C212.379 101.72 212.196 101.98 212.196 102.5C212.196 103.027 212.379 103.29 212.746 103.29C212.926 103.29 213.066 103.227 213.166 103.1C213.266 102.967 213.316 102.767 213.316 102.5C213.316 101.98 213.126 101.72 212.746 101.72ZM215.556 106.49C215.556 105.977 215.703 105.58 215.996 105.3C216.296 105.013 216.679 104.87 217.146 104.87C217.613 104.87 217.989 105.013 218.276 105.3C218.569 105.58 218.716 105.977 218.716 106.49C218.716 107.003 218.569 107.403 218.276 107.69C217.989 107.977 217.613 108.12 217.146 108.12C216.673 108.12 216.289 107.977 215.996 107.69C215.703 107.403 215.556 107.003 215.556 106.49ZM217.136 105.71C216.756 105.71 216.566 105.97 216.566 106.49C216.566 107.017 216.756 107.28 217.136 107.28C217.509 107.28 217.696 107.017 217.696 106.49C217.696 105.97 217.509 105.71 217.136 105.71Z" fill="white"/>
<path d="M267.741 136.42C268.381 135.887 268.891 135.443 269.271 135.09C269.651 134.73 269.967 134.357 270.221 133.97C270.474 133.583 270.601 133.203 270.601 132.83C270.601 132.49 270.521 132.223 270.361 132.03C270.201 131.837 269.954 131.74 269.621 131.74C269.287 131.74 269.031 131.853 268.851 132.08C268.671 132.3 268.577 132.603 268.571 132.99H267.211C267.237 132.19 267.474 131.583 267.921 131.17C268.374 130.757 268.947 130.55 269.641 130.55C270.401 130.55 270.984 130.753 271.391 131.16C271.797 131.56 272.001 132.09 272.001 132.75C272.001 133.27 271.861 133.767 271.581 134.24C271.301 134.713 270.981 135.127 270.621 135.48C270.261 135.827 269.791 136.247 269.211 136.74H272.161V137.9H267.221V136.86L267.741 136.42ZM274.263 134.14C273.596 133.793 273.263 133.257 273.263 132.53C273.263 132.17 273.353 131.843 273.533 131.55C273.719 131.25 273.996 131.013 274.363 130.84C274.736 130.66 275.189 130.57 275.723 130.57C276.256 130.57 276.706 130.66 277.073 130.84C277.446 131.013 277.723 131.25 277.903 131.55C278.089 131.843 278.183 132.17 278.183 132.53C278.183 132.897 278.093 133.22 277.913 133.5C277.733 133.773 277.493 133.987 277.193 134.14C277.559 134.3 277.846 134.533 278.053 134.84C278.259 135.147 278.363 135.51 278.363 135.93C278.363 136.383 278.246 136.78 278.013 137.12C277.786 137.453 277.473 137.71 277.073 137.89C276.673 138.07 276.223 138.16 275.723 138.16C275.223 138.16 274.773 138.07 274.373 137.89C273.979 137.71 273.666 137.453 273.433 137.12C273.206 136.78 273.093 136.383 273.093 135.93C273.093 135.51 273.196 135.147 273.403 134.84C273.609 134.527 273.896 134.293 274.263 134.14ZM276.823 132.73C276.823 132.403 276.723 132.15 276.523 131.97C276.329 131.79 276.063 131.7 275.723 131.7C275.389 131.7 275.123 131.79 274.923 131.97C274.729 132.15 274.633 132.407 274.633 132.74C274.633 133.04 274.733 133.28 274.933 133.46C275.139 133.64 275.403 133.73 275.723 133.73C276.043 133.73 276.306 133.64 276.513 133.46C276.719 133.273 276.823 133.03 276.823 132.73ZM275.723 134.75C275.343 134.75 275.033 134.847 274.793 135.04C274.559 135.233 274.443 135.51 274.443 135.87C274.443 136.203 274.556 136.477 274.783 136.69C275.016 136.897 275.329 137 275.723 137C276.116 137 276.426 136.893 276.653 136.68C276.879 136.467 276.993 136.197 276.993 135.87C276.993 135.517 276.876 135.243 276.643 135.05C276.409 134.85 276.103 134.75 275.723 134.75ZM279.308 132.5C279.308 131.993 279.455 131.597 279.748 131.31C280.048 131.023 280.432 130.88 280.898 130.88C281.365 130.88 281.745 131.023 282.038 131.31C282.338 131.597 282.488 131.993 282.488 132.5C282.488 133.013 282.338 133.413 282.038 133.7C281.745 133.987 281.365 134.13 280.898 134.13C280.432 134.13 280.048 133.987 279.748 133.7C279.455 133.413 279.308 133.013 279.308 132.5ZM285.728 131L281.798 138H280.438L284.358 131H285.728ZM280.888 131.72C280.522 131.72 280.338 131.98 280.338 132.5C280.338 133.027 280.522 133.29 280.888 133.29C281.068 133.29 281.208 133.227 281.308 133.1C281.408 132.967 281.458 132.767 281.458 132.5C281.458 131.98 281.268 131.72 280.888 131.72ZM283.698 136.49C283.698 135.977 283.845 135.58 284.138 135.3C284.438 135.013 284.822 134.87 285.288 134.87C285.755 134.87 286.132 135.013 286.418 135.3C286.712 135.58 286.858 135.977 286.858 136.49C286.858 137.003 286.712 137.403 286.418 137.69C286.132 137.977 285.755 138.12 285.288 138.12C284.815 138.12 284.432 137.977 284.138 137.69C283.845 137.403 283.698 137.003 283.698 136.49ZM285.278 135.71C284.898 135.71 284.708 135.97 284.708 136.49C284.708 137.017 284.898 137.28 285.278 137.28C285.652 137.28 285.838 137.017 285.838 136.49C285.838 135.97 285.652 135.71 285.278 135.71Z" fill="white"/>
<path d="M312.286 166.58V165.48L315.556 160.8H317.186V165.36H318.066V166.58H317.186V168H315.786V166.58H312.286ZM315.876 162.3L313.826 165.36H315.876V162.3ZM318.958 164.26C318.958 163.107 319.164 162.203 319.578 161.55C319.998 160.897 320.691 160.57 321.658 160.57C322.624 160.57 323.314 160.897 323.728 161.55C324.148 162.203 324.358 163.107 324.358 164.26C324.358 165.42 324.148 166.33 323.728 166.99C323.314 167.65 322.624 167.98 321.658 167.98C320.691 167.98 319.998 167.65 319.578 166.99C319.164 166.33 318.958 165.42 318.958 164.26ZM322.978 164.26C322.978 163.767 322.944 163.353 322.878 163.02C322.818 162.68 322.691 162.403 322.498 162.19C322.311 161.977 322.031 161.87 321.658 161.87C321.284 161.87 321.001 161.977 320.808 162.19C320.621 162.403 320.494 162.68 320.428 163.02C320.368 163.353 320.338 163.767 320.338 164.26C320.338 164.767 320.368 165.193 320.428 165.54C320.488 165.88 320.614 166.157 320.808 166.37C321.001 166.577 321.284 166.68 321.658 166.68C322.031 166.68 322.314 166.577 322.508 166.37C322.701 166.157 322.828 165.88 322.888 165.54C322.948 165.193 322.978 164.767 322.978 164.26ZM325.263 162.5C325.263 161.993 325.409 161.597 325.703 161.31C326.003 161.023 326.386 160.88 326.853 160.88C327.319 160.88 327.699 161.023 327.993 161.31C328.293 161.597 328.443 161.993 328.443 162.5C328.443 163.013 328.293 163.413 327.993 163.7C327.699 163.987 327.319 164.13 326.853 164.13C326.386 164.13 326.003 163.987 325.703 163.7C325.409 163.413 325.263 163.013 325.263 162.5ZM331.683 161L327.753 168H326.393L330.313 161H331.683ZM326.843 161.72C326.476 161.72 326.293 161.98 326.293 162.5C326.293 163.027 326.476 163.29 326.843 163.29C327.023 163.29 327.163 163.227 327.263 163.1C327.363 162.967 327.413 162.767 327.413 162.5C327.413 161.98 327.223 161.72 326.843 161.72ZM329.653 166.49C329.653 165.977 329.799 165.58 330.093 165.3C330.393 165.013 330.776 164.87 331.243 164.87C331.709 164.87 332.086 165.013 332.373 165.3C332.666 165.58 332.813 165.977 332.813 166.49C332.813 167.003 332.666 167.403 332.373 167.69C332.086 167.977 331.709 168.12 331.243 168.12C330.769 168.12 330.386 167.977 330.093 167.69C329.799 167.403 329.653 167.003 329.653 166.49ZM331.233 165.71C330.853 165.71 330.663 165.97 330.663 166.49C330.663 167.017 330.853 167.28 331.233 167.28C331.606 167.28 331.793 167.017 331.793 166.49C331.793 165.97 331.606 165.71 331.233 165.71Z" fill="white"/>
<path d="M91 29H272C273.105 29 274 29.8954 274 31V53C274 54.1046 273.105 55 272 55H91V29Z" fill="#7589E2"/>
<path d="M91 60H224C225.105 60 226 60.8954 226 62V84C226 85.1046 225.105 86 224 86H91V60Z" fill="#7589E2"/>
<path d="M91 90H194C195.105 90 196 90.8954 196 92V114C196 115.105 195.105 116 194 116H91V90Z" fill="#7589E2"/>
<path d="M91 121H260C261.105 121 262 121.895 262 123V145C262 146.105 261.105 147 260 147H91V121Z" fill="#7589E2"/>
<defs>
<filter id="filter0_dd_726_44" x="0" y="0" width="356" height="197" filterUnits="userSpaceOnUse" color-interpolation-filters="sRGB">
<feFlood flood-opacity="0" result="BackgroundImageFix"/>
<feColorMatrix in="SourceAlpha" type="matrix" values="0 0 0 0 0 0 0 0 0 0 0 0 0 0 0 0 0 0 127 0" result="hardAlpha"/>
<feOffset dx="-2" dy="-2"/>
<feGaussianBlur stdDeviation="2"/>
<feComposite in2="hardAlpha" operator="out"/>
<feColorMatrix type="matrix" values="0 0 0 0 0.317647 0 0 0 0 0.321569 0 0 0 0 0.368627 0 0 0 1 0"/>
<feBlend mode="normal" in2="BackgroundImageFix" result="effect1_dropShadow_726_44"/>
<feColorMatrix in="SourceAlpha" type="matrix" values="0 0 0 0 0 0 0 0 0 0 0 0 0 0 0 0 0 0 127 0" result="hardAlpha"/>
<feOffset dx="2" dy="2"/>
<feGaussianBlur stdDeviation="2"/>
<feComposite in2="hardAlpha" operator="out"/>
<feColorMatrix type="matrix" values="0 0 0 0 0.0980392 0 0 0 0 0.101961 0 0 0 0 0.117647 0 0 0 1 0"/>
<feBlend mode="normal" in2="effect1_dropShadow_726_44" result="effect2_dropShadow_726_44"/>
<feBlend mode="normal" in="SourceGraphic" in2="effect2_dropShadow_726_44" result="shape"/>
</filter>
</defs>
</svg>
