<svg width="664" height="353" viewBox="0 0 664 353" fill="none" xmlns="http://www.w3.org/2000/svg">
<g filter="url(#filter0_dd_726_44)">
<rect x="24" y="24" width="616" height="305" rx="16" fill="#35363E"/>
</g>
<path d="M164.061 77.5C164.061 78.8637 164.061 133 164.061 133M164.061 77.5H160.687M164.061 77.5V49M164.061 274.51V245.5M164.061 274.51V279M164.061 274.51H382.5M600.94 274.51H382.5M600.94 274.51V278.501M600.94 274.51H606M164.061 133H160.687M164.061 133L164.06 189M164.06 189H159M164.06 189L164.061 245.5M164.061 245.5H159M382.5 274.51V278.501" stroke="#F5F5F5" stroke-width="4" stroke-linecap="round" stroke-linejoin="round"/>
<path d="M55.952 79.872H51.504L50.768 82H48.416L52.432 70.816H55.04L59.056 82H56.688L55.952 79.872ZM55.344 78.08L53.728 73.408L52.112 78.08H55.344ZM64.6211 74.976H63.0691V82H60.7971V74.976H59.7891V73.136H60.7971V72.688C60.7971 71.6 61.1065 70.8 61.7251 70.288C62.3438 69.776 63.2771 69.536 64.5251 69.568V71.456C63.9811 71.4453 63.6025 71.536 63.3891 71.728C63.1758 71.92 63.0691 72.2667 63.0691 72.768V73.136H64.6211V74.976ZM70.1368 74.976H68.5848V82H66.3128V74.976H65.3048V73.136H66.3128V72.688C66.3128 71.6 66.6221 70.8 67.2408 70.288C67.8594 69.776 68.7928 69.536 70.0408 69.568V71.456C69.4968 71.4453 69.1181 71.536 68.9048 71.728C68.6914 71.92 68.5848 72.2667 68.5848 72.768V73.136H70.1368V74.976ZM75.5244 82.144C74.671 82.144 73.903 81.9573 73.2204 81.584C72.5377 81.2 71.999 80.6613 71.6044 79.968C71.2204 79.2747 71.0284 78.4747 71.0284 77.568C71.0284 76.6613 71.2257 75.8613 71.6204 75.168C72.0257 74.4747 72.575 73.9413 73.2684 73.568C73.9617 73.184 74.735 72.992 75.5884 72.992C76.4417 72.992 77.215 73.184 77.9084 73.568C78.6017 73.9413 79.1457 74.4747 79.5404 75.168C79.9457 75.8613 80.1484 76.6613 80.1484 77.568C80.1484 78.4747 79.9404 79.2747 79.5244 79.968C79.119 80.6613 78.5644 81.2 77.8604 81.584C77.167 81.9573 76.3884 82.144 75.5244 82.144ZM75.5244 80.192C75.9297 80.192 76.3084 80.096 76.6604 79.904C77.023 79.7013 77.311 79.4027 77.5244 79.008C77.7377 78.6133 77.8444 78.1333 77.8444 77.568C77.8444 76.7253 77.6204 76.08 77.1724 75.632C76.735 75.1733 76.1964 74.944 75.5564 74.944C74.9164 74.944 74.3777 75.1733 73.9404 75.632C73.5137 76.08 73.3004 76.7253 73.3004 77.568C73.3004 78.4107 73.5084 79.0613 73.9244 79.52C74.351 79.968 74.8844 80.192 75.5244 80.192ZM84.0315 74.512C84.3195 74.0427 84.6928 73.6747 85.1515 73.408C85.6208 73.1413 86.1542 73.008 86.7515 73.008V75.36H86.1595C85.4555 75.36 84.9222 75.5253 84.5595 75.856C84.2075 76.1867 84.0315 76.7627 84.0315 77.584V82H81.7915V73.136H84.0315V74.512ZM87.6842 77.536C87.6842 76.64 87.8602 75.8453 88.2122 75.152C88.5749 74.4587 89.0656 73.9253 89.6843 73.552C90.3029 73.1787 90.9909 72.992 91.7483 72.992C92.3243 72.992 92.8736 73.12 93.3963 73.376C93.9189 73.6213 94.3349 73.952 94.6443 74.368V70.16H96.9163V82H94.6443V80.688C94.3669 81.1253 93.9776 81.4773 93.4763 81.744C92.9749 82.0107 92.3936 82.144 91.7323 82.144C90.9856 82.144 90.3029 81.952 89.6843 81.568C89.0656 81.184 88.5749 80.6453 88.2122 79.952C87.8602 79.248 87.6842 78.4427 87.6842 77.536ZM94.6603 77.568C94.6603 77.024 94.5536 76.56 94.3403 76.176C94.1269 75.7813 93.8389 75.4827 93.4763 75.28C93.1136 75.0667 92.7243 74.96 92.3083 74.96C91.8923 74.96 91.5083 75.0613 91.1562 75.264C90.8043 75.4667 90.5163 75.7653 90.2923 76.16C90.0789 76.544 89.9723 77.0027 89.9723 77.536C89.9723 78.0693 90.0789 78.5387 90.2923 78.944C90.5163 79.3387 90.8043 79.6427 91.1562 79.856C91.5189 80.0693 91.9029 80.176 92.3083 80.176C92.7243 80.176 93.1136 80.0747 93.4763 79.872C93.8389 79.6587 94.1269 79.36 94.3403 78.976C94.5536 78.5813 94.6603 78.112 94.6603 77.568ZM98.528 77.536C98.528 76.64 98.704 75.8453 99.056 75.152C99.4187 74.4587 99.904 73.9253 100.512 73.552C101.131 73.1787 101.819 72.992 102.576 72.992C103.237 72.992 103.813 73.1253 104.304 73.392C104.805 73.6587 105.205 73.9947 105.504 74.4V73.136H107.76V82H105.504V80.704C105.216 81.12 104.816 81.4667 104.304 81.744C103.803 82.0107 103.221 82.144 102.56 82.144C101.813 82.144 101.131 81.952 100.512 81.568C99.904 81.184 99.4187 80.6453 99.056 79.952C98.704 79.248 98.528 78.4427 98.528 77.536ZM105.504 77.568C105.504 77.024 105.397 76.56 105.184 76.176C104.971 75.7813 104.683 75.4827 104.32 75.28C103.957 75.0667 103.568 74.96 103.152 74.96C102.736 74.96 102.352 75.0613 102 75.264C101.648 75.4667 101.36 75.7653 101.136 76.16C100.923 76.544 100.816 77.0027 100.816 77.536C100.816 78.0693 100.923 78.5387 101.136 78.944C101.36 79.3387 101.648 79.6427 102 79.856C102.363 80.0693 102.747 80.176 103.152 80.176C103.568 80.176 103.957 80.0747 104.32 79.872C104.683 79.6587 104.971 79.36 105.184 78.976C105.397 78.5813 105.504 78.112 105.504 77.568ZM112.188 74.432C112.476 74.0053 112.87 73.6587 113.372 73.392C113.884 73.1253 114.465 72.992 115.116 72.992C115.873 72.992 116.556 73.1787 117.164 73.552C117.782 73.9253 118.268 74.4587 118.62 75.152C118.982 75.8347 119.164 76.6293 119.164 77.536C119.164 78.4427 118.982 79.248 118.62 79.952C118.268 80.6453 117.782 81.184 117.164 81.568C116.556 81.952 115.873 82.144 115.116 82.144C114.454 82.144 113.873 82.016 113.372 81.76C112.881 81.4933 112.486 81.152 112.188 80.736V82H109.948V70.16H112.188V74.432ZM116.876 77.536C116.876 77.0027 116.764 76.544 116.54 76.16C116.326 75.7653 116.038 75.4667 115.676 75.264C115.324 75.0613 114.94 74.96 114.524 74.96C114.118 74.96 113.734 75.0667 113.372 75.28C113.02 75.4827 112.732 75.7813 112.508 76.176C112.294 76.5707 112.188 77.0347 112.188 77.568C112.188 78.1013 112.294 78.5653 112.508 78.96C112.732 79.3547 113.02 79.6587 113.372 79.872C113.734 80.0747 114.118 80.176 114.524 80.176C114.94 80.176 115.324 80.0693 115.676 79.856C116.038 79.6427 116.326 79.3387 116.54 78.944C116.764 78.5493 116.876 78.08 116.876 77.536ZM121.928 72.08C121.533 72.08 121.202 71.9573 120.936 71.712C120.68 71.456 120.552 71.1413 120.552 70.768C120.552 70.3947 120.68 70.0853 120.936 69.84C121.202 69.584 121.533 69.456 121.928 69.456C122.322 69.456 122.648 69.584 122.904 69.84C123.17 70.0853 123.304 70.3947 123.304 70.768C123.304 71.1413 123.17 71.456 122.904 71.712C122.648 71.9573 122.322 72.08 121.928 72.08ZM123.032 73.136V82H120.792V73.136H123.032ZM127.485 70.16V82H125.245V70.16H127.485ZM130.834 72.08C130.439 72.08 130.108 71.9573 129.842 71.712C129.586 71.456 129.458 71.1413 129.458 70.768C129.458 70.3947 129.586 70.0853 129.842 69.84C130.108 69.584 130.439 69.456 130.834 69.456C131.228 69.456 131.554 69.584 131.81 69.84C132.076 70.0853 132.21 70.3947 132.21 70.768C132.21 71.1413 132.076 71.456 131.81 71.712C131.554 71.9573 131.228 72.08 130.834 72.08ZM131.938 73.136V82H129.698V73.136H131.938ZM136.759 74.976V79.264C136.759 79.5627 136.828 79.7813 136.967 79.92C137.116 80.048 137.362 80.112 137.703 80.112H138.743V82H137.335C135.447 82 134.503 81.0827 134.503 79.248V74.976H133.447V73.136H134.503V70.944H136.759V73.136H138.743V74.976H136.759ZM148.834 73.136L143.346 86.192H140.962L142.882 81.776L139.33 73.136H141.842L144.13 79.328L146.45 73.136H148.834Z" fill="white"/>
<path d="M56.5058 130.288C56.5058 130.885 56.3618 131.445 56.0738 131.968C55.7965 132.491 55.3538 132.912 54.7458 133.232C54.1485 133.552 53.3911 133.712 52.4738 133.712H50.6018V138H48.3618V126.832H52.4738C53.3378 126.832 54.0738 126.981 54.6818 127.28C55.2898 127.579 55.7431 127.989 56.0418 128.512C56.3511 129.035 56.5058 129.627 56.5058 130.288ZM52.3778 131.904C52.9965 131.904 53.4551 131.765 53.7538 131.488C54.0525 131.2 54.2018 130.8 54.2018 130.288C54.2018 129.2 53.5938 128.656 52.3778 128.656H50.6018V131.904H52.3778ZM60.3362 130.512C60.6242 130.043 60.9975 129.675 61.4562 129.408C61.9255 129.141 62.4589 129.008 63.0562 129.008V131.36H62.4642C61.7602 131.36 61.2269 131.525 60.8642 131.856C60.5122 132.187 60.3362 132.763 60.3362 133.584V138H58.0962V129.136H60.3362V130.512ZM68.5009 138.144C67.6476 138.144 66.8796 137.957 66.1969 137.584C65.5143 137.2 64.9756 136.661 64.5809 135.968C64.1969 135.275 64.0049 134.475 64.0049 133.568C64.0049 132.661 64.2023 131.861 64.5969 131.168C65.0023 130.475 65.5516 129.941 66.2449 129.568C66.9383 129.184 67.7116 128.992 68.5649 128.992C69.4183 128.992 70.1916 129.184 70.8849 129.568C71.5783 129.941 72.1223 130.475 72.5169 131.168C72.9223 131.861 73.1249 132.661 73.1249 133.568C73.1249 134.475 72.9169 135.275 72.5009 135.968C72.0956 136.661 71.5409 137.2 70.8369 137.584C70.1436 137.957 69.3649 138.144 68.5009 138.144ZM68.5009 136.192C68.9063 136.192 69.2849 136.096 69.6369 135.904C69.9996 135.701 70.2876 135.403 70.5009 135.008C70.7143 134.613 70.8209 134.133 70.8209 133.568C70.8209 132.725 70.5969 132.08 70.1489 131.632C69.7116 131.173 69.1729 130.944 68.5329 130.944C67.8929 130.944 67.3543 131.173 66.9169 131.632C66.4903 132.08 66.2769 132.725 66.2769 133.568C66.2769 134.411 66.4849 135.061 66.9009 135.52C67.3276 135.968 67.8609 136.192 68.5009 136.192ZM77.0081 130.416C77.2961 130.011 77.6907 129.675 78.1921 129.408C78.7041 129.131 79.2854 128.992 79.9361 128.992C80.6934 128.992 81.3761 129.179 81.9841 129.552C82.6027 129.925 83.0881 130.459 83.4401 131.152C83.8027 131.835 83.9841 132.629 83.9841 133.536C83.9841 134.443 83.8027 135.248 83.4401 135.952C83.0881 136.645 82.6027 137.184 81.9841 137.568C81.3761 137.952 80.6934 138.144 79.9361 138.144C79.2854 138.144 78.7094 138.011 78.2081 137.744C77.7174 137.477 77.3174 137.141 77.0081 136.736V142.224H74.7681V129.136H77.0081V130.416ZM81.6961 133.536C81.6961 133.003 81.5841 132.544 81.3601 132.16C81.1467 131.765 80.8587 131.467 80.4961 131.264C80.1441 131.061 79.7601 130.96 79.3441 130.96C78.9387 130.96 78.5547 131.067 78.1921 131.28C77.8401 131.483 77.5521 131.781 77.3281 132.176C77.1147 132.571 77.0081 133.035 77.0081 133.568C77.0081 134.101 77.1147 134.565 77.3281 134.96C77.5521 135.355 77.8401 135.659 78.1921 135.872C78.5547 136.075 78.9387 136.176 79.3441 136.176C79.7601 136.176 80.1441 136.069 80.4961 135.856C80.8587 135.643 81.1467 135.339 81.3601 134.944C81.5841 134.549 81.6961 134.08 81.6961 133.536ZM93.8518 133.376C93.8518 133.696 93.8305 133.984 93.7878 134.24H87.3078C87.3611 134.88 87.5851 135.381 87.9798 135.744C88.3745 136.107 88.8598 136.288 89.4358 136.288C90.2678 136.288 90.8598 135.931 91.2118 135.216H93.6278C93.3718 136.069 92.8811 136.773 92.1558 137.328C91.4305 137.872 90.5398 138.144 89.4838 138.144C88.6305 138.144 87.8625 137.957 87.1798 137.584C86.5078 137.2 85.9798 136.661 85.5958 135.968C85.2225 135.275 85.0358 134.475 85.0358 133.568C85.0358 132.651 85.2225 131.845 85.5958 131.152C85.9691 130.459 86.4918 129.925 87.1638 129.552C87.8358 129.179 88.6091 128.992 89.4838 128.992C90.3265 128.992 91.0785 129.173 91.7398 129.536C92.4118 129.899 92.9291 130.416 93.2918 131.088C93.6651 131.749 93.8518 132.512 93.8518 133.376ZM91.5318 132.736C91.5211 132.16 91.3131 131.701 90.9078 131.36C90.5025 131.008 90.0065 130.832 89.4198 130.832C88.8651 130.832 88.3958 131.003 88.0118 131.344C87.6385 131.675 87.4091 132.139 87.3238 132.736H91.5318ZM97.7268 130.512C98.0148 130.043 98.3881 129.675 98.8468 129.408C99.3161 129.141 99.8495 129.008 100.447 129.008V131.36H99.8548C99.1508 131.36 98.6175 131.525 98.2548 131.856C97.9028 132.187 97.7268 132.763 97.7268 133.584V138H95.4868V129.136H97.7268V130.512ZM104.564 130.976V135.264C104.564 135.563 104.633 135.781 104.772 135.92C104.921 136.048 105.166 136.112 105.508 136.112H106.548V138H105.14C103.252 138 102.308 137.083 102.308 135.248V130.976H101.252V129.136H102.308V126.944H104.564V129.136H106.548V130.976H104.564ZM116.639 129.136L111.151 142.192H108.767L110.687 137.776L107.135 129.136H109.647L111.935 135.328L114.255 129.136H116.639Z" fill="white"/>
<path d="M50.6174 192.224H54.2974V194H48.3774V182.832H50.6174V192.224ZM59.6572 194.144C58.8039 194.144 58.0359 193.957 57.3532 193.584C56.6705 193.2 56.1319 192.661 55.7372 191.968C55.3532 191.275 55.1612 190.475 55.1612 189.568C55.1612 188.661 55.3585 187.861 55.7532 187.168C56.1585 186.475 56.7079 185.941 57.4012 185.568C58.0945 185.184 58.8679 184.992 59.7212 184.992C60.5745 184.992 61.3479 185.184 62.0412 185.568C62.7345 185.941 63.2785 186.475 63.6732 187.168C64.0785 187.861 64.2812 188.661 64.2812 189.568C64.2812 190.475 64.0732 191.275 63.6572 191.968C63.2519 192.661 62.6972 193.2 61.9932 193.584C61.2999 193.957 60.5212 194.144 59.6572 194.144ZM59.6572 192.192C60.0625 192.192 60.4412 192.096 60.7932 191.904C61.1559 191.701 61.4439 191.403 61.6572 191.008C61.8705 190.613 61.9772 190.133 61.9772 189.568C61.9772 188.725 61.7532 188.08 61.3052 187.632C60.8679 187.173 60.3292 186.944 59.6892 186.944C59.0492 186.944 58.5105 187.173 58.0732 187.632C57.6465 188.08 57.4332 188.725 57.4332 189.568C57.4332 190.411 57.6412 191.061 58.0572 191.52C58.4839 191.968 59.0172 192.192 59.6572 192.192ZM65.3483 189.568C65.3483 188.651 65.535 187.851 65.9083 187.168C66.2816 186.475 66.799 185.941 67.4603 185.568C68.1216 185.184 68.879 184.992 69.7323 184.992C70.831 184.992 71.7376 185.269 72.4523 185.824C73.1776 186.368 73.663 187.136 73.9083 188.128H71.4923C71.3643 187.744 71.1456 187.445 70.8363 187.232C70.5376 187.008 70.1643 186.896 69.7163 186.896C69.0763 186.896 68.5696 187.131 68.1963 187.6C67.823 188.059 67.6363 188.715 67.6363 189.568C67.6363 190.411 67.823 191.067 68.1963 191.536C68.5696 191.995 69.0763 192.224 69.7163 192.224C70.623 192.224 71.215 191.819 71.4923 191.008H73.9083C73.663 191.968 73.1776 192.731 72.4523 193.296C71.727 193.861 70.8203 194.144 69.7323 194.144C68.879 194.144 68.1216 193.957 67.4603 193.584C66.799 193.2 66.2816 192.667 65.9083 191.984C65.535 191.291 65.3483 190.485 65.3483 189.568ZM74.9733 189.536C74.9733 188.64 75.1493 187.845 75.5013 187.152C75.864 186.459 76.3493 185.925 76.9573 185.552C77.576 185.179 78.264 184.992 79.0213 184.992C79.6826 184.992 80.2586 185.125 80.7493 185.392C81.2506 185.659 81.6506 185.995 81.9493 186.4V185.136H84.2053V194H81.9493V192.704C81.6613 193.12 81.2613 193.467 80.7493 193.744C80.248 194.011 79.6666 194.144 79.0053 194.144C78.2586 194.144 77.576 193.952 76.9573 193.568C76.3493 193.184 75.864 192.645 75.5013 191.952C75.1493 191.248 74.9733 190.443 74.9733 189.536ZM81.9493 189.568C81.9493 189.024 81.8426 188.56 81.6293 188.176C81.416 187.781 81.128 187.483 80.7653 187.28C80.4026 187.067 80.0133 186.96 79.5973 186.96C79.1813 186.96 78.7973 187.061 78.4453 187.264C78.0933 187.467 77.8053 187.765 77.5813 188.16C77.368 188.544 77.2613 189.003 77.2613 189.536C77.2613 190.069 77.368 190.539 77.5813 190.944C77.8053 191.339 78.0933 191.643 78.4453 191.856C78.808 192.069 79.192 192.176 79.5973 192.176C80.0133 192.176 80.4026 192.075 80.7653 191.872C81.128 191.659 81.416 191.36 81.6293 190.976C81.8426 190.581 81.9493 190.112 81.9493 189.568ZM89.0011 186.976V191.264C89.0011 191.563 89.0704 191.781 89.2091 191.92C89.3584 192.048 89.6037 192.112 89.9451 192.112H90.9851V194H89.5771C87.6891 194 86.7451 193.083 86.7451 191.248V186.976H85.6891V185.136H86.7451V182.944H89.0011V185.136H90.9851V186.976H89.0011ZM93.7322 184.08C93.3375 184.08 93.0069 183.957 92.7402 183.712C92.4842 183.456 92.3562 183.141 92.3562 182.768C92.3562 182.395 92.4842 182.085 92.7402 181.84C93.0069 181.584 93.3375 181.456 93.7322 181.456C94.1269 181.456 94.4522 181.584 94.7082 181.84C94.9749 182.085 95.1082 182.395 95.1082 182.768C95.1082 183.141 94.9749 183.456 94.7082 183.712C94.4522 183.957 94.1269 184.08 93.7322 184.08ZM94.8362 185.136V194H92.5962V185.136H94.8362ZM100.985 194.144C100.132 194.144 99.364 193.957 98.6813 193.584C97.9986 193.2 97.46 192.661 97.0653 191.968C96.6813 191.275 96.4893 190.475 96.4893 189.568C96.4893 188.661 96.6866 187.861 97.0813 187.168C97.4866 186.475 98.036 185.941 98.7293 185.568C99.4226 185.184 100.196 184.992 101.049 184.992C101.903 184.992 102.676 185.184 103.369 185.568C104.063 185.941 104.607 186.475 105.001 187.168C105.407 187.861 105.609 188.661 105.609 189.568C105.609 190.475 105.401 191.275 104.985 191.968C104.58 192.661 104.025 193.2 103.321 193.584C102.628 193.957 101.849 194.144 100.985 194.144ZM100.985 192.192C101.391 192.192 101.769 192.096 102.121 191.904C102.484 191.701 102.772 191.403 102.985 191.008C103.199 190.613 103.305 190.133 103.305 189.568C103.305 188.725 103.081 188.08 102.633 187.632C102.196 187.173 101.657 186.944 101.017 186.944C100.377 186.944 99.8386 187.173 99.4013 187.632C98.9746 188.08 98.7613 188.725 98.7613 189.568C98.7613 190.411 98.9693 191.061 99.3853 191.52C99.812 191.968 100.345 192.192 100.985 192.192ZM112.164 185.008C113.22 185.008 114.074 185.344 114.724 186.016C115.375 186.677 115.7 187.605 115.7 188.8V194H113.46V189.104C113.46 188.4 113.284 187.861 112.932 187.488C112.58 187.104 112.1 186.912 111.492 186.912C110.874 186.912 110.383 187.104 110.02 187.488C109.668 187.861 109.492 188.4 109.492 189.104V194H107.252V185.136H109.492V186.24C109.791 185.856 110.17 185.557 110.628 185.344C111.098 185.12 111.61 185.008 112.164 185.008Z" fill="white"/>
<path d="M55.3817 247.872H50.9337L50.1977 250H47.8457L51.8617 238.816H54.4697L58.4857 250H56.1177L55.3817 247.872ZM54.7737 246.08L53.1577 241.408L51.5417 246.08H54.7737ZM70.9948 241.008C72.0828 241.008 72.9575 241.344 73.6188 242.016C74.2908 242.677 74.6268 243.605 74.6268 244.8V250H72.3868V245.104C72.3868 244.411 72.2108 243.883 71.8588 243.52C71.5068 243.147 71.0268 242.96 70.4188 242.96C69.8108 242.96 69.3255 243.147 68.9628 243.52C68.6108 243.883 68.4348 244.411 68.4348 245.104V250H66.1948V245.104C66.1948 244.411 66.0188 243.883 65.6668 243.52C65.3148 243.147 64.8348 242.96 64.2268 242.96C63.6081 242.96 63.1175 243.147 62.7548 243.52C62.4028 243.883 62.2268 244.411 62.2268 245.104V250H59.9868V241.136H62.2268V242.208C62.5148 241.835 62.8828 241.541 63.3308 241.328C63.7895 241.115 64.2908 241.008 64.8348 241.008C65.5281 241.008 66.1468 241.157 66.6908 241.456C67.2348 241.744 67.6561 242.16 67.9548 242.704C68.2428 242.192 68.6588 241.781 69.2028 241.472C69.7575 241.163 70.3548 241.008 70.9948 241.008ZM87.7604 241.008C88.8484 241.008 89.7231 241.344 90.3844 242.016C91.0564 242.677 91.3924 243.605 91.3924 244.8V250H89.1524V245.104C89.1524 244.411 88.9764 243.883 88.6244 243.52C88.2724 243.147 87.7924 242.96 87.1844 242.96C86.5764 242.96 86.0911 243.147 85.7284 243.52C85.3764 243.883 85.2004 244.411 85.2004 245.104V250H82.9604V245.104C82.9604 244.411 82.7844 243.883 82.4324 243.52C82.0804 243.147 81.6004 242.96 80.9924 242.96C80.3738 242.96 79.8831 243.147 79.5204 243.52C79.1684 243.883 78.9924 244.411 78.9924 245.104V250H76.7524V241.136H78.9924V242.208C79.2804 241.835 79.6484 241.541 80.0964 241.328C80.5551 241.115 81.0564 241.008 81.6004 241.008C82.2938 241.008 82.9124 241.157 83.4564 241.456C84.0004 241.744 84.4218 242.16 84.7204 242.704C85.0084 242.192 85.4244 241.781 85.9684 241.472C86.5231 241.163 87.1204 241.008 87.7604 241.008ZM101.758 245.376C101.758 245.696 101.737 245.984 101.694 246.24H95.2141C95.2674 246.88 95.4914 247.381 95.8861 247.744C96.2807 248.107 96.7661 248.288 97.3421 248.288C98.1741 248.288 98.7661 247.931 99.1181 247.216H101.534C101.278 248.069 100.787 248.773 100.062 249.328C99.3367 249.872 98.4461 250.144 97.3901 250.144C96.5367 250.144 95.7687 249.957 95.0861 249.584C94.4141 249.2 93.8861 248.661 93.5021 247.968C93.1287 247.275 92.9421 246.475 92.9421 245.568C92.9421 244.651 93.1287 243.845 93.5021 243.152C93.8754 242.459 94.3981 241.925 95.0701 241.552C95.7421 241.179 96.5154 240.992 97.3901 240.992C98.2327 240.992 98.9847 241.173 99.6461 241.536C100.318 241.899 100.835 242.416 101.198 243.088C101.571 243.749 101.758 244.512 101.758 245.376ZM99.4381 244.736C99.4274 244.16 99.2194 243.701 98.8141 243.36C98.4087 243.008 97.9127 242.832 97.3261 242.832C96.7714 242.832 96.3021 243.003 95.9181 243.344C95.5447 243.675 95.3154 244.139 95.2301 244.736H99.4381ZM108.305 241.008C109.361 241.008 110.214 241.344 110.865 242.016C111.516 242.677 111.841 243.605 111.841 244.8V250H109.601V245.104C109.601 244.4 109.425 243.861 109.073 243.488C108.721 243.104 108.241 242.912 107.633 242.912C107.014 242.912 106.524 243.104 106.161 243.488C105.809 243.861 105.633 244.4 105.633 245.104V250H103.393V241.136H105.633V242.24C105.932 241.856 106.31 241.557 106.769 241.344C107.238 241.12 107.75 241.008 108.305 241.008ZM115.107 240.08C114.713 240.08 114.382 239.957 114.115 239.712C113.859 239.456 113.731 239.141 113.731 238.768C113.731 238.395 113.859 238.085 114.115 237.84C114.382 237.584 114.713 237.456 115.107 237.456C115.502 237.456 115.827 237.584 116.083 237.84C116.35 238.085 116.483 238.395 116.483 238.768C116.483 239.141 116.35 239.456 116.083 239.712C115.827 239.957 115.502 240.08 115.107 240.08ZM116.211 241.136V250H113.971V241.136H116.211ZM121.032 242.976V247.264C121.032 247.563 121.102 247.781 121.24 247.92C121.39 248.048 121.635 248.112 121.976 248.112H123.016V250H121.608C119.72 250 118.776 249.083 118.776 247.248V242.976H117.72V241.136H118.776V238.944H121.032V241.136H123.016V242.976H121.032ZM125.763 240.08C125.369 240.08 125.038 239.957 124.771 239.712C124.515 239.456 124.387 239.141 124.387 238.768C124.387 238.395 124.515 238.085 124.771 237.84C125.038 237.584 125.369 237.456 125.763 237.456C126.158 237.456 126.483 237.584 126.739 237.84C127.006 238.085 127.139 238.395 127.139 238.768C127.139 239.141 127.006 239.456 126.739 239.712C126.483 239.957 126.158 240.08 125.763 240.08ZM126.867 241.136V250H124.627V241.136H126.867ZM137.321 245.376C137.321 245.696 137.299 245.984 137.257 246.24H130.777C130.83 246.88 131.054 247.381 131.449 247.744C131.843 248.107 132.329 248.288 132.905 248.288C133.737 248.288 134.329 247.931 134.681 247.216H137.097C136.841 248.069 136.35 248.773 135.625 249.328C134.899 249.872 134.009 250.144 132.953 250.144C132.099 250.144 131.331 249.957 130.649 249.584C129.977 249.2 129.449 248.661 129.065 247.968C128.691 247.275 128.505 246.475 128.505 245.568C128.505 244.651 128.691 243.845 129.065 243.152C129.438 242.459 129.961 241.925 130.633 241.552C131.305 241.179 132.078 240.992 132.953 240.992C133.795 240.992 134.547 241.173 135.209 241.536C135.881 241.899 136.398 242.416 136.761 243.088C137.134 243.749 137.321 244.512 137.321 245.376ZM135.001 244.736C134.99 244.16 134.782 243.701 134.377 243.36C133.971 243.008 133.475 242.832 132.889 242.832C132.334 242.832 131.865 243.003 131.481 243.344C131.107 243.675 130.878 244.139 130.793 244.736H135.001ZM142.348 250.144C141.622 250.144 140.972 250.016 140.396 249.76C139.82 249.493 139.361 249.136 139.02 248.688C138.689 248.24 138.508 247.744 138.476 247.2H140.732C140.774 247.541 140.94 247.824 141.228 248.048C141.526 248.272 141.894 248.384 142.332 248.384C142.758 248.384 143.089 248.299 143.324 248.128C143.569 247.957 143.692 247.739 143.692 247.472C143.692 247.184 143.542 246.971 143.244 246.832C142.956 246.683 142.492 246.523 141.852 246.352C141.19 246.192 140.646 246.027 140.22 245.856C139.804 245.685 139.441 245.424 139.132 245.072C138.833 244.72 138.684 244.245 138.684 243.648C138.684 243.157 138.822 242.709 139.1 242.304C139.388 241.899 139.793 241.579 140.316 241.344C140.849 241.109 141.473 240.992 142.188 240.992C143.244 240.992 144.086 241.259 144.716 241.792C145.345 242.315 145.692 243.024 145.756 243.92H143.612C143.58 243.568 143.43 243.291 143.164 243.088C142.908 242.875 142.561 242.768 142.124 242.768C141.718 242.768 141.404 242.843 141.18 242.992C140.966 243.141 140.86 243.349 140.86 243.616C140.86 243.915 141.009 244.144 141.308 244.304C141.606 244.453 142.07 244.608 142.7 244.768C143.34 244.928 143.868 245.093 144.284 245.264C144.7 245.435 145.057 245.701 145.356 246.064C145.665 246.416 145.825 246.885 145.836 247.472C145.836 247.984 145.692 248.443 145.404 248.848C145.126 249.253 144.721 249.573 144.188 249.808C143.665 250.032 143.052 250.144 142.348 250.144Z" fill="white"/>
<path d="M160.176 299.016C160.176 297.171 160.507 295.725 161.168 294.68C161.84 293.635 162.949 293.112 164.496 293.112C166.043 293.112 167.147 293.635 167.808 294.68C168.48 295.725 168.816 297.171 168.816 299.016C168.816 300.872 168.48 302.328 167.808 303.384C167.147 304.44 166.043 304.968 164.496 304.968C162.949 304.968 161.84 304.44 161.168 303.384C160.507 302.328 160.176 300.872 160.176 299.016ZM166.608 299.016C166.608 298.227 166.555 297.565 166.448 297.032C166.352 296.488 166.149 296.045 165.84 295.704C165.541 295.363 165.093 295.192 164.496 295.192C163.899 295.192 163.445 295.363 163.136 295.704C162.837 296.045 162.635 296.488 162.528 297.032C162.432 297.565 162.384 298.227 162.384 299.016C162.384 299.827 162.432 300.509 162.528 301.064C162.624 301.608 162.827 302.051 163.136 302.392C163.445 302.723 163.899 302.888 164.496 302.888C165.093 302.888 165.547 302.723 165.856 302.392C166.165 302.051 166.368 301.608 166.464 301.064C166.56 300.509 166.608 299.827 166.608 299.016Z" fill="white"/>
<path d="M367.654 302.472C368.678 301.619 369.494 300.909 370.102 300.344C370.71 299.768 371.216 299.171 371.622 298.552C372.027 297.933 372.23 297.325 372.23 296.728C372.23 296.184 372.102 295.757 371.846 295.448C371.59 295.139 371.195 294.984 370.662 294.984C370.128 294.984 369.718 295.165 369.43 295.528C369.142 295.88 368.992 296.365 368.982 296.984H366.806C366.848 295.704 367.227 294.733 367.942 294.072C368.667 293.411 369.584 293.08 370.694 293.08C371.91 293.08 372.843 293.405 373.494 294.056C374.144 294.696 374.47 295.544 374.47 296.6C374.47 297.432 374.246 298.227 373.798 298.984C373.35 299.741 372.838 300.403 372.262 300.968C371.686 301.523 370.934 302.195 370.006 302.984H374.726V304.84H366.822V303.176L367.654 302.472ZM376.137 299.016C376.137 297.171 376.468 295.725 377.129 294.68C377.801 293.635 378.91 293.112 380.457 293.112C382.004 293.112 383.108 293.635 383.769 294.68C384.441 295.725 384.777 297.171 384.777 299.016C384.777 300.872 384.441 302.328 383.769 303.384C383.108 304.44 382.004 304.968 380.457 304.968C378.91 304.968 377.801 304.44 377.129 303.384C376.468 302.328 376.137 300.872 376.137 299.016ZM382.569 299.016C382.569 298.227 382.516 297.565 382.409 297.032C382.313 296.488 382.11 296.045 381.801 295.704C381.502 295.363 381.054 295.192 380.457 295.192C379.86 295.192 379.406 295.363 379.097 295.704C378.798 296.045 378.596 296.488 378.489 297.032C378.393 297.565 378.345 298.227 378.345 299.016C378.345 299.827 378.393 300.509 378.489 301.064C378.585 301.608 378.788 302.051 379.097 302.392C379.406 302.723 379.86 302.888 380.457 302.888C381.054 302.888 381.508 302.723 381.817 302.392C382.126 302.051 382.329 301.608 382.425 301.064C382.521 300.509 382.569 299.827 382.569 299.016ZM386.225 296.2C386.225 295.389 386.459 294.755 386.929 294.296C387.409 293.837 388.022 293.608 388.769 293.608C389.515 293.608 390.123 293.837 390.593 294.296C391.073 294.755 391.313 295.389 391.313 296.2C391.313 297.021 391.073 297.661 390.593 298.12C390.123 298.579 389.515 298.808 388.769 298.808C388.022 298.808 387.409 298.579 386.929 298.12C386.459 297.661 386.225 297.021 386.225 296.2ZM396.497 293.8L390.209 305H388.033L394.305 293.8H396.497ZM388.753 294.952C388.166 294.952 387.873 295.368 387.873 296.2C387.873 297.043 388.166 297.464 388.753 297.464C389.041 297.464 389.265 297.363 389.425 297.16C389.585 296.947 389.665 296.627 389.665 296.2C389.665 295.368 389.361 294.952 388.753 294.952ZM393.249 302.584C393.249 301.763 393.483 301.128 393.953 300.68C394.433 300.221 395.046 299.992 395.793 299.992C396.539 299.992 397.142 300.221 397.601 300.68C398.07 301.128 398.305 301.763 398.305 302.584C398.305 303.405 398.07 304.045 397.601 304.504C397.142 304.963 396.539 305.192 395.793 305.192C395.035 305.192 394.422 304.963 393.953 304.504C393.483 304.045 393.249 303.405 393.249 302.584ZM395.777 301.336C395.169 301.336 394.865 301.752 394.865 302.584C394.865 303.427 395.169 303.848 395.777 303.848C396.374 303.848 396.673 303.427 396.673 302.584C396.673 301.752 396.374 301.336 395.777 301.336Z" fill="white"/>
<path d="M522.286 73.408C522.34 72.3413 522.713 71.52 523.406 70.944C524.11 70.3573 525.033 70.064 526.174 70.064C526.953 70.064 527.62 70.2027 528.174 70.48C528.729 70.7467 529.145 71.1147 529.422 71.584C529.71 72.0427 529.854 72.5653 529.854 73.152C529.854 73.824 529.678 74.3947 529.326 74.864C528.985 75.3227 528.574 75.632 528.094 75.792V75.856C528.713 76.048 529.193 76.3893 529.534 76.88C529.886 77.3707 530.062 78 530.062 78.768C530.062 79.408 529.913 79.9787 529.614 80.48C529.326 80.9813 528.894 81.376 528.318 81.664C527.753 81.9413 527.07 82.08 526.27 82.08C525.065 82.08 524.084 81.776 523.326 81.168C522.569 80.56 522.169 79.664 522.126 78.48H524.302C524.324 79.0027 524.5 79.424 524.83 79.744C525.172 80.0533 525.636 80.208 526.222 80.208C526.766 80.208 527.182 80.0587 527.47 79.76C527.769 79.4507 527.918 79.056 527.918 78.576C527.918 77.936 527.716 77.4773 527.31 77.2C526.905 76.9227 526.276 76.784 525.422 76.784H524.958V74.944H525.422C526.937 74.944 527.694 74.4373 527.694 73.424C527.694 72.9653 527.556 72.608 527.278 72.352C527.012 72.096 526.622 71.968 526.11 71.968C525.609 71.968 525.22 72.1067 524.942 72.384C524.676 72.6507 524.521 72.992 524.478 73.408H522.286ZM531.832 76.016C531.832 74.1707 532.163 72.7253 532.824 71.68C533.496 70.6347 534.606 70.112 536.152 70.112C537.699 70.112 538.803 70.6347 539.464 71.68C540.136 72.7253 540.472 74.1707 540.472 76.016C540.472 77.872 540.136 79.328 539.464 80.384C538.803 81.44 537.699 81.968 536.152 81.968C534.606 81.968 533.496 81.44 532.824 80.384C532.163 79.328 531.832 77.872 531.832 76.016ZM538.264 76.016C538.264 75.2267 538.211 74.5653 538.104 74.032C538.008 73.488 537.806 73.0453 537.496 72.704C537.198 72.3627 536.75 72.192 536.152 72.192C535.555 72.192 535.102 72.3627 534.792 72.704C534.494 73.0453 534.291 73.488 534.184 74.032C534.088 74.5653 534.04 75.2267 534.04 76.016C534.04 76.8267 534.088 77.5093 534.184 78.064C534.28 78.608 534.483 79.0507 534.792 79.392C535.102 79.7227 535.555 79.888 536.152 79.888C536.75 79.888 537.203 79.7227 537.512 79.392C537.822 79.0507 538.024 78.608 538.12 78.064C538.216 77.5093 538.264 76.8267 538.264 76.016ZM541.92 73.2C541.92 72.3893 542.155 71.7547 542.624 71.296C543.104 70.8373 543.717 70.608 544.464 70.608C545.211 70.608 545.819 70.8373 546.288 71.296C546.768 71.7547 547.008 72.3893 547.008 73.2C547.008 74.0213 546.768 74.6613 546.288 75.12C545.819 75.5787 545.211 75.808 544.464 75.808C543.717 75.808 543.104 75.5787 542.624 75.12C542.155 74.6613 541.92 74.0213 541.92 73.2ZM552.192 70.8L545.904 82H543.728L550 70.8H552.192ZM544.448 71.952C543.861 71.952 543.568 72.368 543.568 73.2C543.568 74.0427 543.861 74.464 544.448 74.464C544.736 74.464 544.96 74.3627 545.12 74.16C545.28 73.9467 545.36 73.6267 545.36 73.2C545.36 72.368 545.056 71.952 544.448 71.952ZM548.944 79.584C548.944 78.7627 549.179 78.128 549.648 77.68C550.128 77.2213 550.741 76.992 551.488 76.992C552.235 76.992 552.837 77.2213 553.296 77.68C553.765 78.128 554 78.7627 554 79.584C554 80.4053 553.765 81.0453 553.296 81.504C552.837 81.9627 552.235 82.192 551.488 82.192C550.731 82.192 550.117 81.9627 549.648 81.504C549.179 81.0453 548.944 80.4053 548.944 79.584ZM551.472 78.336C550.864 78.336 550.56 78.752 550.56 79.584C550.56 80.4267 550.864 80.848 551.472 80.848C552.069 80.848 552.368 80.4267 552.368 79.584C552.368 78.752 552.069 78.336 551.472 78.336Z" fill="white"/>
<path d="M436.036 135.472C437.06 134.619 437.876 133.909 438.484 133.344C439.092 132.768 439.599 132.171 440.004 131.552C440.41 130.933 440.612 130.325 440.612 129.728C440.612 129.184 440.484 128.757 440.228 128.448C439.972 128.139 439.578 127.984 439.044 127.984C438.511 127.984 438.1 128.165 437.812 128.528C437.524 128.88 437.375 129.365 437.364 129.984H435.188C435.231 128.704 435.61 127.733 436.324 127.072C437.05 126.411 437.967 126.08 439.076 126.08C440.292 126.08 441.226 126.405 441.876 127.056C442.527 127.696 442.852 128.544 442.852 129.6C442.852 130.432 442.628 131.227 442.18 131.984C441.732 132.741 441.22 133.403 440.644 133.968C440.068 134.523 439.316 135.195 438.388 135.984H443.108V137.84H435.204V136.176L436.036 135.472ZM444.552 129.408C444.605 128.341 444.979 127.52 445.672 126.944C446.376 126.357 447.299 126.064 448.44 126.064C449.219 126.064 449.885 126.203 450.44 126.48C450.995 126.747 451.411 127.115 451.688 127.584C451.976 128.043 452.12 128.565 452.12 129.152C452.12 129.824 451.944 130.395 451.592 130.864C451.251 131.323 450.84 131.632 450.36 131.792V131.856C450.979 132.048 451.459 132.389 451.8 132.88C452.152 133.371 452.328 134 452.328 134.768C452.328 135.408 452.179 135.979 451.88 136.48C451.592 136.981 451.16 137.376 450.584 137.664C450.019 137.941 449.336 138.08 448.536 138.08C447.331 138.08 446.349 137.776 445.592 137.168C444.835 136.56 444.435 135.664 444.392 134.48H446.568C446.589 135.003 446.765 135.424 447.096 135.744C447.437 136.053 447.901 136.208 448.488 136.208C449.032 136.208 449.448 136.059 449.736 135.76C450.035 135.451 450.184 135.056 450.184 134.576C450.184 133.936 449.981 133.477 449.576 133.2C449.171 132.923 448.541 132.784 447.688 132.784H447.224V130.944H447.688C449.203 130.944 449.96 130.437 449.96 129.424C449.96 128.965 449.821 128.608 449.544 128.352C449.277 128.096 448.888 127.968 448.376 127.968C447.875 127.968 447.485 128.107 447.208 128.384C446.941 128.651 446.787 128.992 446.744 129.408H444.552ZM453.842 129.2C453.842 128.389 454.077 127.755 454.546 127.296C455.026 126.837 455.639 126.608 456.386 126.608C457.133 126.608 457.741 126.837 458.21 127.296C458.69 127.755 458.93 128.389 458.93 129.2C458.93 130.021 458.69 130.661 458.21 131.12C457.741 131.579 457.133 131.808 456.386 131.808C455.639 131.808 455.026 131.579 454.546 131.12C454.077 130.661 453.842 130.021 453.842 129.2ZM464.114 126.8L457.826 138H455.65L461.922 126.8H464.114ZM456.37 127.952C455.783 127.952 455.49 128.368 455.49 129.2C455.49 130.043 455.783 130.464 456.37 130.464C456.658 130.464 456.882 130.363 457.042 130.16C457.202 129.947 457.282 129.627 457.282 129.2C457.282 128.368 456.978 127.952 456.37 127.952ZM460.866 135.584C460.866 134.763 461.101 134.128 461.57 133.68C462.05 133.221 462.663 132.992 463.41 132.992C464.157 132.992 464.759 133.221 465.218 133.68C465.687 134.128 465.922 134.763 465.922 135.584C465.922 136.405 465.687 137.045 465.218 137.504C464.759 137.963 464.157 138.192 463.41 138.192C462.653 138.192 462.039 137.963 461.57 137.504C461.101 137.045 460.866 136.405 460.866 135.584ZM463.394 134.336C462.786 134.336 462.482 134.752 462.482 135.584C462.482 136.427 462.786 136.848 463.394 136.848C463.991 136.848 464.29 136.427 464.29 135.584C464.29 134.752 463.991 134.336 463.394 134.336Z" fill="white"/>
<path d="M379.037 184.4V182.336H382.893V194H380.589V184.4H379.037ZM387.698 190.72C387.783 191.189 387.975 191.552 388.274 191.808C388.583 192.053 388.994 192.176 389.506 192.176C390.167 192.176 390.647 191.904 390.946 191.36C391.244 190.805 391.394 189.877 391.394 188.576C391.148 188.917 390.802 189.184 390.354 189.376C389.916 189.568 389.442 189.664 388.93 189.664C388.247 189.664 387.628 189.525 387.074 189.248C386.53 188.96 386.098 188.539 385.778 187.984C385.458 187.419 385.298 186.736 385.298 185.936C385.298 184.752 385.65 183.813 386.354 183.12C387.058 182.416 388.018 182.064 389.234 182.064C390.748 182.064 391.815 182.549 392.434 183.52C393.063 184.491 393.378 185.952 393.378 187.904C393.378 189.291 393.255 190.427 393.01 191.312C392.775 192.197 392.364 192.869 391.778 193.328C391.202 193.787 390.412 194.016 389.41 194.016C388.62 194.016 387.948 193.867 387.394 193.568C386.839 193.259 386.412 192.859 386.114 192.368C385.826 191.867 385.66 191.317 385.618 190.72H387.698ZM389.394 187.84C389.948 187.84 390.386 187.669 390.706 187.328C391.026 186.987 391.186 186.528 391.186 185.952C391.186 185.323 391.015 184.837 390.674 184.496C390.343 184.144 389.89 183.968 389.314 183.968C388.738 183.968 388.279 184.149 387.938 184.512C387.607 184.864 387.442 185.333 387.442 185.92C387.442 186.485 387.602 186.949 387.922 187.312C388.252 187.664 388.743 187.84 389.394 187.84ZM394.865 185.2C394.865 184.389 395.1 183.755 395.569 183.296C396.049 182.837 396.663 182.608 397.409 182.608C398.156 182.608 398.764 182.837 399.233 183.296C399.713 183.755 399.953 184.389 399.953 185.2C399.953 186.021 399.713 186.661 399.233 187.12C398.764 187.579 398.156 187.808 397.409 187.808C396.663 187.808 396.049 187.579 395.569 187.12C395.1 186.661 394.865 186.021 394.865 185.2ZM405.137 182.8L398.849 194H396.673L402.945 182.8H405.137ZM397.393 183.952C396.807 183.952 396.513 184.368 396.513 185.2C396.513 186.043 396.807 186.464 397.393 186.464C397.681 186.464 397.905 186.363 398.065 186.16C398.225 185.947 398.305 185.627 398.305 185.2C398.305 184.368 398.001 183.952 397.393 183.952ZM401.889 191.584C401.889 190.763 402.124 190.128 402.593 189.68C403.073 189.221 403.687 188.992 404.433 188.992C405.18 188.992 405.783 189.221 406.241 189.68C406.711 190.128 406.945 190.763 406.945 191.584C406.945 192.405 406.711 193.045 406.241 193.504C405.783 193.963 405.18 194.192 404.433 194.192C403.676 194.192 403.063 193.963 402.593 193.504C402.124 193.045 401.889 192.405 401.889 191.584ZM404.417 190.336C403.809 190.336 403.505 190.752 403.505 191.584C403.505 192.427 403.809 192.848 404.417 192.848C405.015 192.848 405.313 192.427 405.313 191.584C405.313 190.752 405.015 190.336 404.417 190.336Z" fill="white"/>
<path d="M509.685 247.472C510.709 246.619 511.525 245.909 512.133 245.344C512.741 244.768 513.247 244.171 513.653 243.552C514.058 242.933 514.261 242.325 514.261 241.728C514.261 241.184 514.133 240.757 513.877 240.448C513.621 240.139 513.226 239.984 512.693 239.984C512.159 239.984 511.749 240.165 511.461 240.528C511.173 240.88 511.023 241.365 511.013 241.984H508.837C508.879 240.704 509.258 239.733 509.973 239.072C510.698 238.411 511.615 238.08 512.725 238.08C513.941 238.08 514.874 238.405 515.525 239.056C516.175 239.696 516.501 240.544 516.501 241.6C516.501 242.432 516.277 243.227 515.829 243.984C515.381 244.741 514.869 245.403 514.293 245.968C513.717 246.523 512.965 247.195 512.037 247.984H516.757V249.84H508.853V248.176L509.685 247.472ZM520.12 243.824C519.054 243.269 518.52 242.411 518.52 241.248C518.52 240.672 518.664 240.149 518.952 239.68C519.251 239.2 519.694 238.821 520.28 238.544C520.878 238.256 521.603 238.112 522.456 238.112C523.31 238.112 524.03 238.256 524.616 238.544C525.214 238.821 525.656 239.2 525.944 239.68C526.243 240.149 526.392 240.672 526.392 241.248C526.392 241.835 526.248 242.352 525.96 242.8C525.672 243.237 525.288 243.579 524.808 243.824C525.395 244.08 525.854 244.453 526.184 244.944C526.515 245.435 526.68 246.016 526.68 246.688C526.68 247.413 526.494 248.048 526.12 248.592C525.758 249.125 525.256 249.536 524.616 249.824C523.976 250.112 523.256 250.256 522.456 250.256C521.656 250.256 520.936 250.112 520.296 249.824C519.667 249.536 519.166 249.125 518.792 248.592C518.43 248.048 518.248 247.413 518.248 246.688C518.248 246.016 518.414 245.435 518.744 244.944C519.075 244.443 519.534 244.069 520.12 243.824ZM524.216 241.568C524.216 241.045 524.056 240.64 523.736 240.352C523.427 240.064 523 239.92 522.456 239.92C521.923 239.92 521.496 240.064 521.176 240.352C520.867 240.64 520.712 241.051 520.712 241.584C520.712 242.064 520.872 242.448 521.192 242.736C521.523 243.024 521.944 243.168 522.456 243.168C522.968 243.168 523.39 243.024 523.72 242.736C524.051 242.437 524.216 242.048 524.216 241.568ZM522.456 244.8C521.848 244.8 521.352 244.955 520.968 245.264C520.595 245.573 520.408 246.016 520.408 246.592C520.408 247.125 520.59 247.563 520.952 247.904C521.326 248.235 521.827 248.4 522.456 248.4C523.086 248.4 523.582 248.229 523.944 247.888C524.307 247.547 524.488 247.115 524.488 246.592C524.488 246.027 524.302 245.589 523.928 245.28C523.555 244.96 523.064 244.8 522.456 244.8ZM528.194 241.2C528.194 240.389 528.428 239.755 528.898 239.296C529.378 238.837 529.991 238.608 530.738 238.608C531.484 238.608 532.092 238.837 532.562 239.296C533.042 239.755 533.282 240.389 533.282 241.2C533.282 242.021 533.042 242.661 532.562 243.12C532.092 243.579 531.484 243.808 530.738 243.808C529.991 243.808 529.378 243.579 528.898 243.12C528.428 242.661 528.194 242.021 528.194 241.2ZM538.466 238.8L532.178 250H530.002L536.274 238.8H538.466ZM530.722 239.952C530.135 239.952 529.842 240.368 529.842 241.2C529.842 242.043 530.135 242.464 530.722 242.464C531.01 242.464 531.234 242.363 531.394 242.16C531.554 241.947 531.634 241.627 531.634 241.2C531.634 240.368 531.33 239.952 530.722 239.952ZM535.218 247.584C535.218 246.763 535.452 246.128 535.922 245.68C536.402 245.221 537.015 244.992 537.762 244.992C538.508 244.992 539.111 245.221 539.57 245.68C540.039 246.128 540.274 246.763 540.274 247.584C540.274 248.405 540.039 249.045 539.57 249.504C539.111 249.963 538.508 250.192 537.762 250.192C537.004 250.192 536.391 249.963 535.922 249.504C535.452 249.045 535.218 248.405 535.218 247.584ZM537.746 246.336C537.138 246.336 536.834 246.752 536.834 247.584C536.834 248.427 537.138 248.848 537.746 248.848C538.343 248.848 538.642 248.427 538.642 247.584C538.642 246.752 538.343 246.336 537.746 246.336Z" fill="white"/>
<path d="M589.158 302.728V300.968L594.39 293.48H596.998V300.776H598.406V302.728H596.998V305H594.758V302.728H589.158ZM594.902 295.88L591.622 300.776H594.902V295.88ZM599.832 299.016C599.832 297.171 600.163 295.725 600.824 294.68C601.496 293.635 602.606 293.112 604.152 293.112C605.699 293.112 606.803 293.635 607.464 294.68C608.136 295.725 608.472 297.171 608.472 299.016C608.472 300.872 608.136 302.328 607.464 303.384C606.803 304.44 605.699 304.968 604.152 304.968C602.606 304.968 601.496 304.44 600.824 303.384C600.163 302.328 599.832 300.872 599.832 299.016ZM606.264 299.016C606.264 298.227 606.211 297.565 606.104 297.032C606.008 296.488 605.806 296.045 605.496 295.704C605.198 295.363 604.75 295.192 604.152 295.192C603.555 295.192 603.102 295.363 602.792 295.704C602.494 296.045 602.291 296.488 602.184 297.032C602.088 297.565 602.04 298.227 602.04 299.016C602.04 299.827 602.088 300.509 602.184 301.064C602.28 301.608 602.483 302.051 602.792 302.392C603.102 302.723 603.555 302.888 604.152 302.888C604.75 302.888 605.203 302.723 605.512 302.392C605.822 302.051 606.024 301.608 606.12 301.064C606.216 300.509 606.264 299.827 606.264 299.016ZM609.92 296.2C609.92 295.389 610.155 294.755 610.624 294.296C611.104 293.837 611.717 293.608 612.464 293.608C613.211 293.608 613.819 293.837 614.288 294.296C614.768 294.755 615.008 295.389 615.008 296.2C615.008 297.021 614.768 297.661 614.288 298.12C613.819 298.579 613.211 298.808 612.464 298.808C611.717 298.808 611.104 298.579 610.624 298.12C610.155 297.661 609.92 297.021 609.92 296.2ZM620.192 293.8L613.904 305H611.728L618 293.8H620.192ZM612.448 294.952C611.861 294.952 611.568 295.368 611.568 296.2C611.568 297.043 611.861 297.464 612.448 297.464C612.736 297.464 612.96 297.363 613.12 297.16C613.28 296.947 613.36 296.627 613.36 296.2C613.36 295.368 613.056 294.952 612.448 294.952ZM616.944 302.584C616.944 301.763 617.179 301.128 617.648 300.68C618.128 300.221 618.741 299.992 619.488 299.992C620.235 299.992 620.837 300.221 621.296 300.68C621.765 301.128 622 301.763 622 302.584C622 303.405 621.765 304.045 621.296 304.504C620.837 304.963 620.235 305.192 619.488 305.192C618.731 305.192 618.117 304.963 617.648 304.504C617.179 304.045 616.944 303.405 616.944 302.584ZM619.472 301.336C618.864 301.336 618.56 301.752 618.56 302.584C618.56 303.427 618.864 303.848 619.472 303.848C620.069 303.848 620.368 303.427 620.368 302.584C620.368 301.752 620.069 301.336 619.472 301.336Z" fill="white"/>
<path d="M166 52H506C510.418 52 514 55.5817 514 60V92C514 96.4183 510.418 100 506 100H166V52Z" fill="#7589E2"/>
<path d="M166 108H419C423.418 108 427 111.582 427 116V148C427 152.418 423.418 156 419 156H166V108Z" fill="#7589E2"/>
<path d="M166 164H363C367.418 164 371 167.582 371 172V204C371 208.418 367.418 212 363 212H166V164Z" fill="#7589E2"/>
<path d="M166 220H493C497.418 220 501 223.582 501 228V260C501 264.418 497.418 268 493 268H166V220Z" fill="#7589E2"/>
<defs>
<filter id="filter0_dd_726_44" x="0" y="0" width="664" height="353" filterUnits="userSpaceOnUse" color-interpolation-filters="sRGB">
<feFlood flood-opacity="0" result="BackgroundImageFix"/>
<feColorMatrix in="SourceAlpha" type="matrix" values="0 0 0 0 0 0 0 0 0 0 0 0 0 0 0 0 0 0 127 0" result="hardAlpha"/>
<feOffset dx="-8" dy="-8"/>
<feGaussianBlur stdDeviation="8"/>
<feComposite in2="hardAlpha" operator="out"/>
<feColorMatrix type="matrix" values="0 0 0 0 0.317647 0 0 0 0 0.321569 0 0 0 0 0.368627 0 0 0 1 0"/>
<feBlend mode="normal" in2="BackgroundImageFix" result="effect1_dropShadow_726_44"/>
<feColorMatrix in="SourceAlpha" type="matrix" values="0 0 0 0 0 0 0 0 0 0 0 0 0 0 0 0 0 0 127 0" result="hardAlpha"/>
<feOffset dx="8" dy="8"/>
<feGaussianBlur stdDeviation="8"/>
<feComposite in2="hardAlpha" operator="out"/>
<feColorMatrix type="matrix" values="0 0 0 0 0.0980392 0 0 0 0 0.101961 0 0 0 0 0.117647 0 0 0 1 0"/>
<feBlend mode="normal" in2="effect1_dropShadow_726_44" result="effect2_dropShadow_726_44"/>
<feBlend mode="normal" in="SourceGraphic" in2="effect2_dropShadow_726_44" result="shape"/>
</filter>
</defs>
</svg>
