<svg width="24" height="24" viewBox="0 0 24 24" fill="none" xmlns="http://www.w3.org/2000/svg">
<path fill-rule="evenodd" clip-rule="evenodd" d="M6.81599 11.52L10.128 14.832L9.11999 15.84L4.79999 11.52L9.11999 7.19995L10.128 8.20795L6.81599 11.52ZM17.184 11.52L13.872 14.832L14.88 15.84L19.2 11.52L14.88 7.19995L13.872 8.20795L17.184 11.52Z" fill="#DBDBDB"/>
<path fill-rule="evenodd" clip-rule="evenodd" d="M12 24C18.6274 24 24 18.6274 24 12C24 5.37258 18.6274 0 12 0C5.37258 0 0 5.37258 0 12C0 18.6274 5.37258 24 12 24ZM12 21.6C17.302 21.6 21.6 17.302 21.6 12C21.6 6.69806 17.302 2.4 12 2.4C6.69806 2.4 2.4 6.69806 2.4 12C2.4 17.302 6.69806 21.6 12 21.6Z" fill="#DBDBDB"/>
</svg>
