<svg width="24" height="24" viewBox="0 0 24 24" fill="none" xmlns="http://www.w3.org/2000/svg">
<path fill-rule="evenodd" clip-rule="evenodd" d="M7.52309 10.8128C7.13257 11.2034 7.13257 11.8365 7.52309 12.2271L9.62399 14.328C9.90234 14.6063 9.90234 15.0576 9.62399 15.336V15.336C9.34564 15.6143 8.89434 15.6143 8.61599 15.336L5.50709 12.2271C5.11657 11.8365 5.11657 11.2034 5.50709 10.8128L8.61599 7.70395C8.89434 7.4256 9.34564 7.4256 9.62399 7.70395V7.70395C9.90234 7.9823 9.90234 8.4336 9.62399 8.71195L7.52309 10.8128ZM16.4769 10.8128C16.8674 11.2034 16.8674 11.8365 16.4769 12.2271L14.376 14.328C14.0976 14.6063 14.0976 15.0576 14.376 15.336V15.336C14.6543 15.6143 15.1056 15.6143 15.384 15.336L18.4929 12.2271C18.8834 11.8365 18.8834 11.2034 18.4929 10.8128L15.384 7.70395C15.1056 7.4256 14.6543 7.4256 14.376 7.70395V7.70395C14.0976 7.9823 14.0976 8.4336 14.376 8.71195L16.4769 10.8128Z" fill="#9412B4"/>
<path fill-rule="evenodd" clip-rule="evenodd" d="M12 24C18.6274 24 24 18.6274 24 12C24 5.37258 18.6274 0 12 0C5.37258 0 0 5.37258 0 12C0 18.6274 5.37258 24 12 24ZM12 21.6C17.302 21.6 21.6 17.302 21.6 12C21.6 6.69806 17.302 2.4 12 2.4C6.69806 2.4 2.4 6.69806 2.4 12C2.4 17.302 6.69806 21.6 12 21.6Z" fill="#B64FD0"/>
</svg>
