<svg width="34" height="35" viewBox="0 0 34 35" fill="none" xmlns="http://www.w3.org/2000/svg">
<path d="M18.9636 34C19.6024 34 20.1203 33.4821 20.1203 32.8433C20.1203 32.2046 19.6024 31.6867 18.9636 31.6867V34ZM25.1323 31.6867C24.4935 31.6867 23.9757 32.2046 23.9757 32.8433C23.9757 33.4821 24.4935 34 25.1323 34V31.6867ZM22.8191 21.6626H26.6745V19.3494H22.8191V21.6626ZM31.6865 26.6747C31.6865 29.4427 29.4425 31.6867 26.6745 31.6867V34C30.7202 34 33.9998 30.7204 33.9998 26.6747H31.6865ZM33.9998 26.6747C33.9998 22.6289 30.7202 19.3494 26.6745 19.3494V21.6626C29.4425 21.6626 31.6865 23.9066 31.6865 26.6747H33.9998ZM18.9636 31.6867H8.16846V34H18.9636V31.6867ZM26.6745 31.6867H25.1323V34H26.6745V31.6867Z" fill="#C82E65"/>
<path d="M14.3377 11.6272L19.448 6.51697C21.857 4.10795 25.7627 4.10795 28.1717 6.51697C30.5808 8.92599 30.5808 12.8318 28.1717 15.2408L13.2681 30.1445" stroke="#A02EC8" stroke-width="3"/>
<path d="M2 11.253V8.16867C2 4.76181 4.76181 2 8.16867 2C11.5755 2 14.3373 4.76181 14.3373 8.16867V26.6747C14.3373 30.0815 11.5755 32.8434 8.16867 32.8434C4.76181 32.8434 2 30.0815 2 26.6747V17.4217" stroke="#2E51C8" stroke-width="3" stroke-linecap="round"/>
<path d="M9.7108 26.6747C9.7108 27.5265 9.02034 28.2169 8.16863 28.2169C7.31692 28.2169 6.62646 27.5265 6.62646 26.6747C6.62646 25.823 7.31692 25.1326 8.16863 25.1326C9.02034 25.1326 9.7108 25.823 9.7108 26.6747Z" stroke="#2E51C8" stroke-width="2"/>
</svg>
