<svg width="25" height="25" viewBox="0 0 25 25" fill="none" xmlns="http://www.w3.org/2000/svg">
<path d="M6.78298 20.6626H4.46973" stroke="#2E51C8" stroke-width="1.5" stroke-linecap="round"/>
<path d="M13.7228 25.0002C14.2019 25.0002 14.5903 24.6118 14.5903 24.1327C14.5903 23.6536 14.2019 23.2652 13.7228 23.2652V25.0002ZM18.3494 23.2652C17.8703 23.2652 17.4819 23.6536 17.4819 24.1327C17.4819 24.6118 17.8703 25.0002 18.3494 25.0002V23.2652ZM16.6144 15.7471H19.506V14.0122H16.6144V15.7471ZM23.265 19.5062C23.265 20.3302 23.2643 20.8961 23.2285 21.3347C23.1935 21.7632 23.1293 21.9934 23.0444 22.1601L24.5903 22.9477C24.8206 22.4957 24.9139 22.0118 24.9576 21.476C25.0007 20.9503 25 20.3016 25 19.5062H23.265ZM19.506 25.0002C20.3014 25.0002 20.9501 25.0009 21.4758 24.9578C22.0116 24.9141 22.4955 24.8208 22.9475 24.5905L22.1599 23.0447C21.9932 23.1295 21.763 23.1937 21.3345 23.2287C20.8959 23.2645 20.33 23.2652 19.506 23.2652V25.0002ZM23.0444 22.1601C22.8504 22.5409 22.5407 22.8506 22.1599 23.0447L22.9475 24.5905C23.6548 24.2301 24.2299 23.655 24.5903 22.9477L23.0444 22.1601ZM25 19.5062C25 18.7108 25.0007 18.062 24.9576 17.5363C24.9139 17.0006 24.8206 16.5167 24.5903 16.0646L23.0444 16.8523C23.1293 17.019 23.1935 17.2491 23.2285 17.6777C23.2643 18.1163 23.265 18.6822 23.265 19.5062H25ZM19.506 15.7471C20.33 15.7471 20.8959 15.7478 21.3345 15.7837C21.763 15.8186 21.9932 15.8828 22.1599 15.9677L22.9475 14.4219C22.4955 14.1916 22.0116 14.0983 21.4758 14.0545C20.9501 14.0115 20.3014 14.0122 19.506 14.0122V15.7471ZM24.5903 16.0646C24.2299 15.3574 23.6548 14.7823 22.9475 14.4219L22.1599 15.9677C22.5407 16.1618 22.8504 16.4714 23.0444 16.8523L24.5903 16.0646ZM13.7228 23.2652H5.62646V25.0002H13.7228V23.2652ZM19.506 23.2652H18.3494V25.0002H19.506V23.2652Z" fill="#C82E65"/>
<path d="M14.0856 4.38767L11.608 6.86527C10.9394 7.53387 10.6051 7.86817 10.429 8.29329C10.2529 8.71839 10.2529 9.19117 10.2529 10.1367V21.3061L20.6284 10.9306C21.7736 9.78543 22.3462 9.21288 22.5607 8.55265C22.7494 7.9719 22.7494 7.34631 22.5607 6.76557C22.3462 6.10533 21.7736 5.53278 20.6284 4.38767C19.4834 3.24257 18.9109 2.67001 18.2505 2.45549C17.6698 2.26679 17.0443 2.26679 16.4634 2.45549C15.8032 2.67001 15.2307 3.24257 14.0856 4.38767Z" stroke="#A02EC8" stroke-width="1.5"/>
<path d="M1 7.93976V5.62651C1 4.00708 1 3.19736 1.31516 2.57882C1.59239 2.03474 2.03474 1.59239 2.57882 1.31516C3.19736 1 4.00708 1 5.62651 1C7.24593 1 8.05565 1 8.67419 1.31516C9.21827 1.59239 9.66062 2.03474 9.93785 2.57882C10.253 3.19736 10.253 4.00708 10.253 5.62651V19.506C10.253 21.1254 10.253 21.9352 9.93785 22.5537C9.66062 23.0978 9.21827 23.5401 8.67419 23.8173C8.05565 24.1325 7.24593 24.1325 5.62651 24.1325C4.00708 24.1325 3.19736 24.1325 2.57882 23.8173C2.03474 23.5401 1.59239 23.0978 1.31516 22.5537C1 21.9352 1 21.1254 1 19.506V12.5663" stroke="#2E51C8" stroke-width="1.5" stroke-linecap="round"/>
</svg>
