<svg width="18" height="18" viewBox="0 0 18 18" fill="none" xmlns="http://www.w3.org/2000/svg">
<path d="M5.8 17.0001H12.2C14.4627 17.0001 15.5941 17.0001 16.297 16.2971C17 15.5942 17 14.4628 17 12.2001V11.4001C17 9.13742 17 8.00607 16.297 7.30311C15.6823 6.68841 14.74 6.61125 13 6.60156M5 6.60156C3.25998 6.61125 2.31765 6.68841 1.70294 7.30311C1 8.00607 1 9.13742 1 11.4001V12.2001C1 14.4628 1 15.5942 1.70294 16.2971C1.94278 16.5369 2.2325 16.6949 2.6 16.7991" stroke="#DBDBDB" stroke-width="1.5" stroke-linecap="round"/>
<path d="M8.99998 1V11.3999M8.99998 11.3999L6.59998 8.59992M8.99998 11.3999L11.4 8.59992" stroke="#DBDBDB" stroke-width="1.5" stroke-linecap="round" stroke-linejoin="round"/>
</svg>
