<svg width="99" height="171" viewBox="0 0 99 171" fill="none" xmlns="http://www.w3.org/2000/svg">
<path d="M87.6667 165C87.6667 167.946 90.0545 170.333 93 170.333C95.9455 170.333 98.3333 167.946 98.3333 165C98.3333 162.054 95.9455 159.667 93 159.667C90.0545 159.667 87.6667 162.054 87.6667 165ZM48.3672 22H49.3672C49.3672 21.9953 49.3672 21.9906 49.3671 21.9858L48.3672 22ZM0.666667 6C0.666667 8.94552 3.05448 11.3333 6 11.3333C8.94552 11.3333 11.3333 8.94552 11.3333 6C11.3333 3.05448 8.94552 0.666667 6 0.666667C3.05448 0.666667 0.666667 3.05448 0.666667 6ZM93 164H53.3516V166H93V164ZM53.3516 164C52.9482 164 51.9876 163.705 51.0827 162.267C50.1791 160.832 49.3672 158.289 49.3672 154H47.3672C47.3672 158.511 48.2167 161.468 49.39 163.333C50.5619 165.195 52.0935 166 53.3516 166V164ZM49.3672 154C49.3672 153.983 49.3672 153.965 49.3672 153.948C49.3672 153.93 49.3672 153.912 49.3672 153.893C49.3672 153.875 49.3672 153.857 49.3672 153.838C49.3672 153.819 49.3672 153.8 49.3672 153.78C49.3672 153.761 49.3672 153.741 49.3672 153.721C49.3672 153.701 49.3672 153.681 49.3672 153.66C49.3672 153.64 49.3672 153.619 49.3672 153.598C49.3672 153.577 49.3672 153.555 49.3672 153.534C49.3672 153.512 49.3672 153.49 49.3672 153.468C49.3672 153.446 49.3672 153.423 49.3672 153.4C49.3672 153.378 49.3672 153.355 49.3672 153.331C49.3672 153.308 49.3672 153.285 49.3672 153.261C49.3672 153.237 49.3672 153.213 49.3672 153.188C49.3672 153.164 49.3672 153.139 49.3672 153.114C49.3672 153.089 49.3672 153.064 49.3672 153.039C49.3672 153.013 49.3672 152.988 49.3672 152.962C49.3672 152.936 49.3672 152.909 49.3672 152.883C49.3672 152.856 49.3672 152.829 49.3672 152.802C49.3672 152.775 49.3672 152.748 49.3672 152.72C49.3672 152.693 49.3672 152.665 49.3672 152.637C49.3672 152.609 49.3672 152.58 49.3672 152.551C49.3672 152.523 49.3672 152.494 49.3672 152.465C49.3672 152.435 49.3672 152.406 49.3672 152.376C49.3672 152.347 49.3672 152.317 49.3672 152.286C49.3672 152.256 49.3672 152.226 49.3672 152.195C49.3672 152.164 49.3672 152.133 49.3672 152.102C49.3672 152.07 49.3672 152.039 49.3672 152.007C49.3672 151.975 49.3672 151.943 49.3672 151.911C49.3672 151.878 49.3672 151.846 49.3672 151.813C49.3672 151.78 49.3672 151.747 49.3672 151.714C49.3672 151.68 49.3672 151.647 49.3672 151.613C49.3672 151.579 49.3672 151.545 49.3672 151.51C49.3672 151.476 49.3672 151.441 49.3672 151.407C49.3672 151.372 49.3672 151.337 49.3672 151.301C49.3672 151.266 49.3672 151.23 49.3672 151.194C49.3672 151.158 49.3672 151.122 49.3672 151.086C49.3672 151.049 49.3672 151.013 49.3672 150.976C49.3672 150.939 49.3672 150.902 49.3672 150.864C49.3672 150.827 49.3672 150.789 49.3672 150.751C49.3672 150.713 49.3672 150.675 49.3672 150.637C49.3672 150.598 49.3672 150.56 49.3672 150.521C49.3672 150.482 49.3672 150.443 49.3672 150.404C49.3672 150.364 49.3672 150.325 49.3672 150.285C49.3672 150.245 49.3672 150.205 49.3672 150.164C49.3672 150.124 49.3672 150.083 49.3672 150.042C49.3672 150.002 49.3672 149.96 49.3672 149.919C49.3672 149.878 49.3672 149.836 49.3672 149.794C49.3672 149.753 49.3672 149.71 49.3672 149.668C49.3672 149.626 49.3672 149.583 49.3672 149.54C49.3672 149.498 49.3672 149.455 49.3672 149.411C49.3672 149.368 49.3672 149.325 49.3672 149.281C49.3672 149.237 49.3672 149.193 49.3672 149.149C49.3672 149.105 49.3672 149.06 49.3672 149.016C49.3672 148.971 49.3672 148.926 49.3672 148.881C49.3672 148.836 49.3672 148.79 49.3672 148.745C49.3672 148.699 49.3672 148.653 49.3672 148.607C49.3672 148.561 49.3672 148.514 49.3672 148.468C49.3672 148.421 49.3672 148.375 49.3672 148.327C49.3672 148.28 49.3672 148.233 49.3672 148.186C49.3672 148.138 49.3672 148.09 49.3672 148.042C49.3672 147.994 49.3672 147.946 49.3672 147.898C49.3672 147.849 49.3672 147.801 49.3672 147.752C49.3672 147.703 49.3672 147.654 49.3672 147.605C49.3672 147.555 49.3672 147.506 49.3672 147.456C49.3672 147.406 49.3672 147.356 49.3672 147.306C49.3672 147.256 49.3672 147.205 49.3672 147.154C49.3672 147.104 49.3672 147.053 49.3672 147.002C49.3672 146.95 49.3672 146.899 49.3672 146.847C49.3672 146.796 49.3672 146.744 49.3672 146.692C49.3672 146.64 49.3672 146.588 49.3672 146.535C49.3672 146.483 49.3672 146.43 49.3672 146.377C49.3672 146.324 49.3672 146.271 49.3672 146.218C49.3672 146.164 49.3672 146.111 49.3672 146.057C49.3672 146.003 49.3672 145.949 49.3672 145.895C49.3672 145.841 49.3672 145.786 49.3672 145.731C49.3672 145.677 49.3672 145.622 49.3672 145.567C49.3672 145.512 49.3672 145.456 49.3672 145.401C49.3672 145.345 49.3672 145.289 49.3672 145.233C49.3672 145.177 49.3672 145.121 49.3672 145.065C49.3672 145.008 49.3672 144.952 49.3672 144.895C49.3672 144.838 49.3672 144.781 49.3672 144.724C49.3672 144.667 49.3672 144.609 49.3672 144.551C49.3672 144.494 49.3672 144.436 49.3672 144.378C49.3672 144.32 49.3672 144.261 49.3672 144.203C49.3672 144.144 49.3672 144.086 49.3672 144.027C49.3672 143.968 49.3672 143.909 49.3672 143.849C49.3672 143.79 49.3672 143.73 49.3672 143.67C49.3672 143.611 49.3672 143.551 49.3672 143.491C49.3672 143.43 49.3672 143.37 49.3672 143.309C49.3672 143.249 49.3672 143.188 49.3672 143.127C49.3672 143.066 49.3672 143.005 49.3672 142.943C49.3672 142.882 49.3672 142.82 49.3672 142.758C49.3672 142.697 49.3672 142.635 49.3672 142.572C49.3672 142.51 49.3672 142.448 49.3672 142.385C49.3672 142.322 49.3672 142.26 49.3672 142.197C49.3672 142.134 49.3672 142.07 49.3672 142.007C49.3672 141.943 49.3672 141.88 49.3672 141.816C49.3672 141.752 49.3672 141.688 49.3672 141.624C49.3672 141.56 49.3672 141.495 49.3672 141.431C49.3672 141.366 49.3672 141.301 49.3672 141.236C49.3672 141.171 49.3672 141.106 49.3672 141.041C49.3672 140.975 49.3672 140.91 49.3672 140.844C49.3672 140.778 49.3672 140.712 49.3672 140.646C49.3672 140.58 49.3672 140.513 49.3672 140.447C49.3672 140.38 49.3672 140.313 49.3672 140.247C49.3672 140.18 49.3672 140.112 49.3672 140.045C49.3672 139.978 49.3672 139.91 49.3672 139.843C49.3672 139.775 49.3672 139.707 49.3672 139.639C49.3672 139.571 49.3672 139.503 49.3672 139.434C49.3672 139.366 49.3672 139.297 49.3672 139.228C49.3672 139.159 49.3672 139.09 49.3672 139.021C49.3672 138.952 49.3672 138.882 49.3672 138.813C49.3672 138.743 49.3672 138.674 49.3672 138.604C49.3672 138.534 49.3672 138.464 49.3672 138.393C49.3672 138.323 49.3672 138.252 49.3672 138.182C49.3672 138.111 49.3672 138.04 49.3672 137.969C49.3672 137.898 49.3672 137.827 49.3672 137.755C49.3672 137.684 49.3672 137.612 49.3672 137.541C49.3672 137.469 49.3672 137.397 49.3672 137.325C49.3672 137.253 49.3672 137.18 49.3672 137.108C49.3672 137.035 49.3672 136.963 49.3672 136.89C49.3672 136.817 49.3672 136.744 49.3672 136.671C49.3672 136.598 49.3672 136.524 49.3672 136.451C49.3672 136.377 49.3672 136.303 49.3672 136.23C49.3672 136.156 49.3672 136.082 49.3672 136.007C49.3672 135.933 49.3672 135.859 49.3672 135.784C49.3672 135.709 49.3672 135.635 49.3672 135.56C49.3672 135.485 49.3672 135.41 49.3672 135.334C49.3672 135.259 49.3672 135.184 49.3672 135.108C49.3672 135.032 49.3672 134.957 49.3672 134.881C49.3672 134.805 49.3672 134.729 49.3672 134.652C49.3672 134.576 49.3672 134.499 49.3672 134.423C49.3672 134.346 49.3672 134.269 49.3672 134.192C49.3672 134.115 49.3672 134.038 49.3672 133.961C49.3672 133.884 49.3672 133.806 49.3672 133.729C49.3672 133.651 49.3672 133.573 49.3672 133.495C49.3672 133.417 49.3672 133.339 49.3672 133.261C49.3672 133.182 49.3672 133.104 49.3672 133.025C49.3672 132.947 49.3672 132.868 49.3672 132.789C49.3672 132.71 49.3672 132.631 49.3672 132.552C49.3672 132.472 49.3672 132.393 49.3672 132.313C49.3672 132.234 49.3672 132.154 49.3672 132.074C49.3672 131.994 49.3672 131.914 49.3672 131.834C49.3672 131.754 49.3672 131.673 49.3672 131.593C49.3672 131.512 49.3672 131.431 49.3672 131.351C49.3672 131.27 49.3672 131.189 49.3672 131.108C49.3672 131.026 49.3672 130.945 49.3672 130.864C49.3672 130.782 49.3672 130.7 49.3672 130.619C49.3672 130.537 49.3672 130.455 49.3672 130.373C49.3672 130.291 49.3672 130.208 49.3672 130.126C49.3672 130.044 49.3672 129.961 49.3672 129.878C49.3672 129.796 49.3672 129.713 49.3672 129.63C49.3672 129.547 49.3672 129.464 49.3672 129.38C49.3672 129.297 49.3672 129.214 49.3672 129.13C49.3672 129.046 49.3672 128.963 49.3672 128.879C49.3672 128.795 49.3672 128.711 49.3672 128.627C49.3672 128.542 49.3672 128.458 49.3672 128.373C49.3672 128.289 49.3672 128.204 49.3672 128.12C49.3672 128.035 49.3672 127.95 49.3672 127.865C49.3672 127.78 49.3672 127.694 49.3672 127.609C49.3672 127.524 49.3672 127.438 49.3672 127.353C49.3672 127.267 49.3672 127.181 49.3672 127.095C49.3672 127.009 49.3672 126.923 49.3672 126.837C49.3672 126.751 49.3672 126.664 49.3672 126.578C49.3672 126.491 49.3672 126.405 49.3672 126.318C49.3672 126.231 49.3672 126.144 49.3672 126.057C49.3672 125.97 49.3672 125.883 49.3672 125.796C49.3672 125.708 49.3672 125.621 49.3672 125.533C49.3672 125.446 49.3672 125.358 49.3672 125.27C49.3672 125.182 49.3672 125.094 49.3672 125.006C49.3672 124.918 49.3672 124.83 49.3672 124.741C49.3672 124.653 49.3672 124.564 49.3672 124.476C49.3672 124.387 49.3672 124.298 49.3672 124.209C49.3672 124.12 49.3672 124.031 49.3672 123.942C49.3672 123.853 49.3672 123.763 49.3672 123.674C49.3672 123.584 49.3672 123.495 49.3672 123.405C49.3672 123.315 49.3672 123.226 49.3672 123.136C49.3672 123.046 49.3672 122.955 49.3672 122.865C49.3672 122.775 49.3672 122.685 49.3672 122.594C49.3672 122.504 49.3672 122.413 49.3672 122.322C49.3672 122.231 49.3672 122.141 49.3672 122.05C49.3672 121.959 49.3672 121.867 49.3672 121.776C49.3672 121.685 49.3672 121.593 49.3672 121.502C49.3672 121.41 49.3672 121.319 49.3672 121.227C49.3672 121.135 49.3672 121.043 49.3672 120.951C49.3672 120.859 49.3672 120.767 49.3672 120.675C49.3672 120.583 49.3672 120.491 49.3672 120.398C49.3672 120.306 49.3672 120.213 49.3672 120.12C49.3672 120.028 49.3672 119.935 49.3672 119.842C49.3672 119.749 49.3672 119.656 49.3672 119.563C49.3672 119.469 49.3672 119.376 49.3672 119.283C49.3672 119.189 49.3672 119.096 49.3672 119.002C49.3672 118.908 49.3672 118.815 49.3672 118.721C49.3672 118.627 49.3672 118.533 49.3672 118.439C49.3672 118.345 49.3672 118.25 49.3672 118.156C49.3672 118.062 49.3672 117.967 49.3672 117.873C49.3672 117.778 49.3672 117.683 49.3672 117.589C49.3672 117.494 49.3672 117.399 49.3672 117.304C49.3672 117.209 49.3672 117.114 49.3672 117.018C49.3672 116.923 49.3672 116.828 49.3672 116.732C49.3672 116.637 49.3672 116.541 49.3672 116.446C49.3672 116.35 49.3672 116.254 49.3672 116.158C49.3672 116.062 49.3672 115.966 49.3672 115.87C49.3672 115.774 49.3672 115.678 49.3672 115.582C49.3672 115.485 49.3672 115.389 49.3672 115.292C49.3672 115.196 49.3672 115.099 49.3672 115.003C49.3672 114.906 49.3672 114.809 49.3672 114.712C49.3672 114.615 49.3672 114.518 49.3672 114.421C49.3672 114.324 49.3672 114.227 49.3672 114.129C49.3672 114.032 49.3672 113.935 49.3672 113.837C49.3672 113.739 49.3672 113.642 49.3672 113.544C49.3672 113.446 49.3672 113.348 49.3672 113.251C49.3672 113.153 49.3672 113.055 49.3672 112.956C49.3672 112.858 49.3672 112.76 49.3672 112.662C49.3672 112.563 49.3672 112.465 49.3672 112.366C49.3672 112.268 49.3672 112.169 49.3672 112.071C49.3672 111.972 49.3672 111.873 49.3672 111.774C49.3672 111.675 49.3672 111.576 49.3672 111.477C49.3672 111.378 49.3672 111.279 49.3672 111.18C49.3672 111.08 49.3672 110.981 49.3672 110.881C49.3672 110.782 49.3672 110.682 49.3672 110.583C49.3672 110.483 49.3672 110.383 49.3672 110.284C49.3672 110.184 49.3672 110.084 49.3672 109.984C49.3672 109.884 49.3672 109.784 49.3672 109.684C49.3672 109.583 49.3672 109.483 49.3672 109.383C49.3672 109.282 49.3672 109.182 49.3672 109.082C49.3672 108.981 49.3672 108.88 49.3672 108.78C49.3672 108.679 49.3672 108.578 49.3672 108.477C49.3672 108.376 49.3672 108.276 49.3672 108.175C49.3672 108.073 49.3672 107.972 49.3672 107.871C49.3672 107.77 49.3672 107.669 49.3672 107.567C49.3672 107.466 49.3672 107.364 49.3672 107.263C49.3672 107.161 49.3672 107.06 49.3672 106.958C49.3672 106.856 49.3672 106.755 49.3672 106.653C49.3672 106.551 49.3672 106.449 49.3672 106.347C49.3672 106.245 49.3672 106.143 49.3672 106.041C49.3672 105.939 49.3672 105.836 49.3672 105.734C49.3672 105.632 49.3672 105.529 49.3672 105.427C49.3672 105.324 49.3672 105.222 49.3672 105.119C49.3672 105.017 49.3672 104.914 49.3672 104.811C49.3672 104.708 49.3672 104.606 49.3672 104.503C49.3672 104.4 49.3672 104.297 49.3672 104.194C49.3672 104.091 49.3672 103.988 49.3672 103.884C49.3672 103.781 49.3672 103.678 49.3672 103.574C49.3672 103.471 49.3672 103.368 49.3672 103.264C49.3672 103.161 49.3672 103.057 49.3672 102.954C49.3672 102.85 49.3672 102.746 49.3672 102.642C49.3672 102.539 49.3672 102.435 49.3672 102.331C49.3672 102.227 49.3672 102.123 49.3672 102.019C49.3672 101.915 49.3672 101.811 49.3672 101.707C49.3672 101.603 49.3672 101.498 49.3672 101.394C49.3672 101.29 49.3672 101.185 49.3672 101.081C49.3672 100.977 49.3672 100.872 49.3672 100.768C49.3672 100.663 49.3672 100.558 49.3672 100.454C49.3672 100.349 49.3672 100.244 49.3672 100.14C49.3672 100.035 49.3672 99.9299 49.3672 99.825C49.3672 99.7201 49.3672 99.6151 49.3672 99.5101C49.3672 99.405 49.3672 99.2999 49.3672 99.1948C49.3672 99.0896 49.3672 98.9844 49.3672 98.8792C49.3672 98.7739 49.3672 98.6686 49.3672 98.5632C49.3672 98.4578 49.3672 98.3524 49.3672 98.2469C49.3672 98.1414 49.3672 98.0358 49.3672 97.9302C49.3672 97.8246 49.3672 97.7189 49.3672 97.6132C49.3672 97.5075 49.3672 97.4017 49.3672 97.2959C49.3672 97.1901 49.3672 97.0842 49.3672 96.9783C49.3672 96.8724 49.3672 96.7664 49.3672 96.6604C49.3672 96.5543 49.3672 96.4482 49.3672 96.3421C49.3672 96.236 49.3672 96.1298 49.3672 96.0236C49.3672 95.9173 49.3672 95.811 49.3672 95.7047C49.3672 95.5984 49.3672 95.492 49.3672 95.3856C49.3672 95.2791 49.3672 95.1727 49.3672 95.0661C49.3672 94.9596 49.3672 94.853 49.3672 94.7464C49.3672 94.6398 49.3672 94.5331 49.3672 94.4264C49.3672 94.3197 49.3672 94.213 49.3672 94.1062C49.3672 93.9994 49.3672 93.8925 49.3672 93.7856C49.3672 93.6788 49.3672 93.5718 49.3672 93.4649C49.3672 93.3579 49.3672 93.2509 49.3672 93.1438C49.3672 93.0367 49.3672 92.9296 49.3672 92.8225C49.3672 92.7154 49.3672 92.6082 49.3672 92.501C49.3672 92.3937 49.3672 92.2865 49.3672 92.1792C49.3672 92.0719 49.3672 91.9645 49.3672 91.8571C49.3672 91.7498 49.3672 91.6424 49.3672 91.5349C49.3672 91.4274 49.3672 91.3199 49.3672 91.2124C49.3672 91.1049 49.3672 90.9973 49.3672 90.8897C49.3672 90.7821 49.3672 90.6745 49.3672 90.5668C49.3672 90.4591 49.3672 90.3514 49.3672 90.2437C49.3672 90.1359 49.3672 90.0282 49.3672 89.9204C49.3672 89.8125 49.3672 89.7047 49.3672 89.5968C49.3672 89.489 49.3672 89.381 49.3672 89.2731C49.3672 89.1652 49.3672 89.0572 49.3672 88.9492C49.3672 88.8412 49.3672 88.7332 49.3672 88.6251C49.3672 88.517 49.3672 88.4089 49.3672 88.3008C49.3672 88.1927 49.3672 88.0846 49.3672 87.9764C49.3672 87.8682 49.3672 87.76 49.3672 87.6518C49.3672 87.5435 49.3672 87.4353 49.3672 87.327C49.3672 87.2187 49.3672 87.1104 49.3672 87.0021C49.3672 86.8937 49.3672 86.7854 49.3672 86.677C49.3672 86.5686 49.3672 86.4602 49.3672 86.3517C49.3672 86.2433 49.3672 86.1348 49.3672 86.0264C49.3672 85.9179 49.3672 85.8094 49.3672 85.7009C49.3672 85.5923 49.3672 85.4838 49.3672 85.3752C49.3672 85.2666 49.3672 85.158 49.3672 85.0494C49.3672 84.9408 49.3672 84.8322 49.3672 84.7235C49.3672 84.6149 49.3672 84.5062 49.3672 84.3975C49.3672 84.2889 49.3672 84.1801 49.3672 84.0714C49.3672 83.9627 49.3672 83.854 49.3672 83.7452C49.3672 83.6364 49.3672 83.5277 49.3672 83.4189C49.3672 83.3101 49.3672 83.2013 49.3672 83.0925C49.3672 82.9836 49.3672 82.8748 49.3672 82.7659C49.3672 82.6571 49.3672 82.5482 49.3672 82.4394C49.3672 82.3305 49.3672 82.2216 49.3672 82.1127C49.3672 82.0038 49.3672 81.8949 49.3672 81.7859C49.3672 81.677 49.3672 81.5681 49.3672 81.4591C49.3672 81.3502 49.3672 81.2412 49.3672 81.1322C49.3672 81.0233 49.3672 80.9143 49.3672 80.8053C49.3672 80.6963 49.3672 80.5873 49.3672 80.4783C49.3672 80.3693 49.3672 80.2603 49.3672 80.1513C49.3672 80.0423 49.3672 79.9332 49.3672 79.8242C49.3672 79.7152 49.3672 79.6061 49.3672 79.4971C49.3672 79.388 49.3672 79.279 49.3672 79.1699C49.3672 79.0609 49.3672 78.9518 49.3672 78.8427C49.3672 78.7337 49.3672 78.6246 49.3672 78.5155C49.3672 78.4065 49.3672 78.2974 49.3672 78.1883C49.3672 78.0792 49.3672 77.9702 49.3672 77.8611C49.3672 77.752 49.3672 77.6429 49.3672 77.5339C49.3672 77.4248 49.3672 77.3157 49.3672 77.2066C49.3672 77.0975 49.3672 76.9885 49.3672 76.8794C49.3672 76.7703 49.3672 76.6612 49.3672 76.5522C49.3672 76.4431 49.3672 76.334 49.3672 76.2249C49.3672 76.1159 49.3672 76.0068 49.3672 75.8978C49.3672 75.7887 49.3672 75.6796 49.3672 75.5706C49.3672 75.4615 49.3672 75.3525 49.3672 75.2435C49.3672 75.1344 49.3672 75.0254 49.3672 74.9164C49.3672 74.8073 49.3672 74.6983 49.3672 74.5893C49.3672 74.4803 49.3672 74.3713 49.3672 74.2623C49.3672 74.1533 49.3672 74.0443 49.3672 73.9353C49.3672 73.8263 49.3672 73.7174 49.3672 73.6084C49.3672 73.4995 49.3672 73.3905 49.3672 73.2816C49.3672 73.1726 49.3672 73.0637 49.3672 72.9548C49.3672 72.8459 49.3672 72.737 49.3672 72.6281C49.3672 72.5192 49.3672 72.4103 49.3672 72.3015C49.3672 72.1926 49.3672 72.0837 49.3672 71.9749C49.3672 71.8661 49.3672 71.7572 49.3672 71.6484C49.3672 71.5396 49.3672 71.4308 49.3672 71.3221C49.3672 71.2133 49.3672 71.1045 49.3672 70.9958C49.3672 70.8871 49.3672 70.7783 49.3672 70.6696C49.3672 70.5609 49.3672 70.4522 49.3672 70.3436C49.3672 70.2349 49.3672 70.1263 49.3672 70.0176C49.3672 69.909 49.3672 69.8004 49.3672 69.6918C49.3672 69.5832 49.3672 69.4746 49.3672 69.3661C49.3672 69.2576 49.3672 69.149 49.3672 69.0405C49.3672 68.932 49.3672 68.8235 49.3672 68.7151C49.3672 68.6066 49.3672 68.4982 49.3672 68.3898C49.3672 68.2814 49.3672 68.173 49.3672 68.0646C49.3672 67.9563 49.3672 67.8479 49.3672 67.7396C49.3672 67.6313 49.3672 67.523 49.3672 67.4148C49.3672 67.3065 49.3672 67.1983 49.3672 67.0901C49.3672 66.9819 49.3672 66.8737 49.3672 66.7656C49.3672 66.6574 49.3672 66.5493 49.3672 66.4412C49.3672 66.3331 49.3672 66.2251 49.3672 66.117C49.3672 66.009 49.3672 65.901 49.3672 65.793C49.3672 65.6851 49.3672 65.5771 49.3672 65.4692C49.3672 65.3613 49.3672 65.2534 49.3672 65.1456C49.3672 65.0378 49.3672 64.93 49.3672 64.8222C49.3672 64.7144 49.3672 64.6067 49.3672 64.499C49.3672 64.3913 49.3672 64.2836 49.3672 64.176C49.3672 64.0683 49.3672 63.9607 49.3672 63.8532C49.3672 63.7456 49.3672 63.6381 49.3672 63.5306C49.3672 63.4231 49.3672 63.3156 49.3672 63.2082C49.3672 63.1008 49.3672 62.9934 49.3672 62.8861C49.3672 62.7787 49.3672 62.6714 49.3672 62.5642C49.3672 62.4569 49.3672 62.3497 49.3672 62.2425C49.3672 62.1353 49.3672 62.0282 49.3672 61.9211C49.3672 61.814 49.3672 61.707 49.3672 61.5999C49.3672 61.4929 49.3672 61.386 49.3672 61.279C49.3672 61.1721 49.3672 61.0652 49.3672 60.9584C49.3672 60.8515 49.3672 60.7447 49.3672 60.638C49.3672 60.5312 49.3672 60.4245 49.3672 60.3179C49.3672 60.2112 49.3672 60.1046 49.3672 59.998C49.3672 59.8915 49.3672 59.7849 49.3672 59.6785C49.3672 59.572 49.3672 59.4656 49.3672 59.3592C49.3672 59.2528 49.3672 59.1465 49.3672 59.0402C49.3672 58.9339 49.3672 58.8277 49.3672 58.7215C49.3672 58.6153 49.3672 58.5092 49.3672 58.4031C49.3672 58.297 49.3672 58.191 49.3672 58.085C49.3672 57.9791 49.3672 57.8731 49.3672 57.7673C49.3672 57.6614 49.3672 57.5556 49.3672 57.4498C49.3672 57.344 49.3672 57.2383 49.3672 57.1327C49.3672 57.027 49.3672 56.9214 49.3672 56.8159C49.3672 56.7103 49.3672 56.6048 49.3672 56.4994C49.3672 56.394 49.3672 56.2886 49.3672 56.1833C49.3672 56.0779 49.3672 55.9727 49.3672 55.8675C49.3672 55.7623 49.3672 55.6571 49.3672 55.552C49.3672 55.4469 49.3672 55.3419 49.3672 55.2369C49.3672 55.132 49.3672 55.0271 49.3672 54.9222C49.3672 54.8174 49.3672 54.7126 49.3672 54.6078C49.3672 54.5031 49.3672 54.3984 49.3672 54.2938C49.3672 54.1892 49.3672 54.0847 49.3672 53.9802C49.3672 53.8757 49.3672 53.7713 49.3672 53.667C49.3672 53.5626 49.3672 53.4583 49.3672 53.3541C49.3672 53.2499 49.3672 53.1457 49.3672 53.0416C49.3672 52.9375 49.3672 52.8335 49.3672 52.7295C49.3672 52.6256 49.3672 52.5217 49.3672 52.4179C49.3672 52.314 49.3672 52.2103 49.3672 52.1066C49.3672 52.0029 49.3672 51.8993 49.3672 51.7957C49.3672 51.6922 49.3672 51.5887 49.3672 51.4853C49.3672 51.3819 49.3672 51.2785 49.3672 51.1753C49.3672 51.072 49.3672 50.9688 49.3672 50.8657C49.3672 50.7625 49.3672 50.6595 49.3672 50.5565C49.3672 50.4535 49.3672 50.3506 49.3672 50.2478C49.3672 50.1449 49.3672 50.0422 49.3672 49.9395C49.3672 49.8368 49.3672 49.7342 49.3672 49.6316C49.3672 49.5291 49.3672 49.4266 49.3672 49.3242C49.3672 49.2219 49.3672 49.1195 49.3672 49.0173C49.3672 48.9151 49.3672 48.8129 49.3672 48.7108C49.3672 48.6088 49.3672 48.5068 49.3672 48.4048C49.3672 48.3029 49.3672 48.2011 49.3672 48.0993C49.3672 47.9975 49.3672 47.8959 49.3672 47.7943C49.3672 47.6927 49.3672 47.5911 49.3672 47.4897C49.3672 47.3882 49.3672 47.2869 49.3672 47.1856C49.3672 47.0843 49.3672 46.9831 49.3672 46.882C49.3672 46.7809 49.3672 46.6799 49.3672 46.5789C49.3672 46.478 49.3672 46.3771 49.3672 46.2764C49.3672 46.1756 49.3672 46.0749 49.3672 45.9743C49.3672 45.8737 49.3672 45.7732 49.3672 45.6727C49.3672 45.5723 49.3672 45.472 49.3672 45.3717C49.3672 45.2714 49.3672 45.1713 49.3672 45.0712C49.3672 44.9711 49.3672 44.8711 49.3672 44.7712C49.3672 44.6713 49.3672 44.5715 49.3672 44.4718C49.3672 44.372 49.3672 44.2724 49.3672 44.1729C49.3672 44.0733 49.3672 43.9739 49.3672 43.8745C49.3672 43.7751 49.3672 43.6759 49.3672 43.5767C49.3672 43.4775 49.3672 43.3784 49.3672 43.2794C49.3672 43.1805 49.3672 43.0816 49.3672 42.9828C49.3672 42.8839 49.3672 42.7852 49.3672 42.6866C49.3672 42.588 49.3672 42.4895 49.3672 42.3911C49.3672 42.2927 49.3672 42.1943 49.3672 42.0961C49.3672 41.9979 49.3672 41.8998 49.3672 41.8017C49.3672 41.7037 49.3672 41.6058 49.3672 41.5079C49.3672 41.4101 49.3672 41.3123 49.3672 41.2147C49.3672 41.1171 49.3672 41.0195 49.3672 40.9221C49.3672 40.8247 49.3672 40.7273 49.3672 40.6301C49.3672 40.5329 49.3672 40.4357 49.3672 40.3387C49.3672 40.2417 49.3672 40.1447 49.3672 40.0479C49.3672 39.9511 49.3672 39.8544 49.3672 39.7577C49.3672 39.6611 49.3672 39.5646 49.3672 39.4682C49.3672 39.3718 49.3672 39.2755 49.3672 39.1793C49.3672 39.0831 49.3672 38.987 49.3672 38.891C49.3672 38.795 49.3672 38.6992 49.3672 38.6034C49.3672 38.5076 49.3672 38.4119 49.3672 38.3164C49.3672 38.2208 49.3672 38.1254 49.3672 38.03C49.3672 37.9347 49.3672 37.8395 49.3672 37.7444C49.3672 37.6492 49.3672 37.5542 49.3672 37.4593C49.3672 37.3644 49.3672 37.2696 49.3672 37.175C49.3672 37.0803 49.3672 36.9857 49.3672 36.8913C49.3672 36.7968 49.3672 36.7025 49.3672 36.6083C49.3672 36.5141 49.3672 36.4199 49.3672 36.3259C49.3672 36.2319 49.3672 36.1381 49.3672 36.0443C49.3672 35.9505 49.3672 35.8569 49.3672 35.7634C49.3672 35.6698 49.3672 35.5764 49.3672 35.4831C49.3672 35.3898 49.3672 35.2966 49.3672 35.2035C49.3672 35.1105 49.3672 35.0175 49.3672 34.9247C49.3672 34.8319 49.3672 34.7392 49.3672 34.6466C49.3672 34.554 49.3672 34.4615 49.3672 34.3692C49.3672 34.2768 49.3672 34.1846 49.3672 34.0925C49.3672 34.0004 49.3672 33.9084 49.3672 33.8165C49.3672 33.7246 49.3672 33.6329 49.3672 33.5413C49.3672 33.4497 49.3672 33.3582 49.3672 33.2668C49.3672 33.1754 49.3672 33.0842 49.3672 32.993C49.3672 32.9019 49.3672 32.8109 49.3672 32.7201C49.3672 32.6292 49.3672 32.5384 49.3672 32.4478C49.3672 32.3572 49.3672 32.2667 49.3672 32.1763C49.3672 32.086 49.3672 31.9957 49.3672 31.9056C49.3672 31.8155 49.3672 31.7255 49.3672 31.6357C49.3672 31.5458 49.3672 31.4561 49.3672 31.3665C49.3672 31.2769 49.3672 31.1874 49.3672 31.0981C49.3672 31.0088 49.3672 30.9196 49.3672 30.8305C49.3672 30.7414 49.3672 30.6525 49.3672 30.5637C49.3672 30.4749 49.3672 30.3862 49.3672 30.2977C49.3672 30.2091 49.3672 30.1207 49.3672 30.0325C49.3672 29.9442 49.3672 29.8561 49.3672 29.7681C49.3672 29.6801 49.3672 29.5922 49.3672 29.5045C49.3672 29.4167 49.3672 29.3291 49.3672 29.2417C49.3672 29.1542 49.3672 29.0669 49.3672 28.9797C49.3672 28.8926 49.3672 28.8055 49.3672 28.7186C49.3672 28.6317 49.3672 28.5449 49.3672 28.4583C49.3672 28.3717 49.3672 28.2852 49.3672 28.1989C49.3672 28.1125 49.3672 28.0263 49.3672 27.9402C49.3672 27.8542 49.3672 27.7683 49.3672 27.6825C49.3672 27.5967 49.3672 27.5111 49.3672 27.4256C49.3672 27.3401 49.3672 27.2547 49.3672 27.1695C49.3672 27.0843 49.3672 26.9992 49.3672 26.9143C49.3672 26.8294 49.3672 26.7446 49.3672 26.66C49.3672 26.5754 49.3672 26.4909 49.3672 26.4065C49.3672 26.3222 49.3672 26.238 49.3672 26.154C49.3672 26.0699 49.3672 25.986 49.3672 25.9023C49.3672 25.8186 49.3672 25.735 49.3672 25.6515C49.3672 25.5681 49.3672 25.4848 49.3672 25.4016C49.3672 25.3185 49.3672 25.2355 49.3672 25.1526C49.3672 25.0698 49.3672 24.9871 49.3672 24.9045C49.3672 24.822 49.3672 24.7396 49.3672 24.6574C49.3672 24.5751 49.3672 24.493 49.3672 24.4111C49.3672 24.3292 49.3672 24.2474 49.3672 24.1657C49.3672 24.0841 49.3672 24.0026 49.3672 23.9213C49.3672 23.84 49.3672 23.7589 49.3672 23.6778C49.3672 23.5968 49.3672 23.516 49.3672 23.4353C49.3672 23.3546 49.3672 23.2741 49.3672 23.1937C49.3672 23.1133 49.3672 23.0331 49.3672 22.953C49.3672 22.873 49.3672 22.7931 49.3672 22.7133C49.3672 22.6336 49.3672 22.554 49.3672 22.4746C49.3672 22.3952 49.3672 22.3159 49.3672 22.2368C49.3672 22.1577 49.3672 22.0788 49.3672 22H47.3672C47.3672 22.0788 47.3672 22.1577 47.3672 22.2368C47.3672 22.3159 47.3672 22.3952 47.3672 22.4746C47.3672 22.554 47.3672 22.6336 47.3672 22.7133C47.3672 22.7931 47.3672 22.873 47.3672 22.953C47.3672 23.0331 47.3672 23.1133 47.3672 23.1937C47.3672 23.2741 47.3672 23.3546 47.3672 23.4353C47.3672 23.516 47.3672 23.5968 47.3672 23.6778C47.3672 23.7589 47.3672 23.84 47.3672 23.9213C47.3672 24.0026 47.3672 24.0841 47.3672 24.1657C47.3672 24.2474 47.3672 24.3292 47.3672 24.4111C47.3672 24.493 47.3672 24.5751 47.3672 24.6574C47.3672 24.7396 47.3672 24.822 47.3672 24.9045C47.3672 24.9871 47.3672 25.0698 47.3672 25.1526C47.3672 25.2355 47.3672 25.3185 47.3672 25.4016C47.3672 25.4848 47.3672 25.5681 47.3672 25.6515C47.3672 25.735 47.3672 25.8186 47.3672 25.9023C47.3672 25.986 47.3672 26.0699 47.3672 26.154C47.3672 26.238 47.3672 26.3222 47.3672 26.4065C47.3672 26.4909 47.3672 26.5754 47.3672 26.66C47.3672 26.7446 47.3672 26.8294 47.3672 26.9143C47.3672 26.9992 47.3672 27.0843 47.3672 27.1695C47.3672 27.2547 47.3672 27.3401 47.3672 27.4256C47.3672 27.5111 47.3672 27.5967 47.3672 27.6825C47.3672 27.7683 47.3672 27.8542 47.3672 27.9402C47.3672 28.0263 47.3672 28.1125 47.3672 28.1989C47.3672 28.2852 47.3672 28.3717 47.3672 28.4583C47.3672 28.5449 47.3672 28.6317 47.3672 28.7186C47.3672 28.8055 47.3672 28.8926 47.3672 28.9797C47.3672 29.0669 47.3672 29.1542 47.3672 29.2417C47.3672 29.3291 47.3672 29.4167 47.3672 29.5045C47.3672 29.5922 47.3672 29.6801 47.3672 29.7681C47.3672 29.8561 47.3672 29.9442 47.3672 30.0325C47.3672 30.1207 47.3672 30.2091 47.3672 30.2977C47.3672 30.3862 47.3672 30.4749 47.3672 30.5637C47.3672 30.6525 47.3672 30.7414 47.3672 30.8305C47.3672 30.9196 47.3672 31.0088 47.3672 31.0981C47.3672 31.1874 47.3672 31.2769 47.3672 31.3665C47.3672 31.4561 47.3672 31.5458 47.3672 31.6357C47.3672 31.7255 47.3672 31.8155 47.3672 31.9056C47.3672 31.9957 47.3672 32.086 47.3672 32.1763C47.3672 32.2667 47.3672 32.3572 47.3672 32.4478C47.3672 32.5384 47.3672 32.6292 47.3672 32.7201C47.3672 32.8109 47.3672 32.9019 47.3672 32.993C47.3672 33.0842 47.3672 33.1754 47.3672 33.2668C47.3672 33.3582 47.3672 33.4497 47.3672 33.5413C47.3672 33.6329 47.3672 33.7246 47.3672 33.8165C47.3672 33.9084 47.3672 34.0004 47.3672 34.0925C47.3672 34.1846 47.3672 34.2768 47.3672 34.3692C47.3672 34.4615 47.3672 34.554 47.3672 34.6466C47.3672 34.7392 47.3672 34.8319 47.3672 34.9247C47.3672 35.0175 47.3672 35.1105 47.3672 35.2035C47.3672 35.2966 47.3672 35.3898 47.3672 35.4831C47.3672 35.5764 47.3672 35.6698 47.3672 35.7634C47.3672 35.8569 47.3672 35.9505 47.3672 36.0443C47.3672 36.1381 47.3672 36.2319 47.3672 36.3259C47.3672 36.4199 47.3672 36.5141 47.3672 36.6083C47.3672 36.7025 47.3672 36.7968 47.3672 36.8913C47.3672 36.9857 47.3672 37.0803 47.3672 37.175C47.3672 37.2696 47.3672 37.3644 47.3672 37.4593C47.3672 37.5542 47.3672 37.6492 47.3672 37.7444C47.3672 37.8395 47.3672 37.9347 47.3672 38.03C47.3672 38.1254 47.3672 38.2208 47.3672 38.3164C47.3672 38.4119 47.3672 38.5076 47.3672 38.6034C47.3672 38.6992 47.3672 38.795 47.3672 38.891C47.3672 38.987 47.3672 39.0831 47.3672 39.1793C47.3672 39.2755 47.3672 39.3718 47.3672 39.4682C47.3672 39.5646 47.3672 39.6611 47.3672 39.7577C47.3672 39.8544 47.3672 39.9511 47.3672 40.0479C47.3672 40.1447 47.3672 40.2417 47.3672 40.3387C47.3672 40.4357 47.3672 40.5329 47.3672 40.6301C47.3672 40.7273 47.3672 40.8247 47.3672 40.9221C47.3672 41.0195 47.3672 41.1171 47.3672 41.2147C47.3672 41.3123 47.3672 41.4101 47.3672 41.5079C47.3672 41.6058 47.3672 41.7037 47.3672 41.8017C47.3672 41.8998 47.3672 41.9979 47.3672 42.0961C47.3672 42.1943 47.3672 42.2927 47.3672 42.3911C47.3672 42.4895 47.3672 42.588 47.3672 42.6866C47.3672 42.7852 47.3672 42.8839 47.3672 42.9828C47.3672 43.0816 47.3672 43.1805 47.3672 43.2794C47.3672 43.3784 47.3672 43.4775 47.3672 43.5767C47.3672 43.6759 47.3672 43.7751 47.3672 43.8745C47.3672 43.9739 47.3672 44.0733 47.3672 44.1729C47.3672 44.2724 47.3672 44.372 47.3672 44.4718C47.3672 44.5715 47.3672 44.6713 47.3672 44.7712C47.3672 44.8711 47.3672 44.9711 47.3672 45.0712C47.3672 45.1713 47.3672 45.2714 47.3672 45.3717C47.3672 45.472 47.3672 45.5723 47.3672 45.6727C47.3672 45.7732 47.3672 45.8737 47.3672 45.9743C47.3672 46.0749 47.3672 46.1756 47.3672 46.2764C47.3672 46.3771 47.3672 46.478 47.3672 46.5789C47.3672 46.6799 47.3672 46.7809 47.3672 46.882C47.3672 46.9831 47.3672 47.0843 47.3672 47.1856C47.3672 47.2869 47.3672 47.3882 47.3672 47.4897C47.3672 47.5911 47.3672 47.6927 47.3672 47.7943C47.3672 47.8959 47.3672 47.9975 47.3672 48.0993C47.3672 48.2011 47.3672 48.3029 47.3672 48.4048C47.3672 48.5068 47.3672 48.6088 47.3672 48.7108C47.3672 48.8129 47.3672 48.9151 47.3672 49.0173C47.3672 49.1195 47.3672 49.2219 47.3672 49.3242C47.3672 49.4266 47.3672 49.5291 47.3672 49.6316C47.3672 49.7342 47.3672 49.8368 47.3672 49.9395C47.3672 50.0422 47.3672 50.1449 47.3672 50.2478C47.3672 50.3506 47.3672 50.4535 47.3672 50.5565C47.3672 50.6595 47.3672 50.7625 47.3672 50.8657C47.3672 50.9688 47.3672 51.072 47.3672 51.1753C47.3672 51.2785 47.3672 51.3819 47.3672 51.4853C47.3672 51.5887 47.3672 51.6922 47.3672 51.7957C47.3672 51.8993 47.3672 52.0029 47.3672 52.1066C47.3672 52.2103 47.3672 52.314 47.3672 52.4179C47.3672 52.5217 47.3672 52.6256 47.3672 52.7295C47.3672 52.8335 47.3672 52.9375 47.3672 53.0416C47.3672 53.1457 47.3672 53.2499 47.3672 53.3541C47.3672 53.4583 47.3672 53.5626 47.3672 53.667C47.3672 53.7713 47.3672 53.8757 47.3672 53.9802C47.3672 54.0847 47.3672 54.1892 47.3672 54.2938C47.3672 54.3984 47.3672 54.5031 47.3672 54.6078C47.3672 54.7126 47.3672 54.8174 47.3672 54.9222C47.3672 55.0271 47.3672 55.132 47.3672 55.2369C47.3672 55.3419 47.3672 55.4469 47.3672 55.552C47.3672 55.6571 47.3672 55.7623 47.3672 55.8675C47.3672 55.9727 47.3672 56.0779 47.3672 56.1833C47.3672 56.2886 47.3672 56.394 47.3672 56.4994C47.3672 56.6048 47.3672 56.7103 47.3672 56.8159C47.3672 56.9214 47.3672 57.027 47.3672 57.1327C47.3672 57.2383 47.3672 57.344 47.3672 57.4498C47.3672 57.5556 47.3672 57.6614 47.3672 57.7673C47.3672 57.8731 47.3672 57.9791 47.3672 58.085C47.3672 58.191 47.3672 58.297 47.3672 58.4031C47.3672 58.5092 47.3672 58.6153 47.3672 58.7215C47.3672 58.8277 47.3672 58.9339 47.3672 59.0402C47.3672 59.1465 47.3672 59.2528 47.3672 59.3592C47.3672 59.4656 47.3672 59.572 47.3672 59.6785C47.3672 59.7849 47.3672 59.8915 47.3672 59.998C47.3672 60.1046 47.3672 60.2112 47.3672 60.3179C47.3672 60.4245 47.3672 60.5312 47.3672 60.638C47.3672 60.7447 47.3672 60.8515 47.3672 60.9584C47.3672 61.0652 47.3672 61.1721 47.3672 61.279C47.3672 61.386 47.3672 61.4929 47.3672 61.5999C47.3672 61.707 47.3672 61.814 47.3672 61.9211C47.3672 62.0282 47.3672 62.1353 47.3672 62.2425C47.3672 62.3497 47.3672 62.4569 47.3672 62.5642C47.3672 62.6714 47.3672 62.7787 47.3672 62.8861C47.3672 62.9934 47.3672 63.1008 47.3672 63.2082C47.3672 63.3156 47.3672 63.4231 47.3672 63.5306C47.3672 63.6381 47.3672 63.7456 47.3672 63.8532C47.3672 63.9607 47.3672 64.0683 47.3672 64.176C47.3672 64.2836 47.3672 64.3913 47.3672 64.499C47.3672 64.6067 47.3672 64.7144 47.3672 64.8222C47.3672 64.93 47.3672 65.0378 47.3672 65.1456C47.3672 65.2534 47.3672 65.3613 47.3672 65.4692C47.3672 65.5771 47.3672 65.6851 47.3672 65.793C47.3672 65.901 47.3672 66.009 47.3672 66.117C47.3672 66.2251 47.3672 66.3331 47.3672 66.4412C47.3672 66.5493 47.3672 66.6574 47.3672 66.7656C47.3672 66.8737 47.3672 66.9819 47.3672 67.0901C47.3672 67.1983 47.3672 67.3065 47.3672 67.4148C47.3672 67.523 47.3672 67.6313 47.3672 67.7396C47.3672 67.8479 47.3672 67.9563 47.3672 68.0646C47.3672 68.173 47.3672 68.2814 47.3672 68.3898C47.3672 68.4982 47.3672 68.6066 47.3672 68.7151C47.3672 68.8235 47.3672 68.932 47.3672 69.0405C47.3672 69.149 47.3672 69.2576 47.3672 69.3661C47.3672 69.4746 47.3672 69.5832 47.3672 69.6918C47.3672 69.8004 47.3672 69.909 47.3672 70.0176C47.3672 70.1263 47.3672 70.2349 47.3672 70.3436C47.3672 70.4522 47.3672 70.5609 47.3672 70.6696C47.3672 70.7783 47.3672 70.8871 47.3672 70.9958C47.3672 71.1045 47.3672 71.2133 47.3672 71.3221C47.3672 71.4308 47.3672 71.5396 47.3672 71.6484C47.3672 71.7572 47.3672 71.8661 47.3672 71.9749C47.3672 72.0837 47.3672 72.1926 47.3672 72.3015C47.3672 72.4103 47.3672 72.5192 47.3672 72.6281C47.3672 72.737 47.3672 72.8459 47.3672 72.9548C47.3672 73.0637 47.3672 73.1726 47.3672 73.2816C47.3672 73.3905 47.3672 73.4995 47.3672 73.6084C47.3672 73.7174 47.3672 73.8263 47.3672 73.9353C47.3672 74.0443 47.3672 74.1533 47.3672 74.2623C47.3672 74.3713 47.3672 74.4803 47.3672 74.5893C47.3672 74.6983 47.3672 74.8073 47.3672 74.9164C47.3672 75.0254 47.3672 75.1344 47.3672 75.2435C47.3672 75.3525 47.3672 75.4615 47.3672 75.5706C47.3672 75.6796 47.3672 75.7887 47.3672 75.8978C47.3672 76.0068 47.3672 76.1159 47.3672 76.2249C47.3672 76.334 47.3672 76.4431 47.3672 76.5522C47.3672 76.6612 47.3672 76.7703 47.3672 76.8794C47.3672 76.9885 47.3672 77.0975 47.3672 77.2066C47.3672 77.3157 47.3672 77.4248 47.3672 77.5339C47.3672 77.6429 47.3672 77.752 47.3672 77.8611C47.3672 77.9702 47.3672 78.0792 47.3672 78.1883C47.3672 78.2974 47.3672 78.4065 47.3672 78.5155C47.3672 78.6246 47.3672 78.7337 47.3672 78.8427C47.3672 78.9518 47.3672 79.0609 47.3672 79.1699C47.3672 79.279 47.3672 79.388 47.3672 79.4971C47.3672 79.6061 47.3672 79.7152 47.3672 79.8242C47.3672 79.9332 47.3672 80.0423 47.3672 80.1513C47.3672 80.2603 47.3672 80.3693 47.3672 80.4783C47.3672 80.5873 47.3672 80.6963 47.3672 80.8053C47.3672 80.9143 47.3672 81.0233 47.3672 81.1322C47.3672 81.2412 47.3672 81.3502 47.3672 81.4591C47.3672 81.5681 47.3672 81.677 47.3672 81.7859C47.3672 81.8949 47.3672 82.0038 47.3672 82.1127C47.3672 82.2216 47.3672 82.3305 47.3672 82.4394C47.3672 82.5482 47.3672 82.6571 47.3672 82.7659C47.3672 82.8748 47.3672 82.9836 47.3672 83.0925C47.3672 83.2013 47.3672 83.3101 47.3672 83.4189C47.3672 83.5277 47.3672 83.6364 47.3672 83.7452C47.3672 83.854 47.3672 83.9627 47.3672 84.0714C47.3672 84.1801 47.3672 84.2889 47.3672 84.3975C47.3672 84.5062 47.3672 84.6149 47.3672 84.7235C47.3672 84.8322 47.3672 84.9408 47.3672 85.0494C47.3672 85.158 47.3672 85.2666 47.3672 85.3752C47.3672 85.4838 47.3672 85.5923 47.3672 85.7009C47.3672 85.8094 47.3672 85.9179 47.3672 86.0264C47.3672 86.1348 47.3672 86.2433 47.3672 86.3517C47.3672 86.4602 47.3672 86.5686 47.3672 86.677C47.3672 86.7854 47.3672 86.8937 47.3672 87.0021C47.3672 87.1104 47.3672 87.2187 47.3672 87.327C47.3672 87.4353 47.3672 87.5435 47.3672 87.6518C47.3672 87.76 47.3672 87.8682 47.3672 87.9764C47.3672 88.0846 47.3672 88.1927 47.3672 88.3008C47.3672 88.4089 47.3672 88.517 47.3672 88.6251C47.3672 88.7332 47.3672 88.8412 47.3672 88.9492C47.3672 89.0572 47.3672 89.1652 47.3672 89.2731C47.3672 89.381 47.3672 89.489 47.3672 89.5968C47.3672 89.7047 47.3672 89.8125 47.3672 89.9204C47.3672 90.0282 47.3672 90.1359 47.3672 90.2437C47.3672 90.3514 47.3672 90.4591 47.3672 90.5668C47.3672 90.6745 47.3672 90.7821 47.3672 90.8897C47.3672 90.9973 47.3672 91.1049 47.3672 91.2124C47.3672 91.3199 47.3672 91.4274 47.3672 91.5349C47.3672 91.6424 47.3672 91.7498 47.3672 91.8571C47.3672 91.9645 47.3672 92.0719 47.3672 92.1792C47.3672 92.2865 47.3672 92.3937 47.3672 92.501C47.3672 92.6082 47.3672 92.7154 47.3672 92.8225C47.3672 92.9296 47.3672 93.0367 47.3672 93.1438C47.3672 93.2509 47.3672 93.3579 47.3672 93.4649C47.3672 93.5718 47.3672 93.6788 47.3672 93.7856C47.3672 93.8925 47.3672 93.9994 47.3672 94.1062C47.3672 94.213 47.3672 94.3197 47.3672 94.4264C47.3672 94.5331 47.3672 94.6398 47.3672 94.7464C47.3672 94.853 47.3672 94.9596 47.3672 95.0661C47.3672 95.1727 47.3672 95.2791 47.3672 95.3856C47.3672 95.492 47.3672 95.5984 47.3672 95.7047C47.3672 95.811 47.3672 95.9173 47.3672 96.0236C47.3672 96.1298 47.3672 96.236 47.3672 96.3421C47.3672 96.4482 47.3672 96.5543 47.3672 96.6604C47.3672 96.7664 47.3672 96.8724 47.3672 96.9783C47.3672 97.0842 47.3672 97.1901 47.3672 97.2959C47.3672 97.4017 47.3672 97.5075 47.3672 97.6132C47.3672 97.7189 47.3672 97.8246 47.3672 97.9302C47.3672 98.0358 47.3672 98.1414 47.3672 98.2469C47.3672 98.3524 47.3672 98.4578 47.3672 98.5632C47.3672 98.6686 47.3672 98.7739 47.3672 98.8792C47.3672 98.9844 47.3672 99.0896 47.3672 99.1948C47.3672 99.2999 47.3672 99.405 47.3672 99.5101C47.3672 99.6151 47.3672 99.7201 47.3672 99.825C47.3672 99.9299 47.3672 100.035 47.3672 100.14C47.3672 100.244 47.3672 100.349 47.3672 100.454C47.3672 100.558 47.3672 100.663 47.3672 100.768C47.3672 100.872 47.3672 100.977 47.3672 101.081C47.3672 101.185 47.3672 101.29 47.3672 101.394C47.3672 101.498 47.3672 101.603 47.3672 101.707C47.3672 101.811 47.3672 101.915 47.3672 102.019C47.3672 102.123 47.3672 102.227 47.3672 102.331C47.3672 102.435 47.3672 102.539 47.3672 102.642C47.3672 102.746 47.3672 102.85 47.3672 102.954C47.3672 103.057 47.3672 103.161 47.3672 103.264C47.3672 103.368 47.3672 103.471 47.3672 103.574C47.3672 103.678 47.3672 103.781 47.3672 103.884C47.3672 103.988 47.3672 104.091 47.3672 104.194C47.3672 104.297 47.3672 104.4 47.3672 104.503C47.3672 104.606 47.3672 104.708 47.3672 104.811C47.3672 104.914 47.3672 105.017 47.3672 105.119C47.3672 105.222 47.3672 105.324 47.3672 105.427C47.3672 105.529 47.3672 105.632 47.3672 105.734C47.3672 105.836 47.3672 105.939 47.3672 106.041C47.3672 106.143 47.3672 106.245 47.3672 106.347C47.3672 106.449 47.3672 106.551 47.3672 106.653C47.3672 106.755 47.3672 106.856 47.3672 106.958C47.3672 107.06 47.3672 107.161 47.3672 107.263C47.3672 107.364 47.3672 107.466 47.3672 107.567C47.3672 107.669 47.3672 107.77 47.3672 107.871C47.3672 107.972 47.3672 108.073 47.3672 108.175C47.3672 108.276 47.3672 108.376 47.3672 108.477C47.3672 108.578 47.3672 108.679 47.3672 108.78C47.3672 108.88 47.3672 108.981 47.3672 109.082C47.3672 109.182 47.3672 109.282 47.3672 109.383C47.3672 109.483 47.3672 109.583 47.3672 109.684C47.3672 109.784 47.3672 109.884 47.3672 109.984C47.3672 110.084 47.3672 110.184 47.3672 110.284C47.3672 110.383 47.3672 110.483 47.3672 110.583C47.3672 110.682 47.3672 110.782 47.3672 110.881C47.3672 110.981 47.3672 111.08 47.3672 111.18C47.3672 111.279 47.3672 111.378 47.3672 111.477C47.3672 111.576 47.3672 111.675 47.3672 111.774C47.3672 111.873 47.3672 111.972 47.3672 112.071C47.3672 112.169 47.3672 112.268 47.3672 112.366C47.3672 112.465 47.3672 112.563 47.3672 112.662C47.3672 112.76 47.3672 112.858 47.3672 112.956C47.3672 113.055 47.3672 113.153 47.3672 113.251C47.3672 113.348 47.3672 113.446 47.3672 113.544C47.3672 113.642 47.3672 113.739 47.3672 113.837C47.3672 113.935 47.3672 114.032 47.3672 114.129C47.3672 114.227 47.3672 114.324 47.3672 114.421C47.3672 114.518 47.3672 114.615 47.3672 114.712C47.3672 114.809 47.3672 114.906 47.3672 115.003C47.3672 115.099 47.3672 115.196 47.3672 115.292C47.3672 115.389 47.3672 115.485 47.3672 115.582C47.3672 115.678 47.3672 115.774 47.3672 115.87C47.3672 115.966 47.3672 116.062 47.3672 116.158C47.3672 116.254 47.3672 116.35 47.3672 116.446C47.3672 116.541 47.3672 116.637 47.3672 116.732C47.3672 116.828 47.3672 116.923 47.3672 117.018C47.3672 117.114 47.3672 117.209 47.3672 117.304C47.3672 117.399 47.3672 117.494 47.3672 117.589C47.3672 117.683 47.3672 117.778 47.3672 117.873C47.3672 117.967 47.3672 118.062 47.3672 118.156C47.3672 118.25 47.3672 118.345 47.3672 118.439C47.3672 118.533 47.3672 118.627 47.3672 118.721C47.3672 118.815 47.3672 118.908 47.3672 119.002C47.3672 119.096 47.3672 119.189 47.3672 119.283C47.3672 119.376 47.3672 119.469 47.3672 119.563C47.3672 119.656 47.3672 119.749 47.3672 119.842C47.3672 119.935 47.3672 120.028 47.3672 120.12C47.3672 120.213 47.3672 120.306 47.3672 120.398C47.3672 120.491 47.3672 120.583 47.3672 120.675C47.3672 120.767 47.3672 120.859 47.3672 120.951C47.3672 121.043 47.3672 121.135 47.3672 121.227C47.3672 121.319 47.3672 121.41 47.3672 121.502C47.3672 121.593 47.3672 121.685 47.3672 121.776C47.3672 121.867 47.3672 121.959 47.3672 122.05C47.3672 122.141 47.3672 122.231 47.3672 122.322C47.3672 122.413 47.3672 122.504 47.3672 122.594C47.3672 122.685 47.3672 122.775 47.3672 122.865C47.3672 122.955 47.3672 123.046 47.3672 123.136C47.3672 123.226 47.3672 123.315 47.3672 123.405C47.3672 123.495 47.3672 123.584 47.3672 123.674C47.3672 123.763 47.3672 123.853 47.3672 123.942C47.3672 124.031 47.3672 124.12 47.3672 124.209C47.3672 124.298 47.3672 124.387 47.3672 124.476C47.3672 124.564 47.3672 124.653 47.3672 124.741C47.3672 124.83 47.3672 124.918 47.3672 125.006C47.3672 125.094 47.3672 125.182 47.3672 125.27C47.3672 125.358 47.3672 125.446 47.3672 125.533C47.3672 125.621 47.3672 125.708 47.3672 125.796C47.3672 125.883 47.3672 125.97 47.3672 126.057C47.3672 126.144 47.3672 126.231 47.3672 126.318C47.3672 126.405 47.3672 126.491 47.3672 126.578C47.3672 126.664 47.3672 126.751 47.3672 126.837C47.3672 126.923 47.3672 127.009 47.3672 127.095C47.3672 127.181 47.3672 127.267 47.3672 127.353C47.3672 127.438 47.3672 127.524 47.3672 127.609C47.3672 127.694 47.3672 127.78 47.3672 127.865C47.3672 127.95 47.3672 128.035 47.3672 128.12C47.3672 128.204 47.3672 128.289 47.3672 128.373C47.3672 128.458 47.3672 128.542 47.3672 128.627C47.3672 128.711 47.3672 128.795 47.3672 128.879C47.3672 128.963 47.3672 129.046 47.3672 129.13C47.3672 129.214 47.3672 129.297 47.3672 129.38C47.3672 129.464 47.3672 129.547 47.3672 129.63C47.3672 129.713 47.3672 129.796 47.3672 129.878C47.3672 129.961 47.3672 130.044 47.3672 130.126C47.3672 130.208 47.3672 130.291 47.3672 130.373C47.3672 130.455 47.3672 130.537 47.3672 130.619C47.3672 130.7 47.3672 130.782 47.3672 130.864C47.3672 130.945 47.3672 131.026 47.3672 131.108C47.3672 131.189 47.3672 131.27 47.3672 131.351C47.3672 131.431 47.3672 131.512 47.3672 131.593C47.3672 131.673 47.3672 131.754 47.3672 131.834C47.3672 131.914 47.3672 131.994 47.3672 132.074C47.3672 132.154 47.3672 132.234 47.3672 132.313C47.3672 132.393 47.3672 132.472 47.3672 132.552C47.3672 132.631 47.3672 132.71 47.3672 132.789C47.3672 132.868 47.3672 132.947 47.3672 133.025C47.3672 133.104 47.3672 133.182 47.3672 133.261C47.3672 133.339 47.3672 133.417 47.3672 133.495C47.3672 133.573 47.3672 133.651 47.3672 133.729C47.3672 133.806 47.3672 133.884 47.3672 133.961C47.3672 134.038 47.3672 134.115 47.3672 134.192C47.3672 134.269 47.3672 134.346 47.3672 134.423C47.3672 134.499 47.3672 134.576 47.3672 134.652C47.3672 134.729 47.3672 134.805 47.3672 134.881C47.3672 134.957 47.3672 135.032 47.3672 135.108C47.3672 135.184 47.3672 135.259 47.3672 135.334C47.3672 135.41 47.3672 135.485 47.3672 135.56C47.3672 135.635 47.3672 135.709 47.3672 135.784C47.3672 135.859 47.3672 135.933 47.3672 136.007C47.3672 136.082 47.3672 136.156 47.3672 136.23C47.3672 136.303 47.3672 136.377 47.3672 136.451C47.3672 136.524 47.3672 136.598 47.3672 136.671C47.3672 136.744 47.3672 136.817 47.3672 136.89C47.3672 136.963 47.3672 137.035 47.3672 137.108C47.3672 137.18 47.3672 137.253 47.3672 137.325C47.3672 137.397 47.3672 137.469 47.3672 137.541C47.3672 137.612 47.3672 137.684 47.3672 137.755C47.3672 137.827 47.3672 137.898 47.3672 137.969C47.3672 138.04 47.3672 138.111 47.3672 138.182C47.3672 138.252 47.3672 138.323 47.3672 138.393C47.3672 138.464 47.3672 138.534 47.3672 138.604C47.3672 138.674 47.3672 138.743 47.3672 138.813C47.3672 138.882 47.3672 138.952 47.3672 139.021C47.3672 139.09 47.3672 139.159 47.3672 139.228C47.3672 139.297 47.3672 139.366 47.3672 139.434C47.3672 139.503 47.3672 139.571 47.3672 139.639C47.3672 139.707 47.3672 139.775 47.3672 139.843C47.3672 139.91 47.3672 139.978 47.3672 140.045C47.3672 140.112 47.3672 140.18 47.3672 140.247C47.3672 140.313 47.3672 140.38 47.3672 140.447C47.3672 140.513 47.3672 140.58 47.3672 140.646C47.3672 140.712 47.3672 140.778 47.3672 140.844C47.3672 140.91 47.3672 140.975 47.3672 141.041C47.3672 141.106 47.3672 141.171 47.3672 141.236C47.3672 141.301 47.3672 141.366 47.3672 141.431C47.3672 141.495 47.3672 141.56 47.3672 141.624C47.3672 141.688 47.3672 141.752 47.3672 141.816C47.3672 141.88 47.3672 141.943 47.3672 142.007C47.3672 142.07 47.3672 142.134 47.3672 142.197C47.3672 142.26 47.3672 142.322 47.3672 142.385C47.3672 142.448 47.3672 142.51 47.3672 142.572C47.3672 142.635 47.3672 142.697 47.3672 142.758C47.3672 142.82 47.3672 142.882 47.3672 142.943C47.3672 143.005 47.3672 143.066 47.3672 143.127C47.3672 143.188 47.3672 143.249 47.3672 143.309C47.3672 143.37 47.3672 143.43 47.3672 143.491C47.3672 143.551 47.3672 143.611 47.3672 143.67C47.3672 143.73 47.3672 143.79 47.3672 143.849C47.3672 143.909 47.3672 143.968 47.3672 144.027C47.3672 144.086 47.3672 144.144 47.3672 144.203C47.3672 144.261 47.3672 144.32 47.3672 144.378C47.3672 144.436 47.3672 144.494 47.3672 144.551C47.3672 144.609 47.3672 144.667 47.3672 144.724C47.3672 144.781 47.3672 144.838 47.3672 144.895C47.3672 144.952 47.3672 145.008 47.3672 145.065C47.3672 145.121 47.3672 145.177 47.3672 145.233C47.3672 145.289 47.3672 145.345 47.3672 145.401C47.3672 145.456 47.3672 145.512 47.3672 145.567C47.3672 145.622 47.3672 145.677 47.3672 145.731C47.3672 145.786 47.3672 145.841 47.3672 145.895C47.3672 145.949 47.3672 146.003 47.3672 146.057C47.3672 146.111 47.3672 146.164 47.3672 146.218C47.3672 146.271 47.3672 146.324 47.3672 146.377C47.3672 146.43 47.3672 146.483 47.3672 146.535C47.3672 146.588 47.3672 146.64 47.3672 146.692C47.3672 146.744 47.3672 146.796 47.3672 146.847C47.3672 146.899 47.3672 146.95 47.3672 147.002C47.3672 147.053 47.3672 147.104 47.3672 147.154C47.3672 147.205 47.3672 147.256 47.3672 147.306C47.3672 147.356 47.3672 147.406 47.3672 147.456C47.3672 147.506 47.3672 147.555 47.3672 147.605C47.3672 147.654 47.3672 147.703 47.3672 147.752C47.3672 147.801 47.3672 147.849 47.3672 147.898C47.3672 147.946 47.3672 147.994 47.3672 148.042C47.3672 148.09 47.3672 148.138 47.3672 148.186C47.3672 148.233 47.3672 148.28 47.3672 148.327C47.3672 148.375 47.3672 148.421 47.3672 148.468C47.3672 148.514 47.3672 148.561 47.3672 148.607C47.3672 148.653 47.3672 148.699 47.3672 148.745C47.3672 148.79 47.3672 148.836 47.3672 148.881C47.3672 148.926 47.3672 148.971 47.3672 149.016C47.3672 149.06 47.3672 149.105 47.3672 149.149C47.3672 149.193 47.3672 149.237 47.3672 149.281C47.3672 149.325 47.3672 149.368 47.3672 149.411C47.3672 149.455 47.3672 149.498 47.3672 149.54C47.3672 149.583 47.3672 149.626 47.3672 149.668C47.3672 149.71 47.3672 149.753 47.3672 149.794C47.3672 149.836 47.3672 149.878 47.3672 149.919C47.3672 149.96 47.3672 150.002 47.3672 150.042C47.3672 150.083 47.3672 150.124 47.3672 150.164C47.3672 150.205 47.3672 150.245 47.3672 150.285C47.3672 150.325 47.3672 150.364 47.3672 150.404C47.3672 150.443 47.3672 150.482 47.3672 150.521C47.3672 150.56 47.3672 150.598 47.3672 150.637C47.3672 150.675 47.3672 150.713 47.3672 150.751C47.3672 150.789 47.3672 150.827 47.3672 150.864C47.3672 150.902 47.3672 150.939 47.3672 150.976C47.3672 151.013 47.3672 151.049 47.3672 151.086C47.3672 151.122 47.3672 151.158 47.3672 151.194C47.3672 151.23 47.3672 151.266 47.3672 151.301C47.3672 151.337 47.3672 151.372 47.3672 151.407C47.3672 151.441 47.3672 151.476 47.3672 151.51C47.3672 151.545 47.3672 151.579 47.3672 151.613C47.3672 151.647 47.3672 151.68 47.3672 151.714C47.3672 151.747 47.3672 151.78 47.3672 151.813C47.3672 151.846 47.3672 151.878 47.3672 151.911C47.3672 151.943 47.3672 151.975 47.3672 152.007C47.3672 152.039 47.3672 152.07 47.3672 152.102C47.3672 152.133 47.3672 152.164 47.3672 152.195C47.3672 152.226 47.3672 152.256 47.3672 152.286C47.3672 152.317 47.3672 152.347 47.3672 152.376C47.3672 152.406 47.3672 152.435 47.3672 152.465C47.3672 152.494 47.3672 152.523 47.3672 152.551C47.3672 152.58 47.3672 152.609 47.3672 152.637C47.3672 152.665 47.3672 152.693 47.3672 152.72C47.3672 152.748 47.3672 152.775 47.3672 152.802C47.3672 152.829 47.3672 152.856 47.3672 152.883C47.3672 152.909 47.3672 152.936 47.3672 152.962C47.3672 152.988 47.3672 153.013 47.3672 153.039C47.3672 153.064 47.3672 153.089 47.3672 153.114C47.3672 153.139 47.3672 153.164 47.3672 153.188C47.3672 153.213 47.3672 153.237 47.3672 153.261C47.3672 153.285 47.3672 153.308 47.3672 153.331C47.3672 153.355 47.3672 153.378 47.3672 153.4C47.3672 153.423 47.3672 153.446 47.3672 153.468C47.3672 153.49 47.3672 153.512 47.3672 153.534C47.3672 153.555 47.3672 153.577 47.3672 153.598C47.3672 153.619 47.3672 153.64 47.3672 153.66C47.3672 153.681 47.3672 153.701 47.3672 153.721C47.3672 153.741 47.3672 153.761 47.3672 153.78C47.3672 153.8 47.3672 153.819 47.3672 153.838C47.3672 153.857 47.3672 153.875 47.3672 153.893C47.3672 153.912 47.3672 153.93 47.3672 153.948C47.3672 153.965 47.3672 153.983 47.3672 154H49.3672ZM49.3671 21.9858C49.3285 19.2584 48.9138 15.1489 47.7705 11.6864C47.1997 9.95785 46.4244 8.31916 45.3661 7.09576C44.2907 5.85261 42.8829 5 41.1172 5V7C42.1609 7 43.0546 7.48072 43.8535 8.40424C44.6695 9.34751 45.3414 10.7088 45.8713 12.3136C46.9294 15.5178 47.3304 19.4083 47.3673 22.0142L49.3671 21.9858ZM41.1172 5C41.1062 5 41.0952 5 41.084 5C41.0729 5 41.0617 5 41.0504 5C41.0391 5 41.0277 5 41.0162 5C41.0048 5 40.9932 5 40.9816 5C40.97 5 40.9583 5 40.9465 5C40.9347 5 40.9228 5 40.9109 5C40.8989 5 40.8869 5 40.8748 5C40.8627 5 40.8505 5 40.8383 5C40.826 5 40.8137 5 40.8012 5C40.7888 5 40.7763 5 40.7637 5C40.7512 5 40.7385 5 40.7258 5C40.713 5 40.7002 5 40.6873 5C40.6745 5 40.6615 5 40.6484 5C40.6354 5 40.6223 5 40.6091 5C40.5959 5 40.5826 5 40.5692 5C40.5559 5 40.5425 5 40.529 5C40.5155 5 40.5019 5 40.4882 5C40.4746 5 40.4608 5 40.447 5C40.4332 5 40.4193 5 40.4053 5C40.3914 5 40.3774 5 40.3632 5C40.3491 5 40.3349 5 40.3207 5C40.3064 5 40.2921 5 40.2777 5C40.2633 5 40.2488 5 40.2342 5C40.2197 5 40.205 5 40.1903 5C40.1756 5 40.1608 5 40.146 5C40.1311 5 40.1162 5 40.1012 5C40.0862 5 40.0711 5 40.056 5C40.0408 5 40.0256 5 40.0103 5C39.995 5 39.9797 5 39.9643 5C39.9488 5 39.9333 5 39.9177 5C39.9022 5 39.8865 5 39.8708 5C39.8551 5 39.8393 5 39.8234 5C39.8076 5 39.7916 5 39.7756 5C39.7596 5 39.7435 5 39.7274 5C39.7112 5 39.695 5 39.6787 5C39.6625 5 39.6461 5 39.6297 5C39.6133 5 39.5968 5 39.5802 5C39.5636 5 39.547 5 39.5303 5C39.5136 5 39.4968 5 39.48 5C39.4632 5 39.4463 5 39.4293 5C39.4123 5 39.3953 5 39.3782 5C39.3611 5 39.3439 5 39.3266 5C39.3094 5 39.2921 5 39.2747 5C39.2573 5 39.2399 5 39.2224 5C39.2048 5 39.1873 5 39.1696 5C39.152 5 39.1342 5 39.1165 5C39.0987 5 39.0808 5 39.0629 5C39.045 5 39.027 5 39.009 5C38.991 5 38.9729 5 38.9547 5C38.9365 5 38.9183 5 38.9 5C38.8817 5 38.8633 5 38.8449 5C38.8264 5 38.8079 5 38.7894 5C38.7708 5 38.7522 5 38.7335 5C38.7148 5 38.6961 5 38.6773 5C38.6584 5 38.6396 5 38.6206 5C38.6017 5 38.5827 5 38.5636 5C38.5445 5 38.5254 5 38.5062 5C38.487 5 38.4678 5 38.4485 5C38.4291 5 38.4098 5 38.3903 5C38.3709 5 38.3514 5 38.3318 5C38.3123 5 38.2926 5 38.273 5C38.2533 5 38.2335 5 38.2137 5C38.1939 5 38.1741 5 38.1541 5C38.1342 5 38.1142 5 38.0942 5C38.0741 5 38.054 5 38.0339 5C38.0137 5 37.9935 5 37.9732 5C37.9529 5 37.9325 5 37.9121 5C37.8917 5 37.8713 5 37.8508 5C37.8302 5 37.8097 5 37.789 5C37.7684 5 37.7477 5 37.7269 5C37.7062 5 37.6854 5 37.6645 5C37.6436 5 37.6227 5 37.6017 5C37.5808 5 37.5597 5 37.5386 5C37.5175 5 37.4964 5 37.4752 5C37.4539 5 37.4327 5 37.4114 5C37.39 5 37.3687 5 37.3472 5C37.3258 5 37.3043 5 37.2828 5C37.2612 5 37.2396 5 37.218 5C37.1963 5 37.1746 5 37.1528 5C37.1311 5 37.1092 5 37.0874 5C37.0655 5 37.0436 5 37.0216 5C36.9996 5 36.9776 5 36.9555 5C36.9334 5 36.9112 5 36.889 5C36.8668 5 36.8446 5 36.8223 5C36.8 5 36.7776 5 36.7552 5C36.7328 5 36.7103 5 36.6878 5C36.6653 5 36.6427 5 36.6201 5C36.5975 5 36.5748 5 36.5521 5C36.5294 5 36.5066 5 36.4838 5C36.461 5 36.4381 5 36.4152 5C36.3922 5 36.3693 5 36.3462 5C36.3232 5 36.3001 5 36.277 5C36.2539 5 36.2307 5 36.2074 5C36.1842 5 36.1609 5 36.1376 5C36.1143 5 36.0909 5 36.0675 5C36.044 5 36.0206 5 35.997 5C35.9735 5 35.9499 5 35.9263 5C35.9027 5 35.879 5 35.8553 5C35.8316 5 35.8078 5 35.784 5C35.7602 5 35.7363 5 35.7124 5C35.6885 5 35.6645 5 35.6405 5C35.6165 5 35.5924 5 35.5683 5C35.5442 5 35.5201 5 35.4959 5C35.4717 5 35.4475 5 35.4232 5C35.3989 5 35.3746 5 35.3502 5C35.3258 5 35.3014 5 35.2769 5C35.2524 5 35.2279 5 35.2034 5C35.1788 5 35.1542 5 35.1295 5C35.1049 5 35.0802 5 35.0555 5C35.0307 5 35.0059 5 34.9811 5C34.9563 5 34.9314 5 34.9065 5C34.8816 5 34.8566 5 34.8316 5C34.8066 5 34.7816 5 34.7565 5C34.7314 5 34.7063 5 34.6811 5C34.6559 5 34.6307 5 34.6054 5C34.5802 5 34.5549 5 34.5295 5C34.5042 5 34.4788 5 34.4534 5C34.4279 5 34.4025 5 34.3769 5C34.3514 5 34.3259 5 34.3003 5C34.2747 5 34.2491 5 34.2234 5C34.1977 5 34.172 5 34.1462 5C34.1205 5 34.0947 5 34.0689 5C34.043 5 34.0171 5 33.9912 5C33.9653 5 33.9394 5 33.9134 5C33.8874 5 33.8613 5 33.8353 5C33.8092 5 33.7831 5 33.7569 5C33.7308 5 33.7046 5 33.6784 5C33.6521 5 33.6259 5 33.5996 5C33.5733 5 33.5469 5 33.5205 5C33.4942 5 33.4677 5 33.4413 5C33.4148 5 33.3883 5 33.3618 5C33.3353 5 33.3087 5 33.2821 5C33.2555 5 33.2289 5 33.2022 5C33.1755 5 33.1488 5 33.1221 5C33.0953 5 33.0686 5 33.0417 5C33.0149 5 32.9881 5 32.9612 5C32.9343 5 32.9074 5 32.8804 5C32.8535 5 32.8265 5 32.7994 5C32.7724 5 32.7454 5 32.7183 5C32.6912 5 32.664 5 32.6369 5C32.6097 5 32.5825 5 32.5553 5C32.5281 5 32.5008 5 32.4735 5C32.4462 5 32.4189 5 32.3915 5C32.3641 5 32.3367 5 32.3093 5C32.2819 5 32.2544 5 32.2269 5C32.1994 5 32.1719 5 32.1444 5C32.1168 5 32.0892 5 32.0616 5C32.034 5 32.0063 5 31.9787 5C31.951 5 31.9233 5 31.8955 5C31.8678 5 31.84 5 31.8122 5C31.7844 5 31.7566 5 31.7287 5C31.7008 5 31.6729 5 31.645 5C31.6171 5 31.5891 5 31.5612 5C31.5332 5 31.5052 5 31.4771 5C31.4491 5 31.421 5 31.3929 5C31.3648 5 31.3367 5 31.3085 5C31.2804 5 31.2522 5 31.224 5C31.1958 5 31.1675 5 31.1393 5C31.111 5 31.0827 5 31.0544 5C31.0261 5 30.9977 5 30.9693 5C30.941 5 30.9126 5 30.8841 5C30.8557 5 30.8272 5 30.7988 5C30.7703 5 30.7418 5 30.7132 5C30.6847 5 30.6561 5 30.6276 5C30.599 5 30.5704 5 30.5417 5C30.5131 5 30.4844 5 30.4557 5C30.4271 5 30.3983 5 30.3696 5C30.3409 5 30.3121 5 30.2833 5C30.2545 5 30.2257 5 30.1969 5C30.1681 5 30.1392 5 30.1103 5C30.0815 5 30.0526 5 30.0236 5C29.9947 5 29.9658 5 29.9368 5C29.9078 5 29.8788 5 29.8498 5C29.8208 5 29.7917 5 29.7627 5C29.7336 5 29.7045 5 29.6754 5C29.6463 5 29.6172 5 29.5881 5C29.5589 5 29.5297 5 29.5005 5C29.4714 5 29.4421 5 29.4129 5C29.3837 5 29.3544 5 29.3251 5C29.2959 5 29.2666 5 29.2373 5C29.208 5 29.1786 5 29.1493 5C29.1199 5 29.0905 5 29.0611 5C29.0318 5 29.0023 5 28.9729 5C28.9435 5 28.914 5 28.8846 5C28.8551 5 28.8256 5 28.7961 5C28.7666 5 28.7371 5 28.7075 5C28.678 5 28.6484 5 28.6189 5C28.5893 5 28.5597 5 28.5301 5C28.5005 5 28.4708 5 28.4412 5C28.4115 5 28.3819 5 28.3522 5C28.3225 5 28.2928 5 28.2631 5C28.2334 5 28.2037 5 28.1739 5C28.1442 5 28.1144 5 28.0846 5C28.0549 5 28.0251 5 27.9953 5C27.9655 5 27.9356 5 27.9058 5C27.876 5 27.8461 5 27.8162 5C27.7864 5 27.7565 5 27.7266 5C27.6967 5 27.6668 5 27.6369 5C27.607 5 27.577 5 27.5471 5C27.5171 5 27.4872 5 27.4572 5C27.4272 5 27.3972 5 27.3672 5C27.3372 5 27.3072 5 27.2772 5C27.2471 5 27.2171 5 27.187 5C27.157 5 27.1269 5 27.0968 5C27.0668 5 27.0367 5 27.0066 5C26.9765 5 26.9464 5 26.9162 5C26.8861 5 26.856 5 26.8258 5C26.7957 5 26.7655 5 26.7354 5C26.7052 5 26.675 5 26.6449 5C26.6147 5 26.5845 5 26.5543 5C26.5241 5 26.4939 5 26.4636 5C26.4334 5 26.4032 5 26.3729 5C26.3427 5 26.3124 5 26.2822 5C26.2519 5 26.2216 5 26.1914 5C26.1611 5 26.1308 5 26.1005 5C26.0702 5 26.0399 5 26.0096 5C25.9793 5 25.949 5 25.9187 5C25.8883 5 25.858 5 25.8277 5C25.7973 5 25.767 5 25.7366 5C25.7063 5 25.6759 5 25.6455 5C25.6152 5 25.5848 5 25.5544 5C25.5241 5 25.4937 5 25.4633 5C25.4329 5 25.4025 5 25.3721 5C25.3417 5 25.3113 5 25.2809 5C25.2505 5 25.2201 5 25.1896 5C25.1592 5 25.1288 5 25.0984 5C25.0679 5 25.0375 5 25.0071 5C24.9766 5 24.9462 5 24.9158 5C24.8853 5 24.8549 5 24.8244 5C24.794 5 24.7635 5 24.7331 5C24.7026 5 24.6721 5 24.6417 5C24.6112 5 24.5808 5 24.5503 5C24.5198 5 24.4894 5 24.4589 5C24.4284 5 24.398 5 24.3675 5C24.337 5 24.3065 5 24.2761 5C24.2456 5 24.2151 5 24.1846 5C24.1541 5 24.1237 5 24.0932 5C24.0627 5 24.0322 5 24.0018 5C23.9713 5 23.9408 5 23.9103 5C23.8798 5 23.8494 5 23.8189 5C23.7884 5 23.7579 5 23.7275 5C23.697 5 23.6665 5 23.636 5C23.6056 5 23.5751 5 23.5446 5C23.5141 5 23.4837 5 23.4532 5C23.4227 5 23.3923 5 23.3618 5C23.3313 5 23.3009 5 23.2704 5C23.24 5 23.2095 5 23.1791 5C23.1486 5 23.1181 5 23.0877 5C23.0573 5 23.0268 5 22.9964 5C22.9659 5 22.9355 5 22.9051 5C22.8746 5 22.8442 5 22.8138 5C22.7834 5 22.7529 5 22.7225 5C22.6921 5 22.6617 5 22.6313 5C22.6009 5 22.5705 5 22.5401 5C22.5097 5 22.4793 5 22.4489 5C22.4186 5 22.3882 5 22.3578 5C22.3274 5 22.2971 5 22.2667 5C22.2364 5 22.206 5 22.1757 5C22.1453 5 22.115 5 22.0847 5C22.0543 5 22.024 5 21.9937 5C21.9634 5 21.9331 5 21.9028 5C21.8725 5 21.8422 5 21.8119 5C21.7816 5 21.7513 5 21.721 5C21.6908 5 21.6605 5 21.6303 5C21.6 5 21.5698 5 21.5395 5C21.5093 5 21.4791 5 21.4489 5C21.4187 5 21.3885 5 21.3583 5C21.3281 5 21.2979 5 21.2677 5C21.2375 5 21.2074 5 21.1772 5C21.1471 5 21.1169 5 21.0868 5C21.0567 5 21.0265 5 20.9964 5C20.9663 5 20.9362 5 20.9061 5C20.876 5 20.846 5 20.8159 5C20.7858 5 20.7558 5 20.7257 5C20.6957 5 20.6657 5 20.6357 5C20.6056 5 20.5756 5 20.5457 5C20.5157 5 20.4857 5 20.4557 5C20.4258 5 20.3958 5 20.3659 5C20.3359 5 20.306 5 20.2761 5C20.2462 5 20.2163 5 20.1864 5C20.1566 5 20.1267 5 20.0968 5C20.067 5 20.0372 5 20.0073 5C19.9775 5 19.9477 5 19.9179 5C19.8881 5 19.8584 5 19.8286 5C19.7988 5 19.7691 5 19.7394 5C19.7096 5 19.6799 5 19.6502 5C19.6205 5 19.5909 5 19.5612 5C19.5315 5 19.5019 5 19.4723 5C19.4426 5 19.413 5 19.3834 5C19.3538 5 19.3243 5 19.2947 5C19.2651 5 19.2356 5 19.2061 5C19.1766 5 19.1471 5 19.1176 5C19.0881 5 19.0586 5 19.0292 5C18.9997 5 18.9703 5 18.9409 5C18.9115 5 18.8821 5 18.8527 5C18.8233 5 18.794 5 18.7647 5C18.7353 5 18.706 5 18.6767 5C18.6474 5 18.6182 5 18.5889 5C18.5597 5 18.5304 5 18.5012 5C18.472 5 18.4428 5 18.4136 5C18.3845 5 18.3553 5 18.3262 5C18.2971 5 18.268 5 18.2389 5C18.2098 5 18.1808 5 18.1517 5C18.1227 5 18.0937 5 18.0647 5C18.0357 5 18.0067 5 17.9778 5C17.9488 5 17.9199 5 17.891 5C17.8621 5 17.8332 5 17.8044 5C17.7755 5 17.7467 5 17.7179 5C17.6891 5 17.6603 5 17.6315 5C17.6028 5 17.574 5 17.5453 5C17.5166 5 17.4879 5 17.4593 5C17.4306 5 17.402 5 17.3734 5C17.3448 5 17.3162 5 17.2876 5C17.2591 5 17.2305 5 17.202 5C17.1735 5 17.145 5 17.1166 5C17.0881 5 17.0597 5 17.0313 5C17.0029 5 16.9745 5 16.9462 5C16.9178 5 16.8895 5 16.8612 5C16.8329 5 16.8047 5 16.7764 5C16.7482 5 16.72 5 16.6918 5C16.6636 5 16.6355 5 16.6073 5C16.5792 5 16.5511 5 16.5231 5C16.495 5 16.467 5 16.4389 5C16.4109 5 16.383 5 16.355 5C16.327 5 16.2991 5 16.2712 5C16.2433 5 16.2155 5 16.1877 5C16.1598 5 16.132 5 16.1042 5C16.0765 5 16.0487 5 16.021 5C15.9933 5 15.9656 5 15.938 5C15.9103 5 15.8827 5 15.8551 5C15.8276 5 15.8 5 15.7725 5C15.745 5 15.7175 5 15.69 5C15.6626 5 15.6351 5 15.6077 5C15.5804 5 15.553 5 15.5257 5C15.4983 5 15.471 5 15.4438 5C15.4165 5 15.3893 5 15.3621 5C15.3349 5 15.3077 5 15.2806 5C15.2535 5 15.2264 5 15.1993 5C15.1723 5 15.1453 5 15.1183 5C15.0913 5 15.0643 5 15.0374 5C15.0105 5 14.9836 5 14.9568 5C14.9299 5 14.9031 5 14.8763 5C14.8495 5 14.8228 5 14.7961 5C14.7694 5 14.7427 5 14.7161 5C14.6894 5 14.6628 5 14.6363 5C14.6097 5 14.5832 5 14.5567 5C14.5302 5 14.5038 5 14.4774 5C14.4509 5 14.4246 5 14.3982 5C14.3719 5 14.3456 5 14.3193 5C14.2931 5 14.2668 5 14.2407 5C14.2145 5 14.1883 5 14.1622 5C14.1361 5 14.11 5 14.084 5C14.058 5 14.032 5 14.006 5C13.9801 5 13.9542 5 13.9283 5C13.9024 5 13.8766 5 13.8508 5C13.825 5 13.7993 5 13.7735 5C13.7478 5 13.7222 5 13.6965 5C13.6709 5 13.6453 5 13.6198 5C13.5942 5 13.5687 5 13.5432 5C13.5178 5 13.4923 5 13.467 5C13.4416 5 13.4162 5 13.3909 5C13.3656 5 13.3404 5 13.3152 5C13.29 5 13.2648 5 13.2397 5C13.2145 5 13.1894 5 13.1644 5C13.1394 5 13.1144 5 13.0894 5C13.0644 5 13.0395 5 13.0147 5C12.9898 5 12.965 5 12.9402 5C12.9154 5 12.8907 5 12.866 5C12.8413 5 12.8166 5 12.792 5C12.7674 5 12.7429 5 12.7184 5C12.6939 5 12.6694 5 12.645 5C12.6206 5 12.5962 5 12.5718 5C12.5475 5 12.5232 5 12.499 5C12.4748 5 12.4506 5 12.4264 5C12.4023 5 12.3782 5 12.3541 5C12.3301 5 12.3061 5 12.2821 5C12.2582 5 12.2343 5 12.2104 5C12.1865 5 12.1627 5 12.139 5C12.1152 5 12.0915 5 12.0678 5C12.0441 5 12.0205 5 11.997 5C11.9734 5 11.9499 5 11.9264 5C11.9029 5 11.8795 5 11.8561 5C11.8327 5 11.8094 5 11.7861 5C11.7629 5 11.7396 5 11.7165 5C11.6933 5 11.6702 5 11.6471 5C11.624 5 11.601 5 11.578 5C11.555 5 11.5321 5 11.5092 5C11.4864 5 11.4635 5 11.4408 5C11.418 5 11.3953 5 11.3726 5C11.3499 5 11.3273 5 11.3048 5C11.2822 5 11.2597 5 11.2372 5C11.2148 5 11.1924 5 11.17 5C11.1477 5 11.1254 5 11.1031 5C11.0809 5 11.0587 5 11.0365 5C11.0144 5 10.9923 5 10.9703 5C10.9483 5 10.9263 5 10.9043 5C10.8824 5 10.8606 5 10.8387 5C10.8169 5 10.7952 5 10.7735 5C10.7518 5 10.7301 5 10.7085 5C10.6869 5 10.6654 5 10.6439 5C10.6224 5 10.601 5 10.5796 5C10.5582 5 10.5369 5 10.5156 5C10.4944 5 10.4732 5 10.452 5C10.4309 5 10.4098 5 10.3888 5C10.3677 5 10.3467 5 10.3258 5C10.3049 5 10.284 5 10.2632 5C10.2424 5 10.2217 5 10.201 5C10.1803 5 10.1597 5 10.1391 5C10.1185 5 10.098 5 10.0775 5C10.0571 5 10.0367 5 10.0164 5C9.99601 5 9.97573 5 9.95551 5C9.93529 5 9.91513 5 9.89503 5C9.87493 5 9.85489 5 9.83491 5C9.81493 5 9.795 5 9.77514 5C9.75528 5 9.73548 5 9.71574 5C9.696 5 9.67632 5 9.65671 5C9.63709 5 9.61753 5 9.59804 5C9.57854 5 9.55911 5 9.53973 5C9.52036 5 9.50105 5 9.4818 5C9.46255 5 9.44337 5 9.42424 5C9.40512 5 9.38606 5 9.36706 5C9.34806 5 9.32913 5 9.31026 5C9.29138 5 9.27257 5 9.25383 5C9.23508 5 9.2164 5 9.19778 5C9.17916 5 9.16061 5 9.14212 5C9.12363 5 9.1052 5 9.08684 5C9.06848 5 9.05018 5 9.03195 5C9.01372 5 8.99555 5 8.97745 5C8.95934 5 8.94131 5 8.92334 5C8.90537 5 8.88746 5 8.86962 5C8.85178 5 8.83401 5 8.8163 5C8.79859 5 8.78095 5 8.76337 5C8.7458 5 8.72829 5 8.71085 5C8.69341 5 8.67603 5 8.65873 5C8.64142 5 8.62418 5 8.60701 5C8.58984 5 8.57273 5 8.55569 5C8.53866 5 8.52169 5 8.50479 5C8.48789 5 8.47106 5 8.45429 5C8.43753 5 8.42083 5 8.40421 5C8.38758 5 8.37103 5 8.35454 5C8.33805 5 8.32163 5 8.30529 5C8.28894 5 8.27266 5 8.25645 5C8.24024 5 8.2241 5 8.20803 5C8.19197 5 8.17597 5 8.16004 5C8.14411 5 8.12826 5 8.11247 5C8.09669 5 8.08097 5 8.06533 5C8.04969 5 8.03412 5 8.01862 5C8.00312 5 7.98769 5 7.97233 5C7.95698 5 7.94169 5 7.92648 5C7.91127 5 7.89613 5 7.88107 5C7.866 5 7.85101 5 7.83609 5C7.82117 5 7.80632 5 7.79155 5C7.77677 5 7.76207 5 7.74745 5C7.73282 5 7.71827 5 7.70379 5C7.68931 5 7.67491 5 7.66058 5C7.64625 5 7.63199 5 7.61781 5C7.60363 5 7.58952 5 7.57549 5C7.56146 5 7.54751 5 7.53363 5C7.51975 5 7.50595 5 7.49222 5C7.47849 5 7.46484 5 7.45126 5C7.43769 5 7.42419 5 7.41076 5C7.39734 5 7.38399 5 7.37072 5C7.35745 5 7.34426 5 7.33114 5C7.31803 5 7.30499 5 7.29203 5C7.27907 5 7.26618 5 7.25338 5C7.24057 5 7.22785 5 7.2152 5C7.20255 5 7.18998 5 7.17749 5C7.16499 5 7.15258 5 7.14024 5C7.12791 5 7.11565 5 7.10348 5C7.0913 5 7.07921 5 7.06719 5C7.05517 5 7.04323 5 7.03137 5C7.01952 5 7.00774 5 6.99604 5C6.98434 5 6.97273 5 6.96119 5C6.94966 5 6.9382 5 6.92682 5C6.91545 5 6.90416 5 6.89294 5C6.88173 5 6.8706 5 6.85955 5C6.8485 5 6.83754 5 6.82665 5C6.81577 5 6.80496 5 6.79424 5C6.78352 5 6.77288 5 6.76233 5C6.75177 5 6.7413 5 6.73091 5C6.72052 5 6.71021 5 6.69999 5C6.68976 5 6.67962 5 6.66957 5C6.65951 5 6.64954 5 6.63965 5C6.62976 5 6.61996 5 6.61024 5C6.60052 5 6.59088 5 6.58133 5C6.57178 5 6.56232 5 6.55294 5C6.54356 5 6.53426 5 6.52505 5C6.51584 5 6.50672 5 6.49768 5C6.48864 5 6.47969 5 6.47082 5C6.46196 5 6.45318 5 6.44448 5C6.43579 5 6.42718 5 6.41866 5C6.41014 5 6.40171 5 6.39336 5C6.38502 5 6.37676 5 6.36859 5C6.36041 5 6.35233 5 6.34433 5C6.33634 5 6.32843 5 6.32061 5C6.31279 5 6.30506 5 6.29742 5C6.28977 5 6.28222 5 6.27475 5C6.26729 5 6.25991 5 6.25262 5C6.24534 5 6.23814 5 6.23103 5C6.22392 5 6.2169 5 6.20997 5C6.20305 5 6.19621 5 6.18946 5C6.18271 5 6.17605 5 6.16948 5C6.16292 5 6.15644 5 6.15005 5C6.14367 5 6.13737 5 6.13117 5C6.12497 5 6.11885 5 6.11283 5C6.10681 5 6.10089 5 6.09505 5C6.08921 5 6.08347 5 6.07781 5C6.07216 5 6.0666 5 6.06113 5C6.05567 5 6.05029 5 6.04501 5C6.03973 5 6.03454 5 6.02945 5C6.02435 5 6.01935 5 6.01444 5C6.00953 5 6.00472 5 6 5V7C6.00472 7 6.00953 7 6.01444 7C6.01935 7 6.02435 7 6.02945 7C6.03454 7 6.03973 7 6.04501 7C6.05029 7 6.05567 7 6.06113 7C6.0666 7 6.07216 7 6.07781 7C6.08347 7 6.08921 7 6.09505 7C6.10089 7 6.10681 7 6.11283 7C6.11885 7 6.12497 7 6.13117 7C6.13737 7 6.14367 7 6.15005 7C6.15644 7 6.16292 7 6.16948 7C6.17605 7 6.18271 7 6.18946 7C6.19621 7 6.20305 7 6.20997 7C6.2169 7 6.22392 7 6.23103 7C6.23814 7 6.24534 7 6.25262 7C6.25991 7 6.26729 7 6.27475 7C6.28222 7 6.28977 7 6.29742 7C6.30506 7 6.31279 7 6.32061 7C6.32843 7 6.33634 7 6.34433 7C6.35233 7 6.36041 7 6.36859 7C6.37676 7 6.38502 7 6.39336 7C6.40171 7 6.41014 7 6.41866 7C6.42718 7 6.43579 7 6.44448 7C6.45318 7 6.46196 7 6.47082 7C6.47969 7 6.48864 7 6.49768 7C6.50672 7 6.51584 7 6.52505 7C6.53426 7 6.54356 7 6.55294 7C6.56232 7 6.57178 7 6.58133 7C6.59088 7 6.60052 7 6.61024 7C6.61996 7 6.62976 7 6.63965 7C6.64954 7 6.65951 7 6.66957 7C6.67962 7 6.68976 7 6.69999 7C6.71021 7 6.72052 7 6.73091 7C6.7413 7 6.75177 7 6.76233 7C6.77288 7 6.78352 7 6.79424 7C6.80496 7 6.81577 7 6.82665 7C6.83754 7 6.8485 7 6.85955 7C6.8706 7 6.88173 7 6.89294 7C6.90416 7 6.91545 7 6.92682 7C6.9382 7 6.94966 7 6.96119 7C6.97273 7 6.98434 7 6.99604 7C7.00774 7 7.01952 7 7.03137 7C7.04323 7 7.05517 7 7.06719 7C7.07921 7 7.0913 7 7.10348 7C7.11565 7 7.12791 7 7.14024 7C7.15258 7 7.16499 7 7.17749 7C7.18998 7 7.20255 7 7.2152 7C7.22785 7 7.24057 7 7.25338 7C7.26618 7 7.27907 7 7.29203 7C7.30499 7 7.31803 7 7.33114 7C7.34426 7 7.35745 7 7.37072 7C7.38399 7 7.39734 7 7.41076 7C7.42419 7 7.43769 7 7.45126 7C7.46484 7 7.47849 7 7.49222 7C7.50595 7 7.51975 7 7.53363 7C7.54751 7 7.56146 7 7.57549 7C7.58952 7 7.60363 7 7.61781 7C7.63199 7 7.64625 7 7.66058 7C7.67491 7 7.68931 7 7.70379 7C7.71827 7 7.73282 7 7.74745 7C7.76207 7 7.77677 7 7.79155 7C7.80632 7 7.82117 7 7.83609 7C7.85101 7 7.866 7 7.88107 7C7.89613 7 7.91127 7 7.92648 7C7.94169 7 7.95698 7 7.97233 7C7.98769 7 8.00312 7 8.01862 7C8.03412 7 8.04969 7 8.06533 7C8.08097 7 8.09669 7 8.11247 7C8.12826 7 8.14411 7 8.16004 7C8.17597 7 8.19197 7 8.20803 7C8.2241 7 8.24024 7 8.25645 7C8.27266 7 8.28894 7 8.30529 7C8.32163 7 8.33805 7 8.35454 7C8.37103 7 8.38758 7 8.40421 7C8.42083 7 8.43753 7 8.45429 7C8.47106 7 8.48789 7 8.50479 7C8.52169 7 8.53866 7 8.55569 7C8.57273 7 8.58984 7 8.60701 7C8.62418 7 8.64142 7 8.65873 7C8.67603 7 8.69341 7 8.71085 7C8.72829 7 8.7458 7 8.76337 7C8.78095 7 8.79859 7 8.8163 7C8.83401 7 8.85178 7 8.86962 7C8.88746 7 8.90537 7 8.92334 7C8.94131 7 8.95934 7 8.97745 7C8.99555 7 9.01372 7 9.03195 7C9.05018 7 9.06848 7 9.08684 7C9.1052 7 9.12363 7 9.14212 7C9.16061 7 9.17916 7 9.19778 7C9.2164 7 9.23508 7 9.25383 7C9.27257 7 9.29138 7 9.31026 7C9.32913 7 9.34806 7 9.36706 7C9.38606 7 9.40512 7 9.42424 7C9.44337 7 9.46255 7 9.4818 7C9.50105 7 9.52036 7 9.53973 7C9.55911 7 9.57854 7 9.59804 7C9.61753 7 9.63709 7 9.65671 7C9.67632 7 9.696 7 9.71574 7C9.73548 7 9.75528 7 9.77514 7C9.795 7 9.81493 7 9.83491 7C9.85489 7 9.87493 7 9.89503 7C9.91513 7 9.93529 7 9.95551 7C9.97573 7 9.99601 7 10.0164 7C10.0367 7 10.0571 7 10.0775 7C10.098 7 10.1185 7 10.1391 7C10.1597 7 10.1803 7 10.201 7C10.2217 7 10.2424 7 10.2632 7C10.284 7 10.3049 7 10.3258 7C10.3467 7 10.3677 7 10.3888 7C10.4098 7 10.4309 7 10.452 7C10.4732 7 10.4944 7 10.5156 7C10.5369 7 10.5582 7 10.5796 7C10.601 7 10.6224 7 10.6439 7C10.6654 7 10.6869 7 10.7085 7C10.7301 7 10.7518 7 10.7735 7C10.7952 7 10.8169 7 10.8387 7C10.8606 7 10.8824 7 10.9043 7C10.9263 7 10.9483 7 10.9703 7C10.9923 7 11.0144 7 11.0365 7C11.0587 7 11.0809 7 11.1031 7C11.1254 7 11.1477 7 11.17 7C11.1924 7 11.2148 7 11.2372 7C11.2597 7 11.2822 7 11.3048 7C11.3273 7 11.3499 7 11.3726 7C11.3953 7 11.418 7 11.4408 7C11.4635 7 11.4864 7 11.5092 7C11.5321 7 11.555 7 11.578 7C11.601 7 11.624 7 11.6471 7C11.6702 7 11.6933 7 11.7165 7C11.7396 7 11.7629 7 11.7861 7C11.8094 7 11.8327 7 11.8561 7C11.8795 7 11.9029 7 11.9264 7C11.9499 7 11.9734 7 11.997 7C12.0205 7 12.0441 7 12.0678 7C12.0915 7 12.1152 7 12.139 7C12.1627 7 12.1865 7 12.2104 7C12.2343 7 12.2582 7 12.2821 7C12.3061 7 12.3301 7 12.3541 7C12.3782 7 12.4023 7 12.4264 7C12.4506 7 12.4748 7 12.499 7C12.5232 7 12.5475 7 12.5718 7C12.5962 7 12.6206 7 12.645 7C12.6694 7 12.6939 7 12.7184 7C12.7429 7 12.7674 7 12.792 7C12.8166 7 12.8413 7 12.866 7C12.8907 7 12.9154 7 12.9402 7C12.965 7 12.9898 7 13.0147 7C13.0395 7 13.0644 7 13.0894 7C13.1144 7 13.1394 7 13.1644 7C13.1894 7 13.2145 7 13.2397 7C13.2648 7 13.29 7 13.3152 7C13.3404 7 13.3656 7 13.3909 7C13.4162 7 13.4416 7 13.467 7C13.4923 7 13.5178 7 13.5432 7C13.5687 7 13.5942 7 13.6198 7C13.6453 7 13.6709 7 13.6965 7C13.7222 7 13.7478 7 13.7735 7C13.7993 7 13.825 7 13.8508 7C13.8766 7 13.9024 7 13.9283 7C13.9542 7 13.9801 7 14.006 7C14.032 7 14.058 7 14.084 7C14.11 7 14.1361 7 14.1622 7C14.1883 7 14.2145 7 14.2407 7C14.2668 7 14.2931 7 14.3193 7C14.3456 7 14.3719 7 14.3982 7C14.4246 7 14.4509 7 14.4774 7C14.5038 7 14.5302 7 14.5567 7C14.5832 7 14.6097 7 14.6363 7C14.6628 7 14.6894 7 14.7161 7C14.7427 7 14.7694 7 14.7961 7C14.8228 7 14.8495 7 14.8763 7C14.9031 7 14.9299 7 14.9568 7C14.9836 7 15.0105 7 15.0374 7C15.0643 7 15.0913 7 15.1183 7C15.1453 7 15.1723 7 15.1993 7C15.2264 7 15.2535 7 15.2806 7C15.3077 7 15.3349 7 15.3621 7C15.3893 7 15.4165 7 15.4438 7C15.471 7 15.4983 7 15.5257 7C15.553 7 15.5804 7 15.6077 7C15.6351 7 15.6626 7 15.69 7C15.7175 7 15.745 7 15.7725 7C15.8 7 15.8276 7 15.8551 7C15.8827 7 15.9103 7 15.938 7C15.9656 7 15.9933 7 16.021 7C16.0487 7 16.0765 7 16.1042 7C16.132 7 16.1598 7 16.1877 7C16.2155 7 16.2433 7 16.2712 7C16.2991 7 16.327 7 16.355 7C16.383 7 16.4109 7 16.4389 7C16.467 7 16.495 7 16.5231 7C16.5511 7 16.5792 7 16.6073 7C16.6355 7 16.6636 7 16.6918 7C16.72 7 16.7482 7 16.7764 7C16.8047 7 16.8329 7 16.8612 7C16.8895 7 16.9178 7 16.9462 7C16.9745 7 17.0029 7 17.0313 7C17.0597 7 17.0881 7 17.1166 7C17.145 7 17.1735 7 17.202 7C17.2305 7 17.2591 7 17.2876 7C17.3162 7 17.3448 7 17.3734 7C17.402 7 17.4306 7 17.4593 7C17.4879 7 17.5166 7 17.5453 7C17.574 7 17.6028 7 17.6315 7C17.6603 7 17.6891 7 17.7179 7C17.7467 7 17.7755 7 17.8044 7C17.8332 7 17.8621 7 17.891 7C17.9199 7 17.9488 7 17.9778 7C18.0067 7 18.0357 7 18.0647 7C18.0937 7 18.1227 7 18.1517 7C18.1808 7 18.2098 7 18.2389 7C18.268 7 18.2971 7 18.3262 7C18.3553 7 18.3845 7 18.4136 7C18.4428 7 18.472 7 18.5012 7C18.5304 7 18.5597 7 18.5889 7C18.6182 7 18.6474 7 18.6767 7C18.706 7 18.7353 7 18.7647 7C18.794 7 18.8233 7 18.8527 7C18.8821 7 18.9115 7 18.9409 7C18.9703 7 18.9997 7 19.0292 7C19.0586 7 19.0881 7 19.1176 7C19.1471 7 19.1766 7 19.2061 7C19.2356 7 19.2651 7 19.2947 7C19.3243 7 19.3538 7 19.3834 7C19.413 7 19.4426 7 19.4723 7C19.5019 7 19.5315 7 19.5612 7C19.5909 7 19.6205 7 19.6502 7C19.6799 7 19.7096 7 19.7394 7C19.7691 7 19.7988 7 19.8286 7C19.8584 7 19.8881 7 19.9179 7C19.9477 7 19.9775 7 20.0073 7C20.0372 7 20.067 7 20.0968 7C20.1267 7 20.1566 7 20.1864 7C20.2163 7 20.2462 7 20.2761 7C20.306 7 20.3359 7 20.3659 7C20.3958 7 20.4258 7 20.4557 7C20.4857 7 20.5157 7 20.5457 7C20.5756 7 20.6056 7 20.6357 7C20.6657 7 20.6957 7 20.7257 7C20.7558 7 20.7858 7 20.8159 7C20.846 7 20.876 7 20.9061 7C20.9362 7 20.9663 7 20.9964 7C21.0265 7 21.0567 7 21.0868 7C21.1169 7 21.1471 7 21.1772 7C21.2074 7 21.2375 7 21.2677 7C21.2979 7 21.3281 7 21.3583 7C21.3885 7 21.4187 7 21.4489 7C21.4791 7 21.5093 7 21.5395 7C21.5698 7 21.6 7 21.6303 7C21.6605 7 21.6908 7 21.721 7C21.7513 7 21.7816 7 21.8119 7C21.8422 7 21.8725 7 21.9028 7C21.9331 7 21.9634 7 21.9937 7C22.024 7 22.0543 7 22.0847 7C22.115 7 22.1453 7 22.1757 7C22.206 7 22.2364 7 22.2667 7C22.2971 7 22.3274 7 22.3578 7C22.3882 7 22.4186 7 22.4489 7C22.4793 7 22.5097 7 22.5401 7C22.5705 7 22.6009 7 22.6313 7C22.6617 7 22.6921 7 22.7225 7C22.7529 7 22.7834 7 22.8138 7C22.8442 7 22.8746 7 22.9051 7C22.9355 7 22.9659 7 22.9964 7C23.0268 7 23.0573 7 23.0877 7C23.1181 7 23.1486 7 23.1791 7C23.2095 7 23.24 7 23.2704 7C23.3009 7 23.3313 7 23.3618 7C23.3923 7 23.4227 7 23.4532 7C23.4837 7 23.5141 7 23.5446 7C23.5751 7 23.6056 7 23.636 7C23.6665 7 23.697 7 23.7275 7C23.7579 7 23.7884 7 23.8189 7C23.8494 7 23.8798 7 23.9103 7C23.9408 7 23.9713 7 24.0018 7C24.0322 7 24.0627 7 24.0932 7C24.1237 7 24.1541 7 24.1846 7C24.2151 7 24.2456 7 24.2761 7C24.3065 7 24.337 7 24.3675 7C24.398 7 24.4284 7 24.4589 7C24.4894 7 24.5198 7 24.5503 7C24.5808 7 24.6112 7 24.6417 7C24.6721 7 24.7026 7 24.7331 7C24.7635 7 24.794 7 24.8244 7C24.8549 7 24.8853 7 24.9158 7C24.9462 7 24.9766 7 25.0071 7C25.0375 7 25.0679 7 25.0984 7C25.1288 7 25.1592 7 25.1896 7C25.2201 7 25.2505 7 25.2809 7C25.3113 7 25.3417 7 25.3721 7C25.4025 7 25.4329 7 25.4633 7C25.4937 7 25.5241 7 25.5544 7C25.5848 7 25.6152 7 25.6455 7C25.6759 7 25.7063 7 25.7366 7C25.767 7 25.7973 7 25.8277 7C25.858 7 25.8883 7 25.9187 7C25.949 7 25.9793 7 26.0096 7C26.0399 7 26.0702 7 26.1005 7C26.1308 7 26.1611 7 26.1914 7C26.2216 7 26.2519 7 26.2822 7C26.3124 7 26.3427 7 26.3729 7C26.4032 7 26.4334 7 26.4636 7C26.4939 7 26.5241 7 26.5543 7C26.5845 7 26.6147 7 26.6449 7C26.675 7 26.7052 7 26.7354 7C26.7655 7 26.7957 7 26.8258 7C26.856 7 26.8861 7 26.9162 7C26.9464 7 26.9765 7 27.0066 7C27.0367 7 27.0668 7 27.0968 7C27.1269 7 27.157 7 27.187 7C27.2171 7 27.2471 7 27.2772 7C27.3072 7 27.3372 7 27.3672 7C27.3972 7 27.4272 7 27.4572 7C27.4872 7 27.5171 7 27.5471 7C27.577 7 27.607 7 27.6369 7C27.6668 7 27.6967 7 27.7266 7C27.7565 7 27.7864 7 27.8162 7C27.8461 7 27.876 7 27.9058 7C27.9356 7 27.9655 7 27.9953 7C28.0251 7 28.0549 7 28.0846 7C28.1144 7 28.1442 7 28.1739 7C28.2037 7 28.2334 7 28.2631 7C28.2928 7 28.3225 7 28.3522 7C28.3819 7 28.4115 7 28.4412 7C28.4708 7 28.5005 7 28.5301 7C28.5597 7 28.5893 7 28.6189 7C28.6484 7 28.678 7 28.7075 7C28.7371 7 28.7666 7 28.7961 7C28.8256 7 28.8551 7 28.8846 7C28.914 7 28.9435 7 28.9729 7C29.0023 7 29.0318 7 29.0611 7C29.0905 7 29.1199 7 29.1493 7C29.1786 7 29.208 7 29.2373 7C29.2666 7 29.2959 7 29.3251 7C29.3544 7 29.3837 7 29.4129 7C29.4421 7 29.4714 7 29.5005 7C29.5297 7 29.5589 7 29.5881 7C29.6172 7 29.6463 7 29.6754 7C29.7045 7 29.7336 7 29.7627 7C29.7917 7 29.8208 7 29.8498 7C29.8788 7 29.9078 7 29.9368 7C29.9658 7 29.9947 7 30.0236 7C30.0526 7 30.0815 7 30.1103 7C30.1392 7 30.1681 7 30.1969 7C30.2257 7 30.2545 7 30.2833 7C30.3121 7 30.3409 7 30.3696 7C30.3983 7 30.4271 7 30.4557 7C30.4844 7 30.5131 7 30.5417 7C30.5704 7 30.599 7 30.6276 7C30.6561 7 30.6847 7 30.7132 7C30.7418 7 30.7703 7 30.7988 7C30.8272 7 30.8557 7 30.8841 7C30.9126 7 30.941 7 30.9693 7C30.9977 7 31.0261 7 31.0544 7C31.0827 7 31.111 7 31.1393 7C31.1675 7 31.1958 7 31.224 7C31.2522 7 31.2804 7 31.3085 7C31.3367 7 31.3648 7 31.3929 7C31.421 7 31.4491 7 31.4771 7C31.5052 7 31.5332 7 31.5612 7C31.5891 7 31.6171 7 31.645 7C31.6729 7 31.7008 7 31.7287 7C31.7566 7 31.7844 7 31.8122 7C31.84 7 31.8678 7 31.8955 7C31.9233 7 31.951 7 31.9787 7C32.0063 7 32.034 7 32.0616 7C32.0892 7 32.1168 7 32.1444 7C32.1719 7 32.1994 7 32.2269 7C32.2544 7 32.2819 7 32.3093 7C32.3367 7 32.3641 7 32.3915 7C32.4189 7 32.4462 7 32.4735 7C32.5008 7 32.5281 7 32.5553 7C32.5825 7 32.6097 7 32.6369 7C32.664 7 32.6912 7 32.7183 7C32.7454 7 32.7724 7 32.7994 7C32.8265 7 32.8535 7 32.8804 7C32.9074 7 32.9343 7 32.9612 7C32.9881 7 33.0149 7 33.0417 7C33.0686 7 33.0953 7 33.1221 7C33.1488 7 33.1755 7 33.2022 7C33.2289 7 33.2555 7 33.2821 7C33.3087 7 33.3353 7 33.3618 7C33.3883 7 33.4148 7 33.4413 7C33.4677 7 33.4942 7 33.5205 7C33.5469 7 33.5733 7 33.5996 7C33.6259 7 33.6521 7 33.6784 7C33.7046 7 33.7308 7 33.7569 7C33.7831 7 33.8092 7 33.8353 7C33.8613 7 33.8874 7 33.9134 7C33.9394 7 33.9653 7 33.9912 7C34.0171 7 34.043 7 34.0689 7C34.0947 7 34.1205 7 34.1462 7C34.172 7 34.1977 7 34.2234 7C34.2491 7 34.2747 7 34.3003 7C34.3259 7 34.3514 7 34.3769 7C34.4025 7 34.4279 7 34.4534 7C34.4788 7 34.5042 7 34.5295 7C34.5549 7 34.5802 7 34.6054 7C34.6307 7 34.6559 7 34.6811 7C34.7063 7 34.7314 7 34.7565 7C34.7816 7 34.8066 7 34.8316 7C34.8566 7 34.8816 7 34.9065 7C34.9314 7 34.9563 7 34.9811 7C35.0059 7 35.0307 7 35.0555 7C35.0802 7 35.1049 7 35.1295 7C35.1542 7 35.1788 7 35.2034 7C35.2279 7 35.2524 7 35.2769 7C35.3014 7 35.3258 7 35.3502 7C35.3746 7 35.3989 7 35.4232 7C35.4475 7 35.4717 7 35.4959 7C35.5201 7 35.5442 7 35.5683 7C35.5924 7 35.6165 7 35.6405 7C35.6645 7 35.6885 7 35.7124 7C35.7363 7 35.7602 7 35.784 7C35.8078 7 35.8316 7 35.8553 7C35.879 7 35.9027 7 35.9263 7C35.9499 7 35.9735 7 35.997 7C36.0206 7 36.044 7 36.0675 7C36.0909 7 36.1143 7 36.1376 7C36.1609 7 36.1842 7 36.2074 7C36.2307 7 36.2539 7 36.277 7C36.3001 7 36.3232 7 36.3462 7C36.3693 7 36.3922 7 36.4152 7C36.4381 7 36.461 7 36.4838 7C36.5066 7 36.5294 7 36.5521 7C36.5748 7 36.5975 7 36.6201 7C36.6427 7 36.6653 7 36.6878 7C36.7103 7 36.7328 7 36.7552 7C36.7776 7 36.8 7 36.8223 7C36.8446 7 36.8668 7 36.889 7C36.9112 7 36.9334 7 36.9555 7C36.9776 7 36.9996 7 37.0216 7C37.0436 7 37.0655 7 37.0874 7C37.1092 7 37.1311 7 37.1528 7C37.1746 7 37.1963 7 37.218 7C37.2396 7 37.2612 7 37.2828 7C37.3043 7 37.3258 7 37.3472 7C37.3687 7 37.39 7 37.4114 7C37.4327 7 37.4539 7 37.4752 7C37.4964 7 37.5175 7 37.5386 7C37.5597 7 37.5808 7 37.6017 7C37.6227 7 37.6436 7 37.6645 7C37.6854 7 37.7062 7 37.7269 7C37.7477 7 37.7684 7 37.789 7C37.8097 7 37.8302 7 37.8508 7C37.8713 7 37.8917 7 37.9121 7C37.9325 7 37.9529 7 37.9732 7C37.9935 7 38.0137 7 38.0339 7C38.054 7 38.0741 7 38.0942 7C38.1142 7 38.1342 7 38.1541 7C38.1741 7 38.1939 7 38.2137 7C38.2335 7 38.2533 7 38.273 7C38.2926 7 38.3123 7 38.3318 7C38.3514 7 38.3709 7 38.3903 7C38.4098 7 38.4291 7 38.4485 7C38.4678 7 38.487 7 38.5062 7C38.5254 7 38.5445 7 38.5636 7C38.5827 7 38.6017 7 38.6206 7C38.6396 7 38.6584 7 38.6773 7C38.6961 7 38.7148 7 38.7335 7C38.7522 7 38.7708 7 38.7894 7C38.8079 7 38.8264 7 38.8449 7C38.8633 7 38.8817 7 38.9 7C38.9183 7 38.9365 7 38.9547 7C38.9729 7 38.991 7 39.009 7C39.027 7 39.045 7 39.0629 7C39.0808 7 39.0987 7 39.1165 7C39.1342 7 39.152 7 39.1696 7C39.1873 7 39.2048 7 39.2224 7C39.2399 7 39.2573 7 39.2747 7C39.2921 7 39.3094 7 39.3266 7C39.3439 7 39.3611 7 39.3782 7C39.3953 7 39.4123 7 39.4293 7C39.4463 7 39.4632 7 39.48 7C39.4968 7 39.5136 7 39.5303 7C39.547 7 39.5636 7 39.5802 7C39.5968 7 39.6133 7 39.6297 7C39.6461 7 39.6625 7 39.6787 7C39.695 7 39.7112 7 39.7274 7C39.7435 7 39.7596 7 39.7756 7C39.7916 7 39.8076 7 39.8234 7C39.8393 7 39.8551 7 39.8708 7C39.8865 7 39.9022 7 39.9177 7C39.9333 7 39.9488 7 39.9643 7C39.9797 7 39.995 7 40.0103 7C40.0256 7 40.0408 7 40.056 7C40.0711 7 40.0862 7 40.1012 7C40.1162 7 40.1311 7 40.146 7C40.1608 7 40.1756 7 40.1903 7C40.205 7 40.2197 7 40.2342 7C40.2488 7 40.2633 7 40.2777 7C40.2921 7 40.3064 7 40.3207 7C40.3349 7 40.3491 7 40.3632 7C40.3774 7 40.3914 7 40.4053 7C40.4193 7 40.4332 7 40.447 7C40.4608 7 40.4746 7 40.4882 7C40.5019 7 40.5155 7 40.529 7C40.5425 7 40.5559 7 40.5692 7C40.5826 7 40.5959 7 40.6091 7C40.6223 7 40.6354 7 40.6484 7C40.6615 7 40.6745 7 40.6873 7C40.7002 7 40.713 7 40.7258 7C40.7385 7 40.7512 7 40.7637 7C40.7763 7 40.7888 7 40.8012 7C40.8137 7 40.826 7 40.8383 7C40.8505 7 40.8627 7 40.8748 7C40.8869 7 40.8989 7 40.9109 7C40.9228 7 40.9347 7 40.9465 7C40.9583 7 40.97 7 40.9816 7C40.9932 7 41.0048 7 41.0162 7C41.0277 7 41.0391 7 41.0504 7C41.0617 7 41.0729 7 41.084 7C41.0952 7 41.1062 7 41.1172 7V5Z" fill="#FCFCFD"/>
</svg>
