<svg width="104" height="112" viewBox="0 0 104 112" fill="none" xmlns="http://www.w3.org/2000/svg">
<path d="M92.6667 105.989C92.6667 108.935 95.0545 111.322 98 111.322C100.946 111.322 103.333 108.935 103.333 105.989C103.333 103.044 100.946 100.656 98 100.656C95.0545 100.656 92.6667 103.044 92.6667 105.989ZM44.9878 16.0001L43.9878 15.9908V16.0001H44.9878ZM0.666667 6C0.666667 8.94552 3.05448 11.3333 6 11.3333C8.94552 11.3333 11.3333 8.94552 11.3333 6C11.3333 3.05448 8.94552 0.666667 6 0.666667C3.05448 0.666667 0.666667 3.05448 0.666667 6ZM53.6829 104.989C51.446 104.989 49.9104 104.711 48.8265 104.161C47.791 103.636 47.0819 102.818 46.5817 101.512C46.0651 100.163 45.784 98.3227 45.6419 95.8167C45.5004 93.321 45.5 90.2602 45.5 86.5H43.5C43.5 90.2398 43.4996 93.3651 43.6451 95.9299C43.7899 98.4843 44.0828 100.579 44.714 102.227C45.3617 103.918 46.3744 105.16 47.9216 105.945C49.4204 106.706 51.3284 106.989 53.6829 106.989V104.989ZM45.5 86.5C45.5 76.0996 45.6219 60.0371 45.7439 45.7918C45.8658 31.5532 45.9878 19.122 45.9878 16.0001H43.9878C43.9878 19.1106 43.8659 31.5241 43.7439 45.7746C43.622 60.0184 43.5 76.0896 43.5 86.5H45.5ZM45.9878 16.0095C46.0113 13.4885 45.9092 11.5185 45.5825 9.99784C45.2523 8.46127 44.671 7.2809 43.6606 6.46304C42.67 5.6613 41.4029 5.32088 39.9528 5.1588C38.5047 4.99695 36.7195 5 34.6098 5V7C36.7635 7 38.4189 6.99982 39.7307 7.14643C41.0404 7.29281 41.8524 7.57256 42.4023 8.01761C42.9322 8.44653 43.3524 9.13957 43.6271 10.418C43.9052 11.7123 44.0111 13.4988 43.9878 15.9908L45.9878 16.0095ZM34.6098 5C34.5931 5 34.5764 5 34.5597 5C34.543 5 34.5263 5 34.5096 5C34.4928 5 34.4761 5 34.4593 5C34.4425 5 34.4257 5 34.4089 5C34.3921 5 34.3752 5 34.3584 5C34.3415 5 34.3246 5 34.3077 5C34.2908 5 34.2739 5 34.2569 5C34.24 5 34.223 5 34.206 5C34.189 5 34.172 5 34.155 5C34.138 5 34.1209 5 34.1039 5C34.0868 5 34.0697 5 34.0526 5C34.0355 5 34.0184 5 34.0012 5C33.9841 5 33.9669 5 33.9497 5C33.9325 5 33.9153 5 33.8981 5C33.8808 5 33.8636 5 33.8463 5C33.8291 5 33.8118 5 33.7945 5C33.7772 5 33.7598 5 33.7425 5C33.7251 5 33.7078 5 33.6904 5C33.673 5 33.6556 5 33.6382 5C33.6207 5 33.6033 5 33.5858 5C33.5684 5 33.5509 5 33.5334 5C33.5159 5 33.4984 5 33.4808 5C33.4633 5 33.4457 5 33.4281 5C33.4106 5 33.393 5 33.3753 5C33.3577 5 33.3401 5 33.3224 5C33.3048 5 33.2871 5 33.2694 5C33.2517 5 33.234 5 33.2163 5C33.1986 5 33.1808 5 33.1631 5C33.1453 5 33.1275 5 33.1097 5C33.0919 5 33.0741 5 33.0563 5C33.0384 5 33.0206 5 33.0027 5C32.9848 5 32.9669 5 32.949 5C32.9311 5 32.9132 5 32.8952 5C32.8773 5 32.8593 5 32.8413 5C32.8234 5 32.8054 5 32.7873 5C32.7693 5 32.7513 5 32.7332 5C32.7152 5 32.6971 5 32.679 5C32.6609 5 32.6428 5 32.6247 5C32.6066 5 32.5885 5 32.5703 5C32.5521 5 32.534 5 32.5158 5C32.4976 5 32.4794 5 32.4611 5C32.4429 5 32.4247 5 32.4064 5C32.3882 5 32.3699 5 32.3516 5C32.3333 5 32.315 5 32.2967 5C32.2783 5 32.26 5 32.2416 5C32.2233 5 32.2049 5 32.1865 5C32.1681 5 32.1497 5 32.1313 5C32.1128 5 32.0944 5 32.0759 5C32.0575 5 32.039 5 32.0205 5C32.002 5 31.9835 5 31.965 5C31.9465 5 31.9279 5 31.9094 5C31.8908 5 31.8722 5 31.8536 5C31.8351 5 31.8164 5 31.7978 5C31.7792 5 31.7606 5 31.7419 5C31.7233 5 31.7046 5 31.6859 5C31.6672 5 31.6485 5 31.6298 5C31.6111 5 31.5924 5 31.5736 5C31.5549 5 31.5361 5 31.5173 5C31.4986 5 31.4798 5 31.461 5C31.4422 5 31.4233 5 31.4045 5C31.3857 5 31.3668 5 31.3479 5C31.3291 5 31.3102 5 31.2913 5C31.2724 5 31.2535 5 31.2346 5C31.2156 5 31.1967 5 31.1777 5C31.1588 5 31.1398 5 31.1208 5C31.1018 5 31.0828 5 31.0638 5C31.0448 5 31.0258 5 31.0067 5C30.9877 5 30.9686 5 30.9495 5C30.9305 5 30.9114 5 30.8923 5C30.8732 5 30.8541 5 30.8349 5C30.8158 5 30.7967 5 30.7775 5C30.7583 5 30.7392 5 30.72 5C30.7008 5 30.6816 5 30.6624 5C30.6432 5 30.6239 5 30.6047 5C30.5855 5 30.5662 5 30.5469 5C30.5277 5 30.5084 5 30.4891 5C30.4698 5 30.4505 5 30.4312 5C30.4118 5 30.3925 5 30.3731 5C30.3538 5 30.3344 5 30.3151 5C30.2957 5 30.2763 5 30.2569 5C30.2375 5 30.2181 5 30.1986 5C30.1792 5 30.1598 5 30.1403 5C30.1209 5 30.1014 5 30.0819 5C30.0624 5 30.0429 5 30.0234 5C30.0039 5 29.9844 5 29.9649 5C29.9454 5 29.9258 5 29.9063 5C29.8867 5 29.8671 5 29.8475 5C29.828 5 29.8084 5 29.7888 5C29.7692 5 29.7495 5 29.7299 5C29.7103 5 29.6906 5 29.671 5C29.6513 5 29.6317 5 29.612 5C29.5923 5 29.5726 5 29.5529 5C29.5332 5 29.5135 5 29.4938 5C29.4741 5 29.4543 5 29.4346 5C29.4148 5 29.3951 5 29.3753 5C29.3555 5 29.3357 5 29.3159 5C29.2961 5 29.2763 5 29.2565 5C29.2367 5 29.2169 5 29.197 5C29.1772 5 29.1573 5 29.1375 5C29.1176 5 29.0977 5 29.0778 5C29.058 5 29.0381 5 29.0182 5C28.9982 5 28.9783 5 28.9584 5C28.9385 5 28.9185 5 28.8986 5C28.8786 5 28.8587 5 28.8387 5C28.8187 5 28.7987 5 28.7787 5C28.7588 5 28.7387 5 28.7187 5C28.6987 5 28.6787 5 28.6587 5C28.6386 5 28.6186 5 28.5985 5C28.5785 5 28.5584 5 28.5383 5C28.5182 5 28.4982 5 28.4781 5C28.458 5 28.4379 5 28.4177 5C28.3976 5 28.3775 5 28.3574 5C28.3372 5 28.3171 5 28.2969 5C28.2768 5 28.2566 5 28.2364 5C28.2163 5 28.1961 5 28.1759 5C28.1557 5 28.1355 5 28.1153 5C28.0951 5 28.0748 5 28.0546 5C28.0344 5 28.0141 5 27.9939 5C27.9736 5 27.9534 5 27.9331 5C27.9128 5 27.8925 5 27.8723 5C27.852 5 27.8317 5 27.8114 5C27.7911 5 27.7708 5 27.7504 5C27.7301 5 27.7098 5 27.6894 5C27.6691 5 27.6487 5 27.6284 5C27.608 5 27.5877 5 27.5673 5C27.5469 5 27.5265 5 27.5061 5C27.4857 5 27.4653 5 27.4449 5C27.4245 5 27.4041 5 27.3837 5C27.3633 5 27.3428 5 27.3224 5C27.3019 5 27.2815 5 27.261 5C27.2406 5 27.2201 5 27.1996 5C27.1792 5 27.1587 5 27.1382 5C27.1177 5 27.0972 5 27.0767 5C27.0562 5 27.0357 5 27.0152 5C26.9947 5 26.9741 5 26.9536 5C26.9331 5 26.9125 5 26.892 5C26.8714 5 26.8509 5 26.8303 5C26.8097 5 26.7892 5 26.7686 5C26.748 5 26.7274 5 26.7068 5C26.6862 5 26.6656 5 26.645 5C26.6244 5 26.6038 5 26.5832 5C26.5626 5 26.5419 5 26.5213 5C26.5007 5 26.48 5 26.4594 5C26.4387 5 26.4181 5 26.3974 5C26.3768 5 26.3561 5 26.3354 5C26.3147 5 26.2941 5 26.2734 5C26.2527 5 26.232 5 26.2113 5C26.1906 5 26.1699 5 26.1492 5C26.1285 5 26.1077 5 26.087 5C26.0663 5 26.0456 5 26.0248 5C26.0041 5 25.9833 5 25.9626 5C25.9418 5 25.9211 5 25.9003 5C25.8796 5 25.8588 5 25.838 5C25.8173 5 25.7965 5 25.7757 5C25.7549 5 25.7341 5 25.7133 5C25.6926 5 25.6718 5 25.6509 5C25.6301 5 25.6093 5 25.5885 5C25.5677 5 25.5469 5 25.5261 5C25.5052 5 25.4844 5 25.4636 5C25.4427 5 25.4219 5 25.401 5C25.3802 5 25.3594 5 25.3385 5C25.3176 5 25.2968 5 25.2759 5C25.2551 5 25.2342 5 25.2133 5C25.1924 5 25.1716 5 25.1507 5C25.1298 5 25.1089 5 25.088 5C25.0671 5 25.0462 5 25.0253 5C25.0044 5 24.9835 5 24.9626 5C24.9417 5 24.9208 5 24.8999 5C24.8789 5 24.858 5 24.8371 5C24.8162 5 24.7952 5 24.7743 5C24.7534 5 24.7324 5 24.7115 5C24.6905 5 24.6696 5 24.6487 5C24.6277 5 24.6068 5 24.5858 5C24.5648 5 24.5439 5 24.5229 5C24.502 5 24.481 5 24.46 5C24.439 5 24.4181 5 24.3971 5C24.3761 5 24.3551 5 24.3341 5C24.3132 5 24.2922 5 24.2712 5C24.2502 5 24.2292 5 24.2082 5C24.1872 5 24.1662 5 24.1452 5C24.1242 5 24.1032 5 24.0822 5C24.0612 5 24.0402 5 24.0192 5C23.9981 5 23.9771 5 23.9561 5C23.9351 5 23.9141 5 23.8931 5C23.872 5 23.851 5 23.83 5C23.8089 5 23.7879 5 23.7669 5C23.7458 5 23.7248 5 23.7038 5C23.6827 5 23.6617 5 23.6407 5C23.6196 5 23.5986 5 23.5775 5C23.5565 5 23.5354 5 23.5144 5C23.4933 5 23.4723 5 23.4512 5C23.4302 5 23.4091 5 23.3881 5C23.367 5 23.3459 5 23.3249 5C23.3038 5 23.2828 5 23.2617 5C23.2406 5 23.2196 5 23.1985 5C23.1774 5 23.1564 5 23.1353 5C23.1142 5 23.0932 5 23.0721 5C23.051 5 23.0299 5 23.0089 5C22.9878 5 22.9667 5 22.9456 5C22.9246 5 22.9035 5 22.8824 5C22.8613 5 22.8403 5 22.8192 5C22.7981 5 22.777 5 22.7559 5C22.7349 5 22.7138 5 22.6927 5C22.6716 5 22.6505 5 22.6294 5C22.6084 5 22.5873 5 22.5662 5C22.5451 5 22.524 5 22.5029 5C22.4819 5 22.4608 5 22.4397 5C22.4186 5 22.3975 5 22.3764 5C22.3554 5 22.3343 5 22.3132 5C22.2921 5 22.271 5 22.2499 5C22.2288 5 22.2078 5 22.1867 5C22.1656 5 22.1445 5 22.1234 5C22.1023 5 22.0813 5 22.0602 5C22.0391 5 22.018 5 21.9969 5C21.9759 5 21.9548 5 21.9337 5C21.9126 5 21.8915 5 21.8705 5C21.8494 5 21.8283 5 21.8072 5C21.7861 5 21.7651 5 21.744 5C21.7229 5 21.7018 5 21.6808 5C21.6597 5 21.6386 5 21.6176 5C21.5965 5 21.5754 5 21.5543 5C21.5333 5 21.5122 5 21.4911 5C21.4701 5 21.449 5 21.4279 5C21.4069 5 21.3858 5 21.3648 5C21.3437 5 21.3226 5 21.3016 5C21.2805 5 21.2595 5 21.2384 5C21.2174 5 21.1963 5 21.1753 5C21.1542 5 21.1332 5 21.1121 5C21.0911 5 21.07 5 21.049 5C21.028 5 21.0069 5 20.9859 5C20.9648 5 20.9438 5 20.9228 5C20.9017 5 20.8807 5 20.8597 5C20.8387 5 20.8176 5 20.7966 5C20.7756 5 20.7546 5 20.7335 5C20.7125 5 20.6915 5 20.6705 5C20.6495 5 20.6285 5 20.6075 5C20.5865 5 20.5655 5 20.5445 5C20.5234 5 20.5025 5 20.4815 5C20.4605 5 20.4395 5 20.4185 5C20.3975 5 20.3765 5 20.3555 5C20.3345 5 20.3136 5 20.2926 5C20.2716 5 20.2506 5 20.2297 5C20.2087 5 20.1877 5 20.1668 5C20.1458 5 20.1248 5 20.1039 5C20.0829 5 20.062 5 20.041 5C20.0201 5 19.9991 5 19.9782 5C19.9573 5 19.9363 5 19.9154 5C19.8944 5 19.8735 5 19.8526 5C19.8317 5 19.8107 5 19.7898 5C19.7689 5 19.748 5 19.7271 5C19.7062 5 19.6853 5 19.6644 5C19.6435 5 19.6226 5 19.6017 5C19.5808 5 19.5599 5 19.539 5C19.5182 5 19.4973 5 19.4764 5C19.4555 5 19.4347 5 19.4138 5C19.3929 5 19.3721 5 19.3512 5C19.3304 5 19.3095 5 19.2887 5C19.2678 5 19.247 5 19.2262 5C19.2053 5 19.1845 5 19.1637 5C19.1428 5 19.122 5 19.1012 5C19.0804 5 19.0596 5 19.0388 5C19.018 5 18.9972 5 18.9764 5C18.9556 5 18.9348 5 18.914 5C18.8933 5 18.8725 5 18.8517 5C18.8309 5 18.8102 5 18.7894 5C18.7687 5 18.7479 5 18.7272 5C18.7064 5 18.6857 5 18.6649 5C18.6442 5 18.6235 5 18.6027 5C18.582 5 18.5613 5 18.5406 5C18.5199 5 18.4992 5 18.4785 5C18.4578 5 18.4371 5 18.4164 5C18.3957 5 18.375 5 18.3544 5C18.3337 5 18.313 5 18.2924 5C18.2717 5 18.2511 5 18.2304 5C18.2098 5 18.1891 5 18.1685 5C18.1479 5 18.1272 5 18.1066 5C18.086 5 18.0654 5 18.0448 5C18.0242 5 18.0036 5 17.983 5C17.9624 5 17.9418 5 17.9212 5C17.9007 5 17.8801 5 17.8595 5C17.839 5 17.8184 5 17.7979 5C17.7773 5 17.7568 5 17.7362 5C17.7157 5 17.6952 5 17.6747 5C17.6541 5 17.6336 5 17.6131 5C17.5926 5 17.5721 5 17.5516 5C17.5312 5 17.5107 5 17.4902 5C17.4697 5 17.4493 5 17.4288 5C17.4084 5 17.3879 5 17.3675 5C17.347 5 17.3266 5 17.3062 5C17.2858 5 17.2654 5 17.2449 5C17.2245 5 17.2041 5 17.1838 5C17.1634 5 17.143 5 17.1226 5C17.1022 5 17.0819 5 17.0615 5C17.0412 5 17.0208 5 17.0005 5C16.9801 5 16.9598 5 16.9395 5C16.9192 5 16.8989 5 16.8786 5C16.8582 5 16.838 5 16.8177 5C16.7974 5 16.7771 5 16.7568 5C16.7366 5 16.7163 5 16.6961 5C16.6758 5 16.6556 5 16.6354 5C16.6151 5 16.5949 5 16.5747 5C16.5545 5 16.5343 5 16.5141 5C16.4939 5 16.4737 5 16.4535 5C16.4334 5 16.4132 5 16.3931 5C16.3729 5 16.3528 5 16.3326 5C16.3125 5 16.2924 5 16.2723 5C16.2521 5 16.232 5 16.2119 5C16.1918 5 16.1718 5 16.1517 5C16.1316 5 16.1115 5 16.0915 5C16.0714 5 16.0514 5 16.0314 5C16.0113 5 15.9913 5 15.9713 5C15.9513 5 15.9313 5 15.9113 5C15.8913 5 15.8713 5 15.8514 5C15.8314 5 15.8114 5 15.7915 5C15.7715 5 15.7516 5 15.7317 5C15.7117 5 15.6918 5 15.6719 5C15.652 5 15.6321 5 15.6122 5C15.5924 5 15.5725 5 15.5526 5C15.5328 5 15.5129 5 15.4931 5C15.4732 5 15.4534 5 15.4336 5C15.4138 5 15.394 5 15.3742 5C15.3544 5 15.3346 5 15.3148 5C15.2951 5 15.2753 5 15.2556 5C15.2358 5 15.2161 5 15.1964 5C15.1766 5 15.1569 5 15.1372 5C15.1175 5 15.0978 5 15.0782 5C15.0585 5 15.0388 5 15.0192 5C14.9995 5 14.9799 5 14.9603 5C14.9406 5 14.921 5 14.9014 5C14.8818 5 14.8622 5 14.8426 5C14.8231 5 14.8035 5 14.784 5C14.7644 5 14.7449 5 14.7253 5C14.7058 5 14.6863 5 14.6668 5C14.6473 5 14.6278 5 14.6083 5C14.5888 5 14.5694 5 14.5499 5C14.5305 5 14.511 5 14.4916 5C14.4722 5 14.4528 5 14.4334 5C14.414 5 14.3946 5 14.3752 5C14.3558 5 14.3365 5 14.3171 5C14.2978 5 14.2785 5 14.2591 5C14.2398 5 14.2205 5 14.2012 5C14.1819 5 14.1626 5 14.1434 5C14.1241 5 14.1049 5 14.0856 5C14.0664 5 14.0472 5 14.028 5C14.0087 5 13.9895 5 13.9704 5C13.9512 5 13.932 5 13.9129 5C13.8937 5 13.8746 5 13.8554 5C13.8363 5 13.8172 5 13.7981 5C13.779 5 13.7599 5 13.7408 5C13.7218 5 13.7027 5 13.6837 5C13.6646 5 13.6456 5 13.6266 5C13.6076 5 13.5886 5 13.5696 5C13.5506 5 13.5317 5 13.5127 5C13.4938 5 13.4748 5 13.4559 5C13.437 5 13.4181 5 13.3992 5C13.3803 5 13.3614 5 13.3425 5C13.3237 5 13.3048 5 13.286 5C13.2671 5 13.2483 5 13.2295 5C13.2107 5 13.1919 5 13.1732 5C13.1544 5 13.1356 5 13.1169 5C13.0981 5 13.0794 5 13.0607 5C13.042 5 13.0233 5 13.0046 5C12.9859 5 12.9673 5 12.9486 5C12.93 5 12.9113 5 12.8927 5C12.8741 5 12.8555 5 12.8369 5C12.8183 5 12.7998 5 12.7812 5C12.7627 5 12.7441 5 12.7256 5C12.7071 5 12.6886 5 12.6701 5C12.6516 5 12.6331 5 12.6147 5C12.5962 5 12.5778 5 12.5594 5C12.5409 5 12.5225 5 12.5041 5C12.4858 5 12.4674 5 12.449 5C12.4307 5 12.4123 5 12.394 5C12.3757 5 12.3574 5 12.3391 5C12.3208 5 12.3025 5 12.2843 5C12.266 5 12.2478 5 12.2296 5C12.2113 5 12.1931 5 12.1749 5C12.1568 5 12.1386 5 12.1204 5C12.1023 5 12.0841 5 12.066 5C12.0479 5 12.0298 5 12.0117 5C11.9936 5 11.9756 5 11.9575 5C11.9395 5 11.9215 5 11.9034 5C11.8854 5 11.8674 5 11.8495 5C11.8315 5 11.8135 5 11.7956 5C11.7776 5 11.7597 5 11.7418 5C11.7239 5 11.706 5 11.6881 5C11.6703 5 11.6524 5 11.6346 5C11.6168 5 11.5989 5 11.5811 5C11.5634 5 11.5456 5 11.5278 5C11.5101 5 11.4923 5 11.4746 5C11.4569 5 11.4392 5 11.4215 5C11.4038 5 11.3861 5 11.3685 5C11.3508 5 11.3332 5 11.3156 5C11.298 5 11.2804 5 11.2628 5C11.2452 5 11.2277 5 11.2101 5C11.1926 5 11.1751 5 11.1576 5C11.1401 5 11.1226 5 11.1052 5C11.0877 5 11.0703 5 11.0528 5C11.0354 5 11.018 5 11.0006 5C10.9833 5 10.9659 5 10.9486 5C10.9312 5 10.9139 5 10.8966 5C10.8793 5 10.862 5 10.8447 5C10.8275 5 10.8102 5 10.793 5C10.7758 5 10.7586 5 10.7414 5C10.7242 5 10.707 5 10.6899 5C10.6728 5 10.6556 5 10.6385 5C10.6214 5 10.6043 5 10.5873 5C10.5702 5 10.5532 5 10.5361 5C10.5191 5 10.5021 5 10.4851 5C10.4682 5 10.4512 5 10.4343 5C10.4173 5 10.4004 5 10.3835 5C10.3666 5 10.3497 5 10.3329 5C10.316 5 10.2992 5 10.2823 5C10.2655 5 10.2487 5 10.232 5C10.2152 5 10.1984 5 10.1817 5C10.165 5 10.1482 5 10.1316 5C10.1149 5 10.0982 5 10.0815 5C10.0649 5 10.0483 5 10.0317 5C10.0151 5 9.99847 5 9.98191 5C9.96534 5 9.9488 5 9.93228 5C9.91576 5 9.89926 5 9.88279 5C9.86631 5 9.84986 5 9.83342 5C9.81699 5 9.80058 5 9.78419 5C9.7678 5 9.75143 5 9.73508 5C9.71874 5 9.70241 5 9.68611 5C9.66981 5 9.65353 5 9.63727 5C9.62102 5 9.60478 5 9.58857 5C9.57235 5 9.55616 5 9.54 5C9.52383 5 9.50768 5 9.49156 5C9.47543 5 9.45933 5 9.44325 5C9.42718 5 9.41112 5 9.39509 5C9.37905 5 9.36304 5 9.34706 5C9.33107 5 9.3151 5 9.29916 5C9.28322 5 9.2673 5 9.25141 5C9.23551 5 9.21964 5 9.20379 5C9.18794 5 9.17211 5 9.15631 5C9.1405 5 9.12472 5 9.10897 5C9.09321 5 9.07747 5 9.06176 5C9.04605 5 9.03037 5 9.0147 5C8.99904 5 8.9834 5 8.96778 5C8.95217 5 8.93658 5 8.92101 5C8.90544 5 8.88989 5 8.87437 5C8.85885 5 8.84335 5 8.82788 5C8.8124 5 8.79695 5 8.78153 5C8.7661 5 8.7507 5 8.73532 5C8.71995 5 8.70459 5 8.68926 5C8.67393 5 8.65863 5 8.64335 5C8.62807 5 8.61281 5 8.59758 5C8.58235 5 8.56714 5 8.55196 5C8.53677 5 8.52162 5 8.50648 5C8.49135 5 8.47624 5 8.46116 5C8.44607 5 8.43101 5 8.41598 5C8.40094 5 8.38593 5 8.37095 5C8.35596 5 8.341 5 8.32607 5C8.31113 5 8.29622 5 8.28134 5C8.26645 5 8.25159 5 8.23676 5C8.22192 5 8.20711 5 8.19233 5C8.17755 5 8.16279 5 8.14805 5C8.13332 5 8.11861 5 8.10393 5C8.08925 5 8.07459 5 8.05996 5C8.04533 5 8.03073 5 8.01615 5C8.00157 5 7.98701 5 7.97249 5C7.95796 5 7.94346 5 7.92898 5C7.9145 5 7.90005 5 7.88563 5C7.87121 5 7.85681 5 7.84244 5C7.82806 5 7.81372 5 7.7994 5C7.78508 5 7.77079 5 7.75652 5C7.74225 5 7.72801 5 7.7138 5C7.69959 5 7.6854 5 7.67124 5C7.65708 5 7.64294 5 7.62883 5C7.61473 5 7.60065 5 7.58659 5C7.57254 5 7.55851 5 7.54451 5C7.53051 5 7.51654 5 7.50259 5C7.48864 5 7.47472 5 7.46083 5C7.44694 5 7.43307 5 7.41923 5C7.4054 5 7.39159 5 7.3778 5C7.36402 5 7.35026 5 7.33653 5C7.3228 5 7.3091 5 7.29543 5C7.28175 5 7.26811 5 7.25449 5C7.24087 5 7.22728 5 7.21371 5C7.20015 5 7.18661 5 7.1731 5C7.1596 5 7.14611 5 7.13266 5C7.11921 5 7.10578 5 7.09239 5C7.07899 5 7.06562 5 7.05228 5C7.03894 5 7.02563 5 7.01234 5C6.99906 5 6.9858 5 6.97258 5C6.95935 5 6.94615 5 6.93298 5C6.91981 5 6.90666 5 6.89355 5C6.88043 5 6.86735 5 6.85429 5C6.84123 5 6.82821 5 6.81521 5C6.80221 5 6.78924 5 6.77629 5C6.76335 5 6.75044 5 6.73755 5C6.72467 5 6.71181 5 6.69899 5C6.68616 5 6.67336 5 6.66059 5C6.64783 5 6.63509 5 6.62238 5C6.60967 5 6.59699 5 6.58433 5C6.57168 5 6.55906 5 6.54647 5C6.53387 5 6.52131 5 6.50878 5C6.49624 5 6.48374 5 6.47126 5C6.45879 5 6.44634 5 6.43393 5C6.42151 5 6.40913 5 6.39677 5C6.38442 5 6.37209 5 6.3598 5C6.3475 5 6.33523 5 6.323 5C6.31076 5 6.29856 5 6.28638 5C6.2742 5 6.26206 5 6.24994 5C6.23783 5 6.22574 5 6.21369 5C6.20163 5 6.18961 5 6.17761 5C6.16562 5 6.15366 5 6.14172 5C6.12979 5 6.11789 5 6.10602 5C6.09414 5 6.0823 5 6.07049 5C6.05868 5 6.0469 5 6.03515 5C6.0234 5 6.01169 5 6 5V7C6.01169 7 6.0234 7 6.03515 7C6.0469 7 6.05868 7 6.07049 7C6.0823 7 6.09414 7 6.10602 7C6.11789 7 6.12979 7 6.14172 7C6.15366 7 6.16562 7 6.17761 7C6.18961 7 6.20163 7 6.21369 7C6.22574 7 6.23783 7 6.24994 7C6.26206 7 6.2742 7 6.28638 7C6.29856 7 6.31076 7 6.323 7C6.33523 7 6.3475 7 6.3598 7C6.37209 7 6.38442 7 6.39677 7C6.40913 7 6.42151 7 6.43393 7C6.44634 7 6.45879 7 6.47126 7C6.48374 7 6.49624 7 6.50878 7C6.52131 7 6.53387 7 6.54647 7C6.55906 7 6.57168 7 6.58433 7C6.59699 7 6.60967 7 6.62238 7C6.63509 7 6.64783 7 6.66059 7C6.67336 7 6.68616 7 6.69899 7C6.71181 7 6.72467 7 6.73755 7C6.75044 7 6.76335 7 6.77629 7C6.78924 7 6.80221 7 6.81521 7C6.82821 7 6.84123 7 6.85429 7C6.86735 7 6.88043 7 6.89355 7C6.90666 7 6.91981 7 6.93298 7C6.94615 7 6.95935 7 6.97258 7C6.9858 7 6.99906 7 7.01234 7C7.02563 7 7.03894 7 7.05228 7C7.06562 7 7.07899 7 7.09239 7C7.10578 7 7.11921 7 7.13266 7C7.14611 7 7.1596 7 7.1731 7C7.18661 7 7.20015 7 7.21371 7C7.22728 7 7.24087 7 7.25449 7C7.26811 7 7.28175 7 7.29543 7C7.3091 7 7.3228 7 7.33653 7C7.35026 7 7.36402 7 7.3778 7C7.39159 7 7.4054 7 7.41923 7C7.43307 7 7.44694 7 7.46083 7C7.47472 7 7.48864 7 7.50259 7C7.51654 7 7.53051 7 7.54451 7C7.55851 7 7.57254 7 7.58659 7C7.60065 7 7.61473 7 7.62883 7C7.64294 7 7.65708 7 7.67124 7C7.6854 7 7.69959 7 7.7138 7C7.72801 7 7.74225 7 7.75652 7C7.77079 7 7.78508 7 7.7994 7C7.81372 7 7.82806 7 7.84244 7C7.85681 7 7.87121 7 7.88563 7C7.90005 7 7.9145 7 7.92898 7C7.94346 7 7.95796 7 7.97249 7C7.98701 7 8.00157 7 8.01615 7C8.03073 7 8.04533 7 8.05996 7C8.07459 7 8.08925 7 8.10393 7C8.11861 7 8.13332 7 8.14805 7C8.16279 7 8.17755 7 8.19233 7C8.20711 7 8.22192 7 8.23676 7C8.25159 7 8.26645 7 8.28134 7C8.29622 7 8.31113 7 8.32607 7C8.341 7 8.35596 7 8.37095 7C8.38593 7 8.40094 7 8.41598 7C8.43101 7 8.44607 7 8.46116 7C8.47624 7 8.49135 7 8.50648 7C8.52162 7 8.53677 7 8.55196 7C8.56714 7 8.58235 7 8.59758 7C8.61281 7 8.62807 7 8.64335 7C8.65863 7 8.67393 7 8.68926 7C8.70459 7 8.71995 7 8.73532 7C8.7507 7 8.7661 7 8.78153 7C8.79695 7 8.8124 7 8.82788 7C8.84335 7 8.85885 7 8.87437 7C8.88989 7 8.90544 7 8.92101 7C8.93658 7 8.95217 7 8.96778 7C8.9834 7 8.99904 7 9.0147 7C9.03037 7 9.04605 7 9.06176 7C9.07747 7 9.09321 7 9.10897 7C9.12472 7 9.1405 7 9.15631 7C9.17211 7 9.18794 7 9.20379 7C9.21964 7 9.23551 7 9.25141 7C9.2673 7 9.28322 7 9.29916 7C9.3151 7 9.33107 7 9.34706 7C9.36304 7 9.37905 7 9.39509 7C9.41112 7 9.42718 7 9.44325 7C9.45933 7 9.47543 7 9.49156 7C9.50768 7 9.52383 7 9.54 7C9.55616 7 9.57235 7 9.58857 7C9.60478 7 9.62102 7 9.63727 7C9.65353 7 9.66981 7 9.68611 7C9.70241 7 9.71874 7 9.73508 7C9.75143 7 9.7678 7 9.78419 7C9.80058 7 9.81699 7 9.83342 7C9.84986 7 9.86631 7 9.88279 7C9.89926 7 9.91576 7 9.93228 7C9.9488 7 9.96534 7 9.98191 7C9.99847 7 10.0151 7 10.0317 7C10.0483 7 10.0649 7 10.0815 7C10.0982 7 10.1149 7 10.1316 7C10.1482 7 10.165 7 10.1817 7C10.1984 7 10.2152 7 10.232 7C10.2487 7 10.2655 7 10.2823 7C10.2992 7 10.316 7 10.3329 7C10.3497 7 10.3666 7 10.3835 7C10.4004 7 10.4173 7 10.4343 7C10.4512 7 10.4682 7 10.4851 7C10.5021 7 10.5191 7 10.5361 7C10.5532 7 10.5702 7 10.5873 7C10.6043 7 10.6214 7 10.6385 7C10.6556 7 10.6728 7 10.6899 7C10.707 7 10.7242 7 10.7414 7C10.7586 7 10.7758 7 10.793 7C10.8102 7 10.8275 7 10.8447 7C10.862 7 10.8793 7 10.8966 7C10.9139 7 10.9312 7 10.9486 7C10.9659 7 10.9833 7 11.0006 7C11.018 7 11.0354 7 11.0528 7C11.0703 7 11.0877 7 11.1052 7C11.1226 7 11.1401 7 11.1576 7C11.1751 7 11.1926 7 11.2101 7C11.2277 7 11.2452 7 11.2628 7C11.2804 7 11.298 7 11.3156 7C11.3332 7 11.3508 7 11.3685 7C11.3861 7 11.4038 7 11.4215 7C11.4392 7 11.4569 7 11.4746 7C11.4923 7 11.5101 7 11.5278 7C11.5456 7 11.5634 7 11.5811 7C11.5989 7 11.6168 7 11.6346 7C11.6524 7 11.6703 7 11.6881 7C11.706 7 11.7239 7 11.7418 7C11.7597 7 11.7776 7 11.7956 7C11.8135 7 11.8315 7 11.8495 7C11.8674 7 11.8854 7 11.9034 7C11.9215 7 11.9395 7 11.9575 7C11.9756 7 11.9936 7 12.0117 7C12.0298 7 12.0479 7 12.066 7C12.0841 7 12.1023 7 12.1204 7C12.1386 7 12.1568 7 12.1749 7C12.1931 7 12.2113 7 12.2296 7C12.2478 7 12.266 7 12.2843 7C12.3025 7 12.3208 7 12.3391 7C12.3574 7 12.3757 7 12.394 7C12.4123 7 12.4307 7 12.449 7C12.4674 7 12.4858 7 12.5041 7C12.5225 7 12.5409 7 12.5594 7C12.5778 7 12.5962 7 12.6147 7C12.6331 7 12.6516 7 12.6701 7C12.6886 7 12.7071 7 12.7256 7C12.7441 7 12.7627 7 12.7812 7C12.7998 7 12.8183 7 12.8369 7C12.8555 7 12.8741 7 12.8927 7C12.9113 7 12.93 7 12.9486 7C12.9673 7 12.9859 7 13.0046 7C13.0233 7 13.042 7 13.0607 7C13.0794 7 13.0981 7 13.1169 7C13.1356 7 13.1544 7 13.1732 7C13.1919 7 13.2107 7 13.2295 7C13.2483 7 13.2671 7 13.286 7C13.3048 7 13.3237 7 13.3425 7C13.3614 7 13.3803 7 13.3992 7C13.4181 7 13.437 7 13.4559 7C13.4748 7 13.4938 7 13.5127 7C13.5317 7 13.5506 7 13.5696 7C13.5886 7 13.6076 7 13.6266 7C13.6456 7 13.6646 7 13.6837 7C13.7027 7 13.7218 7 13.7408 7C13.7599 7 13.779 7 13.7981 7C13.8172 7 13.8363 7 13.8554 7C13.8746 7 13.8937 7 13.9129 7C13.932 7 13.9512 7 13.9704 7C13.9895 7 14.0087 7 14.028 7C14.0472 7 14.0664 7 14.0856 7C14.1049 7 14.1241 7 14.1434 7C14.1626 7 14.1819 7 14.2012 7C14.2205 7 14.2398 7 14.2591 7C14.2785 7 14.2978 7 14.3171 7C14.3365 7 14.3558 7 14.3752 7C14.3946 7 14.414 7 14.4334 7C14.4528 7 14.4722 7 14.4916 7C14.511 7 14.5305 7 14.5499 7C14.5694 7 14.5888 7 14.6083 7C14.6278 7 14.6473 7 14.6668 7C14.6863 7 14.7058 7 14.7253 7C14.7449 7 14.7644 7 14.784 7C14.8035 7 14.8231 7 14.8426 7C14.8622 7 14.8818 7 14.9014 7C14.921 7 14.9406 7 14.9603 7C14.9799 7 14.9995 7 15.0192 7C15.0388 7 15.0585 7 15.0782 7C15.0978 7 15.1175 7 15.1372 7C15.1569 7 15.1766 7 15.1964 7C15.2161 7 15.2358 7 15.2556 7C15.2753 7 15.2951 7 15.3148 7C15.3346 7 15.3544 7 15.3742 7C15.394 7 15.4138 7 15.4336 7C15.4534 7 15.4732 7 15.4931 7C15.5129 7 15.5328 7 15.5526 7C15.5725 7 15.5924 7 15.6122 7C15.6321 7 15.652 7 15.6719 7C15.6918 7 15.7117 7 15.7317 7C15.7516 7 15.7715 7 15.7915 7C15.8114 7 15.8314 7 15.8514 7C15.8713 7 15.8913 7 15.9113 7C15.9313 7 15.9513 7 15.9713 7C15.9913 7 16.0113 7 16.0314 7C16.0514 7 16.0714 7 16.0915 7C16.1115 7 16.1316 7 16.1517 7C16.1718 7 16.1918 7 16.2119 7C16.232 7 16.2521 7 16.2723 7C16.2924 7 16.3125 7 16.3326 7C16.3528 7 16.3729 7 16.3931 7C16.4132 7 16.4334 7 16.4535 7C16.4737 7 16.4939 7 16.5141 7C16.5343 7 16.5545 7 16.5747 7C16.5949 7 16.6151 7 16.6354 7C16.6556 7 16.6758 7 16.6961 7C16.7163 7 16.7366 7 16.7568 7C16.7771 7 16.7974 7 16.8177 7C16.838 7 16.8582 7 16.8786 7C16.8989 7 16.9192 7 16.9395 7C16.9598 7 16.9801 7 17.0005 7C17.0208 7 17.0412 7 17.0615 7C17.0819 7 17.1022 7 17.1226 7C17.143 7 17.1634 7 17.1838 7C17.2041 7 17.2245 7 17.2449 7C17.2654 7 17.2858 7 17.3062 7C17.3266 7 17.347 7 17.3675 7C17.3879 7 17.4084 7 17.4288 7C17.4493 7 17.4697 7 17.4902 7C17.5107 7 17.5312 7 17.5516 7C17.5721 7 17.5926 7 17.6131 7C17.6336 7 17.6541 7 17.6747 7C17.6952 7 17.7157 7 17.7362 7C17.7568 7 17.7773 7 17.7979 7C17.8184 7 17.839 7 17.8595 7C17.8801 7 17.9007 7 17.9212 7C17.9418 7 17.9624 7 17.983 7C18.0036 7 18.0242 7 18.0448 7C18.0654 7 18.086 7 18.1066 7C18.1272 7 18.1479 7 18.1685 7C18.1891 7 18.2098 7 18.2304 7C18.2511 7 18.2717 7 18.2924 7C18.313 7 18.3337 7 18.3544 7C18.375 7 18.3957 7 18.4164 7C18.4371 7 18.4578 7 18.4785 7C18.4992 7 18.5199 7 18.5406 7C18.5613 7 18.582 7 18.6027 7C18.6235 7 18.6442 7 18.6649 7C18.6857 7 18.7064 7 18.7272 7C18.7479 7 18.7687 7 18.7894 7C18.8102 7 18.8309 7 18.8517 7C18.8725 7 18.8933 7 18.914 7C18.9348 7 18.9556 7 18.9764 7C18.9972 7 19.018 7 19.0388 7C19.0596 7 19.0804 7 19.1012 7C19.122 7 19.1428 7 19.1637 7C19.1845 7 19.2053 7 19.2262 7C19.247 7 19.2678 7 19.2887 7C19.3095 7 19.3304 7 19.3512 7C19.3721 7 19.3929 7 19.4138 7C19.4347 7 19.4555 7 19.4764 7C19.4973 7 19.5182 7 19.539 7C19.5599 7 19.5808 7 19.6017 7C19.6226 7 19.6435 7 19.6644 7C19.6853 7 19.7062 7 19.7271 7C19.748 7 19.7689 7 19.7898 7C19.8107 7 19.8317 7 19.8526 7C19.8735 7 19.8944 7 19.9154 7C19.9363 7 19.9573 7 19.9782 7C19.9991 7 20.0201 7 20.041 7C20.062 7 20.0829 7 20.1039 7C20.1248 7 20.1458 7 20.1668 7C20.1877 7 20.2087 7 20.2297 7C20.2506 7 20.2716 7 20.2926 7C20.3136 7 20.3345 7 20.3555 7C20.3765 7 20.3975 7 20.4185 7C20.4395 7 20.4605 7 20.4815 7C20.5025 7 20.5234 7 20.5445 7C20.5655 7 20.5865 7 20.6075 7C20.6285 7 20.6495 7 20.6705 7C20.6915 7 20.7125 7 20.7335 7C20.7546 7 20.7756 7 20.7966 7C20.8176 7 20.8387 7 20.8597 7C20.8807 7 20.9017 7 20.9228 7C20.9438 7 20.9648 7 20.9859 7C21.0069 7 21.028 7 21.049 7C21.07 7 21.0911 7 21.1121 7C21.1332 7 21.1542 7 21.1753 7C21.1963 7 21.2174 7 21.2384 7C21.2595 7 21.2805 7 21.3016 7C21.3226 7 21.3437 7 21.3648 7C21.3858 7 21.4069 7 21.4279 7C21.449 7 21.4701 7 21.4911 7C21.5122 7 21.5333 7 21.5543 7C21.5754 7 21.5965 7 21.6176 7C21.6386 7 21.6597 7 21.6808 7C21.7018 7 21.7229 7 21.744 7C21.7651 7 21.7861 7 21.8072 7C21.8283 7 21.8494 7 21.8705 7C21.8915 7 21.9126 7 21.9337 7C21.9548 7 21.9759 7 21.9969 7C22.018 7 22.0391 7 22.0602 7C22.0813 7 22.1023 7 22.1234 7C22.1445 7 22.1656 7 22.1867 7C22.2078 7 22.2288 7 22.2499 7C22.271 7 22.2921 7 22.3132 7C22.3343 7 22.3554 7 22.3764 7C22.3975 7 22.4186 7 22.4397 7C22.4608 7 22.4819 7 22.5029 7C22.524 7 22.5451 7 22.5662 7C22.5873 7 22.6084 7 22.6294 7C22.6505 7 22.6716 7 22.6927 7C22.7138 7 22.7349 7 22.7559 7C22.777 7 22.7981 7 22.8192 7C22.8403 7 22.8613 7 22.8824 7C22.9035 7 22.9246 7 22.9456 7C22.9667 7 22.9878 7 23.0089 7C23.0299 7 23.051 7 23.0721 7C23.0932 7 23.1142 7 23.1353 7C23.1564 7 23.1774 7 23.1985 7C23.2196 7 23.2406 7 23.2617 7C23.2828 7 23.3038 7 23.3249 7C23.3459 7 23.367 7 23.3881 7C23.4091 7 23.4302 7 23.4512 7C23.4723 7 23.4933 7 23.5144 7C23.5354 7 23.5565 7 23.5775 7C23.5986 7 23.6196 7 23.6407 7C23.6617 7 23.6827 7 23.7038 7C23.7248 7 23.7458 7 23.7669 7C23.7879 7 23.8089 7 23.83 7C23.851 7 23.872 7 23.8931 7C23.9141 7 23.9351 7 23.9561 7C23.9771 7 23.9981 7 24.0192 7C24.0402 7 24.0612 7 24.0822 7C24.1032 7 24.1242 7 24.1452 7C24.1662 7 24.1872 7 24.2082 7C24.2292 7 24.2502 7 24.2712 7C24.2922 7 24.3132 7 24.3341 7C24.3551 7 24.3761 7 24.3971 7C24.4181 7 24.439 7 24.46 7C24.481 7 24.502 7 24.5229 7C24.5439 7 24.5648 7 24.5858 7C24.6068 7 24.6277 7 24.6487 7C24.6696 7 24.6905 7 24.7115 7C24.7324 7 24.7534 7 24.7743 7C24.7952 7 24.8162 7 24.8371 7C24.858 7 24.8789 7 24.8999 7C24.9208 7 24.9417 7 24.9626 7C24.9835 7 25.0044 7 25.0253 7C25.0462 7 25.0671 7 25.088 7C25.1089 7 25.1298 7 25.1507 7C25.1716 7 25.1924 7 25.2133 7C25.2342 7 25.2551 7 25.2759 7C25.2968 7 25.3176 7 25.3385 7C25.3594 7 25.3802 7 25.401 7C25.4219 7 25.4427 7 25.4636 7C25.4844 7 25.5052 7 25.5261 7C25.5469 7 25.5677 7 25.5885 7C25.6093 7 25.6301 7 25.6509 7C25.6718 7 25.6926 7 25.7133 7C25.7341 7 25.7549 7 25.7757 7C25.7965 7 25.8173 7 25.838 7C25.8588 7 25.8796 7 25.9003 7C25.9211 7 25.9418 7 25.9626 7C25.9833 7 26.0041 7 26.0248 7C26.0456 7 26.0663 7 26.087 7C26.1077 7 26.1285 7 26.1492 7C26.1699 7 26.1906 7 26.2113 7C26.232 7 26.2527 7 26.2734 7C26.2941 7 26.3147 7 26.3354 7C26.3561 7 26.3768 7 26.3974 7C26.4181 7 26.4387 7 26.4594 7C26.48 7 26.5007 7 26.5213 7C26.5419 7 26.5626 7 26.5832 7C26.6038 7 26.6244 7 26.645 7C26.6656 7 26.6862 7 26.7068 7C26.7274 7 26.748 7 26.7686 7C26.7892 7 26.8097 7 26.8303 7C26.8509 7 26.8714 7 26.892 7C26.9125 7 26.9331 7 26.9536 7C26.9741 7 26.9947 7 27.0152 7C27.0357 7 27.0562 7 27.0767 7C27.0972 7 27.1177 7 27.1382 7C27.1587 7 27.1792 7 27.1996 7C27.2201 7 27.2406 7 27.261 7C27.2815 7 27.3019 7 27.3224 7C27.3428 7 27.3633 7 27.3837 7C27.4041 7 27.4245 7 27.4449 7C27.4653 7 27.4857 7 27.5061 7C27.5265 7 27.5469 7 27.5673 7C27.5877 7 27.608 7 27.6284 7C27.6487 7 27.6691 7 27.6894 7C27.7098 7 27.7301 7 27.7504 7C27.7708 7 27.7911 7 27.8114 7C27.8317 7 27.852 7 27.8723 7C27.8925 7 27.9128 7 27.9331 7C27.9534 7 27.9736 7 27.9939 7C28.0141 7 28.0344 7 28.0546 7C28.0748 7 28.0951 7 28.1153 7C28.1355 7 28.1557 7 28.1759 7C28.1961 7 28.2163 7 28.2364 7C28.2566 7 28.2768 7 28.2969 7C28.3171 7 28.3372 7 28.3574 7C28.3775 7 28.3976 7 28.4177 7C28.4379 7 28.458 7 28.4781 7C28.4982 7 28.5182 7 28.5383 7C28.5584 7 28.5785 7 28.5985 7C28.6186 7 28.6386 7 28.6587 7C28.6787 7 28.6987 7 28.7187 7C28.7387 7 28.7588 7 28.7787 7C28.7987 7 28.8187 7 28.8387 7C28.8587 7 28.8786 7 28.8986 7C28.9185 7 28.9385 7 28.9584 7C28.9783 7 28.9982 7 29.0182 7C29.0381 7 29.058 7 29.0778 7C29.0977 7 29.1176 7 29.1375 7C29.1573 7 29.1772 7 29.197 7C29.2169 7 29.2367 7 29.2565 7C29.2763 7 29.2961 7 29.3159 7C29.3357 7 29.3555 7 29.3753 7C29.3951 7 29.4148 7 29.4346 7C29.4543 7 29.4741 7 29.4938 7C29.5135 7 29.5332 7 29.5529 7C29.5726 7 29.5923 7 29.612 7C29.6317 7 29.6513 7 29.671 7C29.6906 7 29.7103 7 29.7299 7C29.7495 7 29.7692 7 29.7888 7C29.8084 7 29.828 7 29.8475 7C29.8671 7 29.8867 7 29.9063 7C29.9258 7 29.9454 7 29.9649 7C29.9844 7 30.0039 7 30.0234 7C30.0429 7 30.0624 7 30.0819 7C30.1014 7 30.1209 7 30.1403 7C30.1598 7 30.1792 7 30.1986 7C30.2181 7 30.2375 7 30.2569 7C30.2763 7 30.2957 7 30.3151 7C30.3344 7 30.3538 7 30.3731 7C30.3925 7 30.4118 7 30.4312 7C30.4505 7 30.4698 7 30.4891 7C30.5084 7 30.5277 7 30.5469 7C30.5662 7 30.5855 7 30.6047 7C30.6239 7 30.6432 7 30.6624 7C30.6816 7 30.7008 7 30.72 7C30.7392 7 30.7583 7 30.7775 7C30.7967 7 30.8158 7 30.8349 7C30.8541 7 30.8732 7 30.8923 7C30.9114 7 30.9305 7 30.9495 7C30.9686 7 30.9877 7 31.0067 7C31.0258 7 31.0448 7 31.0638 7C31.0828 7 31.1018 7 31.1208 7C31.1398 7 31.1588 7 31.1777 7C31.1967 7 31.2156 7 31.2346 7C31.2535 7 31.2724 7 31.2913 7C31.3102 7 31.3291 7 31.3479 7C31.3668 7 31.3857 7 31.4045 7C31.4233 7 31.4422 7 31.461 7C31.4798 7 31.4986 7 31.5173 7C31.5361 7 31.5549 7 31.5736 7C31.5924 7 31.6111 7 31.6298 7C31.6485 7 31.6672 7 31.6859 7C31.7046 7 31.7233 7 31.7419 7C31.7606 7 31.7792 7 31.7978 7C31.8164 7 31.8351 7 31.8536 7C31.8722 7 31.8908 7 31.9094 7C31.9279 7 31.9465 7 31.965 7C31.9835 7 32.002 7 32.0205 7C32.039 7 32.0575 7 32.0759 7C32.0944 7 32.1128 7 32.1313 7C32.1497 7 32.1681 7 32.1865 7C32.2049 7 32.2233 7 32.2416 7C32.26 7 32.2783 7 32.2967 7C32.315 7 32.3333 7 32.3516 7C32.3699 7 32.3882 7 32.4064 7C32.4247 7 32.4429 7 32.4611 7C32.4794 7 32.4976 7 32.5158 7C32.534 7 32.5521 7 32.5703 7C32.5885 7 32.6066 7 32.6247 7C32.6428 7 32.6609 7 32.679 7C32.6971 7 32.7152 7 32.7332 7C32.7513 7 32.7693 7 32.7873 7C32.8054 7 32.8234 7 32.8413 7C32.8593 7 32.8773 7 32.8952 7C32.9132 7 32.9311 7 32.949 7C32.9669 7 32.9848 7 33.0027 7C33.0206 7 33.0384 7 33.0563 7C33.0741 7 33.0919 7 33.1097 7C33.1275 7 33.1453 7 33.1631 7C33.1808 7 33.1986 7 33.2163 7C33.234 7 33.2517 7 33.2694 7C33.2871 7 33.3048 7 33.3224 7C33.3401 7 33.3577 7 33.3753 7C33.393 7 33.4106 7 33.4281 7C33.4457 7 33.4633 7 33.4808 7C33.4984 7 33.5159 7 33.5334 7C33.5509 7 33.5684 7 33.5858 7C33.6033 7 33.6207 7 33.6382 7C33.6556 7 33.673 7 33.6904 7C33.7078 7 33.7251 7 33.7425 7C33.7598 7 33.7772 7 33.7945 7C33.8118 7 33.8291 7 33.8463 7C33.8636 7 33.8808 7 33.8981 7C33.9153 7 33.9325 7 33.9497 7C33.9669 7 33.9841 7 34.0012 7C34.0184 7 34.0355 7 34.0526 7C34.0697 7 34.0868 7 34.1039 7C34.1209 7 34.138 7 34.155 7C34.172 7 34.189 7 34.206 7C34.223 7 34.24 7 34.2569 7C34.2739 7 34.2908 7 34.3077 7C34.3246 7 34.3415 7 34.3584 7C34.3752 7 34.3921 7 34.4089 7C34.4257 7 34.4425 7 34.4593 7C34.4761 7 34.4928 7 34.5096 7C34.5263 7 34.543 7 34.5597 7C34.5764 7 34.5931 7 34.6098 7V5ZM98 104.989H75.8415V106.989H98V104.989ZM75.8415 104.989H53.6829V106.989H75.8415V104.989Z" fill="#FCFCFD"/>
</svg>
