<?xml version="1.0" encoding="UTF-8" standalone="no"?>
<!-- Uploaded to: SVG Repo, www.svgrepo.com, Transformed by: SVG Repo Mixer Tools -->

<svg
   fill="#ffffff"
   height="801.5625"
   width="801.5625"
   version="1.1"
   id="Layer_1"
   viewBox="-143 145 513 513"
   xml:space="preserve"
   stroke="#ffffff"
   sodipodi:docname="dribbble-white.svg"
   xmlns:inkscape="http://www.inkscape.org/namespaces/inkscape"
   xmlns:sodipodi="http://sodipodi.sourceforge.net/DTD/sodipodi-0.dtd"
   xmlns="http://www.w3.org/2000/svg"
   xmlns:svg="http://www.w3.org/2000/svg"><defs
   id="defs2486" /><sodipodi:namedview
   id="namedview2484"
   pagecolor="#505050"
   bordercolor="#eeeeee"
   borderopacity="1"
   inkscape:showpageshadow="0"
   inkscape:pageopacity="0"
   inkscape:pagecheckerboard="0"
   inkscape:deskcolor="#505050"
   showgrid="false" />





<g
   id="SVGRepo_iconCarrier"
   style="fill:#3378e0;fill-opacity:1"
   transform="translate(0.5,0.5)"> <g
   id="g2480"
   style="fill:#3378e0;fill-opacity:1"> <path
   d="m 44.9,486.5 c -0.4,-0.3 -0.9,-0.8 -1.5,-1.2 0.5,0.4 1,0.8 1.5,1.2 z"
   id="path2460"
   style="fill:#3378e0;fill-opacity:1" /> <path
   d="m 120.6,401.8 c 1.4,-0.5 2.9,-0.9 4.3,-1.3 -2.7,-6.2 -5.7,-12.5 -8.9,-18.6 -56.3,16.8 -110.3,15.6 -112.2,15.6 0,1.1 -0.1,2.3 -0.1,3.4 0,28.1 10.6,53.7 28,73.1 v -0.1 c 0,0 29.9,-53 88.9,-72.1 z"
   id="path2462"
   style="fill:#3378e0;fill-opacity:1" /> <path
   d="M 106.9,365.1 C 88,331.5 67.8,304.1 66.3,302.1 35.8,316.5 13.1,344.6 6,378.4 c 2.9,0.1 48.5,0.7 100.9,-13.3 z"
   id="path2464"
   style="fill:#3378e0;fill-opacity:1" /> <path
   d="m 185.2,319 c -19.3,-17 -44.5,-27.3 -72.2,-27.3 -8.9,0 -17.5,1.1 -25.8,3.1 1.6,2.2 22.2,29.4 40.9,63.8 41.2,-15.5 56.8,-39.2 57.1,-39.6 z"
   id="path2466"
   style="fill:#3378e0;fill-opacity:1" /> <path
   d="m 86.8,294.8 c -0.1,0 -0.2,0.1 -0.4,0.1 0.3,0 0.4,0 0.4,-0.1 z"
   id="path2468"
   style="fill:#3378e0;fill-opacity:1" /> <path
   d="m 131.6,418.9 c -63.8,22.2 -85.1,66.8 -85.8,68.3 18.6,14.5 41.9,23.1 67.2,23.1 15.1,0 29.6,-3.1 42.7,-8.7 -1.6,-9.6 -8,-43 -23.3,-83 -0.3,0.1 -0.6,0.2 -0.8,0.3 z"
   id="path2470"
   style="fill:#3378e0;fill-opacity:1" /> <path
   d="m 45.8,487.2 c 0,0 0,0 0,0 -0.1,-0.1 -0.1,-0.1 -0.2,-0.2 0.1,0.1 0.2,0.2 0.2,0.2 z"
   id="path2472"
   style="fill:#3378e0;fill-opacity:1" /> <path
   d="m 136.5,374.8 c 2.5,5.2 5,10.5 7.3,15.9 0.8,1.9 1.6,3.8 2.4,5.6 37.6,-4.7 74.6,3.2 76.1,3.6 -0.3,-25.9 -9.5,-49.7 -24.9,-68.3 -0.2,0.3 -17.7,25.6 -60.9,43.2 z"
   id="path2474"
   style="fill:#3378e0;fill-opacity:1" /> <path
   d="m 329,145 h -432 c -22.1,0 -40,17.9 -40,40 v 432 c 0,22.1 17.9,40 40,40 h 432 c 22.1,0 40,-17.9 40,-40 V 185 c 0,-22.1 -17.9,-40 -40,-40 z m -90.6,281.8 c -1.7,8.2 -4.2,16.3 -7.5,24 -3.2,7.6 -7.2,14.9 -11.8,21.8 -4.6,6.8 -9.8,13.1 -15.6,18.9 -5.8,5.8 -12.2,11 -18.9,15.6 -6.8,4.6 -14.2,8.6 -21.7,11.8 -7.7,3.3 -15.8,5.8 -24.1,7.5 -8.4,1.7 -17.1,2.6 -25.8,2.6 -8.7,0 -17.4,-0.9 -25.8,-2.6 -8.2,-1.7 -16.3,-4.2 -24,-7.5 -7.6,-3.2 -14.9,-7.2 -21.7,-11.8 -6.8,-4.6 -13.1,-9.8 -18.9,-15.6 -5.8,-5.8 -11,-12.2 -15.6,-18.9 -4.6,-6.8 -8.6,-14.2 -11.8,-21.8 -3.3,-7.7 -5.8,-15.8 -7.5,-24 -1.7,-8.4 -2.6,-17.1 -2.6,-25.8 0,-8.7 0.9,-17.4 2.6,-25.8 1.7,-8.2 4.2,-16.3 7.5,-24.1 3.2,-7.6 7.2,-14.9 11.8,-21.7 4.6,-6.8 9.8,-13.1 15.6,-18.9 5.8,-5.8 12.2,-11.1 18.9,-15.6 6.8,-4.6 14.2,-8.6 21.7,-11.8 7.7,-3.3 15.8,-5.8 24,-7.5 8.4,-1.7 17.1,-2.6 25.8,-2.6 8.7,0 17.3,0.9 25.8,2.6 8.2,1.7 16.3,4.2 24.1,7.5 7.6,3.2 14.9,7.2 21.7,11.8 6.8,4.6 13.1,9.8 18.9,15.6 5.8,5.8 11,12.2 15.6,18.9 4.6,6.8 8.6,14.1 11.8,21.7 3.3,7.7 5.8,15.8 7.5,24.1 1.7,8.4 2.6,17.1 2.6,25.8 0,8.7 -0.9,17.4 -2.6,25.8 z"
   id="path2476"
   style="fill:#3378e0;fill-opacity:1" /> <path
   d="m 152.8,413.6 c 14.3,39.4 20.2,71.5 21.3,78.1 24.5,-16.6 42,-42.8 46.9,-73.3 -2.3,-0.8 -32.9,-10.5 -68.2,-4.8 z"
   id="path2478"
   style="fill:#3378e0;fill-opacity:1" /> </g> </g>

</svg>
