<svg width="24" height="24" viewBox="0 0 24 24" fill="none" xmlns="http://www.w3.org/2000/svg">
<path fill-rule="evenodd" clip-rule="evenodd" d="M2.39551 10.5346C5.35783 10.7805 8.19426 10.1861 10.5424 8.84243C9.34927 7.07605 7.95813 5.45554 6.41833 4.04838C4.29762 5.53977 2.80048 7.85805 2.39551 10.5346ZM5.93576 1.64281C2.38441 3.72665 0 7.58487 0 12C0 18.6274 5.37258 24 12 24C18.6274 24 24 18.6274 24 12C24 5.37258 18.6274 0 12 0C9.80046 0 7.73909 0.591794 5.96649 1.62485C5.95617 1.63066 5.94593 1.63665 5.93576 1.64281ZM8.55001 2.91617C9.9752 4.29705 11.2741 5.84864 12.4099 7.52424C13.7917 6.33361 14.9032 4.81199 15.6322 2.98754C14.5102 2.53489 13.2842 2.28571 12 2.28571C10.785 2.28571 9.6221 2.50878 8.55001 2.91617ZM17.6486 4.09585C16.7232 6.29387 15.333 8.09778 13.6325 9.48629C14.0295 10.1817 14.3989 10.8937 14.7385 11.6194C16.8898 10.7822 19.2193 10.3952 21.6131 10.5931C21.2254 7.92011 19.7491 5.59969 17.6486 4.09585ZM21.6737 12.8942C19.5915 12.6814 17.5371 12.9974 15.6266 13.7295C16.4129 15.8272 16.9486 18.0106 17.1841 20.2168C19.6693 18.6456 21.3922 15.9783 21.6737 12.8942ZM14.9813 21.2482C14.8255 19.0391 14.3303 16.8351 13.5546 14.7167C11.1336 16.1079 9.05655 18.1857 7.61282 20.6695C8.93065 21.3377 10.4214 21.7143 12 21.7143C13.04 21.7143 14.0419 21.5509 14.9813 21.2482ZM5.70731 19.4009C7.38102 16.5731 9.80926 14.176 12.6696 12.5913C12.3834 11.9795 12.0741 11.3778 11.7432 10.7885C8.98546 12.3799 5.68666 13.0793 2.31997 12.8216C2.54029 15.4526 3.80913 17.7854 5.70731 19.4009Z" fill="#DBDBDB"/>
</svg>
