<svg width="26" height="26" viewBox="0 0 26 26" fill="none" xmlns="http://www.w3.org/2000/svg">
<path d="M20.2 16.0022C20.2798 15.9689 20.3589 15.9344 20.4372 15.8986C20.8718 15.7001 21.3593 15.6258 21.8207 15.7493L22.392 15.9022C23.5516 16.2124 24.6124 15.1516 24.3022 13.992L24.1493 13.4207C24.0258 12.9593 24.1001 12.4718 24.2986 12.0372C24.749 11.0512 25 9.9549 25 8.8C25 7.2711 24.5601 5.84494 23.8 4.64117M10 5.79472C11.1767 2.97879 13.9572 1 17.2 1C18.7463 1 20.1876 1.45 21.4 2.22618" stroke="#2E51C8" stroke-width="1.5" stroke-linecap="round"/>
<path d="M15.4 7.08412C13.988 6.2673 12.3485 5.7998 10.6 5.7998C5.29806 5.7998 1 10.0979 1 15.3998C1 16.9354 1.36059 18.387 2.00172 19.6742C2.1721 20.0162 2.22881 20.4073 2.13003 20.7764L1.55825 22.9134C1.31003 23.8411 2.15873 24.6897 3.08642 24.4416L5.22341 23.8698C5.59258 23.771 5.98356 23.8278 6.32562 23.998C7.61283 24.6392 9.0643 24.9998 10.6 24.9998C15.902 24.9998 20.2 20.7018 20.2 15.3998C20.2 13.6513 19.7325 12.0118 18.9156 10.5998" stroke="#2EC850" stroke-width="1.5" stroke-linecap="round"/>
<path d="M6.42188 15.3999H6.43267M10.6107 15.3999H10.6215M14.7999 15.3999H14.8107" stroke="white" stroke-width="2" stroke-linecap="round" stroke-linejoin="round"/>
</svg>
