<svg width="32" height="32" viewBox="0 0 32 32" fill="none" xmlns="http://www.w3.org/2000/svg">
<path d="M15.5814 13.1467L14.8094 13.9529C15.241 14.3662 15.9218 14.3662 16.3534 13.9529L15.5814 13.1467ZM14.8171 17.7154C14.1951 17.2589 13.5097 16.6888 12.9909 16.0889C12.4427 15.4551 12.2326 14.9625 12.2326 14.6431H10C10 15.7888 10.6567 16.8028 11.3022 17.5493C11.9768 18.3293 12.8117 19.0129 13.4965 19.5153L14.8171 17.7154ZM12.2326 14.6431C12.2326 13.7856 12.6234 13.4126 12.9647 13.293C13.3372 13.1624 14.0272 13.204 14.8094 13.9529L16.3534 12.3404C15.1264 11.1656 13.5839 10.7102 12.2261 11.1861C10.8371 11.673 10 13.01 10 14.6431H12.2326ZM17.6663 19.5153C18.3511 19.0129 19.1859 18.3293 19.8606 17.5493C20.5061 16.8028 21.1628 15.7888 21.1628 14.6431H18.9302C18.9302 14.9625 18.7201 15.4551 18.1719 16.0889C17.6531 16.6888 16.9677 17.2589 16.3457 17.7154L17.6663 19.5153ZM21.1628 14.6431C21.1628 13.01 20.3256 11.673 18.9366 11.1861C17.5789 10.7102 16.0364 11.1656 14.8094 12.3404L16.3534 13.9529C17.1356 13.204 17.8256 13.1624 18.1981 13.293C18.5394 13.4126 18.9302 13.7856 18.9302 14.6431H21.1628ZM13.4965 19.5153C14.0451 19.9179 14.661 20.4191 15.5814 20.4191V18.1866C15.5451 18.1866 15.5226 18.1866 15.4416 18.1437C15.3138 18.0763 15.1539 17.9623 14.8171 17.7154L13.4965 19.5153ZM16.3457 17.7154C16.0089 17.9623 15.849 18.0763 15.7212 18.1437C15.6402 18.1866 15.6177 18.1866 15.5814 18.1866V20.4191C16.5018 20.4191 17.1177 19.9179 17.6663 19.5153L16.3457 17.7154Z" fill="#BA2C46"/>
<path d="M5.5814 19.846H6.69767C6.69767 19.4023 6.4349 19.0006 6.02832 18.823L5.5814 19.846ZM26.4186 19.846L25.9716 18.823C25.565 19.0006 25.3023 19.4023 25.3023 19.846H26.4186ZM21.5814 8.55814C21.5814 9.17464 22.0812 9.67442 22.6977 9.67442C23.3142 9.67442 23.814 9.17464 23.814 8.55814H21.5814ZM8.18605 8.55814C8.18605 9.17464 8.68583 9.67442 9.30233 9.67442C9.91882 9.67442 10.4186 9.17464 10.4186 8.55814H8.18605ZM18.9767 29.7674C18.3603 29.7674 17.8605 30.2672 17.8605 30.8837C17.8605 31.5002 18.3603 32 18.9767 32V29.7674ZM13.0233 32C13.6397 32 14.1395 31.5002 14.1395 30.8837C14.1395 30.2672 13.6397 29.7674 13.0233 29.7674V32ZM8.55814 4.46512C3.83161 4.46512 0 8.29672 0 13.0233H2.23256C2.23256 9.52973 5.06462 6.69767 8.55814 6.69767V4.46512ZM23.4419 6.69767C26.9354 6.69767 29.7674 9.52973 29.7674 13.0233H32C32 8.29672 28.1683 4.46512 23.4419 4.46512V6.69767ZM11.5349 29.7674C10.1001 29.7674 9.13627 29.7651 8.41732 29.6685C7.7305 29.576 7.43655 29.4165 7.2426 29.2225L5.66394 30.8011C6.34185 31.4791 7.18546 31.7555 8.11984 31.8811C9.02213 32.0024 10.1632 32 11.5349 32V29.7674ZM4.46512 24.9302C4.46512 26.3019 4.46275 27.4431 4.58405 28.3453C4.70969 29.2797 4.98603 30.1233 5.66394 30.8011L7.2426 29.2225C7.04863 29.0286 6.88905 28.7347 6.79671 28.0478C6.70004 27.3289 6.69767 26.365 6.69767 24.9302H4.46512ZM25.3023 24.9302C25.3023 26.365 25.2999 27.3289 25.2034 28.0478C25.1109 28.7347 24.9514 29.0286 24.7574 29.2225L26.336 30.8011C27.014 30.1233 27.2903 29.2797 27.416 28.3453C27.5373 27.4431 27.5349 26.3019 27.5349 24.9302H25.3023ZM20.4651 32C21.8368 32 22.9779 32.0024 23.8802 31.8811C24.8146 31.7555 25.6582 31.4791 26.336 30.8011L24.7574 29.2225C24.5635 29.4165 24.2695 29.576 23.5827 29.6685C22.8638 29.7651 21.8999 29.7674 20.4651 29.7674V32ZM8.55814 6.69767C8.8762 6.69767 9.18811 6.72106 9.49239 6.76604L9.81884 4.55747C9.40682 4.49658 8.98581 4.46512 8.55814 4.46512V6.69767ZM16 0C12.5611 0 9.64379 2.2208 8.59846 5.30325L10.7128 6.02026C11.4602 3.81622 13.5466 2.23256 16 2.23256V0ZM8.59846 5.30325C8.33075 6.09268 8.18605 6.93757 8.18605 7.81395H10.4186C10.4186 7.1846 10.5223 6.58176 10.7128 6.02026L8.59846 5.30325ZM23.4419 4.46512C23.0143 4.46512 22.5932 4.49658 22.1812 4.55747L22.5076 6.76604C22.8118 6.72106 23.1238 6.69767 23.4419 6.69767V4.46512ZM16 2.23256C18.4534 2.23256 20.5398 3.81622 21.2873 6.02026L23.4015 5.30325C22.3562 2.2208 19.4389 0 16 0V2.23256ZM21.2873 6.02026C21.4777 6.58176 21.5814 7.1846 21.5814 7.81395H23.814C23.814 6.93757 23.6693 6.09268 23.4015 5.30325L21.2873 6.02026ZM6.69767 24.9302V19.846H4.46512V24.9302H6.69767ZM6.02832 18.823C3.79191 17.8459 2.23256 15.6154 2.23256 13.0233H0C0 16.5343 2.11423 19.5492 5.13447 20.8688L6.02832 18.823ZM25.3023 19.846V24.9302H27.5349V19.846H25.3023ZM29.7674 13.0233C29.7674 15.6154 28.2081 17.8459 25.9716 18.823L26.8656 20.8688C29.8858 19.5492 32 16.5343 32 13.0233H29.7674ZM21.5814 7.81395V8.55814H23.814V7.81395H21.5814ZM8.18605 7.81395V8.55814H10.4186V7.81395H8.18605ZM20.4651 29.7674H18.9767V32H20.4651V29.7674ZM13.0233 29.7674H11.5349V32H13.0233V29.7674Z" fill="white"/>
<path d="M5.58154 24.9302H17.4885M26.4188 24.9302H23.442" stroke="white" stroke-width="3" stroke-linecap="round" stroke-linejoin="round"/>
</svg>
