<svg width="384" height="384" viewBox="0 0 384 384" fill="none" xmlns="http://www.w3.org/2000/svg">
<path d="M128 384C163.328 384 192 355.328 192 320V256H128C92.672 256 64 284.672 64 320C64 355.328 92.672 384 128 384Z" fill="#0ACF83"/>
<path d="M64 192C64 156.672 92.672 128 128 128H192V256H128C92.672 256 64 227.328 64 192Z" fill="#A259FF"/>
<path d="M64 64C64 28.672 92.672 0 128 0H192V128H128C92.672 128 64 99.328 64 64Z" fill="#F24E1E"/>
<path d="M192 0H256C291.328 0 320 28.672 320 64C320 99.328 291.328 128 256 128H192V0Z" fill="#FF7262"/>
<path d="M320 192C320 227.328 291.328 256 256 256C220.672 256 192 227.328 192 192C192 156.672 220.672 128 256 128C291.328 128 320 156.672 320 192Z" fill="#1ABCFE"/>
</svg>
