<svg width="28" height="28" viewBox="0 0 28 28" fill="none" xmlns="http://www.w3.org/2000/svg">
<path fill-rule="evenodd" clip-rule="evenodd" d="M0.58536 12.5868C-0.19512 13.3673 -0.19512 14.6327 0.58536 15.4132L12.5868 27.4146C13.3673 28.1951 14.6327 28.1951 15.4132 27.4146L27.4146 15.4132C28.1951 14.6327 28.1951 13.3673 27.4146 12.5868L15.4132 0.58536C14.6327 -0.19512 13.3673 -0.19512 12.5868 0.58536L0.58536 12.5868ZM8.93359 4.27686L10.1489 3.06152L13.3697 6.2823C13.5688 6.22061 13.7803 6.18738 13.9996 6.18738C15.1732 6.18738 16.1246 7.13878 16.1246 8.3124C16.1246 8.5317 16.0914 8.7433 16.0297 8.9423L19.2522 12.1648C19.4582 12.0983 19.6778 12.0624 19.9059 12.0624C21.0795 12.0624 22.0309 13.0138 22.0309 14.1874C22.0309 15.361 21.0795 16.3124 19.9059 16.3124C18.7323 16.3124 17.7809 15.361 17.7809 14.1874C17.7809 13.8754 17.8481 13.5791 17.9689 13.3122L14.9684 10.3117V18.0768C15.6549 18.429 16.1246 19.144 16.1246 19.9686C16.1246 21.1422 15.1732 22.0936 13.9996 22.0936C12.826 22.0936 11.8746 21.1422 11.8746 19.9686C11.8746 19.059 12.4461 18.2829 13.2496 17.9798V10.3012C12.4461 9.9981 11.8746 9.222 11.8746 8.3124C11.8746 7.99201 11.9455 7.68819 12.0725 7.41577L8.93359 4.27686Z" fill="#EE513B"/>
</svg>
