<svg width="24" height="24" viewBox="0 0 24 24" fill="none" xmlns="http://www.w3.org/2000/svg">
<path d="M23.25 12C23.25 18.2133 18.2133 23.25 12 23.25C5.7868 23.25 0.75 18.2133 0.75 12C0.75 5.7868 5.7868 0.75 12 0.75C18.2133 0.75 23.25 5.7868 23.25 12Z" stroke="#DBDBDB" stroke-width="1.5"/>
<path d="M14.0896 8.56511L14.0894 8.56506C12.715 8.18494 11.285 8.18494 9.9106 8.56506L9.91051 8.56509C9.83387 8.58628 9.75729 8.6087 9.68066 8.63235L9.67719 8.63347L9.67719 8.63345C9.39766 8.7212 9.0934 8.66571 8.86298 8.48587M14.0896 8.56511L9.32433 7.89455M14.0896 8.56511C14.1636 8.58557 14.2374 8.60712 14.3109 8.62977L14.3117 8.63003L14.3147 8.63094C14.5968 8.7177 14.9087 8.66448 15.148 8.47737L14.6859 7.88662L15.1455 8.47929C15.1904 8.44447 15.2339 8.41119 15.2764 8.37926L15.2766 8.37912C16.0732 7.77993 16.6177 7.55163 16.9389 7.46623M14.0896 8.56511L16.9389 7.46623M8.86298 8.48587C8.86275 8.48569 8.86252 8.48551 8.86228 8.48532L9.32433 7.89455M8.86298 8.48587C8.86321 8.48605 8.86345 8.48623 8.86368 8.48641L9.32433 7.89455M8.86298 8.48587C8.81565 8.44904 8.76918 8.41349 8.72355 8.37918L8.72354 8.37917C7.92596 7.77945 7.37975 7.55119 7.05707 7.46595M9.32433 7.89455C9.27357 7.85504 9.22355 7.81678 9.17427 7.77972C7.59082 6.58908 6.76371 6.64226 6.55903 6.68199C6.52614 6.68838 6.50114 6.71292 6.48977 6.74443L6.48121 6.76832M7.05707 7.46595C7.09247 7.31455 7.13612 7.16533 7.18798 7.01925L7.19503 6.9996C7.19268 7.00608 7.1902 7.01259 7.18758 7.01911L6.5828 6.80439L6.5773 6.7761L6.5828 6.80439L6.48121 6.76832M7.05707 7.46595C6.90367 8.12204 6.90527 8.81919 7.06578 9.47923L7.05707 7.46595ZM6.48121 6.76832C6.15519 7.68658 6.10539 8.70402 6.33703 9.65651C6.35053 9.71198 6.36496 9.76718 6.38034 9.82211L6.38338 9.83291M6.48121 6.76832L6.58282 6.80451L6.70196 7.41824C6.70092 7.41845 6.70003 7.41861 6.69928 7.41874C6.69739 7.41897 6.69644 7.41914 6.69645 7.41916L7.10508 9.62883M10.0467 19.1613L10.0944 19.1676C11.3796 19.3597 12.6116 19.3478 13.8927 19.1304L13.9251 19.1265C16.2443 18.845 18.6661 17.8114 18.6661 13.1661C18.6812 12.0282 18.3403 10.925 17.7101 10.0598C17.6899 10.0321 17.6693 10.0045 17.6485 9.97718M10.0467 19.1613L10.1477 18.4181L10.192 18.424L10.2053 18.4257L10.2053 18.4258C11.4122 18.6062 12.5644 18.5951 13.7672 18.391C13.7793 18.3889 13.7915 18.3871 13.8038 18.3857L13.8347 18.382M10.0467 19.1613L10.1443 18.4177L10.146 18.4179C9.05516 18.2695 8.07136 17.9585 7.35276 17.246C6.64862 16.548 6.08382 15.3472 6.08382 13.1661H6.08389L6.08376 13.1562C6.07072 12.1705 6.36705 11.2278 6.89613 10.5014L6.89617 10.5013C6.91471 10.4759 6.93324 10.4511 6.95176 10.427L6.95176 10.427L6.9529 10.4255C7.12528 10.2 7.18299 9.90539 7.10533 9.62969M10.0467 19.1613C7.73862 18.8476 5.33382 17.7864 5.33382 13.1661C5.31877 12.0282 5.65973 10.925 6.28989 10.0598C6.31193 10.0296 6.33433 9.99958 6.35707 9.96998C6.38694 9.93091 6.39673 9.88011 6.38338 9.83291M13.8347 18.382L13.925 19.1263L13.8362 18.3818L13.8347 18.382ZM13.8347 18.382C14.9321 18.2488 15.9203 17.9502 16.6413 17.2461C17.347 16.5571 17.9161 15.3601 17.9161 13.1661V13.1562L17.9162 13.1562C17.9293 12.1707 17.6331 11.2282 17.1042 10.5018M17.1042 10.5018C17.1043 10.502 17.1045 10.5022 17.1046 10.5024L17.7101 10.0599L17.1039 10.5014C17.104 10.5015 17.1041 10.5017 17.1042 10.5018ZM17.1042 10.5018C17.0872 10.4786 17.0704 10.456 17.0536 10.4339M17.0536 10.4339L17.0612 10.4436L17.0628 10.4456L17.6485 9.97718M17.0536 10.4339C17.053 10.4331 17.0523 10.4322 17.0517 10.4314L17.564 10.0415L17.564 10.0415L17.6485 9.97718M17.0536 10.4339L17.0508 10.4303C16.8764 10.2018 16.8179 9.90342 16.8963 9.62398M17.6485 9.97718L17.6469 9.97518C17.6147 9.93291 17.604 9.87784 17.6184 9.82664M17.6184 9.82664C17.6343 9.77011 17.6491 9.71344 17.6628 9.65651L17.6184 9.82664ZM17.6184 9.82664L16.8963 9.62398M17.6184 9.82664L16.8964 9.62358C16.8964 9.62371 16.8963 9.62385 16.8963 9.62398M17.6184 9.82664L16.9389 7.46623M16.8963 9.62398C16.9097 9.57617 16.9222 9.52843 16.9337 9.48064L16.934 9.47959C17.0943 8.81919 17.0945 8.12169 16.9389 7.46623M6.38338 9.83291L7.10533 9.62969M6.38338 9.83291L7.10508 9.62883M7.10533 9.62969C7.10525 9.62941 7.10516 9.62912 7.10508 9.62883M7.10533 9.62969L7.10508 9.62883M7.10508 9.62883L7.10381 9.62431L7.10255 9.61982L6.38042 9.82209L7.10229 9.6189L7.10244 9.61944C7.08945 9.57306 7.07724 9.52634 7.06579 9.47928L7.10508 9.62883ZM17.2942 7.41865C17.296 7.41887 17.2969 7.41902 17.2969 7.41905L17.2942 7.41865Z" stroke="#DBDBDB" stroke-width="1.5" stroke-linecap="round" stroke-linejoin="round"/>
</svg>
