<svg width="558" height="618" viewBox="0 0 558 618" fill="none" xmlns="http://www.w3.org/2000/svg">
<path d="M124 88H142V83V93M124 88V83M124 88V93" stroke="#BF4D4D" stroke-width="2"/>
<path d="M121 88L58 88" stroke="#D4D4D5" stroke-width="2" stroke-linecap="round" stroke-dasharray="4 4"/>
<g filter="url(#filter0_dd_630_3)">
<rect x="6" y="298" width="44" height="30" rx="8" fill="#26272C"/>
</g>
<g filter="url(#filter1_dd_630_3)">
<rect x="6" y="177" width="44" height="30" rx="8" fill="#26272C"/>
</g>
<g filter="url(#filter2_dd_630_3)">
<rect x="6" y="6" width="44" height="30" rx="8" fill="#26272C"/>
</g>
<g filter="url(#filter3_dd_630_3)">
<rect x="6" y="420" width="44" height="30" rx="8" fill="#26272C"/>
</g>
<g filter="url(#filter4_dd_630_3)">
<rect x="6" y="524" width="44" height="30" rx="8" fill="#26272C"/>
</g>
<g filter="url(#filter5_dd_630_3)">
<rect x="6" y="490" width="44" height="30" rx="8" fill="#26272C"/>
</g>
<g filter="url(#filter6_dd_630_3)">
<rect x="6" y="456" width="44" height="30" rx="8" fill="#26272C"/>
</g>
<g filter="url(#filter7_dd_630_3)">
<rect x="6" y="73" width="44" height="30" rx="8" fill="#26272C"/>
</g>
<g filter="url(#filter8_dd_630_3)">
<rect x="6" y="341" width="44" height="30" rx="8" fill="#26272C"/>
</g>
<g filter="url(#filter9_dd_630_3)">
<rect x="6" y="231" width="44" height="30" rx="8" fill="#26272C"/>
</g>
<g filter="url(#filter10_dd_630_3)">
<rect x="465" y="254" width="87" height="30" rx="8" fill="#26272C"/>
</g>
<g filter="url(#filter11_dd_630_3)">
<rect x="465" y="204" width="87" height="30" rx="8" fill="#26272C"/>
</g>
<g filter="url(#filter12_dd_630_3)">
<rect x="465" y="313" width="87" height="30" rx="8" fill="#26272C"/>
</g>
<g filter="url(#filter13_dd_630_3)">
<rect x="465" y="371" width="87" height="30" rx="8" fill="#26272C"/>
</g>
<g filter="url(#filter14_dd_630_3)">
<rect x="465" y="442" width="87" height="30" rx="8" fill="#26272C"/>
</g>
<g filter="url(#filter15_dd_630_3)">
<rect x="465" y="582" width="87" height="30" rx="8" fill="#26272C"/>
</g>
<g filter="url(#filter16_dd_630_3)">
<rect x="6" y="387" width="44" height="30" rx="8" fill="#26272C"/>
</g>
<path d="M14.0805 318V316.98L16.5285 314.364C17.0085 313.852 17.3845 313.44 17.6565 313.128C17.9365 312.808 18.1365 312.528 18.2565 312.288C18.3845 312.048 18.4485 311.796 18.4485 311.532C18.4485 311.1 18.3165 310.768 18.0525 310.536C17.7885 310.296 17.4485 310.176 17.0325 310.176C16.6005 310.176 16.2285 310.3 15.9165 310.548C15.6045 310.788 15.3885 311.14 15.2685 311.604L14.0205 311.244C14.1165 310.772 14.3085 310.364 14.5965 310.02C14.8845 309.668 15.2365 309.396 15.6525 309.204C16.0765 309.012 16.5325 308.916 17.0205 308.916C17.5885 308.916 18.0845 309.024 18.5085 309.24C18.9325 309.448 19.2605 309.74 19.4925 310.116C19.7325 310.492 19.8525 310.928 19.8525 311.424C19.8525 311.752 19.7885 312.072 19.6605 312.384C19.5405 312.688 19.3525 313.012 19.0965 313.356C18.8405 313.692 18.5125 314.072 18.1125 314.496L15.9525 316.8H20.0205V318H14.0805ZM25.2632 318V315.984H21.0032V314.808L25.2032 309.06H26.6072V314.808H27.8432V315.984H26.6072V318H25.2632ZM22.0472 315.324L21.8192 314.808H25.2632V310.188L25.6472 310.308L22.0472 315.324ZM29.085 320.4V311.508H30.381V312.852L30.225 312.54C30.465 312.172 30.785 311.884 31.185 311.676C31.585 311.468 32.041 311.364 32.553 311.364C33.169 311.364 33.721 311.512 34.209 311.808C34.705 312.104 35.093 312.508 35.373 313.02C35.661 313.532 35.805 314.108 35.805 314.748C35.805 315.388 35.661 315.964 35.373 316.476C35.093 316.988 34.709 317.396 34.221 317.7C33.733 317.996 33.177 318.144 32.553 318.144C32.049 318.144 31.589 318.04 31.173 317.832C30.765 317.624 30.449 317.324 30.225 316.932L30.441 316.68V320.4H29.085ZM32.421 316.884C32.805 316.884 33.145 316.792 33.441 316.608C33.737 316.424 33.969 316.172 34.137 315.852C34.313 315.524 34.401 315.156 34.401 314.748C34.401 314.34 34.313 313.976 34.137 313.656C33.969 313.336 33.737 313.084 33.441 312.9C33.145 312.716 32.805 312.624 32.421 312.624C32.045 312.624 31.705 312.716 31.401 312.9C31.105 313.084 30.869 313.336 30.693 313.656C30.525 313.976 30.441 314.34 30.441 314.748C30.441 315.156 30.525 315.524 30.693 315.852C30.869 316.172 31.105 316.424 31.401 316.608C31.705 316.792 32.045 316.884 32.421 316.884ZM36.2417 318L38.5097 314.748L36.2417 311.508H37.8377L39.6977 314.22H38.9297L40.7897 311.508H42.3857L40.1057 314.748L42.3737 318H40.7777L38.9417 315.276H39.6857L37.8377 318H36.2417Z" fill="#DBDBDB"/>
<path d="M14.0805 197V195.98L16.5285 193.364C17.0085 192.852 17.3845 192.44 17.6565 192.128C17.9365 191.808 18.1365 191.528 18.2565 191.288C18.3845 191.048 18.4485 190.796 18.4485 190.532C18.4485 190.1 18.3165 189.768 18.0525 189.536C17.7885 189.296 17.4485 189.176 17.0325 189.176C16.6005 189.176 16.2285 189.3 15.9165 189.548C15.6045 189.788 15.3885 190.14 15.2685 190.604L14.0205 190.244C14.1165 189.772 14.3085 189.364 14.5965 189.02C14.8845 188.668 15.2365 188.396 15.6525 188.204C16.0765 188.012 16.5325 187.916 17.0205 187.916C17.5885 187.916 18.0845 188.024 18.5085 188.24C18.9325 188.448 19.2605 188.74 19.4925 189.116C19.7325 189.492 19.8525 189.928 19.8525 190.424C19.8525 190.752 19.7885 191.072 19.6605 191.384C19.5405 191.688 19.3525 192.012 19.0965 192.356C18.8405 192.692 18.5125 193.072 18.1125 193.496L15.9525 195.8H20.0205V197H14.0805ZM25.2632 197V194.984H21.0032V193.808L25.2032 188.06H26.6072V193.808H27.8432V194.984H26.6072V197H25.2632ZM22.0472 194.324L21.8192 193.808H25.2632V189.188L25.6472 189.308L22.0472 194.324ZM29.085 199.4V190.508H30.381V191.852L30.225 191.54C30.465 191.172 30.785 190.884 31.185 190.676C31.585 190.468 32.041 190.364 32.553 190.364C33.169 190.364 33.721 190.512 34.209 190.808C34.705 191.104 35.093 191.508 35.373 192.02C35.661 192.532 35.805 193.108 35.805 193.748C35.805 194.388 35.661 194.964 35.373 195.476C35.093 195.988 34.709 196.396 34.221 196.7C33.733 196.996 33.177 197.144 32.553 197.144C32.049 197.144 31.589 197.04 31.173 196.832C30.765 196.624 30.449 196.324 30.225 195.932L30.441 195.68V199.4H29.085ZM32.421 195.884C32.805 195.884 33.145 195.792 33.441 195.608C33.737 195.424 33.969 195.172 34.137 194.852C34.313 194.524 34.401 194.156 34.401 193.748C34.401 193.34 34.313 192.976 34.137 192.656C33.969 192.336 33.737 192.084 33.441 191.9C33.145 191.716 32.805 191.624 32.421 191.624C32.045 191.624 31.705 191.716 31.401 191.9C31.105 192.084 30.869 192.336 30.693 192.656C30.525 192.976 30.441 193.34 30.441 193.748C30.441 194.156 30.525 194.524 30.693 194.852C30.869 195.172 31.105 195.424 31.401 195.608C31.705 195.792 32.045 195.884 32.421 195.884ZM36.2417 197L38.5097 193.748L36.2417 190.508H37.8377L39.6977 193.22H38.9297L40.7897 190.508H42.3857L40.1057 193.748L42.3737 197H40.7777L38.9417 194.276H39.6857L37.8377 197H36.2417Z" fill="#DBDBDB"/>
<path d="M17.6042 26V18.26H15.8882V17.06H19.0082V26H17.6042ZM23.6862 26.144C23.1022 26.144 22.5822 26.016 22.1262 25.76C21.6702 25.504 21.3102 25.152 21.0462 24.704C20.7902 24.256 20.6622 23.748 20.6622 23.18C20.6622 22.884 20.6942 22.588 20.7582 22.292C20.8222 21.996 20.9342 21.688 21.0942 21.368C21.2622 21.048 21.4862 20.704 21.7662 20.336L24.2622 17.06H25.9542L22.8942 21.02L22.6542 20.864C22.7662 20.736 22.8862 20.636 23.0142 20.564C23.1502 20.492 23.2902 20.44 23.4342 20.408C23.5862 20.376 23.7462 20.36 23.9142 20.36C24.4502 20.36 24.9302 20.484 25.3542 20.732C25.7782 20.98 26.1102 21.316 26.3502 21.74C26.5982 22.164 26.7222 22.652 26.7222 23.204C26.7222 23.764 26.5902 24.268 26.3262 24.716C26.0622 25.156 25.7022 25.504 25.2462 25.76C24.7982 26.016 24.2782 26.144 23.6862 26.144ZM23.6862 24.884C23.9982 24.884 24.2742 24.812 24.5142 24.668C24.7542 24.524 24.9462 24.328 25.0902 24.08C25.2342 23.824 25.3062 23.536 25.3062 23.216C25.3062 22.888 25.2342 22.6 25.0902 22.352C24.9542 22.104 24.7622 21.912 24.5142 21.776C24.2742 21.632 23.9982 21.56 23.6862 21.56C23.3822 21.56 23.1062 21.632 22.8582 21.776C22.6182 21.912 22.4262 22.104 22.2822 22.352C22.1382 22.6 22.0662 22.888 22.0662 23.216C22.0662 23.536 22.1382 23.824 22.2822 24.08C22.4262 24.328 22.6182 24.524 22.8582 24.668C23.1062 24.812 23.3822 24.884 23.6862 24.884ZM28.0732 28.4V19.508H29.3693V20.852L29.2133 20.54C29.4533 20.172 29.7733 19.884 30.1733 19.676C30.5733 19.468 31.0293 19.364 31.5413 19.364C32.1573 19.364 32.7093 19.512 33.1973 19.808C33.6933 20.104 34.0813 20.508 34.3613 21.02C34.6493 21.532 34.7933 22.108 34.7933 22.748C34.7933 23.388 34.6493 23.964 34.3613 24.476C34.0813 24.988 33.6973 25.396 33.2093 25.7C32.7213 25.996 32.1653 26.144 31.5413 26.144C31.0373 26.144 30.5773 26.04 30.1613 25.832C29.7533 25.624 29.4373 25.324 29.2133 24.932L29.4293 24.68V28.4H28.0732ZM31.4093 24.884C31.7933 24.884 32.1333 24.792 32.4293 24.608C32.7253 24.424 32.9573 24.172 33.1253 23.852C33.3013 23.524 33.3893 23.156 33.3893 22.748C33.3893 22.34 33.3013 21.976 33.1253 21.656C32.9573 21.336 32.7253 21.084 32.4293 20.9C32.1333 20.716 31.7933 20.624 31.4093 20.624C31.0333 20.624 30.6933 20.716 30.3893 20.9C30.0933 21.084 29.8573 21.336 29.6813 21.656C29.5133 21.976 29.4293 22.34 29.4293 22.748C29.4293 23.156 29.5133 23.524 29.6813 23.852C29.8573 24.172 30.0933 24.424 30.3893 24.608C30.6933 24.792 31.0333 24.884 31.4093 24.884ZM35.2299 26L37.4979 22.748L35.2299 19.508H36.8259L38.6859 22.22H37.9179L39.7779 19.508H41.3739L39.0939 22.748L41.3619 26H39.7659L37.9299 23.276H38.6739L36.8259 26H35.2299Z" fill="#DBDBDB"/>
<path d="M17.6042 440V432.26H15.8882V431.06H19.0082V440H17.6042ZM23.6862 440.144C23.1022 440.144 22.5822 440.016 22.1262 439.76C21.6702 439.504 21.3102 439.152 21.0462 438.704C20.7902 438.256 20.6622 437.748 20.6622 437.18C20.6622 436.884 20.6942 436.588 20.7582 436.292C20.8222 435.996 20.9342 435.688 21.0942 435.368C21.2622 435.048 21.4862 434.704 21.7662 434.336L24.2622 431.06H25.9542L22.8942 435.02L22.6542 434.864C22.7662 434.736 22.8862 434.636 23.0142 434.564C23.1502 434.492 23.2902 434.44 23.4342 434.408C23.5862 434.376 23.7462 434.36 23.9142 434.36C24.4502 434.36 24.9302 434.484 25.3542 434.732C25.7782 434.98 26.1102 435.316 26.3502 435.74C26.5982 436.164 26.7222 436.652 26.7222 437.204C26.7222 437.764 26.5902 438.268 26.3262 438.716C26.0622 439.156 25.7022 439.504 25.2462 439.76C24.7982 440.016 24.2782 440.144 23.6862 440.144ZM23.6862 438.884C23.9982 438.884 24.2742 438.812 24.5142 438.668C24.7542 438.524 24.9462 438.328 25.0902 438.08C25.2342 437.824 25.3062 437.536 25.3062 437.216C25.3062 436.888 25.2342 436.6 25.0902 436.352C24.9542 436.104 24.7622 435.912 24.5142 435.776C24.2742 435.632 23.9982 435.56 23.6862 435.56C23.3822 435.56 23.1062 435.632 22.8582 435.776C22.6182 435.912 22.4262 436.104 22.2822 436.352C22.1382 436.6 22.0662 436.888 22.0662 437.216C22.0662 437.536 22.1382 437.824 22.2822 438.08C22.4262 438.328 22.6182 438.524 22.8582 438.668C23.1062 438.812 23.3822 438.884 23.6862 438.884ZM28.0732 442.4V433.508H29.3693V434.852L29.2133 434.54C29.4533 434.172 29.7733 433.884 30.1733 433.676C30.5733 433.468 31.0293 433.364 31.5413 433.364C32.1573 433.364 32.7093 433.512 33.1973 433.808C33.6933 434.104 34.0813 434.508 34.3613 435.02C34.6493 435.532 34.7933 436.108 34.7933 436.748C34.7933 437.388 34.6493 437.964 34.3613 438.476C34.0813 438.988 33.6973 439.396 33.2093 439.7C32.7213 439.996 32.1653 440.144 31.5413 440.144C31.0373 440.144 30.5773 440.04 30.1613 439.832C29.7533 439.624 29.4373 439.324 29.2133 438.932L29.4293 438.68V442.4H28.0732ZM31.4093 438.884C31.7933 438.884 32.1333 438.792 32.4293 438.608C32.7253 438.424 32.9573 438.172 33.1253 437.852C33.3013 437.524 33.3893 437.156 33.3893 436.748C33.3893 436.34 33.3013 435.976 33.1253 435.656C32.9573 435.336 32.7253 435.084 32.4293 434.9C32.1333 434.716 31.7933 434.624 31.4093 434.624C31.0333 434.624 30.6933 434.716 30.3893 434.9C30.0933 435.084 29.8573 435.336 29.6813 435.656C29.5133 435.976 29.4293 436.34 29.4293 436.748C29.4293 437.156 29.5133 437.524 29.6813 437.852C29.8573 438.172 30.0933 438.424 30.3893 438.608C30.6933 438.792 31.0333 438.884 31.4093 438.884ZM35.2299 440L37.4979 436.748L35.2299 433.508H36.8259L38.6859 436.22H37.9179L39.7779 433.508H41.3739L39.0939 436.748L41.3619 440H39.7659L37.9299 437.276H38.6739L36.8259 440H35.2299Z" fill="#DBDBDB"/>
<path d="M20.8816 544.144C20.2576 544.144 19.7096 544.024 19.2376 543.784C18.7736 543.536 18.4136 543.208 18.1576 542.8C17.9016 542.384 17.7736 541.924 17.7736 541.42C17.7736 540.844 17.9296 540.348 18.2416 539.932C18.5616 539.508 19.0096 539.2 19.5856 539.008L19.5256 539.368C19.1016 539.208 18.7656 538.94 18.5176 538.564C18.2776 538.18 18.1576 537.76 18.1576 537.304C18.1576 536.848 18.2736 536.44 18.5056 536.08C18.7456 535.72 19.0696 535.436 19.4776 535.228C19.8936 535.02 20.3616 534.916 20.8816 534.916C21.4096 534.916 21.8776 535.02 22.2856 535.228C22.6936 535.428 23.0136 535.708 23.2456 536.068C23.4856 536.428 23.6056 536.84 23.6056 537.304C23.6056 537.776 23.4816 538.2 23.2336 538.576C22.9936 538.944 22.6656 539.208 22.2496 539.368L22.1896 539.008C22.7656 539.208 23.2136 539.516 23.5336 539.932C23.8536 540.348 24.0136 540.844 24.0136 541.42C24.0136 541.924 23.8816 542.384 23.6176 542.8C23.3616 543.208 22.9976 543.536 22.5256 543.784C22.0536 544.024 21.5056 544.144 20.8816 544.144ZM20.8816 542.944C21.2256 542.944 21.5256 542.88 21.7816 542.752C22.0376 542.616 22.2376 542.432 22.3816 542.2C22.5256 541.968 22.5976 541.696 22.5976 541.384C22.5976 541.072 22.5256 540.8 22.3816 540.568C22.2376 540.336 22.0376 540.156 21.7816 540.028C21.5256 539.9 21.2256 539.836 20.8816 539.836C20.5456 539.836 20.2496 539.9 19.9936 540.028C19.7376 540.156 19.5376 540.336 19.3936 540.568C19.2496 540.8 19.1776 541.072 19.1776 541.384C19.1776 541.696 19.2496 541.968 19.3936 542.2C19.5376 542.432 19.7376 542.616 19.9936 542.752C20.2496 542.88 20.5456 542.944 20.8816 542.944ZM20.8816 538.636C21.1376 538.636 21.3616 538.584 21.5536 538.48C21.7536 538.368 21.9096 538.216 22.0216 538.024C22.1336 537.832 22.1896 537.616 22.1896 537.376C22.1896 537.128 22.1336 536.912 22.0216 536.728C21.9096 536.536 21.7536 536.388 21.5536 536.284C21.3616 536.172 21.1376 536.116 20.8816 536.116C20.6336 536.116 20.4096 536.172 20.2096 536.284C20.0096 536.388 19.8536 536.536 19.7416 536.728C19.6296 536.912 19.5736 537.128 19.5736 537.376C19.5736 537.616 19.6296 537.832 19.7416 538.024C19.8536 538.216 20.0096 538.368 20.2096 538.48C20.4096 538.584 20.6336 538.636 20.8816 538.636ZM25.4639 546.4V537.508H26.7599V538.852L26.6039 538.54C26.8439 538.172 27.1639 537.884 27.5639 537.676C27.9639 537.468 28.4199 537.364 28.9319 537.364C29.5479 537.364 30.0999 537.512 30.5879 537.808C31.0839 538.104 31.4719 538.508 31.7519 539.02C32.0399 539.532 32.1839 540.108 32.1839 540.748C32.1839 541.388 32.0399 541.964 31.7519 542.476C31.4719 542.988 31.0879 543.396 30.5999 543.7C30.1119 543.996 29.5559 544.144 28.9319 544.144C28.4279 544.144 27.9679 544.04 27.5519 543.832C27.1439 543.624 26.8279 543.324 26.6039 542.932L26.8199 542.68V546.4H25.4639ZM28.7999 542.884C29.1839 542.884 29.5239 542.792 29.8199 542.608C30.1159 542.424 30.3479 542.172 30.5159 541.852C30.6919 541.524 30.7799 541.156 30.7799 540.748C30.7799 540.34 30.6919 539.976 30.5159 539.656C30.3479 539.336 30.1159 539.084 29.8199 538.9C29.5239 538.716 29.1839 538.624 28.7999 538.624C28.4239 538.624 28.0839 538.716 27.7799 538.9C27.4839 539.084 27.2479 539.336 27.0719 539.656C26.9039 539.976 26.8199 540.34 26.8199 540.748C26.8199 541.156 26.9039 541.524 27.0719 541.852C27.2479 542.172 27.4839 542.424 27.7799 542.608C28.0839 542.792 28.4239 542.884 28.7999 542.884ZM32.6206 544L34.8886 540.748L32.6206 537.508H34.2166L36.0766 540.22H35.3086L37.1686 537.508H38.7646L36.4846 540.748L38.7526 544H37.1566L35.3206 541.276H36.0646L34.2166 544H32.6206Z" fill="#DBDBDB"/>
<path d="M20.8816 510.144C20.2576 510.144 19.7096 510.024 19.2376 509.784C18.7736 509.536 18.4136 509.208 18.1576 508.8C17.9016 508.384 17.7736 507.924 17.7736 507.42C17.7736 506.844 17.9296 506.348 18.2416 505.932C18.5616 505.508 19.0096 505.2 19.5856 505.008L19.5256 505.368C19.1016 505.208 18.7656 504.94 18.5176 504.564C18.2776 504.18 18.1576 503.76 18.1576 503.304C18.1576 502.848 18.2736 502.44 18.5056 502.08C18.7456 501.72 19.0696 501.436 19.4776 501.228C19.8936 501.02 20.3616 500.916 20.8816 500.916C21.4096 500.916 21.8776 501.02 22.2856 501.228C22.6936 501.428 23.0136 501.708 23.2456 502.068C23.4856 502.428 23.6056 502.84 23.6056 503.304C23.6056 503.776 23.4816 504.2 23.2336 504.576C22.9936 504.944 22.6656 505.208 22.2496 505.368L22.1896 505.008C22.7656 505.208 23.2136 505.516 23.5336 505.932C23.8536 506.348 24.0136 506.844 24.0136 507.42C24.0136 507.924 23.8816 508.384 23.6176 508.8C23.3616 509.208 22.9976 509.536 22.5256 509.784C22.0536 510.024 21.5056 510.144 20.8816 510.144ZM20.8816 508.944C21.2256 508.944 21.5256 508.88 21.7816 508.752C22.0376 508.616 22.2376 508.432 22.3816 508.2C22.5256 507.968 22.5976 507.696 22.5976 507.384C22.5976 507.072 22.5256 506.8 22.3816 506.568C22.2376 506.336 22.0376 506.156 21.7816 506.028C21.5256 505.9 21.2256 505.836 20.8816 505.836C20.5456 505.836 20.2496 505.9 19.9936 506.028C19.7376 506.156 19.5376 506.336 19.3936 506.568C19.2496 506.8 19.1776 507.072 19.1776 507.384C19.1776 507.696 19.2496 507.968 19.3936 508.2C19.5376 508.432 19.7376 508.616 19.9936 508.752C20.2496 508.88 20.5456 508.944 20.8816 508.944ZM20.8816 504.636C21.1376 504.636 21.3616 504.584 21.5536 504.48C21.7536 504.368 21.9096 504.216 22.0216 504.024C22.1336 503.832 22.1896 503.616 22.1896 503.376C22.1896 503.128 22.1336 502.912 22.0216 502.728C21.9096 502.536 21.7536 502.388 21.5536 502.284C21.3616 502.172 21.1376 502.116 20.8816 502.116C20.6336 502.116 20.4096 502.172 20.2096 502.284C20.0096 502.388 19.8536 502.536 19.7416 502.728C19.6296 502.912 19.5736 503.128 19.5736 503.376C19.5736 503.616 19.6296 503.832 19.7416 504.024C19.8536 504.216 20.0096 504.368 20.2096 504.48C20.4096 504.584 20.6336 504.636 20.8816 504.636ZM25.4639 512.4V503.508H26.7599V504.852L26.6039 504.54C26.8439 504.172 27.1639 503.884 27.5639 503.676C27.9639 503.468 28.4199 503.364 28.9319 503.364C29.5479 503.364 30.0999 503.512 30.5879 503.808C31.0839 504.104 31.4719 504.508 31.7519 505.02C32.0399 505.532 32.1839 506.108 32.1839 506.748C32.1839 507.388 32.0399 507.964 31.7519 508.476C31.4719 508.988 31.0879 509.396 30.5999 509.7C30.1119 509.996 29.5559 510.144 28.9319 510.144C28.4279 510.144 27.9679 510.04 27.5519 509.832C27.1439 509.624 26.8279 509.324 26.6039 508.932L26.8199 508.68V512.4H25.4639ZM28.7999 508.884C29.1839 508.884 29.5239 508.792 29.8199 508.608C30.1159 508.424 30.3479 508.172 30.5159 507.852C30.6919 507.524 30.7799 507.156 30.7799 506.748C30.7799 506.34 30.6919 505.976 30.5159 505.656C30.3479 505.336 30.1159 505.084 29.8199 504.9C29.5239 504.716 29.1839 504.624 28.7999 504.624C28.4239 504.624 28.0839 504.716 27.7799 504.9C27.4839 505.084 27.2479 505.336 27.0719 505.656C26.9039 505.976 26.8199 506.34 26.8199 506.748C26.8199 507.156 26.9039 507.524 27.0719 507.852C27.2479 508.172 27.4839 508.424 27.7799 508.608C28.0839 508.792 28.4239 508.884 28.7999 508.884ZM32.6206 510L34.8886 506.748L32.6206 503.508H34.2166L36.0766 506.22H35.3086L37.1686 503.508H38.7646L36.4846 506.748L38.7526 510H37.1566L35.3206 507.276H36.0646L34.2166 510H32.6206Z" fill="#DBDBDB"/>
<path d="M20.8816 476.144C20.2576 476.144 19.7096 476.024 19.2376 475.784C18.7736 475.536 18.4136 475.208 18.1576 474.8C17.9016 474.384 17.7736 473.924 17.7736 473.42C17.7736 472.844 17.9296 472.348 18.2416 471.932C18.5616 471.508 19.0096 471.2 19.5856 471.008L19.5256 471.368C19.1016 471.208 18.7656 470.94 18.5176 470.564C18.2776 470.18 18.1576 469.76 18.1576 469.304C18.1576 468.848 18.2736 468.44 18.5056 468.08C18.7456 467.72 19.0696 467.436 19.4776 467.228C19.8936 467.02 20.3616 466.916 20.8816 466.916C21.4096 466.916 21.8776 467.02 22.2856 467.228C22.6936 467.428 23.0136 467.708 23.2456 468.068C23.4856 468.428 23.6056 468.84 23.6056 469.304C23.6056 469.776 23.4816 470.2 23.2336 470.576C22.9936 470.944 22.6656 471.208 22.2496 471.368L22.1896 471.008C22.7656 471.208 23.2136 471.516 23.5336 471.932C23.8536 472.348 24.0136 472.844 24.0136 473.42C24.0136 473.924 23.8816 474.384 23.6176 474.8C23.3616 475.208 22.9976 475.536 22.5256 475.784C22.0536 476.024 21.5056 476.144 20.8816 476.144ZM20.8816 474.944C21.2256 474.944 21.5256 474.88 21.7816 474.752C22.0376 474.616 22.2376 474.432 22.3816 474.2C22.5256 473.968 22.5976 473.696 22.5976 473.384C22.5976 473.072 22.5256 472.8 22.3816 472.568C22.2376 472.336 22.0376 472.156 21.7816 472.028C21.5256 471.9 21.2256 471.836 20.8816 471.836C20.5456 471.836 20.2496 471.9 19.9936 472.028C19.7376 472.156 19.5376 472.336 19.3936 472.568C19.2496 472.8 19.1776 473.072 19.1776 473.384C19.1776 473.696 19.2496 473.968 19.3936 474.2C19.5376 474.432 19.7376 474.616 19.9936 474.752C20.2496 474.88 20.5456 474.944 20.8816 474.944ZM20.8816 470.636C21.1376 470.636 21.3616 470.584 21.5536 470.48C21.7536 470.368 21.9096 470.216 22.0216 470.024C22.1336 469.832 22.1896 469.616 22.1896 469.376C22.1896 469.128 22.1336 468.912 22.0216 468.728C21.9096 468.536 21.7536 468.388 21.5536 468.284C21.3616 468.172 21.1376 468.116 20.8816 468.116C20.6336 468.116 20.4096 468.172 20.2096 468.284C20.0096 468.388 19.8536 468.536 19.7416 468.728C19.6296 468.912 19.5736 469.128 19.5736 469.376C19.5736 469.616 19.6296 469.832 19.7416 470.024C19.8536 470.216 20.0096 470.368 20.2096 470.48C20.4096 470.584 20.6336 470.636 20.8816 470.636ZM25.4639 478.4V469.508H26.7599V470.852L26.6039 470.54C26.8439 470.172 27.1639 469.884 27.5639 469.676C27.9639 469.468 28.4199 469.364 28.9319 469.364C29.5479 469.364 30.0999 469.512 30.5879 469.808C31.0839 470.104 31.4719 470.508 31.7519 471.02C32.0399 471.532 32.1839 472.108 32.1839 472.748C32.1839 473.388 32.0399 473.964 31.7519 474.476C31.4719 474.988 31.0879 475.396 30.5999 475.7C30.1119 475.996 29.5559 476.144 28.9319 476.144C28.4279 476.144 27.9679 476.04 27.5519 475.832C27.1439 475.624 26.8279 475.324 26.6039 474.932L26.8199 474.68V478.4H25.4639ZM28.7999 474.884C29.1839 474.884 29.5239 474.792 29.8199 474.608C30.1159 474.424 30.3479 474.172 30.5159 473.852C30.6919 473.524 30.7799 473.156 30.7799 472.748C30.7799 472.34 30.6919 471.976 30.5159 471.656C30.3479 471.336 30.1159 471.084 29.8199 470.9C29.5239 470.716 29.1839 470.624 28.7999 470.624C28.4239 470.624 28.0839 470.716 27.7799 470.9C27.4839 471.084 27.2479 471.336 27.0719 471.656C26.9039 471.976 26.8199 472.34 26.8199 472.748C26.8199 473.156 26.9039 473.524 27.0719 473.852C27.2479 474.172 27.4839 474.424 27.7799 474.608C28.0839 474.792 28.4239 474.884 28.7999 474.884ZM32.6206 476L34.8886 472.748L32.6206 469.508H34.2166L36.0766 472.22H35.3086L37.1686 469.508H38.7646L36.4846 472.748L38.7526 476H37.1566L35.3206 473.276H36.0646L34.2166 476H32.6206Z" fill="#DBDBDB"/>
<path d="M14.0805 93V91.98L16.5285 89.364C17.0085 88.852 17.3845 88.44 17.6565 88.128C17.9365 87.808 18.1365 87.528 18.2565 87.288C18.3845 87.048 18.4485 86.796 18.4485 86.532C18.4485 86.1 18.3165 85.768 18.0525 85.536C17.7885 85.296 17.4485 85.176 17.0325 85.176C16.6005 85.176 16.2285 85.3 15.9165 85.548C15.6045 85.788 15.3885 86.14 15.2685 86.604L14.0205 86.244C14.1165 85.772 14.3085 85.364 14.5965 85.02C14.8845 84.668 15.2365 84.396 15.6525 84.204C16.0765 84.012 16.5325 83.916 17.0205 83.916C17.5885 83.916 18.0845 84.024 18.5085 84.24C18.9325 84.448 19.2605 84.74 19.4925 85.116C19.7325 85.492 19.8525 85.928 19.8525 86.424C19.8525 86.752 19.7885 87.072 19.6605 87.384C19.5405 87.688 19.3525 88.012 19.0965 88.356C18.8405 88.692 18.5125 89.072 18.1125 89.496L15.9525 91.8H20.0205V93H14.0805ZM25.2632 93V90.984H21.0032V89.808L25.2032 84.06H26.6072V89.808H27.8432V90.984H26.6072V93H25.2632ZM22.0472 90.324L21.8192 89.808H25.2632V85.188L25.6472 85.308L22.0472 90.324ZM29.085 95.4V86.508H30.381V87.852L30.225 87.54C30.465 87.172 30.785 86.884 31.185 86.676C31.585 86.468 32.041 86.364 32.553 86.364C33.169 86.364 33.721 86.512 34.209 86.808C34.705 87.104 35.093 87.508 35.373 88.02C35.661 88.532 35.805 89.108 35.805 89.748C35.805 90.388 35.661 90.964 35.373 91.476C35.093 91.988 34.709 92.396 34.221 92.7C33.733 92.996 33.177 93.144 32.553 93.144C32.049 93.144 31.589 93.04 31.173 92.832C30.765 92.624 30.449 92.324 30.225 91.932L30.441 91.68V95.4H29.085ZM32.421 91.884C32.805 91.884 33.145 91.792 33.441 91.608C33.737 91.424 33.969 91.172 34.137 90.852C34.313 90.524 34.401 90.156 34.401 89.748C34.401 89.34 34.313 88.976 34.137 88.656C33.969 88.336 33.737 88.084 33.441 87.9C33.145 87.716 32.805 87.624 32.421 87.624C32.045 87.624 31.705 87.716 31.401 87.9C31.105 88.084 30.869 88.336 30.693 88.656C30.525 88.976 30.441 89.34 30.441 89.748C30.441 90.156 30.525 90.524 30.693 90.852C30.869 91.172 31.105 91.424 31.401 91.608C31.705 91.792 32.045 91.884 32.421 91.884ZM36.2417 93L38.5097 89.748L36.2417 86.508H37.8377L39.6977 89.22H38.9297L40.7897 86.508H42.3857L40.1057 89.748L42.3737 93H40.7777L38.9417 90.276H39.6857L37.8377 93H36.2417Z" fill="#DBDBDB"/>
<path d="M14.0805 360V358.98L16.5285 356.364C17.0085 355.852 17.3845 355.44 17.6565 355.128C17.9365 354.808 18.1365 354.528 18.2565 354.288C18.3845 354.048 18.4485 353.796 18.4485 353.532C18.4485 353.1 18.3165 352.768 18.0525 352.536C17.7885 352.296 17.4485 352.176 17.0325 352.176C16.6005 352.176 16.2285 352.3 15.9165 352.548C15.6045 352.788 15.3885 353.14 15.2685 353.604L14.0205 353.244C14.1165 352.772 14.3085 352.364 14.5965 352.02C14.8845 351.668 15.2365 351.396 15.6525 351.204C16.0765 351.012 16.5325 350.916 17.0205 350.916C17.5885 350.916 18.0845 351.024 18.5085 351.24C18.9325 351.448 19.2605 351.74 19.4925 352.116C19.7325 352.492 19.8525 352.928 19.8525 353.424C19.8525 353.752 19.7885 354.072 19.6605 354.384C19.5405 354.688 19.3525 355.012 19.0965 355.356C18.8405 355.692 18.5125 356.072 18.1125 356.496L15.9525 358.8H20.0205V360H14.0805ZM25.2632 360V357.984H21.0032V356.808L25.2032 351.06H26.6072V356.808H27.8432V357.984H26.6072V360H25.2632ZM22.0472 357.324L21.8192 356.808H25.2632V352.188L25.6472 352.308L22.0472 357.324ZM29.085 362.4V353.508H30.381V354.852L30.225 354.54C30.465 354.172 30.785 353.884 31.185 353.676C31.585 353.468 32.041 353.364 32.553 353.364C33.169 353.364 33.721 353.512 34.209 353.808C34.705 354.104 35.093 354.508 35.373 355.02C35.661 355.532 35.805 356.108 35.805 356.748C35.805 357.388 35.661 357.964 35.373 358.476C35.093 358.988 34.709 359.396 34.221 359.7C33.733 359.996 33.177 360.144 32.553 360.144C32.049 360.144 31.589 360.04 31.173 359.832C30.765 359.624 30.449 359.324 30.225 358.932L30.441 358.68V362.4H29.085ZM32.421 358.884C32.805 358.884 33.145 358.792 33.441 358.608C33.737 358.424 33.969 358.172 34.137 357.852C34.313 357.524 34.401 357.156 34.401 356.748C34.401 356.34 34.313 355.976 34.137 355.656C33.969 355.336 33.737 355.084 33.441 354.9C33.145 354.716 32.805 354.624 32.421 354.624C32.045 354.624 31.705 354.716 31.401 354.9C31.105 355.084 30.869 355.336 30.693 355.656C30.525 355.976 30.441 356.34 30.441 356.748C30.441 357.156 30.525 357.524 30.693 357.852C30.869 358.172 31.105 358.424 31.401 358.608C31.705 358.792 32.045 358.884 32.421 358.884ZM36.2417 360L38.5097 356.748L36.2417 353.508H37.8377L39.6977 356.22H38.9297L40.7897 353.508H42.3857L40.1057 356.748L42.3737 360H40.7777L38.9417 357.276H39.6857L37.8377 360H36.2417Z" fill="#DBDBDB"/>
<path d="M17.6488 250.144C17.1688 250.144 16.7168 250.056 16.2928 249.88C15.8768 249.704 15.5168 249.456 15.2128 249.136C14.9168 248.816 14.7048 248.44 14.5768 248.008L15.7768 247.552C15.9368 247.976 16.1808 248.304 16.5088 248.536C16.8368 248.768 17.2168 248.884 17.6488 248.884C18.0008 248.884 18.3048 248.816 18.5608 248.68C18.8248 248.544 19.0288 248.352 19.1728 248.104C19.3248 247.856 19.4008 247.556 19.4008 247.204C19.4008 246.86 19.3248 246.564 19.1728 246.316C19.0288 246.068 18.8248 245.88 18.5608 245.752C18.3048 245.624 18.0008 245.56 17.6488 245.56C17.5048 245.56 17.3568 245.572 17.2048 245.596C17.0608 245.62 16.9328 245.652 16.8208 245.692L16.5088 245.032L18.8608 242.26H15.0568V241.06H20.4448V242.2L18.1408 244.96L18.1048 244.504C18.6408 244.512 19.1128 244.632 19.5208 244.864C19.9288 245.088 20.2448 245.4 20.4688 245.8C20.7008 246.192 20.8168 246.648 20.8168 247.168C20.8168 247.728 20.6808 248.236 20.4088 248.692C20.1368 249.14 19.7608 249.496 19.2808 249.76C18.8088 250.016 18.2648 250.144 17.6488 250.144ZM22.0688 250V248.98L24.5168 246.364C24.9968 245.852 25.3728 245.44 25.6448 245.128C25.9248 244.808 26.1248 244.528 26.2448 244.288C26.3728 244.048 26.4368 243.796 26.4368 243.532C26.4368 243.1 26.3048 242.768 26.0408 242.536C25.7768 242.296 25.4368 242.176 25.0208 242.176C24.5888 242.176 24.2168 242.3 23.9048 242.548C23.5928 242.788 23.3768 243.14 23.2568 243.604L22.0088 243.244C22.1048 242.772 22.2968 242.364 22.5848 242.02C22.8728 241.668 23.2248 241.396 23.6408 241.204C24.0648 241.012 24.5208 240.916 25.0088 240.916C25.5768 240.916 26.0728 241.024 26.4968 241.24C26.9208 241.448 27.2488 241.74 27.4808 242.116C27.7208 242.492 27.8408 242.928 27.8408 243.424C27.8408 243.752 27.7768 244.072 27.6488 244.384C27.5288 244.688 27.3408 245.012 27.0848 245.356C26.8288 245.692 26.5008 246.072 26.1008 246.496L23.9408 248.8H28.0088V250H22.0688ZM29.4326 252.4V243.508H30.7286V244.852L30.5726 244.54C30.8126 244.172 31.1326 243.884 31.5326 243.676C31.9326 243.468 32.3886 243.364 32.9006 243.364C33.5166 243.364 34.0686 243.512 34.5566 243.808C35.0526 244.104 35.4406 244.508 35.7206 245.02C36.0086 245.532 36.1526 246.108 36.1526 246.748C36.1526 247.388 36.0086 247.964 35.7206 248.476C35.4406 248.988 35.0566 249.396 34.5686 249.7C34.0806 249.996 33.5246 250.144 32.9006 250.144C32.3966 250.144 31.9366 250.04 31.5206 249.832C31.1126 249.624 30.7966 249.324 30.5726 248.932L30.7886 248.68V252.4H29.4326ZM32.7686 248.884C33.1526 248.884 33.4926 248.792 33.7886 248.608C34.0846 248.424 34.3166 248.172 34.4846 247.852C34.6606 247.524 34.7486 247.156 34.7486 246.748C34.7486 246.34 34.6606 245.976 34.4846 245.656C34.3166 245.336 34.0846 245.084 33.7886 244.9C33.4926 244.716 33.1526 244.624 32.7686 244.624C32.3926 244.624 32.0526 244.716 31.7486 244.9C31.4526 245.084 31.2166 245.336 31.0406 245.656C30.8726 245.976 30.7886 246.34 30.7886 246.748C30.7886 247.156 30.8726 247.524 31.0406 247.852C31.2166 248.172 31.4526 248.424 31.7486 248.608C32.0526 248.792 32.3926 248.884 32.7686 248.884ZM36.5893 250L38.8573 246.748L36.5893 243.508H38.1853L40.0453 246.22H39.2773L41.1373 243.508H42.7333L40.4533 246.748L42.7213 250H41.1253L39.2893 247.276H40.0333L38.1853 250H36.5893Z" fill="#DBDBDB"/>
<path d="M473.346 273V265.26H471.63V264.06H474.75V273H473.346ZM479.714 273.144C479.09 273.144 478.542 273.024 478.07 272.784C477.606 272.536 477.246 272.208 476.99 271.8C476.734 271.384 476.606 270.924 476.606 270.42C476.606 269.844 476.762 269.348 477.074 268.932C477.394 268.508 477.842 268.2 478.418 268.008L478.358 268.368C477.934 268.208 477.598 267.94 477.35 267.564C477.11 267.18 476.99 266.76 476.99 266.304C476.99 265.848 477.106 265.44 477.338 265.08C477.578 264.72 477.902 264.436 478.31 264.228C478.726 264.02 479.194 263.916 479.714 263.916C480.242 263.916 480.71 264.02 481.118 264.228C481.526 264.428 481.846 264.708 482.078 265.068C482.318 265.428 482.438 265.84 482.438 266.304C482.438 266.776 482.314 267.2 482.066 267.576C481.826 267.944 481.498 268.208 481.082 268.368L481.022 268.008C481.598 268.208 482.046 268.516 482.366 268.932C482.686 269.348 482.846 269.844 482.846 270.42C482.846 270.924 482.714 271.384 482.45 271.8C482.194 272.208 481.83 272.536 481.358 272.784C480.886 273.024 480.338 273.144 479.714 273.144ZM479.714 271.944C480.058 271.944 480.358 271.88 480.614 271.752C480.87 271.616 481.07 271.432 481.214 271.2C481.358 270.968 481.43 270.696 481.43 270.384C481.43 270.072 481.358 269.8 481.214 269.568C481.07 269.336 480.87 269.156 480.614 269.028C480.358 268.9 480.058 268.836 479.714 268.836C479.378 268.836 479.082 268.9 478.826 269.028C478.57 269.156 478.37 269.336 478.226 269.568C478.082 269.8 478.01 270.072 478.01 270.384C478.01 270.696 478.082 270.968 478.226 271.2C478.37 271.432 478.57 271.616 478.826 271.752C479.082 271.88 479.378 271.944 479.714 271.944ZM479.714 267.636C479.97 267.636 480.194 267.584 480.386 267.48C480.586 267.368 480.742 267.216 480.854 267.024C480.966 266.832 481.022 266.616 481.022 266.376C481.022 266.128 480.966 265.912 480.854 265.728C480.742 265.536 480.586 265.388 480.386 265.284C480.194 265.172 479.97 265.116 479.714 265.116C479.466 265.116 479.242 265.172 479.042 265.284C478.842 265.388 478.686 265.536 478.574 265.728C478.462 265.912 478.406 266.128 478.406 266.376C478.406 266.616 478.462 266.832 478.574 267.024C478.686 267.216 478.842 267.368 479.042 267.48C479.242 267.584 479.466 267.636 479.714 267.636ZM484.644 274.764V274.104C484.908 274.04 485.112 273.916 485.256 273.732C485.4 273.556 485.488 273.312 485.52 273H484.884V271.44H486.264V272.46C486.264 273.1 486.128 273.616 485.856 274.008C485.584 274.4 485.18 274.652 484.644 274.764ZM493.595 273.144C493.035 273.144 492.515 273.04 492.035 272.832C491.555 272.616 491.147 272.324 490.811 271.956C490.475 271.588 490.227 271.164 490.067 270.684L491.267 270.18C491.483 270.732 491.799 271.156 492.215 271.452C492.631 271.748 493.111 271.896 493.655 271.896C493.975 271.896 494.255 271.848 494.495 271.752C494.735 271.648 494.919 271.504 495.047 271.32C495.183 271.136 495.251 270.924 495.251 270.684C495.251 270.356 495.159 270.096 494.975 269.904C494.791 269.712 494.519 269.56 494.159 269.448L492.479 268.92C491.807 268.712 491.295 268.396 490.943 267.972C490.591 267.54 490.415 267.036 490.415 266.46C490.415 265.956 490.539 265.516 490.787 265.14C491.035 264.756 491.375 264.456 491.807 264.24C492.247 264.024 492.747 263.916 493.307 263.916C493.843 263.916 494.331 264.012 494.771 264.204C495.211 264.388 495.587 264.644 495.899 264.972C496.219 265.3 496.451 265.68 496.595 266.112L495.419 266.628C495.243 266.156 494.967 265.792 494.591 265.536C494.223 265.28 493.795 265.152 493.307 265.152C493.011 265.152 492.751 265.204 492.527 265.308C492.303 265.404 492.127 265.548 491.999 265.74C491.879 265.924 491.819 266.14 491.819 266.388C491.819 266.676 491.911 266.932 492.095 267.156C492.279 267.38 492.559 267.548 492.935 267.66L494.495 268.152C495.207 268.368 495.743 268.68 496.103 269.088C496.463 269.488 496.643 269.988 496.643 270.588C496.643 271.084 496.511 271.524 496.247 271.908C495.991 272.292 495.635 272.596 495.179 272.82C494.723 273.036 494.195 273.144 493.595 273.144ZM501.149 273.144C500.501 273.144 499.925 272.996 499.421 272.7C498.925 272.396 498.537 271.988 498.257 271.476C497.977 270.956 497.837 270.376 497.837 269.736C497.837 269.08 497.977 268.5 498.257 267.996C498.545 267.492 498.929 267.096 499.409 266.808C499.889 266.512 500.433 266.364 501.041 266.364C501.529 266.364 501.965 266.448 502.349 266.616C502.733 266.784 503.057 267.016 503.321 267.312C503.585 267.6 503.785 267.932 503.921 268.308C504.065 268.684 504.137 269.084 504.137 269.508C504.137 269.612 504.133 269.72 504.125 269.832C504.117 269.944 504.101 270.048 504.077 270.144H498.905V269.064H503.309L502.661 269.556C502.741 269.164 502.713 268.816 502.577 268.512C502.449 268.2 502.249 267.956 501.977 267.78C501.713 267.596 501.401 267.504 501.041 267.504C500.681 267.504 500.361 267.596 500.081 267.78C499.801 267.956 499.585 268.212 499.433 268.548C499.281 268.876 499.221 269.276 499.253 269.748C499.213 270.188 499.273 270.572 499.433 270.9C499.601 271.228 499.833 271.484 500.129 271.668C500.433 271.852 500.777 271.944 501.161 271.944C501.553 271.944 501.885 271.856 502.157 271.68C502.437 271.504 502.657 271.276 502.817 270.996L503.921 271.536C503.793 271.84 503.593 272.116 503.321 272.364C503.057 272.604 502.737 272.796 502.361 272.94C501.993 273.076 501.589 273.144 501.149 273.144ZM505.46 273V266.508H506.756V267.912L506.588 267.696C506.724 267.256 506.972 266.924 507.332 266.7C507.692 266.476 508.104 266.364 508.568 266.364C509.088 266.364 509.548 266.504 509.948 266.784C510.356 267.056 510.628 267.42 510.764 267.876L510.38 267.912C510.572 267.392 510.864 267.004 511.256 266.748C511.656 266.492 512.112 266.364 512.624 266.364C513.072 266.364 513.476 266.468 513.836 266.676C514.204 266.884 514.496 267.172 514.712 267.54C514.928 267.908 515.036 268.328 515.036 268.8V273H513.68V269.172C513.68 268.844 513.62 268.568 513.5 268.344C513.388 268.112 513.228 267.936 513.02 267.816C512.82 267.688 512.584 267.624 512.312 267.624C512.04 267.624 511.8 267.688 511.592 267.816C511.384 267.936 511.22 268.112 511.1 268.344C510.98 268.576 510.92 268.852 510.92 269.172V273H509.576V269.172C509.576 268.844 509.516 268.568 509.396 268.344C509.284 268.112 509.124 267.936 508.916 267.816C508.716 267.688 508.476 267.624 508.196 267.624C507.924 267.624 507.684 267.688 507.476 267.816C507.268 267.936 507.104 268.112 506.984 268.344C506.872 268.576 506.816 268.852 506.816 269.172V273H505.46ZM516.487 273V266.508H517.843V273H516.487ZM516.487 265.62V264.06H517.843V265.62H516.487ZM519.561 273V264.06H523.329C523.889 264.06 524.373 264.16 524.781 264.36C525.189 264.552 525.501 264.832 525.717 265.2C525.933 265.56 526.041 265.988 526.041 266.484C526.041 266.916 525.929 267.312 525.705 267.672C525.489 268.024 525.149 268.304 524.685 268.512V267.912C525.093 268.072 525.425 268.276 525.681 268.524C525.937 268.764 526.121 269.036 526.233 269.34C526.353 269.644 526.413 269.964 526.413 270.3C526.413 271.14 526.137 271.8 525.585 272.28C525.041 272.76 524.293 273 523.341 273H519.561ZM520.977 271.74H523.449C523.921 271.74 524.297 271.612 524.577 271.356C524.857 271.092 524.997 270.744 524.997 270.312C524.997 269.872 524.857 269.524 524.577 269.268C524.297 269.004 523.921 268.872 523.449 268.872H520.977V271.74ZM520.977 267.624H523.365C523.749 267.624 524.057 267.516 524.289 267.3C524.521 267.076 524.637 266.784 524.637 266.424C524.637 266.064 524.521 265.784 524.289 265.584C524.057 265.384 523.749 265.284 523.365 265.284H520.977V267.624ZM530.869 273.144C530.245 273.144 529.673 272.996 529.153 272.7C528.641 272.404 528.233 272 527.929 271.488C527.625 270.976 527.473 270.396 527.473 269.748C527.473 269.092 527.625 268.512 527.929 268.008C528.233 267.496 528.641 267.096 529.153 266.808C529.665 266.512 530.237 266.364 530.869 266.364C531.509 266.364 532.081 266.512 532.585 266.808C533.097 267.096 533.501 267.496 533.797 268.008C534.101 268.512 534.253 269.092 534.253 269.748C534.253 270.404 534.101 270.988 533.797 271.5C533.493 272.012 533.085 272.416 532.573 272.712C532.061 273 531.493 273.144 530.869 273.144ZM530.869 271.884C531.253 271.884 531.593 271.792 531.889 271.608C532.185 271.424 532.417 271.172 532.585 270.852C532.761 270.524 532.849 270.156 532.849 269.748C532.849 269.34 532.761 268.976 532.585 268.656C532.417 268.336 532.185 268.084 531.889 267.9C531.593 267.716 531.253 267.624 530.869 267.624C530.493 267.624 530.153 267.716 529.849 267.9C529.553 268.084 529.317 268.336 529.141 268.656C528.973 268.976 528.889 269.34 528.889 269.748C528.889 270.156 528.973 270.524 529.141 270.852C529.317 271.172 529.553 271.424 529.849 271.608C530.153 271.792 530.493 271.884 530.869 271.884ZM535.577 273V263.916H536.933V273H535.577ZM541.519 273.144C540.895 273.144 540.335 272.996 539.839 272.7C539.351 272.396 538.963 271.988 538.675 271.476C538.395 270.964 538.255 270.388 538.255 269.748C538.255 269.108 538.399 268.532 538.687 268.02C538.975 267.508 539.363 267.104 539.851 266.808C540.339 266.512 540.891 266.364 541.507 266.364C542.027 266.364 542.487 266.468 542.887 266.676C543.287 266.884 543.603 267.172 543.835 267.54L543.631 267.852V263.916H544.975V273H543.691V271.68L543.847 271.932C543.623 272.324 543.303 272.624 542.887 272.832C542.471 273.04 542.015 273.144 541.519 273.144ZM541.651 271.884C542.027 271.884 542.363 271.792 542.659 271.608C542.963 271.424 543.199 271.172 543.367 270.852C543.543 270.524 543.631 270.156 543.631 269.748C543.631 269.34 543.543 268.976 543.367 268.656C543.199 268.336 542.963 268.084 542.659 267.9C542.363 267.716 542.027 267.624 541.651 267.624C541.275 267.624 540.935 267.716 540.631 267.9C540.327 268.084 540.091 268.336 539.923 268.656C539.755 268.976 539.671 269.34 539.671 269.748C539.671 270.156 539.755 270.524 539.923 270.852C540.091 271.172 540.323 271.424 540.619 271.608C540.923 271.792 541.267 271.884 541.651 271.884Z" fill="#DBDBDB"/>
<path d="M473.587 223V215.26H471.871V214.06H474.991V223H473.587ZM479.669 223.144C479.085 223.144 478.565 223.016 478.109 222.76C477.653 222.504 477.293 222.152 477.029 221.704C476.773 221.256 476.645 220.748 476.645 220.18C476.645 219.884 476.677 219.588 476.741 219.292C476.805 218.996 476.917 218.688 477.077 218.368C477.245 218.048 477.469 217.704 477.749 217.336L480.245 214.06H481.937L478.877 218.02L478.637 217.864C478.749 217.736 478.869 217.636 478.997 217.564C479.133 217.492 479.273 217.44 479.417 217.408C479.569 217.376 479.729 217.36 479.897 217.36C480.433 217.36 480.913 217.484 481.337 217.732C481.761 217.98 482.093 218.316 482.333 218.74C482.581 219.164 482.705 219.652 482.705 220.204C482.705 220.764 482.573 221.268 482.309 221.716C482.045 222.156 481.685 222.504 481.229 222.76C480.781 223.016 480.261 223.144 479.669 223.144ZM479.669 221.884C479.981 221.884 480.257 221.812 480.497 221.668C480.737 221.524 480.929 221.328 481.073 221.08C481.217 220.824 481.289 220.536 481.289 220.216C481.289 219.888 481.217 219.6 481.073 219.352C480.937 219.104 480.745 218.912 480.497 218.776C480.257 218.632 479.981 218.56 479.669 218.56C479.365 218.56 479.089 218.632 478.841 218.776C478.601 218.912 478.409 219.104 478.265 219.352C478.121 219.6 478.049 219.888 478.049 220.216C478.049 220.536 478.121 220.824 478.265 221.08C478.409 221.328 478.601 221.524 478.841 221.668C479.089 221.812 479.365 221.884 479.669 221.884ZM484.404 224.764V224.104C484.668 224.04 484.872 223.916 485.016 223.732C485.16 223.556 485.248 223.312 485.28 223H484.644V221.44H486.024V222.46C486.024 223.1 485.888 223.616 485.616 224.008C485.344 224.4 484.94 224.652 484.404 224.764ZM493.355 223.144C492.795 223.144 492.275 223.04 491.795 222.832C491.315 222.616 490.907 222.324 490.571 221.956C490.235 221.588 489.987 221.164 489.827 220.684L491.027 220.18C491.243 220.732 491.559 221.156 491.975 221.452C492.391 221.748 492.871 221.896 493.415 221.896C493.735 221.896 494.015 221.848 494.255 221.752C494.495 221.648 494.679 221.504 494.807 221.32C494.943 221.136 495.011 220.924 495.011 220.684C495.011 220.356 494.919 220.096 494.735 219.904C494.551 219.712 494.279 219.56 493.919 219.448L492.239 218.92C491.567 218.712 491.055 218.396 490.703 217.972C490.351 217.54 490.175 217.036 490.175 216.46C490.175 215.956 490.299 215.516 490.547 215.14C490.795 214.756 491.135 214.456 491.567 214.24C492.007 214.024 492.507 213.916 493.067 213.916C493.603 213.916 494.091 214.012 494.531 214.204C494.971 214.388 495.347 214.644 495.659 214.972C495.979 215.3 496.211 215.68 496.355 216.112L495.179 216.628C495.003 216.156 494.727 215.792 494.351 215.536C493.983 215.28 493.555 215.152 493.067 215.152C492.771 215.152 492.511 215.204 492.287 215.308C492.063 215.404 491.887 215.548 491.759 215.74C491.639 215.924 491.579 216.14 491.579 216.388C491.579 216.676 491.671 216.932 491.855 217.156C492.039 217.38 492.319 217.548 492.695 217.66L494.255 218.152C494.967 218.368 495.503 218.68 495.863 219.088C496.223 219.488 496.403 219.988 496.403 220.588C496.403 221.084 496.271 221.524 496.007 221.908C495.751 222.292 495.395 222.596 494.939 222.82C494.483 223.036 493.955 223.144 493.355 223.144ZM500.908 223.144C500.26 223.144 499.684 222.996 499.18 222.7C498.684 222.396 498.296 221.988 498.016 221.476C497.736 220.956 497.596 220.376 497.596 219.736C497.596 219.08 497.736 218.5 498.016 217.996C498.304 217.492 498.688 217.096 499.168 216.808C499.648 216.512 500.192 216.364 500.8 216.364C501.288 216.364 501.724 216.448 502.108 216.616C502.492 216.784 502.816 217.016 503.08 217.312C503.344 217.6 503.544 217.932 503.68 218.308C503.824 218.684 503.896 219.084 503.896 219.508C503.896 219.612 503.892 219.72 503.884 219.832C503.876 219.944 503.86 220.048 503.836 220.144H498.664V219.064H503.068L502.42 219.556C502.5 219.164 502.472 218.816 502.336 218.512C502.208 218.2 502.008 217.956 501.736 217.78C501.472 217.596 501.16 217.504 500.8 217.504C500.44 217.504 500.12 217.596 499.84 217.78C499.56 217.956 499.344 218.212 499.192 218.548C499.04 218.876 498.98 219.276 499.012 219.748C498.972 220.188 499.032 220.572 499.192 220.9C499.36 221.228 499.592 221.484 499.888 221.668C500.192 221.852 500.536 221.944 500.92 221.944C501.312 221.944 501.644 221.856 501.916 221.68C502.196 221.504 502.416 221.276 502.576 220.996L503.68 221.536C503.552 221.84 503.352 222.116 503.08 222.364C502.816 222.604 502.496 222.796 502.12 222.94C501.752 223.076 501.348 223.144 500.908 223.144ZM505.22 223V216.508H506.516V217.912L506.348 217.696C506.484 217.256 506.732 216.924 507.092 216.7C507.452 216.476 507.864 216.364 508.328 216.364C508.848 216.364 509.308 216.504 509.708 216.784C510.116 217.056 510.388 217.42 510.524 217.876L510.14 217.912C510.332 217.392 510.624 217.004 511.016 216.748C511.416 216.492 511.872 216.364 512.384 216.364C512.832 216.364 513.236 216.468 513.596 216.676C513.964 216.884 514.256 217.172 514.472 217.54C514.688 217.908 514.796 218.328 514.796 218.8V223H513.44V219.172C513.44 218.844 513.38 218.568 513.26 218.344C513.148 218.112 512.988 217.936 512.78 217.816C512.58 217.688 512.344 217.624 512.072 217.624C511.8 217.624 511.56 217.688 511.352 217.816C511.144 217.936 510.98 218.112 510.86 218.344C510.74 218.576 510.68 218.852 510.68 219.172V223H509.336V219.172C509.336 218.844 509.276 218.568 509.156 218.344C509.044 218.112 508.884 217.936 508.676 217.816C508.476 217.688 508.236 217.624 507.956 217.624C507.684 217.624 507.444 217.688 507.236 217.816C507.028 217.936 506.864 218.112 506.744 218.344C506.632 218.576 506.576 218.852 506.576 219.172V223H505.22ZM516.247 223V216.508H517.603V223H516.247ZM516.247 215.62V214.06H517.603V215.62H516.247ZM519.32 223V214.06H523.088C523.648 214.06 524.132 214.16 524.54 214.36C524.948 214.552 525.26 214.832 525.476 215.2C525.692 215.56 525.8 215.988 525.8 216.484C525.8 216.916 525.688 217.312 525.464 217.672C525.248 218.024 524.908 218.304 524.444 218.512V217.912C524.852 218.072 525.184 218.276 525.44 218.524C525.696 218.764 525.88 219.036 525.992 219.34C526.112 219.644 526.172 219.964 526.172 220.3C526.172 221.14 525.896 221.8 525.344 222.28C524.8 222.76 524.052 223 523.1 223H519.32ZM520.736 221.74H523.208C523.68 221.74 524.056 221.612 524.336 221.356C524.616 221.092 524.756 220.744 524.756 220.312C524.756 219.872 524.616 219.524 524.336 219.268C524.056 219.004 523.68 218.872 523.208 218.872H520.736V221.74ZM520.736 217.624H523.124C523.508 217.624 523.816 217.516 524.048 217.3C524.28 217.076 524.396 216.784 524.396 216.424C524.396 216.064 524.28 215.784 524.048 215.584C523.816 215.384 523.508 215.284 523.124 215.284H520.736V217.624ZM530.629 223.144C530.005 223.144 529.433 222.996 528.913 222.7C528.401 222.404 527.993 222 527.689 221.488C527.385 220.976 527.233 220.396 527.233 219.748C527.233 219.092 527.385 218.512 527.689 218.008C527.993 217.496 528.401 217.096 528.913 216.808C529.425 216.512 529.997 216.364 530.629 216.364C531.269 216.364 531.841 216.512 532.345 216.808C532.857 217.096 533.261 217.496 533.557 218.008C533.861 218.512 534.013 219.092 534.013 219.748C534.013 220.404 533.861 220.988 533.557 221.5C533.253 222.012 532.845 222.416 532.333 222.712C531.821 223 531.253 223.144 530.629 223.144ZM530.629 221.884C531.013 221.884 531.353 221.792 531.649 221.608C531.945 221.424 532.177 221.172 532.345 220.852C532.521 220.524 532.609 220.156 532.609 219.748C532.609 219.34 532.521 218.976 532.345 218.656C532.177 218.336 531.945 218.084 531.649 217.9C531.353 217.716 531.013 217.624 530.629 217.624C530.253 217.624 529.913 217.716 529.609 217.9C529.313 218.084 529.077 218.336 528.901 218.656C528.733 218.976 528.649 219.34 528.649 219.748C528.649 220.156 528.733 220.524 528.901 220.852C529.077 221.172 529.313 221.424 529.609 221.608C529.913 221.792 530.253 221.884 530.629 221.884ZM535.337 223V213.916H536.693V223H535.337ZM541.278 223.144C540.654 223.144 540.094 222.996 539.598 222.7C539.11 222.396 538.722 221.988 538.434 221.476C538.154 220.964 538.014 220.388 538.014 219.748C538.014 219.108 538.158 218.532 538.446 218.02C538.734 217.508 539.122 217.104 539.61 216.808C540.098 216.512 540.65 216.364 541.266 216.364C541.786 216.364 542.246 216.468 542.646 216.676C543.046 216.884 543.362 217.172 543.594 217.54L543.39 217.852V213.916H544.734V223H543.45V221.68L543.606 221.932C543.382 222.324 543.062 222.624 542.646 222.832C542.23 223.04 541.774 223.144 541.278 223.144ZM541.41 221.884C541.786 221.884 542.122 221.792 542.418 221.608C542.722 221.424 542.958 221.172 543.126 220.852C543.302 220.524 543.39 220.156 543.39 219.748C543.39 219.34 543.302 218.976 543.126 218.656C542.958 218.336 542.722 218.084 542.418 217.9C542.122 217.716 541.786 217.624 541.41 217.624C541.034 217.624 540.694 217.716 540.39 217.9C540.086 218.084 539.85 218.336 539.682 218.656C539.514 218.976 539.43 219.34 539.43 219.748C539.43 220.156 539.514 220.524 539.682 220.852C539.85 221.172 540.082 221.424 540.378 221.608C540.682 221.792 541.026 221.884 541.41 221.884Z" fill="#DBDBDB"/>
<path d="M480.175 332V324.26H478.458V323.06H481.579V332H480.175ZM483.362 332V330.98L485.81 328.364C486.29 327.852 486.666 327.44 486.938 327.128C487.218 326.808 487.418 326.528 487.538 326.288C487.666 326.048 487.73 325.796 487.73 325.532C487.73 325.1 487.598 324.768 487.334 324.536C487.07 324.296 486.73 324.176 486.314 324.176C485.882 324.176 485.51 324.3 485.198 324.548C484.886 324.788 484.67 325.14 484.55 325.604L483.302 325.244C483.398 324.772 483.59 324.364 483.878 324.02C484.166 323.668 484.518 323.396 484.934 323.204C485.358 323.012 485.814 322.916 486.302 322.916C486.87 322.916 487.366 323.024 487.79 323.24C488.214 323.448 488.542 323.74 488.774 324.116C489.014 324.492 489.134 324.928 489.134 325.424C489.134 325.752 489.07 326.072 488.942 326.384C488.822 326.688 488.634 327.012 488.378 327.356C488.122 327.692 487.794 328.072 487.394 328.496L485.234 330.8H489.302V332H483.362ZM491.074 333.764V333.104C491.338 333.04 491.542 332.916 491.686 332.732C491.83 332.556 491.918 332.312 491.95 332H491.314V330.44H492.694V331.46C492.694 332.1 492.558 332.616 492.286 333.008C492.014 333.4 491.61 333.652 491.074 333.764ZM496.893 332V323.06H500.145C500.745 323.06 501.273 323.172 501.729 323.396C502.185 323.612 502.541 323.932 502.797 324.356C503.061 324.772 503.193 325.272 503.193 325.856C503.193 326.472 503.037 327 502.725 327.44C502.421 327.88 502.009 328.2 501.489 328.4L503.553 332H501.945L499.749 328.1L500.673 328.64H498.309V332H496.893ZM498.309 327.38H500.169C500.497 327.38 500.781 327.316 501.021 327.188C501.261 327.06 501.445 326.884 501.573 326.66C501.709 326.428 501.777 326.156 501.777 325.844C501.777 325.532 501.709 325.264 501.573 325.04C501.445 324.808 501.261 324.632 501.021 324.512C500.781 324.384 500.497 324.32 500.169 324.32H498.309V327.38ZM507.297 332.144C506.649 332.144 506.073 331.996 505.569 331.7C505.073 331.396 504.685 330.988 504.405 330.476C504.125 329.956 503.985 329.376 503.985 328.736C503.985 328.08 504.125 327.5 504.405 326.996C504.693 326.492 505.077 326.096 505.557 325.808C506.037 325.512 506.581 325.364 507.189 325.364C507.677 325.364 508.113 325.448 508.497 325.616C508.881 325.784 509.205 326.016 509.469 326.312C509.733 326.6 509.933 326.932 510.069 327.308C510.213 327.684 510.285 328.084 510.285 328.508C510.285 328.612 510.281 328.72 510.273 328.832C510.265 328.944 510.249 329.048 510.225 329.144H505.053V328.064H509.457L508.809 328.556C508.889 328.164 508.861 327.816 508.725 327.512C508.597 327.2 508.397 326.956 508.125 326.78C507.861 326.596 507.549 326.504 507.189 326.504C506.829 326.504 506.509 326.596 506.229 326.78C505.949 326.956 505.733 327.212 505.581 327.548C505.429 327.876 505.369 328.276 505.401 328.748C505.361 329.188 505.421 329.572 505.581 329.9C505.749 330.228 505.981 330.484 506.277 330.668C506.581 330.852 506.925 330.944 507.309 330.944C507.701 330.944 508.033 330.856 508.305 330.68C508.585 330.504 508.805 330.276 508.965 329.996L510.069 330.536C509.941 330.84 509.741 331.116 509.469 331.364C509.205 331.604 508.885 331.796 508.509 331.94C508.141 332.076 507.737 332.144 507.297 332.144ZM514.74 334.64C514.268 334.64 513.832 334.564 513.432 334.412C513.032 334.26 512.688 334.048 512.4 333.776C512.112 333.512 511.896 333.2 511.752 332.84L513 332.324C513.112 332.628 513.316 332.88 513.612 333.08C513.916 333.28 514.288 333.38 514.728 333.38C515.072 333.38 515.38 333.312 515.652 333.176C515.924 333.048 516.14 332.856 516.3 332.6C516.46 332.352 516.54 332.052 516.54 331.7V330.236L516.78 330.512C516.556 330.928 516.244 331.244 515.844 331.46C515.452 331.676 515.008 331.784 514.512 331.784C513.912 331.784 513.372 331.644 512.892 331.364C512.412 331.084 512.032 330.7 511.752 330.212C511.48 329.724 511.344 329.176 511.344 328.568C511.344 327.952 511.48 327.404 511.752 326.924C512.032 326.444 512.408 326.064 512.88 325.784C513.352 325.504 513.892 325.364 514.5 325.364C514.996 325.364 515.436 325.472 515.82 325.688C516.212 325.896 516.532 326.2 516.78 326.6L516.6 326.936V325.508H517.884V331.7C517.884 332.26 517.748 332.76 517.476 333.2C517.212 333.648 516.844 334 516.372 334.256C515.9 334.512 515.356 334.64 514.74 334.64ZM514.668 330.524C515.028 330.524 515.348 330.44 515.628 330.272C515.908 330.096 516.128 329.864 516.288 329.576C516.456 329.28 516.54 328.948 516.54 328.58C516.54 328.212 516.456 327.88 516.288 327.584C516.12 327.288 515.896 327.056 515.616 326.888C515.336 326.712 515.02 326.624 514.668 326.624C514.3 326.624 513.972 326.712 513.684 326.888C513.396 327.056 513.168 327.288 513 327.584C512.84 327.872 512.76 328.204 512.76 328.58C512.76 328.94 512.84 329.268 513 329.564C513.168 329.86 513.396 330.096 513.684 330.272C513.972 330.44 514.3 330.524 514.668 330.524ZM521.788 332.144C521.3 332.144 520.872 332.036 520.504 331.82C520.136 331.596 519.848 331.288 519.64 330.896C519.44 330.496 519.34 330.036 519.34 329.516V325.508H520.696V329.396C520.696 329.692 520.756 329.952 520.876 330.176C520.996 330.4 521.164 330.576 521.38 330.704C521.596 330.824 521.844 330.884 522.124 330.884C522.412 330.884 522.664 330.82 522.88 330.692C523.096 330.564 523.264 330.384 523.384 330.152C523.512 329.92 523.576 329.648 523.576 329.336V325.508H524.92V332H523.636V330.728L523.78 330.896C523.628 331.296 523.376 331.604 523.024 331.82C522.672 332.036 522.26 332.144 521.788 332.144ZM526.503 332V322.916H527.859V332H526.503ZM531.388 332.144C530.948 332.144 530.56 332.068 530.224 331.916C529.896 331.756 529.64 331.54 529.456 331.268C529.272 330.988 529.18 330.66 529.18 330.284C529.18 329.932 529.256 329.616 529.408 329.336C529.568 329.056 529.812 328.82 530.14 328.628C530.468 328.436 530.88 328.3 531.376 328.22L533.632 327.848V328.916L531.64 329.264C531.28 329.328 531.016 329.444 530.848 329.612C530.68 329.772 530.596 329.98 530.596 330.236C530.596 330.484 530.688 330.688 530.872 330.848C531.064 331 531.308 331.076 531.604 331.076C531.972 331.076 532.292 330.996 532.564 330.836C532.844 330.676 533.06 330.464 533.212 330.2C533.364 329.928 533.44 329.628 533.44 329.3V327.632C533.44 327.312 533.32 327.052 533.08 326.852C532.848 326.644 532.536 326.54 532.144 326.54C531.784 326.54 531.468 326.636 531.196 326.828C530.932 327.012 530.736 327.252 530.608 327.548L529.48 326.984C529.6 326.664 529.796 326.384 530.068 326.144C530.34 325.896 530.656 325.704 531.016 325.568C531.384 325.432 531.772 325.364 532.18 325.364C532.692 325.364 533.144 325.46 533.536 325.652C533.936 325.844 534.244 326.112 534.46 326.456C534.684 326.792 534.796 327.184 534.796 327.632V332H533.5V330.824L533.776 330.86C533.624 331.124 533.428 331.352 533.188 331.544C532.956 331.736 532.688 331.884 532.384 331.988C532.088 332.092 531.756 332.144 531.388 332.144ZM536.382 332V325.508H537.678V326.816L537.558 326.624C537.702 326.2 537.934 325.896 538.254 325.712C538.574 325.52 538.958 325.424 539.406 325.424H539.802V326.66H539.238C538.79 326.66 538.426 326.8 538.146 327.08C537.874 327.352 537.738 327.744 537.738 328.256V332H536.382Z" fill="#DBDBDB"/>
<path d="M488.301 390V382.26H486.585V381.06H489.705V390H488.301ZM495.617 390V387.984H491.357V386.808L495.557 381.06H496.961V386.808H498.197V387.984H496.961V390H495.617ZM492.401 387.324L492.173 386.808H495.617V382.188L496.001 382.308L492.401 387.324ZM499.786 391.764V391.104C500.05 391.04 500.254 390.916 500.398 390.732C500.542 390.556 500.63 390.312 500.662 390H500.026V388.44H501.406V389.46C501.406 390.1 501.27 390.616 500.998 391.008C500.726 391.4 500.322 391.652 499.786 391.764ZM505.606 390V381.06H509.374C509.934 381.06 510.418 381.16 510.826 381.36C511.234 381.552 511.546 381.832 511.762 382.2C511.978 382.56 512.086 382.988 512.086 383.484C512.086 383.916 511.974 384.312 511.75 384.672C511.534 385.024 511.194 385.304 510.73 385.512V384.912C511.138 385.072 511.47 385.276 511.726 385.524C511.982 385.764 512.166 386.036 512.278 386.34C512.398 386.644 512.458 386.964 512.458 387.3C512.458 388.14 512.182 388.8 511.63 389.28C511.086 389.76 510.338 390 509.386 390H505.606ZM507.022 388.74H509.494C509.966 388.74 510.342 388.612 510.622 388.356C510.902 388.092 511.042 387.744 511.042 387.312C511.042 386.872 510.902 386.524 510.622 386.268C510.342 386.004 509.966 385.872 509.494 385.872H507.022V388.74ZM507.022 384.624H509.41C509.794 384.624 510.102 384.516 510.334 384.3C510.566 384.076 510.682 383.784 510.682 383.424C510.682 383.064 510.566 382.784 510.334 382.584C510.102 382.384 509.794 382.284 509.41 382.284H507.022V384.624ZM516.914 390.144C516.29 390.144 515.718 389.996 515.198 389.7C514.686 389.404 514.278 389 513.974 388.488C513.67 387.976 513.518 387.396 513.518 386.748C513.518 386.092 513.67 385.512 513.974 385.008C514.278 384.496 514.686 384.096 515.198 383.808C515.71 383.512 516.282 383.364 516.914 383.364C517.554 383.364 518.126 383.512 518.63 383.808C519.142 384.096 519.546 384.496 519.842 385.008C520.146 385.512 520.298 386.092 520.298 386.748C520.298 387.404 520.146 387.988 519.842 388.5C519.538 389.012 519.13 389.416 518.618 389.712C518.106 390 517.538 390.144 516.914 390.144ZM516.914 388.884C517.298 388.884 517.638 388.792 517.934 388.608C518.23 388.424 518.462 388.172 518.63 387.852C518.806 387.524 518.894 387.156 518.894 386.748C518.894 386.34 518.806 385.976 518.63 385.656C518.462 385.336 518.23 385.084 517.934 384.9C517.638 384.716 517.298 384.624 516.914 384.624C516.538 384.624 516.198 384.716 515.894 384.9C515.598 385.084 515.362 385.336 515.186 385.656C515.018 385.976 514.934 386.34 514.934 386.748C514.934 387.156 515.018 387.524 515.186 387.852C515.362 388.172 515.598 388.424 515.894 388.608C516.198 388.792 516.538 388.884 516.914 388.884ZM521.622 390V380.916H522.978V390H521.622ZM527.563 390.144C526.939 390.144 526.379 389.996 525.883 389.7C525.395 389.396 525.007 388.988 524.719 388.476C524.439 387.964 524.299 387.388 524.299 386.748C524.299 386.108 524.443 385.532 524.731 385.02C525.019 384.508 525.407 384.104 525.895 383.808C526.383 383.512 526.935 383.364 527.551 383.364C528.071 383.364 528.531 383.468 528.931 383.676C529.331 383.884 529.647 384.172 529.879 384.54L529.675 384.852V380.916H531.019V390H529.735V388.68L529.891 388.932C529.667 389.324 529.347 389.624 528.931 389.832C528.515 390.04 528.059 390.144 527.563 390.144ZM527.695 388.884C528.071 388.884 528.407 388.792 528.703 388.608C529.007 388.424 529.243 388.172 529.411 387.852C529.587 387.524 529.675 387.156 529.675 386.748C529.675 386.34 529.587 385.976 529.411 385.656C529.243 385.336 529.007 385.084 528.703 384.9C528.407 384.716 528.071 384.624 527.695 384.624C527.319 384.624 526.979 384.716 526.675 384.9C526.371 385.084 526.135 385.336 525.967 385.656C525.799 385.976 525.715 386.34 525.715 386.748C525.715 387.156 525.799 387.524 525.967 387.852C526.135 388.172 526.367 388.424 526.663 388.608C526.967 388.792 527.311 388.884 527.695 388.884Z" fill="#DBDBDB"/>
<path d="M478.423 461V453.26H476.707V452.06H479.827V461H478.423ZM485.738 461V458.984H481.478V457.808L485.678 452.06H487.082V457.808H488.318V458.984H487.082V461H485.738ZM482.522 458.324L482.294 457.808H485.738V453.188L486.122 453.308L482.522 458.324ZM489.908 462.764V462.104C490.172 462.04 490.376 461.916 490.52 461.732C490.664 461.556 490.752 461.312 490.784 461H490.148V459.44H491.528V460.46C491.528 461.1 491.392 461.616 491.12 462.008C490.848 462.4 490.444 462.652 489.908 462.764ZM495.727 461V452.06H497.047L500.407 456.716H499.747L503.047 452.06H504.367V461H502.963V453.728L503.491 453.872L500.119 458.48H499.975L496.675 453.872L497.143 453.728V461H495.727ZM509.131 461.144C508.483 461.144 507.907 460.996 507.403 460.7C506.907 460.396 506.519 459.988 506.239 459.476C505.959 458.956 505.819 458.376 505.819 457.736C505.819 457.08 505.959 456.5 506.239 455.996C506.527 455.492 506.911 455.096 507.391 454.808C507.871 454.512 508.415 454.364 509.023 454.364C509.511 454.364 509.947 454.448 510.331 454.616C510.715 454.784 511.039 455.016 511.303 455.312C511.567 455.6 511.767 455.932 511.903 456.308C512.047 456.684 512.119 457.084 512.119 457.508C512.119 457.612 512.115 457.72 512.107 457.832C512.099 457.944 512.083 458.048 512.059 458.144H506.887V457.064H511.291L510.643 457.556C510.723 457.164 510.695 456.816 510.559 456.512C510.431 456.2 510.231 455.956 509.959 455.78C509.695 455.596 509.383 455.504 509.023 455.504C508.663 455.504 508.343 455.596 508.063 455.78C507.783 455.956 507.567 456.212 507.415 456.548C507.263 456.876 507.203 457.276 507.235 457.748C507.195 458.188 507.255 458.572 507.415 458.9C507.583 459.228 507.815 459.484 508.111 459.668C508.415 459.852 508.759 459.944 509.143 459.944C509.535 459.944 509.867 459.856 510.139 459.68C510.419 459.504 510.639 459.276 510.799 458.996L511.903 459.536C511.775 459.84 511.575 460.116 511.303 460.364C511.039 460.604 510.719 460.796 510.343 460.94C509.975 461.076 509.571 461.144 509.131 461.144ZM516.442 461.144C515.818 461.144 515.258 460.996 514.762 460.7C514.274 460.396 513.886 459.988 513.598 459.476C513.318 458.964 513.178 458.388 513.178 457.748C513.178 457.108 513.322 456.532 513.61 456.02C513.898 455.508 514.286 455.104 514.774 454.808C515.262 454.512 515.814 454.364 516.43 454.364C516.95 454.364 517.41 454.468 517.81 454.676C518.21 454.884 518.526 455.172 518.758 455.54L518.554 455.852V451.916H519.898V461H518.614V459.68L518.77 459.932C518.546 460.324 518.226 460.624 517.81 460.832C517.394 461.04 516.938 461.144 516.442 461.144ZM516.574 459.884C516.95 459.884 517.286 459.792 517.582 459.608C517.886 459.424 518.122 459.172 518.29 458.852C518.466 458.524 518.554 458.156 518.554 457.748C518.554 457.34 518.466 456.976 518.29 456.656C518.122 456.336 517.886 456.084 517.582 455.9C517.286 455.716 516.95 455.624 516.574 455.624C516.198 455.624 515.858 455.716 515.554 455.9C515.25 456.084 515.014 456.336 514.846 456.656C514.678 456.976 514.594 457.34 514.594 457.748C514.594 458.156 514.678 458.524 514.846 458.852C515.014 459.172 515.246 459.424 515.542 459.608C515.846 459.792 516.19 459.884 516.574 459.884ZM521.481 461V454.508H522.837V461H521.481ZM521.481 453.62V452.06H522.837V453.62H521.481ZM526.739 461.144C526.251 461.144 525.823 461.036 525.455 460.82C525.087 460.596 524.799 460.288 524.591 459.896C524.391 459.496 524.291 459.036 524.291 458.516V454.508H525.647V458.396C525.647 458.692 525.707 458.952 525.827 459.176C525.947 459.4 526.115 459.576 526.331 459.704C526.547 459.824 526.795 459.884 527.075 459.884C527.363 459.884 527.615 459.82 527.831 459.692C528.047 459.564 528.215 459.384 528.335 459.152C528.463 458.92 528.527 458.648 528.527 458.336V454.508H529.871V461H528.587V459.728L528.731 459.896C528.579 460.296 528.327 460.604 527.975 460.82C527.623 461.036 527.211 461.144 526.739 461.144ZM531.454 461V454.508H532.75V455.912L532.582 455.696C532.718 455.256 532.966 454.924 533.326 454.7C533.686 454.476 534.098 454.364 534.562 454.364C535.082 454.364 535.542 454.504 535.942 454.784C536.35 455.056 536.622 455.42 536.758 455.876L536.374 455.912C536.566 455.392 536.858 455.004 537.25 454.748C537.65 454.492 538.106 454.364 538.618 454.364C539.066 454.364 539.47 454.468 539.83 454.676C540.198 454.884 540.49 455.172 540.706 455.54C540.922 455.908 541.03 456.328 541.03 456.8V461H539.674V457.172C539.674 456.844 539.614 456.568 539.494 456.344C539.382 456.112 539.222 455.936 539.014 455.816C538.814 455.688 538.578 455.624 538.306 455.624C538.034 455.624 537.794 455.688 537.586 455.816C537.378 455.936 537.214 456.112 537.094 456.344C536.974 456.576 536.914 456.852 536.914 457.172V461H535.57V457.172C535.57 456.844 535.51 456.568 535.39 456.344C535.278 456.112 535.118 455.936 534.91 455.816C534.71 455.688 534.47 455.624 534.19 455.624C533.918 455.624 533.678 455.688 533.47 455.816C533.262 455.936 533.098 456.112 532.978 456.344C532.866 456.576 532.81 456.852 532.81 457.172V461H531.454Z" fill="#DBDBDB"/>
<path d="M478.507 601V593.26H476.791V592.06H479.911V601H478.507ZM485.402 601.144C484.69 601.144 484.066 600.952 483.53 600.568C482.994 600.176 482.574 599.636 482.27 598.948C481.974 598.252 481.826 597.444 481.826 596.524C481.826 595.596 481.974 594.788 482.27 594.1C482.574 593.412 482.99 592.876 483.518 592.492C484.054 592.108 484.678 591.916 485.39 591.916C486.102 591.916 486.722 592.108 487.25 592.492C487.786 592.876 488.202 593.416 488.498 594.112C488.802 594.8 488.954 595.604 488.954 596.524C488.954 597.444 488.806 598.252 488.51 598.948C488.214 599.636 487.798 600.176 487.262 600.568C486.734 600.952 486.114 601.144 485.402 601.144ZM485.402 599.848C485.842 599.848 486.222 599.712 486.542 599.44C486.862 599.168 487.11 598.784 487.286 598.288C487.462 597.792 487.55 597.204 487.55 596.524C487.55 595.844 487.462 595.256 487.286 594.76C487.11 594.264 486.862 593.88 486.542 593.608C486.222 593.336 485.838 593.2 485.39 593.2C484.95 593.2 484.57 593.336 484.25 593.608C483.93 593.88 483.682 594.264 483.506 594.76C483.33 595.256 483.242 595.844 483.242 596.524C483.242 597.196 483.33 597.784 483.506 598.288C483.682 598.784 483.93 599.168 484.25 599.44C484.578 599.712 484.962 599.848 485.402 599.848ZM490.824 602.764V602.104C491.088 602.04 491.292 601.916 491.436 601.732C491.58 601.556 491.668 601.312 491.7 601H491.064V599.44H492.444V600.46C492.444 601.1 492.308 601.616 492.036 602.008C491.764 602.4 491.36 602.652 490.824 602.764ZM496.643 601V592.06H497.963L501.323 596.716H500.663L503.963 592.06H505.283V601H503.879V593.728L504.407 593.872L501.035 598.48H500.891L497.591 593.872L498.059 593.728V601H496.643ZM510.047 601.144C509.399 601.144 508.823 600.996 508.319 600.7C507.823 600.396 507.435 599.988 507.155 599.476C506.875 598.956 506.735 598.376 506.735 597.736C506.735 597.08 506.875 596.5 507.155 595.996C507.443 595.492 507.827 595.096 508.307 594.808C508.787 594.512 509.331 594.364 509.939 594.364C510.427 594.364 510.863 594.448 511.247 594.616C511.631 594.784 511.955 595.016 512.219 595.312C512.483 595.6 512.683 595.932 512.819 596.308C512.963 596.684 513.035 597.084 513.035 597.508C513.035 597.612 513.031 597.72 513.023 597.832C513.015 597.944 512.999 598.048 512.975 598.144H507.803V597.064H512.207L511.559 597.556C511.639 597.164 511.611 596.816 511.475 596.512C511.347 596.2 511.147 595.956 510.875 595.78C510.611 595.596 510.299 595.504 509.939 595.504C509.579 595.504 509.259 595.596 508.979 595.78C508.699 595.956 508.483 596.212 508.331 596.548C508.179 596.876 508.119 597.276 508.151 597.748C508.111 598.188 508.171 598.572 508.331 598.9C508.499 599.228 508.731 599.484 509.027 599.668C509.331 599.852 509.675 599.944 510.059 599.944C510.451 599.944 510.783 599.856 511.055 599.68C511.335 599.504 511.555 599.276 511.715 598.996L512.819 599.536C512.691 599.84 512.491 600.116 512.219 600.364C511.955 600.604 511.635 600.796 511.259 600.94C510.891 601.076 510.487 601.144 510.047 601.144ZM517.358 601.144C516.734 601.144 516.174 600.996 515.678 600.7C515.19 600.396 514.802 599.988 514.514 599.476C514.234 598.964 514.094 598.388 514.094 597.748C514.094 597.108 514.238 596.532 514.526 596.02C514.814 595.508 515.202 595.104 515.69 594.808C516.178 594.512 516.73 594.364 517.346 594.364C517.866 594.364 518.326 594.468 518.726 594.676C519.126 594.884 519.442 595.172 519.674 595.54L519.47 595.852V591.916H520.814V601H519.53V599.68L519.686 599.932C519.462 600.324 519.142 600.624 518.726 600.832C518.31 601.04 517.854 601.144 517.358 601.144ZM517.49 599.884C517.866 599.884 518.202 599.792 518.498 599.608C518.802 599.424 519.038 599.172 519.206 598.852C519.382 598.524 519.47 598.156 519.47 597.748C519.47 597.34 519.382 596.976 519.206 596.656C519.038 596.336 518.802 596.084 518.498 595.9C518.202 595.716 517.866 595.624 517.49 595.624C517.114 595.624 516.774 595.716 516.47 595.9C516.166 596.084 515.93 596.336 515.762 596.656C515.594 596.976 515.51 597.34 515.51 597.748C515.51 598.156 515.594 598.524 515.762 598.852C515.93 599.172 516.162 599.424 516.458 599.608C516.762 599.792 517.106 599.884 517.49 599.884ZM522.397 601V594.508H523.753V601H522.397ZM522.397 593.62V592.06H523.753V593.62H522.397ZM527.655 601.144C527.167 601.144 526.739 601.036 526.371 600.82C526.003 600.596 525.715 600.288 525.507 599.896C525.307 599.496 525.207 599.036 525.207 598.516V594.508H526.563V598.396C526.563 598.692 526.623 598.952 526.743 599.176C526.863 599.4 527.031 599.576 527.247 599.704C527.463 599.824 527.711 599.884 527.991 599.884C528.279 599.884 528.531 599.82 528.747 599.692C528.963 599.564 529.131 599.384 529.251 599.152C529.379 598.92 529.443 598.648 529.443 598.336V594.508H530.787V601H529.503V599.728L529.647 599.896C529.495 600.296 529.243 600.604 528.891 600.82C528.539 601.036 528.127 601.144 527.655 601.144ZM532.37 601V594.508H533.666V595.912L533.498 595.696C533.634 595.256 533.882 594.924 534.242 594.7C534.602 594.476 535.014 594.364 535.478 594.364C535.998 594.364 536.458 594.504 536.858 594.784C537.266 595.056 537.538 595.42 537.674 595.876L537.29 595.912C537.482 595.392 537.774 595.004 538.166 594.748C538.566 594.492 539.022 594.364 539.534 594.364C539.982 594.364 540.386 594.468 540.746 594.676C541.114 594.884 541.406 595.172 541.622 595.54C541.838 595.908 541.946 596.328 541.946 596.8V601H540.59V597.172C540.59 596.844 540.53 596.568 540.41 596.344C540.298 596.112 540.138 595.936 539.93 595.816C539.73 595.688 539.494 595.624 539.222 595.624C538.95 595.624 538.71 595.688 538.502 595.816C538.294 595.936 538.13 596.112 538.01 596.344C537.89 596.576 537.83 596.852 537.83 597.172V601H536.486V597.172C536.486 596.844 536.426 596.568 536.306 596.344C536.194 596.112 536.034 595.936 535.826 595.816C535.626 595.688 535.386 595.624 535.106 595.624C534.834 595.624 534.594 595.688 534.386 595.816C534.178 595.936 534.014 596.112 533.894 596.344C533.782 596.576 533.726 596.852 533.726 597.172V601H532.37Z" fill="#DBDBDB"/>
<path d="M17.6488 406.144C17.1688 406.144 16.7168 406.056 16.2928 405.88C15.8768 405.704 15.5168 405.456 15.2128 405.136C14.9168 404.816 14.7048 404.44 14.5768 404.008L15.7768 403.552C15.9368 403.976 16.1808 404.304 16.5088 404.536C16.8368 404.768 17.2168 404.884 17.6488 404.884C18.0008 404.884 18.3048 404.816 18.5608 404.68C18.8248 404.544 19.0288 404.352 19.1728 404.104C19.3248 403.856 19.4008 403.556 19.4008 403.204C19.4008 402.86 19.3248 402.564 19.1728 402.316C19.0288 402.068 18.8248 401.88 18.5608 401.752C18.3048 401.624 18.0008 401.56 17.6488 401.56C17.5048 401.56 17.3568 401.572 17.2048 401.596C17.0608 401.62 16.9328 401.652 16.8208 401.692L16.5088 401.032L18.8608 398.26H15.0568V397.06H20.4448V398.2L18.1408 400.96L18.1048 400.504C18.6408 400.512 19.1128 400.632 19.5208 400.864C19.9288 401.088 20.2448 401.4 20.4688 401.8C20.7008 402.192 20.8168 402.648 20.8168 403.168C20.8168 403.728 20.6808 404.236 20.4088 404.692C20.1368 405.14 19.7608 405.496 19.2808 405.76C18.8088 406.016 18.2648 406.144 17.6488 406.144ZM22.0688 406V404.98L24.5168 402.364C24.9968 401.852 25.3728 401.44 25.6448 401.128C25.9248 400.808 26.1248 400.528 26.2448 400.288C26.3728 400.048 26.4368 399.796 26.4368 399.532C26.4368 399.1 26.3048 398.768 26.0408 398.536C25.7768 398.296 25.4368 398.176 25.0208 398.176C24.5888 398.176 24.2168 398.3 23.9048 398.548C23.5928 398.788 23.3768 399.14 23.2568 399.604L22.0088 399.244C22.1048 398.772 22.2968 398.364 22.5848 398.02C22.8728 397.668 23.2248 397.396 23.6408 397.204C24.0648 397.012 24.5208 396.916 25.0088 396.916C25.5768 396.916 26.0728 397.024 26.4968 397.24C26.9208 397.448 27.2488 397.74 27.4808 398.116C27.7208 398.492 27.8408 398.928 27.8408 399.424C27.8408 399.752 27.7768 400.072 27.6488 400.384C27.5288 400.688 27.3408 401.012 27.0848 401.356C26.8288 401.692 26.5008 402.072 26.1008 402.496L23.9408 404.8H28.0088V406H22.0688ZM29.4326 408.4V399.508H30.7286V400.852L30.5726 400.54C30.8126 400.172 31.1326 399.884 31.5326 399.676C31.9326 399.468 32.3886 399.364 32.9006 399.364C33.5166 399.364 34.0686 399.512 34.5566 399.808C35.0526 400.104 35.4406 400.508 35.7206 401.02C36.0086 401.532 36.1526 402.108 36.1526 402.748C36.1526 403.388 36.0086 403.964 35.7206 404.476C35.4406 404.988 35.0566 405.396 34.5686 405.7C34.0806 405.996 33.5246 406.144 32.9006 406.144C32.3966 406.144 31.9366 406.04 31.5206 405.832C31.1126 405.624 30.7966 405.324 30.5726 404.932L30.7886 404.68V408.4H29.4326ZM32.7686 404.884C33.1526 404.884 33.4926 404.792 33.7886 404.608C34.0846 404.424 34.3166 404.172 34.4846 403.852C34.6606 403.524 34.7486 403.156 34.7486 402.748C34.7486 402.34 34.6606 401.976 34.4846 401.656C34.3166 401.336 34.0846 401.084 33.7886 400.9C33.4926 400.716 33.1526 400.624 32.7686 400.624C32.3926 400.624 32.0526 400.716 31.7486 400.9C31.4526 401.084 31.2166 401.336 31.0406 401.656C30.8726 401.976 30.7886 402.34 30.7886 402.748C30.7886 403.156 30.8726 403.524 31.0406 403.852C31.2166 404.172 31.4526 404.424 31.7486 404.608C32.0526 404.792 32.3926 404.884 32.7686 404.884ZM36.5893 406L38.8573 402.748L36.5893 399.508H38.1853L40.0453 402.22H39.2773L41.1373 399.508H42.7333L40.4533 402.748L42.7213 406H41.1253L39.2893 403.276H40.0333L38.1853 406H36.5893Z" fill="#DBDBDB"/>
<rect x="71" y="183" width="378" height="18" fill="#5870DC" fill-opacity="0.44" stroke="#5870DC" stroke-width="2" stroke-dasharray="4 4"/>
<rect x="71" y="15" width="378" height="12" fill="#DC588F" fill-opacity="0.44" stroke="#DC588F" stroke-width="2" stroke-dasharray="4 4"/>
<rect x="71" y="429" width="378" height="12" fill="#DC588F" fill-opacity="0.44" stroke="#DC588F" stroke-width="2" stroke-dasharray="4 4"/>
<rect x="70.5" y="536.5" width="379" height="5" fill="#298B50" fill-opacity="0.44" stroke="#298B50" stroke-dasharray="4 4"/>
<rect x="70.5" y="502.5" width="379" height="5" fill="#298B50" fill-opacity="0.44" stroke="#298B50" stroke-dasharray="4 4"/>
<rect x="70.5" y="468.5" width="379" height="5" fill="#298B50" fill-opacity="0.44" stroke="#298B50" stroke-dasharray="4 4"/>
<rect x="71" y="304" width="378" height="18" fill="#5870DC" fill-opacity="0.44" stroke="#5870DC" stroke-width="2" stroke-dasharray="4 4"/>
<rect x="71" y="347" width="378" height="18" fill="#5870DC" fill-opacity="0.44" stroke="#5870DC" stroke-width="2" stroke-dasharray="4 4"/>
<rect x="71" y="237" width="378" height="24" fill="#D158DC" fill-opacity="0.44" stroke="#D158DC" stroke-width="2" stroke-dasharray="4 4"/>
<rect x="71" y="393" width="378" height="24" fill="#D158DC" fill-opacity="0.44" stroke="#D158DC" stroke-width="2" stroke-dasharray="4 4"/>
<path d="M62 183V201M67 201H57.5M67 183H57.5" stroke="#5870DC" stroke-width="2" stroke-linecap="round"/>
<path d="M62.2632 15V27M67 27H58M67 15H58" stroke="#DC588F" stroke-width="2" stroke-linecap="round"/>
<path d="M62.2632 429V441M67 441H58M67 429H58" stroke="#DC588F" stroke-width="2" stroke-linecap="round"/>
<path d="M62.2632 537V541M67 541H58M67 537H58" stroke="#298B50" stroke-linecap="round"/>
<path d="M62.2632 503V507M67 507H58M67 503H58" stroke="#298B50" stroke-linecap="round"/>
<path d="M62.2632 469V473M67 473H58M67 469H58" stroke="#298B50" stroke-linecap="round"/>
<path d="M62 304V322M67 322H57.5M67 304H57.5" stroke="#5870DC" stroke-width="2" stroke-linecap="round"/>
<path d="M62 347V365M67 365H57.5M67 347H57.5" stroke="#5870DC" stroke-width="2" stroke-linecap="round"/>
<path d="M62.2632 237V261M67 261H58M67 237H58" stroke="#D158DC" stroke-width="2" stroke-linecap="round"/>
<path d="M62.2632 393V417M67 417H58M67 393H58" stroke="#D158DC" stroke-width="2" stroke-linecap="round"/>
<path d="M245 269H457M245 269L249 273M245 269L249 265" stroke="#D4D4D5" stroke-width="2" stroke-linecap="round" stroke-linejoin="round"/>
<path d="M393 219H457M393 219L396 222M393 219L396 216" stroke="#D4D4D5" stroke-width="2" stroke-linecap="round" stroke-linejoin="round"/>
<path d="M329 328H457M329 328L332.5 331.5M329 328L332.5 324.5" stroke="#D4D4D5" stroke-width="2" stroke-linecap="round" stroke-linejoin="round"/>
<path d="M400 386.5H457M400 386.5L403 389.5M400 386.5L403 383.5" stroke="#D4D4D5" stroke-width="2" stroke-linecap="round" stroke-linejoin="round"/>
<path d="M298 458H457M298 458L301 461M298 458L301 455" stroke="#D4D4D5" stroke-width="2" stroke-linecap="round" stroke-linejoin="round"/>
<path d="M429 598H457M429 598L431.5 600.5M429 598L431.5 595.5" stroke="#D4D4D5" stroke-width="2" stroke-linecap="round" stroke-linejoin="round"/>
<defs>
<filter id="filter0_dd_630_3" x="0" y="292" width="56" height="42" filterUnits="userSpaceOnUse" color-interpolation-filters="sRGB">
<feFlood flood-opacity="0" result="BackgroundImageFix"/>
<feColorMatrix in="SourceAlpha" type="matrix" values="0 0 0 0 0 0 0 0 0 0 0 0 0 0 0 0 0 0 127 0" result="hardAlpha"/>
<feOffset dx="2" dy="2"/>
<feGaussianBlur stdDeviation="2"/>
<feComposite in2="hardAlpha" operator="out"/>
<feColorMatrix type="matrix" values="0 0 0 0 0.0588235 0 0 0 0 0.0627451 0 0 0 0 0.0705882 0 0 0 1 0"/>
<feBlend mode="normal" in2="BackgroundImageFix" result="effect1_dropShadow_630_3"/>
<feColorMatrix in="SourceAlpha" type="matrix" values="0 0 0 0 0 0 0 0 0 0 0 0 0 0 0 0 0 0 127 0" result="hardAlpha"/>
<feOffset dx="-2" dy="-2"/>
<feGaussianBlur stdDeviation="2"/>
<feComposite in2="hardAlpha" operator="out"/>
<feColorMatrix type="matrix" values="0 0 0 0 0.239216 0 0 0 0 0.243137 0 0 0 0 0.27451 0 0 0 0.6 0"/>
<feBlend mode="normal" in2="effect1_dropShadow_630_3" result="effect2_dropShadow_630_3"/>
<feBlend mode="normal" in="SourceGraphic" in2="effect2_dropShadow_630_3" result="shape"/>
</filter>
<filter id="filter1_dd_630_3" x="0" y="171" width="56" height="42" filterUnits="userSpaceOnUse" color-interpolation-filters="sRGB">
<feFlood flood-opacity="0" result="BackgroundImageFix"/>
<feColorMatrix in="SourceAlpha" type="matrix" values="0 0 0 0 0 0 0 0 0 0 0 0 0 0 0 0 0 0 127 0" result="hardAlpha"/>
<feOffset dx="2" dy="2"/>
<feGaussianBlur stdDeviation="2"/>
<feComposite in2="hardAlpha" operator="out"/>
<feColorMatrix type="matrix" values="0 0 0 0 0.0588235 0 0 0 0 0.0627451 0 0 0 0 0.0705882 0 0 0 1 0"/>
<feBlend mode="normal" in2="BackgroundImageFix" result="effect1_dropShadow_630_3"/>
<feColorMatrix in="SourceAlpha" type="matrix" values="0 0 0 0 0 0 0 0 0 0 0 0 0 0 0 0 0 0 127 0" result="hardAlpha"/>
<feOffset dx="-2" dy="-2"/>
<feGaussianBlur stdDeviation="2"/>
<feComposite in2="hardAlpha" operator="out"/>
<feColorMatrix type="matrix" values="0 0 0 0 0.239216 0 0 0 0 0.243137 0 0 0 0 0.27451 0 0 0 0.6 0"/>
<feBlend mode="normal" in2="effect1_dropShadow_630_3" result="effect2_dropShadow_630_3"/>
<feBlend mode="normal" in="SourceGraphic" in2="effect2_dropShadow_630_3" result="shape"/>
</filter>
<filter id="filter2_dd_630_3" x="0" y="0" width="56" height="42" filterUnits="userSpaceOnUse" color-interpolation-filters="sRGB">
<feFlood flood-opacity="0" result="BackgroundImageFix"/>
<feColorMatrix in="SourceAlpha" type="matrix" values="0 0 0 0 0 0 0 0 0 0 0 0 0 0 0 0 0 0 127 0" result="hardAlpha"/>
<feOffset dx="2" dy="2"/>
<feGaussianBlur stdDeviation="2"/>
<feComposite in2="hardAlpha" operator="out"/>
<feColorMatrix type="matrix" values="0 0 0 0 0.0588235 0 0 0 0 0.0627451 0 0 0 0 0.0705882 0 0 0 1 0"/>
<feBlend mode="normal" in2="BackgroundImageFix" result="effect1_dropShadow_630_3"/>
<feColorMatrix in="SourceAlpha" type="matrix" values="0 0 0 0 0 0 0 0 0 0 0 0 0 0 0 0 0 0 127 0" result="hardAlpha"/>
<feOffset dx="-2" dy="-2"/>
<feGaussianBlur stdDeviation="2"/>
<feComposite in2="hardAlpha" operator="out"/>
<feColorMatrix type="matrix" values="0 0 0 0 0.239216 0 0 0 0 0.243137 0 0 0 0 0.27451 0 0 0 0.6 0"/>
<feBlend mode="normal" in2="effect1_dropShadow_630_3" result="effect2_dropShadow_630_3"/>
<feBlend mode="normal" in="SourceGraphic" in2="effect2_dropShadow_630_3" result="shape"/>
</filter>
<filter id="filter3_dd_630_3" x="0" y="414" width="56" height="42" filterUnits="userSpaceOnUse" color-interpolation-filters="sRGB">
<feFlood flood-opacity="0" result="BackgroundImageFix"/>
<feColorMatrix in="SourceAlpha" type="matrix" values="0 0 0 0 0 0 0 0 0 0 0 0 0 0 0 0 0 0 127 0" result="hardAlpha"/>
<feOffset dx="2" dy="2"/>
<feGaussianBlur stdDeviation="2"/>
<feComposite in2="hardAlpha" operator="out"/>
<feColorMatrix type="matrix" values="0 0 0 0 0.0588235 0 0 0 0 0.0627451 0 0 0 0 0.0705882 0 0 0 1 0"/>
<feBlend mode="normal" in2="BackgroundImageFix" result="effect1_dropShadow_630_3"/>
<feColorMatrix in="SourceAlpha" type="matrix" values="0 0 0 0 0 0 0 0 0 0 0 0 0 0 0 0 0 0 127 0" result="hardAlpha"/>
<feOffset dx="-2" dy="-2"/>
<feGaussianBlur stdDeviation="2"/>
<feComposite in2="hardAlpha" operator="out"/>
<feColorMatrix type="matrix" values="0 0 0 0 0.239216 0 0 0 0 0.243137 0 0 0 0 0.27451 0 0 0 0.6 0"/>
<feBlend mode="normal" in2="effect1_dropShadow_630_3" result="effect2_dropShadow_630_3"/>
<feBlend mode="normal" in="SourceGraphic" in2="effect2_dropShadow_630_3" result="shape"/>
</filter>
<filter id="filter4_dd_630_3" x="0" y="518" width="56" height="42" filterUnits="userSpaceOnUse" color-interpolation-filters="sRGB">
<feFlood flood-opacity="0" result="BackgroundImageFix"/>
<feColorMatrix in="SourceAlpha" type="matrix" values="0 0 0 0 0 0 0 0 0 0 0 0 0 0 0 0 0 0 127 0" result="hardAlpha"/>
<feOffset dx="2" dy="2"/>
<feGaussianBlur stdDeviation="2"/>
<feComposite in2="hardAlpha" operator="out"/>
<feColorMatrix type="matrix" values="0 0 0 0 0.0588235 0 0 0 0 0.0627451 0 0 0 0 0.0705882 0 0 0 1 0"/>
<feBlend mode="normal" in2="BackgroundImageFix" result="effect1_dropShadow_630_3"/>
<feColorMatrix in="SourceAlpha" type="matrix" values="0 0 0 0 0 0 0 0 0 0 0 0 0 0 0 0 0 0 127 0" result="hardAlpha"/>
<feOffset dx="-2" dy="-2"/>
<feGaussianBlur stdDeviation="2"/>
<feComposite in2="hardAlpha" operator="out"/>
<feColorMatrix type="matrix" values="0 0 0 0 0.239216 0 0 0 0 0.243137 0 0 0 0 0.27451 0 0 0 0.6 0"/>
<feBlend mode="normal" in2="effect1_dropShadow_630_3" result="effect2_dropShadow_630_3"/>
<feBlend mode="normal" in="SourceGraphic" in2="effect2_dropShadow_630_3" result="shape"/>
</filter>
<filter id="filter5_dd_630_3" x="0" y="484" width="56" height="42" filterUnits="userSpaceOnUse" color-interpolation-filters="sRGB">
<feFlood flood-opacity="0" result="BackgroundImageFix"/>
<feColorMatrix in="SourceAlpha" type="matrix" values="0 0 0 0 0 0 0 0 0 0 0 0 0 0 0 0 0 0 127 0" result="hardAlpha"/>
<feOffset dx="2" dy="2"/>
<feGaussianBlur stdDeviation="2"/>
<feComposite in2="hardAlpha" operator="out"/>
<feColorMatrix type="matrix" values="0 0 0 0 0.0588235 0 0 0 0 0.0627451 0 0 0 0 0.0705882 0 0 0 1 0"/>
<feBlend mode="normal" in2="BackgroundImageFix" result="effect1_dropShadow_630_3"/>
<feColorMatrix in="SourceAlpha" type="matrix" values="0 0 0 0 0 0 0 0 0 0 0 0 0 0 0 0 0 0 127 0" result="hardAlpha"/>
<feOffset dx="-2" dy="-2"/>
<feGaussianBlur stdDeviation="2"/>
<feComposite in2="hardAlpha" operator="out"/>
<feColorMatrix type="matrix" values="0 0 0 0 0.239216 0 0 0 0 0.243137 0 0 0 0 0.27451 0 0 0 0.6 0"/>
<feBlend mode="normal" in2="effect1_dropShadow_630_3" result="effect2_dropShadow_630_3"/>
<feBlend mode="normal" in="SourceGraphic" in2="effect2_dropShadow_630_3" result="shape"/>
</filter>
<filter id="filter6_dd_630_3" x="0" y="450" width="56" height="42" filterUnits="userSpaceOnUse" color-interpolation-filters="sRGB">
<feFlood flood-opacity="0" result="BackgroundImageFix"/>
<feColorMatrix in="SourceAlpha" type="matrix" values="0 0 0 0 0 0 0 0 0 0 0 0 0 0 0 0 0 0 127 0" result="hardAlpha"/>
<feOffset dx="2" dy="2"/>
<feGaussianBlur stdDeviation="2"/>
<feComposite in2="hardAlpha" operator="out"/>
<feColorMatrix type="matrix" values="0 0 0 0 0.0588235 0 0 0 0 0.0627451 0 0 0 0 0.0705882 0 0 0 1 0"/>
<feBlend mode="normal" in2="BackgroundImageFix" result="effect1_dropShadow_630_3"/>
<feColorMatrix in="SourceAlpha" type="matrix" values="0 0 0 0 0 0 0 0 0 0 0 0 0 0 0 0 0 0 127 0" result="hardAlpha"/>
<feOffset dx="-2" dy="-2"/>
<feGaussianBlur stdDeviation="2"/>
<feComposite in2="hardAlpha" operator="out"/>
<feColorMatrix type="matrix" values="0 0 0 0 0.239216 0 0 0 0 0.243137 0 0 0 0 0.27451 0 0 0 0.6 0"/>
<feBlend mode="normal" in2="effect1_dropShadow_630_3" result="effect2_dropShadow_630_3"/>
<feBlend mode="normal" in="SourceGraphic" in2="effect2_dropShadow_630_3" result="shape"/>
</filter>
<filter id="filter7_dd_630_3" x="0" y="67" width="56" height="42" filterUnits="userSpaceOnUse" color-interpolation-filters="sRGB">
<feFlood flood-opacity="0" result="BackgroundImageFix"/>
<feColorMatrix in="SourceAlpha" type="matrix" values="0 0 0 0 0 0 0 0 0 0 0 0 0 0 0 0 0 0 127 0" result="hardAlpha"/>
<feOffset dx="2" dy="2"/>
<feGaussianBlur stdDeviation="2"/>
<feComposite in2="hardAlpha" operator="out"/>
<feColorMatrix type="matrix" values="0 0 0 0 0.0588235 0 0 0 0 0.0627451 0 0 0 0 0.0705882 0 0 0 1 0"/>
<feBlend mode="normal" in2="BackgroundImageFix" result="effect1_dropShadow_630_3"/>
<feColorMatrix in="SourceAlpha" type="matrix" values="0 0 0 0 0 0 0 0 0 0 0 0 0 0 0 0 0 0 127 0" result="hardAlpha"/>
<feOffset dx="-2" dy="-2"/>
<feGaussianBlur stdDeviation="2"/>
<feComposite in2="hardAlpha" operator="out"/>
<feColorMatrix type="matrix" values="0 0 0 0 0.239216 0 0 0 0 0.243137 0 0 0 0 0.27451 0 0 0 0.6 0"/>
<feBlend mode="normal" in2="effect1_dropShadow_630_3" result="effect2_dropShadow_630_3"/>
<feBlend mode="normal" in="SourceGraphic" in2="effect2_dropShadow_630_3" result="shape"/>
</filter>
<filter id="filter8_dd_630_3" x="0" y="335" width="56" height="42" filterUnits="userSpaceOnUse" color-interpolation-filters="sRGB">
<feFlood flood-opacity="0" result="BackgroundImageFix"/>
<feColorMatrix in="SourceAlpha" type="matrix" values="0 0 0 0 0 0 0 0 0 0 0 0 0 0 0 0 0 0 127 0" result="hardAlpha"/>
<feOffset dx="2" dy="2"/>
<feGaussianBlur stdDeviation="2"/>
<feComposite in2="hardAlpha" operator="out"/>
<feColorMatrix type="matrix" values="0 0 0 0 0.0588235 0 0 0 0 0.0627451 0 0 0 0 0.0705882 0 0 0 1 0"/>
<feBlend mode="normal" in2="BackgroundImageFix" result="effect1_dropShadow_630_3"/>
<feColorMatrix in="SourceAlpha" type="matrix" values="0 0 0 0 0 0 0 0 0 0 0 0 0 0 0 0 0 0 127 0" result="hardAlpha"/>
<feOffset dx="-2" dy="-2"/>
<feGaussianBlur stdDeviation="2"/>
<feComposite in2="hardAlpha" operator="out"/>
<feColorMatrix type="matrix" values="0 0 0 0 0.239216 0 0 0 0 0.243137 0 0 0 0 0.27451 0 0 0 0.6 0"/>
<feBlend mode="normal" in2="effect1_dropShadow_630_3" result="effect2_dropShadow_630_3"/>
<feBlend mode="normal" in="SourceGraphic" in2="effect2_dropShadow_630_3" result="shape"/>
</filter>
<filter id="filter9_dd_630_3" x="0" y="225" width="56" height="42" filterUnits="userSpaceOnUse" color-interpolation-filters="sRGB">
<feFlood flood-opacity="0" result="BackgroundImageFix"/>
<feColorMatrix in="SourceAlpha" type="matrix" values="0 0 0 0 0 0 0 0 0 0 0 0 0 0 0 0 0 0 127 0" result="hardAlpha"/>
<feOffset dx="2" dy="2"/>
<feGaussianBlur stdDeviation="2"/>
<feComposite in2="hardAlpha" operator="out"/>
<feColorMatrix type="matrix" values="0 0 0 0 0.0588235 0 0 0 0 0.0627451 0 0 0 0 0.0705882 0 0 0 1 0"/>
<feBlend mode="normal" in2="BackgroundImageFix" result="effect1_dropShadow_630_3"/>
<feColorMatrix in="SourceAlpha" type="matrix" values="0 0 0 0 0 0 0 0 0 0 0 0 0 0 0 0 0 0 127 0" result="hardAlpha"/>
<feOffset dx="-2" dy="-2"/>
<feGaussianBlur stdDeviation="2"/>
<feComposite in2="hardAlpha" operator="out"/>
<feColorMatrix type="matrix" values="0 0 0 0 0.239216 0 0 0 0 0.243137 0 0 0 0 0.27451 0 0 0 0.6 0"/>
<feBlend mode="normal" in2="effect1_dropShadow_630_3" result="effect2_dropShadow_630_3"/>
<feBlend mode="normal" in="SourceGraphic" in2="effect2_dropShadow_630_3" result="shape"/>
</filter>
<filter id="filter10_dd_630_3" x="459" y="248" width="99" height="42" filterUnits="userSpaceOnUse" color-interpolation-filters="sRGB">
<feFlood flood-opacity="0" result="BackgroundImageFix"/>
<feColorMatrix in="SourceAlpha" type="matrix" values="0 0 0 0 0 0 0 0 0 0 0 0 0 0 0 0 0 0 127 0" result="hardAlpha"/>
<feOffset dx="2" dy="2"/>
<feGaussianBlur stdDeviation="2"/>
<feComposite in2="hardAlpha" operator="out"/>
<feColorMatrix type="matrix" values="0 0 0 0 0.0588235 0 0 0 0 0.0627451 0 0 0 0 0.0705882 0 0 0 1 0"/>
<feBlend mode="normal" in2="BackgroundImageFix" result="effect1_dropShadow_630_3"/>
<feColorMatrix in="SourceAlpha" type="matrix" values="0 0 0 0 0 0 0 0 0 0 0 0 0 0 0 0 0 0 127 0" result="hardAlpha"/>
<feOffset dx="-2" dy="-2"/>
<feGaussianBlur stdDeviation="2"/>
<feComposite in2="hardAlpha" operator="out"/>
<feColorMatrix type="matrix" values="0 0 0 0 0.239216 0 0 0 0 0.243137 0 0 0 0 0.27451 0 0 0 0.6 0"/>
<feBlend mode="normal" in2="effect1_dropShadow_630_3" result="effect2_dropShadow_630_3"/>
<feBlend mode="normal" in="SourceGraphic" in2="effect2_dropShadow_630_3" result="shape"/>
</filter>
<filter id="filter11_dd_630_3" x="459" y="198" width="99" height="42" filterUnits="userSpaceOnUse" color-interpolation-filters="sRGB">
<feFlood flood-opacity="0" result="BackgroundImageFix"/>
<feColorMatrix in="SourceAlpha" type="matrix" values="0 0 0 0 0 0 0 0 0 0 0 0 0 0 0 0 0 0 127 0" result="hardAlpha"/>
<feOffset dx="2" dy="2"/>
<feGaussianBlur stdDeviation="2"/>
<feComposite in2="hardAlpha" operator="out"/>
<feColorMatrix type="matrix" values="0 0 0 0 0.0588235 0 0 0 0 0.0627451 0 0 0 0 0.0705882 0 0 0 1 0"/>
<feBlend mode="normal" in2="BackgroundImageFix" result="effect1_dropShadow_630_3"/>
<feColorMatrix in="SourceAlpha" type="matrix" values="0 0 0 0 0 0 0 0 0 0 0 0 0 0 0 0 0 0 127 0" result="hardAlpha"/>
<feOffset dx="-2" dy="-2"/>
<feGaussianBlur stdDeviation="2"/>
<feComposite in2="hardAlpha" operator="out"/>
<feColorMatrix type="matrix" values="0 0 0 0 0.239216 0 0 0 0 0.243137 0 0 0 0 0.27451 0 0 0 0.6 0"/>
<feBlend mode="normal" in2="effect1_dropShadow_630_3" result="effect2_dropShadow_630_3"/>
<feBlend mode="normal" in="SourceGraphic" in2="effect2_dropShadow_630_3" result="shape"/>
</filter>
<filter id="filter12_dd_630_3" x="459" y="307" width="99" height="42" filterUnits="userSpaceOnUse" color-interpolation-filters="sRGB">
<feFlood flood-opacity="0" result="BackgroundImageFix"/>
<feColorMatrix in="SourceAlpha" type="matrix" values="0 0 0 0 0 0 0 0 0 0 0 0 0 0 0 0 0 0 127 0" result="hardAlpha"/>
<feOffset dx="2" dy="2"/>
<feGaussianBlur stdDeviation="2"/>
<feComposite in2="hardAlpha" operator="out"/>
<feColorMatrix type="matrix" values="0 0 0 0 0.0588235 0 0 0 0 0.0627451 0 0 0 0 0.0705882 0 0 0 1 0"/>
<feBlend mode="normal" in2="BackgroundImageFix" result="effect1_dropShadow_630_3"/>
<feColorMatrix in="SourceAlpha" type="matrix" values="0 0 0 0 0 0 0 0 0 0 0 0 0 0 0 0 0 0 127 0" result="hardAlpha"/>
<feOffset dx="-2" dy="-2"/>
<feGaussianBlur stdDeviation="2"/>
<feComposite in2="hardAlpha" operator="out"/>
<feColorMatrix type="matrix" values="0 0 0 0 0.239216 0 0 0 0 0.243137 0 0 0 0 0.27451 0 0 0 0.6 0"/>
<feBlend mode="normal" in2="effect1_dropShadow_630_3" result="effect2_dropShadow_630_3"/>
<feBlend mode="normal" in="SourceGraphic" in2="effect2_dropShadow_630_3" result="shape"/>
</filter>
<filter id="filter13_dd_630_3" x="459" y="365" width="99" height="42" filterUnits="userSpaceOnUse" color-interpolation-filters="sRGB">
<feFlood flood-opacity="0" result="BackgroundImageFix"/>
<feColorMatrix in="SourceAlpha" type="matrix" values="0 0 0 0 0 0 0 0 0 0 0 0 0 0 0 0 0 0 127 0" result="hardAlpha"/>
<feOffset dx="2" dy="2"/>
<feGaussianBlur stdDeviation="2"/>
<feComposite in2="hardAlpha" operator="out"/>
<feColorMatrix type="matrix" values="0 0 0 0 0.0588235 0 0 0 0 0.0627451 0 0 0 0 0.0705882 0 0 0 1 0"/>
<feBlend mode="normal" in2="BackgroundImageFix" result="effect1_dropShadow_630_3"/>
<feColorMatrix in="SourceAlpha" type="matrix" values="0 0 0 0 0 0 0 0 0 0 0 0 0 0 0 0 0 0 127 0" result="hardAlpha"/>
<feOffset dx="-2" dy="-2"/>
<feGaussianBlur stdDeviation="2"/>
<feComposite in2="hardAlpha" operator="out"/>
<feColorMatrix type="matrix" values="0 0 0 0 0.239216 0 0 0 0 0.243137 0 0 0 0 0.27451 0 0 0 0.6 0"/>
<feBlend mode="normal" in2="effect1_dropShadow_630_3" result="effect2_dropShadow_630_3"/>
<feBlend mode="normal" in="SourceGraphic" in2="effect2_dropShadow_630_3" result="shape"/>
</filter>
<filter id="filter14_dd_630_3" x="459" y="436" width="99" height="42" filterUnits="userSpaceOnUse" color-interpolation-filters="sRGB">
<feFlood flood-opacity="0" result="BackgroundImageFix"/>
<feColorMatrix in="SourceAlpha" type="matrix" values="0 0 0 0 0 0 0 0 0 0 0 0 0 0 0 0 0 0 127 0" result="hardAlpha"/>
<feOffset dx="2" dy="2"/>
<feGaussianBlur stdDeviation="2"/>
<feComposite in2="hardAlpha" operator="out"/>
<feColorMatrix type="matrix" values="0 0 0 0 0.0588235 0 0 0 0 0.0627451 0 0 0 0 0.0705882 0 0 0 1 0"/>
<feBlend mode="normal" in2="BackgroundImageFix" result="effect1_dropShadow_630_3"/>
<feColorMatrix in="SourceAlpha" type="matrix" values="0 0 0 0 0 0 0 0 0 0 0 0 0 0 0 0 0 0 127 0" result="hardAlpha"/>
<feOffset dx="-2" dy="-2"/>
<feGaussianBlur stdDeviation="2"/>
<feComposite in2="hardAlpha" operator="out"/>
<feColorMatrix type="matrix" values="0 0 0 0 0.239216 0 0 0 0 0.243137 0 0 0 0 0.27451 0 0 0 0.6 0"/>
<feBlend mode="normal" in2="effect1_dropShadow_630_3" result="effect2_dropShadow_630_3"/>
<feBlend mode="normal" in="SourceGraphic" in2="effect2_dropShadow_630_3" result="shape"/>
</filter>
<filter id="filter15_dd_630_3" x="459" y="576" width="99" height="42" filterUnits="userSpaceOnUse" color-interpolation-filters="sRGB">
<feFlood flood-opacity="0" result="BackgroundImageFix"/>
<feColorMatrix in="SourceAlpha" type="matrix" values="0 0 0 0 0 0 0 0 0 0 0 0 0 0 0 0 0 0 127 0" result="hardAlpha"/>
<feOffset dx="2" dy="2"/>
<feGaussianBlur stdDeviation="2"/>
<feComposite in2="hardAlpha" operator="out"/>
<feColorMatrix type="matrix" values="0 0 0 0 0.0588235 0 0 0 0 0.0627451 0 0 0 0 0.0705882 0 0 0 1 0"/>
<feBlend mode="normal" in2="BackgroundImageFix" result="effect1_dropShadow_630_3"/>
<feColorMatrix in="SourceAlpha" type="matrix" values="0 0 0 0 0 0 0 0 0 0 0 0 0 0 0 0 0 0 127 0" result="hardAlpha"/>
<feOffset dx="-2" dy="-2"/>
<feGaussianBlur stdDeviation="2"/>
<feComposite in2="hardAlpha" operator="out"/>
<feColorMatrix type="matrix" values="0 0 0 0 0.239216 0 0 0 0 0.243137 0 0 0 0 0.27451 0 0 0 0.6 0"/>
<feBlend mode="normal" in2="effect1_dropShadow_630_3" result="effect2_dropShadow_630_3"/>
<feBlend mode="normal" in="SourceGraphic" in2="effect2_dropShadow_630_3" result="shape"/>
</filter>
<filter id="filter16_dd_630_3" x="0" y="381" width="56" height="42" filterUnits="userSpaceOnUse" color-interpolation-filters="sRGB">
<feFlood flood-opacity="0" result="BackgroundImageFix"/>
<feColorMatrix in="SourceAlpha" type="matrix" values="0 0 0 0 0 0 0 0 0 0 0 0 0 0 0 0 0 0 127 0" result="hardAlpha"/>
<feOffset dx="2" dy="2"/>
<feGaussianBlur stdDeviation="2"/>
<feComposite in2="hardAlpha" operator="out"/>
<feColorMatrix type="matrix" values="0 0 0 0 0.0588235 0 0 0 0 0.0627451 0 0 0 0 0.0705882 0 0 0 1 0"/>
<feBlend mode="normal" in2="BackgroundImageFix" result="effect1_dropShadow_630_3"/>
<feColorMatrix in="SourceAlpha" type="matrix" values="0 0 0 0 0 0 0 0 0 0 0 0 0 0 0 0 0 0 127 0" result="hardAlpha"/>
<feOffset dx="-2" dy="-2"/>
<feGaussianBlur stdDeviation="2"/>
<feComposite in2="hardAlpha" operator="out"/>
<feColorMatrix type="matrix" values="0 0 0 0 0.239216 0 0 0 0 0.243137 0 0 0 0 0.27451 0 0 0 0.6 0"/>
<feBlend mode="normal" in2="effect1_dropShadow_630_3" result="effect2_dropShadow_630_3"/>
<feBlend mode="normal" in="SourceGraphic" in2="effect2_dropShadow_630_3" result="shape"/>
</filter>
</defs>
</svg>
