<svg width="308" height="327" viewBox="0 0 308 327" fill="none" xmlns="http://www.w3.org/2000/svg">
<path d="M64 49H73V47V51M64 49V47M64 49V51" stroke="#BF4D4D" stroke-width="2"/>
<path d="M62 49H47" stroke="#D4D4D5" stroke-width="2" stroke-linecap="round" stroke-dasharray="4 4"/>
<g filter="url(#filter0_dd_690_5)">
<rect x="6" y="158" width="34" height="16" rx="4" fill="#26272C"/>
</g>
<g filter="url(#filter1_dd_690_5)">
<rect x="6" y="95" width="34" height="16" rx="4" fill="#26272C"/>
</g>
<g filter="url(#filter2_dd_690_5)">
<rect x="6" y="6" width="34" height="16" rx="3" fill="#26272C"/>
</g>
<g filter="url(#filter3_dd_690_5)">
<rect x="6" y="222" width="34" height="16" rx="4" fill="#26272C"/>
</g>
<g filter="url(#filter4_dd_690_5)">
<rect x="6" y="276" width="34" height="16" rx="4" fill="#26272C"/>
</g>
<g filter="url(#filter5_dd_690_5)">
<rect x="6" y="240" width="34" height="16" rx="4" fill="#26272C"/>
</g>
<g filter="url(#filter6_dd_690_5)">
<rect x="6" y="41" width="34" height="16" rx="3" fill="#26272C"/>
</g>
<g filter="url(#filter7_dd_690_5)">
<rect x="6" y="181" width="34" height="16" rx="4" fill="#26272C"/>
</g>
<g filter="url(#filter8_dd_690_5)">
<rect x="6" y="123" width="34" height="16" rx="4" fill="#26272C"/>
</g>
<g filter="url(#filter9_dd_690_5)">
<rect x="239" y="136" width="63" height="16" rx="4" fill="#26272C"/>
</g>
<g filter="url(#filter10_dd_690_5)">
<rect x="239" y="110" width="63" height="16" rx="4" fill="#26272C"/>
</g>
<g filter="url(#filter11_dd_690_5)">
<rect x="239" y="166" width="63" height="16" rx="4" fill="#26272C"/>
</g>
<g filter="url(#filter12_dd_690_5)">
<rect x="239" y="197" width="63" height="15" rx="4" fill="#26272C"/>
</g>
<g filter="url(#filter13_dd_690_5)">
<rect x="239" y="234" width="63" height="15" rx="4" fill="#26272C"/>
</g>
<g filter="url(#filter14_dd_690_5)">
<rect x="239" y="307" width="63" height="14" rx="4" fill="#26272C"/>
</g>
<g filter="url(#filter15_dd_690_5)">
<rect x="6" y="204" width="34" height="16" rx="4" fill="#26272C"/>
</g>
<path d="M13.7203 169V168.32L15.3523 166.576C15.6723 166.235 15.923 165.96 16.1043 165.752C16.291 165.539 16.4243 165.352 16.5043 165.192C16.5896 165.032 16.6323 164.864 16.6323 164.688C16.6323 164.4 16.5443 164.179 16.3683 164.024C16.1923 163.864 15.9656 163.784 15.6883 163.784C15.4003 163.784 15.1523 163.867 14.9443 164.032C14.7363 164.192 14.5923 164.427 14.5123 164.736L13.6803 164.496C13.7443 164.181 13.8723 163.909 14.0643 163.68C14.2563 163.445 14.491 163.264 14.7683 163.136C15.051 163.008 15.355 162.944 15.6803 162.944C16.059 162.944 16.3896 163.016 16.6723 163.16C16.955 163.299 17.1736 163.493 17.3283 163.744C17.4883 163.995 17.5683 164.285 17.5683 164.616C17.5683 164.835 17.5256 165.048 17.4403 165.256C17.3603 165.459 17.235 165.675 17.0643 165.904C16.8936 166.128 16.675 166.381 16.4083 166.664L14.9683 168.2H17.6803V169H13.7203ZM21.1754 169V167.656H18.3354V166.872L21.1354 163.04H22.0714V166.872H22.8954V167.656H22.0714V169H21.1754ZM19.0314 167.216L18.8794 166.872H21.1754V163.792L21.4314 163.872L19.0314 167.216ZM23.7233 170.6V164.672H24.5873V165.568L24.4833 165.36C24.6433 165.115 24.8566 164.923 25.1233 164.784C25.39 164.645 25.694 164.576 26.0353 164.576C26.446 164.576 26.814 164.675 27.1393 164.872C27.47 165.069 27.7286 165.339 27.9153 165.68C28.1073 166.021 28.2033 166.405 28.2033 166.832C28.2033 167.259 28.1073 167.643 27.9153 167.984C27.7286 168.325 27.4726 168.597 27.1473 168.8C26.822 168.997 26.4513 169.096 26.0353 169.096C25.6993 169.096 25.3926 169.027 25.1153 168.888C24.8433 168.749 24.6326 168.549 24.4833 168.288L24.6273 168.12V170.6H23.7233ZM25.9473 168.256C26.2033 168.256 26.43 168.195 26.6273 168.072C26.8246 167.949 26.9793 167.781 27.0913 167.568C27.2086 167.349 27.2673 167.104 27.2673 166.832C27.2673 166.56 27.2086 166.317 27.0913 166.104C26.9793 165.891 26.8246 165.723 26.6273 165.6C26.43 165.477 26.2033 165.416 25.9473 165.416C25.6966 165.416 25.47 165.477 25.2673 165.6C25.07 165.723 24.9126 165.891 24.7953 166.104C24.6833 166.317 24.6273 166.56 24.6273 166.832C24.6273 167.104 24.6833 167.349 24.7953 167.568C24.9126 167.781 25.07 167.949 25.2673 168.072C25.47 168.195 25.6966 168.256 25.9473 168.256ZM28.4944 169L30.0064 166.832L28.4944 164.672H29.5584L30.7984 166.48H30.2864L31.5264 164.672H32.5904L31.0704 166.832L32.5824 169H31.5184L30.2944 167.184H30.7904L29.5584 169H28.4944Z" fill="#DBDBDB"/>
<path d="M13.7203 106V105.32L15.3523 103.576C15.6723 103.235 15.923 102.96 16.1043 102.752C16.291 102.539 16.4243 102.352 16.5043 102.192C16.5896 102.032 16.6323 101.864 16.6323 101.688C16.6323 101.4 16.5443 101.179 16.3683 101.024C16.1923 100.864 15.9656 100.784 15.6883 100.784C15.4003 100.784 15.1523 100.867 14.9443 101.032C14.7363 101.192 14.5923 101.427 14.5123 101.736L13.6803 101.496C13.7443 101.181 13.8723 100.909 14.0643 100.68C14.2563 100.445 14.491 100.264 14.7683 100.136C15.051 100.008 15.355 99.944 15.6803 99.944C16.059 99.944 16.3896 100.016 16.6723 100.16C16.955 100.299 17.1736 100.493 17.3283 100.744C17.4883 100.995 17.5683 101.285 17.5683 101.616C17.5683 101.835 17.5256 102.048 17.4403 102.256C17.3603 102.459 17.235 102.675 17.0643 102.904C16.8936 103.128 16.675 103.381 16.4083 103.664L14.9683 105.2H17.6803V106H13.7203ZM21.1754 106V104.656H18.3354V103.872L21.1354 100.04H22.0714V103.872H22.8954V104.656H22.0714V106H21.1754ZM19.0314 104.216L18.8794 103.872H21.1754V100.792L21.4314 100.872L19.0314 104.216ZM23.7233 107.6V101.672H24.5873V102.568L24.4833 102.36C24.6433 102.115 24.8566 101.923 25.1233 101.784C25.39 101.645 25.694 101.576 26.0353 101.576C26.446 101.576 26.814 101.675 27.1393 101.872C27.47 102.069 27.7286 102.339 27.9153 102.68C28.1073 103.021 28.2033 103.405 28.2033 103.832C28.2033 104.259 28.1073 104.643 27.9153 104.984C27.7286 105.325 27.4726 105.597 27.1473 105.8C26.822 105.997 26.4513 106.096 26.0353 106.096C25.6993 106.096 25.3926 106.027 25.1153 105.888C24.8433 105.749 24.6326 105.549 24.4833 105.288L24.6273 105.12V107.6H23.7233ZM25.9473 105.256C26.2033 105.256 26.43 105.195 26.6273 105.072C26.8246 104.949 26.9793 104.781 27.0913 104.568C27.2086 104.349 27.2673 104.104 27.2673 103.832C27.2673 103.56 27.2086 103.317 27.0913 103.104C26.9793 102.891 26.8246 102.723 26.6273 102.6C26.43 102.477 26.2033 102.416 25.9473 102.416C25.6966 102.416 25.47 102.477 25.2673 102.6C25.07 102.723 24.9126 102.891 24.7953 103.104C24.6833 103.317 24.6273 103.56 24.6273 103.832C24.6273 104.104 24.6833 104.349 24.7953 104.568C24.9126 104.781 25.07 104.949 25.2673 105.072C25.47 105.195 25.6966 105.256 25.9473 105.256ZM28.4944 106L30.0064 103.832L28.4944 101.672H29.5584L30.7984 103.48H30.2864L31.5264 101.672H32.5904L31.0704 103.832L32.5824 106H31.5184L30.2944 104.184H30.7904L29.5584 106H28.4944Z" fill="#DBDBDB"/>
<path d="M15.7361 17V11.84H14.5921V11.04H16.6721V17H15.7361ZM19.7908 17.096C19.4015 17.096 19.0548 17.0107 18.7508 16.84C18.4468 16.6693 18.2068 16.4347 18.0308 16.136C17.8601 15.8373 17.7748 15.4987 17.7748 15.12C17.7748 14.9227 17.7961 14.7253 17.8388 14.528C17.8815 14.3307 17.9561 14.1253 18.0628 13.912C18.1748 13.6987 18.3241 13.4693 18.5108 13.224L20.1748 11.04H21.3028L19.2628 13.68L19.1028 13.576C19.1775 13.4907 19.2575 13.424 19.3428 13.376C19.4335 13.328 19.5268 13.2933 19.6228 13.272C19.7241 13.2507 19.8308 13.24 19.9428 13.24C20.3001 13.24 20.6201 13.3227 20.9028 13.488C21.1855 13.6533 21.4068 13.8773 21.5668 14.16C21.7321 14.4427 21.8148 14.768 21.8148 15.136C21.8148 15.5093 21.7268 15.8453 21.5508 16.144C21.3748 16.4373 21.1348 16.6693 20.8308 16.84C20.5321 17.0107 20.1855 17.096 19.7908 17.096ZM19.7908 16.256C19.9988 16.256 20.1828 16.208 20.3428 16.112C20.5028 16.016 20.6308 15.8853 20.7268 15.72C20.8228 15.5493 20.8708 15.3573 20.8708 15.144C20.8708 14.9253 20.8228 14.7333 20.7268 14.568C20.6361 14.4027 20.5081 14.2747 20.3428 14.184C20.1828 14.088 19.9988 14.04 19.7908 14.04C19.5881 14.04 19.4041 14.088 19.2388 14.184C19.0788 14.2747 18.9508 14.4027 18.8548 14.568C18.7588 14.7333 18.7108 14.9253 18.7108 15.144C18.7108 15.3573 18.7588 15.5493 18.8548 15.72C18.9508 15.8853 19.0788 16.016 19.2388 16.112C19.4041 16.208 19.5881 16.256 19.7908 16.256ZM22.7155 18.6V12.672H23.5795V13.568L23.4755 13.36C23.6355 13.1147 23.8488 12.9227 24.1155 12.784C24.3822 12.6453 24.6862 12.576 25.0275 12.576C25.4382 12.576 25.8062 12.6747 26.1315 12.872C26.4622 13.0693 26.7208 13.3387 26.9075 13.68C27.0995 14.0213 27.1955 14.4053 27.1955 14.832C27.1955 15.2587 27.0995 15.6427 26.9075 15.984C26.7208 16.3253 26.4648 16.5973 26.1395 16.8C25.8142 16.9973 25.4435 17.096 25.0275 17.096C24.6915 17.096 24.3848 17.0267 24.1075 16.888C23.8355 16.7493 23.6248 16.5493 23.4755 16.288L23.6195 16.12V18.6H22.7155ZM24.9395 16.256C25.1955 16.256 25.4222 16.1947 25.6195 16.072C25.8168 15.9493 25.9715 15.7813 26.0835 15.568C26.2008 15.3493 26.2595 15.104 26.2595 14.832C26.2595 14.56 26.2008 14.3173 26.0835 14.104C25.9715 13.8907 25.8168 13.7227 25.6195 13.6C25.4222 13.4773 25.1955 13.416 24.9395 13.416C24.6888 13.416 24.4622 13.4773 24.2595 13.6C24.0622 13.7227 23.9048 13.8907 23.7875 14.104C23.6755 14.3173 23.6195 14.56 23.6195 14.832C23.6195 15.104 23.6755 15.3493 23.7875 15.568C23.9048 15.7813 24.0622 15.9493 24.2595 16.072C24.4622 16.1947 24.6888 16.256 24.9395 16.256ZM27.4866 17L28.9986 14.832L27.4866 12.672H28.5506L29.7906 14.48H29.2786L30.5186 12.672H31.5826L30.0626 14.832L31.5746 17H30.5106L29.2866 15.184H29.7826L28.5506 17H27.4866Z" fill="#DBDBDB"/>
<path d="M15.7361 233V227.84H14.5921V227.04H16.6721V233H15.7361ZM19.7908 233.096C19.4015 233.096 19.0548 233.011 18.7508 232.84C18.4468 232.669 18.2068 232.435 18.0308 232.136C17.8601 231.837 17.7748 231.499 17.7748 231.12C17.7748 230.923 17.7961 230.725 17.8388 230.528C17.8815 230.331 17.9561 230.125 18.0628 229.912C18.1748 229.699 18.3241 229.469 18.5108 229.224L20.1748 227.04H21.3028L19.2628 229.68L19.1028 229.576C19.1775 229.491 19.2575 229.424 19.3428 229.376C19.4335 229.328 19.5268 229.293 19.6228 229.272C19.7241 229.251 19.8308 229.24 19.9428 229.24C20.3001 229.24 20.6201 229.323 20.9028 229.488C21.1855 229.653 21.4068 229.877 21.5668 230.16C21.7321 230.443 21.8148 230.768 21.8148 231.136C21.8148 231.509 21.7268 231.845 21.5508 232.144C21.3748 232.437 21.1348 232.669 20.8308 232.84C20.5321 233.011 20.1855 233.096 19.7908 233.096ZM19.7908 232.256C19.9988 232.256 20.1828 232.208 20.3428 232.112C20.5028 232.016 20.6308 231.885 20.7268 231.72C20.8228 231.549 20.8708 231.357 20.8708 231.144C20.8708 230.925 20.8228 230.733 20.7268 230.568C20.6361 230.403 20.5081 230.275 20.3428 230.184C20.1828 230.088 19.9988 230.04 19.7908 230.04C19.5881 230.04 19.4041 230.088 19.2388 230.184C19.0788 230.275 18.9508 230.403 18.8548 230.568C18.7588 230.733 18.7108 230.925 18.7108 231.144C18.7108 231.357 18.7588 231.549 18.8548 231.72C18.9508 231.885 19.0788 232.016 19.2388 232.112C19.4041 232.208 19.5881 232.256 19.7908 232.256ZM22.7155 234.6V228.672H23.5795V229.568L23.4755 229.36C23.6355 229.115 23.8488 228.923 24.1155 228.784C24.3822 228.645 24.6862 228.576 25.0275 228.576C25.4382 228.576 25.8062 228.675 26.1315 228.872C26.4622 229.069 26.7208 229.339 26.9075 229.68C27.0995 230.021 27.1955 230.405 27.1955 230.832C27.1955 231.259 27.0995 231.643 26.9075 231.984C26.7208 232.325 26.4648 232.597 26.1395 232.8C25.8142 232.997 25.4435 233.096 25.0275 233.096C24.6915 233.096 24.3848 233.027 24.1075 232.888C23.8355 232.749 23.6248 232.549 23.4755 232.288L23.6195 232.12V234.6H22.7155ZM24.9395 232.256C25.1955 232.256 25.4222 232.195 25.6195 232.072C25.8168 231.949 25.9715 231.781 26.0835 231.568C26.2008 231.349 26.2595 231.104 26.2595 230.832C26.2595 230.56 26.2008 230.317 26.0835 230.104C25.9715 229.891 25.8168 229.723 25.6195 229.6C25.4222 229.477 25.1955 229.416 24.9395 229.416C24.6888 229.416 24.4622 229.477 24.2595 229.6C24.0622 229.723 23.9048 229.891 23.7875 230.104C23.6755 230.317 23.6195 230.56 23.6195 230.832C23.6195 231.104 23.6755 231.349 23.7875 231.568C23.9048 231.781 24.0622 231.949 24.2595 232.072C24.4622 232.195 24.6888 232.256 24.9395 232.256ZM27.4866 233L28.9986 230.832L27.4866 228.672H28.5506L29.7906 230.48H29.2786L30.5186 228.672H31.5826L30.0626 230.832L31.5746 233H30.5106L29.2866 231.184H29.7826L28.5506 233H27.4866Z" fill="#DBDBDB"/>
<path d="M18.7544 287.096C18.3384 287.096 17.973 287.016 17.6584 286.856C17.349 286.691 17.109 286.472 16.9384 286.2C16.7677 285.923 16.6824 285.616 16.6824 285.28C16.6824 284.896 16.7864 284.565 16.9944 284.288C17.2077 284.005 17.5064 283.8 17.8904 283.672L17.8504 283.912C17.5677 283.805 17.3437 283.627 17.1784 283.376C17.0184 283.12 16.9384 282.84 16.9384 282.536C16.9384 282.232 17.0157 281.96 17.1704 281.72C17.3304 281.48 17.5464 281.291 17.8184 281.152C18.0957 281.013 18.4077 280.944 18.7544 280.944C19.1064 280.944 19.4184 281.013 19.6904 281.152C19.9624 281.285 20.1757 281.472 20.3304 281.712C20.4904 281.952 20.5704 282.227 20.5704 282.536C20.5704 282.851 20.4877 283.133 20.3224 283.384C20.1624 283.629 19.9437 283.805 19.6664 283.912L19.6264 283.672C20.0104 283.805 20.309 284.011 20.5224 284.288C20.7357 284.565 20.8424 284.896 20.8424 285.28C20.8424 285.616 20.7544 285.923 20.5784 286.2C20.4077 286.472 20.165 286.691 19.8504 286.856C19.5357 287.016 19.1704 287.096 18.7544 287.096ZM18.7544 286.296C18.9837 286.296 19.1837 286.253 19.3544 286.168C19.525 286.077 19.6584 285.955 19.7544 285.8C19.8504 285.645 19.8984 285.464 19.8984 285.256C19.8984 285.048 19.8504 284.867 19.7544 284.712C19.6584 284.557 19.525 284.437 19.3544 284.352C19.1837 284.267 18.9837 284.224 18.7544 284.224C18.5304 284.224 18.333 284.267 18.1624 284.352C17.9917 284.437 17.8584 284.557 17.7624 284.712C17.6664 284.867 17.6184 285.048 17.6184 285.256C17.6184 285.464 17.6664 285.645 17.7624 285.8C17.8584 285.955 17.9917 286.077 18.1624 286.168C18.333 286.253 18.5304 286.296 18.7544 286.296ZM18.7544 283.424C18.925 283.424 19.0744 283.389 19.2024 283.32C19.3357 283.245 19.4397 283.144 19.5144 283.016C19.589 282.888 19.6264 282.744 19.6264 282.584C19.6264 282.419 19.589 282.275 19.5144 282.152C19.4397 282.024 19.3357 281.925 19.2024 281.856C19.0744 281.781 18.925 281.744 18.7544 281.744C18.589 281.744 18.4397 281.781 18.3064 281.856C18.173 281.925 18.069 282.024 17.9944 282.152C17.9197 282.275 17.8824 282.419 17.8824 282.584C17.8824 282.744 17.9197 282.888 17.9944 283.016C18.069 283.144 18.173 283.245 18.3064 283.32C18.4397 283.389 18.589 283.424 18.7544 283.424ZM21.8092 288.6V282.672H22.6733V283.568L22.5693 283.36C22.7293 283.115 22.9426 282.923 23.2093 282.784C23.4759 282.645 23.7799 282.576 24.1213 282.576C24.5319 282.576 24.8999 282.675 25.2253 282.872C25.5559 283.069 25.8146 283.339 26.0013 283.68C26.1933 284.021 26.2893 284.405 26.2893 284.832C26.2893 285.259 26.1933 285.643 26.0013 285.984C25.8146 286.325 25.5586 286.597 25.2333 286.8C24.9079 286.997 24.5373 287.096 24.1213 287.096C23.7853 287.096 23.4786 287.027 23.2013 286.888C22.9293 286.749 22.7186 286.549 22.5693 286.288L22.7133 286.12V288.6H21.8092ZM24.0333 286.256C24.2893 286.256 24.5159 286.195 24.7133 286.072C24.9106 285.949 25.0653 285.781 25.1773 285.568C25.2946 285.349 25.3533 285.104 25.3533 284.832C25.3533 284.56 25.2946 284.317 25.1773 284.104C25.0653 283.891 24.9106 283.723 24.7133 283.6C24.5159 283.477 24.2893 283.416 24.0333 283.416C23.7826 283.416 23.5559 283.477 23.3533 283.6C23.1559 283.723 22.9986 283.891 22.8813 284.104C22.7693 284.317 22.7133 284.56 22.7133 284.832C22.7133 285.104 22.7693 285.349 22.8813 285.568C22.9986 285.781 23.1559 285.949 23.3533 286.072C23.5559 286.195 23.7826 286.256 24.0333 286.256ZM26.5804 287L28.0924 284.832L26.5804 282.672H27.6444L28.8844 284.48H28.3724L29.6124 282.672H30.6764L29.1564 284.832L30.6684 287H29.6044L28.3804 285.184H28.8764L27.6444 287H26.5804Z" fill="#DBDBDB"/>
<path d="M17.7544 251.096C17.3384 251.096 16.973 251.016 16.6584 250.856C16.349 250.691 16.109 250.472 15.9384 250.2C15.7677 249.923 15.6824 249.616 15.6824 249.28C15.6824 248.896 15.7864 248.565 15.9944 248.288C16.2077 248.005 16.5064 247.8 16.8904 247.672L16.8504 247.912C16.5677 247.805 16.3437 247.627 16.1784 247.376C16.0184 247.12 15.9384 246.84 15.9384 246.536C15.9384 246.232 16.0157 245.96 16.1704 245.72C16.3304 245.48 16.5464 245.291 16.8184 245.152C17.0957 245.013 17.4077 244.944 17.7544 244.944C18.1064 244.944 18.4184 245.013 18.6904 245.152C18.9624 245.285 19.1757 245.472 19.3304 245.712C19.4904 245.952 19.5704 246.227 19.5704 246.536C19.5704 246.851 19.4877 247.133 19.3224 247.384C19.1624 247.629 18.9437 247.805 18.6664 247.912L18.6264 247.672C19.0104 247.805 19.309 248.011 19.5224 248.288C19.7357 248.565 19.8424 248.896 19.8424 249.28C19.8424 249.616 19.7544 249.923 19.5784 250.2C19.4077 250.472 19.165 250.691 18.8504 250.856C18.5357 251.016 18.1704 251.096 17.7544 251.096ZM17.7544 250.296C17.9837 250.296 18.1837 250.253 18.3544 250.168C18.525 250.077 18.6584 249.955 18.7544 249.8C18.8504 249.645 18.8984 249.464 18.8984 249.256C18.8984 249.048 18.8504 248.867 18.7544 248.712C18.6584 248.557 18.525 248.437 18.3544 248.352C18.1837 248.267 17.9837 248.224 17.7544 248.224C17.5304 248.224 17.333 248.267 17.1624 248.352C16.9917 248.437 16.8584 248.557 16.7624 248.712C16.6664 248.867 16.6184 249.048 16.6184 249.256C16.6184 249.464 16.6664 249.645 16.7624 249.8C16.8584 249.955 16.9917 250.077 17.1624 250.168C17.333 250.253 17.5304 250.296 17.7544 250.296ZM17.7544 247.424C17.925 247.424 18.0744 247.389 18.2024 247.32C18.3357 247.245 18.4397 247.144 18.5144 247.016C18.589 246.888 18.6264 246.744 18.6264 246.584C18.6264 246.419 18.589 246.275 18.5144 246.152C18.4397 246.024 18.3357 245.925 18.2024 245.856C18.0744 245.781 17.925 245.744 17.7544 245.744C17.589 245.744 17.4397 245.781 17.3064 245.856C17.173 245.925 17.069 246.024 16.9944 246.152C16.9197 246.275 16.8824 246.419 16.8824 246.584C16.8824 246.744 16.9197 246.888 16.9944 247.016C17.069 247.144 17.173 247.245 17.3064 247.32C17.4397 247.389 17.589 247.424 17.7544 247.424ZM20.8092 252.6V246.672H21.6733V247.568L21.5693 247.36C21.7293 247.115 21.9426 246.923 22.2093 246.784C22.4759 246.645 22.7799 246.576 23.1213 246.576C23.5319 246.576 23.8999 246.675 24.2253 246.872C24.5559 247.069 24.8146 247.339 25.0013 247.68C25.1933 248.021 25.2893 248.405 25.2893 248.832C25.2893 249.259 25.1933 249.643 25.0013 249.984C24.8146 250.325 24.5586 250.597 24.2333 250.8C23.9079 250.997 23.5373 251.096 23.1213 251.096C22.7853 251.096 22.4786 251.027 22.2013 250.888C21.9293 250.749 21.7186 250.549 21.5693 250.288L21.7133 250.12V252.6H20.8092ZM23.0333 250.256C23.2893 250.256 23.5159 250.195 23.7133 250.072C23.9106 249.949 24.0653 249.781 24.1773 249.568C24.2946 249.349 24.3533 249.104 24.3533 248.832C24.3533 248.56 24.2946 248.317 24.1773 248.104C24.0653 247.891 23.9106 247.723 23.7133 247.6C23.5159 247.477 23.2893 247.416 23.0333 247.416C22.7826 247.416 22.5559 247.477 22.3533 247.6C22.1559 247.723 21.9986 247.891 21.8813 248.104C21.7693 248.317 21.7133 248.56 21.7133 248.832C21.7133 249.104 21.7693 249.349 21.8813 249.568C21.9986 249.781 22.1559 249.949 22.3533 250.072C22.5559 250.195 22.7826 250.256 23.0333 250.256ZM25.5804 251L27.0924 248.832L25.5804 246.672H26.6444L27.8844 248.48H27.3724L28.6124 246.672H29.6764L28.1564 248.832L29.6684 251H28.6044L27.3804 249.184H27.8764L26.6444 251H25.5804Z" fill="#DBDBDB"/>
<path d="M13.7203 52V51.32L15.3523 49.576C15.6723 49.2347 15.923 48.96 16.1043 48.752C16.291 48.5387 16.4243 48.352 16.5043 48.192C16.5896 48.032 16.6323 47.864 16.6323 47.688C16.6323 47.4 16.5443 47.1787 16.3683 47.024C16.1923 46.864 15.9656 46.784 15.6883 46.784C15.4003 46.784 15.1523 46.8667 14.9443 47.032C14.7363 47.192 14.5923 47.4267 14.5123 47.736L13.6803 47.496C13.7443 47.1813 13.8723 46.9093 14.0643 46.68C14.2563 46.4453 14.491 46.264 14.7683 46.136C15.051 46.008 15.355 45.944 15.6803 45.944C16.059 45.944 16.3896 46.016 16.6723 46.16C16.955 46.2987 17.1736 46.4933 17.3283 46.744C17.4883 46.9947 17.5683 47.2853 17.5683 47.616C17.5683 47.8347 17.5256 48.048 17.4403 48.256C17.3603 48.4587 17.235 48.6747 17.0643 48.904C16.8936 49.128 16.675 49.3813 16.4083 49.664L14.9683 51.2H17.6803V52H13.7203ZM21.1754 52V50.656H18.3354V49.872L21.1354 46.04H22.0714V49.872H22.8954V50.656H22.0714V52H21.1754ZM19.0314 50.216L18.8794 49.872H21.1754V46.792L21.4314 46.872L19.0314 50.216ZM23.7233 53.6V47.672H24.5873V48.568L24.4833 48.36C24.6433 48.1147 24.8566 47.9227 25.1233 47.784C25.39 47.6453 25.694 47.576 26.0353 47.576C26.446 47.576 26.814 47.6747 27.1393 47.872C27.47 48.0693 27.7286 48.3387 27.9153 48.68C28.1073 49.0213 28.2033 49.4053 28.2033 49.832C28.2033 50.2587 28.1073 50.6427 27.9153 50.984C27.7286 51.3253 27.4726 51.5973 27.1473 51.8C26.822 51.9973 26.4513 52.096 26.0353 52.096C25.6993 52.096 25.3926 52.0267 25.1153 51.888C24.8433 51.7493 24.6326 51.5493 24.4833 51.288L24.6273 51.12V53.6H23.7233ZM25.9473 51.256C26.2033 51.256 26.43 51.1947 26.6273 51.072C26.8246 50.9493 26.9793 50.7813 27.0913 50.568C27.2086 50.3493 27.2673 50.104 27.2673 49.832C27.2673 49.56 27.2086 49.3173 27.0913 49.104C26.9793 48.8907 26.8246 48.7227 26.6273 48.6C26.43 48.4773 26.2033 48.416 25.9473 48.416C25.6966 48.416 25.47 48.4773 25.2673 48.6C25.07 48.7227 24.9126 48.8907 24.7953 49.104C24.6833 49.3173 24.6273 49.56 24.6273 49.832C24.6273 50.104 24.6833 50.3493 24.7953 50.568C24.9126 50.7813 25.07 50.9493 25.2673 51.072C25.47 51.1947 25.6966 51.256 25.9473 51.256ZM28.4944 52L30.0064 49.832L28.4944 47.672H29.5584L30.7984 49.48H30.2864L31.5264 47.672H32.5904L31.0704 49.832L32.5824 52H31.5184L30.2944 50.184H30.7904L29.5584 52H28.4944Z" fill="#DBDBDB"/>
<path d="M12.7203 192V191.32L14.3523 189.576C14.6723 189.235 14.923 188.96 15.1043 188.752C15.291 188.539 15.4243 188.352 15.5043 188.192C15.5896 188.032 15.6323 187.864 15.6323 187.688C15.6323 187.4 15.5443 187.179 15.3683 187.024C15.1923 186.864 14.9656 186.784 14.6883 186.784C14.4003 186.784 14.1523 186.867 13.9443 187.032C13.7363 187.192 13.5923 187.427 13.5123 187.736L12.6803 187.496C12.7443 187.181 12.8723 186.909 13.0643 186.68C13.2563 186.445 13.491 186.264 13.7683 186.136C14.051 186.008 14.355 185.944 14.6803 185.944C15.059 185.944 15.3896 186.016 15.6723 186.16C15.955 186.299 16.1736 186.493 16.3283 186.744C16.4883 186.995 16.5683 187.285 16.5683 187.616C16.5683 187.835 16.5256 188.048 16.4403 188.256C16.3603 188.459 16.235 188.675 16.0643 188.904C15.8936 189.128 15.675 189.381 15.4083 189.664L13.9683 191.2H16.6803V192H12.7203ZM20.1754 192V190.656H17.3354V189.872L20.1354 186.04H21.0714V189.872H21.8954V190.656H21.0714V192H20.1754ZM18.0314 190.216L17.8794 189.872H20.1754V186.792L20.4314 186.872L18.0314 190.216ZM22.7233 193.6V187.672H23.5873V188.568L23.4833 188.36C23.6433 188.115 23.8566 187.923 24.1233 187.784C24.39 187.645 24.694 187.576 25.0353 187.576C25.446 187.576 25.814 187.675 26.1393 187.872C26.47 188.069 26.7286 188.339 26.9153 188.68C27.1073 189.021 27.2033 189.405 27.2033 189.832C27.2033 190.259 27.1073 190.643 26.9153 190.984C26.7286 191.325 26.4726 191.597 26.1473 191.8C25.822 191.997 25.4513 192.096 25.0353 192.096C24.6993 192.096 24.3926 192.027 24.1153 191.888C23.8433 191.749 23.6326 191.549 23.4833 191.288L23.6273 191.12V193.6H22.7233ZM24.9473 191.256C25.2033 191.256 25.43 191.195 25.6273 191.072C25.8246 190.949 25.9793 190.781 26.0913 190.568C26.2086 190.349 26.2673 190.104 26.2673 189.832C26.2673 189.56 26.2086 189.317 26.0913 189.104C25.9793 188.891 25.8246 188.723 25.6273 188.6C25.43 188.477 25.2033 188.416 24.9473 188.416C24.6966 188.416 24.47 188.477 24.2673 188.6C24.07 188.723 23.9126 188.891 23.7953 189.104C23.6833 189.317 23.6273 189.56 23.6273 189.832C23.6273 190.104 23.6833 190.349 23.7953 190.568C23.9126 190.781 24.07 190.949 24.2673 191.072C24.47 191.195 24.6966 191.256 24.9473 191.256ZM27.4944 192L29.0064 189.832L27.4944 187.672H28.5584L29.7984 189.48H29.2864L30.5264 187.672H31.5904L30.0704 189.832L31.5824 192H30.5184L29.2944 190.184H29.7904L28.5584 192H27.4944Z" fill="#DBDBDB"/>
<path d="M15.7659 134.096C15.4459 134.096 15.1445 134.037 14.8619 133.92C14.5845 133.803 14.3445 133.637 14.1419 133.424C13.9445 133.211 13.8032 132.96 13.7179 132.672L14.5179 132.368C14.6245 132.651 14.7872 132.869 15.0059 133.024C15.2245 133.179 15.4779 133.256 15.7659 133.256C16.0005 133.256 16.2032 133.211 16.3739 133.12C16.5499 133.029 16.6859 132.901 16.7819 132.736C16.8832 132.571 16.9339 132.371 16.9339 132.136C16.9339 131.907 16.8832 131.709 16.7819 131.544C16.6859 131.379 16.5499 131.253 16.3739 131.168C16.2032 131.083 16.0005 131.04 15.7659 131.04C15.6699 131.04 15.5712 131.048 15.4699 131.064C15.3739 131.08 15.2885 131.101 15.2139 131.128L15.0059 130.688L16.5739 128.84H14.0379V128.04H17.6299V128.8L16.0939 130.64L16.0699 130.336C16.4272 130.341 16.7419 130.421 17.0139 130.576C17.2859 130.725 17.4965 130.933 17.6459 131.2C17.8005 131.461 17.8779 131.765 17.8779 132.112C17.8779 132.485 17.7872 132.824 17.6059 133.128C17.4245 133.427 17.1739 133.664 16.8539 133.84C16.5392 134.011 16.1765 134.096 15.7659 134.096ZM18.7125 134V133.32L20.3445 131.576C20.6645 131.235 20.9152 130.96 21.0965 130.752C21.2832 130.539 21.4165 130.352 21.4965 130.192C21.5818 130.032 21.6245 129.864 21.6245 129.688C21.6245 129.4 21.5365 129.179 21.3605 129.024C21.1845 128.864 20.9578 128.784 20.6805 128.784C20.3925 128.784 20.1445 128.867 19.9365 129.032C19.7285 129.192 19.5845 129.427 19.5045 129.736L18.6725 129.496C18.7365 129.181 18.8645 128.909 19.0565 128.68C19.2485 128.445 19.4832 128.264 19.7605 128.136C20.0432 128.008 20.3472 127.944 20.6725 127.944C21.0512 127.944 21.3818 128.016 21.6645 128.16C21.9472 128.299 22.1658 128.493 22.3205 128.744C22.4805 128.995 22.5605 129.285 22.5605 129.616C22.5605 129.835 22.5178 130.048 22.4325 130.256C22.3525 130.459 22.2272 130.675 22.0565 130.904C21.8858 131.128 21.6672 131.381 21.4005 131.664L19.9605 133.2H22.6725V134H18.7125ZM23.6217 135.6V129.672H24.4858V130.568L24.3818 130.36C24.5418 130.115 24.7551 129.923 25.0218 129.784C25.2884 129.645 25.5924 129.576 25.9338 129.576C26.3444 129.576 26.7124 129.675 27.0378 129.872C27.3684 130.069 27.6271 130.339 27.8138 130.68C28.0058 131.021 28.1018 131.405 28.1018 131.832C28.1018 132.259 28.0058 132.643 27.8138 132.984C27.6271 133.325 27.3711 133.597 27.0458 133.8C26.7204 133.997 26.3498 134.096 25.9338 134.096C25.5978 134.096 25.2911 134.027 25.0138 133.888C24.7418 133.749 24.5311 133.549 24.3818 133.288L24.5258 133.12V135.6H23.6217ZM25.8458 133.256C26.1018 133.256 26.3284 133.195 26.5258 133.072C26.7231 132.949 26.8778 132.781 26.9898 132.568C27.1071 132.349 27.1658 132.104 27.1658 131.832C27.1658 131.56 27.1071 131.317 26.9898 131.104C26.8778 130.891 26.7231 130.723 26.5258 130.6C26.3284 130.477 26.1018 130.416 25.8458 130.416C25.5951 130.416 25.3684 130.477 25.1658 130.6C24.9684 130.723 24.8111 130.891 24.6938 131.104C24.5818 131.317 24.5258 131.56 24.5258 131.832C24.5258 132.104 24.5818 132.349 24.6938 132.568C24.8111 132.781 24.9684 132.949 25.1658 133.072C25.3684 133.195 25.5951 133.256 25.8458 133.256ZM28.3929 134L29.9049 131.832L28.3929 129.672H29.4569L30.6969 131.48H30.1849L31.4249 129.672H32.4889L30.9689 131.832L32.4809 134H31.4169L30.1929 132.184H30.6889L29.4569 134H28.3929Z" fill="#DBDBDB"/>
<path d="M247.838 147V141.72H246.71V141.04H248.63V147H247.838ZM251.989 147.096C251.589 147.096 251.234 147.016 250.925 146.856C250.621 146.696 250.381 146.48 250.205 146.208C250.034 145.931 249.949 145.621 249.949 145.28C249.949 144.896 250.055 144.56 250.269 144.272C250.482 143.984 250.775 143.779 251.149 143.656L251.133 143.856C250.85 143.744 250.629 143.565 250.469 143.32C250.314 143.069 250.237 142.8 250.237 142.512C250.237 142.208 250.311 141.939 250.461 141.704C250.615 141.469 250.823 141.285 251.085 141.152C251.351 141.013 251.653 140.944 251.989 140.944C252.325 140.944 252.623 141.011 252.885 141.144C253.146 141.277 253.351 141.464 253.501 141.704C253.655 141.939 253.733 142.208 253.733 142.512C253.733 142.816 253.65 143.088 253.485 143.328C253.325 143.568 253.111 143.747 252.845 143.864L252.821 143.656C253.199 143.779 253.495 143.987 253.709 144.28C253.922 144.568 254.029 144.901 254.029 145.28C254.029 145.621 253.941 145.931 253.765 146.208C253.594 146.48 253.354 146.696 253.045 146.856C252.741 147.016 252.389 147.096 251.989 147.096ZM251.989 146.416C252.239 146.416 252.458 146.368 252.645 146.272C252.831 146.176 252.975 146.043 253.077 145.872C253.183 145.696 253.237 145.496 253.237 145.272C253.237 145.043 253.183 144.843 253.077 144.672C252.975 144.496 252.831 144.363 252.645 144.272C252.458 144.176 252.239 144.128 251.989 144.128C251.738 144.128 251.517 144.176 251.325 144.272C251.138 144.363 250.994 144.496 250.893 144.672C250.791 144.843 250.741 145.043 250.741 145.272C250.741 145.496 250.791 145.696 250.893 145.872C250.994 146.043 251.138 146.176 251.325 146.272C251.517 146.368 251.738 146.416 251.989 146.416ZM251.989 143.448C252.17 143.448 252.33 143.408 252.469 143.328C252.613 143.248 252.727 143.141 252.813 143.008C252.898 142.869 252.941 142.709 252.941 142.528C252.941 142.347 252.898 142.189 252.813 142.056C252.727 141.923 252.613 141.819 252.469 141.744C252.33 141.664 252.17 141.624 251.989 141.624C251.802 141.624 251.637 141.664 251.493 141.744C251.349 141.819 251.234 141.923 251.149 142.056C251.063 142.189 251.021 142.347 251.021 142.528C251.021 142.709 251.063 142.869 251.149 143.008C251.234 143.141 251.349 143.248 251.493 143.328C251.637 143.408 251.802 143.448 251.989 143.448ZM255.204 148.112V147.752C255.369 147.709 255.495 147.627 255.58 147.504C255.665 147.381 255.713 147.213 255.724 147H255.364V146.04H256.14V146.72C256.14 147.104 256.06 147.413 255.9 147.648C255.745 147.883 255.513 148.037 255.204 148.112ZM260.985 147.096C260.607 147.096 260.26 147.027 259.945 146.888C259.631 146.744 259.364 146.549 259.145 146.304C258.927 146.059 258.769 145.784 258.673 145.48L259.353 145.2C259.497 145.584 259.711 145.88 259.993 146.088C260.281 146.291 260.617 146.392 261.001 146.392C261.236 146.392 261.441 146.355 261.617 146.28C261.793 146.205 261.929 146.101 262.025 145.968C262.127 145.829 262.177 145.669 262.177 145.488C262.177 145.237 262.105 145.04 261.961 144.896C261.823 144.747 261.617 144.635 261.345 144.56L260.249 144.224C259.817 144.091 259.487 143.88 259.257 143.592C259.028 143.304 258.913 142.973 258.913 142.6C258.913 142.275 258.991 141.989 259.145 141.744C259.305 141.493 259.524 141.299 259.801 141.16C260.084 141.016 260.404 140.944 260.761 140.944C261.119 140.944 261.441 141.008 261.729 141.136C262.023 141.264 262.271 141.437 262.473 141.656C262.676 141.869 262.825 142.115 262.921 142.392L262.249 142.672C262.121 142.336 261.929 142.083 261.673 141.912C261.417 141.736 261.116 141.648 260.769 141.648C260.556 141.648 260.367 141.685 260.201 141.76C260.041 141.829 259.916 141.933 259.825 142.072C259.74 142.205 259.697 142.365 259.697 142.552C259.697 142.771 259.767 142.965 259.905 143.136C260.044 143.307 260.255 143.437 260.537 143.528L261.537 143.824C262.007 143.968 262.361 144.173 262.601 144.44C262.841 144.707 262.961 145.037 262.961 145.432C262.961 145.757 262.876 146.045 262.705 146.296C262.54 146.547 262.308 146.744 262.009 146.888C261.716 147.027 261.375 147.096 260.985 147.096ZM266.005 147.096C265.589 147.096 265.219 146.997 264.893 146.8C264.568 146.603 264.312 146.333 264.125 145.992C263.939 145.645 263.845 145.259 263.845 144.832C263.845 144.4 263.936 144.016 264.117 143.68C264.304 143.344 264.555 143.08 264.869 142.888C265.189 142.691 265.547 142.592 265.941 142.592C266.261 142.592 266.544 142.651 266.789 142.768C267.04 142.88 267.251 143.035 267.421 143.232C267.597 143.424 267.731 143.645 267.821 143.896C267.917 144.141 267.965 144.397 267.965 144.664C267.965 144.723 267.96 144.789 267.949 144.864C267.944 144.933 267.936 145 267.925 145.064H264.389V144.424H267.493L267.141 144.712C267.189 144.435 267.163 144.187 267.061 143.968C266.96 143.749 266.811 143.576 266.613 143.448C266.416 143.32 266.192 143.256 265.941 143.256C265.691 143.256 265.461 143.32 265.253 143.448C265.045 143.576 264.883 143.76 264.765 144C264.653 144.235 264.608 144.515 264.629 144.84C264.608 145.155 264.656 145.432 264.773 145.672C264.896 145.907 265.067 146.091 265.285 146.224C265.509 146.352 265.752 146.416 266.013 146.416C266.301 146.416 266.544 146.349 266.741 146.216C266.939 146.083 267.099 145.912 267.221 145.704L267.845 146.024C267.76 146.221 267.627 146.403 267.445 146.568C267.269 146.728 267.059 146.856 266.813 146.952C266.573 147.048 266.304 147.096 266.005 147.096ZM268.935 147V142.688H269.663V143.568L269.559 143.432C269.666 143.16 269.837 142.952 270.071 142.808C270.306 142.664 270.57 142.592 270.863 142.592C271.199 142.592 271.501 142.685 271.767 142.872C272.039 143.059 272.226 143.304 272.327 143.608L272.119 143.616C272.231 143.28 272.421 143.027 272.687 142.856C272.954 142.68 273.25 142.592 273.575 142.592C273.874 142.592 274.143 142.661 274.383 142.8C274.629 142.939 274.823 143.131 274.967 143.376C275.111 143.621 275.183 143.899 275.183 144.208V147H274.431V144.448C274.431 144.208 274.389 144.005 274.303 143.84C274.218 143.675 274.101 143.547 273.951 143.456C273.807 143.36 273.637 143.312 273.439 143.312C273.247 143.312 273.074 143.36 272.919 143.456C272.77 143.547 272.65 143.677 272.559 143.848C272.474 144.013 272.431 144.213 272.431 144.448V147H271.679V144.448C271.679 144.208 271.637 144.005 271.551 143.84C271.466 143.675 271.349 143.547 271.199 143.456C271.055 143.36 270.885 143.312 270.687 143.312C270.495 143.312 270.322 143.36 270.167 143.456C270.018 143.547 269.898 143.677 269.807 143.848C269.722 144.013 269.679 144.213 269.679 144.448V147H268.935ZM276.24 147V142.688H276.984V147H276.24ZM276.24 142V141.04H276.984V142H276.24ZM278.227 147V141.04H280.731C281.088 141.04 281.395 141.104 281.651 141.232C281.912 141.36 282.112 141.541 282.251 141.776C282.395 142.005 282.467 142.28 282.467 142.6C282.467 142.893 282.389 143.16 282.235 143.4C282.085 143.635 281.864 143.819 281.571 143.952L281.562 143.656C281.819 143.752 282.029 143.88 282.195 144.04C282.365 144.195 282.493 144.376 282.579 144.584C282.664 144.787 282.707 145.003 282.707 145.232C282.707 145.781 282.531 146.213 282.179 146.528C281.827 146.843 281.347 147 280.739 147H278.227ZM279.011 146.28H280.771C281.117 146.28 281.395 146.187 281.602 146C281.811 145.813 281.915 145.56 281.915 145.24C281.915 144.92 281.811 144.667 281.602 144.48C281.395 144.288 281.117 144.192 280.771 144.192H279.011V146.28ZM279.011 143.488H280.715C281.003 143.488 281.235 143.405 281.411 143.24C281.587 143.069 281.674 142.853 281.674 142.592C281.674 142.32 281.587 142.112 281.411 141.968C281.235 141.824 281.003 141.752 280.715 141.752H279.011V143.488ZM285.726 147.096C285.31 147.096 284.934 147 284.598 146.808C284.262 146.611 283.995 146.341 283.798 146C283.6 145.659 283.502 145.272 283.502 144.84C283.502 144.408 283.598 144.024 283.79 143.688C283.987 143.352 284.254 143.085 284.59 142.888C284.926 142.691 285.304 142.592 285.726 142.592C286.142 142.592 286.518 142.691 286.854 142.888C287.19 143.08 287.454 143.344 287.646 143.68C287.843 144.016 287.942 144.403 287.942 144.84C287.942 145.277 287.84 145.667 287.638 146.008C287.435 146.344 287.166 146.611 286.83 146.808C286.499 147 286.131 147.096 285.726 147.096ZM285.726 146.376C285.992 146.376 286.232 146.309 286.446 146.176C286.664 146.043 286.835 145.859 286.958 145.624C287.086 145.389 287.15 145.128 287.15 144.84C287.15 144.547 287.086 144.288 286.958 144.064C286.835 143.835 286.664 143.653 286.446 143.52C286.232 143.381 285.992 143.312 285.726 143.312C285.454 143.312 285.208 143.381 284.99 143.52C284.776 143.653 284.606 143.835 284.478 144.064C284.35 144.288 284.286 144.547 284.286 144.84C284.286 145.128 284.35 145.389 284.478 145.624C284.606 145.859 284.776 146.043 284.99 146.176C285.208 146.309 285.454 146.376 285.726 146.376ZM288.912 147V140.944H289.656V147H288.912ZM292.77 147.096C292.365 147.096 292 146.997 291.674 146.8C291.354 146.603 291.101 146.333 290.914 145.992C290.728 145.651 290.634 145.269 290.634 144.848C290.634 144.416 290.728 144.032 290.914 143.696C291.101 143.355 291.354 143.085 291.674 142.888C292 142.691 292.365 142.592 292.77 142.592C293.128 142.592 293.445 142.669 293.722 142.824C294 142.973 294.218 143.176 294.378 143.432L294.258 143.616V140.944H295.01V147H294.282V146.08L294.378 146.208C294.229 146.491 294.01 146.709 293.722 146.864C293.44 147.019 293.122 147.096 292.77 147.096ZM292.834 146.376C293.106 146.376 293.349 146.309 293.562 146.176C293.776 146.043 293.944 145.861 294.066 145.632C294.194 145.397 294.258 145.136 294.258 144.848C294.258 144.555 294.194 144.293 294.066 144.064C293.944 143.829 293.776 143.645 293.562 143.512C293.349 143.379 293.106 143.312 292.834 143.312C292.568 143.312 292.325 143.381 292.106 143.52C291.893 143.653 291.725 143.835 291.602 144.064C291.48 144.288 291.418 144.549 291.418 144.848C291.418 145.136 291.48 145.397 291.602 145.632C291.725 145.861 291.893 146.043 292.106 146.176C292.32 146.309 292.562 146.376 292.834 146.376Z" fill="#DBDBDB"/>
<path d="M247.498 121V115.72H246.37V115.04H248.29V121H247.498ZM251.459 121.096C251.075 121.096 250.733 121.011 250.435 120.84C250.141 120.669 249.909 120.437 249.739 120.144C249.568 119.845 249.483 119.507 249.483 119.128C249.483 118.92 249.507 118.715 249.555 118.512C249.603 118.309 249.68 118.104 249.787 117.896C249.893 117.688 250.029 117.472 250.195 117.248L251.875 115.04H252.819L250.763 117.712L250.619 117.696C250.699 117.589 250.787 117.507 250.883 117.448C250.984 117.389 251.091 117.347 251.203 117.32C251.32 117.293 251.443 117.28 251.571 117.28C251.923 117.28 252.237 117.363 252.515 117.528C252.797 117.688 253.019 117.909 253.179 118.192C253.344 118.475 253.427 118.8 253.427 119.168C253.427 119.536 253.341 119.867 253.171 120.16C253 120.448 252.765 120.677 252.467 120.848C252.173 121.013 251.837 121.096 251.459 121.096ZM251.459 120.392C251.683 120.392 251.883 120.341 252.059 120.24C252.235 120.133 252.373 119.987 252.475 119.8C252.581 119.613 252.635 119.405 252.635 119.176C252.635 118.936 252.584 118.728 252.483 118.552C252.381 118.371 252.243 118.227 252.067 118.12C251.891 118.013 251.688 117.96 251.459 117.96C251.235 117.96 251.032 118.013 250.851 118.12C250.669 118.227 250.528 118.371 250.427 118.552C250.325 118.728 250.275 118.936 250.275 119.176C250.275 119.405 250.325 119.613 250.427 119.8C250.533 119.987 250.675 120.133 250.851 120.24C251.032 120.341 251.235 120.392 251.459 120.392ZM254.544 122.112V121.752C254.709 121.709 254.835 121.627 254.92 121.504C255.005 121.381 255.053 121.213 255.064 121H254.704V120.04H255.48V120.72C255.48 121.104 255.4 121.413 255.24 121.648C255.085 121.883 254.853 122.037 254.544 122.112ZM260.325 121.096C259.947 121.096 259.6 121.027 259.285 120.888C258.971 120.744 258.704 120.549 258.485 120.304C258.267 120.059 258.109 119.784 258.013 119.48L258.693 119.2C258.837 119.584 259.051 119.88 259.333 120.088C259.621 120.291 259.957 120.392 260.341 120.392C260.576 120.392 260.781 120.355 260.957 120.28C261.133 120.205 261.269 120.101 261.365 119.968C261.467 119.829 261.517 119.669 261.517 119.488C261.517 119.237 261.445 119.04 261.301 118.896C261.163 118.747 260.957 118.635 260.685 118.56L259.589 118.224C259.157 118.091 258.827 117.88 258.597 117.592C258.368 117.304 258.253 116.973 258.253 116.6C258.253 116.275 258.331 115.989 258.485 115.744C258.645 115.493 258.864 115.299 259.141 115.16C259.424 115.016 259.744 114.944 260.101 114.944C260.459 114.944 260.781 115.008 261.069 115.136C261.363 115.264 261.611 115.437 261.813 115.656C262.016 115.869 262.165 116.115 262.261 116.392L261.589 116.672C261.461 116.336 261.269 116.083 261.013 115.912C260.757 115.736 260.456 115.648 260.109 115.648C259.896 115.648 259.707 115.685 259.541 115.76C259.381 115.829 259.256 115.933 259.165 116.072C259.08 116.205 259.037 116.365 259.037 116.552C259.037 116.771 259.107 116.965 259.245 117.136C259.384 117.307 259.595 117.437 259.877 117.528L260.877 117.824C261.347 117.968 261.701 118.173 261.941 118.44C262.181 118.707 262.301 119.037 262.301 119.432C262.301 119.757 262.216 120.045 262.045 120.296C261.88 120.547 261.648 120.744 261.349 120.888C261.056 121.027 260.715 121.096 260.325 121.096ZM265.345 121.096C264.929 121.096 264.558 120.997 264.233 120.8C263.908 120.603 263.652 120.333 263.465 119.992C263.278 119.645 263.185 119.259 263.185 118.832C263.185 118.4 263.276 118.016 263.457 117.68C263.644 117.344 263.894 117.08 264.209 116.888C264.529 116.691 264.886 116.592 265.281 116.592C265.601 116.592 265.884 116.651 266.129 116.768C266.38 116.88 266.59 117.035 266.761 117.232C266.937 117.424 267.07 117.645 267.161 117.896C267.257 118.141 267.305 118.397 267.305 118.664C267.305 118.723 267.3 118.789 267.289 118.864C267.284 118.933 267.276 119 267.265 119.064H263.729V118.424H266.833L266.481 118.712C266.529 118.435 266.502 118.187 266.401 117.968C266.3 117.749 266.15 117.576 265.953 117.448C265.756 117.32 265.532 117.256 265.281 117.256C265.03 117.256 264.801 117.32 264.593 117.448C264.385 117.576 264.222 117.76 264.105 118C263.993 118.235 263.948 118.515 263.969 118.84C263.948 119.155 263.996 119.432 264.113 119.672C264.236 119.907 264.406 120.091 264.625 120.224C264.849 120.352 265.092 120.416 265.353 120.416C265.641 120.416 265.884 120.349 266.081 120.216C266.278 120.083 266.438 119.912 266.561 119.704L267.185 120.024C267.1 120.221 266.966 120.403 266.785 120.568C266.609 120.728 266.398 120.856 266.153 120.952C265.913 121.048 265.644 121.096 265.345 121.096ZM268.275 121V116.688H269.003V117.568L268.899 117.432C269.006 117.16 269.177 116.952 269.411 116.808C269.646 116.664 269.91 116.592 270.203 116.592C270.539 116.592 270.841 116.685 271.107 116.872C271.379 117.059 271.566 117.304 271.667 117.608L271.459 117.616C271.571 117.28 271.761 117.027 272.027 116.856C272.294 116.68 272.59 116.592 272.915 116.592C273.214 116.592 273.483 116.661 273.723 116.8C273.969 116.939 274.163 117.131 274.307 117.376C274.451 117.621 274.523 117.899 274.523 118.208V121H273.771V118.448C273.771 118.208 273.729 118.005 273.643 117.84C273.558 117.675 273.441 117.547 273.291 117.456C273.147 117.36 272.977 117.312 272.779 117.312C272.587 117.312 272.414 117.36 272.259 117.456C272.11 117.547 271.99 117.677 271.899 117.848C271.814 118.013 271.771 118.213 271.771 118.448V121H271.019V118.448C271.019 118.208 270.977 118.005 270.891 117.84C270.806 117.675 270.689 117.547 270.539 117.456C270.395 117.36 270.225 117.312 270.027 117.312C269.835 117.312 269.662 117.36 269.507 117.456C269.358 117.547 269.238 117.677 269.147 117.848C269.062 118.013 269.019 118.213 269.019 118.448V121H268.275ZM275.58 121V116.688H276.324V121H275.58ZM275.58 116V115.04H276.324V116H275.58ZM277.566 121V115.04H280.07C280.428 115.04 280.734 115.104 280.99 115.232C281.252 115.36 281.452 115.541 281.59 115.776C281.734 116.005 281.806 116.28 281.806 116.6C281.806 116.893 281.729 117.16 281.574 117.4C281.425 117.635 281.204 117.819 280.91 117.952L280.902 117.656C281.158 117.752 281.369 117.88 281.534 118.04C281.705 118.195 281.833 118.376 281.918 118.584C282.004 118.787 282.046 119.003 282.046 119.232C282.046 119.781 281.87 120.213 281.518 120.528C281.166 120.843 280.686 121 280.078 121H277.566ZM278.35 120.28H280.11C280.457 120.28 280.734 120.187 280.942 120C281.15 119.813 281.254 119.56 281.254 119.24C281.254 118.92 281.15 118.667 280.942 118.48C280.734 118.288 280.457 118.192 280.11 118.192H278.35V120.28ZM278.35 117.488H280.054C280.342 117.488 280.574 117.405 280.75 117.24C280.926 117.069 281.014 116.853 281.014 116.592C281.014 116.32 280.926 116.112 280.75 115.968C280.574 115.824 280.342 115.752 280.054 115.752H278.35V117.488ZM285.065 121.096C284.649 121.096 284.273 121 283.937 120.808C283.601 120.611 283.335 120.341 283.137 120C282.94 119.659 282.841 119.272 282.841 118.84C282.841 118.408 282.937 118.024 283.129 117.688C283.327 117.352 283.593 117.085 283.929 116.888C284.265 116.691 284.644 116.592 285.065 116.592C285.481 116.592 285.857 116.691 286.193 116.888C286.529 117.08 286.793 117.344 286.985 117.68C287.183 118.016 287.281 118.403 287.281 118.84C287.281 119.277 287.18 119.667 286.977 120.008C286.775 120.344 286.505 120.611 286.169 120.808C285.839 121 285.471 121.096 285.065 121.096ZM285.065 120.376C285.332 120.376 285.572 120.309 285.785 120.176C286.004 120.043 286.175 119.859 286.297 119.624C286.425 119.389 286.489 119.128 286.489 118.84C286.489 118.547 286.425 118.288 286.297 118.064C286.175 117.835 286.004 117.653 285.785 117.52C285.572 117.381 285.332 117.312 285.065 117.312C284.793 117.312 284.548 117.381 284.329 117.52C284.116 117.653 283.945 117.835 283.817 118.064C283.689 118.288 283.625 118.547 283.625 118.84C283.625 119.128 283.689 119.389 283.817 119.624C283.945 119.859 284.116 120.043 284.329 120.176C284.548 120.309 284.793 120.376 285.065 120.376ZM288.252 121V114.944H288.996V121H288.252ZM292.11 121.096C291.705 121.096 291.34 120.997 291.014 120.8C290.694 120.603 290.441 120.333 290.254 119.992C290.068 119.651 289.974 119.269 289.974 118.848C289.974 118.416 290.068 118.032 290.254 117.696C290.441 117.355 290.694 117.085 291.014 116.888C291.34 116.691 291.705 116.592 292.11 116.592C292.468 116.592 292.785 116.669 293.062 116.824C293.34 116.973 293.558 117.176 293.718 117.432L293.598 117.616V114.944H294.35V121H293.622V120.08L293.718 120.208C293.569 120.491 293.35 120.709 293.062 120.864C292.78 121.019 292.462 121.096 292.11 121.096ZM292.174 120.376C292.446 120.376 292.689 120.309 292.902 120.176C293.116 120.043 293.284 119.861 293.406 119.632C293.534 119.397 293.598 119.136 293.598 118.848C293.598 118.555 293.534 118.293 293.406 118.064C293.284 117.829 293.116 117.645 292.902 117.512C292.689 117.379 292.446 117.312 292.174 117.312C291.908 117.312 291.665 117.381 291.446 117.52C291.233 117.653 291.065 117.835 290.942 118.064C290.82 118.288 290.758 118.549 290.758 118.848C290.758 119.136 290.82 119.397 290.942 119.632C291.065 119.861 291.233 120.043 291.446 120.176C291.66 120.309 291.902 120.376 292.174 120.376Z" fill="#DBDBDB"/>
<path d="M252.58 176V170.72H251.452V170.04H253.372V176H252.58ZM254.643 176V175.456L256.291 173.672C256.616 173.325 256.875 173.04 257.067 172.816C257.264 172.592 257.408 172.392 257.499 172.216C257.59 172.04 257.635 171.853 257.635 171.656C257.635 171.331 257.539 171.08 257.347 170.904C257.155 170.728 256.902 170.64 256.587 170.64C256.267 170.64 255.995 170.733 255.771 170.92C255.547 171.101 255.392 171.36 255.307 171.696L254.595 171.512C254.664 171.192 254.792 170.915 254.979 170.68C255.166 170.445 255.398 170.264 255.675 170.136C255.952 170.008 256.256 169.944 256.587 169.944C256.95 169.944 257.267 170.016 257.539 170.16C257.816 170.299 258.032 170.493 258.187 170.744C258.347 170.995 258.427 171.285 258.427 171.616C258.427 171.835 258.382 172.048 258.291 172.256C258.2 172.464 258.067 172.685 257.891 172.92C257.715 173.149 257.486 173.416 257.203 173.72L255.731 175.32H258.555V176H254.643ZM259.704 177.112V176.752C259.869 176.709 259.995 176.627 260.08 176.504C260.165 176.381 260.213 176.213 260.224 176H259.864V175.04H260.64V175.72C260.64 176.104 260.56 176.413 260.4 176.648C260.245 176.883 260.013 177.037 259.704 177.112ZM263.437 176V170.04H265.541C265.936 170.04 266.283 170.115 266.581 170.264C266.88 170.413 267.112 170.627 267.277 170.904C267.448 171.181 267.533 171.507 267.533 171.88C267.533 172.301 267.427 172.659 267.213 172.952C267 173.245 266.712 173.456 266.349 173.584L267.733 176H266.821L265.365 173.416L265.885 173.72H264.221V176H263.437ZM264.221 173H265.565C265.8 173 266.005 172.955 266.181 172.864C266.357 172.773 266.493 172.643 266.589 172.472C266.691 172.301 266.741 172.104 266.741 171.88C266.741 171.651 266.691 171.453 266.589 171.288C266.493 171.117 266.357 170.987 266.181 170.896C266.005 170.805 265.8 170.76 265.565 170.76H264.221V173ZM270.279 176.096C269.863 176.096 269.492 175.997 269.167 175.8C268.841 175.603 268.585 175.333 268.399 174.992C268.212 174.645 268.119 174.259 268.119 173.832C268.119 173.4 268.209 173.016 268.391 172.68C268.577 172.344 268.828 172.08 269.143 171.888C269.463 171.691 269.82 171.592 270.215 171.592C270.535 171.592 270.817 171.651 271.063 171.768C271.313 171.88 271.524 172.035 271.695 172.232C271.871 172.424 272.004 172.645 272.095 172.896C272.191 173.141 272.239 173.397 272.239 173.664C272.239 173.723 272.233 173.789 272.223 173.864C272.217 173.933 272.209 174 272.199 174.064H268.663V173.424H271.767L271.415 173.712C271.463 173.435 271.436 173.187 271.335 172.968C271.233 172.749 271.084 172.576 270.887 172.448C270.689 172.32 270.465 172.256 270.215 172.256C269.964 172.256 269.735 172.32 269.527 172.448C269.319 172.576 269.156 172.76 269.039 173C268.927 173.235 268.881 173.515 268.903 173.84C268.881 174.155 268.929 174.432 269.047 174.672C269.169 174.907 269.34 175.091 269.559 175.224C269.783 175.352 270.025 175.416 270.287 175.416C270.575 175.416 270.817 175.349 271.015 175.216C271.212 175.083 271.372 174.912 271.495 174.704L272.119 175.024C272.033 175.221 271.9 175.403 271.719 175.568C271.543 175.728 271.332 175.856 271.087 175.952C270.847 176.048 270.577 176.096 270.279 176.096ZM275.265 177.76C274.961 177.76 274.678 177.712 274.417 177.616C274.161 177.52 273.939 177.387 273.753 177.216C273.571 177.051 273.433 176.856 273.337 176.632L274.033 176.312C274.107 176.515 274.249 176.685 274.457 176.824C274.67 176.968 274.937 177.04 275.257 177.04C275.502 177.04 275.723 176.992 275.921 176.896C276.123 176.805 276.283 176.667 276.401 176.48C276.518 176.299 276.577 176.077 276.577 175.816V174.848L276.713 174.992C276.563 175.285 276.347 175.509 276.065 175.664C275.787 175.819 275.481 175.896 275.145 175.896C274.739 175.896 274.377 175.803 274.057 175.616C273.737 175.424 273.486 175.165 273.305 174.84C273.123 174.509 273.033 174.144 273.033 173.744C273.033 173.339 273.123 172.973 273.305 172.648C273.486 172.323 273.734 172.067 274.049 171.88C274.369 171.688 274.731 171.592 275.137 171.592C275.473 171.592 275.777 171.669 276.049 171.824C276.326 171.973 276.547 172.181 276.713 172.448L276.601 172.648V171.688H277.329V175.816C277.329 176.189 277.241 176.523 277.065 176.816C276.889 177.109 276.643 177.339 276.329 177.504C276.019 177.675 275.665 177.76 275.265 177.76ZM275.209 175.176C275.465 175.176 275.694 175.112 275.897 174.984C276.105 174.856 276.27 174.685 276.393 174.472C276.515 174.253 276.577 174.011 276.577 173.744C276.577 173.483 276.515 173.243 276.393 173.024C276.27 172.805 276.105 172.632 275.897 172.504C275.694 172.376 275.465 172.312 275.209 172.312C274.947 172.312 274.71 172.376 274.497 172.504C274.283 172.632 274.115 172.805 273.993 173.024C273.875 173.237 273.817 173.477 273.817 173.744C273.817 174.011 273.875 174.253 273.993 174.472C274.115 174.685 274.281 174.856 274.489 174.984C274.702 175.112 274.942 175.176 275.209 175.176ZM280.01 176.096C279.701 176.096 279.421 176.024 279.17 175.88C278.925 175.736 278.733 175.536 278.594 175.28C278.461 175.019 278.394 174.72 278.394 174.384V171.688H279.138V174.304C279.138 174.517 279.181 174.704 279.266 174.864C279.357 175.024 279.48 175.149 279.634 175.24C279.794 175.331 279.976 175.376 280.178 175.376C280.381 175.376 280.56 175.331 280.714 175.24C280.874 175.149 280.997 175.019 281.082 174.848C281.173 174.677 281.218 174.475 281.218 174.24V171.688H281.97V176H281.242V175.16L281.362 175.232C281.261 175.504 281.088 175.717 280.842 175.872C280.602 176.021 280.325 176.096 280.01 176.096ZM283.123 176V169.944H283.867V176H283.123ZM286.285 176.096C286.003 176.096 285.752 176.045 285.533 175.944C285.32 175.837 285.152 175.693 285.029 175.512C284.907 175.325 284.845 175.112 284.845 174.872C284.845 174.643 284.893 174.437 284.989 174.256C285.091 174.069 285.245 173.912 285.453 173.784C285.667 173.656 285.933 173.565 286.253 173.512L287.853 173.248V173.872L286.421 174.112C286.144 174.16 285.941 174.248 285.813 174.376C285.691 174.504 285.629 174.661 285.629 174.848C285.629 175.024 285.699 175.171 285.837 175.288C285.981 175.405 286.16 175.464 286.373 175.464C286.645 175.464 286.88 175.408 287.077 175.296C287.28 175.179 287.437 175.021 287.549 174.824C287.667 174.627 287.725 174.408 287.725 174.168V173.072C287.725 172.837 287.637 172.648 287.461 172.504C287.291 172.355 287.064 172.28 286.781 172.28C286.536 172.28 286.317 172.344 286.125 172.472C285.939 172.595 285.8 172.76 285.709 172.968L285.061 172.632C285.141 172.435 285.269 172.259 285.445 172.104C285.621 171.944 285.827 171.819 286.061 171.728C286.296 171.637 286.541 171.592 286.797 171.592C287.128 171.592 287.419 171.656 287.669 171.784C287.92 171.907 288.115 172.08 288.253 172.304C288.397 172.523 288.469 172.779 288.469 173.072V176H287.741V175.184L287.877 175.232C287.787 175.403 287.664 175.552 287.509 175.68C287.355 175.808 287.173 175.909 286.965 175.984C286.757 176.059 286.531 176.096 286.285 176.096ZM289.623 176V171.688H290.351V172.48L290.271 172.368C290.372 172.123 290.527 171.941 290.735 171.824C290.943 171.701 291.196 171.64 291.495 171.64H291.759V172.344H291.383C291.079 172.344 290.834 172.44 290.647 172.632C290.46 172.819 290.367 173.085 290.367 173.432V176H289.623Z" fill="#DBDBDB"/>
<path d="M257.447 208V202.72H256.319V202.04H258.239V208H257.447ZM262.35 208V206.624H259.422V205.976L262.334 202.04H263.086V205.976H263.862V206.624H263.086V208H262.35ZM260.014 206.256L259.902 205.976H262.35V202.696L262.582 202.76L260.014 206.256ZM264.884 209.112V208.752C265.049 208.709 265.174 208.627 265.26 208.504C265.345 208.381 265.393 208.213 265.404 208H265.044V207.04H265.82V207.72C265.82 208.104 265.74 208.413 265.58 208.648C265.425 208.883 265.193 209.037 264.884 209.112ZM268.617 208V202.04H271.121C271.478 202.04 271.785 202.104 272.041 202.232C272.302 202.36 272.502 202.541 272.641 202.776C272.785 203.005 272.857 203.28 272.857 203.6C272.857 203.893 272.78 204.16 272.625 204.4C272.476 204.635 272.254 204.819 271.961 204.952L271.953 204.656C272.209 204.752 272.42 204.88 272.585 205.04C272.756 205.195 272.884 205.376 272.969 205.584C273.054 205.787 273.097 206.003 273.097 206.232C273.097 206.781 272.921 207.213 272.569 207.528C272.217 207.843 271.737 208 271.129 208H268.617ZM269.401 207.28H271.161C271.508 207.28 271.785 207.187 271.993 207C272.201 206.813 272.305 206.56 272.305 206.24C272.305 205.92 272.201 205.667 271.993 205.48C271.785 205.288 271.508 205.192 271.161 205.192H269.401V207.28ZM269.401 204.488H271.105C271.393 204.488 271.625 204.405 271.801 204.24C271.977 204.069 272.065 203.853 272.065 203.592C272.065 203.32 271.977 203.112 271.801 202.968C271.625 202.824 271.393 202.752 271.105 202.752H269.401V204.488ZM276.116 208.096C275.7 208.096 275.324 208 274.988 207.808C274.652 207.611 274.386 207.341 274.188 207C273.991 206.659 273.892 206.272 273.892 205.84C273.892 205.408 273.988 205.024 274.18 204.688C274.378 204.352 274.644 204.085 274.98 203.888C275.316 203.691 275.695 203.592 276.116 203.592C276.532 203.592 276.908 203.691 277.244 203.888C277.58 204.08 277.844 204.344 278.036 204.68C278.234 205.016 278.332 205.403 278.332 205.84C278.332 206.277 278.231 206.667 278.028 207.008C277.826 207.344 277.556 207.611 277.22 207.808C276.89 208 276.522 208.096 276.116 208.096ZM276.116 207.376C276.383 207.376 276.623 207.309 276.836 207.176C277.055 207.043 277.226 206.859 277.348 206.624C277.476 206.389 277.54 206.128 277.54 205.84C277.54 205.547 277.476 205.288 277.348 205.064C277.226 204.835 277.055 204.653 276.836 204.52C276.623 204.381 276.383 204.312 276.116 204.312C275.844 204.312 275.599 204.381 275.38 204.52C275.167 204.653 274.996 204.835 274.868 205.064C274.74 205.288 274.676 205.547 274.676 205.84C274.676 206.128 274.74 206.389 274.868 206.624C274.996 206.859 275.167 207.043 275.38 207.176C275.599 207.309 275.844 207.376 276.116 207.376ZM279.303 208V201.944H280.047V208H279.303ZM283.161 208.096C282.756 208.096 282.39 207.997 282.065 207.8C281.745 207.603 281.492 207.333 281.305 206.992C281.118 206.651 281.025 206.269 281.025 205.848C281.025 205.416 281.118 205.032 281.305 204.696C281.492 204.355 281.745 204.085 282.065 203.888C282.39 203.691 282.756 203.592 283.161 203.592C283.518 203.592 283.836 203.669 284.113 203.824C284.39 203.973 284.609 204.176 284.769 204.432L284.649 204.616V201.944H285.401V208H284.673V207.08L284.769 207.208C284.62 207.491 284.401 207.709 284.113 207.864C283.83 208.019 283.513 208.096 283.161 208.096ZM283.225 207.376C283.497 207.376 283.74 207.309 283.953 207.176C284.166 207.043 284.334 206.861 284.457 206.632C284.585 206.397 284.649 206.136 284.649 205.848C284.649 205.555 284.585 205.293 284.457 205.064C284.334 204.829 284.166 204.645 283.953 204.512C283.74 204.379 283.497 204.312 283.225 204.312C282.958 204.312 282.716 204.381 282.497 204.52C282.284 204.653 282.116 204.835 281.993 205.064C281.87 205.288 281.809 205.549 281.809 205.848C281.809 206.136 281.87 206.397 281.993 206.632C282.116 206.861 282.284 207.043 282.497 207.176C282.71 207.309 282.953 207.376 283.225 207.376Z" fill="#DBDBDB"/>
<path d="M250.983 245V239.72H249.855V239.04H251.775V245H250.983ZM255.885 245V243.624H252.957V242.976L255.869 239.04H256.621V242.976H257.397V243.624H256.621V245H255.885ZM253.549 243.256L253.437 242.976H255.885V239.696L256.117 239.76L253.549 243.256ZM258.419 246.112V245.752C258.584 245.709 258.71 245.627 258.795 245.504C258.88 245.381 258.928 245.213 258.939 245H258.579V244.04H259.355V244.72C259.355 245.104 259.275 245.413 259.115 245.648C258.96 245.883 258.728 246.037 258.419 246.112ZM262.152 245V239.04H262.872L265.104 242.216H264.736L266.952 239.04H267.672V245H266.88V240.032L267.16 240.12L264.944 243.24H264.88L262.688 240.12L262.936 240.032V245H262.152ZM270.892 245.096C270.476 245.096 270.105 244.997 269.78 244.8C269.455 244.603 269.199 244.333 269.012 243.992C268.825 243.645 268.732 243.259 268.732 242.832C268.732 242.4 268.823 242.016 269.004 241.68C269.191 241.344 269.441 241.08 269.756 240.888C270.076 240.691 270.433 240.592 270.828 240.592C271.148 240.592 271.431 240.651 271.676 240.768C271.927 240.88 272.137 241.035 272.308 241.232C272.484 241.424 272.617 241.645 272.708 241.896C272.804 242.141 272.852 242.397 272.852 242.664C272.852 242.723 272.847 242.789 272.836 242.864C272.831 242.933 272.823 243 272.812 243.064H269.276V242.424H272.38L272.028 242.712C272.076 242.435 272.049 242.187 271.948 241.968C271.847 241.749 271.697 241.576 271.5 241.448C271.303 241.32 271.079 241.256 270.828 241.256C270.577 241.256 270.348 241.32 270.14 241.448C269.932 241.576 269.769 241.76 269.652 242C269.54 242.235 269.495 242.515 269.516 242.84C269.495 243.155 269.543 243.432 269.66 243.672C269.783 243.907 269.953 244.091 270.172 244.224C270.396 244.352 270.639 244.416 270.9 244.416C271.188 244.416 271.431 244.349 271.628 244.216C271.825 244.083 271.985 243.912 272.108 243.704L272.732 244.024C272.647 244.221 272.513 244.403 272.332 244.568C272.156 244.728 271.945 244.856 271.7 244.952C271.46 245.048 271.191 245.096 270.892 245.096ZM275.782 245.096C275.377 245.096 275.011 244.997 274.686 244.8C274.366 244.603 274.113 244.333 273.926 243.992C273.739 243.651 273.646 243.269 273.646 242.848C273.646 242.416 273.739 242.032 273.926 241.696C274.113 241.355 274.366 241.085 274.686 240.888C275.011 240.691 275.377 240.592 275.782 240.592C276.139 240.592 276.457 240.669 276.734 240.824C277.011 240.973 277.23 241.176 277.39 241.432L277.27 241.616V238.944H278.022V245H277.294V244.08L277.39 244.208C277.241 244.491 277.022 244.709 276.734 244.864C276.451 245.019 276.134 245.096 275.782 245.096ZM275.846 244.376C276.118 244.376 276.361 244.309 276.574 244.176C276.787 244.043 276.955 243.861 277.078 243.632C277.206 243.397 277.27 243.136 277.27 242.848C277.27 242.555 277.206 242.293 277.078 242.064C276.955 241.829 276.787 241.645 276.574 241.512C276.361 241.379 276.118 241.312 275.846 241.312C275.579 241.312 275.337 241.381 275.118 241.52C274.905 241.653 274.737 241.835 274.614 242.064C274.491 242.288 274.43 242.549 274.43 242.848C274.43 243.136 274.491 243.397 274.614 243.632C274.737 243.861 274.905 244.043 275.118 244.176C275.331 244.309 275.574 244.376 275.846 244.376ZM279.174 245V240.688H279.918V245H279.174ZM279.174 240V239.04H279.918V240H279.174ZM282.6 245.096C282.291 245.096 282.011 245.024 281.76 244.88C281.515 244.736 281.323 244.536 281.184 244.28C281.051 244.019 280.984 243.72 280.984 243.384V240.688H281.728V243.304C281.728 243.517 281.771 243.704 281.856 243.864C281.947 244.024 282.069 244.149 282.224 244.24C282.384 244.331 282.565 244.376 282.768 244.376C282.971 244.376 283.149 244.331 283.304 244.24C283.464 244.149 283.587 244.019 283.672 243.848C283.763 243.677 283.808 243.475 283.808 243.24V240.688H284.56V245H283.832V244.16L283.952 244.232C283.851 244.504 283.677 244.717 283.432 244.872C283.192 245.021 282.915 245.096 282.6 245.096ZM285.713 245V240.688H286.441V241.568L286.337 241.432C286.443 241.16 286.614 240.952 286.849 240.808C287.083 240.664 287.347 240.592 287.641 240.592C287.977 240.592 288.278 240.685 288.545 240.872C288.817 241.059 289.003 241.304 289.105 241.608L288.897 241.616C289.009 241.28 289.198 241.027 289.465 240.856C289.731 240.68 290.027 240.592 290.353 240.592C290.651 240.592 290.921 240.661 291.161 240.8C291.406 240.939 291.601 241.131 291.745 241.376C291.889 241.621 291.961 241.899 291.961 242.208V245H291.209V242.448C291.209 242.208 291.166 242.005 291.081 241.84C290.995 241.675 290.878 241.547 290.729 241.456C290.585 241.36 290.414 241.312 290.217 241.312C290.025 241.312 289.851 241.36 289.697 241.456C289.547 241.547 289.427 241.677 289.337 241.848C289.251 242.013 289.209 242.213 289.209 242.448V245H288.457V242.448C288.457 242.208 288.414 242.005 288.329 241.84C288.243 241.675 288.126 241.547 287.977 241.456C287.833 241.36 287.662 241.312 287.465 241.312C287.273 241.312 287.099 241.36 286.945 241.456C286.795 241.547 286.675 241.677 286.585 241.848C286.499 242.013 286.457 242.213 286.457 242.448V245H285.713Z" fill="#DBDBDB"/>
<path d="M250.639 317V311.72H249.511V311.04H251.431V317H250.639ZM255.174 317.096C254.699 317.096 254.283 316.968 253.926 316.712C253.574 316.451 253.299 316.091 253.102 315.632C252.904 315.168 252.806 314.629 252.806 314.016C252.806 313.403 252.904 312.867 253.102 312.408C253.299 311.944 253.574 311.584 253.926 311.328C254.278 311.072 254.691 310.944 255.166 310.944C255.64 310.944 256.054 311.072 256.406 311.328C256.758 311.584 257.032 311.944 257.23 312.408C257.432 312.867 257.534 313.403 257.534 314.016C257.534 314.629 257.435 315.168 257.238 315.632C257.04 316.096 256.763 316.456 256.406 316.712C256.054 316.968 255.643 317.096 255.174 317.096ZM255.174 316.368C255.494 316.368 255.771 316.272 256.006 316.08C256.24 315.883 256.422 315.608 256.55 315.256C256.683 314.904 256.75 314.491 256.75 314.016C256.75 313.541 256.683 313.128 256.55 312.776C256.422 312.424 256.238 312.152 255.998 311.96C255.763 311.768 255.486 311.672 255.166 311.672C254.846 311.672 254.568 311.768 254.334 311.96C254.099 312.152 253.915 312.424 253.782 312.776C253.654 313.128 253.59 313.541 253.59 314.016C253.59 314.485 253.654 314.896 253.782 315.248C253.915 315.6 254.099 315.875 254.334 316.072C254.574 316.269 254.854 316.368 255.174 316.368ZM258.763 318.112V317.752C258.928 317.709 259.053 317.627 259.139 317.504C259.224 317.381 259.272 317.213 259.283 317H258.923V316.04H259.699V316.72C259.699 317.104 259.619 317.413 259.459 317.648C259.304 317.883 259.072 318.037 258.763 318.112ZM262.496 317V311.04H263.216L265.448 314.216H265.08L267.296 311.04H268.016V317H267.224V312.032L267.504 312.12L265.288 315.24H265.224L263.032 312.12L263.28 312.032V317H262.496ZM271.236 317.096C270.82 317.096 270.449 316.997 270.124 316.8C269.798 316.603 269.542 316.333 269.356 315.992C269.169 315.645 269.076 315.259 269.076 314.832C269.076 314.4 269.166 314.016 269.348 313.68C269.534 313.344 269.785 313.08 270.1 312.888C270.42 312.691 270.777 312.592 271.172 312.592C271.492 312.592 271.774 312.651 272.02 312.768C272.27 312.88 272.481 313.035 272.652 313.232C272.828 313.424 272.961 313.645 273.052 313.896C273.148 314.141 273.196 314.397 273.196 314.664C273.196 314.723 273.19 314.789 273.18 314.864C273.174 314.933 273.166 315 273.156 315.064H269.62V314.424H272.724L272.372 314.712C272.42 314.435 272.393 314.187 272.292 313.968C272.19 313.749 272.041 313.576 271.844 313.448C271.646 313.32 271.422 313.256 271.172 313.256C270.921 313.256 270.692 313.32 270.484 313.448C270.276 313.576 270.113 313.76 269.996 314C269.884 314.235 269.838 314.515 269.86 314.84C269.838 315.155 269.886 315.432 270.004 315.672C270.126 315.907 270.297 316.091 270.516 316.224C270.74 316.352 270.982 316.416 271.244 316.416C271.532 316.416 271.774 316.349 271.972 316.216C272.169 316.083 272.329 315.912 272.452 315.704L273.076 316.024C272.99 316.221 272.857 316.403 272.676 316.568C272.5 316.728 272.289 316.856 272.044 316.952C271.804 317.048 271.534 317.096 271.236 317.096ZM276.126 317.096C275.721 317.096 275.355 316.997 275.03 316.8C274.71 316.603 274.457 316.333 274.27 315.992C274.083 315.651 273.99 315.269 273.99 314.848C273.99 314.416 274.083 314.032 274.27 313.696C274.457 313.355 274.71 313.085 275.03 312.888C275.355 312.691 275.721 312.592 276.126 312.592C276.483 312.592 276.801 312.669 277.078 312.824C277.355 312.973 277.574 313.176 277.734 313.432L277.614 313.616V310.944H278.366V317H277.638V316.08L277.734 316.208C277.585 316.491 277.366 316.709 277.078 316.864C276.795 317.019 276.478 317.096 276.126 317.096ZM276.19 316.376C276.462 316.376 276.705 316.309 276.918 316.176C277.131 316.043 277.299 315.861 277.422 315.632C277.55 315.397 277.614 315.136 277.614 314.848C277.614 314.555 277.55 314.293 277.422 314.064C277.299 313.829 277.131 313.645 276.918 313.512C276.705 313.379 276.462 313.312 276.19 313.312C275.923 313.312 275.681 313.381 275.462 313.52C275.249 313.653 275.081 313.835 274.958 314.064C274.835 314.288 274.774 314.549 274.774 314.848C274.774 315.136 274.835 315.397 274.958 315.632C275.081 315.861 275.249 316.043 275.462 316.176C275.675 316.309 275.918 316.376 276.19 316.376ZM279.517 317V312.688H280.261V317H279.517ZM279.517 312V311.04H280.261V312H279.517ZM282.944 317.096C282.635 317.096 282.355 317.024 282.104 316.88C281.859 316.736 281.667 316.536 281.528 316.28C281.395 316.019 281.328 315.72 281.328 315.384V312.688H282.072V315.304C282.072 315.517 282.115 315.704 282.2 315.864C282.291 316.024 282.413 316.149 282.568 316.24C282.728 316.331 282.909 316.376 283.112 316.376C283.315 316.376 283.493 316.331 283.648 316.24C283.808 316.149 283.931 316.019 284.016 315.848C284.107 315.677 284.152 315.475 284.152 315.24V312.688H284.904V317H284.176V316.16L284.296 316.232C284.195 316.504 284.021 316.717 283.776 316.872C283.536 317.021 283.259 317.096 282.944 317.096ZM286.056 317V312.688H286.784V313.568L286.68 313.432C286.787 313.16 286.958 312.952 287.192 312.808C287.427 312.664 287.691 312.592 287.984 312.592C288.32 312.592 288.622 312.685 288.888 312.872C289.16 313.059 289.347 313.304 289.448 313.608L289.24 313.616C289.352 313.28 289.542 313.027 289.808 312.856C290.075 312.68 290.371 312.592 290.696 312.592C290.995 312.592 291.264 312.661 291.504 312.8C291.75 312.939 291.944 313.131 292.088 313.376C292.232 313.621 292.304 313.899 292.304 314.208V317H291.552V314.448C291.552 314.208 291.51 314.005 291.424 313.84C291.339 313.675 291.222 313.547 291.072 313.456C290.928 313.36 290.758 313.312 290.56 313.312C290.368 313.312 290.195 313.36 290.04 313.456C289.891 313.547 289.771 313.677 289.68 313.848C289.595 314.013 289.552 314.213 289.552 314.448V317H288.8V314.448C288.8 314.208 288.758 314.005 288.672 313.84C288.587 313.675 288.47 313.547 288.32 313.456C288.176 313.36 288.006 313.312 287.808 313.312C287.616 313.312 287.443 313.36 287.288 313.456C287.139 313.547 287.019 313.677 286.928 313.848C286.843 314.013 286.8 314.213 286.8 314.448V317H286.056Z" fill="#DBDBDB"/>
<path d="M15.7659 215.096C15.4459 215.096 15.1445 215.037 14.8619 214.92C14.5845 214.803 14.3445 214.637 14.1419 214.424C13.9445 214.211 13.8032 213.96 13.7179 213.672L14.5179 213.368C14.6245 213.651 14.7872 213.869 15.0059 214.024C15.2245 214.179 15.4779 214.256 15.7659 214.256C16.0005 214.256 16.2032 214.211 16.3739 214.12C16.5499 214.029 16.6859 213.901 16.7819 213.736C16.8832 213.571 16.9339 213.371 16.9339 213.136C16.9339 212.907 16.8832 212.709 16.7819 212.544C16.6859 212.379 16.5499 212.253 16.3739 212.168C16.2032 212.083 16.0005 212.04 15.7659 212.04C15.6699 212.04 15.5712 212.048 15.4699 212.064C15.3739 212.08 15.2885 212.101 15.2139 212.128L15.0059 211.688L16.5739 209.84H14.0379V209.04H17.6299V209.8L16.0939 211.64L16.0699 211.336C16.4272 211.341 16.7419 211.421 17.0139 211.576C17.2859 211.725 17.4965 211.933 17.6459 212.2C17.8005 212.461 17.8779 212.765 17.8779 213.112C17.8779 213.485 17.7872 213.824 17.6059 214.128C17.4245 214.427 17.1739 214.664 16.8539 214.84C16.5392 215.011 16.1765 215.096 15.7659 215.096ZM18.7125 215V214.32L20.3445 212.576C20.6645 212.235 20.9152 211.96 21.0965 211.752C21.2832 211.539 21.4165 211.352 21.4965 211.192C21.5818 211.032 21.6245 210.864 21.6245 210.688C21.6245 210.4 21.5365 210.179 21.3605 210.024C21.1845 209.864 20.9578 209.784 20.6805 209.784C20.3925 209.784 20.1445 209.867 19.9365 210.032C19.7285 210.192 19.5845 210.427 19.5045 210.736L18.6725 210.496C18.7365 210.181 18.8645 209.909 19.0565 209.68C19.2485 209.445 19.4832 209.264 19.7605 209.136C20.0432 209.008 20.3472 208.944 20.6725 208.944C21.0512 208.944 21.3818 209.016 21.6645 209.16C21.9472 209.299 22.1658 209.493 22.3205 209.744C22.4805 209.995 22.5605 210.285 22.5605 210.616C22.5605 210.835 22.5178 211.048 22.4325 211.256C22.3525 211.459 22.2272 211.675 22.0565 211.904C21.8858 212.128 21.6672 212.381 21.4005 212.664L19.9605 214.2H22.6725V215H18.7125ZM23.6217 216.6V210.672H24.4858V211.568L24.3818 211.36C24.5418 211.115 24.7551 210.923 25.0218 210.784C25.2884 210.645 25.5924 210.576 25.9338 210.576C26.3444 210.576 26.7124 210.675 27.0378 210.872C27.3684 211.069 27.6271 211.339 27.8138 211.68C28.0058 212.021 28.1018 212.405 28.1018 212.832C28.1018 213.259 28.0058 213.643 27.8138 213.984C27.6271 214.325 27.3711 214.597 27.0458 214.8C26.7204 214.997 26.3498 215.096 25.9338 215.096C25.5978 215.096 25.2911 215.027 25.0138 214.888C24.7418 214.749 24.5311 214.549 24.3818 214.288L24.5258 214.12V216.6H23.6217ZM25.8458 214.256C26.1018 214.256 26.3284 214.195 26.5258 214.072C26.7231 213.949 26.8778 213.781 26.9898 213.568C27.1071 213.349 27.1658 213.104 27.1658 212.832C27.1658 212.56 27.1071 212.317 26.9898 212.104C26.8778 211.891 26.7231 211.723 26.5258 211.6C26.3284 211.477 26.1018 211.416 25.8458 211.416C25.5951 211.416 25.3684 211.477 25.1658 211.6C24.9684 211.723 24.8111 211.891 24.6938 212.104C24.5818 212.317 24.5258 212.56 24.5258 212.832C24.5258 213.104 24.5818 213.349 24.6938 213.568C24.8111 213.781 24.9684 213.949 25.1658 214.072C25.3684 214.195 25.5951 214.256 25.8458 214.256ZM28.3929 215L29.9049 212.832L28.3929 210.672H29.4569L30.6969 212.48H30.1849L31.4249 210.672H32.4889L30.9689 212.832L32.4809 215H31.4169L30.1929 213.184H30.6889L29.4569 215H28.3929Z" fill="#DBDBDB"/>
<rect x="54" y="100" width="178" height="8" fill="#5870DC" fill-opacity="0.44" stroke="#5870DC" stroke-width="2" stroke-dasharray="4 4"/>
<rect x="54" y="12" width="178" height="5" fill="#DC588F" fill-opacity="0.44" stroke="#DC588F" stroke-width="2" stroke-dasharray="4 4"/>
<rect x="54" y="227" width="178" height="6" fill="#DC588F" fill-opacity="0.44" stroke="#DC588F" stroke-width="2" stroke-dasharray="4 4"/>
<rect x="53.5" y="282.5" width="179" height="3" fill="#298B50" fill-opacity="0.44" stroke="#298B50" stroke-dasharray="4 4"/>
<rect x="53.5" y="265.5" width="179" height="3" fill="#298B50" fill-opacity="0.44" stroke="#298B50" stroke-dasharray="4 4"/>
<rect x="53.5" y="247.5" width="179" height="3" fill="#298B50" fill-opacity="0.44" stroke="#298B50" stroke-dasharray="4 4"/>
<rect x="54" y="163" width="178" height="8" fill="#5870DC" fill-opacity="0.44" stroke="#5870DC" stroke-width="2" stroke-dasharray="4 4"/>
<rect x="54" y="184" width="178" height="9" fill="#5870DC" fill-opacity="0.44" stroke="#5870DC" stroke-width="2" stroke-dasharray="4 4"/>
<rect x="54" y="128" width="178" height="11" fill="#D158DC" fill-opacity="0.44" stroke="#D158DC" stroke-width="2" stroke-dasharray="4 4"/>
<rect x="54" y="209" width="178" height="11" fill="#D158DC" fill-opacity="0.44" stroke="#D158DC" stroke-width="2" stroke-dasharray="4 4"/>
<path d="M46.3684 99V108M49 108H44M49 99H44" stroke="#5870DC" stroke-linecap="round"/>
<path d="M46.3684 11V18M49 18H44M49 11H44" stroke="#DC588F" stroke-linecap="round"/>
<path d="M46.3684 227V233M49 233H44M49 227H44" stroke="#DC588F" stroke-linecap="round"/>
<path d="M46.3684 282V286M49 286H44M49 282H44" stroke="#298B50" stroke-linecap="round"/>
<path d="M46.3684 265V269M49 269H44M49 265H44" stroke="#298B50" stroke-linecap="round"/>
<path d="M46.3684 247V251M49 251H44M49 247H44" stroke="#298B50" stroke-linecap="round"/>
<path d="M46.3684 162V171M49 171H44M49 162H44" stroke="#5870DC" stroke-linecap="round"/>
<path d="M46.3684 184V193M49 193H44M49 184H44" stroke="#5870DC" stroke-linecap="round"/>
<path d="M46.3684 127V139M49 139H44M49 127H44" stroke="#D158DC" stroke-linecap="round"/>
<path d="M46.3684 208V220M49 220H44M49 208H44" stroke="#D158DC" stroke-linecap="round"/>
<path d="M127 143.5H237M127 143.5L129.075 146M127 143.5L129.075 141" stroke="#D4D4D5" stroke-width="2" stroke-linecap="round" stroke-linejoin="round"/>
<path d="M203 117.5H237M203 117.5L204.594 119M203 117.5L204.594 116" stroke="#D4D4D5" stroke-width="2" stroke-linecap="round" stroke-linejoin="round"/>
<path d="M170 174H237M170 174L171.832 176M170 174L171.832 172" stroke="#D4D4D5" stroke-width="2" stroke-linecap="round" stroke-linejoin="round"/>
<path d="M207 205H237M207 205L208.579 207M207 205L208.579 203" stroke="#D4D4D5" stroke-width="2" stroke-linecap="round" stroke-linejoin="round"/>
<path d="M154 242H237M154 242L155.566 244M154 242L155.566 240" stroke="#D4D4D5" stroke-width="2" stroke-linecap="round" stroke-linejoin="round"/>
<path d="M223 315H237M223 315L224.25 316M223 315L224.25 314" stroke="#D4D4D5" stroke-width="2" stroke-linecap="round" stroke-linejoin="round"/>
<defs>
<filter id="filter0_dd_690_5" x="0" y="152" width="46" height="28" filterUnits="userSpaceOnUse" color-interpolation-filters="sRGB">
<feFlood flood-opacity="0" result="BackgroundImageFix"/>
<feColorMatrix in="SourceAlpha" type="matrix" values="0 0 0 0 0 0 0 0 0 0 0 0 0 0 0 0 0 0 127 0" result="hardAlpha"/>
<feOffset dx="2" dy="2"/>
<feGaussianBlur stdDeviation="2"/>
<feComposite in2="hardAlpha" operator="out"/>
<feColorMatrix type="matrix" values="0 0 0 0 0.0588235 0 0 0 0 0.0627451 0 0 0 0 0.0705882 0 0 0 1 0"/>
<feBlend mode="normal" in2="BackgroundImageFix" result="effect1_dropShadow_690_5"/>
<feColorMatrix in="SourceAlpha" type="matrix" values="0 0 0 0 0 0 0 0 0 0 0 0 0 0 0 0 0 0 127 0" result="hardAlpha"/>
<feOffset dx="-2" dy="-2"/>
<feGaussianBlur stdDeviation="2"/>
<feComposite in2="hardAlpha" operator="out"/>
<feColorMatrix type="matrix" values="0 0 0 0 0.239216 0 0 0 0 0.243137 0 0 0 0 0.27451 0 0 0 0.6 0"/>
<feBlend mode="normal" in2="effect1_dropShadow_690_5" result="effect2_dropShadow_690_5"/>
<feBlend mode="normal" in="SourceGraphic" in2="effect2_dropShadow_690_5" result="shape"/>
</filter>
<filter id="filter1_dd_690_5" x="0" y="89" width="46" height="28" filterUnits="userSpaceOnUse" color-interpolation-filters="sRGB">
<feFlood flood-opacity="0" result="BackgroundImageFix"/>
<feColorMatrix in="SourceAlpha" type="matrix" values="0 0 0 0 0 0 0 0 0 0 0 0 0 0 0 0 0 0 127 0" result="hardAlpha"/>
<feOffset dx="2" dy="2"/>
<feGaussianBlur stdDeviation="2"/>
<feComposite in2="hardAlpha" operator="out"/>
<feColorMatrix type="matrix" values="0 0 0 0 0.0588235 0 0 0 0 0.0627451 0 0 0 0 0.0705882 0 0 0 1 0"/>
<feBlend mode="normal" in2="BackgroundImageFix" result="effect1_dropShadow_690_5"/>
<feColorMatrix in="SourceAlpha" type="matrix" values="0 0 0 0 0 0 0 0 0 0 0 0 0 0 0 0 0 0 127 0" result="hardAlpha"/>
<feOffset dx="-2" dy="-2"/>
<feGaussianBlur stdDeviation="2"/>
<feComposite in2="hardAlpha" operator="out"/>
<feColorMatrix type="matrix" values="0 0 0 0 0.239216 0 0 0 0 0.243137 0 0 0 0 0.27451 0 0 0 0.6 0"/>
<feBlend mode="normal" in2="effect1_dropShadow_690_5" result="effect2_dropShadow_690_5"/>
<feBlend mode="normal" in="SourceGraphic" in2="effect2_dropShadow_690_5" result="shape"/>
</filter>
<filter id="filter2_dd_690_5" x="0" y="0" width="46" height="28" filterUnits="userSpaceOnUse" color-interpolation-filters="sRGB">
<feFlood flood-opacity="0" result="BackgroundImageFix"/>
<feColorMatrix in="SourceAlpha" type="matrix" values="0 0 0 0 0 0 0 0 0 0 0 0 0 0 0 0 0 0 127 0" result="hardAlpha"/>
<feOffset dx="2" dy="2"/>
<feGaussianBlur stdDeviation="2"/>
<feComposite in2="hardAlpha" operator="out"/>
<feColorMatrix type="matrix" values="0 0 0 0 0.0588235 0 0 0 0 0.0627451 0 0 0 0 0.0705882 0 0 0 1 0"/>
<feBlend mode="normal" in2="BackgroundImageFix" result="effect1_dropShadow_690_5"/>
<feColorMatrix in="SourceAlpha" type="matrix" values="0 0 0 0 0 0 0 0 0 0 0 0 0 0 0 0 0 0 127 0" result="hardAlpha"/>
<feOffset dx="-2" dy="-2"/>
<feGaussianBlur stdDeviation="2"/>
<feComposite in2="hardAlpha" operator="out"/>
<feColorMatrix type="matrix" values="0 0 0 0 0.239216 0 0 0 0 0.243137 0 0 0 0 0.27451 0 0 0 0.6 0"/>
<feBlend mode="normal" in2="effect1_dropShadow_690_5" result="effect2_dropShadow_690_5"/>
<feBlend mode="normal" in="SourceGraphic" in2="effect2_dropShadow_690_5" result="shape"/>
</filter>
<filter id="filter3_dd_690_5" x="0" y="216" width="46" height="28" filterUnits="userSpaceOnUse" color-interpolation-filters="sRGB">
<feFlood flood-opacity="0" result="BackgroundImageFix"/>
<feColorMatrix in="SourceAlpha" type="matrix" values="0 0 0 0 0 0 0 0 0 0 0 0 0 0 0 0 0 0 127 0" result="hardAlpha"/>
<feOffset dx="2" dy="2"/>
<feGaussianBlur stdDeviation="2"/>
<feComposite in2="hardAlpha" operator="out"/>
<feColorMatrix type="matrix" values="0 0 0 0 0.0588235 0 0 0 0 0.0627451 0 0 0 0 0.0705882 0 0 0 1 0"/>
<feBlend mode="normal" in2="BackgroundImageFix" result="effect1_dropShadow_690_5"/>
<feColorMatrix in="SourceAlpha" type="matrix" values="0 0 0 0 0 0 0 0 0 0 0 0 0 0 0 0 0 0 127 0" result="hardAlpha"/>
<feOffset dx="-2" dy="-2"/>
<feGaussianBlur stdDeviation="2"/>
<feComposite in2="hardAlpha" operator="out"/>
<feColorMatrix type="matrix" values="0 0 0 0 0.239216 0 0 0 0 0.243137 0 0 0 0 0.27451 0 0 0 0.6 0"/>
<feBlend mode="normal" in2="effect1_dropShadow_690_5" result="effect2_dropShadow_690_5"/>
<feBlend mode="normal" in="SourceGraphic" in2="effect2_dropShadow_690_5" result="shape"/>
</filter>
<filter id="filter4_dd_690_5" x="0" y="270" width="46" height="28" filterUnits="userSpaceOnUse" color-interpolation-filters="sRGB">
<feFlood flood-opacity="0" result="BackgroundImageFix"/>
<feColorMatrix in="SourceAlpha" type="matrix" values="0 0 0 0 0 0 0 0 0 0 0 0 0 0 0 0 0 0 127 0" result="hardAlpha"/>
<feOffset dx="2" dy="2"/>
<feGaussianBlur stdDeviation="2"/>
<feComposite in2="hardAlpha" operator="out"/>
<feColorMatrix type="matrix" values="0 0 0 0 0.0588235 0 0 0 0 0.0627451 0 0 0 0 0.0705882 0 0 0 1 0"/>
<feBlend mode="normal" in2="BackgroundImageFix" result="effect1_dropShadow_690_5"/>
<feColorMatrix in="SourceAlpha" type="matrix" values="0 0 0 0 0 0 0 0 0 0 0 0 0 0 0 0 0 0 127 0" result="hardAlpha"/>
<feOffset dx="-2" dy="-2"/>
<feGaussianBlur stdDeviation="2"/>
<feComposite in2="hardAlpha" operator="out"/>
<feColorMatrix type="matrix" values="0 0 0 0 0.239216 0 0 0 0 0.243137 0 0 0 0 0.27451 0 0 0 0.6 0"/>
<feBlend mode="normal" in2="effect1_dropShadow_690_5" result="effect2_dropShadow_690_5"/>
<feBlend mode="normal" in="SourceGraphic" in2="effect2_dropShadow_690_5" result="shape"/>
</filter>
<filter id="filter5_dd_690_5" x="0" y="234" width="46" height="28" filterUnits="userSpaceOnUse" color-interpolation-filters="sRGB">
<feFlood flood-opacity="0" result="BackgroundImageFix"/>
<feColorMatrix in="SourceAlpha" type="matrix" values="0 0 0 0 0 0 0 0 0 0 0 0 0 0 0 0 0 0 127 0" result="hardAlpha"/>
<feOffset dx="2" dy="2"/>
<feGaussianBlur stdDeviation="2"/>
<feComposite in2="hardAlpha" operator="out"/>
<feColorMatrix type="matrix" values="0 0 0 0 0.0588235 0 0 0 0 0.0627451 0 0 0 0 0.0705882 0 0 0 1 0"/>
<feBlend mode="normal" in2="BackgroundImageFix" result="effect1_dropShadow_690_5"/>
<feColorMatrix in="SourceAlpha" type="matrix" values="0 0 0 0 0 0 0 0 0 0 0 0 0 0 0 0 0 0 127 0" result="hardAlpha"/>
<feOffset dx="-2" dy="-2"/>
<feGaussianBlur stdDeviation="2"/>
<feComposite in2="hardAlpha" operator="out"/>
<feColorMatrix type="matrix" values="0 0 0 0 0.239216 0 0 0 0 0.243137 0 0 0 0 0.27451 0 0 0 0.6 0"/>
<feBlend mode="normal" in2="effect1_dropShadow_690_5" result="effect2_dropShadow_690_5"/>
<feBlend mode="normal" in="SourceGraphic" in2="effect2_dropShadow_690_5" result="shape"/>
</filter>
<filter id="filter6_dd_690_5" x="0" y="35" width="46" height="28" filterUnits="userSpaceOnUse" color-interpolation-filters="sRGB">
<feFlood flood-opacity="0" result="BackgroundImageFix"/>
<feColorMatrix in="SourceAlpha" type="matrix" values="0 0 0 0 0 0 0 0 0 0 0 0 0 0 0 0 0 0 127 0" result="hardAlpha"/>
<feOffset dx="2" dy="2"/>
<feGaussianBlur stdDeviation="2"/>
<feComposite in2="hardAlpha" operator="out"/>
<feColorMatrix type="matrix" values="0 0 0 0 0.0588235 0 0 0 0 0.0627451 0 0 0 0 0.0705882 0 0 0 1 0"/>
<feBlend mode="normal" in2="BackgroundImageFix" result="effect1_dropShadow_690_5"/>
<feColorMatrix in="SourceAlpha" type="matrix" values="0 0 0 0 0 0 0 0 0 0 0 0 0 0 0 0 0 0 127 0" result="hardAlpha"/>
<feOffset dx="-2" dy="-2"/>
<feGaussianBlur stdDeviation="2"/>
<feComposite in2="hardAlpha" operator="out"/>
<feColorMatrix type="matrix" values="0 0 0 0 0.239216 0 0 0 0 0.243137 0 0 0 0 0.27451 0 0 0 0.6 0"/>
<feBlend mode="normal" in2="effect1_dropShadow_690_5" result="effect2_dropShadow_690_5"/>
<feBlend mode="normal" in="SourceGraphic" in2="effect2_dropShadow_690_5" result="shape"/>
</filter>
<filter id="filter7_dd_690_5" x="0" y="175" width="46" height="28" filterUnits="userSpaceOnUse" color-interpolation-filters="sRGB">
<feFlood flood-opacity="0" result="BackgroundImageFix"/>
<feColorMatrix in="SourceAlpha" type="matrix" values="0 0 0 0 0 0 0 0 0 0 0 0 0 0 0 0 0 0 127 0" result="hardAlpha"/>
<feOffset dx="2" dy="2"/>
<feGaussianBlur stdDeviation="2"/>
<feComposite in2="hardAlpha" operator="out"/>
<feColorMatrix type="matrix" values="0 0 0 0 0.0588235 0 0 0 0 0.0627451 0 0 0 0 0.0705882 0 0 0 1 0"/>
<feBlend mode="normal" in2="BackgroundImageFix" result="effect1_dropShadow_690_5"/>
<feColorMatrix in="SourceAlpha" type="matrix" values="0 0 0 0 0 0 0 0 0 0 0 0 0 0 0 0 0 0 127 0" result="hardAlpha"/>
<feOffset dx="-2" dy="-2"/>
<feGaussianBlur stdDeviation="2"/>
<feComposite in2="hardAlpha" operator="out"/>
<feColorMatrix type="matrix" values="0 0 0 0 0.239216 0 0 0 0 0.243137 0 0 0 0 0.27451 0 0 0 0.6 0"/>
<feBlend mode="normal" in2="effect1_dropShadow_690_5" result="effect2_dropShadow_690_5"/>
<feBlend mode="normal" in="SourceGraphic" in2="effect2_dropShadow_690_5" result="shape"/>
</filter>
<filter id="filter8_dd_690_5" x="0" y="117" width="46" height="28" filterUnits="userSpaceOnUse" color-interpolation-filters="sRGB">
<feFlood flood-opacity="0" result="BackgroundImageFix"/>
<feColorMatrix in="SourceAlpha" type="matrix" values="0 0 0 0 0 0 0 0 0 0 0 0 0 0 0 0 0 0 127 0" result="hardAlpha"/>
<feOffset dx="2" dy="2"/>
<feGaussianBlur stdDeviation="2"/>
<feComposite in2="hardAlpha" operator="out"/>
<feColorMatrix type="matrix" values="0 0 0 0 0.0588235 0 0 0 0 0.0627451 0 0 0 0 0.0705882 0 0 0 1 0"/>
<feBlend mode="normal" in2="BackgroundImageFix" result="effect1_dropShadow_690_5"/>
<feColorMatrix in="SourceAlpha" type="matrix" values="0 0 0 0 0 0 0 0 0 0 0 0 0 0 0 0 0 0 127 0" result="hardAlpha"/>
<feOffset dx="-2" dy="-2"/>
<feGaussianBlur stdDeviation="2"/>
<feComposite in2="hardAlpha" operator="out"/>
<feColorMatrix type="matrix" values="0 0 0 0 0.239216 0 0 0 0 0.243137 0 0 0 0 0.27451 0 0 0 0.6 0"/>
<feBlend mode="normal" in2="effect1_dropShadow_690_5" result="effect2_dropShadow_690_5"/>
<feBlend mode="normal" in="SourceGraphic" in2="effect2_dropShadow_690_5" result="shape"/>
</filter>
<filter id="filter9_dd_690_5" x="233" y="130" width="75" height="28" filterUnits="userSpaceOnUse" color-interpolation-filters="sRGB">
<feFlood flood-opacity="0" result="BackgroundImageFix"/>
<feColorMatrix in="SourceAlpha" type="matrix" values="0 0 0 0 0 0 0 0 0 0 0 0 0 0 0 0 0 0 127 0" result="hardAlpha"/>
<feOffset dx="2" dy="2"/>
<feGaussianBlur stdDeviation="2"/>
<feComposite in2="hardAlpha" operator="out"/>
<feColorMatrix type="matrix" values="0 0 0 0 0.0588235 0 0 0 0 0.0627451 0 0 0 0 0.0705882 0 0 0 1 0"/>
<feBlend mode="normal" in2="BackgroundImageFix" result="effect1_dropShadow_690_5"/>
<feColorMatrix in="SourceAlpha" type="matrix" values="0 0 0 0 0 0 0 0 0 0 0 0 0 0 0 0 0 0 127 0" result="hardAlpha"/>
<feOffset dx="-2" dy="-2"/>
<feGaussianBlur stdDeviation="2"/>
<feComposite in2="hardAlpha" operator="out"/>
<feColorMatrix type="matrix" values="0 0 0 0 0.239216 0 0 0 0 0.243137 0 0 0 0 0.27451 0 0 0 0.6 0"/>
<feBlend mode="normal" in2="effect1_dropShadow_690_5" result="effect2_dropShadow_690_5"/>
<feBlend mode="normal" in="SourceGraphic" in2="effect2_dropShadow_690_5" result="shape"/>
</filter>
<filter id="filter10_dd_690_5" x="233" y="104" width="75" height="28" filterUnits="userSpaceOnUse" color-interpolation-filters="sRGB">
<feFlood flood-opacity="0" result="BackgroundImageFix"/>
<feColorMatrix in="SourceAlpha" type="matrix" values="0 0 0 0 0 0 0 0 0 0 0 0 0 0 0 0 0 0 127 0" result="hardAlpha"/>
<feOffset dx="2" dy="2"/>
<feGaussianBlur stdDeviation="2"/>
<feComposite in2="hardAlpha" operator="out"/>
<feColorMatrix type="matrix" values="0 0 0 0 0.0588235 0 0 0 0 0.0627451 0 0 0 0 0.0705882 0 0 0 1 0"/>
<feBlend mode="normal" in2="BackgroundImageFix" result="effect1_dropShadow_690_5"/>
<feColorMatrix in="SourceAlpha" type="matrix" values="0 0 0 0 0 0 0 0 0 0 0 0 0 0 0 0 0 0 127 0" result="hardAlpha"/>
<feOffset dx="-2" dy="-2"/>
<feGaussianBlur stdDeviation="2"/>
<feComposite in2="hardAlpha" operator="out"/>
<feColorMatrix type="matrix" values="0 0 0 0 0.239216 0 0 0 0 0.243137 0 0 0 0 0.27451 0 0 0 0.6 0"/>
<feBlend mode="normal" in2="effect1_dropShadow_690_5" result="effect2_dropShadow_690_5"/>
<feBlend mode="normal" in="SourceGraphic" in2="effect2_dropShadow_690_5" result="shape"/>
</filter>
<filter id="filter11_dd_690_5" x="233" y="160" width="75" height="28" filterUnits="userSpaceOnUse" color-interpolation-filters="sRGB">
<feFlood flood-opacity="0" result="BackgroundImageFix"/>
<feColorMatrix in="SourceAlpha" type="matrix" values="0 0 0 0 0 0 0 0 0 0 0 0 0 0 0 0 0 0 127 0" result="hardAlpha"/>
<feOffset dx="2" dy="2"/>
<feGaussianBlur stdDeviation="2"/>
<feComposite in2="hardAlpha" operator="out"/>
<feColorMatrix type="matrix" values="0 0 0 0 0.0588235 0 0 0 0 0.0627451 0 0 0 0 0.0705882 0 0 0 1 0"/>
<feBlend mode="normal" in2="BackgroundImageFix" result="effect1_dropShadow_690_5"/>
<feColorMatrix in="SourceAlpha" type="matrix" values="0 0 0 0 0 0 0 0 0 0 0 0 0 0 0 0 0 0 127 0" result="hardAlpha"/>
<feOffset dx="-2" dy="-2"/>
<feGaussianBlur stdDeviation="2"/>
<feComposite in2="hardAlpha" operator="out"/>
<feColorMatrix type="matrix" values="0 0 0 0 0.239216 0 0 0 0 0.243137 0 0 0 0 0.27451 0 0 0 0.6 0"/>
<feBlend mode="normal" in2="effect1_dropShadow_690_5" result="effect2_dropShadow_690_5"/>
<feBlend mode="normal" in="SourceGraphic" in2="effect2_dropShadow_690_5" result="shape"/>
</filter>
<filter id="filter12_dd_690_5" x="233" y="191" width="75" height="27" filterUnits="userSpaceOnUse" color-interpolation-filters="sRGB">
<feFlood flood-opacity="0" result="BackgroundImageFix"/>
<feColorMatrix in="SourceAlpha" type="matrix" values="0 0 0 0 0 0 0 0 0 0 0 0 0 0 0 0 0 0 127 0" result="hardAlpha"/>
<feOffset dx="2" dy="2"/>
<feGaussianBlur stdDeviation="2"/>
<feComposite in2="hardAlpha" operator="out"/>
<feColorMatrix type="matrix" values="0 0 0 0 0.0588235 0 0 0 0 0.0627451 0 0 0 0 0.0705882 0 0 0 1 0"/>
<feBlend mode="normal" in2="BackgroundImageFix" result="effect1_dropShadow_690_5"/>
<feColorMatrix in="SourceAlpha" type="matrix" values="0 0 0 0 0 0 0 0 0 0 0 0 0 0 0 0 0 0 127 0" result="hardAlpha"/>
<feOffset dx="-2" dy="-2"/>
<feGaussianBlur stdDeviation="2"/>
<feComposite in2="hardAlpha" operator="out"/>
<feColorMatrix type="matrix" values="0 0 0 0 0.239216 0 0 0 0 0.243137 0 0 0 0 0.27451 0 0 0 0.6 0"/>
<feBlend mode="normal" in2="effect1_dropShadow_690_5" result="effect2_dropShadow_690_5"/>
<feBlend mode="normal" in="SourceGraphic" in2="effect2_dropShadow_690_5" result="shape"/>
</filter>
<filter id="filter13_dd_690_5" x="233" y="228" width="75" height="27" filterUnits="userSpaceOnUse" color-interpolation-filters="sRGB">
<feFlood flood-opacity="0" result="BackgroundImageFix"/>
<feColorMatrix in="SourceAlpha" type="matrix" values="0 0 0 0 0 0 0 0 0 0 0 0 0 0 0 0 0 0 127 0" result="hardAlpha"/>
<feOffset dx="2" dy="2"/>
<feGaussianBlur stdDeviation="2"/>
<feComposite in2="hardAlpha" operator="out"/>
<feColorMatrix type="matrix" values="0 0 0 0 0.0588235 0 0 0 0 0.0627451 0 0 0 0 0.0705882 0 0 0 1 0"/>
<feBlend mode="normal" in2="BackgroundImageFix" result="effect1_dropShadow_690_5"/>
<feColorMatrix in="SourceAlpha" type="matrix" values="0 0 0 0 0 0 0 0 0 0 0 0 0 0 0 0 0 0 127 0" result="hardAlpha"/>
<feOffset dx="-2" dy="-2"/>
<feGaussianBlur stdDeviation="2"/>
<feComposite in2="hardAlpha" operator="out"/>
<feColorMatrix type="matrix" values="0 0 0 0 0.239216 0 0 0 0 0.243137 0 0 0 0 0.27451 0 0 0 0.6 0"/>
<feBlend mode="normal" in2="effect1_dropShadow_690_5" result="effect2_dropShadow_690_5"/>
<feBlend mode="normal" in="SourceGraphic" in2="effect2_dropShadow_690_5" result="shape"/>
</filter>
<filter id="filter14_dd_690_5" x="233" y="301" width="75" height="26" filterUnits="userSpaceOnUse" color-interpolation-filters="sRGB">
<feFlood flood-opacity="0" result="BackgroundImageFix"/>
<feColorMatrix in="SourceAlpha" type="matrix" values="0 0 0 0 0 0 0 0 0 0 0 0 0 0 0 0 0 0 127 0" result="hardAlpha"/>
<feOffset dx="2" dy="2"/>
<feGaussianBlur stdDeviation="2"/>
<feComposite in2="hardAlpha" operator="out"/>
<feColorMatrix type="matrix" values="0 0 0 0 0.0588235 0 0 0 0 0.0627451 0 0 0 0 0.0705882 0 0 0 1 0"/>
<feBlend mode="normal" in2="BackgroundImageFix" result="effect1_dropShadow_690_5"/>
<feColorMatrix in="SourceAlpha" type="matrix" values="0 0 0 0 0 0 0 0 0 0 0 0 0 0 0 0 0 0 127 0" result="hardAlpha"/>
<feOffset dx="-2" dy="-2"/>
<feGaussianBlur stdDeviation="2"/>
<feComposite in2="hardAlpha" operator="out"/>
<feColorMatrix type="matrix" values="0 0 0 0 0.239216 0 0 0 0 0.243137 0 0 0 0 0.27451 0 0 0 0.6 0"/>
<feBlend mode="normal" in2="effect1_dropShadow_690_5" result="effect2_dropShadow_690_5"/>
<feBlend mode="normal" in="SourceGraphic" in2="effect2_dropShadow_690_5" result="shape"/>
</filter>
<filter id="filter15_dd_690_5" x="0" y="198" width="46" height="28" filterUnits="userSpaceOnUse" color-interpolation-filters="sRGB">
<feFlood flood-opacity="0" result="BackgroundImageFix"/>
<feColorMatrix in="SourceAlpha" type="matrix" values="0 0 0 0 0 0 0 0 0 0 0 0 0 0 0 0 0 0 127 0" result="hardAlpha"/>
<feOffset dx="2" dy="2"/>
<feGaussianBlur stdDeviation="2"/>
<feComposite in2="hardAlpha" operator="out"/>
<feColorMatrix type="matrix" values="0 0 0 0 0.0588235 0 0 0 0 0.0627451 0 0 0 0 0.0705882 0 0 0 1 0"/>
<feBlend mode="normal" in2="BackgroundImageFix" result="effect1_dropShadow_690_5"/>
<feColorMatrix in="SourceAlpha" type="matrix" values="0 0 0 0 0 0 0 0 0 0 0 0 0 0 0 0 0 0 127 0" result="hardAlpha"/>
<feOffset dx="-2" dy="-2"/>
<feGaussianBlur stdDeviation="2"/>
<feComposite in2="hardAlpha" operator="out"/>
<feColorMatrix type="matrix" values="0 0 0 0 0.239216 0 0 0 0 0.243137 0 0 0 0 0.27451 0 0 0 0.6 0"/>
<feBlend mode="normal" in2="effect1_dropShadow_690_5" result="effect2_dropShadow_690_5"/>
<feBlend mode="normal" in="SourceGraphic" in2="effect2_dropShadow_690_5" result="shape"/>
</filter>
</defs>
</svg>
