<svg width="543" height="232" viewBox="0 0 543 232" fill="none" xmlns="http://www.w3.org/2000/svg">
<g clip-path="url(#clip0_936_215)">
<path d="M119.185 129.427C119.19 128.715 119.048 128.01 118.767 127.355C118.486 126.7 118.074 126.11 117.554 125.622C117.035 125.133 116.42 124.757 115.748 124.516C115.076 124.275 114.362 124.175 113.649 124.222C112.937 124.269 112.242 124.462 111.608 124.789C110.974 125.116 110.414 125.57 109.963 126.122C109.513 126.674 109.181 127.313 108.989 127.999C108.797 128.685 108.749 129.403 108.848 130.108L93.9271 149.599C93.2904 150.869 93.0435 152.298 93.2174 153.708C93.3914 155.117 93.9783 156.444 94.9049 157.523L96.0754 158.884L101.446 157.813L107.533 152.456L106.816 146.385L114.335 134.599L114.326 134.591C115.642 134.507 116.876 133.927 117.779 132.968C118.682 132.009 119.184 130.743 119.185 129.427Z" fill="#D7B287"/>
<path d="M16.0005 224.715L13.5648 215.691L47.2969 202.027L50.8915 215.344L16.0005 224.715Z" fill="#D7B287"/>
<path d="M7.85304 229.371L0 200.277L0.368917 200.178C3.37982 199.369 6.58938 199.787 9.29165 201.339C11.9939 202.89 13.9676 205.449 14.7785 208.452L14.7787 208.453L19.575 226.223L7.85304 229.371Z" fill="#2F2E41"/>
<path d="M62.4649 223.272L54.8889 217.777L72.5352 186.012L83.717 194.123L62.4649 223.272Z" fill="#CBA274"/>
<path d="M59.0566 232L34.6273 214.279L34.852 213.971C36.6859 211.455 39.4465 209.77 42.5264 209.284C45.6063 208.799 48.7533 209.554 51.2753 211.383L51.2759 211.383L66.1964 222.207L59.0566 232Z" fill="#2F2E41"/>
<path d="M126.867 178.884L107.801 160.41C106.137 158.798 103.946 157.839 101.63 157.71C99.3136 157.581 97.0286 158.29 95.1951 159.708L59.1971 199.598L62.4195 204.598L96.7911 181.384L120.064 211.741L142.262 200.669L126.867 178.884Z" fill="#1D1C32"/>
<path d="M118.632 182.813L104.668 181.741L94.5558 179.296C93.9846 178.407 93.1548 177.713 92.1775 177.308C91.2002 176.903 90.1221 176.805 89.0874 177.027C88.0528 177.25 87.111 177.782 86.3881 178.554C85.6653 179.325 85.1959 180.298 85.0428 181.343C84.8897 182.387 85.0602 183.454 85.5315 184.399C86.0028 185.344 86.7523 186.124 87.6798 186.632C88.6073 187.141 89.6685 187.355 90.7212 187.245C91.774 187.136 92.7681 186.708 93.5704 186.02L93.5689 186.027L99.6557 188.527L125.792 197.455L129.015 194.955L118.632 182.813Z" fill="#CBA274"/>
<path d="M152.287 221.384L144.41 226.384H135.101L91.7788 210.313L28.4058 221.741L26.6157 208.169L84.6182 182.813L135.46 199.598L152.287 221.384Z" fill="#2F2E41"/>
<path d="M135.46 134.599C143.171 134.599 149.423 128.363 149.423 120.671C149.423 112.979 143.171 106.743 135.46 106.743C127.748 106.743 121.496 112.979 121.496 120.671C121.496 128.363 127.748 134.599 135.46 134.599Z" fill="#D7B287"/>
<path d="M171.589 176.281C171.589 184.687 170.261 193.04 167.654 201.034L166.609 204.241L161.596 227.098L156.226 228.526L152.287 223.526L144.411 217.812L138.682 208.527L133.77 200.362L132.237 197.812L126.867 171.027L106.458 159.599L99.6556 158.527L101.088 154.599L107.174 146.385L113.261 145.67L115.051 144.242L116.483 144.956L124.378 147.99L149.974 137.203L153.72 137.813L166.609 148.527C169.904 157.411 171.59 166.808 171.589 176.281Z" fill="#CCCCCC"/>
<path opacity="0.1" d="M167.683 173.17L154.078 182.098L133.77 200.362L132.237 197.812L127.941 176.384H129.015L140.114 156.028L167.683 173.17Z" fill="black"/>
<path d="M140.114 153.885L129.015 174.241L122.57 181.384L116.842 182.813L132.237 199.598L154.078 179.956L167.683 171.027L140.114 153.885Z" fill="#CCCCCC"/>
<path d="M124.599 110.314L123.086 110.895C122.856 110.74 122.659 110.541 122.507 110.31C122.354 110.079 122.249 109.82 122.196 109.549C122.144 109.277 122.145 108.998 122.201 108.727C122.257 108.456 122.366 108.198 122.521 107.969C122.529 107.957 122.538 107.945 122.546 107.934L119.75 107.803C121.545 105.419 123.827 103.442 126.445 102.003C129.063 100.564 131.957 99.6963 134.937 99.4567C137.916 99.2172 140.912 99.6115 143.728 100.613C146.543 101.615 149.113 103.202 151.267 105.269C151.394 104.832 152.782 105.683 153.349 106.545C153.539 105.834 154.84 109.274 155.3 111.705C155.513 110.895 156.332 112.202 155.615 113.457C156.069 113.39 156.275 114.551 155.923 115.197C156.42 114.964 156.336 116.349 155.797 117.275C156.507 117.212 155.736 131.796 145.084 130.733C144.342 127.334 144.551 127.545 143.678 123.175C143.272 122.744 142.827 122.352 142.382 121.961L139.979 119.845C137.184 117.384 134.641 114.347 130.918 113.427C128.36 112.795 126.742 112.653 128.136 109.777C126.876 110.301 125.7 111.081 124.429 111.568C124.446 111.166 124.624 110.716 124.599 110.314Z" fill="#2F2E41"/>
<path d="M142.441 124.778C143.826 124.778 144.948 123.659 144.948 122.278C144.948 120.898 143.826 119.778 142.441 119.778C141.057 119.778 139.935 120.898 139.935 122.278C139.935 123.659 141.057 124.778 142.441 124.778Z" fill="#CBA274"/>
<path d="M513.063 0H172.513C171.282 -1.39537e-06 170.064 0.241835 168.926 0.711702C167.789 1.18157 166.756 1.87026 165.885 2.73846C165.015 3.60667 164.325 4.63737 163.853 5.77174C163.382 6.9061 163.14 8.1219 163.14 9.34972V198.619C163.14 199.847 163.382 201.063 163.853 202.197C164.325 203.332 165.015 204.362 165.885 205.231C166.756 206.099 167.789 206.788 168.926 207.257C170.064 207.727 171.282 207.969 172.513 207.969H513.063C515.549 207.969 517.933 206.984 519.691 205.231C521.449 203.477 522.436 201.099 522.436 198.619V9.34972C522.436 6.87002 521.449 4.49189 519.691 2.73847C517.933 0.985059 515.549 1.40904e-06 513.063 0Z" fill="#121212"/>
<path d="M509.869 16.5234H175.707V204.55H509.869V16.5234Z" fill="white"/>
<path d="M342.502 11.3954C344.395 11.3954 345.93 9.86485 345.93 7.97677C345.93 6.08869 344.395 4.55811 342.502 4.55811C340.61 4.55811 339.075 6.08869 339.075 7.97677C339.075 9.86485 340.61 11.3954 342.502 11.3954Z" fill="white"/>
<path d="M414.305 204.551H175.707V16.5239L414.305 204.551Z" fill="#F2F2F2"/>
<path d="M227.993 190.48C245.733 190.48 260.114 176.136 260.114 158.441C260.114 140.746 245.733 126.401 227.993 126.401C210.253 126.401 195.872 140.746 195.872 158.441C195.872 176.136 210.253 190.48 227.993 190.48Z" fill="#6C63FF"/>
<path d="M235.144 182.522C227.241 182.522 219.516 180.184 212.946 175.805C206.375 171.426 201.254 165.201 198.23 157.919C195.206 150.637 194.415 142.623 195.956 134.892C197.498 127.161 201.303 120.06 206.891 114.486C212.479 108.912 219.598 105.117 227.349 103.579C235.099 102.041 243.133 102.83 250.434 105.847C257.735 108.863 263.975 113.971 268.365 120.525C272.755 127.08 275.099 134.785 275.099 142.667C275.099 147.901 274.065 153.084 272.057 157.919C270.049 162.754 267.106 167.148 263.396 170.849C259.686 174.549 255.281 177.485 250.434 179.488C245.586 181.491 240.391 182.522 235.144 182.522ZM235.144 103.334C227.345 103.334 219.721 105.641 213.236 109.963C206.751 114.285 201.697 120.428 198.712 127.615C195.728 134.802 194.947 142.711 196.469 150.341C197.99 157.971 201.746 164.979 207.26 170.48C212.775 175.981 219.801 179.727 227.451 181.245C235.1 182.763 243.028 181.984 250.234 179.007C257.439 176.03 263.598 170.988 267.931 164.52C272.264 158.052 274.576 150.447 274.576 142.667C274.576 137.502 273.556 132.387 271.575 127.615C269.593 122.843 266.689 118.507 263.027 114.854C259.365 111.202 255.018 108.305 250.234 106.328C245.45 104.351 240.322 103.334 235.144 103.334Z" fill="#3F3D56"/>
<path d="M462.044 78.9624H371.765V81.7507H462.044V78.9624Z" fill="#3F3D56"/>
<path d="M462.048 111.569H371.77V114.357H462.048V111.569Z" fill="#3F3D56"/>
<path d="M462.053 144.175H371.775V146.964H462.053V144.175Z" fill="#3F3D56"/>
<path d="M461.784 89.7861H394.141V92.4425H461.784V89.7861Z" fill="#6C63FF"/>
<path d="M461.784 122.194H394.141V124.851H461.784V122.194Z" fill="#6C63FF"/>
<path d="M461.784 100.943H394.141V103.6H461.784V100.943Z" fill="#3F3D56"/>
<path d="M461.784 133.351H394.141V136.007H461.784V133.351Z" fill="#6C63FF"/>
<path d="M486.227 27.7764H473.182V40.7883H486.227V27.7764Z" fill="#6C63FF"/>
<path d="M492.284 46.8296H476.444V31.0293H492.284V46.8296ZM477.132 46.1426H491.595V31.7163H477.132L477.132 46.1426Z" fill="#CCCCCC"/>
<path d="M531.819 201.132H499.207V198.788C499.207 198.727 499.195 198.667 499.171 198.61C499.148 198.554 499.113 198.503 499.07 198.459C499.027 198.416 498.976 198.382 498.919 198.359C498.862 198.335 498.802 198.323 498.741 198.323H487.559C487.498 198.323 487.438 198.335 487.381 198.359C487.325 198.382 487.273 198.416 487.23 198.459C487.187 198.502 487.152 198.554 487.129 198.61C487.106 198.666 487.093 198.727 487.093 198.788V201.132H480.105V198.788C480.105 198.727 480.093 198.667 480.07 198.61C480.046 198.554 480.012 198.502 479.969 198.459C479.926 198.416 479.874 198.382 479.818 198.359C479.761 198.335 479.701 198.323 479.639 198.323H468.458C468.397 198.323 468.336 198.335 468.28 198.359C468.223 198.382 468.172 198.416 468.129 198.459C468.085 198.503 468.051 198.554 468.028 198.61C468.004 198.667 467.992 198.727 467.992 198.788V201.132H461.004V198.788C461.004 198.727 460.992 198.667 460.968 198.61C460.945 198.554 460.911 198.503 460.867 198.459C460.824 198.416 460.773 198.382 460.716 198.359C460.66 198.335 460.599 198.323 460.538 198.323H449.357C449.295 198.323 449.235 198.335 449.178 198.359C449.122 198.382 449.071 198.416 449.027 198.459C448.984 198.502 448.95 198.554 448.926 198.61C448.903 198.667 448.891 198.727 448.891 198.788V201.132H441.903V198.788C441.903 198.727 441.89 198.667 441.867 198.61C441.844 198.554 441.809 198.502 441.766 198.459C441.723 198.416 441.671 198.382 441.615 198.359C441.558 198.335 441.498 198.323 441.437 198.323H430.255C430.194 198.323 430.134 198.335 430.077 198.359C430.021 198.382 429.969 198.416 429.926 198.459C429.883 198.502 429.848 198.554 429.825 198.61C429.802 198.666 429.789 198.727 429.789 198.788V201.132H422.801V198.788C422.801 198.727 422.789 198.667 422.766 198.61C422.742 198.554 422.708 198.502 422.665 198.459C422.621 198.416 422.57 198.382 422.514 198.359C422.457 198.335 422.396 198.323 422.335 198.323H411.154C411.093 198.323 411.032 198.335 410.976 198.359C410.919 198.382 410.868 198.416 410.825 198.459C410.781 198.503 410.747 198.554 410.724 198.61C410.7 198.667 410.688 198.727 410.688 198.788V201.132H403.7V198.788C403.7 198.727 403.688 198.667 403.664 198.61C403.641 198.554 403.607 198.503 403.563 198.459C403.52 198.416 403.469 198.382 403.412 198.359C403.356 198.335 403.295 198.323 403.234 198.323H392.053C391.991 198.323 391.931 198.335 391.874 198.359C391.818 198.382 391.766 198.416 391.723 198.459C391.68 198.502 391.646 198.554 391.622 198.61C391.599 198.667 391.587 198.727 391.587 198.788V201.132H384.598V198.788C384.598 198.727 384.586 198.667 384.563 198.61C384.54 198.554 384.505 198.502 384.462 198.459C384.419 198.416 384.367 198.382 384.311 198.359C384.254 198.335 384.194 198.323 384.133 198.323H296.546C296.485 198.323 296.424 198.335 296.367 198.359C296.311 198.382 296.26 198.416 296.216 198.459C296.173 198.503 296.139 198.554 296.115 198.61C296.092 198.667 296.08 198.727 296.08 198.788V201.132H289.092V198.788C289.092 198.727 289.079 198.667 289.056 198.61C289.033 198.554 288.998 198.503 288.955 198.459C288.912 198.416 288.86 198.382 288.804 198.359C288.747 198.335 288.687 198.323 288.626 198.323H277.444C277.383 198.323 277.323 198.335 277.266 198.359C277.21 198.382 277.158 198.416 277.115 198.459C277.072 198.502 277.037 198.554 277.014 198.61C276.991 198.667 276.979 198.727 276.979 198.788V201.132H269.99V198.788C269.99 198.727 269.978 198.667 269.955 198.61C269.931 198.554 269.897 198.503 269.854 198.459C269.811 198.416 269.759 198.382 269.703 198.359C269.646 198.335 269.586 198.323 269.524 198.323H258.343C258.282 198.323 258.221 198.335 258.165 198.359C258.108 198.382 258.057 198.416 258.014 198.459C257.97 198.503 257.936 198.554 257.913 198.61C257.889 198.667 257.877 198.727 257.877 198.788V201.132H250.889V198.788C250.889 198.727 250.877 198.667 250.853 198.61C250.83 198.554 250.796 198.503 250.752 198.459C250.709 198.416 250.658 198.382 250.601 198.359C250.545 198.335 250.484 198.323 250.423 198.323H239.242C239.18 198.323 239.12 198.335 239.063 198.359C239.007 198.382 238.955 198.416 238.912 198.459C238.869 198.502 238.835 198.554 238.811 198.61C238.788 198.667 238.776 198.727 238.776 198.788V201.132H231.787V198.788C231.787 198.727 231.775 198.667 231.752 198.61C231.729 198.554 231.694 198.503 231.651 198.459C231.608 198.416 231.556 198.382 231.5 198.359C231.443 198.335 231.383 198.323 231.322 198.323H220.14C220.079 198.323 220.019 198.335 219.962 198.359C219.905 198.382 219.854 198.416 219.811 198.459C219.768 198.502 219.733 198.554 219.71 198.61C219.686 198.667 219.674 198.727 219.674 198.788V201.132H212.686V198.788C212.686 198.727 212.674 198.667 212.651 198.61C212.627 198.554 212.593 198.502 212.55 198.459C212.506 198.416 212.455 198.382 212.398 198.359C212.342 198.335 212.281 198.323 212.22 198.323H201.039C200.915 198.323 200.797 198.372 200.709 198.459C200.622 198.546 200.573 198.665 200.573 198.788V201.132H193.585V198.788C193.585 198.727 193.573 198.667 193.549 198.61C193.526 198.554 193.492 198.503 193.448 198.459C193.405 198.416 193.354 198.382 193.297 198.359C193.241 198.335 193.18 198.323 193.119 198.323H181.938C181.814 198.323 181.695 198.372 181.608 198.459C181.521 198.547 181.472 198.665 181.472 198.788V201.132H160.041C157.075 201.132 154.231 202.307 152.134 204.398C150.038 206.49 148.86 209.327 148.86 212.285V217.328C148.86 220.286 150.038 223.123 152.134 225.214C154.231 227.306 157.075 228.481 160.041 228.481H531.819C534.784 228.481 537.628 227.306 539.725 225.214C541.822 223.123 543 220.286 543 217.328V212.285C543 210.82 542.711 209.37 542.149 208.017C541.587 206.664 540.763 205.434 539.725 204.398C538.687 203.363 537.454 202.541 536.098 201.981C534.741 201.42 533.287 201.132 531.819 201.132Z" fill="#121212"/>
</g>
<defs>
<clipPath id="clip0_936_215">
<rect width="543" height="232" fill="white"/>
</clipPath>
</defs>
</svg>
