<svg width="24" height="24" viewBox="0 0 24 24" fill="none" xmlns="http://www.w3.org/2000/svg">
<path d="M3.11111 2.27089C2.86565 2.27089 2.66667 2.44035 2.66667 2.64938V17.1078C2.66667 17.243 2.75145 17.3681 2.88905 17.4356L11.5268 21.6786C11.6612 21.7446 11.8263 21.7461 11.9624 21.6826L21.1024 17.4174C21.2448 17.351 21.3333 17.2238 21.3333 17.0856V2.64938C21.3333 2.44035 21.1344 2.27089 20.8889 2.27089H3.11111ZM0 2.64938C0 1.18617 1.39289 0 3.11111 0H20.8889C22.6071 0 24 1.18617 24 2.64938V17.0856C24 18.0533 23.3804 18.9439 22.384 19.409L13.2439 23.6741C12.2913 24.1186 11.1353 24.1078 10.1944 23.6456L1.55666 19.4028C0.593458 18.9297 0 18.0548 0 17.1078V2.64938ZM6.66667 6.4342C6.66667 5.80711 7.26363 5.29875 8 5.29875H16.2052C16.9415 5.29875 17.5385 5.80711 17.5385 6.4342C17.5385 7.06128 16.9415 7.56964 16.2052 7.56964H9.33333V10.1608H16.2052C16.9415 10.1608 17.5385 10.6691 17.5385 11.2962V15.6634C17.5385 16.0934 17.2532 16.4865 16.8014 16.679L12.6988 18.4257C12.3235 18.5856 11.8817 18.5856 11.5063 18.4257L7.40372 16.679C6.952 16.4865 6.66667 16.0934 6.66667 15.6634V14.7899C6.66667 14.1628 7.26363 13.6545 8 13.6545C8.73637 13.6545 9.33333 14.1628 9.33333 14.7899V14.9616L12.1026 16.1408L14.8718 14.9616V12.4317H8C7.26363 12.4317 6.66667 11.9233 6.66667 11.2962V6.4342Z" fill="#2E51C8"/>
</svg>
