<svg width="13" height="18" viewBox="0 0 13 18" fill="none" xmlns="http://www.w3.org/2000/svg">
<path d="M6.4557 15.3218C6.69125 15.3218 6.80902 15.3218 6.89079 15.3047C7.36987 15.2045 7.66137 14.7016 7.51984 14.2197C7.49564 14.1374 7.43983 14.0306 7.32807 13.8171M6.4557 15.3218C6.22015 15.3218 6.10238 15.3218 6.02061 15.3047C5.54153 15.2045 5.25003 14.7016 5.39156 14.2197C5.41576 14.1374 5.47157 14.0306 5.58333 13.8171M6.4557 15.3218V17" stroke="#7E7474" stroke-width="1.5" stroke-linecap="round"/>
<path d="M3.52237 12.4C4.3651 13.071 5.36918 13.4776 6.45561 13.4873C9.49307 13.5142 12.0243 10.4279 11.9998 7.091C11.9753 3.75407 9.49307 1.02713 6.45561 1.0002C3.41815 0.973275 0.975668 3.65655 1.00018 6.99349C1.00678 7.89114 1.1848 8.77384 1.50067 9.58514" stroke="#BF5454" stroke-width="1.5" stroke-linecap="round"/>
<path d="M9.02226 6.46372C9.01251 5.18068 8.02757 4.13218 6.82227 4.12183" stroke="#EBA9A9" stroke-width="1.5" stroke-linecap="round"/>
</svg>
