<svg width="26" height="34" viewBox="0 0 26 34" fill="none" xmlns="http://www.w3.org/2000/svg">
<path d="M17.3667 1.65308H3.88726C2.62077 1.65308 1.59399 2.78182 1.59399 4.17401V29.8261C1.59399 31.2183 2.62077 32.347 3.88726 32.347H22.1125C23.379 32.347 24.4058 31.2183 24.4058 29.8261V9.39081L17.3667 1.65308Z" fill="#7A51CC" stroke="#26272C" stroke-width="0.390624"/>
<path d="M19.6602 9.39069H24.4058L17.3669 1.65308V6.86994C17.3668 8.26206 18.3935 9.39069 19.6602 9.39069Z" fill="#B8A3DE" stroke="#26272C" stroke-width="0.390624"/>
<path d="M24.826 8.92898L17.7869 1.19131C17.6754 1.06881 17.5243 1 17.3668 1H3.88731C2.2952 1 1 2.42387 1 4.17399V29.8261C1 31.5761 2.29526 33 3.88737 33H22.1126C23.7047 33 25 31.5762 25 29.8261V9.3908C25 9.21761 24.9374 9.05148 24.826 8.92898ZM17.9611 3.22993L22.9717 8.7378H19.6602C19.2063 8.7378 18.7795 8.54349 18.4586 8.19074C18.1377 7.83805 17.961 7.36899 17.9611 6.87005V3.22993ZM22.1127 31.6938H3.88731C2.95036 31.6938 2.18814 30.8559 2.18814 29.826V4.17399C2.1882 3.14406 2.95042 2.30612 3.88731 2.30612H16.7729V6.86993C16.7727 7.71774 17.0731 8.5148 17.6184 9.11423C18.1637 9.71373 18.8888 10.0439 19.6602 10.0439H23.8117V29.826C23.8118 30.8559 23.0496 31.6938 22.1127 31.6938Z" fill="#26272C" stroke="#26272C" stroke-width="0.390624"/>
<path d="M6.8475 19.9841H6.58152C6.25346 19.9841 5.98743 20.2766 5.98743 20.6373C5.98743 20.9981 6.25346 21.2905 6.58152 21.2905H6.8475C7.17557 21.2905 7.4416 20.9981 7.4416 20.6373C7.4416 20.2766 7.17557 19.9841 6.8475 19.9841Z" fill="#26272C" stroke="#26272C" stroke-width="0.390624"/>
<path d="M19.4186 19.9841H8.76951C8.44145 19.9841 8.17542 20.2766 8.17542 20.6373C8.17542 20.9981 8.44145 21.2905 8.76951 21.2905H19.4186C19.7467 21.2905 20.0127 20.9981 20.0127 20.6373C20.0127 20.2766 19.7467 19.9841 19.4186 19.9841Z" fill="#26272C" stroke="#26272C" stroke-width="0.390624"/>
<path d="M6.8475 16.9998H6.58152C6.25346 16.9998 5.98743 17.2922 5.98743 17.653C5.98743 18.0137 6.25346 18.3062 6.58152 18.3062H6.8475C7.17557 18.3062 7.4416 18.0137 7.4416 17.653C7.4416 17.2922 7.17557 16.9998 6.8475 16.9998Z" fill="#26272C" stroke="#26272C" stroke-width="0.390624"/>
<path d="M19.4186 16.9998H8.76951C8.44145 16.9998 8.17542 17.2922 8.17542 17.653C8.17542 18.0137 8.44145 18.3062 8.76951 18.3062H19.4186C19.7467 18.3062 20.0127 18.0137 20.0127 17.653C20.0127 17.2922 19.7467 16.9998 19.4186 16.9998Z" fill="#26272C" stroke="#26272C" stroke-width="0.390624"/>
<path d="M6.8475 14.0159H6.58152C6.25346 14.0159 5.98743 14.3083 5.98743 14.6691C5.98743 15.0298 6.25346 15.3223 6.58152 15.3223H6.8475C7.17557 15.3223 7.4416 15.0298 7.4416 14.6691C7.4416 14.3083 7.17557 14.0159 6.8475 14.0159Z" fill="#26272C" stroke="#26272C" stroke-width="0.390624"/>
<path d="M19.4186 14.0159H8.76951C8.44145 14.0159 8.17542 14.3083 8.17542 14.6691C8.17542 15.0298 8.44145 15.3223 8.76951 15.3223H19.4186C19.7467 15.3223 20.0127 15.0298 20.0127 14.6691C20.0127 14.3083 19.7467 14.0159 19.4186 14.0159Z" fill="#26272C" stroke="#26272C" stroke-width="0.390624"/>
</svg>
