<svg width="20" height="18" viewBox="0 0 20 18" fill="none" xmlns="http://www.w3.org/2000/svg">
<path d="M1 5.88867V10.7776" stroke="#B6A930" stroke-width="1.5" stroke-linecap="round"/>
<path d="M9.99994 17C8.38355 17 6.26828 16.0033 4.94675 15.2805C4.1531 14.8464 3.69995 14.0075 3.69995 13.1115V8.55554M16.2999 8.55554V13.1115C16.2999 14.0075 15.8468 14.8464 15.0532 15.2805C14.5758 15.5416 13.9949 15.8384 13.3713 16.1111" stroke="#3056B6" stroke-width="1.5" stroke-linecap="round"/>
<path d="M8.00444 1.44413C9.28332 0.851956 10.7166 0.851956 11.9955 1.44413L18.0175 4.23257C19.3275 4.8391 19.3275 6.93871 18.0175 7.54524L11.9956 10.3336C10.7167 10.9258 9.28341 10.9258 8.00452 10.3336L1.98244 7.54524C0.672516 6.93868 0.672525 4.83907 1.98244 4.23252L4.59999 3.02051" stroke="#5D81DC" stroke-width="1.5" stroke-linecap="round"/>
</svg>
