<svg width="17" height="19" viewBox="0 0 17 19" fill="none" xmlns="http://www.w3.org/2000/svg">
<path d="M15.25 17.3735V10.1737M7.7533 3.77394C7.76672 2.78215 7.83572 2.21986 8.18935 1.84264C8.6287 1.37402 9.3358 1.37402 10.75 1.37402H12.25C13.6643 1.37402 14.3714 1.37402 14.8107 1.84264C15.25 2.31125 15.25 3.06547 15.25 4.57392V6.97384" stroke="#3056B6" stroke-width="1.5" stroke-linecap="round"/>
<path d="M10.75 17.3735V12.5736M1.75 17.3735V10.1737M1.75 6.97382C1.75 5.46537 1.75 4.71115 2.18934 4.24254C2.62868 3.77393 3.33579 3.77393 4.75 3.77393H7.75C9.1642 3.77393 9.8713 3.77393 10.3106 4.24254C10.75 4.71115 10.75 5.46537 10.75 6.97382V9.37374" stroke="#3056B6" stroke-width="1.5" stroke-linecap="round"/>
<path d="M6.25 17.3741V14.9736" stroke="#215AE9" stroke-width="1.5" stroke-linecap="round"/>
<path d="M4 6.17383H8.5" stroke="#8CA4E2" stroke-width="1.5" stroke-linecap="round"/>
<path d="M4 8.57373H4.75M8.5 8.57373H6.625" stroke="#8CA4E2" stroke-width="1.5" stroke-linecap="round"/>
<path d="M4 10.9736H8.5" stroke="#8CA4E2" stroke-width="1.5" stroke-linecap="round"/>
<path d="M16 17.3735H1" stroke="#303C5A" stroke-width="1.5" stroke-linecap="round"/>
</svg>
