<svg width="24" height="24" viewBox="0 0 24 24" fill="none" xmlns="http://www.w3.org/2000/svg">
<path d="M0 2.625C0 1.17525 1.17525 0 2.625 0H21.375C22.8248 0 24 1.17525 24 2.625V5.625C24 6.24632 23.4963 6.75 22.875 6.75C22.2537 6.75 21.75 6.24632 21.75 5.625V2.625C21.75 2.4179 21.5821 2.25 21.375 2.25H2.625C2.4179 2.25 2.25 2.4179 2.25 2.625V21.375C2.25 21.5821 2.4179 21.75 2.625 21.75H22.875C23.4963 21.75 24 22.2537 24 22.875C24 23.4963 23.4963 24 22.875 24H2.625C1.17525 24 0 22.8248 0 21.375V2.625ZM12.375 8.625C12.9963 8.625 13.5 9.12868 13.5 9.75V15.75C13.5 17.2572 13.086 18.3876 12.2327 19.0986C11.4183 19.7772 10.4308 19.875 9.75 19.875C9.12868 19.875 8.625 19.3713 8.625 18.75C8.625 18.1287 9.12868 17.625 9.75 17.625C10.2693 17.625 10.5942 17.5353 10.7923 17.3701C10.9515 17.2374 11.25 16.8678 11.25 15.75V9.75C11.25 9.12868 11.7537 8.625 12.375 8.625ZM16.9135 9.87016C17.5416 9.12246 18.5261 8.625 19.875 8.625C21.1273 8.625 22.0722 9.0535 22.7091 9.72721C23.1358 10.1787 23.1157 10.8908 22.6642 11.3176C22.2127 11.7444 21.5007 11.7243 21.0739 11.2728C20.9091 11.0985 20.5806 10.875 19.875 10.875C19.124 10.875 18.7959 11.1275 18.6364 11.3173C18.4401 11.551 18.375 11.844 18.375 12C18.375 12.156 18.4401 12.449 18.6364 12.6827C18.7959 12.8725 19.124 13.125 19.875 13.125C19.9886 13.125 20.0982 13.1418 20.2014 13.1731C21.1961 13.3147 21.9479 13.7588 22.4615 14.3702C23.0526 15.0739 23.25 15.906 23.25 16.5C23.25 17.094 23.0526 17.9261 22.4615 18.6299C21.8334 19.3776 20.8489 19.875 19.5 19.875C18.2477 19.875 17.3028 19.4464 16.6659 18.7728C16.2392 18.3213 16.2593 17.6092 16.7108 17.1824C17.1623 16.7556 17.8743 16.7757 18.3011 17.2272C18.4659 17.4015 18.7944 17.625 19.5 17.625C20.251 17.625 20.5791 17.3724 20.7386 17.1826C20.9349 16.9489 21 16.656 21 16.5C21 16.344 20.9349 16.0511 20.7386 15.8174C20.5791 15.6276 20.251 15.375 19.5 15.375C19.3864 15.375 19.2768 15.3582 19.1736 15.3269C18.1789 15.1853 17.4271 14.7412 16.9135 14.1298C16.3224 13.426 16.125 12.594 16.125 12C16.125 11.406 16.3224 10.574 16.9135 9.87016Z" fill="#DBDBDB"/>
</svg>
