<svg width="92" height="20" viewBox="0 0 92 20" fill="none" xmlns="http://www.w3.org/2000/svg">
<path d="M15 9L16.2691 10.1875C17.423 11.2673 18 11.8072 18 12.5C18 13.1928 17.423 13.7327 16.2691 14.8125L15 16" stroke="#DBDBDB" stroke-width="2" stroke-linecap="round"/>
<path d="M8 4L6.73092 5.18753C5.57697 6.26731 5 6.80721 5 7.5C5 8.19277 5.57697 8.7327 6.73092 9.81249L8 11" stroke="#DBDBDB" stroke-width="2" stroke-linecap="round"/>
<path d="M13 4L12.25 7M11.3816 10.4735L10 16" stroke="#DBDBDB" stroke-width="2" stroke-linecap="round"/>
<rect x="1" y="1" width="22" height="18" rx="3" stroke="#DBDBDB" stroke-width="2"/>
<path d="M35.9688 7.02539H36.4258C37.875 7.02539 38.832 7.67188 39.2969 8.96484C39.4844 9.49609 39.5781 10.1074 39.5781 10.7988C39.5781 11.9629 39.3535 12.9219 38.9043 13.6758C38.373 14.5586 37.5469 15 36.4258 15H35.9688V7.02539ZM34.5566 15C33.1152 15 32.1602 14.2695 31.6914 12.8086C31.5 12.2148 31.4043 11.5449 31.4043 10.7988C31.4043 9.2793 31.8262 8.20703 32.6699 7.58203C33.166 7.21094 33.7949 7.02539 34.5566 7.02539H35.0137V15H34.5566ZM49.6855 9.02344H50.2129C51.6504 9.02344 52.5078 9.51172 52.7852 10.4883C52.8789 10.8047 52.9258 11.1699 52.9258 11.584V15H49.6855V9.02344ZM45.3379 9.02344H45.8652C47.3027 9.02344 48.1602 9.51172 48.4375 10.4883C48.5312 10.8047 48.5781 11.1699 48.5781 11.584V15H45.3379V9.02344ZM40.9785 9.02344H44.2363V15H40.9785V9.02344ZM58.9141 9.02344H62.1484V15H61.7793C60.7637 15 60.0332 14.8223 59.5879 14.4668C59.1387 14.1074 58.9141 13.5137 58.9141 12.6855V9.02344ZM54.6836 12.082C54.6836 11.6523 54.7402 11.2539 54.8535 10.8867C54.9668 10.5156 55.1426 10.1914 55.3809 9.91406C55.8965 9.32031 56.6348 9.02344 57.5957 9.02344H58.0469V15H57.7422C56.7578 15 55.9961 14.7305 55.457 14.1914C54.9414 13.6758 54.6836 12.9727 54.6836 12.082ZM68.125 10.6875C68.125 9.57812 68.8418 9.02344 70.2754 9.02344H71.0957V12.0117H68.125V10.6875ZM64.0234 9.02344H67.2812V15H64.0234V9.02344ZM82.9199 7.02539H86.1543V11.127H85.7383C84.7305 11.127 84.0078 10.9531 83.5703 10.6055C83.1367 10.2578 82.9199 9.66602 82.9199 8.83008V7.02539ZM81.748 15C81.1152 15 80.5527 14.7656 80.0605 14.2969C79.627 13.8828 79.2871 13.332 79.041 12.6445C78.8145 12.0117 78.7012 11.3848 78.7012 10.7637C78.7012 9.83008 78.9316 9 79.3926 8.27344C79.7207 7.75781 80.1523 7.39453 80.6875 7.18359C80.9609 7.07812 81.2656 7.02539 81.6016 7.02539H82.0527V15H81.748ZM82.9199 13.4707H85.8496V13.6348C85.8496 13.998 85.7188 14.3047 85.457 14.5547C85.1367 14.8516 84.6816 15 84.0918 15H82.9199V13.4707ZM89.5 15C88.207 15 87.5605 14.5957 87.5605 13.7871C87.5605 13.373 87.7148 13.0762 88.0234 12.8965C88.332 12.7129 88.8027 12.6211 89.4355 12.6211C90.0684 12.6211 90.5352 12.7129 90.8359 12.8965C91.1367 13.0762 91.2871 13.375 91.2871 13.793C91.2871 14.207 91.1465 14.5117 90.8652 14.707C90.5879 14.9023 90.1328 15 89.5 15Z" fill="#DBDBDB"/>
</svg>
