<svg width="35" height="34" viewBox="0 0 35 34" fill="none" xmlns="http://www.w3.org/2000/svg">
<path d="M17.4218 28.25C17.4218 30.321 15.6956 32 13.5664 32C11.4371 32 9.71094 30.321 9.71094 28.25C9.71094 26.179 11.4371 24.5 13.5664 24.5C15.6956 24.5 17.4218 26.179 17.4218 28.25Z" stroke="#8C29C9" stroke-width="3"/>
<path d="M32.8432 25.25C32.8432 27.321 31.117 29 28.9877 29C26.8585 29 25.1323 27.321 25.1323 25.25C25.1323 23.179 26.8585 21.5 28.9877 21.5C31.117 21.5 32.8432 23.179 32.8432 25.25Z" stroke="#8C29C9" stroke-width="3"/>
<path d="M32.8436 11L17.4219 17" stroke="#8C29C9" stroke-width="3" stroke-linecap="round"/>
<path d="M31.6868 17.0009C31.6868 17.6222 32.2047 18.1259 32.8435 18.1259C33.4822 18.1259 34.0001 17.6222 34.0001 17.0009H31.6868ZM18.5784 27.5009V12.2721H16.2651V27.5009H18.5784ZM21.6553 7.77508L24.7397 6.51945L23.8466 4.44391L20.7623 5.69955L21.6553 7.77508ZM34.0001 11.0164C34.0001 9.01527 34.0032 7.38664 33.8156 6.15433C33.6249 4.9002 33.1994 3.78061 32.1088 3.07461L30.8271 4.94772C31.1119 5.13208 31.3742 5.47684 31.5274 6.48361C31.6837 7.51221 31.6868 8.94103 31.6868 11.0164H34.0001ZM24.7397 6.51945C26.7079 5.71815 28.0643 5.16922 29.1001 4.91245C30.1141 4.66114 30.5424 4.76334 30.8271 4.94772L32.1088 3.07461C31.0181 2.36859 29.792 2.41908 28.5289 2.73214C27.2878 3.03975 25.7444 3.67128 23.8466 4.44391L24.7397 6.51945ZM18.5784 12.2721C18.5784 11.2798 18.5799 10.6251 18.6362 10.1215C18.6894 9.64521 18.7824 9.41037 18.9013 9.23673L16.9755 7.99015C16.5777 8.57161 16.4124 9.19824 16.3365 9.87855C16.2636 10.5316 16.2651 11.3287 16.2651 12.2721H18.5784ZM20.7623 5.69955C19.8675 6.06379 19.1109 6.37014 18.5198 6.68769C17.9038 7.01851 17.3733 7.40871 16.9755 7.99015L18.9013 9.23673C19.0201 9.0631 19.2068 8.88891 19.638 8.65728C20.094 8.41237 20.7143 8.1582 21.6553 7.77508L20.7623 5.69955ZM34.0001 17.0009V11.0164H31.6868V17.0009H34.0001Z" fill="#8C29C9"/>
<path d="M9.71094 15.5V8.75V2" stroke="#7189D9" stroke-width="3" stroke-linecap="round"/>
<path d="M5.85542 18.5C7.98471 18.5 9.71084 16.8211 9.71084 14.75C9.71084 12.6789 7.98471 11 5.85542 11C3.72613 11 2 12.6789 2 14.75C2 16.8211 3.72613 18.5 5.85542 18.5Z" stroke="#7189D9" stroke-width="3"/>
<path d="M14.3374 6.5C12.4211 6.5 9.71094 5.1066 9.71094 2" stroke="#7189D9" stroke-width="3" stroke-linecap="round"/>
</svg>
