<svg width="26" height="26" viewBox="0 0 26 26" fill="none" xmlns="http://www.w3.org/2000/svg">
<path d="M13 12.9998H15.4M13 5.7998H15.4M13 20.1998H15.4M13 16.5998H16.6M13 9.3998H16.6" stroke="#7685B9" stroke-width="1.5" stroke-linecap="round"/>
<path d="M25 7V5.8C25 3.53726 25 2.40588 24.297 1.70295C23.5941 1 22.4627 1 20.2 1H17.8C15.5373 1 14.4059 1 13.703 1.70295C13 2.40588 13 3.53726 13 5.8V20.2C13 22.4627 13 23.5941 13.703 24.297C14.4059 25 15.5373 25 17.8 25H20.2C22.4627 25 23.5941 25 24.297 24.297C25 23.5941 25 22.4627 25 20.2V11.8" stroke="#765630" stroke-width="1.5" stroke-linecap="round"/>
<path d="M1 5.8V4.6C1 2.61178 2.61178 1 4.6 1C6.58822 1 8.2 2.61178 8.2 4.6V5.8M1 5.8C1 5.8 2.35 7 4.6 7C6.85 7 8.2 5.8 8.2 5.8M1 5.8V11.2554M8.2 5.8V16.8322C8.2 17.5793 8.2 17.953 8.15468 18.3196C8.10122 18.7521 8.0008 19.1775 7.8552 19.5882C7.73177 19.9365 7.56468 20.2707 7.23052 20.939L5.81447 23.7711M5.81447 23.7711L5.46833 24.4634C5.30388 24.7923 4.96772 25 4.6 25C4.23228 25 3.89612 24.7923 3.73167 24.4634L3.38553 23.7711M5.81447 23.7711H3.38553M3.38553 23.7711L1.96948 20.939C1.63532 20.2707 1.46823 19.9365 1.3448 19.5882C1.1992 19.1775 1.09878 18.7521 1.04532 18.3196C1 17.953 1 17.5794 1 16.8322V15.7869" stroke="#D9DC58" stroke-width="1.5" stroke-linecap="round"/>
</svg>
