<svg width="24" height="24" viewBox="0 0 24 24" fill="none" xmlns="http://www.w3.org/2000/svg">
<path fill-rule="evenodd" clip-rule="evenodd" d="M4.32007 7.4751H7.20006V11.803H13.92V14.1636H7.20006V19.6719H13.92V22.0324H5.76005C4.96478 22.0324 4.32007 21.504 4.32007 20.8521V7.4751Z" fill="#6A7ACF"/>
<path fill-rule="evenodd" clip-rule="evenodd" d="M0 2.7541C0 1.23305 1.50431 0 3.36 0H17.7599C19.6155 0 21.12 1.23305 21.12 2.7541V5.5082C21.12 7.02924 19.6155 8.2623 17.7599 8.2623H3.36C1.50431 8.2623 0 7.02924 0 5.5082V2.7541ZM3.36 2.36066C3.09489 2.36066 2.87999 2.5368 2.87999 2.7541V5.5082C2.87999 5.72549 3.09489 5.90164 3.36 5.90164H17.7599C18.0251 5.90164 18.2399 5.72549 18.2399 5.5082V2.7541C18.2399 2.5368 18.0251 2.36066 17.7599 2.36066H3.36Z" fill="#1633CB"/>
<path fill-rule="evenodd" clip-rule="evenodd" d="M12.48 12.5905C12.48 11.0695 13.9843 9.83643 15.84 9.83643H20.64C22.4956 9.83643 24 11.0695 24 12.5905V13.3774C24 14.8984 22.4956 16.1315 20.64 16.1315H15.84C13.9843 16.1315 12.48 14.8984 12.48 13.3774V12.5905ZM15.84 12.1971C15.5749 12.1971 15.36 12.3732 15.36 12.5905V13.3774C15.36 13.5947 15.5749 13.7709 15.84 13.7709H20.64C20.905 13.7709 21.12 13.5947 21.12 13.3774V12.5905C21.12 12.3732 20.905 12.1971 20.64 12.1971H15.84Z" fill="#8223BC"/>
<path fill-rule="evenodd" clip-rule="evenodd" d="M12.48 20.4588C12.48 18.9378 13.9843 17.7048 15.84 17.7048H20.64C22.4956 17.7048 24 18.9378 24 20.4588V21.2457C24 22.7669 22.4956 23.9999 20.64 23.9999H15.84C13.9843 23.9999 12.48 22.7669 12.48 21.2457V20.4588ZM15.84 20.0654C15.5749 20.0654 15.36 20.2416 15.36 20.4588V21.2457C15.36 21.4631 15.5749 21.6392 15.84 21.6392H20.64C20.905 21.6392 21.12 21.4631 21.12 21.2457V20.4588C21.12 20.2416 20.905 20.0654 20.64 20.0654H15.84Z" fill="#8223BC"/>
</svg>
