<svg width="256" height="256" viewBox="0 0 256 256" fill="none" xmlns="http://www.w3.org/2000/svg">
<path d="M210.483 87.8236C207.828 86.9096 205.076 86.0447 202.242 85.2267C202.708 83.3261 203.136 81.4501 203.516 79.606C209.754 49.3249 205.675 24.9302 191.747 16.8985C178.392 9.1971 156.551 17.227 134.493 36.4238C132.372 38.2697 130.245 40.2241 128.118 42.2724C126.702 40.9172 125.287 39.6076 123.877 38.3549C100.759 17.8285 77.5867 9.17842 63.6726 17.2334C50.3304 24.9571 46.3792 47.8904 51.9945 76.588C52.5368 79.3599 53.1706 82.1906 53.8874 85.0686C50.6079 85.9996 47.4419 86.992 44.4125 88.0478C17.3093 97.4972 0 112.307 0 127.668C0 143.533 18.5816 159.446 46.8117 169.095C49.0395 169.857 51.3511 170.577 53.7334 171.26C52.9601 174.373 52.2875 177.423 51.7229 180.398C46.3687 208.598 50.55 230.989 63.8567 238.664C77.6013 246.59 100.669 238.443 123.13 218.809C124.906 217.257 126.687 215.611 128.472 213.886C130.786 216.114 133.095 218.222 135.393 220.2C157.15 238.922 178.638 246.482 191.932 238.786C205.663 230.837 210.126 206.783 204.332 177.518C203.89 175.283 203.375 173 202.797 170.676C204.416 170.197 206.007 169.702 207.557 169.188C236.905 159.465 256 143.745 256 127.668C256 112.251 238.132 97.3418 210.483 87.8236ZM204.118 158.808C202.718 159.271 201.282 159.719 199.818 160.153C196.578 149.896 192.206 138.99 186.855 127.721C191.961 116.721 196.165 105.954 199.314 95.7638C201.933 96.5216 204.474 97.3208 206.924 98.1643C230.613 106.32 245.064 118.377 245.064 127.668C245.064 137.564 229.458 150.411 204.118 158.808ZM193.604 179.642C196.166 192.583 196.531 204.283 194.835 213.429C193.31 221.648 190.244 227.127 186.452 229.322C178.385 233.991 161.132 227.921 142.525 211.91C140.392 210.074 138.244 208.115 136.088 206.04C143.302 198.151 150.511 188.98 157.547 178.794C169.923 177.696 181.615 175.9 192.218 173.449C192.74 175.556 193.204 177.622 193.604 179.642ZM87.2762 228.515C79.3939 231.298 73.116 231.378 69.3212 229.19C61.2461 224.533 57.8891 206.554 62.4682 182.438C62.9927 179.676 63.617 176.839 64.3365 173.939C74.8235 176.258 86.43 177.927 98.8353 178.933C105.919 188.9 113.336 198.061 120.811 206.083C119.178 207.659 117.551 209.16 115.934 210.575C106.001 219.257 96.048 225.417 87.2762 228.515ZM50.3486 158.747C37.8658 154.48 27.557 148.935 20.4909 142.884C14.1415 137.447 10.9358 132.048 10.9358 127.668C10.9358 118.346 24.8335 106.456 48.0124 98.3748C50.8248 97.3942 53.7689 96.4701 56.8242 95.602C60.0276 106.022 64.2299 116.917 69.3011 127.934C64.1643 139.115 59.9023 150.183 56.6675 160.726C54.4893 160.099 52.3791 159.441 50.3486 158.747ZM62.7271 74.4878C57.916 49.9004 61.1112 31.3526 69.1516 26.6983C77.7161 21.7401 96.6545 28.8094 116.615 46.533C117.891 47.6658 119.172 48.8514 120.456 50.0781C113.018 58.0648 105.669 67.1573 98.648 77.0656C86.6082 78.1815 75.0832 79.9742 64.4869 82.3747C63.8207 79.6948 63.2306 77.0619 62.7271 74.4878ZM173.154 101.755C170.621 97.3796 168.02 93.1077 165.369 88.9523C173.537 89.9849 181.363 91.3556 188.712 93.0329C186.506 100.104 183.756 107.497 180.519 115.077C178.196 110.668 175.74 106.223 173.154 101.755ZM128.122 57.8939C133.166 63.3588 138.218 69.4603 143.187 76.0804C138.18 75.8439 133.111 75.7209 128 75.7209C122.937 75.7209 117.906 75.8412 112.93 76.0736C117.904 69.515 122.999 63.4217 128.122 57.8939ZM82.8019 101.831C80.2715 106.218 77.861 110.639 75.5753 115.069C72.3906 107.516 69.6661 100.089 67.4406 92.9172C74.7446 91.2827 82.5335 89.9462 90.6496 88.9332C87.9611 93.1268 85.3391 97.4311 82.8019 101.831ZM90.8833 167.183C82.498 166.247 74.592 164.98 67.2898 163.39C69.5508 156.091 72.3355 148.505 75.5876 140.79C77.8792 145.216 80.2993 149.638 82.8452 154.036C85.4384 158.515 88.1256 162.904 90.8833 167.183ZM128.425 198.213C123.241 192.621 118.071 186.434 113.022 179.78C117.924 179.972 122.921 180.071 128 180.071C133.218 180.071 138.376 179.953 143.453 179.727C138.468 186.501 133.435 192.697 128.425 198.213ZM180.623 140.396C184.045 148.195 186.929 155.741 189.219 162.916C181.797 164.61 173.783 165.974 165.339 166.987C167.997 162.776 170.62 158.43 173.198 153.961C175.805 149.438 178.282 144.909 180.623 140.396ZM163.725 148.497C159.723 155.436 155.614 162.059 151.444 168.312C143.847 168.855 135.999 169.135 128 169.135C120.033 169.135 112.284 168.887 104.822 168.403C100.483 162.068 96.2854 155.425 92.3091 148.557C88.3434 141.707 84.6943 134.799 81.387 127.93C84.6934 121.046 88.3338 114.13 92.2768 107.293L92.2759 107.294C96.2293 100.439 100.39 93.8276 104.689 87.5329C112.302 86.9574 120.11 86.6571 128 86.6571C135.925 86.6571 143.743 86.9597 151.354 87.5402C155.587 93.7889 159.72 100.378 163.689 107.235C167.703 114.169 171.39 121.038 174.725 127.775C171.4 134.628 167.721 141.567 163.725 148.497ZM186.285 26.3729C194.857 31.3166 198.191 51.2542 192.805 77.3987C192.461 79.0669 192.075 80.7661 191.654 82.4881C181.033 80.0375 169.5 78.2139 157.425 77.0811C150.391 67.0639 143.102 57.9572 135.785 50.0731C137.752 48.1807 139.716 46.3762 141.673 44.6733C160.572 28.2257 178.237 21.7319 186.285 26.3729ZM128 104.808C140.625 104.808 150.86 115.043 150.86 127.668C150.86 140.293 140.625 150.528 128 150.528C115.375 150.528 105.14 140.293 105.14 127.668C105.14 115.043 115.375 104.808 128 104.808Z" fill="#00D8FF"/>
</svg>
