<?xml version="1.0" encoding="UTF-8" standalone="no"?>
<!-- Uploaded to: SVG Repo, www.svgrepo.com, Generator: SVG Repo Mixer Tools -->

<svg
   fill="#000000"
   height="800"
   width="800"
   version="1.1"
   id="Layer_1"
   viewBox="0 0 496 496"
   xml:space="preserve"
   sodipodi:docname="research.svg"
   xmlns:inkscape="http://www.inkscape.org/namespaces/inkscape"
   xmlns:sodipodi="http://sodipodi.sourceforge.net/DTD/sodipodi-0.dtd"
   xmlns="http://www.w3.org/2000/svg"
   xmlns:svg="http://www.w3.org/2000/svg"><defs
   id="defs11" /><sodipodi:namedview
   id="namedview9"
   pagecolor="#505050"
   bordercolor="#eeeeee"
   borderopacity="1"
   inkscape:showpageshadow="0"
   inkscape:pageopacity="0"
   inkscape:pagecheckerboard="0"
   inkscape:deskcolor="#505050"
   showgrid="false" />
<g
   id="g6"
   style="fill:#555add;fill-opacity:1">
	<g
   id="g4"
   style="fill:#555add;fill-opacity:1">
		<path
   d="m 449.472,152 c 3.312,9.296 12.112,16 22.528,16 13.232,0 24,-10.768 24,-24 0,-13.232 -10.768,-24 -24,-24 -10.416,0 -19.216,6.704 -22.528,16 H 287.592 C 286.064,108.352 276.8,82.776 261.784,61.432 l 4.296,-1.952 c 3.936,2.816 8.72,4.52 13.92,4.52 6.352,0 12.096,-2.52 16.392,-6.568 L 344.32,84.824 C 344.176,85.872 344,86.912 344,88 c 0,13.232 10.768,24 24,24 13.232,0 24,-10.768 24,-24 0,-2.448 -0.472,-4.76 -1.16,-6.984 l 67.904,-37.04 C 462.544,46.512 467.096,48 472,48 485.232,48 496,37.232 496,24 496,10.768 485.232,0 472,0 c -13.232,0 -24,10.768 -24,24 0,2.448 0.472,4.76 1.16,6.984 l -67.904,37.04 C 377.456,65.488 372.904,64 368,64 c -6.352,0 -12.096,2.52 -16.392,6.568 L 303.68,43.176 C 303.816,42.128 304,41.088 304,40 304,26.768 293.232,16 280,16 c -13.232,0 -24,10.768 -24,24 0,2.12 0.36,4.128 0.88,6.088 l -5.376,2.44 C 225.104,18.84 186.752,0 144,0 64.6,0 0,64.6 0,144 0,212.392 47.968,269.68 112,284.288 V 312 H 80 v 16 h 16 v 120 c 0,26.472 21.528,48 48,48 26.472,0 48,-21.528 48,-48 V 328 h 16 v -16 h -32 v -27.712 c 38.32,-8.744 70.784,-32.8 90.744,-65.384 C 270.736,226.64 278.712,232 288,232 c 6.64,0 12.648,-2.712 17,-7.08 l 55.24,20.712 c -0.08,0.792 -0.24,1.56 -0.24,2.368 0,13.232 10.768,24 24,24 13.232,0 24,-10.768 24,-24 0,-0.36 -0.088,-0.688 -0.104,-1.048 l 46.592,-6.656 c 4.384,4.712 10.584,7.704 17.512,7.704 13.232,0 24,-10.768 24,-24 0,-13.232 -10.768,-24 -24,-24 -13.232,0 -24,10.768 -24,24 0,0.36 0.088,0.688 0.104,1.048 l -46.592,6.656 C 397.128,226.992 390.928,224 384,224 c -6.64,0 -12.648,2.712 -17,7.08 l -55.24,-20.712 c 0.08,-0.792 0.24,-1.56 0.24,-2.368 0,-13.232 -10.768,-24 -24,-24 -2.08,0 -4.064,0.352 -5.992,0.848 3.112,-10.496 4.952,-21.512 5.584,-32.848 z M 472,136 c 4.416,0 8,3.584 8,8 0,4.416 -3.584,8 -8,8 -4.416,0 -8,-3.584 -8,-8 0,-4.416 3.584,-8 8,-8 z m 0,-120 c 4.416,0 8,3.584 8,8 0,4.416 -3.584,8 -8,8 -4.416,0 -8,-3.584 -8,-8 0,-4.416 3.584,-8 8,-8 z M 368,80 c 4.416,0 8,3.584 8,8 0,4.416 -3.584,8 -8,8 -4.416,0 -8,-3.584 -8,-8 0,-4.416 3.584,-8 8,-8 z M 280,32 c 4.416,0 8,3.584 8,8 0,4.416 -3.584,8 -8,8 -4.416,0 -8,-3.584 -8,-8 0,-4.416 3.584,-8 8,-8 z m 192,184 c 4.416,0 8,3.584 8,8 0,4.416 -3.584,8 -8,8 -4.416,0 -8,-3.584 -8,-8 0,-4.416 3.584,-8 8,-8 z m -88,24 c 4.416,0 8,3.584 8,8 0,4.416 -3.584,8 -8,8 -4.416,0 -8,-3.584 -8,-8 0,-4.416 3.584,-8 8,-8 z M 176,448 c 0,17.648 -14.352,32 -32,32 -17.648,0 -32,-14.352 -32,-32 V 328 h 64 z M 128,312 v -24.944 c 5.256,0.584 10.584,0.944 16,0.944 5.416,0 10.736,-0.36 16,-0.944 V 312 Z m 16,-40 C 73.424,272 16,214.576 16,144 16,73.424 73.424,16 144,16 c 36.232,0 68.92,15.2 92.232,39.472 l -23.504,10.68 C 194.376,49.936 170.352,40 144,40 86.656,40 40,86.656 40,144 c 0,57.344 46.656,104 104,104 33.624,0 63.48,-16.112 82.504,-40.944 l 25.632,5.128 C 229.432,248.056 189.504,272 144,272 Z M 128,120 c -13.232,0 -24,10.768 -24,24 0,13.232 10.768,24 24,24 10.416,0 19.216,-6.704 22.528,-16 H 231.6 c -1.232,13.568 -5.592,26.208 -12.296,37.304 l -20.392,-4.08 C 195.96,175.304 186.864,168 176,168 c -13.232,0 -24,10.768 -24,24 0,13.232 10.768,24 24,24 9.912,0 18.432,-6.04 22.088,-14.624 l 10.568,2.112 C 192.56,220.968 169.576,232 144,232 95.48,232 56,192.52 56,144 56,95.48 95.48,56 144,56 c 19.68,0 37.816,6.576 52.488,17.536 l -6.576,2.984 C 185.984,73.704 181.2,72 176,72 c -13.232,0 -24,10.768 -24,24 0,13.232 10.768,24 24,24 13.232,0 24,-10.768 24,-24 0,-2.112 -0.36,-4.128 -0.88,-6.088 l 10.224,-4.648 c 12.352,13.728 20.488,31.304 22.248,50.736 H 150.528 C 147.216,126.704 138.416,120 128,120 Z m 8,24 c 0,4.416 -3.584,8 -8,8 -4.416,0 -8,-3.584 -8,-8 0,-4.416 3.584,-8 8,-8 4.416,0 8,3.584 8,8 z m 48,48 c 0,4.416 -3.584,8 -8,8 -4.416,0 -8,-3.584 -8,-8 0,-4.416 3.584,-8 8,-8 4.416,0 8,3.584 8,8 z m 0,-96 c 0,4.416 -3.584,8 -8,8 -4.416,0 -8,-3.584 -8,-8 0,-4.416 3.584,-8 8,-8 4.416,0 8,3.584 8,8 z m 76.144,101.472 -24.272,-4.856 C 242.4,180.328 246.48,166.576 247.592,152 h 24 c -1.008,16.152 -4.984,31.48 -11.448,45.472 z M 247.592,136 c -1.664,-21.76 -9.984,-41.68 -23.024,-57.656 l 22.336,-10.152 c 14.2,19.232 23.112,42.512 24.688,67.808 z M 288,200 c 4.416,0 8,3.584 8,8 0,4.416 -3.584,8 -8,8 -4.416,0 -8,-3.584 -8,-8 0,-4.416 3.584,-8 8,-8 z"
   id="path2"
   style="fill:#555add;fill-opacity:1" />
	</g>
</g>
</svg>
