<svg width="26" height="26" viewBox="0 0 26 26" fill="none" xmlns="http://www.w3.org/2000/svg">
<path d="M17 6.64711H19.6667M17 12.2942H19.6667M13 17.9413H6.33333M25 12.2942V3.82356C25 3.0747 24.719 2.35652 24.219 1.827C23.7189 1.29748 23.0406 1 22.3333 1H3.66667C2.95942 1 2.28115 1.29748 1.78105 1.827C1.28095 2.35652 1 3.0747 1 3.82356V20.7649C1 21.5137 1.28095 22.2319 1.78105 22.7614C2.28115 23.291 2.95942 23.5884 3.66667 23.5884H13M6.33333 6.64711V12.2942H11.6667V6.64711H6.33333Z" stroke="#4727C5" stroke-width="2" stroke-linecap="round" stroke-linejoin="round"/>
<path d="M22.6906 22.555C23.0002 22.2272 23.2458 21.8381 23.4133 21.4098C23.5808 20.9815 23.6671 20.5225 23.6671 20.059C23.6671 19.5954 23.5808 19.1364 23.4133 18.7081C23.2458 18.2799 23.0002 17.8907 22.6906 17.5629C22.381 17.2352 22.0135 16.9751 21.6091 16.7978C21.2046 16.6204 20.7711 16.5291 20.3333 16.5291C19.8955 16.5291 19.462 16.6204 19.0575 16.7978C18.653 16.9751 18.2855 17.2352 17.976 17.5629C17.3507 18.2249 16.9995 19.1228 16.9995 20.059C16.9995 20.9952 17.3507 21.893 17.976 22.555C18.6012 23.217 19.4491 23.5889 20.3333 23.5889C21.2175 23.5889 22.0654 23.217 22.6906 22.555ZM22.6906 22.555L25 25.0002" stroke="white" stroke-width="2" stroke-linecap="round" stroke-linejoin="round"/>
</svg>
