<svg width="16" height="16" viewBox="0 0 16 16" fill="none" xmlns="http://www.w3.org/2000/svg">
<path fill-rule="evenodd" clip-rule="evenodd" d="M11.4609 10.3189L15.7609 14.6189C15.9122 14.7703 15.9971 14.9757 15.997 15.1897C15.997 15.4038 15.9118 15.6091 15.7604 15.7604C15.6089 15.9117 15.4036 15.9966 15.1895 15.9965C14.9755 15.9965 14.7702 15.9113 14.6189 15.7599L10.3189 11.4599C9.03224 12.4564 7.4143 12.9253 5.79419 12.7713C4.17408 12.6172 2.67351 11.8518 1.59773 10.6306C0.521956 9.40949 -0.0482196 7.8244 0.00319819 6.1978C0.054616 4.5712 0.723765 3.02527 1.87452 1.87452C3.02527 0.723765 4.5712 0.054616 6.1978 0.00319819C7.8244 -0.0482196 9.40949 0.521956 10.6306 1.59773C11.8518 2.67351 12.6172 4.17408 12.7713 5.79419C12.9253 7.4143 12.4564 9.03224 11.4599 10.3189H11.4609ZM6.40288 11.1999C7.35223 11.1999 8.28026 10.9184 9.06962 10.3909C9.85898 9.86351 10.4742 9.11385 10.8375 8.23676C11.2008 7.35968 11.2959 6.39456 11.1107 5.46345C10.9254 4.53234 10.4683 3.67706 9.797 3.00577C9.1257 2.33448 8.27042 1.87732 7.33932 1.69211C6.40821 1.5069 5.44309 1.60196 4.566 1.96526C3.68892 2.32856 2.93926 2.94379 2.41183 3.73315C1.8844 4.5225 1.60288 5.45053 1.60288 6.39988C1.60288 7.67292 2.1086 8.89382 3.00877 9.79399C3.90894 10.6942 5.12984 11.1999 6.40288 11.1999Z" fill="white"/>
</svg>
