<svg width="513" height="277" viewBox="0 0 513 277" fill="none" xmlns="http://www.w3.org/2000/svg">
<path d="M48.0604 41V44.4442M484.94 252.572H279.151M484.94 252.572V256.508M484.94 252.572H490M48.0604 44.4442H44.6868M48.0604 44.4442V144.818M48.0604 144.818H43M48.0604 144.818V245.683M48.0604 245.683V252.572H64.0849M48.0604 245.683H44.6868M64.0849 252.572V257M64.0849 252.572H279.151M279.151 252.572V256.508" stroke="#F5F5F5" stroke-width="4" stroke-linecap="round" stroke-linejoin="round"/>
<path d="M51.164 270.104C51.932 269.464 52.544 268.932 53 268.508C53.456 268.076 53.836 267.628 54.14 267.164C54.444 266.7 54.596 266.244 54.596 265.796C54.596 265.388 54.5 265.068 54.308 264.836C54.116 264.604 53.82 264.488 53.42 264.488C53.02 264.488 52.712 264.624 52.496 264.896C52.28 265.16 52.168 265.524 52.16 265.988H50.528C50.56 265.028 50.844 264.3 51.38 263.804C51.924 263.308 52.612 263.06 53.444 263.06C54.356 263.06 55.056 263.304 55.544 263.792C56.032 264.272 56.276 264.908 56.276 265.7C56.276 266.324 56.108 266.92 55.772 267.488C55.436 268.056 55.052 268.552 54.62 268.976C54.188 269.392 53.624 269.896 52.928 270.488H56.468V271.88H50.54V270.632L51.164 270.104ZM57.5266 267.512C57.5266 266.128 57.7746 265.044 58.2706 264.26C58.7746 263.476 59.6066 263.084 60.7666 263.084C61.9266 263.084 62.7546 263.476 63.2506 264.26C63.7546 265.044 64.0066 266.128 64.0066 267.512C64.0066 268.904 63.7546 269.996 63.2506 270.788C62.7546 271.58 61.9266 271.976 60.7666 271.976C59.6066 271.976 58.7746 271.58 58.2706 270.788C57.7746 269.996 57.5266 268.904 57.5266 267.512ZM62.3506 267.512C62.3506 266.92 62.3106 266.424 62.2306 266.024C62.1586 265.616 62.0066 265.284 61.7746 265.028C61.5506 264.772 61.2146 264.644 60.7666 264.644C60.3186 264.644 59.9786 264.772 59.7466 265.028C59.5226 265.284 59.3706 265.616 59.2906 266.024C59.2186 266.424 59.1826 266.92 59.1826 267.512C59.1826 268.12 59.2186 268.632 59.2906 269.048C59.3626 269.456 59.5146 269.788 59.7466 270.044C59.9786 270.292 60.3186 270.416 60.7666 270.416C61.2146 270.416 61.5546 270.292 61.7866 270.044C62.0186 269.788 62.1706 269.456 62.2426 269.048C62.3146 268.632 62.3506 268.12 62.3506 267.512ZM65.8124 270.104C66.5804 269.464 67.1924 268.932 67.6484 268.508C68.1044 268.076 68.4844 267.628 68.7884 267.164C69.0924 266.7 69.2444 266.244 69.2444 265.796C69.2444 265.388 69.1484 265.068 68.9564 264.836C68.7644 264.604 68.4684 264.488 68.0684 264.488C67.6684 264.488 67.3604 264.624 67.1444 264.896C66.9284 265.16 66.8164 265.524 66.8084 265.988H65.1764C65.2084 265.028 65.4924 264.3 66.0284 263.804C66.5724 263.308 67.2604 263.06 68.0924 263.06C69.0044 263.06 69.7044 263.304 70.1924 263.792C70.6804 264.272 70.9244 264.908 70.9244 265.7C70.9244 266.324 70.7564 266.92 70.4204 267.488C70.0844 268.056 69.7004 268.552 69.2684 268.976C68.8364 269.392 68.2724 269.896 67.5764 270.488H71.1164V271.88H65.1884V270.632L65.8124 270.104ZM72.7031 270.104C73.4711 269.464 74.0831 268.932 74.5391 268.508C74.9951 268.076 75.3751 267.628 75.6791 267.164C75.9831 266.7 76.1351 266.244 76.1351 265.796C76.1351 265.388 76.0391 265.068 75.8471 264.836C75.6551 264.604 75.3591 264.488 74.9591 264.488C74.5591 264.488 74.2511 264.624 74.0351 264.896C73.8191 265.16 73.7071 265.524 73.6991 265.988H72.0671C72.0991 265.028 72.3831 264.3 72.9191 263.804C73.4631 263.308 74.1511 263.06 74.9831 263.06C75.8951 263.06 76.5951 263.304 77.0831 263.792C77.5711 264.272 77.8151 264.908 77.8151 265.7C77.8151 266.324 77.6471 266.92 77.3111 267.488C76.9751 268.056 76.5911 268.552 76.1591 268.976C75.7271 269.392 75.1631 269.896 74.4671 270.488H78.0071V271.88H72.0791V270.632L72.7031 270.104Z" fill="white"/>
<path d="M12.432 241.8V240.252H15.324V249H13.596V241.8H12.432ZM16.9837 244.512C16.9837 243.128 17.2317 242.044 17.7277 241.26C18.2317 240.476 19.0637 240.084 20.2237 240.084C21.3837 240.084 22.2117 240.476 22.7077 241.26C23.2117 242.044 23.4637 243.128 23.4637 244.512C23.4637 245.904 23.2117 246.996 22.7077 247.788C22.2117 248.58 21.3837 248.976 20.2237 248.976C19.0637 248.976 18.2317 248.58 17.7277 247.788C17.2317 246.996 16.9837 245.904 16.9837 244.512ZM21.8077 244.512C21.8077 243.92 21.7677 243.424 21.6877 243.024C21.6157 242.616 21.4637 242.284 21.2317 242.028C21.0077 241.772 20.6717 241.644 20.2237 241.644C19.7757 241.644 19.4357 241.772 19.2037 242.028C18.9797 242.284 18.8277 242.616 18.7477 243.024C18.6757 243.424 18.6397 243.92 18.6397 244.512C18.6397 245.12 18.6757 245.632 18.7477 246.048C18.8197 246.456 18.9717 246.788 19.2037 247.044C19.4357 247.292 19.7757 247.416 20.2237 247.416C20.6717 247.416 21.0117 247.292 21.2437 247.044C21.4757 246.788 21.6277 246.456 21.6997 246.048C21.7717 245.632 21.8077 245.12 21.8077 244.512ZM24.5495 242.4C24.5495 241.792 24.7255 241.316 25.0775 240.972C25.4375 240.628 25.8975 240.456 26.4575 240.456C27.0175 240.456 27.4735 240.628 27.8255 240.972C28.1855 241.316 28.3655 241.792 28.3655 242.4C28.3655 243.016 28.1855 243.496 27.8255 243.84C27.4735 244.184 27.0175 244.356 26.4575 244.356C25.8975 244.356 25.4375 244.184 25.0775 243.84C24.7255 243.496 24.5495 243.016 24.5495 242.4ZM32.2535 240.6L27.5375 249H25.9055L30.6095 240.6H32.2535ZM26.4455 241.464C26.0055 241.464 25.7855 241.776 25.7855 242.4C25.7855 243.032 26.0055 243.348 26.4455 243.348C26.6615 243.348 26.8295 243.272 26.9495 243.12C27.0695 242.96 27.1295 242.72 27.1295 242.4C27.1295 241.776 26.9015 241.464 26.4455 241.464ZM29.8175 247.188C29.8175 246.572 29.9935 246.096 30.3455 245.76C30.7055 245.416 31.1655 245.244 31.7255 245.244C32.2855 245.244 32.7375 245.416 33.0815 245.76C33.4335 246.096 33.6095 246.572 33.6095 247.188C33.6095 247.804 33.4335 248.284 33.0815 248.628C32.7375 248.972 32.2855 249.144 31.7255 249.144C31.1575 249.144 30.6975 248.972 30.3455 248.628C29.9935 248.284 29.8175 247.804 29.8175 247.188ZM31.7135 246.252C31.2575 246.252 31.0295 246.564 31.0295 247.188C31.0295 247.82 31.2575 248.136 31.7135 248.136C32.1615 248.136 32.3855 247.82 32.3855 247.188C32.3855 246.564 32.1615 246.252 31.7135 246.252Z" fill="white"/>
<path d="M12.66 40.556C12.7 39.756 12.98 39.14 13.5 38.708C14.028 38.268 14.72 38.048 15.576 38.048C16.16 38.048 16.66 38.152 17.076 38.36C17.492 38.56 17.804 38.836 18.012 39.188C18.228 39.532 18.336 39.924 18.336 40.364C18.336 40.868 18.204 41.296 17.94 41.648C17.684 41.992 17.376 42.224 17.016 42.344V42.392C17.48 42.536 17.84 42.792 18.096 43.16C18.36 43.528 18.492 44 18.492 44.576C18.492 45.056 18.38 45.484 18.156 45.86C17.94 46.236 17.616 46.532 17.184 46.748C16.76 46.956 16.248 47.06 15.648 47.06C14.744 47.06 14.008 46.832 13.44 46.376C12.872 45.92 12.572 45.248 12.54 44.36H14.172C14.188 44.752 14.32 45.068 14.568 45.308C14.824 45.54 15.172 45.656 15.612 45.656C16.02 45.656 16.332 45.544 16.548 45.32C16.772 45.088 16.884 44.792 16.884 44.432C16.884 43.952 16.732 43.608 16.428 43.4C16.124 43.192 15.652 43.088 15.012 43.088H14.664V41.708H15.012C16.148 41.708 16.716 41.328 16.716 40.568C16.716 40.224 16.612 39.956 16.404 39.764C16.204 39.572 15.912 39.476 15.528 39.476C15.152 39.476 14.86 39.58 14.652 39.788C14.452 39.988 14.336 40.244 14.304 40.556H12.66ZM19.8196 42.512C19.8196 41.128 20.0676 40.044 20.5636 39.26C21.0676 38.476 21.8996 38.084 23.0596 38.084C24.2196 38.084 25.0476 38.476 25.5436 39.26C26.0476 40.044 26.2996 41.128 26.2996 42.512C26.2996 43.904 26.0476 44.996 25.5436 45.788C25.0476 46.58 24.2196 46.976 23.0596 46.976C21.8996 46.976 21.0676 46.58 20.5636 45.788C20.0676 44.996 19.8196 43.904 19.8196 42.512ZM24.6436 42.512C24.6436 41.92 24.6036 41.424 24.5236 41.024C24.4516 40.616 24.2996 40.284 24.0676 40.028C23.8436 39.772 23.5076 39.644 23.0596 39.644C22.6116 39.644 22.2716 39.772 22.0396 40.028C21.8156 40.284 21.6636 40.616 21.5836 41.024C21.5116 41.424 21.4756 41.92 21.4756 42.512C21.4756 43.12 21.5116 43.632 21.5836 44.048C21.6556 44.456 21.8076 44.788 22.0396 45.044C22.2716 45.292 22.6116 45.416 23.0596 45.416C23.5076 45.416 23.8476 45.292 24.0796 45.044C24.3116 44.788 24.4636 44.456 24.5356 44.048C24.6076 43.632 24.6436 43.12 24.6436 42.512ZM27.3854 40.4C27.3854 39.792 27.5614 39.316 27.9134 38.972C28.2734 38.628 28.7334 38.456 29.2934 38.456C29.8534 38.456 30.3094 38.628 30.6614 38.972C31.0214 39.316 31.2014 39.792 31.2014 40.4C31.2014 41.016 31.0214 41.496 30.6614 41.84C30.3094 42.184 29.8534 42.356 29.2934 42.356C28.7334 42.356 28.2734 42.184 27.9134 41.84C27.5614 41.496 27.3854 41.016 27.3854 40.4ZM35.0894 38.6L30.3734 47H28.7414L33.4454 38.6H35.0894ZM29.2814 39.464C28.8414 39.464 28.6214 39.776 28.6214 40.4C28.6214 41.032 28.8414 41.348 29.2814 41.348C29.4974 41.348 29.6654 41.272 29.7854 41.12C29.9054 40.96 29.9654 40.72 29.9654 40.4C29.9654 39.776 29.7374 39.464 29.2814 39.464ZM32.6534 45.188C32.6534 44.572 32.8294 44.096 33.1814 43.76C33.5414 43.416 34.0014 43.244 34.5614 43.244C35.1214 43.244 35.5734 43.416 35.9174 43.76C36.2694 44.096 36.4454 44.572 36.4454 45.188C36.4454 45.804 36.2694 46.284 35.9174 46.628C35.5734 46.972 35.1214 47.144 34.5614 47.144C33.9934 47.144 33.5334 46.972 33.1814 46.628C32.8294 46.284 32.6534 45.804 32.6534 45.188ZM34.5494 44.252C34.0934 44.252 33.8654 44.564 33.8654 45.188C33.8654 45.82 34.0934 46.136 34.5494 46.136C34.9974 46.136 35.2214 45.82 35.2214 45.188C35.2214 44.564 34.9974 44.252 34.5494 44.252Z" fill="white"/>
<path d="M13.164 145.104C13.932 144.464 14.544 143.932 15 143.508C15.456 143.076 15.836 142.628 16.14 142.164C16.444 141.7 16.596 141.244 16.596 140.796C16.596 140.388 16.5 140.068 16.308 139.836C16.116 139.604 15.82 139.488 15.42 139.488C15.02 139.488 14.712 139.624 14.496 139.896C14.28 140.16 14.168 140.524 14.16 140.988H12.528C12.56 140.028 12.844 139.3 13.38 138.804C13.924 138.308 14.612 138.06 15.444 138.06C16.356 138.06 17.056 138.304 17.544 138.792C18.032 139.272 18.276 139.908 18.276 140.7C18.276 141.324 18.108 141.92 17.772 142.488C17.436 143.056 17.052 143.552 16.62 143.976C16.188 144.392 15.624 144.896 14.928 145.488H18.468V146.88H12.54V145.632L13.164 145.104ZM19.5266 142.512C19.5266 141.128 19.7746 140.044 20.2706 139.26C20.7746 138.476 21.6066 138.084 22.7666 138.084C23.9266 138.084 24.7546 138.476 25.2506 139.26C25.7546 140.044 26.0066 141.128 26.0066 142.512C26.0066 143.904 25.7546 144.996 25.2506 145.788C24.7546 146.58 23.9266 146.976 22.7666 146.976C21.6066 146.976 20.7746 146.58 20.2706 145.788C19.7746 144.996 19.5266 143.904 19.5266 142.512ZM24.3506 142.512C24.3506 141.92 24.3106 141.424 24.2306 141.024C24.1586 140.616 24.0066 140.284 23.7746 140.028C23.5506 139.772 23.2146 139.644 22.7666 139.644C22.3186 139.644 21.9786 139.772 21.7466 140.028C21.5226 140.284 21.3706 140.616 21.2906 141.024C21.2186 141.424 21.1826 141.92 21.1826 142.512C21.1826 143.12 21.2186 143.632 21.2906 144.048C21.3626 144.456 21.5146 144.788 21.7466 145.044C21.9786 145.292 22.3186 145.416 22.7666 145.416C23.2146 145.416 23.5546 145.292 23.7866 145.044C24.0186 144.788 24.1706 144.456 24.2426 144.048C24.3146 143.632 24.3506 143.12 24.3506 142.512ZM27.0924 140.4C27.0924 139.792 27.2684 139.316 27.6204 138.972C27.9804 138.628 28.4404 138.456 29.0004 138.456C29.5604 138.456 30.0164 138.628 30.3684 138.972C30.7284 139.316 30.9084 139.792 30.9084 140.4C30.9084 141.016 30.7284 141.496 30.3684 141.84C30.0164 142.184 29.5604 142.356 29.0004 142.356C28.4404 142.356 27.9804 142.184 27.6204 141.84C27.2684 141.496 27.0924 141.016 27.0924 140.4ZM34.7964 138.6L30.0804 147H28.4484L33.1524 138.6H34.7964ZM28.9884 139.464C28.5484 139.464 28.3284 139.776 28.3284 140.4C28.3284 141.032 28.5484 141.348 28.9884 141.348C29.2044 141.348 29.3724 141.272 29.4924 141.12C29.6124 140.96 29.6724 140.72 29.6724 140.4C29.6724 139.776 29.4444 139.464 28.9884 139.464ZM32.3604 145.188C32.3604 144.572 32.5364 144.096 32.8884 143.76C33.2484 143.416 33.7084 143.244 34.2684 143.244C34.8284 143.244 35.2804 143.416 35.6244 143.76C35.9764 144.096 36.1524 144.572 36.1524 145.188C36.1524 145.804 35.9764 146.284 35.6244 146.628C35.2804 146.972 34.8284 147.144 34.2684 147.144C33.7004 147.144 33.2404 146.972 32.8884 146.628C32.5364 146.284 32.3604 145.804 32.3604 145.188ZM34.2564 144.252C33.8004 144.252 33.5724 144.564 33.5724 145.188C33.5724 145.82 33.8004 146.136 34.2564 146.136C34.7044 146.136 34.9284 145.82 34.9284 145.188C34.9284 144.564 34.7044 144.252 34.2564 144.252Z" fill="white"/>
<path d="M472.164 270.104C472.932 269.464 473.544 268.932 474 268.508C474.456 268.076 474.836 267.628 475.14 267.164C475.444 266.7 475.596 266.244 475.596 265.796C475.596 265.388 475.5 265.068 475.308 264.836C475.116 264.604 474.82 264.488 474.42 264.488C474.02 264.488 473.712 264.624 473.496 264.896C473.28 265.16 473.168 265.524 473.16 265.988H471.528C471.56 265.028 471.844 264.3 472.38 263.804C472.924 263.308 473.612 263.06 474.444 263.06C475.356 263.06 476.056 263.304 476.544 263.792C477.032 264.272 477.276 264.908 477.276 265.7C477.276 266.324 477.108 266.92 476.772 267.488C476.436 268.056 476.052 268.552 475.62 268.976C475.188 269.392 474.624 269.896 473.928 270.488H477.468V271.88H471.54V270.632L472.164 270.104ZM478.527 267.512C478.527 266.128 478.775 265.044 479.271 264.26C479.775 263.476 480.607 263.084 481.767 263.084C482.927 263.084 483.755 263.476 484.251 264.26C484.755 265.044 485.007 266.128 485.007 267.512C485.007 268.904 484.755 269.996 484.251 270.788C483.755 271.58 482.927 271.976 481.767 271.976C480.607 271.976 479.775 271.58 479.271 270.788C478.775 269.996 478.527 268.904 478.527 267.512ZM483.351 267.512C483.351 266.92 483.311 266.424 483.231 266.024C483.159 265.616 483.007 265.284 482.775 265.028C482.551 264.772 482.215 264.644 481.767 264.644C481.319 264.644 480.979 264.772 480.747 265.028C480.523 265.284 480.371 265.616 480.291 266.024C480.219 266.424 480.183 266.92 480.183 267.512C480.183 268.12 480.219 268.632 480.291 269.048C480.363 269.456 480.515 269.788 480.747 270.044C480.979 270.292 481.319 270.416 481.767 270.416C482.215 270.416 482.555 270.292 482.787 270.044C483.019 269.788 483.171 269.456 483.243 269.048C483.315 268.632 483.351 268.12 483.351 267.512ZM486.812 270.104C487.58 269.464 488.192 268.932 488.648 268.508C489.104 268.076 489.484 267.628 489.788 267.164C490.092 266.7 490.244 266.244 490.244 265.796C490.244 265.388 490.148 265.068 489.956 264.836C489.764 264.604 489.468 264.488 489.068 264.488C488.668 264.488 488.36 264.624 488.144 264.896C487.928 265.16 487.816 265.524 487.808 265.988H486.176C486.208 265.028 486.492 264.3 487.028 263.804C487.572 263.308 488.26 263.06 489.092 263.06C490.004 263.06 490.704 263.304 491.192 263.792C491.68 264.272 491.924 264.908 491.924 265.7C491.924 266.324 491.756 266.92 491.42 267.488C491.084 268.056 490.7 268.552 490.268 268.976C489.836 269.392 489.272 269.896 488.576 270.488H492.116V271.88H486.188V270.632L486.812 270.104ZM493.103 270.296V268.976L497.027 263.36H498.983V268.832H500.039V270.296H498.983V272H497.303V270.296H493.103ZM497.411 265.16L494.951 268.832H497.411V265.16Z" fill="white"/>
<path d="M263.164 270.104C263.932 269.464 264.544 268.932 265 268.508C265.456 268.076 265.836 267.628 266.14 267.164C266.444 266.7 266.596 266.244 266.596 265.796C266.596 265.388 266.5 265.068 266.308 264.836C266.116 264.604 265.82 264.488 265.42 264.488C265.02 264.488 264.712 264.624 264.496 264.896C264.28 265.16 264.168 265.524 264.16 265.988H262.528C262.56 265.028 262.844 264.3 263.38 263.804C263.924 263.308 264.612 263.06 265.444 263.06C266.356 263.06 267.056 263.304 267.544 263.792C268.032 264.272 268.276 264.908 268.276 265.7C268.276 266.324 268.108 266.92 267.772 267.488C267.436 268.056 267.052 268.552 266.62 268.976C266.188 269.392 265.624 269.896 264.928 270.488H268.468V271.88H262.54V270.632L263.164 270.104ZM269.527 267.512C269.527 266.128 269.775 265.044 270.271 264.26C270.775 263.476 271.607 263.084 272.767 263.084C273.927 263.084 274.755 263.476 275.251 264.26C275.755 265.044 276.007 266.128 276.007 267.512C276.007 268.904 275.755 269.996 275.251 270.788C274.755 271.58 273.927 271.976 272.767 271.976C271.607 271.976 270.775 271.58 270.271 270.788C269.775 269.996 269.527 268.904 269.527 267.512ZM274.351 267.512C274.351 266.92 274.311 266.424 274.231 266.024C274.159 265.616 274.007 265.284 273.775 265.028C273.551 264.772 273.215 264.644 272.767 264.644C272.319 264.644 271.979 264.772 271.747 265.028C271.523 265.284 271.371 265.616 271.291 266.024C271.219 266.424 271.183 266.92 271.183 267.512C271.183 268.12 271.219 268.632 271.291 269.048C271.363 269.456 271.515 269.788 271.747 270.044C271.979 270.292 272.319 270.416 272.767 270.416C273.215 270.416 273.555 270.292 273.787 270.044C274.019 269.788 274.171 269.456 274.243 269.048C274.315 268.632 274.351 268.12 274.351 267.512ZM277.812 270.104C278.58 269.464 279.192 268.932 279.648 268.508C280.104 268.076 280.484 267.628 280.788 267.164C281.092 266.7 281.244 266.244 281.244 265.796C281.244 265.388 281.148 265.068 280.956 264.836C280.764 264.604 280.468 264.488 280.068 264.488C279.668 264.488 279.36 264.624 279.144 264.896C278.928 265.16 278.816 265.524 278.808 265.988H277.176C277.208 265.028 277.492 264.3 278.028 263.804C278.572 263.308 279.26 263.06 280.092 263.06C281.004 263.06 281.704 263.304 282.192 263.792C282.68 264.272 282.924 264.908 282.924 265.7C282.924 266.324 282.756 266.92 282.42 267.488C282.084 268.056 281.7 268.552 281.268 268.976C280.836 269.392 280.272 269.896 279.576 270.488H283.116V271.88H277.188V270.632L277.812 270.104ZM284.199 265.556C284.239 264.756 284.519 264.14 285.039 263.708C285.567 263.268 286.259 263.048 287.115 263.048C287.699 263.048 288.199 263.152 288.615 263.36C289.031 263.56 289.343 263.836 289.551 264.188C289.767 264.532 289.875 264.924 289.875 265.364C289.875 265.868 289.743 266.296 289.479 266.648C289.223 266.992 288.915 267.224 288.555 267.344V267.392C289.019 267.536 289.379 267.792 289.635 268.16C289.899 268.528 290.031 269 290.031 269.576C290.031 270.056 289.919 270.484 289.695 270.86C289.479 271.236 289.155 271.532 288.723 271.748C288.299 271.956 287.787 272.06 287.187 272.06C286.283 272.06 285.547 271.832 284.979 271.376C284.411 270.92 284.111 270.248 284.079 269.36H285.711C285.727 269.752 285.859 270.068 286.107 270.308C286.363 270.54 286.711 270.656 287.151 270.656C287.559 270.656 287.871 270.544 288.087 270.32C288.311 270.088 288.423 269.792 288.423 269.432C288.423 268.952 288.271 268.608 287.967 268.4C287.663 268.192 287.191 268.088 286.551 268.088H286.203V266.708H286.551C287.687 266.708 288.255 266.328 288.255 265.568C288.255 265.224 288.151 264.956 287.943 264.764C287.743 264.572 287.451 264.476 287.067 264.476C286.691 264.476 286.399 264.58 286.191 264.788C285.991 264.988 285.875 265.244 285.843 265.556H284.199Z" fill="white"/>
<path d="M53 45H488" stroke="#6B6B6B" stroke-width="3" stroke-linecap="round" stroke-linejoin="round" stroke-dasharray="24 24"/>
<path d="M53 143H488" stroke="#6B6B6B" stroke-width="3" stroke-linecap="round" stroke-linejoin="round" stroke-dasharray="24 24"/>
<path d="M53 245H488" stroke="#6B6B6B" stroke-width="3" stroke-linecap="round" stroke-linejoin="round" stroke-dasharray="24 24"/>
<path d="M59 178L277.5 201.5L488 96.5" stroke="#5870DC" stroke-width="3"/>
<path d="M59.5 191.5L277.5 230.5L488.5 126" stroke="#C158DC" stroke-width="3"/>
<path d="M59 155L277 201L488.5 80.5" stroke="#58DC95" stroke-width="3" stroke-linecap="round"/>
<circle cx="59" cy="178" r="5" fill="#F7F7F7" stroke="#5870DC" stroke-width="2"/>
<circle cx="59" cy="192" r="5" fill="#F7F7F7" stroke="#C258DC" stroke-width="2"/>
<circle cx="277" cy="230" r="5" fill="#F7F7F7" stroke="#C258DC" stroke-width="2"/>
<circle cx="488" cy="126" r="5" fill="#F7F7F7" stroke="#C258DC" stroke-width="2"/>
<circle cx="59" cy="155" r="5" fill="#F7F7F7" stroke="#58DC95" stroke-width="2"/>
<circle cx="488" cy="80" r="5" fill="#F7F7F7" stroke="#58DC95" stroke-width="2"/>
<circle cx="277" cy="201" r="5" fill="#F7F7F7" stroke="#5870DC" stroke-width="2"/>
<circle cx="488" cy="97" r="5" fill="#F7F7F7" stroke="#5870DC" stroke-width="2"/>
<path d="M3 9H18.5" stroke="#5870DC" stroke-width="5" stroke-linecap="round"/>
<path d="M135 9H150.5" stroke="#58DC95" stroke-width="5" stroke-linecap="round"/>
<path d="M303 9H318.5" stroke="#C158DC" stroke-width="5" stroke-linecap="round"/>
<path d="M39 4.624V5.98H35.508V8.128H38.184V9.46H35.508V13H33.828V4.624H39ZM41.0433 5.56C40.7473 5.56 40.4993 5.468 40.2993 5.284C40.1073 5.092 40.0113 4.856 40.0113 4.576C40.0113 4.296 40.1073 4.064 40.2993 3.88C40.4993 3.688 40.7473 3.592 41.0433 3.592C41.3393 3.592 41.5833 3.688 41.7753 3.88C41.9753 4.064 42.0753 4.296 42.0753 4.576C42.0753 4.856 41.9753 5.092 41.7753 5.284C41.5833 5.468 41.3393 5.56 41.0433 5.56ZM41.8713 6.352V13H40.1913V6.352H41.8713ZM45.4871 7.732V10.948C45.4871 11.172 45.5391 11.336 45.6431 11.44C45.7551 11.536 45.9391 11.584 46.1951 11.584H46.9751V13H45.9191C44.5031 13 43.7951 12.312 43.7951 10.936V7.732H43.0031V6.352H43.7951V4.708H45.4871V6.352H46.9751V7.732H45.4871ZM51.8675 6.256C52.6595 6.256 53.2995 6.508 53.7875 7.012C54.2755 7.508 54.5195 8.204 54.5195 9.1V13H52.8395V9.328C52.8395 8.8 52.7075 8.396 52.4435 8.116C52.1795 7.828 51.8195 7.684 51.3635 7.684C50.8995 7.684 50.5315 7.828 50.2595 8.116C49.9955 8.396 49.8635 8.8 49.8635 9.328V13H48.1835V6.352H49.8635V7.18C50.0875 6.892 50.3715 6.668 50.7155 6.508C51.0675 6.34 51.4515 6.256 51.8675 6.256ZM62.2971 9.532C62.2971 9.772 62.2811 9.988 62.2491 10.18H57.3891C57.4291 10.66 57.5971 11.036 57.8931 11.308C58.1891 11.58 58.5531 11.716 58.9851 11.716C59.6091 11.716 60.0531 11.448 60.3171 10.912H62.1291C61.9371 11.552 61.5691 12.08 61.0251 12.496C60.4811 12.904 59.8131 13.108 59.0211 13.108C58.3811 13.108 57.8051 12.968 57.2931 12.688C56.7891 12.4 56.3931 11.996 56.1051 11.476C55.8251 10.956 55.6851 10.356 55.6851 9.676C55.6851 8.988 55.8251 8.384 56.1051 7.864C56.3851 7.344 56.7771 6.944 57.2811 6.664C57.7851 6.384 58.3651 6.244 59.0211 6.244C59.6531 6.244 60.2171 6.38 60.7131 6.652C61.2171 6.924 61.6051 7.312 61.8771 7.816C62.1571 8.312 62.2971 8.884 62.2971 9.532ZM60.5571 9.052C60.5491 8.62 60.3931 8.276 60.0891 8.02C59.7851 7.756 59.4131 7.624 58.9731 7.624C58.5571 7.624 58.2051 7.752 57.9171 8.008C57.6371 8.256 57.4651 8.604 57.4011 9.052H60.5571ZM66.0673 13.108C65.5233 13.108 65.0353 13.012 64.6033 12.82C64.1713 12.62 63.8273 12.352 63.5713 12.016C63.3233 11.68 63.1873 11.308 63.1633 10.9H64.8553C64.8873 11.156 65.0113 11.368 65.2273 11.536C65.4513 11.704 65.7273 11.788 66.0553 11.788C66.3753 11.788 66.6233 11.724 66.7993 11.596C66.9833 11.468 67.0753 11.304 67.0753 11.104C67.0753 10.888 66.9633 10.728 66.7393 10.624C66.5233 10.512 66.1753 10.392 65.6953 10.264C65.1993 10.144 64.7913 10.02 64.4713 9.892C64.1593 9.764 63.8873 9.568 63.6553 9.304C63.4313 9.04 63.3193 8.684 63.3193 8.236C63.3193 7.868 63.4233 7.532 63.6313 7.228C63.8473 6.924 64.1513 6.684 64.5433 6.508C64.9433 6.332 65.4113 6.244 65.9473 6.244C66.7393 6.244 67.3713 6.444 67.8433 6.844C68.3153 7.236 68.5753 7.768 68.6233 8.44H67.0153C66.9913 8.176 66.8793 7.968 66.6793 7.816C66.4873 7.656 66.2273 7.576 65.8993 7.576C65.5953 7.576 65.3593 7.632 65.1913 7.744C65.0313 7.856 64.9513 8.012 64.9513 8.212C64.9513 8.436 65.0633 8.608 65.2873 8.728C65.5113 8.84 65.8593 8.956 66.3313 9.076C66.8113 9.196 67.2073 9.32 67.5193 9.448C67.8313 9.576 68.0993 9.776 68.3233 10.048C68.5553 10.312 68.6753 10.664 68.6833 11.104C68.6833 11.488 68.5753 11.832 68.3593 12.136C68.1513 12.44 67.8473 12.68 67.4473 12.856C67.0553 13.024 66.5953 13.108 66.0673 13.108ZM72.6064 13.108C72.0624 13.108 71.5744 13.012 71.1424 12.82C70.7104 12.62 70.3664 12.352 70.1104 12.016C69.8624 11.68 69.7264 11.308 69.7024 10.9H71.3944C71.4264 11.156 71.5504 11.368 71.7664 11.536C71.9904 11.704 72.2664 11.788 72.5944 11.788C72.9144 11.788 73.1624 11.724 73.3384 11.596C73.5224 11.468 73.6144 11.304 73.6144 11.104C73.6144 10.888 73.5024 10.728 73.2784 10.624C73.0624 10.512 72.7144 10.392 72.2344 10.264C71.7384 10.144 71.3304 10.02 71.0104 9.892C70.6984 9.764 70.4264 9.568 70.1944 9.304C69.9704 9.04 69.8584 8.684 69.8584 8.236C69.8584 7.868 69.9624 7.532 70.1704 7.228C70.3864 6.924 70.6904 6.684 71.0824 6.508C71.4824 6.332 71.9504 6.244 72.4864 6.244C73.2784 6.244 73.9104 6.444 74.3824 6.844C74.8544 7.236 75.1144 7.768 75.1624 8.44H73.5544C73.5304 8.176 73.4184 7.968 73.2184 7.816C73.0264 7.656 72.7664 7.576 72.4384 7.576C72.1344 7.576 71.8984 7.632 71.7304 7.744C71.5704 7.856 71.4904 8.012 71.4904 8.212C71.4904 8.436 71.6024 8.608 71.8264 8.728C72.0504 8.84 72.3984 8.956 72.8704 9.076C73.3504 9.196 73.7464 9.32 74.0584 9.448C74.3704 9.576 74.6384 9.776 74.8624 10.048C75.0944 10.312 75.2144 10.664 75.2224 11.104C75.2224 11.488 75.1144 11.832 74.8984 12.136C74.6904 12.44 74.3864 12.68 73.9864 12.856C73.5944 13.024 73.1344 13.108 72.6064 13.108ZM85.2928 7.144C85.1008 6.792 84.8368 6.524 84.5008 6.34C84.1648 6.156 83.7728 6.064 83.3248 6.064C82.8288 6.064 82.3888 6.176 82.0048 6.4C81.6208 6.624 81.3208 6.944 81.1048 7.36C80.8888 7.776 80.7808 8.256 80.7808 8.8C80.7808 9.36 80.8888 9.848 81.1048 10.264C81.3288 10.68 81.6368 11 82.0288 11.224C82.4208 11.448 82.8768 11.56 83.3968 11.56C84.0368 11.56 84.5608 11.392 84.9688 11.056C85.3768 10.712 85.6448 10.236 85.7728 9.628H82.8928V8.344H87.4288V9.808C87.3168 10.392 87.0768 10.932 86.7088 11.428C86.3408 11.924 85.8648 12.324 85.2808 12.628C84.7048 12.924 84.0568 13.072 83.3368 13.072C82.5288 13.072 81.7968 12.892 81.1408 12.532C80.4928 12.164 79.9808 11.656 79.6048 11.008C79.2368 10.36 79.0528 9.624 79.0528 8.8C79.0528 7.976 79.2368 7.24 79.6048 6.592C79.9808 5.936 80.4928 5.428 81.1408 5.068C81.7968 4.7 82.5248 4.516 83.3248 4.516C84.2688 4.516 85.0888 4.748 85.7848 5.212C86.4808 5.668 86.9608 6.312 87.2248 7.144H85.2928ZM95.0318 6.352L90.9158 16.144H89.1278L90.5678 12.832L87.9038 6.352H89.7878L91.5038 10.996L93.2438 6.352H95.0318ZM104.193 6.256C105.009 6.256 105.665 6.508 106.161 7.012C106.665 7.508 106.917 8.204 106.917 9.1V13H105.237V9.328C105.237 8.808 105.105 8.412 104.841 8.14C104.577 7.86 104.217 7.72 103.761 7.72C103.305 7.72 102.941 7.86 102.669 8.14C102.405 8.412 102.273 8.808 102.273 9.328V13H100.593V9.328C100.593 8.808 100.461 8.412 100.197 8.14C99.9334 7.86 99.5734 7.72 99.1174 7.72C98.6534 7.72 98.2854 7.86 98.0134 8.14C97.7494 8.412 97.6174 8.808 97.6174 9.328V13H95.9374V6.352H97.6174V7.156C97.8334 6.876 98.1094 6.656 98.4454 6.496C98.7894 6.336 99.1654 6.256 99.5734 6.256C100.093 6.256 100.557 6.368 100.965 6.592C101.373 6.808 101.689 7.12 101.913 7.528C102.129 7.144 102.441 6.836 102.849 6.604C103.265 6.372 103.713 6.256 104.193 6.256Z" fill="#F5F5F5"/>
<path d="M326.42 8.8C326.42 7.976 326.604 7.24 326.972 6.592C327.348 5.936 327.856 5.428 328.496 5.068C329.144 4.7 329.868 4.516 330.668 4.516C331.604 4.516 332.424 4.756 333.128 5.236C333.832 5.716 334.324 6.38 334.604 7.228H332.672C332.48 6.828 332.208 6.528 331.856 6.328C331.512 6.128 331.112 6.028 330.656 6.028C330.168 6.028 329.732 6.144 329.348 6.376C328.972 6.6 328.676 6.92 328.46 7.336C328.252 7.752 328.148 8.24 328.148 8.8C328.148 9.352 328.252 9.84 328.46 10.264C328.676 10.68 328.972 11.004 329.348 11.236C329.732 11.46 330.168 11.572 330.656 11.572C331.112 11.572 331.512 11.472 331.856 11.272C332.208 11.064 332.48 10.76 332.672 10.36H334.604C334.324 11.216 333.832 11.884 333.128 12.364C332.432 12.836 331.612 13.072 330.668 13.072C329.868 13.072 329.144 12.892 328.496 12.532C327.856 12.164 327.348 11.656 326.972 11.008C326.604 10.36 326.42 9.624 326.42 8.8ZM338.991 13.108C338.351 13.108 337.775 12.968 337.263 12.688C336.751 12.4 336.347 11.996 336.051 11.476C335.763 10.956 335.619 10.356 335.619 9.676C335.619 8.996 335.767 8.396 336.063 7.876C336.367 7.356 336.779 6.956 337.299 6.676C337.819 6.388 338.399 6.244 339.039 6.244C339.679 6.244 340.259 6.388 340.779 6.676C341.299 6.956 341.707 7.356 342.003 7.876C342.307 8.396 342.459 8.996 342.459 9.676C342.459 10.356 342.303 10.956 341.991 11.476C341.687 11.996 341.271 12.4 340.743 12.688C340.223 12.968 339.639 13.108 338.991 13.108ZM338.991 11.644C339.295 11.644 339.579 11.572 339.843 11.428C340.115 11.276 340.331 11.052 340.491 10.756C340.651 10.46 340.731 10.1 340.731 9.676C340.731 9.044 340.563 8.56 340.227 8.224C339.899 7.88 339.495 7.708 339.015 7.708C338.535 7.708 338.131 7.88 337.803 8.224C337.483 8.56 337.323 9.044 337.323 9.676C337.323 10.308 337.479 10.796 337.791 11.14C338.111 11.476 338.511 11.644 338.991 11.644ZM351.947 6.256C352.763 6.256 353.419 6.508 353.915 7.012C354.419 7.508 354.671 8.204 354.671 9.1V13H352.991V9.328C352.991 8.808 352.859 8.412 352.595 8.14C352.331 7.86 351.971 7.72 351.515 7.72C351.059 7.72 350.695 7.86 350.423 8.14C350.159 8.412 350.027 8.808 350.027 9.328V13H348.347V9.328C348.347 8.808 348.215 8.412 347.951 8.14C347.687 7.86 347.327 7.72 346.871 7.72C346.407 7.72 346.039 7.86 345.767 8.14C345.503 8.412 345.371 8.808 345.371 9.328V13H343.691V6.352H345.371V7.156C345.587 6.876 345.863 6.656 346.199 6.496C346.543 6.336 346.919 6.256 347.327 6.256C347.847 6.256 348.311 6.368 348.719 6.592C349.127 6.808 349.443 7.12 349.667 7.528C349.883 7.144 350.195 6.836 350.603 6.604C351.019 6.372 351.467 6.256 351.947 6.256ZM364.522 6.256C365.338 6.256 365.994 6.508 366.49 7.012C366.994 7.508 367.246 8.204 367.246 9.1V13H365.566V9.328C365.566 8.808 365.434 8.412 365.17 8.14C364.906 7.86 364.546 7.72 364.09 7.72C363.634 7.72 363.27 7.86 362.998 8.14C362.734 8.412 362.602 8.808 362.602 9.328V13H360.922V9.328C360.922 8.808 360.79 8.412 360.526 8.14C360.262 7.86 359.902 7.72 359.446 7.72C358.982 7.72 358.614 7.86 358.342 8.14C358.078 8.412 357.946 8.808 357.946 9.328V13H356.266V6.352H357.946V7.156C358.162 6.876 358.438 6.656 358.774 6.496C359.118 6.336 359.494 6.256 359.902 6.256C360.422 6.256 360.886 6.368 361.294 6.592C361.702 6.808 362.018 7.12 362.242 7.528C362.458 7.144 362.77 6.836 363.178 6.604C363.594 6.372 364.042 6.256 364.522 6.256ZM375.116 6.352V13H373.424V12.16C373.208 12.448 372.924 12.676 372.572 12.844C372.228 13.004 371.852 13.084 371.444 13.084C370.924 13.084 370.464 12.976 370.064 12.76C369.664 12.536 369.348 12.212 369.116 11.788C368.892 11.356 368.78 10.844 368.78 10.252V6.352H370.46V10.012C370.46 10.54 370.592 10.948 370.856 11.236C371.12 11.516 371.48 11.656 371.936 11.656C372.4 11.656 372.764 11.516 373.028 11.236C373.292 10.948 373.424 10.54 373.424 10.012V6.352H375.116ZM380.457 6.256C381.249 6.256 381.889 6.508 382.377 7.012C382.865 7.508 383.109 8.204 383.109 9.1V13H381.429V9.328C381.429 8.8 381.297 8.396 381.033 8.116C380.769 7.828 380.409 7.684 379.953 7.684C379.489 7.684 379.121 7.828 378.849 8.116C378.585 8.396 378.453 8.8 378.453 9.328V13H376.773V6.352H378.453V7.18C378.677 6.892 378.961 6.668 379.305 6.508C379.657 6.34 380.041 6.256 380.457 6.256ZM385.559 5.56C385.263 5.56 385.015 5.468 384.815 5.284C384.623 5.092 384.527 4.856 384.527 4.576C384.527 4.296 384.623 4.064 384.815 3.88C385.015 3.688 385.263 3.592 385.559 3.592C385.855 3.592 386.099 3.688 386.291 3.88C386.491 4.064 386.591 4.296 386.591 4.576C386.591 4.856 386.491 5.092 386.291 5.284C386.099 5.468 385.855 5.56 385.559 5.56ZM386.387 6.352V13H384.707V6.352H386.387ZM390.003 7.732V10.948C390.003 11.172 390.055 11.336 390.159 11.44C390.271 11.536 390.455 11.584 390.711 11.584H391.491V13H390.435C389.019 13 388.311 12.312 388.311 10.936V7.732H387.519V6.352H388.311V4.708H390.003V6.352H391.491V7.732H390.003ZM399.059 6.352L394.943 16.144H393.155L394.595 12.832L391.931 6.352H393.815L395.531 10.996L397.271 6.352H399.059ZM410.003 13L408.155 9.736H407.363V13H405.683V4.624H408.827C409.475 4.624 410.027 4.74 410.483 4.972C410.939 5.196 411.279 5.504 411.503 5.896C411.735 6.28 411.851 6.712 411.851 7.192C411.851 7.744 411.691 8.244 411.371 8.692C411.051 9.132 410.575 9.436 409.943 9.604L411.947 13H410.003ZM407.363 8.476H408.767C409.223 8.476 409.563 8.368 409.787 8.152C410.011 7.928 410.123 7.62 410.123 7.228C410.123 6.844 410.011 6.548 409.787 6.34C409.563 6.124 409.223 6.016 408.767 6.016H407.363V8.476ZM419.551 9.532C419.551 9.772 419.535 9.988 419.503 10.18H414.643C414.683 10.66 414.851 11.036 415.147 11.308C415.443 11.58 415.807 11.716 416.239 11.716C416.863 11.716 417.307 11.448 417.571 10.912H419.383C419.191 11.552 418.823 12.08 418.279 12.496C417.735 12.904 417.067 13.108 416.275 13.108C415.635 13.108 415.059 12.968 414.547 12.688C414.043 12.4 413.647 11.996 413.359 11.476C413.079 10.956 412.939 10.356 412.939 9.676C412.939 8.988 413.079 8.384 413.359 7.864C413.639 7.344 414.031 6.944 414.535 6.664C415.039 6.384 415.619 6.244 416.275 6.244C416.907 6.244 417.471 6.38 417.967 6.652C418.471 6.924 418.859 7.312 419.131 7.816C419.411 8.312 419.551 8.884 419.551 9.532ZM417.811 9.052C417.803 8.62 417.647 8.276 417.343 8.02C417.039 7.756 416.667 7.624 416.227 7.624C415.811 7.624 415.459 7.752 415.171 8.008C414.891 8.256 414.719 8.604 414.655 9.052H417.811ZM420.345 9.676C420.345 8.988 420.485 8.388 420.765 7.876C421.045 7.356 421.433 6.956 421.929 6.676C422.425 6.388 422.993 6.244 423.633 6.244C424.457 6.244 425.137 6.452 425.673 6.868C426.217 7.276 426.581 7.852 426.765 8.596H424.953C424.857 8.308 424.693 8.084 424.461 7.924C424.237 7.756 423.957 7.672 423.621 7.672C423.141 7.672 422.761 7.848 422.481 8.2C422.201 8.544 422.061 9.036 422.061 9.676C422.061 10.308 422.201 10.8 422.481 11.152C422.761 11.496 423.141 11.668 423.621 11.668C424.301 11.668 424.745 11.364 424.953 10.756H426.765C426.581 11.476 426.217 12.048 425.673 12.472C425.129 12.896 424.449 13.108 423.633 13.108C422.993 13.108 422.425 12.968 421.929 12.688C421.433 12.4 421.045 12 420.765 11.488C420.485 10.968 420.345 10.364 420.345 9.676ZM429.676 7.384C429.892 7.032 430.172 6.756 430.516 6.556C430.868 6.356 431.268 6.256 431.716 6.256V8.02H431.272C430.744 8.02 430.344 8.144 430.072 8.392C429.808 8.64 429.676 9.072 429.676 9.688V13H427.996V6.352H429.676V7.384ZM439.028 9.532C439.028 9.772 439.012 9.988 438.98 10.18H434.12C434.16 10.66 434.328 11.036 434.624 11.308C434.92 11.58 435.284 11.716 435.716 11.716C436.34 11.716 436.784 11.448 437.048 10.912H438.86C438.668 11.552 438.3 12.08 437.756 12.496C437.212 12.904 436.544 13.108 435.752 13.108C435.112 13.108 434.536 12.968 434.024 12.688C433.52 12.4 433.124 11.996 432.836 11.476C432.556 10.956 432.416 10.356 432.416 9.676C432.416 8.988 432.556 8.384 432.836 7.864C433.116 7.344 433.508 6.944 434.012 6.664C434.516 6.384 435.096 6.244 435.752 6.244C436.384 6.244 436.948 6.38 437.444 6.652C437.948 6.924 438.336 7.312 438.608 7.816C438.888 8.312 439.028 8.884 439.028 9.532ZM437.288 9.052C437.28 8.62 437.124 8.276 436.82 8.02C436.516 7.756 436.144 7.624 435.704 7.624C435.288 7.624 434.936 7.752 434.648 8.008C434.368 8.256 434.196 8.604 434.132 9.052H437.288ZM439.822 9.652C439.822 8.98 439.954 8.384 440.218 7.864C440.49 7.344 440.854 6.944 441.31 6.664C441.774 6.384 442.29 6.244 442.858 6.244C443.354 6.244 443.786 6.344 444.154 6.544C444.53 6.744 444.83 6.996 445.054 7.3V6.352H446.746V13H445.054V12.028C444.838 12.34 444.538 12.6 444.154 12.808C443.778 13.008 443.342 13.108 442.846 13.108C442.286 13.108 441.774 12.964 441.31 12.676C440.854 12.388 440.49 11.984 440.218 11.464C439.954 10.936 439.822 10.332 439.822 9.652ZM445.054 9.676C445.054 9.268 444.974 8.92 444.814 8.632C444.654 8.336 444.438 8.112 444.166 7.96C443.894 7.8 443.602 7.72 443.29 7.72C442.978 7.72 442.69 7.796 442.426 7.948C442.162 8.1 441.946 8.324 441.778 8.62C441.618 8.908 441.538 9.252 441.538 9.652C441.538 10.052 441.618 10.404 441.778 10.708C441.946 11.004 442.162 11.232 442.426 11.392C442.698 11.552 442.986 11.632 443.29 11.632C443.602 11.632 443.894 11.556 444.166 11.404C444.438 11.244 444.654 11.02 444.814 10.732C444.974 10.436 445.054 10.084 445.054 9.676ZM450.343 7.732V10.948C450.343 11.172 450.395 11.336 450.499 11.44C450.611 11.536 450.795 11.584 451.051 11.584H451.831V13H450.775C449.359 13 448.651 12.312 448.651 10.936V7.732H447.859V6.352H448.651V4.708H450.343V6.352H451.831V7.732H450.343ZM453.891 5.56C453.595 5.56 453.347 5.468 453.147 5.284C452.955 5.092 452.859 4.856 452.859 4.576C452.859 4.296 452.955 4.064 453.147 3.88C453.347 3.688 453.595 3.592 453.891 3.592C454.187 3.592 454.431 3.688 454.623 3.88C454.823 4.064 454.923 4.296 454.923 4.576C454.923 4.856 454.823 5.092 454.623 5.284C454.431 5.468 454.187 5.56 453.891 5.56ZM454.719 6.352V13H453.039V6.352H454.719ZM459.331 13.108C458.691 13.108 458.115 12.968 457.603 12.688C457.091 12.4 456.687 11.996 456.391 11.476C456.103 10.956 455.959 10.356 455.959 9.676C455.959 8.996 456.107 8.396 456.403 7.876C456.707 7.356 457.119 6.956 457.639 6.676C458.159 6.388 458.739 6.244 459.379 6.244C460.019 6.244 460.599 6.388 461.119 6.676C461.639 6.956 462.047 7.356 462.343 7.876C462.647 8.396 462.799 8.996 462.799 9.676C462.799 10.356 462.643 10.956 462.331 11.476C462.027 11.996 461.611 12.4 461.083 12.688C460.563 12.968 459.979 13.108 459.331 13.108ZM459.331 11.644C459.635 11.644 459.919 11.572 460.183 11.428C460.455 11.276 460.671 11.052 460.831 10.756C460.991 10.46 461.071 10.1 461.071 9.676C461.071 9.044 460.903 8.56 460.567 8.224C460.239 7.88 459.835 7.708 459.355 7.708C458.875 7.708 458.471 7.88 458.143 8.224C457.823 8.56 457.663 9.044 457.663 9.676C457.663 10.308 457.819 10.796 458.131 11.14C458.451 11.476 458.851 11.644 459.331 11.644ZM467.715 6.256C468.507 6.256 469.147 6.508 469.635 7.012C470.123 7.508 470.367 8.204 470.367 9.1V13H468.687V9.328C468.687 8.8 468.555 8.396 468.291 8.116C468.027 7.828 467.667 7.684 467.211 7.684C466.747 7.684 466.379 7.828 466.107 8.116C465.843 8.396 465.711 8.8 465.711 9.328V13H464.031V6.352H465.711V7.18C465.935 6.892 466.219 6.668 466.563 6.508C466.915 6.34 467.299 6.256 467.715 6.256ZM477.716 13.084C477.132 13.084 476.604 12.984 476.132 12.784C475.668 12.584 475.3 12.296 475.028 11.92C474.756 11.544 474.616 11.1 474.608 10.588H476.408C476.432 10.932 476.552 11.204 476.768 11.404C476.992 11.604 477.296 11.704 477.68 11.704C478.072 11.704 478.38 11.612 478.604 11.428C478.828 11.236 478.94 10.988 478.94 10.684C478.94 10.436 478.864 10.232 478.712 10.072C478.56 9.912 478.368 9.788 478.136 9.7C477.912 9.604 477.6 9.5 477.2 9.388C476.656 9.228 476.212 9.072 475.868 8.92C475.532 8.76 475.24 8.524 474.992 8.212C474.752 7.892 474.632 7.468 474.632 6.94C474.632 6.444 474.756 6.012 475.004 5.644C475.252 5.276 475.6 4.996 476.048 4.804C476.496 4.604 477.008 4.504 477.584 4.504C478.448 4.504 479.148 4.716 479.684 5.14C480.228 5.556 480.528 6.14 480.584 6.892H478.736C478.72 6.604 478.596 6.368 478.364 6.184C478.14 5.992 477.84 5.896 477.464 5.896C477.136 5.896 476.872 5.98 476.672 6.148C476.48 6.316 476.384 6.56 476.384 6.88C476.384 7.104 476.456 7.292 476.6 7.444C476.752 7.588 476.936 7.708 477.152 7.804C477.376 7.892 477.688 7.996 478.088 8.116C478.632 8.276 479.076 8.436 479.42 8.596C479.764 8.756 480.06 8.996 480.308 9.316C480.556 9.636 480.68 10.056 480.68 10.576C480.68 11.024 480.564 11.44 480.332 11.824C480.1 12.208 479.76 12.516 479.312 12.748C478.864 12.972 478.332 13.084 477.716 13.084ZM483.817 7.312C484.033 7.008 484.329 6.756 484.705 6.556C485.089 6.348 485.525 6.244 486.013 6.244C486.581 6.244 487.093 6.384 487.549 6.664C488.013 6.944 488.377 7.344 488.641 7.864C488.913 8.376 489.049 8.972 489.049 9.652C489.049 10.332 488.913 10.936 488.641 11.464C488.377 11.984 488.013 12.388 487.549 12.676C487.093 12.964 486.581 13.108 486.013 13.108C485.525 13.108 485.093 13.008 484.717 12.808C484.349 12.608 484.049 12.356 483.817 12.052V16.168H482.137V6.352H483.817V7.312ZM487.333 9.652C487.333 9.252 487.249 8.908 487.081 8.62C486.921 8.324 486.705 8.1 486.433 7.948C486.169 7.796 485.881 7.72 485.569 7.72C485.265 7.72 484.977 7.8 484.705 7.96C484.441 8.112 484.225 8.336 484.057 8.632C483.897 8.928 483.817 9.276 483.817 9.676C483.817 10.076 483.897 10.424 484.057 10.72C484.225 11.016 484.441 11.244 484.705 11.404C484.977 11.556 485.265 11.632 485.569 11.632C485.881 11.632 486.169 11.552 486.433 11.392C486.705 11.232 486.921 11.004 487.081 10.708C487.249 10.412 487.333 10.06 487.333 9.652ZM489.837 9.652C489.837 8.98 489.969 8.384 490.233 7.864C490.505 7.344 490.869 6.944 491.325 6.664C491.789 6.384 492.305 6.244 492.873 6.244C493.369 6.244 493.801 6.344 494.169 6.544C494.545 6.744 494.845 6.996 495.069 7.3V6.352H496.761V13H495.069V12.028C494.853 12.34 494.553 12.6 494.169 12.808C493.793 13.008 493.357 13.108 492.861 13.108C492.301 13.108 491.789 12.964 491.325 12.676C490.869 12.388 490.505 11.984 490.233 11.464C489.969 10.936 489.837 10.332 489.837 9.652ZM495.069 9.676C495.069 9.268 494.989 8.92 494.829 8.632C494.669 8.336 494.453 8.112 494.181 7.96C493.909 7.8 493.617 7.72 493.305 7.72C492.993 7.72 492.705 7.796 492.441 7.948C492.177 8.1 491.961 8.324 491.793 8.62C491.633 8.908 491.553 9.252 491.553 9.652C491.553 10.052 491.633 10.404 491.793 10.708C491.961 11.004 492.177 11.232 492.441 11.392C492.713 11.552 493.001 11.632 493.305 11.632C493.617 11.632 493.909 11.556 494.181 11.404C494.453 11.244 494.669 11.02 494.829 10.732C494.989 10.436 495.069 10.084 495.069 9.676ZM497.97 9.676C497.97 8.988 498.11 8.388 498.39 7.876C498.67 7.356 499.058 6.956 499.554 6.676C500.05 6.388 500.618 6.244 501.258 6.244C502.082 6.244 502.762 6.452 503.298 6.868C503.842 7.276 504.206 7.852 504.39 8.596H502.578C502.482 8.308 502.318 8.084 502.086 7.924C501.862 7.756 501.582 7.672 501.246 7.672C500.766 7.672 500.386 7.848 500.106 8.2C499.826 8.544 499.686 9.036 499.686 9.676C499.686 10.308 499.826 10.8 500.106 11.152C500.386 11.496 500.766 11.668 501.246 11.668C501.926 11.668 502.37 11.364 502.578 10.756H504.39C504.206 11.476 503.842 12.048 503.298 12.472C502.754 12.896 502.074 13.108 501.258 13.108C500.618 13.108 500.05 12.968 499.554 12.688C499.058 12.4 498.67 12 498.39 11.488C498.11 10.968 497.97 10.364 497.97 9.676ZM511.801 9.532C511.801 9.772 511.785 9.988 511.753 10.18H506.893C506.933 10.66 507.101 11.036 507.397 11.308C507.693 11.58 508.057 11.716 508.489 11.716C509.113 11.716 509.557 11.448 509.821 10.912H511.633C511.441 11.552 511.073 12.08 510.529 12.496C509.985 12.904 509.317 13.108 508.525 13.108C507.885 13.108 507.309 12.968 506.797 12.688C506.293 12.4 505.897 11.996 505.609 11.476C505.329 10.956 505.189 10.356 505.189 9.676C505.189 8.988 505.329 8.384 505.609 7.864C505.889 7.344 506.281 6.944 506.785 6.664C507.289 6.384 507.869 6.244 508.525 6.244C509.157 6.244 509.721 6.38 510.217 6.652C510.721 6.924 511.109 7.312 511.381 7.816C511.661 8.312 511.801 8.884 511.801 9.532ZM510.061 9.052C510.053 8.62 509.897 8.276 509.593 8.02C509.289 7.756 508.917 7.624 508.477 7.624C508.061 7.624 507.709 7.752 507.421 8.008C507.141 8.256 506.969 8.604 506.905 9.052H510.061Z" fill="#F5F5F5"/>
<path d="M168.72 13.084C168.136 13.084 167.608 12.984 167.136 12.784C166.672 12.584 166.304 12.296 166.032 11.92C165.76 11.544 165.62 11.1 165.612 10.588H167.412C167.436 10.932 167.556 11.204 167.772 11.404C167.996 11.604 168.3 11.704 168.684 11.704C169.076 11.704 169.384 11.612 169.608 11.428C169.832 11.236 169.944 10.988 169.944 10.684C169.944 10.436 169.868 10.232 169.716 10.072C169.564 9.912 169.372 9.788 169.14 9.7C168.916 9.604 168.604 9.5 168.204 9.388C167.66 9.228 167.216 9.072 166.872 8.92C166.536 8.76 166.244 8.524 165.996 8.212C165.756 7.892 165.636 7.468 165.636 6.94C165.636 6.444 165.76 6.012 166.008 5.644C166.256 5.276 166.604 4.996 167.052 4.804C167.5 4.604 168.012 4.504 168.588 4.504C169.452 4.504 170.152 4.716 170.688 5.14C171.232 5.556 171.532 6.14 171.588 6.892H169.74C169.724 6.604 169.6 6.368 169.368 6.184C169.144 5.992 168.844 5.896 168.468 5.896C168.14 5.896 167.876 5.98 167.676 6.148C167.484 6.316 167.388 6.56 167.388 6.88C167.388 7.104 167.46 7.292 167.604 7.444C167.756 7.588 167.94 7.708 168.156 7.804C168.38 7.892 168.692 7.996 169.092 8.116C169.636 8.276 170.08 8.436 170.424 8.596C170.768 8.756 171.064 8.996 171.312 9.316C171.56 9.636 171.684 10.056 171.684 10.576C171.684 11.024 171.568 11.44 171.336 11.824C171.104 12.208 170.764 12.516 170.316 12.748C169.868 12.972 169.336 13.084 168.72 13.084ZM176.885 6.256C177.389 6.256 177.837 6.368 178.229 6.592C178.621 6.808 178.925 7.132 179.141 7.564C179.365 7.988 179.477 8.5 179.477 9.1V13H177.797V9.328C177.797 8.8 177.665 8.396 177.401 8.116C177.137 7.828 176.777 7.684 176.321 7.684C175.857 7.684 175.489 7.828 175.217 8.116C174.953 8.396 174.821 8.8 174.821 9.328V13H173.141V4.12H174.821V7.18C175.037 6.892 175.325 6.668 175.685 6.508C176.045 6.34 176.445 6.256 176.885 6.256ZM180.642 9.652C180.642 8.98 180.774 8.384 181.038 7.864C181.31 7.344 181.674 6.944 182.13 6.664C182.594 6.384 183.11 6.244 183.678 6.244C184.174 6.244 184.606 6.344 184.974 6.544C185.35 6.744 185.65 6.996 185.874 7.3V6.352H187.566V13H185.874V12.028C185.658 12.34 185.358 12.6 184.974 12.808C184.598 13.008 184.162 13.108 183.666 13.108C183.106 13.108 182.594 12.964 182.13 12.676C181.674 12.388 181.31 11.984 181.038 11.464C180.774 10.936 180.642 10.332 180.642 9.652ZM185.874 9.676C185.874 9.268 185.794 8.92 185.634 8.632C185.474 8.336 185.258 8.112 184.986 7.96C184.714 7.8 184.422 7.72 184.11 7.72C183.798 7.72 183.51 7.796 183.246 7.948C182.982 8.1 182.766 8.324 182.598 8.62C182.438 8.908 182.358 9.252 182.358 9.652C182.358 10.052 182.438 10.404 182.598 10.708C182.766 11.004 182.982 11.232 183.246 11.392C183.518 11.552 183.806 11.632 184.11 11.632C184.422 11.632 184.714 11.556 184.986 11.404C185.258 11.244 185.474 11.02 185.634 10.732C185.794 10.436 185.874 10.084 185.874 9.676ZM190.887 7.384C191.103 7.032 191.383 6.756 191.727 6.556C192.079 6.356 192.479 6.256 192.927 6.256V8.02H192.483C191.955 8.02 191.555 8.144 191.283 8.392C191.019 8.64 190.887 9.072 190.887 9.688V13H189.207V6.352H190.887V7.384ZM200.238 9.532C200.238 9.772 200.222 9.988 200.19 10.18H195.33C195.37 10.66 195.538 11.036 195.834 11.308C196.13 11.58 196.494 11.716 196.926 11.716C197.55 11.716 197.994 11.448 198.258 10.912H200.07C199.878 11.552 199.51 12.08 198.966 12.496C198.422 12.904 197.754 13.108 196.962 13.108C196.322 13.108 195.746 12.968 195.234 12.688C194.73 12.4 194.334 11.996 194.046 11.476C193.766 10.956 193.626 10.356 193.626 9.676C193.626 8.988 193.766 8.384 194.046 7.864C194.326 7.344 194.718 6.944 195.222 6.664C195.726 6.384 196.306 6.244 196.962 6.244C197.594 6.244 198.158 6.38 198.654 6.652C199.158 6.924 199.546 7.312 199.818 7.816C200.098 8.312 200.238 8.884 200.238 9.532ZM198.498 9.052C198.49 8.62 198.334 8.276 198.03 8.02C197.726 7.756 197.354 7.624 196.914 7.624C196.498 7.624 196.146 7.752 195.858 8.008C195.578 8.256 195.406 8.604 195.342 9.052H198.498ZM201.033 9.652C201.033 8.98 201.165 8.384 201.429 7.864C201.701 7.344 202.069 6.944 202.533 6.664C202.997 6.384 203.513 6.244 204.081 6.244C204.513 6.244 204.925 6.34 205.317 6.532C205.709 6.716 206.021 6.964 206.253 7.276V4.12H207.957V13H206.253V12.016C206.045 12.344 205.753 12.608 205.377 12.808C205.001 13.008 204.565 13.108 204.069 13.108C203.509 13.108 202.997 12.964 202.533 12.676C202.069 12.388 201.701 11.984 201.429 11.464C201.165 10.936 201.033 10.332 201.033 9.652ZM206.265 9.676C206.265 9.268 206.185 8.92 206.025 8.632C205.865 8.336 205.649 8.112 205.377 7.96C205.105 7.8 204.813 7.72 204.501 7.72C204.189 7.72 203.901 7.796 203.637 7.948C203.373 8.1 203.157 8.324 202.989 8.62C202.829 8.908 202.749 9.252 202.749 9.652C202.749 10.052 202.829 10.404 202.989 10.708C203.157 11.004 203.373 11.232 203.637 11.392C203.909 11.552 204.197 11.632 204.501 11.632C204.813 11.632 205.105 11.556 205.377 11.404C205.649 11.244 205.865 11.02 206.025 10.732C206.185 10.436 206.265 10.084 206.265 9.676ZM217.593 11.404H214.257L213.705 13H211.941L214.953 4.612H216.909L219.921 13H218.145L217.593 11.404ZM217.137 10.06L215.925 6.556L214.713 10.06H217.137ZM229.303 6.256C230.119 6.256 230.775 6.508 231.271 7.012C231.775 7.508 232.027 8.204 232.027 9.1V13H230.347V9.328C230.347 8.808 230.215 8.412 229.951 8.14C229.687 7.86 229.327 7.72 228.871 7.72C228.415 7.72 228.051 7.86 227.779 8.14C227.515 8.412 227.383 8.808 227.383 9.328V13H225.703V9.328C225.703 8.808 225.571 8.412 225.307 8.14C225.043 7.86 224.683 7.72 224.227 7.72C223.763 7.72 223.395 7.86 223.123 8.14C222.859 8.412 222.727 8.808 222.727 9.328V13H221.047V6.352H222.727V7.156C222.943 6.876 223.219 6.656 223.555 6.496C223.899 6.336 224.275 6.256 224.683 6.256C225.203 6.256 225.667 6.368 226.075 6.592C226.483 6.808 226.799 7.12 227.023 7.528C227.239 7.144 227.551 6.836 227.959 6.604C228.375 6.372 228.823 6.256 229.303 6.256ZM241.877 6.256C242.693 6.256 243.349 6.508 243.845 7.012C244.349 7.508 244.601 8.204 244.601 9.1V13H242.921V9.328C242.921 8.808 242.789 8.412 242.525 8.14C242.261 7.86 241.901 7.72 241.445 7.72C240.989 7.72 240.625 7.86 240.353 8.14C240.089 8.412 239.957 8.808 239.957 9.328V13H238.277V9.328C238.277 8.808 238.145 8.412 237.881 8.14C237.617 7.86 237.257 7.72 236.801 7.72C236.337 7.72 235.969 7.86 235.697 8.14C235.433 8.412 235.301 8.808 235.301 9.328V13H233.621V6.352H235.301V7.156C235.517 6.876 235.793 6.656 236.129 6.496C236.473 6.336 236.849 6.256 237.257 6.256C237.777 6.256 238.241 6.368 238.649 6.592C239.057 6.808 239.373 7.12 239.597 7.528C239.813 7.144 240.125 6.836 240.533 6.604C240.949 6.372 241.397 6.256 241.877 6.256ZM252.375 9.532C252.375 9.772 252.359 9.988 252.327 10.18H247.467C247.507 10.66 247.675 11.036 247.971 11.308C248.267 11.58 248.631 11.716 249.063 11.716C249.687 11.716 250.131 11.448 250.395 10.912H252.207C252.015 11.552 251.647 12.08 251.103 12.496C250.559 12.904 249.891 13.108 249.099 13.108C248.459 13.108 247.883 12.968 247.371 12.688C246.867 12.4 246.471 11.996 246.183 11.476C245.903 10.956 245.763 10.356 245.763 9.676C245.763 8.988 245.903 8.384 246.183 7.864C246.463 7.344 246.855 6.944 247.359 6.664C247.863 6.384 248.443 6.244 249.099 6.244C249.731 6.244 250.295 6.38 250.791 6.652C251.295 6.924 251.683 7.312 251.955 7.816C252.235 8.312 252.375 8.884 252.375 9.532ZM250.635 9.052C250.627 8.62 250.471 8.276 250.167 8.02C249.863 7.756 249.491 7.624 249.051 7.624C248.635 7.624 248.283 7.752 247.995 8.008C247.715 8.256 247.543 8.604 247.479 9.052H250.635ZM257.285 6.256C258.077 6.256 258.717 6.508 259.205 7.012C259.693 7.508 259.937 8.204 259.937 9.1V13H258.257V9.328C258.257 8.8 258.125 8.396 257.861 8.116C257.597 7.828 257.237 7.684 256.781 7.684C256.317 7.684 255.949 7.828 255.677 8.116C255.413 8.396 255.281 8.8 255.281 9.328V13H253.601V6.352H255.281V7.18C255.505 6.892 255.789 6.668 256.133 6.508C256.485 6.34 256.869 6.256 257.285 6.256ZM262.387 5.56C262.091 5.56 261.843 5.468 261.643 5.284C261.451 5.092 261.355 4.856 261.355 4.576C261.355 4.296 261.451 4.064 261.643 3.88C261.843 3.688 262.091 3.592 262.387 3.592C262.683 3.592 262.927 3.688 263.119 3.88C263.319 4.064 263.419 4.296 263.419 4.576C263.419 4.856 263.319 5.092 263.119 5.284C262.927 5.468 262.683 5.56 262.387 5.56ZM263.215 6.352V13H261.535V6.352H263.215ZM266.831 7.732V10.948C266.831 11.172 266.883 11.336 266.987 11.44C267.099 11.536 267.283 11.584 267.539 11.584H268.319V13H267.263C265.847 13 265.139 12.312 265.139 10.936V7.732H264.347V6.352H265.139V4.708H266.831V6.352H268.319V7.732H266.831ZM270.379 5.56C270.083 5.56 269.835 5.468 269.635 5.284C269.443 5.092 269.347 4.856 269.347 4.576C269.347 4.296 269.443 4.064 269.635 3.88C269.835 3.688 270.083 3.592 270.379 3.592C270.675 3.592 270.919 3.688 271.111 3.88C271.311 4.064 271.411 4.296 271.411 4.576C271.411 4.856 271.311 5.092 271.111 5.284C270.919 5.468 270.675 5.56 270.379 5.56ZM271.207 6.352V13H269.527V6.352H271.207ZM279.047 9.532C279.047 9.772 279.031 9.988 278.999 10.18H274.139C274.179 10.66 274.347 11.036 274.643 11.308C274.939 11.58 275.303 11.716 275.735 11.716C276.359 11.716 276.803 11.448 277.067 10.912H278.879C278.687 11.552 278.319 12.08 277.775 12.496C277.231 12.904 276.563 13.108 275.771 13.108C275.131 13.108 274.555 12.968 274.043 12.688C273.539 12.4 273.143 11.996 272.855 11.476C272.575 10.956 272.435 10.356 272.435 9.676C272.435 8.988 272.575 8.384 272.855 7.864C273.135 7.344 273.527 6.944 274.031 6.664C274.535 6.384 275.115 6.244 275.771 6.244C276.403 6.244 276.967 6.38 277.463 6.652C277.967 6.924 278.355 7.312 278.627 7.816C278.907 8.312 279.047 8.884 279.047 9.532ZM277.307 9.052C277.299 8.62 277.143 8.276 276.839 8.02C276.535 7.756 276.163 7.624 275.723 7.624C275.307 7.624 274.955 7.752 274.667 8.008C274.387 8.256 274.215 8.604 274.151 9.052H277.307ZM282.817 13.108C282.273 13.108 281.785 13.012 281.353 12.82C280.921 12.62 280.577 12.352 280.321 12.016C280.073 11.68 279.937 11.308 279.913 10.9H281.605C281.637 11.156 281.761 11.368 281.977 11.536C282.201 11.704 282.477 11.788 282.805 11.788C283.125 11.788 283.373 11.724 283.549 11.596C283.733 11.468 283.825 11.304 283.825 11.104C283.825 10.888 283.713 10.728 283.489 10.624C283.273 10.512 282.925 10.392 282.445 10.264C281.949 10.144 281.541 10.02 281.221 9.892C280.909 9.764 280.637 9.568 280.405 9.304C280.181 9.04 280.069 8.684 280.069 8.236C280.069 7.868 280.173 7.532 280.381 7.228C280.597 6.924 280.901 6.684 281.293 6.508C281.693 6.332 282.161 6.244 282.697 6.244C283.489 6.244 284.121 6.444 284.593 6.844C285.065 7.236 285.325 7.768 285.373 8.44H283.765C283.741 8.176 283.629 7.968 283.429 7.816C283.237 7.656 282.977 7.576 282.649 7.576C282.345 7.576 282.109 7.632 281.941 7.744C281.781 7.856 281.701 8.012 281.701 8.212C281.701 8.436 281.813 8.608 282.037 8.728C282.261 8.84 282.609 8.956 283.081 9.076C283.561 9.196 283.957 9.32 284.269 9.448C284.581 9.576 284.849 9.776 285.073 10.048C285.305 10.312 285.425 10.664 285.433 11.104C285.433 11.488 285.325 11.832 285.109 12.136C284.901 12.44 284.597 12.68 284.197 12.856C283.805 13.024 283.345 13.108 282.817 13.108Z" fill="#F5F5F5"/>
</svg>
