<svg width="280" height="288" viewBox="0 0 280 288" fill="none" xmlns="http://www.w3.org/2000/svg">
<path d="M150.869 3.38995L144.28 0.198959C143.907 0.0184869 143.489 -0.0410691 143.081 0.0285471C142.674 0.0981633 142.299 0.293503 142.007 0.587488L120.437 20.368C120.175 20.6068 120.019 20.9405 120.002 21.2955C119.984 21.6506 120.108 21.9979 120.346 22.2612C120.374 22.2922 120.403 22.3221 120.434 22.3497L122.195 23.959C122.425 24.1696 122.721 24.2926 123.032 24.3064C123.343 24.3203 123.648 24.2242 123.896 24.0348L149.877 4.21758C150.073 4.0678 150.307 3.97608 150.552 3.95276C150.797 3.92944 151.044 3.97544 151.265 4.08559C151.486 4.19574 151.671 4.36566 151.801 4.57622C151.931 4.78678 152 5.02962 152 5.27742V5.2004C152 4.8221 151.894 4.4515 151.694 4.13122C151.494 3.81094 151.208 3.55399 150.869 3.38995Z" fill="#0065A9"/>
<path d="M150.869 28.6098L144.28 31.802C143.907 31.9819 143.489 32.0412 143.082 31.9716C142.674 31.902 142.299 31.707 142.007 31.4134L120.437 11.6318C120.175 11.393 120.019 11.0593 120.002 10.7043C119.984 10.3492 120.108 10.0019 120.346 9.73862C120.374 9.70758 120.403 9.67769 120.434 9.65011L122.195 8.04082C122.425 7.82927 122.722 7.70579 123.033 7.69192C123.345 7.67806 123.652 7.77469 123.9 7.96495L149.877 27.7822C150.073 27.932 150.307 28.0237 150.552 28.047C150.797 28.0703 151.044 28.0243 151.265 27.9142C151.486 27.804 151.671 27.6341 151.801 27.4236C151.931 27.213 152 26.9702 152 26.7224V26.8051C151.999 27.1824 151.892 27.5517 151.692 27.8709C151.492 28.19 151.207 28.4461 150.869 28.6098Z" fill="#007ACC"/>
<path d="M144.28 31.802C143.908 31.982 143.49 32.0412 143.082 31.9716C142.675 31.9021 142.3 31.707 142.008 31.4135C142.172 31.5764 142.38 31.687 142.606 31.7314C142.832 31.7757 143.067 31.7519 143.28 31.6629C143.493 31.574 143.675 31.4237 143.803 31.2311C143.932 31.0385 144.001 30.812 144.002 30.5801V1.41977C144.002 1.18676 143.933 0.958927 143.805 0.765143C143.676 0.571359 143.493 0.42034 143.279 0.331217C143.065 0.242095 142.829 0.218878 142.602 0.264508C142.375 0.310139 142.167 0.422563 142.003 0.58754C142.295 0.293662 142.671 0.0983094 143.078 0.0284997C143.485 -0.04131 143.904 0.0178724 144.276 0.197862L150.864 3.38425C151.204 3.54748 151.491 3.80407 151.692 4.12441C151.893 4.44476 152 4.81579 152.001 5.19471V26.8052C152.001 27.1838 151.895 27.5547 151.694 27.8752C151.494 28.1957 151.208 28.4528 150.868 28.6168L144.28 31.802Z" fill="#1F9CF0"/>
<g clip-path="url(#clip0_945_284)">
<path d="M53.1702 67.7124C55.2519 65.6307 55.2519 62.2516 53.1702 60.1699L49.3989 56.3987L45.6277 60.1699C43.546 62.2516 43.546 65.6307 45.6277 67.7124C47.7094 69.7941 51.0884 69.7941 53.1702 67.7124Z" fill="#0ACF83"/>
<path d="M38.0847 60.1699C36.003 58.0882 36.003 54.7092 38.0847 52.6274L41.8559 48.8562L49.3984 56.3987L45.6272 60.1699C43.5455 62.2516 40.1664 62.2516 38.0847 60.1699Z" fill="#A259FF"/>
<path d="M30.5427 52.6274C28.461 50.5457 28.461 47.1667 30.5427 45.085L34.314 41.3137L41.8564 48.8562L38.0852 52.6274C36.0035 54.7092 32.6244 54.7092 30.5427 52.6274Z" fill="#F24E1E"/>
<path d="M34.3135 41.3137L38.0847 37.5425C40.1664 35.4608 43.5455 35.4608 45.6272 37.5425C47.7089 39.6242 47.7089 43.0032 45.6272 45.085L41.8559 48.8562L34.3135 41.3137Z" fill="#FF7262"/>
<path d="M53.1702 45.085C55.2519 47.1667 55.2519 50.5457 53.1702 52.6274C51.0884 54.7092 47.7094 54.7092 45.6277 52.6274C43.546 50.5457 43.546 47.1667 45.6277 45.085C47.7094 43.0032 51.0884 43.0032 53.1702 45.085Z" fill="#1ABCFE"/>
</g>
<path d="M268.419 128C272.473 128 274.5 128 276.048 128.789C277.41 129.483 278.517 130.59 279.211 131.952C280 133.5 280 135.527 280 139.581V148.419C280 152.473 280 154.5 279.211 156.048C278.517 157.41 277.41 158.517 276.048 159.211C274.5 160 272.473 160 268.419 160H259.581C255.527 160 253.5 160 251.952 159.211C250.59 158.517 249.483 157.41 248.789 156.048C248 154.5 248 152.473 248 148.419V139.581C248 135.527 248 133.5 248.789 131.952C249.483 130.59 250.59 129.483 251.952 128.789C253.5 128 255.527 128 259.581 128H268.419Z" fill="white"/>
<path d="M268.419 128C272.473 128 274.5 128 276.048 128.789C277.41 129.483 278.517 130.59 279.211 131.952C280 133.5 280 135.527 280 139.581V148.419C280 152.473 280 154.5 279.211 156.048C278.517 157.41 277.41 158.517 276.048 159.211C274.5 160 272.473 160 268.419 160H259.581C255.527 160 253.5 160 251.952 159.211C250.59 158.517 249.483 157.41 248.789 156.048C248 154.5 248 152.473 248 148.419V139.581C248 135.527 248 133.5 248.789 131.952C249.483 130.59 250.59 129.483 251.952 128.789C253.5 128 255.527 128 259.581 128H268.419Z" fill="url(#paint0_radial_945_284)"/>
<path d="M268.419 128C272.473 128 274.5 128 276.048 128.789C277.41 129.483 278.517 130.59 279.211 131.952C280 133.5 280 135.527 280 139.581V148.419C280 152.473 280 154.5 279.211 156.048C278.517 157.41 277.41 158.517 276.048 159.211C274.5 160 272.473 160 268.419 160H259.581C255.527 160 253.5 160 251.952 159.211C250.59 158.517 249.483 157.41 248.789 156.048C248 154.5 248 152.473 248 148.419V139.581C248 135.527 248 133.5 248.789 131.952C249.483 130.59 250.59 129.483 251.952 128.789C253.5 128 255.527 128 259.581 128H268.419Z" fill="url(#paint1_radial_945_284)"/>
<path d="M268.419 128C272.473 128 274.5 128 276.048 128.789C277.41 129.483 278.517 130.59 279.211 131.952C280 133.5 280 135.527 280 139.581V148.419C280 152.473 280 154.5 279.211 156.048C278.517 157.41 277.41 158.517 276.048 159.211C274.5 160 272.473 160 268.419 160H259.581C255.527 160 253.5 160 251.952 159.211C250.59 158.517 249.483 157.41 248.789 156.048C248 154.5 248 152.473 248 148.419V139.581C248 135.527 248 133.5 248.789 131.952C249.483 130.59 250.59 129.483 251.952 128.789C253.5 128 255.527 128 259.581 128H268.419Z" fill="url(#paint2_radial_945_284)"/>
<path d="M268.419 128C272.473 128 274.5 128 276.048 128.789C277.41 129.483 278.517 130.59 279.211 131.952C280 133.5 280 135.527 280 139.581V148.419C280 152.473 280 154.5 279.211 156.048C278.517 157.41 277.41 158.517 276.048 159.211C274.5 160 272.473 160 268.419 160H259.581C255.527 160 253.5 160 251.952 159.211C250.59 158.517 249.483 157.41 248.789 156.048C248 154.5 248 152.473 248 148.419V139.581C248 135.527 248 133.5 248.789 131.952C249.483 130.59 250.59 129.483 251.952 128.789C253.5 128 255.527 128 259.581 128H268.419Z" fill="url(#paint3_radial_945_284)"/>
<path d="M268.419 128C272.473 128 274.5 128 276.048 128.789C277.41 129.483 278.517 130.59 279.211 131.952C280 133.5 280 135.527 280 139.581V148.419C280 152.473 280 154.5 279.211 156.048C278.517 157.41 277.41 158.517 276.048 159.211C274.5 160 272.473 160 268.419 160H259.581C255.527 160 253.5 160 251.952 159.211C250.59 158.517 249.483 157.41 248.789 156.048C248 154.5 248 152.473 248 148.419V139.581C248 135.527 248 133.5 248.789 131.952C249.483 130.59 250.59 129.483 251.952 128.789C253.5 128 255.527 128 259.581 128H268.419Z" fill="url(#paint4_radial_945_284)"/>
<path d="M268.419 128C272.473 128 274.5 128 276.048 128.789C277.41 129.483 278.517 130.59 279.211 131.952C280 133.5 280 135.527 280 139.581V148.419C280 152.473 280 154.5 279.211 156.048C278.517 157.41 277.41 158.517 276.048 159.211C274.5 160 272.473 160 268.419 160H259.581C255.527 160 253.5 160 251.952 159.211C250.59 158.517 249.483 157.41 248.789 156.048C248 154.5 248 152.473 248 148.419V139.581C248 135.527 248 133.5 248.789 131.952C249.483 130.59 250.59 129.483 251.952 128.789C253.5 128 255.527 128 259.581 128H268.419Z" fill="url(#paint5_radial_945_284)"/>
<path d="M268.419 128C272.473 128 274.5 128 276.048 128.789C277.41 129.483 278.517 130.59 279.211 131.952C280 133.5 280 135.527 280 139.581V148.419C280 152.473 280 154.5 279.211 156.048C278.517 157.41 277.41 158.517 276.048 159.211C274.5 160 272.473 160 268.419 160H259.581C255.527 160 253.5 160 251.952 159.211C250.59 158.517 249.483 157.41 248.789 156.048C248 154.5 248 152.473 248 148.419V139.581C248 135.527 248 133.5 248.789 131.952C249.483 130.59 250.59 129.483 251.952 128.789C253.5 128 255.527 128 259.581 128H268.419Z" fill="url(#paint6_radial_945_284)"/>
<path d="M270.359 153.681C272.232 151.987 273.285 149.601 273.271 147.121C273.271 144.694 272.205 142.227 270.482 140.641C270.509 140.347 270.536 140.054 270.536 139.774C270.536 135.014 266.434 132.067 262.632 132.067C260.581 132.081 258.611 132.854 257.107 134.227C255.535 135.667 254.646 137.667 254.646 139.774V147.121C254.646 152.107 258.844 156.161 263.986 156.161C266.352 156.134 268.622 155.254 270.359 153.681ZM255.986 139.627C255.986 136.094 258.926 133.241 262.55 133.241C266.147 133.241 269.073 136.081 269.1 139.601C269.1 141.161 268.581 142.801 267.446 143.841L264.629 146.521C264.164 146.961 263.425 146.947 262.974 146.494C262.523 146.041 262.536 145.321 263.001 144.881L265.764 142.267C267.268 140.561 267.077 137.987 265.326 136.521C264.574 135.881 263.603 135.534 262.605 135.534C260.307 135.534 258.365 137.441 258.365 139.694V140.214C257.299 140.961 255.986 143.054 255.986 143.054V139.627ZM258.338 152.721C256.806 151.294 255.945 149.321 255.931 147.254C255.931 145.294 256.834 143.294 258.393 141.761L262.003 138.267C262.468 137.827 263.206 137.841 263.658 138.281C263.877 138.494 263.986 138.774 263.986 139.081C263.986 139.387 263.863 139.681 263.63 139.894L260.061 143.374C258.926 144.481 258.283 145.894 258.283 147.254C258.283 148.707 258.899 150.094 259.993 151.094C261.073 152.121 262.523 152.694 264.027 152.694C267.118 152.694 269.62 150.241 269.634 147.227C269.634 146.081 269.401 145.134 268.731 144.201C269.273 143.672 269.811 142.534 269.921 142.014C271.302 143.454 271.972 145.254 271.972 147.227C271.972 151.507 268.417 154.961 264.027 154.974C261.907 154.974 259.856 154.174 258.338 152.721Z" fill="white"/>
<path d="M5.6 149C1.86667 148.067 0 145.733 0 142C0 136.4 4.2 135.7 4.9 132.9C5.36667 131.033 4.66667 129.4 2.8 128C6.53333 128.933 8.4 131.267 8.4 135C8.4 140.6 4.2 141.3 3.5 144.1C3.03333 145.967 3.73333 147.6 5.6 149ZM14 156C10.2667 155.067 8.4 152.733 8.4 149C8.4 143.4 12.6 142.7 13.3 139.9C13.7667 138.033 13.0667 136.4 11.2 135C14.9333 135.933 16.8 138.267 16.8 142C16.8 147.6 12.6 148.3 11.9 151.1C11.4333 152.967 12.1333 154.6 14 156Z" fill="#44A8B3"/>
<path d="M218.438 38.1889C221.304 35.3226 222.738 33.8894 224.39 33.3524C225.844 32.88 227.41 32.88 228.864 33.3524C230.516 33.8894 231.95 35.3226 234.816 38.1889L241.065 44.4385C243.932 47.3049 245.365 48.7381 245.902 50.3907C246.374 51.8444 246.374 53.4104 245.902 54.8641C245.365 56.5168 243.932 57.95 241.065 60.8164L234.816 67.0659C231.949 69.9323 230.516 71.3655 228.864 71.9024C227.41 72.3748 225.844 72.3748 224.39 71.9024C222.738 71.3655 221.304 69.9323 218.438 67.0659L212.188 60.8164C209.322 57.95 207.889 56.5168 207.352 54.8641C206.88 53.4104 206.88 51.8444 207.352 50.3907C207.889 48.7381 209.322 47.3049 212.188 44.4385L218.438 38.1889Z" fill="#470137"/>
<path d="M231.809 48.49L224.206 50.4462L222.152 58.5421C222.099 58.7199 222.011 58.6826 221.92 58.5916L219.765 56.4362C219.613 56.2843 219.512 56.1726 219.555 56.008C219.757 55.4007 219.957 54.7961 220.154 54.1942C220.351 53.5923 220.544 52.9698 220.732 52.3271C220.919 51.6844 221.114 51.0389 221.317 50.3906C220.699 50.6032 220.059 50.7932 219.426 50.9909C218.794 51.1884 218.166 51.3859 217.544 51.5834C216.921 51.7811 216.296 51.9709 215.669 52.1529C215.535 52.2057 215.454 52.1444 215.353 52.0433L213.274 49.9638C213.192 49.8821 213.244 49.8108 213.362 49.7842L221.227 47.7785L223.324 39.974C223.343 39.8516 223.463 39.8209 223.54 39.9098L225.681 42.05C225.778 42.1375 225.825 42.2544 225.799 42.3868C225.566 42.9841 225.353 43.6017 225.161 44.2394C224.968 44.8771 224.783 45.5123 224.607 46.1448C224.429 46.7773 224.245 47.4124 224.022 48.0198C224.649 47.7966 225.27 47.5864 225.882 47.3891C226.494 47.1917 227.114 46.9968 227.742 46.8045C228.369 46.6122 228.986 46.4148 229.594 46.2123C229.709 46.1504 229.819 46.1697 229.9 46.2699L231.889 48.2583C231.965 48.3343 231.892 48.4693 231.809 48.49Z" fill="#FF61F6"/>
<path d="M225.969 63.044C224.609 61.7262 223.758 59.7728 224.274 57.8468C224.517 56.9164 225.079 56.0101 225.961 55.1278C226.67 54.4076 227.551 53.8821 228.517 53.6044C230.989 52.9058 233.371 54.0988 234.912 55.9522L237.979 52.8852C238.052 52.8127 238.119 52.8066 238.179 52.8673L240.092 54.7799C240.152 54.8245 240.151 54.9182 240.09 54.9643L230.889 64.1653C230.509 64.5449 230.168 64.9608 229.813 65.3625C229.752 65.4309 229.65 65.4575 229.566 65.4271C228.217 64.8864 226.996 64.0621 225.969 63.044ZM228.825 62.0394L233.075 57.7892C232.074 56.0177 229.672 55.7276 228.21 57.1898C226.666 58.6685 226.924 61.0159 228.825 62.0394Z" fill="#FF61F6"/>
<g clip-path="url(#clip1_945_284)">
<path d="M61.7739 233.744L43.3008 255.929L23.3692 235.997L45.5105 217.48L55.9403 223.314" fill="#264DE4"/>
<path d="M34.9482 244.306L54.1727 225.081L45.7758 220.308L26.8165 236.174" fill="#2965F1"/>
<path d="M43.7432 248.062L37.4676 241.787L39.9425 239.312L45.9971 245.367M48.3394 242.582L42.5057 236.749L45.0248 234.23L50.6375 239.842M51.7423 238.472L49.2674 235.997L51.0794 233.832L49.0023 230.252L51.6097 227.645L55.3662 234.23" fill="#EBEBEB"/>
<path d="M42.5049 236.749L45.024 234.23L41.9746 231.18L45.5101 228.263L49.0015 230.252L51.6089 227.645L45.1124 223.977L31.2354 235.555L37.4668 241.787L39.9417 239.312L36.4061 235.776L39.2125 233.456L42.5049 236.749Z" fill="white"/>
</g>
<path d="M225.905 218.029L247.725 236.616L228.33 256.011L209.743 234.192L215.4 223.686L225.905 218.029Z" fill="#E44D26"/>
<path d="M228.33 252.779L236.411 244.697L216.612 224.898L212.167 233.384L228.33 252.779Z" fill="#F16529"/>
<path d="M231.563 229.343L240.048 236.212L227.522 248.738L225.502 245.91L235.199 236.212L231.967 233.788L223.077 242.677L216.208 234.192L219.441 227.727L225.906 224.494L230.35 228.131L227.926 230.555L225.502 228.939L222.269 230.555L220.653 233.788L223.481 237.424L231.563 229.343Z" fill="white"/>
<path d="M120 288H152V256H120V288Z" fill="#FFCA28"/>
<path d="M132.571 261.385L130.215 262.944C130.031 262.364 128.861 260.987 127.384 260.987C125.908 260.987 125.222 261.793 125.222 262.328C125.222 263.785 126.73 264.299 127.454 264.546C127.572 264.586 127.67 264.619 127.736 264.648C127.77 264.663 127.822 264.683 127.888 264.708C128.694 265.016 131.666 266.151 131.666 269.443C131.666 273.069 128.167 273.486 127.376 273.486C126.858 273.486 124.369 273.422 123.13 271.093L125.415 269.497C125.916 270.513 126.749 270.848 127.261 270.848C128.527 270.848 128.791 269.92 128.791 269.497C128.791 268.312 127.416 267.781 126.254 267.332C125.95 267.215 125.661 267.103 125.415 266.987C124.149 266.389 122.286 265.41 122.286 262.328C122.286 260.784 123.58 258.286 126.839 258.286C131.217 258.286 132.378 260.914 132.571 261.385Z" fill="#3E3E3E"/>
<path d="M144 261.076L141.544 262.634C141.352 262.054 140.604 260.985 139.519 260.985C138.435 260.985 137.879 262.099 137.879 262.634V273.143H134.859V262.634C134.81 261.184 135.614 258.285 139.162 258.285C142.424 258.285 143.78 260.224 144 261.076Z" fill="#3E3E3E"/>
<defs>
<radialGradient id="paint0_radial_945_284" cx="0" cy="0" r="1" gradientUnits="userSpaceOnUse" gradientTransform="translate(252.65 154.6) rotate(136.87) scale(19.1129 19.5769)">
<stop stop-color="#68E048"/>
<stop offset="1" stop-color="#5CE049" stop-opacity="0"/>
</radialGradient>
<radialGradient id="paint1_radial_945_284" cx="0" cy="0" r="1" gradientUnits="userSpaceOnUse" gradientTransform="translate(252.786 133.067) rotate(-132.636) scale(19.4832 20.0309)">
<stop stop-color="#308CFE"/>
<stop offset="1" stop-color="#2F8BFF" stop-opacity="0"/>
</radialGradient>
<radialGradient id="paint2_radial_945_284" cx="0" cy="0" r="1" gradientUnits="userSpaceOnUse" gradientTransform="translate(262.085 154) rotate(97.9001) scale(11.4419 12.025)">
<stop stop-color="#FDD511"/>
<stop offset="1" stop-color="#FDD20D" stop-opacity="0"/>
</radialGradient>
<radialGradient id="paint3_radial_945_284" cx="0" cy="0" r="1" gradientUnits="userSpaceOnUse" gradientTransform="translate(268.444 133.467) rotate(-37.134) scale(16.8962 17.2161)">
<stop stop-color="#F928C2"/>
<stop offset="1" stop-color="#F922BC" stop-opacity="0"/>
</radialGradient>
<radialGradient id="paint4_radial_945_284" cx="0" cy="0" r="1" gradientUnits="userSpaceOnUse" gradientTransform="translate(274.667 146.133) rotate(26.596) scale(16.9758 17.1525)">
<stop stop-color="#F90700"/>
<stop offset="1" stop-color="#F90700" stop-opacity="0"/>
</radialGradient>
<radialGradient id="paint5_radial_945_284" cx="0" cy="0" r="1" gradientUnits="userSpaceOnUse" gradientTransform="translate(275.35 158.267) rotate(24.3065) scale(10.2036 10.2934)">
<stop stop-color="#FB4200"/>
<stop offset="1" stop-color="#FB4300" stop-opacity="0"/>
</radialGradient>
<radialGradient id="paint6_radial_945_284" cx="0" cy="0" r="1" gradientUnits="userSpaceOnUse" gradientTransform="translate(276.103 131.333) rotate(-43.672) scale(9.07517 9.29992)">
<stop stop-color="#FE0D88"/>
<stop offset="1" stop-color="#FE0D88" stop-opacity="0"/>
</radialGradient>
<clipPath id="clip0_945_284">
<rect width="32" height="32" fill="white" transform="translate(23 52.6274) rotate(-45)"/>
</clipPath>
<clipPath id="clip1_945_284">
<rect width="32" height="32" fill="white" transform="translate(44.627 257.255) rotate(-135)"/>
</clipPath>
</defs>
</svg>
