<svg width="42" height="42" viewBox="0 0 42 42" fill="none" xmlns="http://www.w3.org/2000/svg">
<path d="M19.9583 18.9167H6.41667L0.166666 25.1667V7.45834C0.166666 5.16667 2.04167 3.29167 4.33333 3.29167H19.9583C22.25 3.29167 24.125 5.16667 24.125 7.45834V14.75C24.125 17.0417 22.25 18.9167 19.9583 18.9167Z" fill="#1565C0"/>
<path d="M22.0413 15.7917H35.583L41.833 22.0417V4.33334C41.833 2.04167 39.958 0.166672 37.6663 0.166672H22.0413C19.7497 0.166672 17.8747 2.04167 17.8747 4.33334V11.625C17.8747 13.9167 19.7497 15.7917 22.0413 15.7917Z" fill="#2196F3"/>
<path d="M38.708 28.2917C38.708 28.9756 38.5733 29.6529 38.3115 30.2848C38.0498 30.9167 37.6662 31.4909 37.1825 31.9745C36.6989 32.4582 36.1247 32.8418 35.4928 33.1035C34.8609 33.3653 34.1836 33.5 33.4997 33.5C32.8157 33.5 32.1384 33.3653 31.5065 33.1035C30.8746 32.8418 30.3005 32.4582 29.8168 31.9745C29.3332 31.4909 28.9495 30.9167 28.6878 30.2848C28.4261 29.6529 28.2913 28.9756 28.2913 28.2917C28.2913 27.6077 28.4261 26.9304 28.6878 26.2985C28.9495 25.6666 29.3332 25.0925 29.8168 24.6088C30.3005 24.1252 30.8746 23.7415 31.5065 23.4798C32.1384 23.2181 32.8157 23.0833 33.4997 23.0833C34.1836 23.0833 34.8609 23.2181 35.4928 23.4798C36.1247 23.7415 36.6989 24.1252 37.1825 24.6088C37.6662 25.0925 38.0498 25.6666 38.3115 26.2985C38.5733 26.9304 38.708 27.6077 38.708 28.2917Z" fill="#FFA726"/>
<path d="M13.708 28.2917C13.708 28.9756 13.5733 29.6529 13.3115 30.2848C13.0498 30.9167 12.6662 31.4909 12.1825 31.9745C11.6989 32.4582 11.1247 32.8418 10.4928 33.1035C9.86091 33.3653 9.18364 33.5 8.49967 33.5C7.81571 33.5 7.13843 33.3653 6.50653 33.1035C5.87463 32.8418 5.30046 32.4582 4.81683 31.9745C4.33319 31.4909 3.94954 30.9167 3.6878 30.2848C3.42606 29.6529 3.29134 28.9756 3.29134 28.2917C3.29134 27.6077 3.42606 26.9304 3.6878 26.2985C3.94954 25.6666 4.33319 25.0925 4.81683 24.6088C5.30046 24.1252 5.87463 23.7415 6.50653 23.4798C7.13843 23.2181 7.81571 23.0833 8.49967 23.0833C9.18364 23.0833 9.86091 23.2181 10.4928 23.4798C11.1247 23.7415 11.6989 24.1252 12.1825 24.6088C12.6662 25.0925 13.0498 25.6666 13.3115 26.2985C13.5733 26.9304 13.708 27.6077 13.708 28.2917Z" fill="#FFA726"/>
<path d="M25.1663 39.75C25.1663 39.75 27.458 35.5833 33.4997 35.5833C39.5413 35.5833 41.833 39.75 41.833 39.75V41.8333H25.1663V39.75ZM0.166339 39.75C0.166339 39.75 2.45801 35.5833 8.49967 35.5833C14.5413 35.5833 16.833 39.75 16.833 39.75V41.8333H0.166339V39.75Z" fill="#607D8B"/>
</svg>
