<svg width="26" height="23" viewBox="0 0 26 23" fill="none" xmlns="http://www.w3.org/2000/svg">
<path d="M12.9999 9.84219C15.4099 9.84219 17.3636 7.8628 17.3636 5.42109C17.3636 2.97939 15.4099 1 12.9999 1C10.5899 1 8.63623 2.97939 8.63623 5.42109C8.63623 7.8628 10.5899 9.84219 12.9999 9.84219Z" stroke="#3FA6D2" stroke-width="2"/>
<path d="M19.5454 8.73682C21.353 8.73682 22.8182 7.4997 22.8182 5.97363C22.8182 4.44757 21.353 3.21045 19.5454 3.21045" stroke="#287292" stroke-width="2" stroke-linecap="round"/>
<path d="M6.4544 8.73682C4.64691 8.73682 3.18164 7.4997 3.18164 5.97363C3.18164 4.44757 4.64691 3.21045 6.4544 3.21045" stroke="#287292" stroke-width="2" stroke-linecap="round"/>
<path d="M18.6699 15.3683C19.2269 16.0185 19.5456 16.7735 19.5456 17.5788C19.5456 20.0205 16.6151 21.9999 13.0001 21.9999C9.38512 21.9999 6.45459 20.0205 6.45459 17.5788C6.45459 15.1371 9.38512 13.1577 13.0001 13.1577C13.3718 13.1577 13.7363 13.1786 14.091 13.2188" stroke="#7B38D1" stroke-width="2" stroke-linecap="round"/>
<path d="M21.7275 19.7896C23.6412 19.3644 25.0003 18.2876 25.0003 17.0264C25.0003 15.7651 23.6412 14.6884 21.7275 14.2632" stroke="#562298" stroke-width="2" stroke-linecap="round"/>
<path d="M4.27276 19.7896C2.35901 19.3644 1 18.2876 1 17.0264C1 15.7651 2.35901 14.6884 4.27276 14.2632" stroke="#562298" stroke-width="2" stroke-linecap="round"/>
</svg>
