<svg width="30" height="36" viewBox="0 0 30 36" fill="none" xmlns="http://www.w3.org/2000/svg">
<path d="M6.875 30.7998L5.25 33.9998" stroke="#566FE1" stroke-width="3" stroke-linecap="round" stroke-linejoin="round"/>
<path d="M23.125 30.7998L24.75 33.9998" stroke="#566FE1" stroke-width="3" stroke-linecap="round" stroke-linejoin="round"/>
<path d="M11.75 2V2.8C11.75 4.56731 13.205 6 15 6C16.795 6 18.25 4.56731 18.25 2.8V2" stroke="#454750" stroke-width="3" stroke-linecap="round" stroke-linejoin="round"/>
<path d="M28 14.8V18C28 24.0339 28 27.051 26.0961 28.9254C24.1925 30.8 21.1282 30.8 15 30.8C8.87174 30.8 5.80762 30.8 3.9038 28.9254C2 27.051 2 24.0339 2 18V14.8C2 8.76602 2 5.74904 3.9038 3.87451C5.80762 2 8.87174 2 15 2C21.1282 2 24.1925 2 26.0961 3.87451C27.1576 4.9196 27.6272 6.31982 27.8351 8.4" stroke="#A1A3AD" stroke-width="3" stroke-linecap="round"/>
<path d="M20.6875 24.3999H23.125" stroke="#D1DC58" stroke-width="3" stroke-linecap="round" stroke-linejoin="round"/>
<path d="M6.875 24.3999H9.3125" stroke="#D1DC58" stroke-width="3" stroke-linecap="round" stroke-linejoin="round"/>
<path d="M28 19.6001H21.5M2 19.6001H15" stroke="#A1A3AD" stroke-width="3" stroke-linecap="round" stroke-linejoin="round"/>
</svg>
