<svg width="342" height="260" viewBox="0 0 342 260" fill="none" xmlns="http://www.w3.org/2000/svg">
<path d="M265.532 22V8.59H267.656V14.494H273.866V8.59H275.972V22H273.866V16.384H267.656V22H265.532ZM283.844 22.216C282.872 22.216 282.008 21.994 281.252 21.55C280.508 21.094 279.926 20.482 279.506 19.714C279.086 18.934 278.876 18.064 278.876 17.104C278.876 16.12 279.086 15.25 279.506 14.494C279.938 13.738 280.514 13.144 281.234 12.712C281.954 12.268 282.77 12.046 283.682 12.046C284.414 12.046 285.068 12.172 285.644 12.424C286.22 12.676 286.706 13.024 287.102 13.468C287.498 13.9 287.798 14.398 288.002 14.962C288.218 15.526 288.326 16.126 288.326 16.762C288.326 16.918 288.32 17.08 288.308 17.248C288.296 17.416 288.272 17.572 288.236 17.716H280.478V16.096H287.084L286.112 16.834C286.232 16.246 286.19 15.724 285.986 15.268C285.794 14.8 285.494 14.434 285.086 14.17C284.69 13.894 284.222 13.756 283.682 13.756C283.142 13.756 282.662 13.894 282.242 14.17C281.822 14.434 281.498 14.818 281.27 15.322C281.042 15.814 280.952 16.414 281 17.122C280.94 17.782 281.03 18.358 281.27 18.85C281.522 19.342 281.87 19.726 282.314 20.002C282.77 20.278 283.286 20.416 283.862 20.416C284.45 20.416 284.948 20.284 285.356 20.02C285.776 19.756 286.106 19.414 286.346 18.994L288.002 19.804C287.81 20.26 287.51 20.674 287.102 21.046C286.706 21.406 286.226 21.694 285.662 21.91C285.11 22.114 284.504 22.216 283.844 22.216ZM293.86 22.216C293.2 22.216 292.618 22.102 292.114 21.874C291.622 21.634 291.238 21.31 290.962 20.902C290.686 20.482 290.548 19.99 290.548 19.426C290.548 18.898 290.662 18.424 290.89 18.004C291.13 17.584 291.496 17.23 291.988 16.942C292.48 16.654 293.098 16.45 293.842 16.33L297.226 15.772V17.374L294.238 17.896C293.698 17.992 293.302 18.166 293.05 18.418C292.798 18.658 292.672 18.97 292.672 19.354C292.672 19.726 292.81 20.032 293.086 20.272C293.374 20.5 293.74 20.614 294.184 20.614C294.736 20.614 295.216 20.494 295.624 20.254C296.044 20.014 296.368 19.696 296.596 19.3C296.824 18.892 296.938 18.442 296.938 17.95V15.448C296.938 14.968 296.758 14.578 296.398 14.278C296.05 13.966 295.582 13.81 294.994 13.81C294.454 13.81 293.98 13.954 293.572 14.242C293.176 14.518 292.882 14.878 292.69 15.322L290.998 14.476C291.178 13.996 291.472 13.576 291.88 13.216C292.288 12.844 292.762 12.556 293.302 12.352C293.854 12.148 294.436 12.046 295.048 12.046C295.816 12.046 296.494 12.19 297.082 12.478C297.682 12.766 298.144 13.168 298.468 13.684C298.804 14.188 298.972 14.776 298.972 15.448V22H297.028V20.236L297.442 20.29C297.214 20.686 296.92 21.028 296.56 21.316C296.212 21.604 295.81 21.826 295.354 21.982C294.91 22.138 294.412 22.216 293.86 22.216ZM306.57 22.216C305.634 22.216 304.794 21.994 304.05 21.55C303.318 21.094 302.736 20.482 302.304 19.714C301.884 18.946 301.674 18.082 301.674 17.122C301.674 16.162 301.89 15.298 302.322 14.53C302.754 13.762 303.336 13.156 304.068 12.712C304.8 12.268 305.628 12.046 306.552 12.046C307.332 12.046 308.022 12.202 308.622 12.514C309.222 12.826 309.696 13.258 310.044 13.81L309.738 14.278V8.374H311.754V22H309.828V20.02L310.062 20.398C309.726 20.986 309.246 21.436 308.622 21.748C307.998 22.06 307.314 22.216 306.57 22.216ZM306.768 20.326C307.332 20.326 307.836 20.188 308.28 19.912C308.736 19.636 309.09 19.258 309.342 18.778C309.606 18.286 309.738 17.734 309.738 17.122C309.738 16.51 309.606 15.964 309.342 15.484C309.09 15.004 308.736 14.626 308.28 14.35C307.836 14.074 307.332 13.936 306.768 13.936C306.204 13.936 305.694 14.074 305.238 14.35C304.782 14.626 304.428 15.004 304.176 15.484C303.924 15.964 303.798 16.51 303.798 17.122C303.798 17.734 303.924 18.286 304.176 18.778C304.428 19.258 304.776 19.636 305.22 19.912C305.676 20.188 306.192 20.326 306.768 20.326ZM314.848 22V12.262H316.882V22H314.848ZM314.848 10.93V8.59H316.882V10.93H314.848ZM319.981 22V12.262H321.925V14.17L321.691 13.918C321.931 13.306 322.315 12.844 322.843 12.532C323.371 12.208 323.983 12.046 324.679 12.046C325.399 12.046 326.035 12.202 326.587 12.514C327.139 12.826 327.571 13.258 327.883 13.81C328.195 14.362 328.351 14.998 328.351 15.718V22H326.335V16.258C326.335 15.766 326.245 15.352 326.065 15.016C325.885 14.668 325.627 14.404 325.291 14.224C324.967 14.032 324.595 13.936 324.175 13.936C323.755 13.936 323.377 14.032 323.041 14.224C322.717 14.404 322.465 14.668 322.285 15.016C322.105 15.364 322.015 15.778 322.015 16.258V22H319.981ZM335.945 25.96C335.237 25.96 334.583 25.846 333.983 25.618C333.383 25.39 332.867 25.072 332.435 24.664C332.003 24.268 331.679 23.8 331.463 23.26L333.335 22.486C333.503 22.942 333.809 23.32 334.253 23.62C334.709 23.92 335.267 24.07 335.927 24.07C336.443 24.07 336.905 23.968 337.313 23.764C337.721 23.572 338.045 23.284 338.285 22.9C338.525 22.528 338.645 22.078 338.645 21.55V19.354L339.005 19.768C338.669 20.392 338.201 20.866 337.601 21.19C337.013 21.514 336.347 21.676 335.603 21.676C334.703 21.676 333.893 21.466 333.173 21.046C332.453 20.626 331.883 20.05 331.463 19.318C331.055 18.586 330.851 17.764 330.851 16.852C330.851 15.928 331.055 15.106 331.463 14.386C331.883 13.666 332.447 13.096 333.155 12.676C333.863 12.256 334.673 12.046 335.585 12.046C336.329 12.046 336.989 12.208 337.565 12.532C338.153 12.844 338.633 13.3 339.005 13.9L338.735 14.404V12.262H340.661V21.55C340.661 22.39 340.457 23.14 340.049 23.8C339.653 24.472 339.101 25 338.393 25.384C337.685 25.768 336.869 25.96 335.945 25.96ZM335.837 19.786C336.377 19.786 336.857 19.66 337.277 19.408C337.697 19.144 338.027 18.796 338.267 18.364C338.519 17.92 338.645 17.422 338.645 16.87C338.645 16.318 338.519 15.82 338.267 15.376C338.015 14.932 337.679 14.584 337.259 14.332C336.839 14.068 336.365 13.936 335.837 13.936C335.285 13.936 334.793 14.068 334.361 14.332C333.929 14.584 333.587 14.932 333.335 15.376C333.095 15.808 332.975 16.306 332.975 16.87C332.975 17.41 333.095 17.902 333.335 18.346C333.587 18.79 333.929 19.144 334.361 19.408C334.793 19.66 335.285 19.786 335.837 19.786Z" fill="white" fill-opacity="0.9"/>
<path d="M235.916 68.192C235.169 68.192 234.475 68.0533 233.835 67.776C233.195 67.488 232.651 67.0987 232.203 66.608C231.755 66.1173 231.425 65.552 231.211 64.912L232.811 64.24C233.099 64.976 233.521 65.5413 234.075 65.936C234.63 66.3307 235.27 66.528 235.996 66.528C236.422 66.528 236.795 66.464 237.115 66.336C237.435 66.1973 237.681 66.0053 237.852 65.76C238.033 65.5147 238.123 65.232 238.123 64.912C238.123 64.4747 238.001 64.128 237.755 63.872C237.51 63.616 237.147 63.4133 236.668 63.264L234.427 62.56C233.531 62.2827 232.849 61.8613 232.379 61.296C231.91 60.72 231.675 60.048 231.675 59.28C231.675 58.608 231.841 58.0213 232.171 57.52C232.502 57.008 232.955 56.608 233.531 56.32C234.118 56.032 234.785 55.888 235.531 55.888C236.246 55.888 236.897 56.016 237.484 56.272C238.07 56.5173 238.572 56.8587 238.988 57.296C239.414 57.7333 239.724 58.24 239.915 58.816L238.347 59.504C238.113 58.8747 237.745 58.3893 237.244 58.048C236.753 57.7067 236.182 57.536 235.531 57.536C235.137 57.536 234.79 57.6053 234.491 57.744C234.193 57.872 233.958 58.064 233.787 58.32C233.627 58.5653 233.547 58.8533 233.547 59.184C233.547 59.568 233.67 59.9093 233.915 60.208C234.161 60.5067 234.534 60.7307 235.036 60.88L237.115 61.536C238.065 61.824 238.78 62.24 239.26 62.784C239.74 63.3173 239.979 63.984 239.979 64.784C239.979 65.4453 239.803 66.032 239.451 66.544C239.11 67.056 238.635 67.4613 238.028 67.76C237.42 68.048 236.716 68.192 235.916 68.192ZM245.651 68.192C245 68.192 244.43 68.048 243.939 67.76C243.448 67.4613 243.064 67.0507 242.787 66.528C242.52 65.9947 242.387 65.3813 242.387 64.688V59.344H244.195V64.528C244.195 64.9227 244.275 65.2693 244.435 65.568C244.595 65.8667 244.819 66.1013 245.107 66.272C245.395 66.432 245.726 66.512 246.099 66.512C246.483 66.512 246.819 66.4267 247.107 66.256C247.395 66.0853 247.619 65.8453 247.779 65.536C247.95 65.2267 248.035 64.864 248.035 64.448V59.344H249.827V68H248.115V66.304L248.307 66.528C248.104 67.0613 247.768 67.472 247.299 67.76C246.83 68.048 246.28 68.192 245.651 68.192ZM257.202 68.192C256.53 68.192 255.917 68.0533 255.362 67.776C254.818 67.4987 254.397 67.0987 254.098 66.576L254.306 66.24V68H252.578V55.888H254.386V61.136L254.098 60.72C254.418 60.2293 254.845 59.8453 255.378 59.568C255.911 59.2907 256.519 59.152 257.202 59.152C258.023 59.152 258.759 59.3493 259.41 59.744C260.071 60.1387 260.589 60.6773 260.962 61.36C261.346 62.0427 261.538 62.8107 261.538 63.664C261.538 64.5173 261.346 65.2853 260.962 65.968C260.589 66.6507 260.077 67.1947 259.426 67.6C258.775 67.9947 258.034 68.192 257.202 68.192ZM257.026 66.512C257.538 66.512 257.991 66.3893 258.386 66.144C258.781 65.8987 259.09 65.5627 259.314 65.136C259.549 64.6987 259.666 64.208 259.666 63.664C259.666 63.12 259.549 62.6347 259.314 62.208C259.09 61.7813 258.781 61.4453 258.386 61.2C257.991 60.9547 257.538 60.832 257.026 60.832C256.525 60.832 256.071 60.9547 255.666 61.2C255.271 61.4453 254.957 61.7813 254.722 62.208C254.498 62.6347 254.386 63.12 254.386 63.664C254.386 64.208 254.498 64.6987 254.722 65.136C254.957 65.5627 255.271 65.8987 255.666 66.144C256.071 66.3893 256.525 66.512 257.026 66.512ZM263.937 68V55.888H265.745V61.04L265.457 60.816C265.67 60.272 266.011 59.8613 266.481 59.584C266.95 59.296 267.494 59.152 268.113 59.152C268.753 59.152 269.318 59.2907 269.809 59.568C270.299 59.8453 270.683 60.2293 270.961 60.72C271.238 61.2107 271.377 61.7707 271.377 62.4V68H269.585V62.896C269.585 62.4587 269.499 62.0907 269.329 61.792C269.169 61.4827 268.945 61.248 268.657 61.088C268.369 60.9173 268.038 60.832 267.665 60.832C267.302 60.832 266.971 60.9173 266.673 61.088C266.385 61.248 266.155 61.4827 265.985 61.792C265.825 62.1013 265.745 62.4693 265.745 62.896V68H263.937ZM278.016 68.192C277.152 68.192 276.384 67.9947 275.712 67.6C275.05 67.1947 274.533 66.6507 274.16 65.968C273.786 65.2747 273.6 64.5013 273.6 63.648C273.6 62.7733 273.786 62 274.16 61.328C274.544 60.656 275.056 60.128 275.696 59.744C276.336 59.3493 277.061 59.152 277.872 59.152C278.522 59.152 279.104 59.264 279.616 59.488C280.128 59.712 280.56 60.0213 280.912 60.416C281.264 60.8 281.53 61.2427 281.712 61.744C281.904 62.2453 282 62.7787 282 63.344C282 63.4827 281.994 63.6267 281.984 63.776C281.973 63.9253 281.952 64.064 281.92 64.192H275.024V62.752H280.896L280.032 63.408C280.138 62.8853 280.101 62.4213 279.92 62.016C279.749 61.6 279.482 61.2747 279.12 61.04C278.768 60.7947 278.352 60.672 277.872 60.672C277.392 60.672 276.965 60.7947 276.592 61.04C276.218 61.2747 275.93 61.616 275.728 62.064C275.525 62.5013 275.445 63.0347 275.488 63.664C275.434 64.2507 275.514 64.7627 275.728 65.2C275.952 65.6373 276.261 65.9787 276.656 66.224C277.061 66.4693 277.52 66.592 278.032 66.592C278.554 66.592 278.997 66.4747 279.36 66.24C279.733 66.0053 280.026 65.7013 280.24 65.328L281.712 66.048C281.541 66.4533 281.274 66.8213 280.912 67.152C280.56 67.472 280.133 67.728 279.632 67.92C279.141 68.1013 278.602 68.192 278.016 68.192ZM286.918 68.192C286.331 68.192 285.814 68.0907 285.366 67.888C284.929 67.6747 284.587 67.3867 284.342 67.024C284.097 66.6507 283.974 66.2133 283.974 65.712C283.974 65.2427 284.075 64.8213 284.278 64.448C284.491 64.0747 284.817 63.76 285.254 63.504C285.691 63.248 286.241 63.0667 286.902 62.96L289.91 62.464V63.888L287.254 64.352C286.774 64.4373 286.422 64.592 286.198 64.816C285.974 65.0293 285.862 65.3067 285.862 65.648C285.862 65.9787 285.985 66.2507 286.23 66.464C286.486 66.6667 286.811 66.768 287.206 66.768C287.697 66.768 288.123 66.6613 288.486 66.448C288.859 66.2347 289.147 65.952 289.35 65.6C289.553 65.2373 289.654 64.8373 289.654 64.4V62.176C289.654 61.7493 289.494 61.4027 289.174 61.136C288.865 60.8587 288.449 60.72 287.926 60.72C287.446 60.72 287.025 60.848 286.662 61.104C286.31 61.3493 286.049 61.6693 285.878 62.064L284.374 61.312C284.534 60.8853 284.795 60.512 285.158 60.192C285.521 59.8613 285.942 59.6053 286.422 59.424C286.913 59.2427 287.43 59.152 287.974 59.152C288.657 59.152 289.259 59.28 289.782 59.536C290.315 59.792 290.726 60.1493 291.014 60.608C291.313 61.056 291.462 61.5787 291.462 62.176V68H289.734V66.432L290.102 66.48C289.899 66.832 289.638 67.136 289.318 67.392C289.009 67.648 288.651 67.8453 288.246 67.984C287.851 68.1227 287.409 68.192 286.918 68.192ZM298.216 68.192C297.384 68.192 296.637 67.9947 295.976 67.6C295.325 67.1947 294.808 66.6507 294.424 65.968C294.051 65.2853 293.864 64.5173 293.864 63.664C293.864 62.8107 294.056 62.0427 294.44 61.36C294.824 60.6773 295.341 60.1387 295.992 59.744C296.643 59.3493 297.379 59.152 298.2 59.152C298.893 59.152 299.507 59.2907 300.04 59.568C300.573 59.8453 300.995 60.2293 301.304 60.72L301.032 61.136V55.888H302.824V68H301.112V66.24L301.32 66.576C301.021 67.0987 300.595 67.4987 300.04 67.776C299.485 68.0533 298.877 68.192 298.216 68.192ZM298.392 66.512C298.893 66.512 299.341 66.3893 299.736 66.144C300.141 65.8987 300.456 65.5627 300.68 65.136C300.915 64.6987 301.032 64.208 301.032 63.664C301.032 63.12 300.915 62.6347 300.68 62.208C300.456 61.7813 300.141 61.4453 299.736 61.2C299.341 60.9547 298.893 60.832 298.392 60.832C297.891 60.832 297.437 60.9547 297.032 61.2C296.627 61.4453 296.312 61.7813 296.088 62.208C295.864 62.6347 295.752 63.12 295.752 63.664C295.752 64.208 295.864 64.6987 296.088 65.136C296.312 65.5627 296.621 65.8987 297.016 66.144C297.421 66.3893 297.88 66.512 298.392 66.512ZM305.575 68V59.344H307.383V68H305.575ZM305.575 58.16V56.08H307.383V58.16H305.575ZM310.137 68V59.344H311.865V61.04L311.657 60.816C311.87 60.272 312.211 59.8613 312.681 59.584C313.15 59.296 313.694 59.152 314.313 59.152C314.953 59.152 315.518 59.2907 316.009 59.568C316.499 59.8453 316.883 60.2293 317.161 60.72C317.438 61.2107 317.577 61.776 317.577 62.416V68H315.785V62.896C315.785 62.4587 315.705 62.0907 315.545 61.792C315.385 61.4827 315.155 61.248 314.857 61.088C314.569 60.9173 314.238 60.832 313.865 60.832C313.491 60.832 313.155 60.9173 312.857 61.088C312.569 61.248 312.345 61.4827 312.185 61.792C312.025 62.1013 311.945 62.4693 311.945 62.896V68H310.137ZM324.328 71.52C323.698 71.52 323.117 71.4187 322.584 71.216C322.05 71.0133 321.592 70.7307 321.208 70.368C320.824 70.016 320.536 69.6 320.344 69.12L322.008 68.432C322.157 68.8373 322.429 69.1733 322.824 69.44C323.229 69.7067 323.725 69.84 324.312 69.84C324.77 69.84 325.181 69.7493 325.544 69.568C325.906 69.3973 326.194 69.1413 326.408 68.8C326.621 68.4693 326.728 68.0693 326.728 67.6V65.648L327.048 66.016C326.749 66.5707 326.333 66.992 325.8 67.28C325.277 67.568 324.685 67.712 324.024 67.712C323.224 67.712 322.504 67.5253 321.864 67.152C321.224 66.7787 320.717 66.2667 320.344 65.616C319.981 64.9653 319.8 64.2347 319.8 63.424C319.8 62.6027 319.981 61.872 320.344 61.232C320.717 60.592 321.218 60.0853 321.848 59.712C322.477 59.3387 323.197 59.152 324.008 59.152C324.669 59.152 325.256 59.296 325.768 59.584C326.29 59.8613 326.717 60.2667 327.048 60.8L326.808 61.248V59.344H328.52V67.6C328.52 68.3467 328.338 69.0133 327.976 69.6C327.624 70.1973 327.133 70.6667 326.504 71.008C325.874 71.3493 325.149 71.52 324.328 71.52ZM324.232 66.032C324.712 66.032 325.138 65.92 325.512 65.696C325.885 65.4613 326.178 65.152 326.392 64.768C326.616 64.3733 326.728 63.9307 326.728 63.44C326.728 62.9493 326.616 62.5067 326.392 62.112C326.168 61.7173 325.869 61.408 325.496 61.184C325.122 60.9493 324.701 60.832 324.232 60.832C323.741 60.832 323.304 60.9493 322.92 61.184C322.536 61.408 322.232 61.7173 322.008 62.112C321.794 62.496 321.688 62.9387 321.688 63.44C321.688 63.92 321.794 64.3573 322.008 64.752C322.232 65.1467 322.536 65.4613 322.92 65.696C323.304 65.92 323.741 66.032 324.232 66.032ZM333.833 69.92L339.177 56.72H341.177L335.833 69.92H333.833ZM286.938 88V76.08H291.962C292.709 76.08 293.354 76.2133 293.898 76.48C294.442 76.736 294.858 77.1093 295.146 77.6C295.434 78.08 295.578 78.6507 295.578 79.312C295.578 79.888 295.429 80.416 295.13 80.896C294.842 81.3653 294.389 81.7387 293.77 82.016V81.216C294.314 81.4293 294.757 81.7013 295.098 82.032C295.44 82.352 295.685 82.7147 295.834 83.12C295.994 83.5253 296.074 83.952 296.074 84.4C296.074 85.52 295.706 86.4 294.97 87.04C294.245 87.68 293.248 88 291.978 88H286.938ZM288.826 86.32H292.122C292.752 86.32 293.253 86.1493 293.626 85.808C294 85.456 294.186 84.992 294.186 84.416C294.186 83.8293 294 83.3653 293.626 83.024C293.253 82.672 292.752 82.496 292.122 82.496H288.826V86.32ZM288.826 80.832H292.01C292.522 80.832 292.933 80.688 293.242 80.4C293.552 80.1013 293.706 79.712 293.706 79.232C293.706 78.752 293.552 78.3787 293.242 78.112C292.933 77.8453 292.522 77.712 292.01 77.712H288.826V80.832ZM301.568 88.192C300.918 88.192 300.347 88.048 299.856 87.76C299.366 87.4613 298.982 87.0507 298.704 86.528C298.438 85.9947 298.304 85.3813 298.304 84.688V79.344H300.112V84.528C300.112 84.9227 300.192 85.2693 300.352 85.568C300.512 85.8667 300.736 86.1013 301.024 86.272C301.312 86.432 301.643 86.512 302.016 86.512C302.4 86.512 302.736 86.4267 303.024 86.256C303.312 86.0853 303.536 85.8453 303.696 85.536C303.867 85.2267 303.952 84.864 303.952 84.448V79.344H305.744V88H304.032V86.304L304.224 86.528C304.022 87.0613 303.686 87.472 303.216 87.76C302.747 88.048 302.198 88.192 301.568 88.192ZM312.239 88.096C311.333 88.096 310.629 87.84 310.127 87.328C309.626 86.816 309.375 86.096 309.375 85.168V80.976H307.855V79.344H308.095C308.501 79.344 308.815 79.2267 309.039 78.992C309.263 78.7573 309.375 78.4373 309.375 78.032V77.36H311.183V79.344H313.151V80.976H311.183V85.088C311.183 85.3867 311.231 85.6427 311.327 85.856C311.423 86.0587 311.578 86.2187 311.791 86.336C312.005 86.4427 312.282 86.496 312.623 86.496C312.709 86.496 312.805 86.4907 312.911 86.48C313.018 86.4693 313.119 86.4587 313.215 86.448V88C313.066 88.0213 312.901 88.0427 312.719 88.064C312.538 88.0853 312.378 88.096 312.239 88.096ZM319.364 88.096C318.457 88.096 317.753 87.84 317.252 87.328C316.75 86.816 316.5 86.096 316.5 85.168V80.976H314.98V79.344H315.22C315.625 79.344 315.94 79.2267 316.164 78.992C316.388 78.7573 316.5 78.4373 316.5 78.032V77.36H318.308V79.344H320.276V80.976H318.308V85.088C318.308 85.3867 318.356 85.6427 318.452 85.856C318.548 86.0587 318.702 86.2187 318.916 86.336C319.129 86.4427 319.406 86.496 319.748 86.496C319.833 86.496 319.929 86.4907 320.036 86.48C320.142 86.4693 320.244 86.4587 320.34 86.448V88C320.19 88.0213 320.025 88.0427 319.844 88.064C319.662 88.0853 319.502 88.096 319.364 88.096ZM326.764 88.192C325.932 88.192 325.169 87.9947 324.476 87.6C323.793 87.2053 323.249 86.6667 322.844 85.984C322.439 85.3013 322.236 84.528 322.236 83.664C322.236 82.7893 322.439 82.016 322.844 81.344C323.249 80.6613 323.793 80.128 324.476 79.744C325.159 79.3493 325.921 79.152 326.764 79.152C327.617 79.152 328.38 79.3493 329.052 79.744C329.735 80.128 330.273 80.6613 330.668 81.344C331.073 82.016 331.276 82.7893 331.276 83.664C331.276 84.5387 331.073 85.3173 330.668 86C330.263 86.6827 329.719 87.2213 329.036 87.616C328.353 88 327.596 88.192 326.764 88.192ZM326.764 86.512C327.276 86.512 327.729 86.3893 328.124 86.144C328.519 85.8987 328.828 85.5627 329.052 85.136C329.287 84.6987 329.404 84.208 329.404 83.664C329.404 83.12 329.287 82.6347 329.052 82.208C328.828 81.7813 328.519 81.4453 328.124 81.2C327.729 80.9547 327.276 80.832 326.764 80.832C326.263 80.832 325.809 80.9547 325.404 81.2C325.009 81.4453 324.695 81.7813 324.46 82.208C324.236 82.6347 324.124 83.12 324.124 83.664C324.124 84.208 324.236 84.6987 324.46 85.136C324.695 85.5627 325.009 85.8987 325.404 86.144C325.809 86.3893 326.263 86.512 326.764 86.512ZM333.681 88V79.344H335.409V81.04L335.201 80.816C335.414 80.272 335.756 79.8613 336.225 79.584C336.694 79.296 337.238 79.152 337.857 79.152C338.497 79.152 339.062 79.2907 339.553 79.568C340.044 79.8453 340.428 80.2293 340.705 80.72C340.982 81.2107 341.121 81.776 341.121 82.416V88H339.329V82.896C339.329 82.4587 339.249 82.0907 339.089 81.792C338.929 81.4827 338.7 81.248 338.401 81.088C338.113 80.9173 337.782 80.832 337.409 80.832C337.036 80.832 336.7 80.9173 336.401 81.088C336.113 81.248 335.889 81.4827 335.729 81.792C335.569 82.1013 335.489 82.4693 335.489 82.896V88H333.681Z" fill="white" fill-opacity="0.9"/>
<path d="M252.163 113V102.57H253.703L257.623 108.002H256.853L260.703 102.57H262.243V113H260.605V104.516L261.221 104.684L257.287 110.06H257.119L253.269 104.684L253.815 104.516V113H252.163ZM268.361 113.168C267.605 113.168 266.933 112.995 266.345 112.65C265.766 112.295 265.314 111.819 264.987 111.222C264.66 110.615 264.497 109.939 264.497 109.192C264.497 108.427 264.66 107.75 264.987 107.162C265.323 106.574 265.771 106.112 266.331 105.776C266.891 105.431 267.526 105.258 268.235 105.258C268.804 105.258 269.313 105.356 269.761 105.552C270.209 105.748 270.587 106.019 270.895 106.364C271.203 106.7 271.436 107.087 271.595 107.526C271.763 107.965 271.847 108.431 271.847 108.926C271.847 109.047 271.842 109.173 271.833 109.304C271.824 109.435 271.805 109.556 271.777 109.668H265.743V108.408H270.881L270.125 108.982C270.218 108.525 270.186 108.119 270.027 107.764C269.878 107.4 269.644 107.115 269.327 106.91C269.019 106.695 268.655 106.588 268.235 106.588C267.815 106.588 267.442 106.695 267.115 106.91C266.788 107.115 266.536 107.414 266.359 107.806C266.182 108.189 266.112 108.655 266.149 109.206C266.102 109.719 266.172 110.167 266.359 110.55C266.555 110.933 266.826 111.231 267.171 111.446C267.526 111.661 267.927 111.768 268.375 111.768C268.832 111.768 269.22 111.665 269.537 111.46C269.864 111.255 270.12 110.989 270.307 110.662L271.595 111.292C271.446 111.647 271.212 111.969 270.895 112.258C270.587 112.538 270.214 112.762 269.775 112.93C269.346 113.089 268.874 113.168 268.361 113.168ZM277.451 113.168C276.723 113.168 276.07 112.995 275.491 112.65C274.922 112.295 274.469 111.819 274.133 111.222C273.806 110.625 273.643 109.953 273.643 109.206C273.643 108.459 273.811 107.787 274.147 107.19C274.483 106.593 274.936 106.121 275.505 105.776C276.074 105.431 276.718 105.258 277.437 105.258C278.044 105.258 278.58 105.379 279.047 105.622C279.514 105.865 279.882 106.201 280.153 106.63L279.915 106.994V102.402H281.483V113H279.985V111.46L280.167 111.754C279.906 112.211 279.532 112.561 279.047 112.804C278.562 113.047 278.03 113.168 277.451 113.168ZM277.605 111.698C278.044 111.698 278.436 111.591 278.781 111.376C279.136 111.161 279.411 110.867 279.607 110.494C279.812 110.111 279.915 109.682 279.915 109.206C279.915 108.73 279.812 108.305 279.607 107.932C279.411 107.559 279.136 107.265 278.781 107.05C278.436 106.835 278.044 106.728 277.605 106.728C277.166 106.728 276.77 106.835 276.415 107.05C276.06 107.265 275.785 107.559 275.589 107.932C275.393 108.305 275.295 108.73 275.295 109.206C275.295 109.682 275.393 110.111 275.589 110.494C275.785 110.867 276.056 111.161 276.401 111.376C276.756 111.591 277.157 111.698 277.605 111.698ZM283.89 113V105.426H285.472V113H283.89ZM283.89 104.39V102.57H285.472V104.39H283.89ZM290.584 113.168C290.014 113.168 289.515 113.042 289.086 112.79C288.656 112.529 288.32 112.169 288.078 111.712C287.844 111.245 287.728 110.709 287.728 110.102V105.426H289.31V109.962C289.31 110.307 289.38 110.611 289.52 110.872C289.66 111.133 289.856 111.339 290.108 111.488C290.36 111.628 290.649 111.698 290.976 111.698C291.312 111.698 291.606 111.623 291.858 111.474C292.11 111.325 292.306 111.115 292.446 110.844C292.595 110.573 292.67 110.256 292.67 109.892V105.426H294.238V113H292.74V111.516L292.908 111.712C292.73 112.179 292.436 112.538 292.026 112.79C291.615 113.042 291.134 113.168 290.584 113.168ZM296.645 113V105.426H298.157V107.064L297.961 106.812C298.119 106.299 298.409 105.911 298.829 105.65C299.249 105.389 299.729 105.258 300.271 105.258C300.877 105.258 301.414 105.421 301.881 105.748C302.357 106.065 302.674 106.49 302.833 107.022L302.385 107.064C302.609 106.457 302.949 106.005 303.407 105.706C303.873 105.407 304.405 105.258 305.003 105.258C305.525 105.258 305.997 105.379 306.417 105.622C306.846 105.865 307.187 106.201 307.439 106.63C307.691 107.059 307.817 107.549 307.817 108.1V113H306.235V108.534C306.235 108.151 306.165 107.829 306.025 107.568C305.894 107.297 305.707 107.092 305.465 106.952C305.231 106.803 304.956 106.728 304.639 106.728C304.321 106.728 304.041 106.803 303.799 106.952C303.556 107.092 303.365 107.297 303.225 107.568C303.085 107.839 303.015 108.161 303.015 108.534V113H301.447V108.534C301.447 108.151 301.377 107.829 301.237 107.568C301.106 107.297 300.919 107.092 300.677 106.952C300.443 106.803 300.163 106.728 299.837 106.728C299.519 106.728 299.239 106.803 298.997 106.952C298.754 107.092 298.563 107.297 298.423 107.568C298.292 107.839 298.227 108.161 298.227 108.534V113H296.645ZM315.079 113V104.04H312.307V102.57H319.447V104.04H316.717V113H315.079ZM323.66 113.168C322.904 113.168 322.232 112.995 321.644 112.65C321.065 112.295 320.613 111.819 320.286 111.222C319.959 110.615 319.796 109.939 319.796 109.192C319.796 108.427 319.959 107.75 320.286 107.162C320.622 106.574 321.07 106.112 321.63 105.776C322.19 105.431 322.825 105.258 323.534 105.258C324.103 105.258 324.612 105.356 325.06 105.552C325.508 105.748 325.886 106.019 326.194 106.364C326.502 106.7 326.735 107.087 326.894 107.526C327.062 107.965 327.146 108.431 327.146 108.926C327.146 109.047 327.141 109.173 327.132 109.304C327.123 109.435 327.104 109.556 327.076 109.668H321.042V108.408H326.18L325.424 108.982C325.517 108.525 325.485 108.119 325.326 107.764C325.177 107.4 324.943 107.115 324.626 106.91C324.318 106.695 323.954 106.588 323.534 106.588C323.114 106.588 322.741 106.695 322.414 106.91C322.087 107.115 321.835 107.414 321.658 107.806C321.481 108.189 321.411 108.655 321.448 109.206C321.401 109.719 321.471 110.167 321.658 110.55C321.854 110.933 322.125 111.231 322.47 111.446C322.825 111.661 323.226 111.768 323.674 111.768C324.131 111.768 324.519 111.665 324.836 111.46C325.163 111.255 325.419 110.989 325.606 110.662L326.894 111.292C326.745 111.647 326.511 111.969 326.194 112.258C325.886 112.538 325.513 112.762 325.074 112.93C324.645 113.089 324.173 113.168 323.66 113.168ZM328.357 113L331.003 109.206L328.357 105.426H330.219L332.389 108.59H331.493L333.663 105.426H335.525L332.865 109.206L335.511 113H333.649L331.507 109.822H332.375L330.219 113H328.357ZM340.441 113.084C339.648 113.084 339.032 112.86 338.593 112.412C338.155 111.964 337.935 111.334 337.935 110.522V106.854H336.605V105.426H336.815C337.17 105.426 337.445 105.323 337.641 105.118C337.837 104.913 337.935 104.633 337.935 104.278V103.69H339.517V105.426H341.239V106.854H339.517V110.452C339.517 110.713 339.559 110.937 339.643 111.124C339.727 111.301 339.863 111.441 340.049 111.544C340.236 111.637 340.479 111.684 340.777 111.684C340.852 111.684 340.936 111.679 341.029 111.67C341.123 111.661 341.211 111.651 341.295 111.642V113C341.165 113.019 341.02 113.037 340.861 113.056C340.703 113.075 340.563 113.084 340.441 113.084Z" fill="white" fill-opacity="0.9"/>
<path d="M272.486 159V148.57H276.868C277.494 148.57 278.03 148.682 278.478 148.906C278.936 149.13 279.286 149.447 279.528 149.858C279.78 150.259 279.906 150.74 279.906 151.3C279.906 151.813 279.771 152.28 279.5 152.7C279.239 153.111 278.852 153.433 278.338 153.666L278.324 153.148C278.772 153.316 279.141 153.54 279.43 153.82C279.729 154.091 279.953 154.408 280.102 154.772C280.252 155.127 280.326 155.505 280.326 155.906C280.326 156.867 280.018 157.623 279.402 158.174C278.786 158.725 277.946 159 276.882 159H272.486ZM273.858 157.74H276.938C277.545 157.74 278.03 157.577 278.394 157.25C278.758 156.923 278.94 156.48 278.94 155.92C278.94 155.36 278.758 154.917 278.394 154.59C278.03 154.254 277.545 154.086 276.938 154.086H273.858V157.74ZM273.858 152.854H276.84C277.344 152.854 277.75 152.709 278.058 152.42C278.366 152.121 278.52 151.743 278.52 151.286C278.52 150.81 278.366 150.446 278.058 150.194C277.75 149.942 277.344 149.816 276.84 149.816H273.858V152.854ZM286.17 159.168C285.442 159.168 284.784 159 284.196 158.664C283.608 158.319 283.141 157.847 282.796 157.25C282.45 156.653 282.278 155.976 282.278 155.22C282.278 154.464 282.446 153.792 282.782 153.204C283.127 152.616 283.594 152.149 284.182 151.804C284.77 151.459 285.432 151.286 286.17 151.286C286.898 151.286 287.556 151.459 288.144 151.804C288.732 152.14 289.194 152.602 289.53 153.19C289.875 153.778 290.048 154.455 290.048 155.22C290.048 155.985 289.87 156.667 289.516 157.264C289.161 157.852 288.69 158.319 288.102 158.664C287.523 159 286.879 159.168 286.17 159.168ZM286.17 157.908C286.636 157.908 287.056 157.791 287.43 157.558C287.812 157.325 288.111 157.003 288.326 156.592C288.55 156.181 288.662 155.724 288.662 155.22C288.662 154.707 288.55 154.254 288.326 153.862C288.111 153.461 287.812 153.143 287.43 152.91C287.056 152.667 286.636 152.546 286.17 152.546C285.694 152.546 285.264 152.667 284.882 152.91C284.508 153.143 284.21 153.461 283.986 153.862C283.762 154.254 283.65 154.707 283.65 155.22C283.65 155.724 283.762 156.181 283.986 156.592C284.21 157.003 284.508 157.325 284.882 157.558C285.264 157.791 285.694 157.908 286.17 157.908ZM295.736 159.168C295.027 159.168 294.387 158.995 293.818 158.65C293.258 158.305 292.815 157.833 292.488 157.236C292.161 156.639 291.998 155.971 291.998 155.234C291.998 154.478 292.161 153.806 292.488 153.218C292.815 152.621 293.258 152.149 293.818 151.804C294.387 151.459 295.027 151.286 295.736 151.286C296.361 151.286 296.917 151.421 297.402 151.692C297.887 151.953 298.27 152.308 298.55 152.756L298.34 153.078V148.402H299.656V159H298.382V157.39L298.55 157.614C298.289 158.109 297.906 158.491 297.402 158.762C296.907 159.033 296.352 159.168 295.736 159.168ZM295.848 157.908C296.324 157.908 296.749 157.791 297.122 157.558C297.495 157.325 297.789 157.007 298.004 156.606C298.228 156.195 298.34 155.738 298.34 155.234C298.34 154.721 298.228 154.263 298.004 153.862C297.789 153.451 297.495 153.129 297.122 152.896C296.749 152.663 296.324 152.546 295.848 152.546C295.381 152.546 294.957 152.667 294.574 152.91C294.201 153.143 293.907 153.461 293.692 153.862C293.477 154.254 293.37 154.711 293.37 155.234C293.37 155.738 293.477 156.195 293.692 156.606C293.907 157.007 294.201 157.325 294.574 157.558C294.947 157.791 295.372 157.908 295.848 157.908ZM302.637 162.08C302.469 162.08 302.301 162.066 302.133 162.038C301.965 162.019 301.807 161.977 301.657 161.912V160.75C301.76 160.759 301.886 160.778 302.035 160.806C302.194 160.834 302.348 160.848 302.497 160.848C302.936 160.848 303.267 160.75 303.491 160.554C303.725 160.358 303.944 160.027 304.149 159.56L304.625 158.426L304.597 159.56L301.377 151.454H302.791L305.297 157.894H304.877L307.369 151.454H308.811L305.409 159.896C305.251 160.297 305.045 160.666 304.793 161.002C304.551 161.338 304.252 161.599 303.897 161.786C303.543 161.982 303.123 162.08 302.637 162.08ZM315.483 159V149.83H312.655V148.57H319.655V149.83H316.869V159H315.483ZM323.871 159.168C323.143 159.168 322.495 158.995 321.925 158.65C321.356 158.305 320.908 157.833 320.581 157.236C320.255 156.629 320.091 155.953 320.091 155.206C320.091 154.45 320.25 153.778 320.567 153.19C320.894 152.602 321.333 152.14 321.883 151.804C322.443 151.459 323.069 151.286 323.759 151.286C324.319 151.286 324.814 151.389 325.243 151.594C325.682 151.79 326.051 152.061 326.349 152.406C326.657 152.742 326.891 153.129 327.049 153.568C327.217 153.997 327.301 154.445 327.301 154.912C327.301 155.015 327.292 155.131 327.273 155.262C327.264 155.383 327.25 155.5 327.231 155.612H321.043V154.492H326.475L325.859 154.996C325.943 154.511 325.897 154.077 325.719 153.694C325.542 153.311 325.281 153.008 324.935 152.784C324.59 152.56 324.198 152.448 323.759 152.448C323.321 152.448 322.919 152.56 322.555 152.784C322.191 153.008 321.907 153.33 321.701 153.75C321.505 154.161 321.426 154.651 321.463 155.22C321.426 155.771 321.51 156.256 321.715 156.676C321.93 157.087 322.229 157.409 322.611 157.642C323.003 157.866 323.428 157.978 323.885 157.978C324.389 157.978 324.814 157.861 325.159 157.628C325.505 157.395 325.785 157.096 325.999 156.732L327.091 157.292C326.942 157.637 326.709 157.955 326.391 158.244C326.083 158.524 325.715 158.748 325.285 158.916C324.865 159.084 324.394 159.168 323.871 159.168ZM328.568 159L331.214 155.22L328.582 151.454H330.15L332.404 154.73H331.606L333.832 151.454H335.414L332.782 155.22L335.4 159H333.832L331.606 155.724H332.39L330.164 159H328.568ZM340.199 159.084C339.461 159.084 338.892 158.874 338.491 158.454C338.099 158.034 337.903 157.441 337.903 156.676V152.7H336.531V151.454H336.811C337.147 151.454 337.413 151.351 337.609 151.146C337.805 150.941 337.903 150.67 337.903 150.334V149.718H339.205V151.454H340.899V152.7H339.205V156.634C339.205 156.886 339.242 157.105 339.317 157.292C339.401 157.479 339.536 157.628 339.723 157.74C339.909 157.843 340.157 157.894 340.465 157.894C340.53 157.894 340.609 157.889 340.703 157.88C340.805 157.871 340.899 157.861 340.983 157.852V159C340.861 159.028 340.726 159.047 340.577 159.056C340.427 159.075 340.301 159.084 340.199 159.084Z" fill="white" fill-opacity="0.9"/>
<path d="M300.475 203V194.06H303.415C304.303 194.06 305.075 194.244 305.731 194.612C306.387 194.972 306.895 195.488 307.255 196.16C307.615 196.824 307.795 197.612 307.795 198.524C307.795 199.428 307.615 200.216 307.255 200.888C306.895 201.56 306.387 202.08 305.731 202.448C305.075 202.816 304.303 203 303.415 203H300.475ZM301.435 202.1H303.415C304.103 202.1 304.699 201.956 305.203 201.668C305.707 201.372 306.095 200.956 306.367 200.42C306.647 199.884 306.787 199.252 306.787 198.524C306.787 197.796 306.647 197.168 306.367 196.64C306.087 196.104 305.695 195.692 305.191 195.404C304.687 195.108 304.095 194.96 303.415 194.96H301.435V202.1ZM312.658 203.144C312.058 203.144 311.514 203 311.026 202.712C310.546 202.416 310.166 202.012 309.886 201.5C309.606 200.988 309.466 200.408 309.466 199.76C309.466 199.112 309.602 198.54 309.874 198.044C310.146 197.54 310.514 197.144 310.978 196.856C311.45 196.568 311.978 196.424 312.562 196.424C313.026 196.424 313.438 196.512 313.798 196.688C314.166 196.856 314.478 197.088 314.734 197.384C314.99 197.672 315.186 198 315.322 198.368C315.458 198.728 315.526 199.1 315.526 199.484C315.526 199.564 315.522 199.656 315.514 199.76C315.506 199.856 315.494 199.956 315.478 200.06H310.042V199.22H314.962L314.53 199.58C314.602 199.14 314.55 198.748 314.374 198.404C314.206 198.052 313.962 197.776 313.642 197.576C313.322 197.368 312.962 197.264 312.562 197.264C312.162 197.264 311.79 197.368 311.446 197.576C311.11 197.784 310.846 198.076 310.654 198.452C310.462 198.82 310.386 199.26 310.426 199.772C310.386 200.284 310.466 200.732 310.666 201.116C310.874 201.492 311.154 201.784 311.506 201.992C311.866 202.2 312.25 202.304 312.658 202.304C313.13 202.304 313.526 202.192 313.846 201.968C314.166 201.744 314.426 201.464 314.626 201.128L315.394 201.536C315.266 201.824 315.07 202.092 314.806 202.34C314.542 202.58 314.226 202.776 313.858 202.928C313.498 203.072 313.098 203.144 312.658 203.144ZM320.052 203.072C319.476 203.072 319.032 202.904 318.72 202.568C318.408 202.232 318.252 201.752 318.252 201.128V197.468H317.064V196.568H317.364C317.636 196.568 317.852 196.48 318.012 196.304C318.172 196.12 318.252 195.892 318.252 195.62V195.08H319.152V196.568H320.568V197.468H319.152V201.128C319.152 201.344 319.184 201.536 319.248 201.704C319.312 201.864 319.42 201.992 319.572 202.088C319.732 202.184 319.944 202.232 320.208 202.232C320.272 202.232 320.348 202.228 320.436 202.22C320.524 202.212 320.6 202.204 320.664 202.196V203C320.568 203.024 320.46 203.04 320.34 203.048C320.22 203.064 320.124 203.072 320.052 203.072ZM324.468 203.144C324.06 203.144 323.696 203.068 323.376 202.916C323.056 202.756 322.804 202.54 322.62 202.268C322.436 201.996 322.344 201.684 322.344 201.332C322.344 200.996 322.416 200.692 322.56 200.42C322.704 200.14 322.928 199.904 323.232 199.712C323.536 199.52 323.924 199.384 324.396 199.304L326.916 198.884V199.7L324.612 200.084C324.148 200.164 323.812 200.312 323.604 200.528C323.404 200.744 323.304 201 323.304 201.296C323.304 201.584 323.416 201.828 323.64 202.028C323.872 202.228 324.168 202.328 324.528 202.328C324.968 202.328 325.352 202.236 325.68 202.052C326.008 201.86 326.264 201.604 326.448 201.284C326.632 200.964 326.724 200.608 326.724 200.216V198.584C326.724 198.2 326.584 197.888 326.304 197.648C326.024 197.408 325.66 197.288 325.212 197.288C324.82 197.288 324.476 197.388 324.18 197.588C323.884 197.78 323.664 198.032 323.52 198.344L322.704 197.9C322.824 197.628 323.012 197.38 323.268 197.156C323.532 196.932 323.832 196.756 324.168 196.628C324.504 196.492 324.852 196.424 325.212 196.424C325.684 196.424 326.1 196.516 326.46 196.7C326.828 196.884 327.112 197.14 327.312 197.468C327.52 197.788 327.624 198.16 327.624 198.584V203H326.724V201.716L326.856 201.848C326.744 202.088 326.568 202.308 326.328 202.508C326.096 202.7 325.82 202.856 325.5 202.976C325.188 203.088 324.844 203.144 324.468 203.144ZM329.955 203V196.568H330.855V203H329.955ZM329.955 195.38V194.06H330.855V195.38H329.955ZM333.177 203V193.916H334.077V203H333.177ZM338.631 203.144C338.015 203.144 337.475 202.988 337.011 202.676C336.547 202.364 336.211 201.94 336.003 201.404L336.759 201.044C336.943 201.436 337.199 201.748 337.527 201.98C337.863 202.212 338.231 202.328 338.631 202.328C339.015 202.328 339.339 202.236 339.603 202.052C339.867 201.86 339.999 201.612 339.999 201.308C339.999 201.084 339.935 200.908 339.807 200.78C339.679 200.644 339.531 200.54 339.363 200.468C339.195 200.396 339.047 200.344 338.919 200.312L337.995 200.048C337.403 199.88 336.975 199.644 336.711 199.34C336.447 199.036 336.315 198.684 336.315 198.284C336.315 197.908 336.411 197.58 336.603 197.3C336.795 197.02 337.055 196.804 337.383 196.652C337.711 196.5 338.075 196.424 338.475 196.424C339.019 196.424 339.511 196.568 339.951 196.856C340.399 197.136 340.715 197.528 340.899 198.032L340.131 198.392C339.971 198.032 339.739 197.752 339.435 197.552C339.139 197.344 338.807 197.24 338.439 197.24C338.079 197.24 337.791 197.332 337.575 197.516C337.359 197.7 337.251 197.932 337.251 198.212C337.251 198.428 337.307 198.6 337.419 198.728C337.531 198.856 337.659 198.952 337.803 199.016C337.955 199.08 338.087 199.128 338.199 199.16L339.267 199.472C339.787 199.624 340.191 199.86 340.479 200.18C340.775 200.5 340.923 200.876 340.923 201.308C340.923 201.66 340.823 201.976 340.623 202.256C340.431 202.536 340.163 202.756 339.819 202.916C339.475 203.068 339.079 203.144 338.631 203.144Z" fill="white" fill-opacity="0.9"/>
<path d="M305.351 249.12C304.825 249.12 304.341 249.027 303.901 248.84C303.461 248.647 303.078 248.38 302.751 248.04C302.431 247.693 302.181 247.287 302.001 246.82C301.821 246.353 301.731 245.84 301.731 245.28C301.731 244.72 301.821 244.207 302.001 243.74C302.181 243.273 302.431 242.867 302.751 242.52C303.078 242.173 303.461 241.907 303.901 241.72C304.341 241.527 304.825 241.43 305.351 241.43C305.858 241.43 306.311 241.52 306.711 241.7C307.118 241.88 307.458 242.113 307.731 242.4C308.011 242.68 308.211 242.977 308.331 243.29L307.581 243.62C307.395 243.187 307.108 242.84 306.721 242.58C306.341 242.313 305.885 242.18 305.351 242.18C304.805 242.18 304.318 242.31 303.891 242.57C303.465 242.83 303.131 243.193 302.891 243.66C302.651 244.12 302.531 244.66 302.531 245.28C302.531 245.893 302.651 246.433 302.891 246.9C303.131 247.367 303.465 247.73 303.891 247.99C304.318 248.243 304.805 248.37 305.351 248.37C305.885 248.37 306.341 248.24 306.721 247.98C307.108 247.72 307.395 247.373 307.581 246.94L308.331 247.27C308.211 247.577 308.011 247.873 307.731 248.16C307.458 248.44 307.118 248.67 306.711 248.85C306.311 249.03 305.858 249.12 305.351 249.12ZM311.506 249.12C311.166 249.12 310.863 249.057 310.596 248.93C310.33 248.797 310.12 248.617 309.966 248.39C309.813 248.163 309.736 247.903 309.736 247.61C309.736 247.33 309.796 247.077 309.916 246.85C310.036 246.617 310.223 246.42 310.476 246.26C310.73 246.1 311.053 245.987 311.446 245.92L313.546 245.57V246.25L311.626 246.57C311.24 246.637 310.96 246.76 310.786 246.94C310.62 247.12 310.536 247.333 310.536 247.58C310.536 247.82 310.63 248.023 310.816 248.19C311.01 248.357 311.256 248.44 311.556 248.44C311.923 248.44 312.243 248.363 312.516 248.21C312.79 248.05 313.003 247.837 313.156 247.57C313.31 247.303 313.386 247.007 313.386 246.68V245.32C313.386 245 313.27 244.74 313.036 244.54C312.803 244.34 312.5 244.24 312.126 244.24C311.8 244.24 311.513 244.323 311.266 244.49C311.02 244.65 310.836 244.86 310.716 245.12L310.036 244.75C310.136 244.523 310.293 244.317 310.506 244.13C310.726 243.943 310.976 243.797 311.256 243.69C311.536 243.577 311.826 243.52 312.126 243.52C312.52 243.52 312.866 243.597 313.166 243.75C313.473 243.903 313.71 244.117 313.876 244.39C314.05 244.657 314.136 244.967 314.136 245.32V249H313.386V247.93L313.496 248.04C313.403 248.24 313.256 248.423 313.056 248.59C312.863 248.75 312.633 248.88 312.366 248.98C312.106 249.073 311.82 249.12 311.506 249.12ZM316.079 251V243.64H316.829V244.84L316.709 244.63C316.922 244.29 317.206 244.02 317.559 243.82C317.919 243.62 318.329 243.52 318.789 243.52C319.296 243.52 319.746 243.643 320.139 243.89C320.539 244.13 320.852 244.46 321.079 244.88C321.312 245.3 321.429 245.78 321.429 246.32C321.429 246.853 321.312 247.333 321.079 247.76C320.852 248.18 320.539 248.513 320.139 248.76C319.746 249 319.296 249.12 318.789 249.12C318.329 249.12 317.912 249.017 317.539 248.81C317.172 248.597 316.896 248.297 316.709 247.91L316.829 247.8V251H316.079ZM318.749 248.37C319.109 248.37 319.429 248.28 319.709 248.1C319.996 247.92 320.219 247.677 320.379 247.37C320.546 247.057 320.629 246.707 320.629 246.32C320.629 245.927 320.546 245.577 320.379 245.27C320.219 244.963 319.996 244.72 319.709 244.54C319.429 244.36 319.109 244.27 318.749 244.27C318.389 244.27 318.062 244.36 317.769 244.54C317.482 244.72 317.252 244.967 317.079 245.28C316.912 245.587 316.829 245.933 316.829 246.32C316.829 246.707 316.912 247.057 317.079 247.37C317.252 247.677 317.482 247.92 317.769 248.1C318.062 248.28 318.389 248.37 318.749 248.37ZM325.101 249.06C324.621 249.06 324.251 248.92 323.991 248.64C323.731 248.36 323.601 247.96 323.601 247.44V244.39H322.611V243.64H322.861C323.088 243.64 323.268 243.567 323.401 243.42C323.535 243.267 323.601 243.077 323.601 242.85V242.4H324.351V243.64H325.531V244.39H324.351V247.44C324.351 247.62 324.378 247.78 324.431 247.92C324.485 248.053 324.575 248.16 324.701 248.24C324.835 248.32 325.011 248.36 325.231 248.36C325.285 248.36 325.348 248.357 325.421 248.35C325.495 248.343 325.558 248.337 325.611 248.33V249C325.531 249.02 325.441 249.033 325.341 249.04C325.241 249.053 325.161 249.06 325.101 249.06ZM327.328 249V243.64H328.078V249H327.328ZM327.328 242.65V241.55H328.078V242.65H327.328ZM332.523 249.12C332.017 249.12 331.557 249 331.143 248.76C330.73 248.513 330.4 248.18 330.153 247.76C329.913 247.333 329.793 246.85 329.793 246.31C329.793 245.777 329.913 245.3 330.153 244.88C330.393 244.46 330.717 244.13 331.123 243.89C331.537 243.643 332.003 243.52 332.523 243.52C333.043 243.52 333.507 243.64 333.913 243.88C334.327 244.12 334.65 244.45 334.883 244.87C335.123 245.29 335.243 245.77 335.243 246.31C335.243 246.857 335.12 247.343 334.873 247.77C334.627 248.19 334.297 248.52 333.883 248.76C333.477 249 333.023 249.12 332.523 249.12ZM332.523 248.37C332.883 248.37 333.207 248.28 333.493 248.1C333.787 247.92 334.017 247.673 334.183 247.36C334.357 247.047 334.443 246.697 334.443 246.31C334.443 245.923 334.357 245.577 334.183 245.27C334.017 244.963 333.787 244.72 333.493 244.54C333.207 244.36 332.883 244.27 332.523 244.27C332.163 244.27 331.837 244.36 331.543 244.54C331.257 244.72 331.027 244.963 330.853 245.27C330.68 245.577 330.593 245.923 330.593 246.31C330.593 246.697 330.68 247.047 330.853 247.36C331.027 247.673 331.257 247.92 331.543 248.1C331.837 248.28 332.163 248.37 332.523 248.37ZM336.966 249V243.64H337.716V244.68L337.546 244.64C337.679 244.293 337.896 244.02 338.196 243.82C338.503 243.62 338.856 243.52 339.256 243.52C339.636 243.52 339.976 243.607 340.276 243.78C340.583 243.953 340.823 244.193 340.996 244.5C341.176 244.8 341.266 245.14 341.266 245.52V249H340.516V245.81C340.516 245.483 340.456 245.207 340.336 244.98C340.223 244.753 340.059 244.58 339.846 244.46C339.639 244.333 339.399 244.27 339.126 244.27C338.853 244.27 338.609 244.333 338.396 244.46C338.183 244.58 338.016 244.757 337.896 244.99C337.776 245.217 337.716 245.49 337.716 245.81V249H336.966Z" fill="white" fill-opacity="0.9"/>
<rect x="100" y="6" width="110" height="18" fill="#44454F" stroke="#2F67D4" stroke-width="2" stroke-dasharray="4 4"/>
<rect x="100" y="52" width="110" height="18" fill="#44454F" stroke="#2F67D4" stroke-width="2" stroke-dasharray="4 4"/>
<rect x="100" y="98" width="110" height="18" fill="#44454F" stroke="#2F67D4" stroke-width="2" stroke-dasharray="4 4"/>
<rect x="100" y="144" width="110" height="18" fill="#44454F" stroke="#2F67D4" stroke-width="2" stroke-dasharray="4 4"/>
<rect x="100" y="190" width="110" height="18" fill="#44454F" stroke="#2F67D4" stroke-width="2" stroke-dasharray="4 4"/>
<rect x="100" y="236" width="110" height="18" fill="#44454F" stroke="#2F67D4" stroke-width="2" stroke-dasharray="4 4"/>
<rect width="91" height="30" rx="8" fill="#5870DC"/>
<rect y="46" width="91" height="30" rx="8" fill="#5870DC"/>
<rect y="92" width="91" height="30" rx="8" fill="#5870DC"/>
<rect y="138" width="91" height="30" rx="8" fill="#5870DC"/>
<rect y="184" width="91" height="30" rx="8" fill="#5870DC"/>
<rect y="230" width="91" height="30" rx="8" fill="#5870DC"/>
<path d="M220 7V23" stroke="#2F67D4" stroke-width="2"/>
<path d="M220 53V69" stroke="#2F67D4" stroke-width="2"/>
<path d="M220 99V115" stroke="#2F67D4" stroke-width="2"/>
<path d="M220 145V161" stroke="#2F67D4" stroke-width="2"/>
<path d="M220 191V207" stroke="#2F67D4" stroke-width="2"/>
<path d="M220 237V253" stroke="#2F67D4" stroke-width="2"/>
<path d="M224 6L216 6" stroke="#2F67D4" stroke-width="2"/>
<path d="M224 52L216 52" stroke="#2F67D4" stroke-width="2"/>
<path d="M224 98L216 98" stroke="#2F67D4" stroke-width="2"/>
<path d="M224 144L216 144" stroke="#2F67D4" stroke-width="2"/>
<path d="M224 190L216 190" stroke="#2F67D4" stroke-width="2"/>
<path d="M224 236L216 236" stroke="#2F67D4" stroke-width="2"/>
<path d="M224 24L216 24" stroke="#2F67D4" stroke-width="2"/>
<path d="M224 70L216 70" stroke="#2F67D4" stroke-width="2"/>
<path d="M224 116L216 116" stroke="#2F67D4" stroke-width="2"/>
<path d="M224 162L216 162" stroke="#2F67D4" stroke-width="2"/>
<path d="M224 208L216 208" stroke="#2F67D4" stroke-width="2"/>
<path d="M224 254L216 254" stroke="#2F67D4" stroke-width="2"/>
<path d="M14.5513 19.12C14.0846 19.12 13.6513 19.0333 13.2513 18.86C12.8513 18.68 12.5113 18.4367 12.2313 18.13C11.9513 17.8233 11.7446 17.47 11.6113 17.07L12.6113 16.65C12.7913 17.11 13.0546 17.4633 13.4013 17.71C13.748 17.9567 14.148 18.08 14.6013 18.08C14.868 18.08 15.1013 18.04 15.3013 17.96C15.5013 17.8733 15.6546 17.7533 15.7613 17.6C15.8746 17.4467 15.9313 17.27 15.9313 17.07C15.9313 16.7967 15.8546 16.58 15.7013 16.42C15.548 16.26 15.3213 16.1333 15.0213 16.04L13.6213 15.6C13.0613 15.4267 12.6346 15.1633 12.3413 14.81C12.048 14.45 11.9013 14.03 11.9013 13.55C11.9013 13.13 12.0046 12.7633 12.2113 12.45C12.418 12.13 12.7013 11.88 13.0613 11.7C13.428 11.52 13.8446 11.43 14.3113 11.43C14.758 11.43 15.1646 11.51 15.5313 11.67C15.898 11.8233 16.2113 12.0367 16.4713 12.31C16.738 12.5833 16.9313 12.9 17.0513 13.26L16.0713 13.69C15.9246 13.2967 15.6946 12.9933 15.3813 12.78C15.0746 12.5667 14.718 12.46 14.3113 12.46C14.0646 12.46 13.848 12.5033 13.6613 12.59C13.4746 12.67 13.328 12.79 13.2213 12.95C13.1213 13.1033 13.0713 13.2833 13.0713 13.49C13.0713 13.73 13.148 13.9433 13.3013 14.13C13.4546 14.3167 13.688 14.4567 14.0013 14.55L15.3013 14.96C15.8946 15.14 16.3413 15.4 16.6413 15.74C16.9413 16.0733 17.0913 16.49 17.0913 16.99C17.0913 17.4033 16.9813 17.77 16.7613 18.09C16.548 18.41 16.2513 18.6633 15.8713 18.85C15.4913 19.03 15.0513 19.12 14.5513 19.12ZM21.2459 19.12C20.7059 19.12 20.2259 18.9967 19.8059 18.75C19.3926 18.4967 19.0692 18.1567 18.8359 17.73C18.6026 17.2967 18.4859 16.8133 18.4859 16.28C18.4859 15.7333 18.6026 15.25 18.8359 14.83C19.0759 14.41 19.3959 14.08 19.7959 13.84C20.1959 13.5933 20.6492 13.47 21.1559 13.47C21.5626 13.47 21.9259 13.54 22.2459 13.68C22.5659 13.82 22.8359 14.0133 23.0559 14.26C23.2759 14.5 23.4426 14.7767 23.5559 15.09C23.6759 15.4033 23.7359 15.7367 23.7359 16.09C23.7359 16.1767 23.7326 16.2667 23.7259 16.36C23.7192 16.4533 23.7059 16.54 23.6859 16.62H19.3759V15.72H23.0459L22.5059 16.13C22.5726 15.8033 22.5492 15.5133 22.4359 15.26C22.3292 15 22.1626 14.7967 21.9359 14.65C21.7159 14.4967 21.4559 14.42 21.1559 14.42C20.8559 14.42 20.5892 14.4967 20.3559 14.65C20.1226 14.7967 19.9426 15.01 19.8159 15.29C19.6892 15.5633 19.6392 15.8967 19.6659 16.29C19.6326 16.6567 19.6826 16.9767 19.8159 17.25C19.9559 17.5233 20.1492 17.7367 20.3959 17.89C20.6492 18.0433 20.9359 18.12 21.2559 18.12C21.5826 18.12 21.8592 18.0467 22.0859 17.9C22.3192 17.7533 22.5026 17.5633 22.6359 17.33L23.5559 17.78C23.4492 18.0333 23.2826 18.2633 23.0559 18.47C22.8359 18.67 22.5692 18.83 22.2559 18.95C21.9492 19.0633 21.6126 19.12 21.2459 19.12ZM25.2387 19V13.59H26.3187V14.76L26.1787 14.58C26.292 14.2133 26.4987 13.9367 26.7987 13.75C27.0987 13.5633 27.442 13.47 27.8287 13.47C28.262 13.47 28.6454 13.5867 28.9787 13.82C29.3187 14.0467 29.5454 14.35 29.6587 14.73L29.3387 14.76C29.4987 14.3267 29.742 14.0033 30.0687 13.79C30.402 13.5767 30.782 13.47 31.2087 13.47C31.582 13.47 31.9187 13.5567 32.2187 13.73C32.5254 13.9033 32.7687 14.1433 32.9487 14.45C33.1287 14.7567 33.2187 15.1067 33.2187 15.5V19H32.0887V15.81C32.0887 15.5367 32.0387 15.3067 31.9387 15.12C31.8454 14.9267 31.712 14.78 31.5387 14.68C31.372 14.5733 31.1754 14.52 30.9487 14.52C30.722 14.52 30.522 14.5733 30.3487 14.68C30.1754 14.78 30.0387 14.9267 29.9387 15.12C29.8387 15.3133 29.7887 15.5433 29.7887 15.81V19H28.6687V15.81C28.6687 15.5367 28.6187 15.3067 28.5187 15.12C28.4254 14.9267 28.292 14.78 28.1187 14.68C27.952 14.5733 27.752 14.52 27.5187 14.52C27.292 14.52 27.092 14.5733 26.9187 14.68C26.7454 14.78 26.6087 14.9267 26.5087 15.12C26.4154 15.3133 26.3687 15.5433 26.3687 15.81V19H25.2387ZM34.8282 19V13.59H35.9582V19H34.8282ZM34.8282 12.85V11.55H35.9582V12.85H34.8282ZM39.9374 19V11.55H43.0774C43.544 11.55 43.9474 11.6333 44.2874 11.8C44.6274 11.96 44.8874 12.1933 45.0674 12.5C45.2474 12.8 45.3374 13.1567 45.3374 13.57C45.3374 13.93 45.244 14.26 45.0574 14.56C44.8774 14.8533 44.594 15.0867 44.2074 15.26V14.76C44.5474 14.8933 44.824 15.0633 45.0374 15.27C45.2507 15.47 45.404 15.6967 45.4974 15.95C45.5974 16.2033 45.6474 16.47 45.6474 16.75C45.6474 17.45 45.4174 18 44.9574 18.4C44.504 18.8 43.8807 19 43.0874 19H39.9374ZM41.1174 17.95H43.1774C43.5707 17.95 43.884 17.8433 44.1174 17.63C44.3507 17.41 44.4674 17.12 44.4674 16.76C44.4674 16.3933 44.3507 16.1033 44.1174 15.89C43.884 15.67 43.5707 15.56 43.1774 15.56H41.1174V17.95ZM41.1174 14.52H43.1074C43.4274 14.52 43.684 14.43 43.8774 14.25C44.0707 14.0633 44.1674 13.82 44.1674 13.52C44.1674 13.22 44.0707 12.9867 43.8774 12.82C43.684 12.6533 43.4274 12.57 43.1074 12.57H41.1174V14.52ZM49.7612 19.12C49.2412 19.12 48.7645 18.9967 48.3312 18.75C47.9045 18.5033 47.5645 18.1667 47.3112 17.74C47.0579 17.3133 46.9312 16.83 46.9312 16.29C46.9312 15.7433 47.0579 15.26 47.3112 14.84C47.5645 14.4133 47.9045 14.08 48.3312 13.84C48.7579 13.5933 49.2345 13.47 49.7612 13.47C50.2945 13.47 50.7712 13.5933 51.1912 13.84C51.6179 14.08 51.9545 14.4133 52.2012 14.84C52.4545 15.26 52.5812 15.7433 52.5812 16.29C52.5812 16.8367 52.4545 17.3233 52.2012 17.75C51.9479 18.1767 51.6079 18.5133 51.1812 18.76C50.7545 19 50.2812 19.12 49.7612 19.12ZM49.7612 18.07C50.0812 18.07 50.3645 17.9933 50.6112 17.84C50.8579 17.6867 51.0512 17.4767 51.1912 17.21C51.3379 16.9367 51.4112 16.63 51.4112 16.29C51.4112 15.95 51.3379 15.6467 51.1912 15.38C51.0512 15.1133 50.8579 14.9033 50.6112 14.75C50.3645 14.5967 50.0812 14.52 49.7612 14.52C49.4479 14.52 49.1645 14.5967 48.9112 14.75C48.6645 14.9033 48.4679 15.1133 48.3212 15.38C48.1812 15.6467 48.1112 15.95 48.1112 16.29C48.1112 16.63 48.1812 16.9367 48.3212 17.21C48.4679 17.4767 48.6645 17.6867 48.9112 17.84C49.1645 17.9933 49.4479 18.07 49.7612 18.07ZM54.0844 19V11.43H55.2144V19H54.0844ZM59.4356 19.12C58.9156 19.12 58.4489 18.9967 58.0356 18.75C57.6289 18.4967 57.3056 18.1567 57.0656 17.73C56.8323 17.3033 56.7156 16.8233 56.7156 16.29C56.7156 15.7567 56.8356 15.2767 57.0756 14.85C57.3156 14.4233 57.6389 14.0867 58.0456 13.84C58.4523 13.5933 58.9123 13.47 59.4256 13.47C59.8589 13.47 60.2423 13.5567 60.5756 13.73C60.9089 13.9033 61.1723 14.1433 61.3656 14.45L61.1956 14.71V11.43H62.3156V19H61.2456V17.9L61.3756 18.11C61.1889 18.4367 60.9223 18.6867 60.5756 18.86C60.2289 19.0333 59.8489 19.12 59.4356 19.12ZM59.5456 18.07C59.8589 18.07 60.1389 17.9933 60.3856 17.84C60.6389 17.6867 60.8356 17.4767 60.9756 17.21C61.1223 16.9367 61.1956 16.63 61.1956 16.29C61.1956 15.95 61.1223 15.6467 60.9756 15.38C60.8356 15.1133 60.6389 14.9033 60.3856 14.75C60.1389 14.5967 59.8589 14.52 59.5456 14.52C59.2323 14.52 58.9489 14.5967 58.6956 14.75C58.4423 14.9033 58.2456 15.1133 58.1056 15.38C57.9656 15.6467 57.8956 15.95 57.8956 16.29C57.8956 16.63 57.9656 16.9367 58.1056 17.21C58.2456 17.4767 58.4389 17.6867 58.6856 17.84C58.9389 17.9933 59.2256 18.07 59.5456 18.07ZM64.3248 20.47V19.92C64.5448 19.8667 64.7148 19.7633 64.8348 19.61C64.9548 19.4633 65.0281 19.26 65.0548 19H64.5248V17.7H65.6748V18.55C65.6748 19.0833 65.5615 19.5133 65.3348 19.84C65.1081 20.1667 64.7715 20.3767 64.3248 20.47ZM70.9641 19V12.55H69.5341V11.55H72.1341V19H70.9641ZM76.6701 19.12C76.1501 19.12 75.6934 19.02 75.3001 18.82C74.9134 18.6133 74.6134 18.34 74.4001 18C74.1868 17.6533 74.0801 17.27 74.0801 16.85C74.0801 16.37 74.2101 15.9567 74.4701 15.61C74.7368 15.2567 75.1101 15 75.5901 14.84L75.5401 15.14C75.1868 15.0067 74.9068 14.7833 74.7001 14.47C74.5001 14.15 74.4001 13.8 74.4001 13.42C74.4001 13.04 74.4968 12.7 74.6901 12.4C74.8901 12.1 75.1601 11.8633 75.5001 11.69C75.8468 11.5167 76.2368 11.43 76.6701 11.43C77.1101 11.43 77.5001 11.5167 77.8401 11.69C78.1801 11.8567 78.4468 12.09 78.6401 12.39C78.8401 12.69 78.9401 13.0333 78.9401 13.42C78.9401 13.8133 78.8368 14.1667 78.6301 14.48C78.4301 14.7867 78.1568 15.0067 77.8101 15.14L77.7601 14.84C78.2401 15.0067 78.6134 15.2633 78.8801 15.61C79.1468 15.9567 79.2801 16.37 79.2801 16.85C79.2801 17.27 79.1701 17.6533 78.9501 18C78.7368 18.34 78.4334 18.6133 78.0401 18.82C77.6468 19.02 77.1901 19.12 76.6701 19.12ZM76.6701 18.12C76.9568 18.12 77.2068 18.0667 77.4201 17.96C77.6334 17.8467 77.8001 17.6933 77.9201 17.5C78.0401 17.3067 78.1001 17.08 78.1001 16.82C78.1001 16.56 78.0401 16.3333 77.9201 16.14C77.8001 15.9467 77.6334 15.7967 77.4201 15.69C77.2068 15.5833 76.9568 15.53 76.6701 15.53C76.3901 15.53 76.1434 15.5833 75.9301 15.69C75.7168 15.7967 75.5501 15.9467 75.4301 16.14C75.3101 16.3333 75.2501 16.56 75.2501 16.82C75.2501 17.08 75.3101 17.3067 75.4301 17.5C75.5501 17.6933 75.7168 17.8467 75.9301 17.96C76.1434 18.0667 76.3901 18.12 76.6701 18.12ZM76.6701 14.53C76.8834 14.53 77.0701 14.4867 77.2301 14.4C77.3968 14.3067 77.5268 14.18 77.6201 14.02C77.7134 13.86 77.7601 13.68 77.7601 13.48C77.7601 13.2733 77.7134 13.0933 77.6201 12.94C77.5268 12.78 77.3968 12.6567 77.2301 12.57C77.0701 12.4767 76.8834 12.43 76.6701 12.43C76.4634 12.43 76.2768 12.4767 76.1101 12.57C75.9434 12.6567 75.8134 12.78 75.7201 12.94C75.6268 13.0933 75.5801 13.2733 75.5801 13.48C75.5801 13.68 75.6268 13.86 75.7201 14.02C75.8134 14.18 75.9434 14.3067 76.1101 14.4C76.2768 14.4867 76.4634 14.53 76.6701 14.53Z" fill="white"/>
<path d="M14.7515 65.12C14.2848 65.12 13.8515 65.0333 13.4515 64.86C13.0515 64.68 12.7115 64.4367 12.4315 64.13C12.1515 63.8233 11.9448 63.47 11.8115 63.07L12.8115 62.65C12.9915 63.11 13.2548 63.4633 13.6015 63.71C13.9481 63.9567 14.3481 64.08 14.8015 64.08C15.0681 64.08 15.3015 64.04 15.5015 63.96C15.7015 63.8733 15.8548 63.7533 15.9615 63.6C16.0748 63.4467 16.1315 63.27 16.1315 63.07C16.1315 62.7967 16.0548 62.58 15.9015 62.42C15.7481 62.26 15.5215 62.1333 15.2215 62.04L13.8215 61.6C13.2615 61.4267 12.8348 61.1633 12.5415 60.81C12.2481 60.45 12.1015 60.03 12.1015 59.55C12.1015 59.13 12.2048 58.7633 12.4115 58.45C12.6181 58.13 12.9015 57.88 13.2615 57.7C13.6281 57.52 14.0448 57.43 14.5115 57.43C14.9581 57.43 15.3648 57.51 15.7315 57.67C16.0981 57.8233 16.4115 58.0367 16.6715 58.31C16.9381 58.5833 17.1315 58.9 17.2515 59.26L16.2715 59.69C16.1248 59.2967 15.8948 58.9933 15.5815 58.78C15.2748 58.5667 14.9181 58.46 14.5115 58.46C14.2648 58.46 14.0481 58.5033 13.8615 58.59C13.6748 58.67 13.5281 58.79 13.4215 58.95C13.3215 59.1033 13.2715 59.2833 13.2715 59.49C13.2715 59.73 13.3481 59.9433 13.5015 60.13C13.6548 60.3167 13.8881 60.4567 14.2015 60.55L15.5015 60.96C16.0948 61.14 16.5415 61.4 16.8415 61.74C17.1415 62.0733 17.2915 62.49 17.2915 62.99C17.2915 63.4033 17.1815 63.77 16.9615 64.09C16.7481 64.41 16.4515 64.6633 16.0715 64.85C15.6915 65.03 15.2515 65.12 14.7515 65.12ZM21.4461 65.12C20.9061 65.12 20.4261 64.9967 20.0061 64.75C19.5928 64.4967 19.2694 64.1567 19.0361 63.73C18.8028 63.2967 18.6861 62.8133 18.6861 62.28C18.6861 61.7333 18.8028 61.25 19.0361 60.83C19.2761 60.41 19.5961 60.08 19.9961 59.84C20.3961 59.5933 20.8494 59.47 21.3561 59.47C21.7628 59.47 22.1261 59.54 22.4461 59.68C22.7661 59.82 23.0361 60.0133 23.2561 60.26C23.4761 60.5 23.6428 60.7767 23.7561 61.09C23.8761 61.4033 23.9361 61.7367 23.9361 62.09C23.9361 62.1767 23.9328 62.2667 23.9261 62.36C23.9194 62.4533 23.9061 62.54 23.8861 62.62H19.5761V61.72H23.2461L22.7061 62.13C22.7728 61.8033 22.7494 61.5133 22.6361 61.26C22.5294 61 22.3628 60.7967 22.1361 60.65C21.9161 60.4967 21.6561 60.42 21.3561 60.42C21.0561 60.42 20.7894 60.4967 20.5561 60.65C20.3228 60.7967 20.1428 61.01 20.0161 61.29C19.8894 61.5633 19.8394 61.8967 19.8661 62.29C19.8328 62.6567 19.8828 62.9767 20.0161 63.25C20.1561 63.5233 20.3494 63.7367 20.5961 63.89C20.8494 64.0433 21.1361 64.12 21.4561 64.12C21.7828 64.12 22.0594 64.0467 22.2861 63.9C22.5194 63.7533 22.7028 63.5633 22.8361 63.33L23.7561 63.78C23.6494 64.0333 23.4828 64.2633 23.2561 64.47C23.0361 64.67 22.7694 64.83 22.4561 64.95C22.1494 65.0633 21.8128 65.12 21.4461 65.12ZM25.4389 65V59.59H26.5189V60.76L26.3789 60.58C26.4922 60.2133 26.6989 59.9367 26.9989 59.75C27.2989 59.5633 27.6422 59.47 28.0289 59.47C28.4622 59.47 28.8456 59.5867 29.1789 59.82C29.5189 60.0467 29.7456 60.35 29.8589 60.73L29.5389 60.76C29.6989 60.3267 29.9422 60.0033 30.2689 59.79C30.6022 59.5767 30.9822 59.47 31.4089 59.47C31.7822 59.47 32.1189 59.5567 32.4189 59.73C32.7256 59.9033 32.9689 60.1433 33.1489 60.45C33.3289 60.7567 33.4189 61.1067 33.4189 61.5V65H32.2889V61.81C32.2889 61.5367 32.2389 61.3067 32.1389 61.12C32.0456 60.9267 31.9122 60.78 31.7389 60.68C31.5722 60.5733 31.3756 60.52 31.1489 60.52C30.9222 60.52 30.7222 60.5733 30.5489 60.68C30.3756 60.78 30.2389 60.9267 30.1389 61.12C30.0389 61.3133 29.9889 61.5433 29.9889 61.81V65H28.8689V61.81C28.8689 61.5367 28.8189 61.3067 28.7189 61.12C28.6256 60.9267 28.4922 60.78 28.3189 60.68C28.1522 60.5733 27.9522 60.52 27.7189 60.52C27.4922 60.52 27.2922 60.5733 27.1189 60.68C26.9456 60.78 26.8089 60.9267 26.7089 61.12C26.6156 61.3133 26.5689 61.5433 26.5689 61.81V65H25.4389ZM35.0284 65V59.59H36.1584V65H35.0284ZM35.0284 58.85V57.55H36.1584V58.85H35.0284ZM40.1376 65V57.55H43.2776C43.7442 57.55 44.1476 57.6333 44.4876 57.8C44.8276 57.96 45.0876 58.1933 45.2676 58.5C45.4476 58.8 45.5376 59.1567 45.5376 59.57C45.5376 59.93 45.4442 60.26 45.2576 60.56C45.0776 60.8533 44.7942 61.0867 44.4076 61.26V60.76C44.7476 60.8933 45.0242 61.0633 45.2376 61.27C45.4509 61.47 45.6042 61.6967 45.6976 61.95C45.7976 62.2033 45.8476 62.47 45.8476 62.75C45.8476 63.45 45.6176 64 45.1576 64.4C44.7042 64.8 44.0809 65 43.2876 65H40.1376ZM41.3176 63.95H43.3776C43.7709 63.95 44.0842 63.8433 44.3176 63.63C44.5509 63.41 44.6676 63.12 44.6676 62.76C44.6676 62.3933 44.5509 62.1033 44.3176 61.89C44.0842 61.67 43.7709 61.56 43.3776 61.56H41.3176V63.95ZM41.3176 60.52H43.3076C43.6276 60.52 43.8842 60.43 44.0776 60.25C44.2709 60.0633 44.3676 59.82 44.3676 59.52C44.3676 59.22 44.2709 58.9867 44.0776 58.82C43.8842 58.6533 43.6276 58.57 43.3076 58.57H41.3176V60.52ZM49.9614 65.12C49.4414 65.12 48.9647 64.9967 48.5314 64.75C48.1047 64.5033 47.7647 64.1667 47.5114 63.74C47.2581 63.3133 47.1314 62.83 47.1314 62.29C47.1314 61.7433 47.2581 61.26 47.5114 60.84C47.7647 60.4133 48.1047 60.08 48.5314 59.84C48.9581 59.5933 49.4347 59.47 49.9614 59.47C50.4947 59.47 50.9714 59.5933 51.3914 59.84C51.8181 60.08 52.1547 60.4133 52.4014 60.84C52.6547 61.26 52.7814 61.7433 52.7814 62.29C52.7814 62.8367 52.6547 63.3233 52.4014 63.75C52.1481 64.1767 51.8081 64.5133 51.3814 64.76C50.9547 65 50.4814 65.12 49.9614 65.12ZM49.9614 64.07C50.2814 64.07 50.5647 63.9933 50.8114 63.84C51.0581 63.6867 51.2514 63.4767 51.3914 63.21C51.5381 62.9367 51.6114 62.63 51.6114 62.29C51.6114 61.95 51.5381 61.6467 51.3914 61.38C51.2514 61.1133 51.0581 60.9033 50.8114 60.75C50.5647 60.5967 50.2814 60.52 49.9614 60.52C49.6481 60.52 49.3647 60.5967 49.1114 60.75C48.8647 60.9033 48.6681 61.1133 48.5214 61.38C48.3814 61.6467 48.3114 61.95 48.3114 62.29C48.3114 62.63 48.3814 62.9367 48.5214 63.21C48.6681 63.4767 48.8647 63.6867 49.1114 63.84C49.3647 63.9933 49.6481 64.07 49.9614 64.07ZM54.2846 65V57.43H55.4146V65H54.2846ZM59.6358 65.12C59.1158 65.12 58.6491 64.9967 58.2358 64.75C57.8291 64.4967 57.5058 64.1567 57.2658 63.73C57.0324 63.3033 56.9158 62.8233 56.9158 62.29C56.9158 61.7567 57.0358 61.2767 57.2758 60.85C57.5158 60.4233 57.8391 60.0867 58.2458 59.84C58.6524 59.5933 59.1124 59.47 59.6258 59.47C60.0591 59.47 60.4424 59.5567 60.7758 59.73C61.1091 59.9033 61.3724 60.1433 61.5658 60.45L61.3958 60.71V57.43H62.5158V65H61.4458V63.9L61.5758 64.11C61.3891 64.4367 61.1224 64.6867 60.7758 64.86C60.4291 65.0333 60.0491 65.12 59.6358 65.12ZM59.7458 64.07C60.0591 64.07 60.3391 63.9933 60.5858 63.84C60.8391 63.6867 61.0358 63.4767 61.1758 63.21C61.3224 62.9367 61.3958 62.63 61.3958 62.29C61.3958 61.95 61.3224 61.6467 61.1758 61.38C61.0358 61.1133 60.8391 60.9033 60.5858 60.75C60.3391 60.5967 60.0591 60.52 59.7458 60.52C59.4324 60.52 59.1491 60.5967 58.8958 60.75C58.6424 60.9033 58.4458 61.1133 58.3058 61.38C58.1658 61.6467 58.0958 61.95 58.0958 62.29C58.0958 62.63 58.1658 62.9367 58.3058 63.21C58.4458 63.4767 58.6391 63.6867 58.8858 63.84C59.1391 63.9933 59.4258 64.07 59.7458 64.07ZM64.525 66.47V65.92C64.745 65.8667 64.915 65.7633 65.035 65.61C65.155 65.4633 65.2283 65.26 65.255 65H64.725V63.7H65.875V64.55C65.875 65.0833 65.7617 65.5133 65.535 65.84C65.3083 66.1667 64.9717 66.3767 64.525 66.47ZM71.1643 65V58.55H69.7343V57.55H72.3343V65H71.1643ZM76.6327 65.12C76.146 65.12 75.7127 65.0133 75.3327 64.8C74.9527 64.5867 74.6527 64.2933 74.4327 63.92C74.2193 63.5467 74.1127 63.1233 74.1127 62.65C74.1127 62.4033 74.1393 62.1567 74.1927 61.91C74.246 61.6633 74.3393 61.4067 74.4727 61.14C74.6127 60.8733 74.7993 60.5867 75.0327 60.28L77.1127 57.55H78.5227L75.9727 60.85L75.7727 60.72C75.866 60.6133 75.966 60.53 76.0727 60.47C76.186 60.41 76.3027 60.3667 76.4227 60.34C76.5493 60.3133 76.6827 60.3 76.8227 60.3C77.2693 60.3 77.6693 60.4033 78.0227 60.61C78.376 60.8167 78.6527 61.0967 78.8527 61.45C79.0593 61.8033 79.1627 62.21 79.1627 62.67C79.1627 63.1367 79.0527 63.5567 78.8327 63.93C78.6127 64.2967 78.3127 64.5867 77.9327 64.8C77.5593 65.0133 77.126 65.12 76.6327 65.12ZM76.6327 64.07C76.8927 64.07 77.1227 64.01 77.3227 63.89C77.5227 63.77 77.6827 63.6067 77.8027 63.4C77.9227 63.1867 77.9827 62.9467 77.9827 62.68C77.9827 62.4067 77.9227 62.1667 77.8027 61.96C77.6893 61.7533 77.5293 61.5933 77.3227 61.48C77.1227 61.36 76.8927 61.3 76.6327 61.3C76.3793 61.3 76.1493 61.36 75.9427 61.48C75.7427 61.5933 75.5827 61.7533 75.4627 61.96C75.3427 62.1667 75.2827 62.4067 75.2827 62.68C75.2827 62.9467 75.3427 63.1867 75.4627 63.4C75.5827 63.6067 75.7427 63.77 75.9427 63.89C76.1493 64.01 76.3793 64.07 76.6327 64.07Z" fill="white"/>
<path d="M14.4732 111.12C14.0065 111.12 13.5732 111.033 13.1732 110.86C12.7732 110.68 12.4332 110.437 12.1532 110.13C11.8732 109.823 11.6665 109.47 11.5332 109.07L12.5332 108.65C12.7132 109.11 12.9765 109.463 13.3232 109.71C13.6698 109.957 14.0698 110.08 14.5232 110.08C14.7898 110.08 15.0232 110.04 15.2232 109.96C15.4232 109.873 15.5765 109.753 15.6832 109.6C15.7965 109.447 15.8532 109.27 15.8532 109.07C15.8532 108.797 15.7765 108.58 15.6232 108.42C15.4698 108.26 15.2432 108.133 14.9432 108.04L13.5432 107.6C12.9832 107.427 12.5565 107.163 12.2632 106.81C11.9698 106.45 11.8232 106.03 11.8232 105.55C11.8232 105.13 11.9265 104.763 12.1332 104.45C12.3398 104.13 12.6232 103.88 12.9832 103.7C13.3498 103.52 13.7665 103.43 14.2332 103.43C14.6798 103.43 15.0865 103.51 15.4532 103.67C15.8198 103.823 16.1332 104.037 16.3932 104.31C16.6598 104.583 16.8532 104.9 16.9732 105.26L15.9932 105.69C15.8465 105.297 15.6165 104.993 15.3032 104.78C14.9965 104.567 14.6398 104.46 14.2332 104.46C13.9865 104.46 13.7698 104.503 13.5832 104.59C13.3965 104.67 13.2498 104.79 13.1432 104.95C13.0432 105.103 12.9932 105.283 12.9932 105.49C12.9932 105.73 13.0698 105.943 13.2232 106.13C13.3765 106.317 13.6098 106.457 13.9232 106.55L15.2232 106.96C15.8165 107.14 16.2632 107.4 16.5632 107.74C16.8632 108.073 17.0132 108.49 17.0132 108.99C17.0132 109.403 16.9032 109.77 16.6832 110.09C16.4698 110.41 16.1732 110.663 15.7932 110.85C15.4132 111.03 14.9732 111.12 14.4732 111.12ZM21.1678 111.12C20.6278 111.12 20.1478 110.997 19.7278 110.75C19.3144 110.497 18.9911 110.157 18.7578 109.73C18.5244 109.297 18.4078 108.813 18.4078 108.28C18.4078 107.733 18.5244 107.25 18.7578 106.83C18.9978 106.41 19.3178 106.08 19.7178 105.84C20.1178 105.593 20.5711 105.47 21.0778 105.47C21.4844 105.47 21.8478 105.54 22.1678 105.68C22.4878 105.82 22.7578 106.013 22.9778 106.26C23.1978 106.5 23.3644 106.777 23.4778 107.09C23.5978 107.403 23.6578 107.737 23.6578 108.09C23.6578 108.177 23.6544 108.267 23.6478 108.36C23.6411 108.453 23.6278 108.54 23.6078 108.62H19.2978V107.72H22.9678L22.4278 108.13C22.4944 107.803 22.4711 107.513 22.3578 107.26C22.2511 107 22.0844 106.797 21.8578 106.65C21.6378 106.497 21.3778 106.42 21.0778 106.42C20.7778 106.42 20.5111 106.497 20.2778 106.65C20.0444 106.797 19.8644 107.01 19.7378 107.29C19.6111 107.563 19.5611 107.897 19.5878 108.29C19.5544 108.657 19.6044 108.977 19.7378 109.25C19.8778 109.523 20.0711 109.737 20.3178 109.89C20.5711 110.043 20.8578 110.12 21.1778 110.12C21.5044 110.12 21.7811 110.047 22.0078 109.9C22.2411 109.753 22.4244 109.563 22.5578 109.33L23.4778 109.78C23.3711 110.033 23.2044 110.263 22.9778 110.47C22.7578 110.67 22.4911 110.83 22.1778 110.95C21.8711 111.063 21.5344 111.12 21.1678 111.12ZM25.1606 111V105.59H26.2406V106.76L26.1006 106.58C26.2139 106.213 26.4206 105.937 26.7206 105.75C27.0206 105.563 27.3639 105.47 27.7506 105.47C28.1839 105.47 28.5673 105.587 28.9006 105.82C29.2406 106.047 29.4673 106.35 29.5806 106.73L29.2606 106.76C29.4206 106.327 29.6639 106.003 29.9906 105.79C30.3239 105.577 30.7039 105.47 31.1306 105.47C31.5039 105.47 31.8406 105.557 32.1406 105.73C32.4473 105.903 32.6906 106.143 32.8706 106.45C33.0506 106.757 33.1406 107.107 33.1406 107.5V111H32.0106V107.81C32.0106 107.537 31.9606 107.307 31.8606 107.12C31.7673 106.927 31.6339 106.78 31.4606 106.68C31.2939 106.573 31.0973 106.52 30.8706 106.52C30.6439 106.52 30.4439 106.573 30.2706 106.68C30.0973 106.78 29.9606 106.927 29.8606 107.12C29.7606 107.313 29.7106 107.543 29.7106 107.81V111H28.5906V107.81C28.5906 107.537 28.5406 107.307 28.4406 107.12C28.3473 106.927 28.2139 106.78 28.0406 106.68C27.8739 106.573 27.6739 106.52 27.4406 106.52C27.2139 106.52 27.0139 106.573 26.8406 106.68C26.6673 106.78 26.5306 106.927 26.4306 107.12C26.3373 107.313 26.2906 107.543 26.2906 107.81V111H25.1606ZM34.75 111V105.59H35.88V111H34.75ZM34.75 104.85V103.55H35.88V104.85H34.75ZM39.8593 111V103.55H42.9993C43.4659 103.55 43.8693 103.633 44.2093 103.8C44.5493 103.96 44.8093 104.193 44.9893 104.5C45.1693 104.8 45.2593 105.157 45.2593 105.57C45.2593 105.93 45.1659 106.26 44.9793 106.56C44.7993 106.853 44.5159 107.087 44.1293 107.26V106.76C44.4693 106.893 44.7459 107.063 44.9593 107.27C45.1726 107.47 45.3259 107.697 45.4193 107.95C45.5193 108.203 45.5693 108.47 45.5693 108.75C45.5693 109.45 45.3393 110 44.8793 110.4C44.4259 110.8 43.8026 111 43.0093 111H39.8593ZM41.0393 109.95H43.0993C43.4926 109.95 43.8059 109.843 44.0393 109.63C44.2726 109.41 44.3893 109.12 44.3893 108.76C44.3893 108.393 44.2726 108.103 44.0393 107.89C43.8059 107.67 43.4926 107.56 43.0993 107.56H41.0393V109.95ZM41.0393 106.52H43.0293C43.3493 106.52 43.6059 106.43 43.7993 106.25C43.9926 106.063 44.0893 105.82 44.0893 105.52C44.0893 105.22 43.9926 104.987 43.7993 104.82C43.6059 104.653 43.3493 104.57 43.0293 104.57H41.0393V106.52ZM49.6831 111.12C49.1631 111.12 48.6864 110.997 48.2531 110.75C47.8264 110.503 47.4864 110.167 47.2331 109.74C46.9798 109.313 46.8531 108.83 46.8531 108.29C46.8531 107.743 46.9798 107.26 47.2331 106.84C47.4864 106.413 47.8264 106.08 48.2531 105.84C48.6798 105.593 49.1564 105.47 49.6831 105.47C50.2164 105.47 50.6931 105.593 51.1131 105.84C51.5398 106.08 51.8764 106.413 52.1231 106.84C52.3764 107.26 52.5031 107.743 52.5031 108.29C52.5031 108.837 52.3764 109.323 52.1231 109.75C51.8698 110.177 51.5298 110.513 51.1031 110.76C50.6764 111 50.2031 111.12 49.6831 111.12ZM49.6831 110.07C50.0031 110.07 50.2864 109.993 50.5331 109.84C50.7798 109.687 50.9731 109.477 51.1131 109.21C51.2598 108.937 51.3331 108.63 51.3331 108.29C51.3331 107.95 51.2598 107.647 51.1131 107.38C50.9731 107.113 50.7798 106.903 50.5331 106.75C50.2864 106.597 50.0031 106.52 49.6831 106.52C49.3698 106.52 49.0864 106.597 48.8331 106.75C48.5864 106.903 48.3898 107.113 48.2431 107.38C48.1031 107.647 48.0331 107.95 48.0331 108.29C48.0331 108.63 48.1031 108.937 48.2431 109.21C48.3898 109.477 48.5864 109.687 48.8331 109.84C49.0864 109.993 49.3698 110.07 49.6831 110.07ZM54.0063 111V103.43H55.1363V111H54.0063ZM59.3575 111.12C58.8375 111.12 58.3708 110.997 57.9575 110.75C57.5508 110.497 57.2275 110.157 56.9875 109.73C56.7541 109.303 56.6375 108.823 56.6375 108.29C56.6375 107.757 56.7575 107.277 56.9975 106.85C57.2375 106.423 57.5608 106.087 57.9675 105.84C58.3741 105.593 58.8341 105.47 59.3475 105.47C59.7808 105.47 60.1641 105.557 60.4975 105.73C60.8308 105.903 61.0941 106.143 61.2875 106.45L61.1175 106.71V103.43H62.2375V111H61.1675V109.9L61.2975 110.11C61.1108 110.437 60.8441 110.687 60.4975 110.86C60.1508 111.033 59.7708 111.12 59.3575 111.12ZM59.4675 110.07C59.7808 110.07 60.0608 109.993 60.3075 109.84C60.5608 109.687 60.7575 109.477 60.8975 109.21C61.0441 108.937 61.1175 108.63 61.1175 108.29C61.1175 107.95 61.0441 107.647 60.8975 107.38C60.7575 107.113 60.5608 106.903 60.3075 106.75C60.0608 106.597 59.7808 106.52 59.4675 106.52C59.1541 106.52 58.8708 106.597 58.6175 106.75C58.3641 106.903 58.1675 107.113 58.0275 107.38C57.8875 107.647 57.8175 107.95 57.8175 108.29C57.8175 108.63 57.8875 108.937 58.0275 109.21C58.1675 109.477 58.3608 109.687 58.6075 109.84C58.8608 109.993 59.1475 110.07 59.4675 110.07ZM64.2467 112.47V111.92C64.4667 111.867 64.6367 111.763 64.7567 111.61C64.8767 111.463 64.95 111.26 64.9767 111H64.4467V109.7H65.5967V110.55C65.5967 111.083 65.4833 111.513 65.2567 111.84C65.03 112.167 64.6933 112.377 64.2467 112.47ZM70.886 111V104.55H69.456V103.55H72.056V111H70.886ZM77.382 111V109.32H73.832V108.34L77.332 103.55H78.502V108.34H79.532V109.32H78.502V111H77.382ZM74.702 108.77L74.512 108.34H77.382V104.49L77.702 104.59L74.702 108.77Z" fill="white"/>
<path d="M17.2288 157V149.55H18.3288L21.1288 153.43H20.5788L23.3288 149.55H24.4288V157H23.2588V150.94L23.6988 151.06L20.8888 154.9H20.7688L18.0188 151.06L18.4088 150.94V157H17.2288ZM28.799 157.12C28.259 157.12 27.779 156.997 27.359 156.75C26.9457 156.497 26.6224 156.157 26.389 155.73C26.1557 155.297 26.039 154.813 26.039 154.28C26.039 153.733 26.1557 153.25 26.389 152.83C26.629 152.41 26.949 152.08 27.349 151.84C27.749 151.593 28.2024 151.47 28.709 151.47C29.1157 151.47 29.479 151.54 29.799 151.68C30.119 151.82 30.389 152.013 30.609 152.26C30.829 152.5 30.9957 152.777 31.109 153.09C31.229 153.403 31.289 153.737 31.289 154.09C31.289 154.177 31.2857 154.267 31.279 154.36C31.2724 154.453 31.259 154.54 31.239 154.62H26.929V153.72H30.599L30.059 154.13C30.1257 153.803 30.1024 153.513 29.989 153.26C29.8824 153 29.7157 152.797 29.489 152.65C29.269 152.497 29.009 152.42 28.709 152.42C28.409 152.42 28.1424 152.497 27.909 152.65C27.6757 152.797 27.4957 153.01 27.369 153.29C27.2424 153.563 27.1924 153.897 27.219 154.29C27.1857 154.657 27.2357 154.977 27.369 155.25C27.509 155.523 27.7024 155.737 27.949 155.89C28.2024 156.043 28.489 156.12 28.809 156.12C29.1357 156.12 29.4124 156.047 29.639 155.9C29.8724 155.753 30.0557 155.563 30.189 155.33L31.109 155.78C31.0024 156.033 30.8357 156.263 30.609 156.47C30.389 156.67 30.1224 156.83 29.809 156.95C29.5024 157.063 29.1657 157.12 28.799 157.12ZM35.2918 157.12C34.7718 157.12 34.3052 156.997 33.8918 156.75C33.4852 156.497 33.1618 156.157 32.9218 155.73C32.6885 155.303 32.5718 154.823 32.5718 154.29C32.5718 153.757 32.6918 153.277 32.9318 152.85C33.1718 152.423 33.4952 152.087 33.9018 151.84C34.3085 151.593 34.7685 151.47 35.2818 151.47C35.7152 151.47 36.0985 151.557 36.4318 151.73C36.7652 151.903 37.0285 152.143 37.2218 152.45L37.0518 152.71V149.43H38.1718V157H37.1018V155.9L37.2318 156.11C37.0452 156.437 36.7785 156.687 36.4318 156.86C36.0852 157.033 35.7052 157.12 35.2918 157.12ZM35.4018 156.07C35.7152 156.07 35.9952 155.993 36.2418 155.84C36.4952 155.687 36.6918 155.477 36.8318 155.21C36.9785 154.937 37.0518 154.63 37.0518 154.29C37.0518 153.95 36.9785 153.647 36.8318 153.38C36.6918 153.113 36.4952 152.903 36.2418 152.75C35.9952 152.597 35.7152 152.52 35.4018 152.52C35.0885 152.52 34.8052 152.597 34.5518 152.75C34.2985 152.903 34.1018 153.113 33.9618 153.38C33.8218 153.647 33.7518 153.95 33.7518 154.29C33.7518 154.63 33.8218 154.937 33.9618 155.21C34.1018 155.477 34.2952 155.687 34.5418 155.84C34.7952 155.993 35.0818 156.07 35.4018 156.07ZM39.8911 157V151.59H41.0211V157H39.8911ZM39.8911 150.85V149.55H41.0211V150.85H39.8911ZM44.6722 157.12C44.2656 157.12 43.9089 157.03 43.6022 156.85C43.2956 156.663 43.0556 156.407 42.8822 156.08C42.7156 155.747 42.6322 155.363 42.6322 154.93V151.59H43.7622V154.83C43.7622 155.077 43.8122 155.293 43.9122 155.48C44.0122 155.667 44.1522 155.813 44.3322 155.92C44.5122 156.02 44.7189 156.07 44.9522 156.07C45.1922 156.07 45.4022 156.017 45.5822 155.91C45.7622 155.803 45.9022 155.653 46.0022 155.46C46.1089 155.267 46.1622 155.04 46.1622 154.78V151.59H47.2822V157H46.2122V155.94L46.3322 156.08C46.2056 156.413 45.9956 156.67 45.7022 156.85C45.4089 157.03 45.0656 157.12 44.6722 157.12ZM49.0016 157V151.59H50.0816V152.76L49.9416 152.58C50.0549 152.213 50.2616 151.937 50.5616 151.75C50.8616 151.563 51.2049 151.47 51.5916 151.47C52.0249 151.47 52.4083 151.587 52.7416 151.82C53.0816 152.047 53.3083 152.35 53.4216 152.73L53.1016 152.76C53.2616 152.327 53.5049 152.003 53.8316 151.79C54.1649 151.577 54.5449 151.47 54.9716 151.47C55.3449 151.47 55.6816 151.557 55.9816 151.73C56.2883 151.903 56.5316 152.143 56.7116 152.45C56.8916 152.757 56.9816 153.107 56.9816 153.5V157H55.8516V153.81C55.8516 153.537 55.8016 153.307 55.7016 153.12C55.6083 152.927 55.4749 152.78 55.3016 152.68C55.1349 152.573 54.9383 152.52 54.7116 152.52C54.4849 152.52 54.2849 152.573 54.1116 152.68C53.9383 152.78 53.8016 152.927 53.7016 153.12C53.6016 153.313 53.5516 153.543 53.5516 153.81V157H52.4316V153.81C52.4316 153.537 52.3816 153.307 52.2816 153.12C52.1883 152.927 52.0549 152.78 51.8816 152.68C51.7149 152.573 51.5149 152.52 51.2816 152.52C51.0549 152.52 50.8549 152.573 50.6816 152.68C50.5083 152.78 50.3716 152.927 50.2716 153.12C50.1783 153.313 50.1316 153.543 50.1316 153.81V157H49.0016ZM58.8811 158.47V157.92C59.1011 157.867 59.2711 157.763 59.3911 157.61C59.5111 157.463 59.5844 157.26 59.6111 157H59.0811V155.7H60.2311V156.55C60.2311 157.083 60.1177 157.513 59.8911 157.84C59.6644 158.167 59.3277 158.377 58.8811 158.47ZM65.5204 157V150.55H64.0904V149.55H66.6904V157H65.5204ZM72.0164 157V155.32H68.4664V154.34L71.9664 149.55H73.1364V154.34H74.1664V155.32H73.1364V157H72.0164ZM69.3364 154.77L69.1464 154.34H72.0164V150.49L72.3364 150.59L69.3364 154.77Z" fill="white"/>
<path d="M18.1889 203V195.55H20.8989C21.3989 195.55 21.8389 195.643 22.2189 195.83C22.5989 196.01 22.8956 196.277 23.1089 196.63C23.3289 196.977 23.4389 197.393 23.4389 197.88C23.4389 198.393 23.3089 198.833 23.0489 199.2C22.7956 199.567 22.4523 199.833 22.0189 200L23.7389 203H22.3989L20.5689 199.75L21.3389 200.2H19.3689V203H18.1889ZM19.3689 199.15H20.9189C21.1923 199.15 21.4289 199.097 21.6289 198.99C21.8289 198.883 21.9823 198.737 22.0889 198.55C22.2023 198.357 22.2589 198.13 22.2589 197.87C22.2589 197.61 22.2023 197.387 22.0889 197.2C21.9823 197.007 21.8289 196.86 21.6289 196.76C21.4289 196.653 21.1923 196.6 20.9189 196.6H19.3689V199.15ZM27.2592 203.12C26.7192 203.12 26.2392 202.997 25.8192 202.75C25.4058 202.497 25.0825 202.157 24.8492 201.73C24.6158 201.297 24.4992 200.813 24.4992 200.28C24.4992 199.733 24.6158 199.25 24.8492 198.83C25.0892 198.41 25.4092 198.08 25.8092 197.84C26.2092 197.593 26.6625 197.47 27.1692 197.47C27.5758 197.47 27.9392 197.54 28.2592 197.68C28.5792 197.82 28.8492 198.013 29.0692 198.26C29.2892 198.5 29.4558 198.777 29.5692 199.09C29.6892 199.403 29.7492 199.737 29.7492 200.09C29.7492 200.177 29.7458 200.267 29.7392 200.36C29.7325 200.453 29.7192 200.54 29.6992 200.62H25.3892V199.72H29.0592L28.5192 200.13C28.5858 199.803 28.5625 199.513 28.4492 199.26C28.3425 199 28.1758 198.797 27.9492 198.65C27.7292 198.497 27.4692 198.42 27.1692 198.42C26.8692 198.42 26.6025 198.497 26.3692 198.65C26.1358 198.797 25.9558 199.01 25.8292 199.29C25.7025 199.563 25.6525 199.897 25.6792 200.29C25.6458 200.657 25.6958 200.977 25.8292 201.25C25.9692 201.523 26.1625 201.737 26.4092 201.89C26.6625 202.043 26.9492 202.12 27.2692 202.12C27.5958 202.12 27.8725 202.047 28.0992 201.9C28.3325 201.753 28.5158 201.563 28.6492 201.33L29.5692 201.78C29.4625 202.033 29.2958 202.263 29.0692 202.47C28.8492 202.67 28.5825 202.83 28.2692 202.95C27.9625 203.063 27.6258 203.12 27.2592 203.12ZM33.862 205.2C33.4687 205.2 33.1053 205.137 32.772 205.01C32.4387 204.883 32.152 204.707 31.912 204.48C31.672 204.26 31.492 204 31.372 203.7L32.412 203.27C32.5053 203.523 32.6753 203.733 32.922 203.9C33.1753 204.067 33.4853 204.15 33.852 204.15C34.1387 204.15 34.3953 204.093 34.622 203.98C34.8487 203.873 35.0287 203.713 35.162 203.5C35.2953 203.293 35.362 203.043 35.362 202.75V201.53L35.562 201.76C35.3753 202.107 35.1153 202.37 34.782 202.55C34.4553 202.73 34.0853 202.82 33.672 202.82C33.172 202.82 32.722 202.703 32.322 202.47C31.922 202.237 31.6053 201.917 31.372 201.51C31.1453 201.103 31.032 200.647 31.032 200.14C31.032 199.627 31.1453 199.17 31.372 198.77C31.6053 198.37 31.9187 198.053 32.312 197.82C32.7053 197.587 33.1553 197.47 33.662 197.47C34.0753 197.47 34.442 197.56 34.762 197.74C35.0887 197.913 35.3553 198.167 35.562 198.5L35.412 198.78V197.59H36.482V202.75C36.482 203.217 36.3687 203.633 36.142 204C35.922 204.373 35.6153 204.667 35.222 204.88C34.8287 205.093 34.3753 205.2 33.862 205.2ZM33.802 201.77C34.102 201.77 34.3687 201.7 34.602 201.56C34.8353 201.413 35.0187 201.22 35.152 200.98C35.292 200.733 35.362 200.457 35.362 200.15C35.362 199.843 35.292 199.567 35.152 199.32C35.012 199.073 34.8253 198.88 34.592 198.74C34.3587 198.593 34.0953 198.52 33.802 198.52C33.4953 198.52 33.222 198.593 32.982 198.74C32.742 198.88 32.552 199.073 32.412 199.32C32.2787 199.56 32.212 199.837 32.212 200.15C32.212 200.45 32.2787 200.723 32.412 200.97C32.552 201.217 32.742 201.413 32.982 201.56C33.222 201.7 33.4953 201.77 33.802 201.77ZM40.1347 203.12C39.7281 203.12 39.3714 203.03 39.0647 202.85C38.7581 202.663 38.5181 202.407 38.3447 202.08C38.1781 201.747 38.0947 201.363 38.0947 200.93V197.59H39.2247V200.83C39.2247 201.077 39.2747 201.293 39.3747 201.48C39.4747 201.667 39.6147 201.813 39.7947 201.92C39.9747 202.02 40.1814 202.07 40.4147 202.07C40.6547 202.07 40.8647 202.017 41.0447 201.91C41.2247 201.803 41.3647 201.653 41.4647 201.46C41.5714 201.267 41.6247 201.04 41.6247 200.78V197.59H42.7447V203H41.6747V201.94L41.7947 202.08C41.6681 202.413 41.4581 202.67 41.1647 202.85C40.8714 203.03 40.5281 203.12 40.1347 203.12ZM44.4641 203V195.43H45.5941V203H44.4641ZM48.9353 203.12C48.5686 203.12 48.2453 203.057 47.9653 202.93C47.6919 202.797 47.4786 202.617 47.3253 202.39C47.1719 202.157 47.0953 201.883 47.0953 201.57C47.0953 201.277 47.1586 201.013 47.2853 200.78C47.4186 200.547 47.6219 200.35 47.8953 200.19C48.1686 200.03 48.5119 199.917 48.9253 199.85L50.8053 199.54V200.43L49.1453 200.72C48.8453 200.773 48.6253 200.87 48.4853 201.01C48.3453 201.143 48.2753 201.317 48.2753 201.53C48.2753 201.737 48.3519 201.907 48.5053 202.04C48.6653 202.167 48.8686 202.23 49.1153 202.23C49.4219 202.23 49.6886 202.163 49.9153 202.03C50.1486 201.897 50.3286 201.72 50.4553 201.5C50.5819 201.273 50.6453 201.023 50.6453 200.75V199.36C50.6453 199.093 50.5453 198.877 50.3453 198.71C50.1519 198.537 49.8919 198.45 49.5653 198.45C49.2653 198.45 49.0019 198.53 48.7753 198.69C48.5553 198.843 48.3919 199.043 48.2853 199.29L47.3453 198.82C47.4453 198.553 47.6086 198.32 47.8353 198.12C48.0619 197.913 48.3253 197.753 48.6253 197.64C48.9319 197.527 49.2553 197.47 49.5953 197.47C50.0219 197.47 50.3986 197.55 50.7253 197.71C51.0586 197.87 51.3153 198.093 51.4953 198.38C51.6819 198.66 51.7753 198.987 51.7753 199.36V203H50.6953V202.02L50.9253 202.05C50.7986 202.27 50.6353 202.46 50.4353 202.62C50.2419 202.78 50.0186 202.903 49.7653 202.99C49.5186 203.077 49.2419 203.12 48.9353 203.12ZM53.4965 203V197.59H54.5765V198.68L54.4765 198.52C54.5965 198.167 54.7899 197.913 55.0565 197.76C55.3232 197.6 55.6432 197.52 56.0165 197.52H56.3465V198.55H55.8765C55.5032 198.55 55.1999 198.667 54.9665 198.9C54.7399 199.127 54.6265 199.453 54.6265 199.88V203H53.4965ZM57.4092 204.47V203.92C57.6292 203.867 57.7992 203.763 57.9192 203.61C58.0392 203.463 58.1125 203.26 58.1392 203H57.6092V201.7H58.7592V202.55C58.7592 203.083 58.6458 203.513 58.4192 203.84C58.1925 204.167 57.8558 204.377 57.4092 204.47ZM64.0485 203V196.55H62.6185V195.55H65.2185V203H64.0485ZM67.1045 203V202.15L69.1445 199.97C69.5445 199.543 69.8578 199.2 70.0845 198.94C70.3178 198.673 70.4845 198.44 70.5845 198.24C70.6912 198.04 70.7445 197.83 70.7445 197.61C70.7445 197.25 70.6345 196.973 70.4145 196.78C70.1945 196.58 69.9112 196.48 69.5645 196.48C69.2045 196.48 68.8945 196.583 68.6345 196.79C68.3745 196.99 68.1945 197.283 68.0945 197.67L67.0545 197.37C67.1345 196.977 67.2945 196.637 67.5345 196.35C67.7745 196.057 68.0678 195.83 68.4145 195.67C68.7678 195.51 69.1478 195.43 69.5545 195.43C70.0278 195.43 70.4412 195.52 70.7945 195.7C71.1478 195.873 71.4212 196.117 71.6145 196.43C71.8145 196.743 71.9145 197.107 71.9145 197.52C71.9145 197.793 71.8612 198.06 71.7545 198.32C71.6545 198.573 71.4978 198.843 71.2845 199.13C71.0712 199.41 70.7978 199.727 70.4645 200.08L68.6645 202H72.0545V203H67.1045Z" fill="white"/>
<path d="M18.1889 249V241.55H20.8989C21.3989 241.55 21.8389 241.643 22.2189 241.83C22.5989 242.01 22.8956 242.277 23.1089 242.63C23.3289 242.977 23.4389 243.393 23.4389 243.88C23.4389 244.393 23.3089 244.833 23.0489 245.2C22.7956 245.567 22.4523 245.833 22.0189 246L23.7389 249H22.3989L20.5689 245.75L21.3389 246.2H19.3689V249H18.1889ZM19.3689 245.15H20.9189C21.1923 245.15 21.4289 245.097 21.6289 244.99C21.8289 244.883 21.9823 244.737 22.0889 244.55C22.2023 244.357 22.2589 244.13 22.2589 243.87C22.2589 243.61 22.2023 243.387 22.0889 243.2C21.9823 243.007 21.8289 242.86 21.6289 242.76C21.4289 242.653 21.1923 242.6 20.9189 242.6H19.3689V245.15ZM27.2592 249.12C26.7192 249.12 26.2392 248.997 25.8192 248.75C25.4058 248.497 25.0825 248.157 24.8492 247.73C24.6158 247.297 24.4992 246.813 24.4992 246.28C24.4992 245.733 24.6158 245.25 24.8492 244.83C25.0892 244.41 25.4092 244.08 25.8092 243.84C26.2092 243.593 26.6625 243.47 27.1692 243.47C27.5758 243.47 27.9392 243.54 28.2592 243.68C28.5792 243.82 28.8492 244.013 29.0692 244.26C29.2892 244.5 29.4558 244.777 29.5692 245.09C29.6892 245.403 29.7492 245.737 29.7492 246.09C29.7492 246.177 29.7458 246.267 29.7392 246.36C29.7325 246.453 29.7192 246.54 29.6992 246.62H25.3892V245.72H29.0592L28.5192 246.13C28.5858 245.803 28.5625 245.513 28.4492 245.26C28.3425 245 28.1758 244.797 27.9492 244.65C27.7292 244.497 27.4692 244.42 27.1692 244.42C26.8692 244.42 26.6025 244.497 26.3692 244.65C26.1358 244.797 25.9558 245.01 25.8292 245.29C25.7025 245.563 25.6525 245.897 25.6792 246.29C25.6458 246.657 25.6958 246.977 25.8292 247.25C25.9692 247.523 26.1625 247.737 26.4092 247.89C26.6625 248.043 26.9492 248.12 27.2692 248.12C27.5958 248.12 27.8725 248.047 28.0992 247.9C28.3325 247.753 28.5158 247.563 28.6492 247.33L29.5692 247.78C29.4625 248.033 29.2958 248.263 29.0692 248.47C28.8492 248.67 28.5825 248.83 28.2692 248.95C27.9625 249.063 27.6258 249.12 27.2592 249.12ZM33.862 251.2C33.4687 251.2 33.1053 251.137 32.772 251.01C32.4387 250.883 32.152 250.707 31.912 250.48C31.672 250.26 31.492 250 31.372 249.7L32.412 249.27C32.5053 249.523 32.6753 249.733 32.922 249.9C33.1753 250.067 33.4853 250.15 33.852 250.15C34.1387 250.15 34.3953 250.093 34.622 249.98C34.8487 249.873 35.0287 249.713 35.162 249.5C35.2953 249.293 35.362 249.043 35.362 248.75V247.53L35.562 247.76C35.3753 248.107 35.1153 248.37 34.782 248.55C34.4553 248.73 34.0853 248.82 33.672 248.82C33.172 248.82 32.722 248.703 32.322 248.47C31.922 248.237 31.6053 247.917 31.372 247.51C31.1453 247.103 31.032 246.647 31.032 246.14C31.032 245.627 31.1453 245.17 31.372 244.77C31.6053 244.37 31.9187 244.053 32.312 243.82C32.7053 243.587 33.1553 243.47 33.662 243.47C34.0753 243.47 34.442 243.56 34.762 243.74C35.0887 243.913 35.3553 244.167 35.562 244.5L35.412 244.78V243.59H36.482V248.75C36.482 249.217 36.3687 249.633 36.142 250C35.922 250.373 35.6153 250.667 35.222 250.88C34.8287 251.093 34.3753 251.2 33.862 251.2ZM33.802 247.77C34.102 247.77 34.3687 247.7 34.602 247.56C34.8353 247.413 35.0187 247.22 35.152 246.98C35.292 246.733 35.362 246.457 35.362 246.15C35.362 245.843 35.292 245.567 35.152 245.32C35.012 245.073 34.8253 244.88 34.592 244.74C34.3587 244.593 34.0953 244.52 33.802 244.52C33.4953 244.52 33.222 244.593 32.982 244.74C32.742 244.88 32.552 245.073 32.412 245.32C32.2787 245.56 32.212 245.837 32.212 246.15C32.212 246.45 32.2787 246.723 32.412 246.97C32.552 247.217 32.742 247.413 32.982 247.56C33.222 247.7 33.4953 247.77 33.802 247.77ZM40.1347 249.12C39.7281 249.12 39.3714 249.03 39.0647 248.85C38.7581 248.663 38.5181 248.407 38.3447 248.08C38.1781 247.747 38.0947 247.363 38.0947 246.93V243.59H39.2247V246.83C39.2247 247.077 39.2747 247.293 39.3747 247.48C39.4747 247.667 39.6147 247.813 39.7947 247.92C39.9747 248.02 40.1814 248.07 40.4147 248.07C40.6547 248.07 40.8647 248.017 41.0447 247.91C41.2247 247.803 41.3647 247.653 41.4647 247.46C41.5714 247.267 41.6247 247.04 41.6247 246.78V243.59H42.7447V249H41.6747V247.94L41.7947 248.08C41.6681 248.413 41.4581 248.67 41.1647 248.85C40.8714 249.03 40.5281 249.12 40.1347 249.12ZM44.4641 249V241.43H45.5941V249H44.4641ZM48.9353 249.12C48.5686 249.12 48.2453 249.057 47.9653 248.93C47.6919 248.797 47.4786 248.617 47.3253 248.39C47.1719 248.157 47.0953 247.883 47.0953 247.57C47.0953 247.277 47.1586 247.013 47.2853 246.78C47.4186 246.547 47.6219 246.35 47.8953 246.19C48.1686 246.03 48.5119 245.917 48.9253 245.85L50.8053 245.54V246.43L49.1453 246.72C48.8453 246.773 48.6253 246.87 48.4853 247.01C48.3453 247.143 48.2753 247.317 48.2753 247.53C48.2753 247.737 48.3519 247.907 48.5053 248.04C48.6653 248.167 48.8686 248.23 49.1153 248.23C49.4219 248.23 49.6886 248.163 49.9153 248.03C50.1486 247.897 50.3286 247.72 50.4553 247.5C50.5819 247.273 50.6453 247.023 50.6453 246.75V245.36C50.6453 245.093 50.5453 244.877 50.3453 244.71C50.1519 244.537 49.8919 244.45 49.5653 244.45C49.2653 244.45 49.0019 244.53 48.7753 244.69C48.5553 244.843 48.3919 245.043 48.2853 245.29L47.3453 244.82C47.4453 244.553 47.6086 244.32 47.8353 244.12C48.0619 243.913 48.3253 243.753 48.6253 243.64C48.9319 243.527 49.2553 243.47 49.5953 243.47C50.0219 243.47 50.3986 243.55 50.7253 243.71C51.0586 243.87 51.3153 244.093 51.4953 244.38C51.6819 244.66 51.7753 244.987 51.7753 245.36V249H50.6953V248.02L50.9253 248.05C50.7986 248.27 50.6353 248.46 50.4353 248.62C50.2419 248.78 50.0186 248.903 49.7653 248.99C49.5186 249.077 49.2419 249.12 48.9353 249.12ZM53.4965 249V243.59H54.5765V244.68L54.4765 244.52C54.5965 244.167 54.7899 243.913 55.0565 243.76C55.3232 243.6 55.6432 243.52 56.0165 243.52H56.3465V244.55H55.8765C55.5032 244.55 55.1999 244.667 54.9665 244.9C54.7399 245.127 54.6265 245.453 54.6265 245.88V249H53.4965ZM57.4092 250.47V249.92C57.6292 249.867 57.7992 249.763 57.9192 249.61C58.0392 249.463 58.1125 249.26 58.1392 249H57.6092V247.7H58.7592V248.55C58.7592 249.083 58.6458 249.513 58.4192 249.84C58.1925 250.167 57.8558 250.377 57.4092 250.47ZM64.0485 249V242.55H62.6185V241.55H65.2185V249H64.0485ZM67.1045 249V248.15L69.1445 245.97C69.5445 245.543 69.8578 245.2 70.0845 244.94C70.3178 244.673 70.4845 244.44 70.5845 244.24C70.6912 244.04 70.7445 243.83 70.7445 243.61C70.7445 243.25 70.6345 242.973 70.4145 242.78C70.1945 242.58 69.9112 242.48 69.5645 242.48C69.2045 242.48 68.8945 242.583 68.6345 242.79C68.3745 242.99 68.1945 243.283 68.0945 243.67L67.0545 243.37C67.1345 242.977 67.2945 242.637 67.5345 242.35C67.7745 242.057 68.0678 241.83 68.4145 241.67C68.7678 241.51 69.1478 241.43 69.5545 241.43C70.0278 241.43 70.4412 241.52 70.7945 241.7C71.1478 241.873 71.4212 242.117 71.6145 242.43C71.8145 242.743 71.9145 243.107 71.9145 243.52C71.9145 243.793 71.8612 244.06 71.7545 244.32C71.6545 244.573 71.4978 244.843 71.2845 245.13C71.0712 245.41 70.7978 245.727 70.4645 246.08L68.6645 248H72.0545V249H67.1045Z" fill="white"/>
</svg>
