<svg width="586" height="174" viewBox="0 0 586 174" fill="none" xmlns="http://www.w3.org/2000/svg">
<path d="M161.532 22V8.59H163.656V14.494H169.866V8.59H171.972V22H169.866V16.384H163.656V22H161.532ZM179.844 22.216C178.872 22.216 178.008 21.994 177.252 21.55C176.508 21.094 175.926 20.482 175.506 19.714C175.086 18.934 174.876 18.064 174.876 17.104C174.876 16.12 175.086 15.25 175.506 14.494C175.938 13.738 176.514 13.144 177.234 12.712C177.954 12.268 178.77 12.046 179.682 12.046C180.414 12.046 181.068 12.172 181.644 12.424C182.22 12.676 182.706 13.024 183.102 13.468C183.498 13.9 183.798 14.398 184.002 14.962C184.218 15.526 184.326 16.126 184.326 16.762C184.326 16.918 184.32 17.08 184.308 17.248C184.296 17.416 184.272 17.572 184.236 17.716H176.478V16.096H183.084L182.112 16.834C182.232 16.246 182.19 15.724 181.986 15.268C181.794 14.8 181.494 14.434 181.086 14.17C180.69 13.894 180.222 13.756 179.682 13.756C179.142 13.756 178.662 13.894 178.242 14.17C177.822 14.434 177.498 14.818 177.27 15.322C177.042 15.814 176.952 16.414 177 17.122C176.94 17.782 177.03 18.358 177.27 18.85C177.522 19.342 177.87 19.726 178.314 20.002C178.77 20.278 179.286 20.416 179.862 20.416C180.45 20.416 180.948 20.284 181.356 20.02C181.776 19.756 182.106 19.414 182.346 18.994L184.002 19.804C183.81 20.26 183.51 20.674 183.102 21.046C182.706 21.406 182.226 21.694 181.662 21.91C181.11 22.114 180.504 22.216 179.844 22.216ZM189.86 22.216C189.2 22.216 188.618 22.102 188.114 21.874C187.622 21.634 187.238 21.31 186.962 20.902C186.686 20.482 186.548 19.99 186.548 19.426C186.548 18.898 186.662 18.424 186.89 18.004C187.13 17.584 187.496 17.23 187.988 16.942C188.48 16.654 189.098 16.45 189.842 16.33L193.226 15.772V17.374L190.238 17.896C189.698 17.992 189.302 18.166 189.05 18.418C188.798 18.658 188.672 18.97 188.672 19.354C188.672 19.726 188.81 20.032 189.086 20.272C189.374 20.5 189.74 20.614 190.184 20.614C190.736 20.614 191.216 20.494 191.624 20.254C192.044 20.014 192.368 19.696 192.596 19.3C192.824 18.892 192.938 18.442 192.938 17.95V15.448C192.938 14.968 192.758 14.578 192.398 14.278C192.05 13.966 191.582 13.81 190.994 13.81C190.454 13.81 189.98 13.954 189.572 14.242C189.176 14.518 188.882 14.878 188.69 15.322L186.998 14.476C187.178 13.996 187.472 13.576 187.88 13.216C188.288 12.844 188.762 12.556 189.302 12.352C189.854 12.148 190.436 12.046 191.048 12.046C191.816 12.046 192.494 12.19 193.082 12.478C193.682 12.766 194.144 13.168 194.468 13.684C194.804 14.188 194.972 14.776 194.972 15.448V22H193.028V20.236L193.442 20.29C193.214 20.686 192.92 21.028 192.56 21.316C192.212 21.604 191.81 21.826 191.354 21.982C190.91 22.138 190.412 22.216 189.86 22.216ZM202.57 22.216C201.634 22.216 200.794 21.994 200.05 21.55C199.318 21.094 198.736 20.482 198.304 19.714C197.884 18.946 197.674 18.082 197.674 17.122C197.674 16.162 197.89 15.298 198.322 14.53C198.754 13.762 199.336 13.156 200.068 12.712C200.8 12.268 201.628 12.046 202.552 12.046C203.332 12.046 204.022 12.202 204.622 12.514C205.222 12.826 205.696 13.258 206.044 13.81L205.738 14.278V8.374H207.754V22H205.828V20.02L206.062 20.398C205.726 20.986 205.246 21.436 204.622 21.748C203.998 22.06 203.314 22.216 202.57 22.216ZM202.768 20.326C203.332 20.326 203.836 20.188 204.28 19.912C204.736 19.636 205.09 19.258 205.342 18.778C205.606 18.286 205.738 17.734 205.738 17.122C205.738 16.51 205.606 15.964 205.342 15.484C205.09 15.004 204.736 14.626 204.28 14.35C203.836 14.074 203.332 13.936 202.768 13.936C202.204 13.936 201.694 14.074 201.238 14.35C200.782 14.626 200.428 15.004 200.176 15.484C199.924 15.964 199.798 16.51 199.798 17.122C199.798 17.734 199.924 18.286 200.176 18.778C200.428 19.258 200.776 19.636 201.22 19.912C201.676 20.188 202.192 20.326 202.768 20.326ZM210.848 22V12.262H212.882V22H210.848ZM210.848 10.93V8.59H212.882V10.93H210.848ZM215.981 22V12.262H217.925V14.17L217.691 13.918C217.931 13.306 218.315 12.844 218.843 12.532C219.371 12.208 219.983 12.046 220.679 12.046C221.399 12.046 222.035 12.202 222.587 12.514C223.139 12.826 223.571 13.258 223.883 13.81C224.195 14.362 224.351 14.998 224.351 15.718V22H222.335V16.258C222.335 15.766 222.245 15.352 222.065 15.016C221.885 14.668 221.627 14.404 221.291 14.224C220.967 14.032 220.595 13.936 220.175 13.936C219.755 13.936 219.377 14.032 219.041 14.224C218.717 14.404 218.465 14.668 218.285 15.016C218.105 15.364 218.015 15.778 218.015 16.258V22H215.981ZM231.945 25.96C231.237 25.96 230.583 25.846 229.983 25.618C229.383 25.39 228.867 25.072 228.435 24.664C228.003 24.268 227.679 23.8 227.463 23.26L229.335 22.486C229.503 22.942 229.809 23.32 230.253 23.62C230.709 23.92 231.267 24.07 231.927 24.07C232.443 24.07 232.905 23.968 233.313 23.764C233.721 23.572 234.045 23.284 234.285 22.9C234.525 22.528 234.645 22.078 234.645 21.55V19.354L235.005 19.768C234.669 20.392 234.201 20.866 233.601 21.19C233.013 21.514 232.347 21.676 231.603 21.676C230.703 21.676 229.893 21.466 229.173 21.046C228.453 20.626 227.883 20.05 227.463 19.318C227.055 18.586 226.851 17.764 226.851 16.852C226.851 15.928 227.055 15.106 227.463 14.386C227.883 13.666 228.447 13.096 229.155 12.676C229.863 12.256 230.673 12.046 231.585 12.046C232.329 12.046 232.989 12.208 233.565 12.532C234.153 12.844 234.633 13.3 235.005 13.9L234.735 14.404V12.262H236.661V21.55C236.661 22.39 236.457 23.14 236.049 23.8C235.653 24.472 235.101 25 234.393 25.384C233.685 25.768 232.869 25.96 231.945 25.96ZM231.837 19.786C232.377 19.786 232.857 19.66 233.277 19.408C233.697 19.144 234.027 18.796 234.267 18.364C234.519 17.92 234.645 17.422 234.645 16.87C234.645 16.318 234.519 15.82 234.267 15.376C234.015 14.932 233.679 14.584 233.259 14.332C232.839 14.068 232.365 13.936 231.837 13.936C231.285 13.936 230.793 14.068 230.361 14.332C229.929 14.584 229.587 14.932 229.335 15.376C229.095 15.808 228.975 16.306 228.975 16.87C228.975 17.41 229.095 17.902 229.335 18.346C229.587 18.79 229.929 19.144 230.361 19.408C230.793 19.66 231.285 19.786 231.837 19.786Z" fill="white" fill-opacity="0.9"/>
<path d="M165.796 94.192C165.05 94.192 164.356 94.0533 163.716 93.776C163.076 93.488 162.532 93.0987 162.084 92.608C161.636 92.1173 161.306 91.552 161.092 90.912L162.692 90.24C162.98 90.976 163.402 91.5413 163.956 91.936C164.511 92.3307 165.151 92.528 165.876 92.528C166.303 92.528 166.676 92.464 166.996 92.336C167.316 92.1973 167.562 92.0053 167.732 91.76C167.914 91.5147 168.004 91.232 168.004 90.912C168.004 90.4747 167.882 90.128 167.636 89.872C167.391 89.616 167.028 89.4133 166.548 89.264L164.308 88.56C163.412 88.2827 162.73 87.8613 162.26 87.296C161.791 86.72 161.556 86.048 161.556 85.28C161.556 84.608 161.722 84.0213 162.052 83.52C162.383 83.008 162.836 82.608 163.412 82.32C163.999 82.032 164.666 81.888 165.412 81.888C166.127 81.888 166.778 82.016 167.364 82.272C167.951 82.5173 168.452 82.8587 168.868 83.296C169.295 83.7333 169.604 84.24 169.796 84.816L168.228 85.504C167.994 84.8747 167.626 84.3893 167.124 84.048C166.634 83.7067 166.063 83.536 165.412 83.536C165.018 83.536 164.671 83.6053 164.372 83.744C164.074 83.872 163.839 84.064 163.668 84.32C163.508 84.5653 163.428 84.8533 163.428 85.184C163.428 85.568 163.551 85.9093 163.796 86.208C164.042 86.5067 164.415 86.7307 164.916 86.88L166.996 87.536C167.946 87.824 168.66 88.24 169.14 88.784C169.62 89.3173 169.86 89.984 169.86 90.784C169.86 91.4453 169.684 92.032 169.332 92.544C168.991 93.056 168.516 93.4613 167.908 93.76C167.3 94.048 166.596 94.192 165.796 94.192ZM175.532 94.192C174.881 94.192 174.31 94.048 173.82 93.76C173.329 93.4613 172.945 93.0507 172.668 92.528C172.401 91.9947 172.268 91.3813 172.268 90.688V85.344H174.076V90.528C174.076 90.9227 174.156 91.2693 174.316 91.568C174.476 91.8667 174.7 92.1013 174.988 92.272C175.276 92.432 175.606 92.512 175.98 92.512C176.364 92.512 176.7 92.4267 176.988 92.256C177.276 92.0853 177.5 91.8453 177.66 91.536C177.83 91.2267 177.916 90.864 177.916 90.448V85.344H179.708V94H177.996V92.304L178.188 92.528C177.985 93.0613 177.649 93.472 177.18 93.76C176.71 94.048 176.161 94.192 175.532 94.192ZM187.083 94.192C186.411 94.192 185.797 94.0533 185.243 93.776C184.699 93.4987 184.277 93.0987 183.979 92.576L184.187 92.24V94H182.459V81.888H184.267V87.136L183.979 86.72C184.299 86.2293 184.725 85.8453 185.259 85.568C185.792 85.2907 186.4 85.152 187.083 85.152C187.904 85.152 188.64 85.3493 189.291 85.744C189.952 86.1387 190.469 86.6773 190.843 87.36C191.227 88.0427 191.419 88.8107 191.419 89.664C191.419 90.5173 191.227 91.2853 190.843 91.968C190.469 92.6507 189.957 93.1947 189.307 93.6C188.656 93.9947 187.915 94.192 187.083 94.192ZM186.907 92.512C187.419 92.512 187.872 92.3893 188.267 92.144C188.661 91.8987 188.971 91.5627 189.195 91.136C189.429 90.6987 189.547 90.208 189.547 89.664C189.547 89.12 189.429 88.6347 189.195 88.208C188.971 87.7813 188.661 87.4453 188.267 87.2C187.872 86.9547 187.419 86.832 186.907 86.832C186.405 86.832 185.952 86.9547 185.547 87.2C185.152 87.4453 184.837 87.7813 184.603 88.208C184.379 88.6347 184.267 89.12 184.267 89.664C184.267 90.208 184.379 90.6987 184.603 91.136C184.837 91.5627 185.152 91.8987 185.547 92.144C185.952 92.3893 186.405 92.512 186.907 92.512ZM193.818 94V81.888H195.626V87.04L195.338 86.816C195.551 86.272 195.892 85.8613 196.362 85.584C196.831 85.296 197.375 85.152 197.994 85.152C198.634 85.152 199.199 85.2907 199.69 85.568C200.18 85.8453 200.564 86.2293 200.842 86.72C201.119 87.2107 201.258 87.7707 201.258 88.4V94H199.466V88.896C199.466 88.4587 199.38 88.0907 199.21 87.792C199.05 87.4827 198.826 87.248 198.538 87.088C198.25 86.9173 197.919 86.832 197.546 86.832C197.183 86.832 196.852 86.9173 196.554 87.088C196.266 87.248 196.036 87.4827 195.866 87.792C195.706 88.1013 195.626 88.4693 195.626 88.896V94H193.818ZM207.897 94.192C207.033 94.192 206.265 93.9947 205.593 93.6C204.931 93.1947 204.414 92.6507 204.041 91.968C203.667 91.2747 203.481 90.5013 203.481 89.648C203.481 88.7733 203.667 88 204.041 87.328C204.425 86.656 204.937 86.128 205.577 85.744C206.217 85.3493 206.942 85.152 207.753 85.152C208.403 85.152 208.985 85.264 209.497 85.488C210.009 85.712 210.441 86.0213 210.793 86.416C211.145 86.8 211.411 87.2427 211.593 87.744C211.785 88.2453 211.881 88.7787 211.881 89.344C211.881 89.4827 211.875 89.6267 211.865 89.776C211.854 89.9253 211.833 90.064 211.801 90.192H204.905V88.752H210.777L209.913 89.408C210.019 88.8853 209.982 88.4213 209.801 88.016C209.63 87.6 209.363 87.2747 209.001 87.04C208.649 86.7947 208.233 86.672 207.753 86.672C207.273 86.672 206.846 86.7947 206.473 87.04C206.099 87.2747 205.811 87.616 205.609 88.064C205.406 88.5013 205.326 89.0347 205.369 89.664C205.315 90.2507 205.395 90.7627 205.609 91.2C205.833 91.6373 206.142 91.9787 206.537 92.224C206.942 92.4693 207.401 92.592 207.913 92.592C208.435 92.592 208.878 92.4747 209.241 92.24C209.614 92.0053 209.907 91.7013 210.121 91.328L211.593 92.048C211.422 92.4533 211.155 92.8213 210.793 93.152C210.441 93.472 210.014 93.728 209.513 93.92C209.022 94.1013 208.483 94.192 207.897 94.192ZM216.799 94.192C216.212 94.192 215.695 94.0907 215.247 93.888C214.81 93.6747 214.468 93.3867 214.223 93.024C213.978 92.6507 213.855 92.2133 213.855 91.712C213.855 91.2427 213.956 90.8213 214.159 90.448C214.372 90.0747 214.698 89.76 215.135 89.504C215.572 89.248 216.122 89.0667 216.783 88.96L219.791 88.464V89.888L217.135 90.352C216.655 90.4373 216.303 90.592 216.079 90.816C215.855 91.0293 215.743 91.3067 215.743 91.648C215.743 91.9787 215.866 92.2507 216.111 92.464C216.367 92.6667 216.692 92.768 217.087 92.768C217.578 92.768 218.004 92.6613 218.367 92.448C218.74 92.2347 219.028 91.952 219.231 91.6C219.434 91.2373 219.535 90.8373 219.535 90.4V88.176C219.535 87.7493 219.375 87.4027 219.055 87.136C218.746 86.8587 218.33 86.72 217.807 86.72C217.327 86.72 216.906 86.848 216.543 87.104C216.191 87.3493 215.93 87.6693 215.759 88.064L214.255 87.312C214.415 86.8853 214.676 86.512 215.039 86.192C215.402 85.8613 215.823 85.6053 216.303 85.424C216.794 85.2427 217.311 85.152 217.855 85.152C218.538 85.152 219.14 85.28 219.663 85.536C220.196 85.792 220.607 86.1493 220.895 86.608C221.194 87.056 221.343 87.5787 221.343 88.176V94H219.615V92.432L219.983 92.48C219.78 92.832 219.519 93.136 219.199 93.392C218.89 93.648 218.532 93.8453 218.127 93.984C217.732 94.1227 217.29 94.192 216.799 94.192ZM228.097 94.192C227.265 94.192 226.518 93.9947 225.857 93.6C225.206 93.1947 224.689 92.6507 224.305 91.968C223.932 91.2853 223.745 90.5173 223.745 89.664C223.745 88.8107 223.937 88.0427 224.321 87.36C224.705 86.6773 225.222 86.1387 225.873 85.744C226.524 85.3493 227.26 85.152 228.081 85.152C228.774 85.152 229.388 85.2907 229.921 85.568C230.454 85.8453 230.876 86.2293 231.185 86.72L230.913 87.136V81.888H232.705V94H230.993V92.24L231.201 92.576C230.902 93.0987 230.476 93.4987 229.921 93.776C229.366 94.0533 228.758 94.192 228.097 94.192ZM228.273 92.512C228.774 92.512 229.222 92.3893 229.617 92.144C230.022 91.8987 230.337 91.5627 230.561 91.136C230.796 90.6987 230.913 90.208 230.913 89.664C230.913 89.12 230.796 88.6347 230.561 88.208C230.337 87.7813 230.022 87.4453 229.617 87.2C229.222 86.9547 228.774 86.832 228.273 86.832C227.772 86.832 227.318 86.9547 226.913 87.2C226.508 87.4453 226.193 87.7813 225.969 88.208C225.745 88.6347 225.633 89.12 225.633 89.664C225.633 90.208 225.745 90.6987 225.969 91.136C226.193 91.5627 226.502 91.8987 226.897 92.144C227.302 92.3893 227.761 92.512 228.273 92.512ZM235.456 94V85.344H237.264V94H235.456ZM235.456 84.16V82.08H237.264V84.16H235.456ZM240.018 94V85.344H241.746V87.04L241.538 86.816C241.751 86.272 242.092 85.8613 242.562 85.584C243.031 85.296 243.575 85.152 244.194 85.152C244.834 85.152 245.399 85.2907 245.89 85.568C246.38 85.8453 246.764 86.2293 247.042 86.72C247.319 87.2107 247.458 87.776 247.458 88.416V94H245.666V88.896C245.666 88.4587 245.586 88.0907 245.426 87.792C245.266 87.4827 245.036 87.248 244.738 87.088C244.45 86.9173 244.119 86.832 243.746 86.832C243.372 86.832 243.036 86.9173 242.738 87.088C242.45 87.248 242.226 87.4827 242.066 87.792C241.906 88.1013 241.826 88.4693 241.826 88.896V94H240.018ZM254.209 97.52C253.579 97.52 252.998 97.4187 252.465 97.216C251.931 97.0133 251.473 96.7307 251.089 96.368C250.705 96.016 250.417 95.6 250.225 95.12L251.889 94.432C252.038 94.8373 252.31 95.1733 252.705 95.44C253.11 95.7067 253.606 95.84 254.193 95.84C254.651 95.84 255.062 95.7493 255.425 95.568C255.787 95.3973 256.075 95.1413 256.289 94.8C256.502 94.4693 256.609 94.0693 256.609 93.6V91.648L256.929 92.016C256.63 92.5707 256.214 92.992 255.681 93.28C255.158 93.568 254.566 93.712 253.905 93.712C253.105 93.712 252.385 93.5253 251.745 93.152C251.105 92.7787 250.598 92.2667 250.225 91.616C249.862 90.9653 249.681 90.2347 249.681 89.424C249.681 88.6027 249.862 87.872 250.225 87.232C250.598 86.592 251.099 86.0853 251.729 85.712C252.358 85.3387 253.078 85.152 253.889 85.152C254.55 85.152 255.137 85.296 255.649 85.584C256.171 85.8613 256.598 86.2667 256.929 86.8L256.689 87.248V85.344H258.401V93.6C258.401 94.3467 258.219 95.0133 257.857 95.6C257.505 96.1973 257.014 96.6667 256.385 97.008C255.755 97.3493 255.03 97.52 254.209 97.52ZM254.113 92.032C254.593 92.032 255.019 91.92 255.393 91.696C255.766 91.4613 256.059 91.152 256.273 90.768C256.497 90.3733 256.609 89.9307 256.609 89.44C256.609 88.9493 256.497 88.5067 256.273 88.112C256.049 87.7173 255.75 87.408 255.377 87.184C255.003 86.9493 254.582 86.832 254.113 86.832C253.622 86.832 253.185 86.9493 252.801 87.184C252.417 87.408 252.113 87.7173 251.889 88.112C251.675 88.496 251.569 88.9387 251.569 89.44C251.569 89.92 251.675 90.3573 251.889 90.752C252.113 91.1467 252.417 91.4613 252.801 91.696C253.185 91.92 253.622 92.032 254.113 92.032ZM263.714 95.92L269.058 82.72H271.058L265.714 95.92H263.714ZM276.55 94V82.08H281.574C282.32 82.08 282.966 82.2133 283.51 82.48C284.054 82.736 284.47 83.1093 284.758 83.6C285.046 84.08 285.19 84.6507 285.19 85.312C285.19 85.888 285.04 86.416 284.742 86.896C284.454 87.3653 284 87.7387 283.382 88.016V87.216C283.926 87.4293 284.368 87.7013 284.71 88.032C285.051 88.352 285.296 88.7147 285.446 89.12C285.606 89.5253 285.686 89.952 285.686 90.4C285.686 91.52 285.318 92.4 284.582 93.04C283.856 93.68 282.859 94 281.59 94H276.55ZM278.438 92.32H281.734C282.363 92.32 282.864 92.1493 283.238 91.808C283.611 91.456 283.798 90.992 283.798 90.416C283.798 89.8293 283.611 89.3653 283.238 89.024C282.864 88.672 282.363 88.496 281.734 88.496H278.438V92.32ZM278.438 86.832H281.622C282.134 86.832 282.544 86.688 282.854 86.4C283.163 86.1013 283.318 85.712 283.318 85.232C283.318 84.752 283.163 84.3787 282.854 84.112C282.544 83.8453 282.134 83.712 281.622 83.712H278.438V86.832ZM291.18 94.192C290.529 94.192 289.959 94.048 289.468 93.76C288.977 93.4613 288.593 93.0507 288.316 92.528C288.049 91.9947 287.916 91.3813 287.916 90.688V85.344H289.724V90.528C289.724 90.9227 289.804 91.2693 289.964 91.568C290.124 91.8667 290.348 92.1013 290.636 92.272C290.924 92.432 291.255 92.512 291.628 92.512C292.012 92.512 292.348 92.4267 292.636 92.256C292.924 92.0853 293.148 91.8453 293.308 91.536C293.479 91.2267 293.564 90.864 293.564 90.448V85.344H295.356V94H293.644V92.304L293.836 92.528C293.633 93.0613 293.297 93.472 292.828 93.76C292.359 94.048 291.809 94.192 291.18 94.192ZM301.851 94.096C300.944 94.096 300.24 93.84 299.739 93.328C299.238 92.816 298.987 92.096 298.987 91.168V86.976H297.467V85.344H297.707C298.112 85.344 298.427 85.2267 298.651 84.992C298.875 84.7573 298.987 84.4373 298.987 84.032V83.36H300.795V85.344H302.763V86.976H300.795V91.088C300.795 91.3867 300.843 91.6427 300.939 91.856C301.035 92.0587 301.19 92.2187 301.403 92.336C301.616 92.4427 301.894 92.496 302.235 92.496C302.32 92.496 302.416 92.4907 302.523 92.48C302.63 92.4693 302.731 92.4587 302.827 92.448V94C302.678 94.0213 302.512 94.0427 302.331 94.064C302.15 94.0853 301.99 94.096 301.851 94.096ZM308.975 94.096C308.069 94.096 307.365 93.84 306.863 93.328C306.362 92.816 306.111 92.096 306.111 91.168V86.976H304.591V85.344H304.831C305.237 85.344 305.551 85.2267 305.775 84.992C305.999 84.7573 306.111 84.4373 306.111 84.032V83.36H307.919V85.344H309.887V86.976H307.919V91.088C307.919 91.3867 307.967 91.6427 308.063 91.856C308.159 92.0587 308.314 92.2187 308.527 92.336C308.741 92.4427 309.018 92.496 309.359 92.496C309.445 92.496 309.541 92.4907 309.647 92.48C309.754 92.4693 309.855 92.4587 309.951 92.448V94C309.802 94.0213 309.637 94.0427 309.455 94.064C309.274 94.0853 309.114 94.096 308.975 94.096ZM316.375 94.192C315.543 94.192 314.781 93.9947 314.087 93.6C313.405 93.2053 312.861 92.6667 312.455 91.984C312.05 91.3013 311.847 90.528 311.847 89.664C311.847 88.7893 312.05 88.016 312.455 87.344C312.861 86.6613 313.405 86.128 314.087 85.744C314.77 85.3493 315.533 85.152 316.375 85.152C317.229 85.152 317.991 85.3493 318.663 85.744C319.346 86.128 319.885 86.6613 320.279 87.344C320.685 88.016 320.887 88.7893 320.887 89.664C320.887 90.5387 320.685 91.3173 320.279 92C319.874 92.6827 319.33 93.2213 318.647 93.616C317.965 94 317.207 94.192 316.375 94.192ZM316.375 92.512C316.887 92.512 317.341 92.3893 317.735 92.144C318.13 91.8987 318.439 91.5627 318.663 91.136C318.898 90.6987 319.015 90.208 319.015 89.664C319.015 89.12 318.898 88.6347 318.663 88.208C318.439 87.7813 318.13 87.4453 317.735 87.2C317.341 86.9547 316.887 86.832 316.375 86.832C315.874 86.832 315.421 86.9547 315.015 87.2C314.621 87.4453 314.306 87.7813 314.071 88.208C313.847 88.6347 313.735 89.12 313.735 89.664C313.735 90.208 313.847 90.6987 314.071 91.136C314.306 91.5627 314.621 91.8987 315.015 92.144C315.421 92.3893 315.874 92.512 316.375 92.512ZM323.293 94V85.344H325.021V87.04L324.813 86.816C325.026 86.272 325.367 85.8613 325.837 85.584C326.306 85.296 326.85 85.152 327.469 85.152C328.109 85.152 328.674 85.2907 329.165 85.568C329.655 85.8453 330.039 86.2293 330.317 86.72C330.594 87.2107 330.733 87.776 330.733 88.416V94H328.941V88.896C328.941 88.4587 328.861 88.0907 328.701 87.792C328.541 87.4827 328.311 87.248 328.013 87.088C327.725 86.9173 327.394 86.832 327.021 86.832C326.647 86.832 326.311 86.9173 326.013 87.088C325.725 87.248 325.501 87.4827 325.341 87.792C325.181 88.1013 325.101 88.4693 325.101 88.896V94H323.293Z" fill="white" fill-opacity="0.9"/>
<path d="M161.163 165V154.57H162.703L166.623 160.002H165.853L169.703 154.57H171.243V165H169.605V156.516L170.221 156.684L166.287 162.06H166.119L162.269 156.684L162.815 156.516V165H161.163ZM177.361 165.168C176.605 165.168 175.933 164.995 175.345 164.65C174.766 164.295 174.314 163.819 173.987 163.222C173.66 162.615 173.497 161.939 173.497 161.192C173.497 160.427 173.66 159.75 173.987 159.162C174.323 158.574 174.771 158.112 175.331 157.776C175.891 157.431 176.526 157.258 177.235 157.258C177.804 157.258 178.313 157.356 178.761 157.552C179.209 157.748 179.587 158.019 179.895 158.364C180.203 158.7 180.436 159.087 180.595 159.526C180.763 159.965 180.847 160.431 180.847 160.926C180.847 161.047 180.842 161.173 180.833 161.304C180.824 161.435 180.805 161.556 180.777 161.668H174.743V160.408H179.881L179.125 160.982C179.218 160.525 179.186 160.119 179.027 159.764C178.878 159.4 178.644 159.115 178.327 158.91C178.019 158.695 177.655 158.588 177.235 158.588C176.815 158.588 176.442 158.695 176.115 158.91C175.788 159.115 175.536 159.414 175.359 159.806C175.182 160.189 175.112 160.655 175.149 161.206C175.102 161.719 175.172 162.167 175.359 162.55C175.555 162.933 175.826 163.231 176.171 163.446C176.526 163.661 176.927 163.768 177.375 163.768C177.832 163.768 178.22 163.665 178.537 163.46C178.864 163.255 179.12 162.989 179.307 162.662L180.595 163.292C180.446 163.647 180.212 163.969 179.895 164.258C179.587 164.538 179.214 164.762 178.775 164.93C178.346 165.089 177.874 165.168 177.361 165.168ZM186.451 165.168C185.723 165.168 185.07 164.995 184.491 164.65C183.922 164.295 183.469 163.819 183.133 163.222C182.806 162.625 182.643 161.953 182.643 161.206C182.643 160.459 182.811 159.787 183.147 159.19C183.483 158.593 183.936 158.121 184.505 157.776C185.074 157.431 185.718 157.258 186.437 157.258C187.044 157.258 187.58 157.379 188.047 157.622C188.514 157.865 188.882 158.201 189.153 158.63L188.915 158.994V154.402H190.483V165H188.985V163.46L189.167 163.754C188.906 164.211 188.532 164.561 188.047 164.804C187.562 165.047 187.03 165.168 186.451 165.168ZM186.605 163.698C187.044 163.698 187.436 163.591 187.781 163.376C188.136 163.161 188.411 162.867 188.607 162.494C188.812 162.111 188.915 161.682 188.915 161.206C188.915 160.73 188.812 160.305 188.607 159.932C188.411 159.559 188.136 159.265 187.781 159.05C187.436 158.835 187.044 158.728 186.605 158.728C186.166 158.728 185.77 158.835 185.415 159.05C185.06 159.265 184.785 159.559 184.589 159.932C184.393 160.305 184.295 160.73 184.295 161.206C184.295 161.682 184.393 162.111 184.589 162.494C184.785 162.867 185.056 163.161 185.401 163.376C185.756 163.591 186.157 163.698 186.605 163.698ZM192.89 165V157.426H194.472V165H192.89ZM192.89 156.39V154.57H194.472V156.39H192.89ZM199.584 165.168C199.014 165.168 198.515 165.042 198.086 164.79C197.656 164.529 197.32 164.169 197.078 163.712C196.844 163.245 196.728 162.709 196.728 162.102V157.426H198.31V161.962C198.31 162.307 198.38 162.611 198.52 162.872C198.66 163.133 198.856 163.339 199.108 163.488C199.36 163.628 199.649 163.698 199.976 163.698C200.312 163.698 200.606 163.623 200.858 163.474C201.11 163.325 201.306 163.115 201.446 162.844C201.595 162.573 201.67 162.256 201.67 161.892V157.426H203.238V165H201.74V163.516L201.908 163.712C201.73 164.179 201.436 164.538 201.026 164.79C200.615 165.042 200.134 165.168 199.584 165.168ZM205.645 165V157.426H207.157V159.064L206.961 158.812C207.119 158.299 207.409 157.911 207.829 157.65C208.249 157.389 208.729 157.258 209.271 157.258C209.877 157.258 210.414 157.421 210.881 157.748C211.357 158.065 211.674 158.49 211.833 159.022L211.385 159.064C211.609 158.457 211.949 158.005 212.407 157.706C212.873 157.407 213.405 157.258 214.003 157.258C214.525 157.258 214.997 157.379 215.417 157.622C215.846 157.865 216.187 158.201 216.439 158.63C216.691 159.059 216.817 159.549 216.817 160.1V165H215.235V160.534C215.235 160.151 215.165 159.829 215.025 159.568C214.894 159.297 214.707 159.092 214.465 158.952C214.231 158.803 213.956 158.728 213.639 158.728C213.321 158.728 213.041 158.803 212.799 158.952C212.556 159.092 212.365 159.297 212.225 159.568C212.085 159.839 212.015 160.161 212.015 160.534V165H210.447V160.534C210.447 160.151 210.377 159.829 210.237 159.568C210.106 159.297 209.919 159.092 209.677 158.952C209.443 158.803 209.163 158.728 208.837 158.728C208.519 158.728 208.239 158.803 207.997 158.952C207.754 159.092 207.563 159.297 207.423 159.568C207.292 159.839 207.227 160.161 207.227 160.534V165H205.645ZM224.079 165V156.04H221.307V154.57H228.447V156.04H225.717V165H224.079ZM232.66 165.168C231.904 165.168 231.232 164.995 230.644 164.65C230.065 164.295 229.613 163.819 229.286 163.222C228.959 162.615 228.796 161.939 228.796 161.192C228.796 160.427 228.959 159.75 229.286 159.162C229.622 158.574 230.07 158.112 230.63 157.776C231.19 157.431 231.825 157.258 232.534 157.258C233.103 157.258 233.612 157.356 234.06 157.552C234.508 157.748 234.886 158.019 235.194 158.364C235.502 158.7 235.735 159.087 235.894 159.526C236.062 159.965 236.146 160.431 236.146 160.926C236.146 161.047 236.141 161.173 236.132 161.304C236.123 161.435 236.104 161.556 236.076 161.668H230.042V160.408H235.18L234.424 160.982C234.517 160.525 234.485 160.119 234.326 159.764C234.177 159.4 233.943 159.115 233.626 158.91C233.318 158.695 232.954 158.588 232.534 158.588C232.114 158.588 231.741 158.695 231.414 158.91C231.087 159.115 230.835 159.414 230.658 159.806C230.481 160.189 230.411 160.655 230.448 161.206C230.401 161.719 230.471 162.167 230.658 162.55C230.854 162.933 231.125 163.231 231.47 163.446C231.825 163.661 232.226 163.768 232.674 163.768C233.131 163.768 233.519 163.665 233.836 163.46C234.163 163.255 234.419 162.989 234.606 162.662L235.894 163.292C235.745 163.647 235.511 163.969 235.194 164.258C234.886 164.538 234.513 164.762 234.074 164.93C233.645 165.089 233.173 165.168 232.66 165.168ZM237.357 165L240.003 161.206L237.357 157.426H239.219L241.389 160.59H240.493L242.663 157.426H244.525L241.865 161.206L244.511 165H242.649L240.507 161.822H241.375L239.219 165H237.357ZM249.441 165.084C248.648 165.084 248.032 164.86 247.593 164.412C247.155 163.964 246.935 163.334 246.935 162.522V158.854H245.605V157.426H245.815C246.17 157.426 246.445 157.323 246.641 157.118C246.837 156.913 246.935 156.633 246.935 156.278V155.69H248.517V157.426H250.239V158.854H248.517V162.452C248.517 162.713 248.559 162.937 248.643 163.124C248.727 163.301 248.863 163.441 249.049 163.544C249.236 163.637 249.479 163.684 249.777 163.684C249.852 163.684 249.936 163.679 250.029 163.67C250.123 163.661 250.211 163.651 250.295 163.642V165C250.165 165.019 250.02 165.037 249.861 165.056C249.703 165.075 249.563 165.084 249.441 165.084Z" fill="white" fill-opacity="0.9"/>
<path d="M516.486 21V10.57H520.868C521.494 10.57 522.03 10.682 522.478 10.906C522.936 11.13 523.286 11.4473 523.528 11.858C523.78 12.2593 523.906 12.74 523.906 13.3C523.906 13.8133 523.771 14.28 523.5 14.7C523.239 15.1107 522.852 15.4327 522.338 15.666L522.324 15.148C522.772 15.316 523.141 15.54 523.43 15.82C523.729 16.0907 523.953 16.408 524.102 16.772C524.252 17.1267 524.326 17.5047 524.326 17.906C524.326 18.8673 524.018 19.6233 523.402 20.174C522.786 20.7247 521.946 21 520.882 21H516.486ZM517.858 19.74H520.938C521.545 19.74 522.03 19.5767 522.394 19.25C522.758 18.9233 522.94 18.48 522.94 17.92C522.94 17.36 522.758 16.9167 522.394 16.59C522.03 16.254 521.545 16.086 520.938 16.086H517.858V19.74ZM517.858 14.854H520.84C521.344 14.854 521.75 14.7093 522.058 14.42C522.366 14.1213 522.52 13.7433 522.52 13.286C522.52 12.81 522.366 12.446 522.058 12.194C521.75 11.942 521.344 11.816 520.84 11.816H517.858V14.854ZM530.17 21.168C529.442 21.168 528.784 21 528.196 20.664C527.608 20.3187 527.141 19.8473 526.796 19.25C526.45 18.6527 526.278 17.976 526.278 17.22C526.278 16.464 526.446 15.792 526.782 15.204C527.127 14.616 527.594 14.1493 528.182 13.804C528.77 13.4587 529.432 13.286 530.17 13.286C530.898 13.286 531.556 13.4587 532.144 13.804C532.732 14.14 533.194 14.602 533.53 15.19C533.875 15.778 534.048 16.4547 534.048 17.22C534.048 17.9853 533.87 18.6667 533.516 19.264C533.161 19.852 532.69 20.3187 532.102 20.664C531.523 21 530.879 21.168 530.17 21.168ZM530.17 19.908C530.636 19.908 531.056 19.7913 531.43 19.558C531.812 19.3247 532.111 19.0027 532.326 18.592C532.55 18.1813 532.662 17.724 532.662 17.22C532.662 16.7067 532.55 16.254 532.326 15.862C532.111 15.4607 531.812 15.1433 531.43 14.91C531.056 14.6673 530.636 14.546 530.17 14.546C529.694 14.546 529.264 14.6673 528.882 14.91C528.508 15.1433 528.21 15.4607 527.986 15.862C527.762 16.254 527.65 16.7067 527.65 17.22C527.65 17.724 527.762 18.1813 527.986 18.592C528.21 19.0027 528.508 19.3247 528.882 19.558C529.264 19.7913 529.694 19.908 530.17 19.908ZM539.736 21.168C539.027 21.168 538.387 20.9953 537.818 20.65C537.258 20.3047 536.815 19.8333 536.488 19.236C536.161 18.6387 535.998 17.9713 535.998 17.234C535.998 16.478 536.161 15.806 536.488 15.218C536.815 14.6207 537.258 14.1493 537.818 13.804C538.387 13.4587 539.027 13.286 539.736 13.286C540.361 13.286 540.917 13.4213 541.402 13.692C541.887 13.9533 542.27 14.308 542.55 14.756L542.34 15.078V10.402H543.656V21H542.382V19.39L542.55 19.614C542.289 20.1087 541.906 20.4913 541.402 20.762C540.907 21.0327 540.352 21.168 539.736 21.168ZM539.848 19.908C540.324 19.908 540.749 19.7913 541.122 19.558C541.495 19.3247 541.789 19.0073 542.004 18.606C542.228 18.1953 542.34 17.738 542.34 17.234C542.34 16.7207 542.228 16.2633 542.004 15.862C541.789 15.4513 541.495 15.1293 541.122 14.896C540.749 14.6627 540.324 14.546 539.848 14.546C539.381 14.546 538.957 14.6673 538.574 14.91C538.201 15.1433 537.907 15.4607 537.692 15.862C537.477 16.254 537.37 16.7113 537.37 17.234C537.37 17.738 537.477 18.1953 537.692 18.606C537.907 19.0073 538.201 19.3247 538.574 19.558C538.947 19.7913 539.372 19.908 539.848 19.908ZM546.637 24.08C546.469 24.08 546.301 24.066 546.133 24.038C545.965 24.0193 545.807 23.9773 545.657 23.912V22.75C545.76 22.7593 545.886 22.778 546.035 22.806C546.194 22.834 546.348 22.848 546.497 22.848C546.936 22.848 547.267 22.75 547.491 22.554C547.725 22.358 547.944 22.0267 548.149 21.56L548.625 20.426L548.597 21.56L545.377 13.454H546.791L549.297 19.894H548.877L551.369 13.454H552.811L549.409 21.896C549.251 22.2973 549.045 22.666 548.793 23.002C548.551 23.338 548.252 23.5993 547.897 23.786C547.543 23.982 547.123 24.08 546.637 24.08ZM559.483 21V11.83H556.655V10.57H563.655V11.83H560.869V21H559.483ZM567.871 21.168C567.143 21.168 566.495 20.9953 565.925 20.65C565.356 20.3047 564.908 19.8333 564.581 19.236C564.255 18.6293 564.091 17.9527 564.091 17.206C564.091 16.45 564.25 15.778 564.567 15.19C564.894 14.602 565.333 14.14 565.883 13.804C566.443 13.4587 567.069 13.286 567.759 13.286C568.319 13.286 568.814 13.3887 569.243 13.594C569.682 13.79 570.051 14.0607 570.349 14.406C570.657 14.742 570.891 15.1293 571.049 15.568C571.217 15.9973 571.301 16.4453 571.301 16.912C571.301 17.0147 571.292 17.1313 571.273 17.262C571.264 17.3833 571.25 17.5 571.231 17.612H565.043V16.492H570.475L569.859 16.996C569.943 16.5107 569.897 16.0767 569.719 15.694C569.542 15.3113 569.281 15.008 568.935 14.784C568.59 14.56 568.198 14.448 567.759 14.448C567.321 14.448 566.919 14.56 566.555 14.784C566.191 15.008 565.907 15.33 565.701 15.75C565.505 16.1607 565.426 16.6507 565.463 17.22C565.426 17.7707 565.51 18.256 565.715 18.676C565.93 19.0867 566.229 19.4087 566.611 19.642C567.003 19.866 567.428 19.978 567.885 19.978C568.389 19.978 568.814 19.8613 569.159 19.628C569.505 19.3947 569.785 19.096 569.999 18.732L571.091 19.292C570.942 19.6373 570.709 19.9547 570.391 20.244C570.083 20.524 569.715 20.748 569.285 20.916C568.865 21.084 568.394 21.168 567.871 21.168ZM572.568 21L575.214 17.22L572.582 13.454H574.15L576.404 16.73H575.606L577.832 13.454H579.414L576.782 17.22L579.4 21H577.832L575.606 17.724H576.39L574.164 21H572.568ZM584.199 21.084C583.461 21.084 582.892 20.874 582.491 20.454C582.099 20.034 581.903 19.4413 581.903 18.676V14.7H580.531V13.454H580.811C581.147 13.454 581.413 13.3513 581.609 13.146C581.805 12.9407 581.903 12.67 581.903 12.334V11.718H583.205V13.454H584.899V14.7H583.205V18.634C583.205 18.886 583.242 19.1053 583.317 19.292C583.401 19.4787 583.536 19.628 583.723 19.74C583.909 19.8427 584.157 19.894 584.465 19.894C584.53 19.894 584.609 19.8893 584.703 19.88C584.805 19.8707 584.899 19.8613 584.983 19.852V21C584.861 21.028 584.726 21.0467 584.577 21.056C584.427 21.0747 584.301 21.084 584.199 21.084Z" fill="white" fill-opacity="0.9"/>
<path d="M516.475 91V82.06H519.415C520.303 82.06 521.075 82.244 521.731 82.612C522.387 82.972 522.895 83.488 523.255 84.16C523.615 84.824 523.795 85.612 523.795 86.524C523.795 87.428 523.615 88.216 523.255 88.888C522.895 89.56 522.387 90.08 521.731 90.448C521.075 90.816 520.303 91 519.415 91H516.475ZM517.435 90.1H519.415C520.103 90.1 520.699 89.956 521.203 89.668C521.707 89.372 522.095 88.956 522.367 88.42C522.647 87.884 522.787 87.252 522.787 86.524C522.787 85.796 522.647 85.168 522.367 84.64C522.087 84.104 521.695 83.692 521.191 83.404C520.687 83.108 520.095 82.96 519.415 82.96H517.435V90.1ZM528.658 91.144C528.058 91.144 527.514 91 527.026 90.712C526.546 90.416 526.166 90.012 525.886 89.5C525.606 88.988 525.466 88.408 525.466 87.76C525.466 87.112 525.602 86.54 525.874 86.044C526.146 85.54 526.514 85.144 526.978 84.856C527.45 84.568 527.978 84.424 528.562 84.424C529.026 84.424 529.438 84.512 529.798 84.688C530.166 84.856 530.478 85.088 530.734 85.384C530.99 85.672 531.186 86 531.322 86.368C531.458 86.728 531.526 87.1 531.526 87.484C531.526 87.564 531.522 87.656 531.514 87.76C531.506 87.856 531.494 87.956 531.478 88.06H526.042V87.22H530.962L530.53 87.58C530.602 87.14 530.55 86.748 530.374 86.404C530.206 86.052 529.962 85.776 529.642 85.576C529.322 85.368 528.962 85.264 528.562 85.264C528.162 85.264 527.79 85.368 527.446 85.576C527.11 85.784 526.846 86.076 526.654 86.452C526.462 86.82 526.386 87.26 526.426 87.772C526.386 88.284 526.466 88.732 526.666 89.116C526.874 89.492 527.154 89.784 527.506 89.992C527.866 90.2 528.25 90.304 528.658 90.304C529.13 90.304 529.526 90.192 529.846 89.968C530.166 89.744 530.426 89.464 530.626 89.128L531.394 89.536C531.266 89.824 531.07 90.092 530.806 90.34C530.542 90.58 530.226 90.776 529.858 90.928C529.498 91.072 529.098 91.144 528.658 91.144ZM536.052 91.072C535.476 91.072 535.032 90.904 534.72 90.568C534.408 90.232 534.252 89.752 534.252 89.128V85.468H533.064V84.568H533.364C533.636 84.568 533.852 84.48 534.012 84.304C534.172 84.12 534.252 83.892 534.252 83.62V83.08H535.152V84.568H536.568V85.468H535.152V89.128C535.152 89.344 535.184 89.536 535.248 89.704C535.312 89.864 535.42 89.992 535.572 90.088C535.732 90.184 535.944 90.232 536.208 90.232C536.272 90.232 536.348 90.228 536.436 90.22C536.524 90.212 536.6 90.204 536.664 90.196V91C536.568 91.024 536.46 91.04 536.34 91.048C536.22 91.064 536.124 91.072 536.052 91.072ZM540.468 91.144C540.06 91.144 539.696 91.068 539.376 90.916C539.056 90.756 538.804 90.54 538.62 90.268C538.436 89.996 538.344 89.684 538.344 89.332C538.344 88.996 538.416 88.692 538.56 88.42C538.704 88.14 538.928 87.904 539.232 87.712C539.536 87.52 539.924 87.384 540.396 87.304L542.916 86.884V87.7L540.612 88.084C540.148 88.164 539.812 88.312 539.604 88.528C539.404 88.744 539.304 89 539.304 89.296C539.304 89.584 539.416 89.828 539.64 90.028C539.872 90.228 540.168 90.328 540.528 90.328C540.968 90.328 541.352 90.236 541.68 90.052C542.008 89.86 542.264 89.604 542.448 89.284C542.632 88.964 542.724 88.608 542.724 88.216V86.584C542.724 86.2 542.584 85.888 542.304 85.648C542.024 85.408 541.66 85.288 541.212 85.288C540.82 85.288 540.476 85.388 540.18 85.588C539.884 85.78 539.664 86.032 539.52 86.344L538.704 85.9C538.824 85.628 539.012 85.38 539.268 85.156C539.532 84.932 539.832 84.756 540.168 84.628C540.504 84.492 540.852 84.424 541.212 84.424C541.684 84.424 542.1 84.516 542.46 84.7C542.828 84.884 543.112 85.14 543.312 85.468C543.52 85.788 543.624 86.16 543.624 86.584V91H542.724V89.716L542.856 89.848C542.744 90.088 542.568 90.308 542.328 90.508C542.096 90.7 541.82 90.856 541.5 90.976C541.188 91.088 540.844 91.144 540.468 91.144ZM545.955 91V84.568H546.855V91H545.955ZM545.955 83.38V82.06H546.855V83.38H545.955ZM549.177 91V81.916H550.077V91H549.177ZM554.631 91.144C554.015 91.144 553.475 90.988 553.011 90.676C552.547 90.364 552.211 89.94 552.003 89.404L552.759 89.044C552.943 89.436 553.199 89.748 553.527 89.98C553.863 90.212 554.231 90.328 554.631 90.328C555.015 90.328 555.339 90.236 555.603 90.052C555.867 89.86 555.999 89.612 555.999 89.308C555.999 89.084 555.935 88.908 555.807 88.78C555.679 88.644 555.531 88.54 555.363 88.468C555.195 88.396 555.047 88.344 554.919 88.312L553.995 88.048C553.403 87.88 552.975 87.644 552.711 87.34C552.447 87.036 552.315 86.684 552.315 86.284C552.315 85.908 552.411 85.58 552.603 85.3C552.795 85.02 553.055 84.804 553.383 84.652C553.711 84.5 554.075 84.424 554.475 84.424C555.019 84.424 555.511 84.568 555.951 84.856C556.399 85.136 556.715 85.528 556.899 86.032L556.131 86.392C555.971 86.032 555.739 85.752 555.435 85.552C555.139 85.344 554.807 85.24 554.439 85.24C554.079 85.24 553.791 85.332 553.575 85.516C553.359 85.7 553.251 85.932 553.251 86.212C553.251 86.428 553.307 86.6 553.419 86.728C553.531 86.856 553.659 86.952 553.803 87.016C553.955 87.08 554.087 87.128 554.199 87.16L555.267 87.472C555.787 87.624 556.191 87.86 556.479 88.18C556.775 88.5 556.923 88.876 556.923 89.308C556.923 89.66 556.823 89.976 556.623 90.256C556.431 90.536 556.163 90.756 555.819 90.916C555.475 91.068 555.079 91.144 554.631 91.144Z" fill="white" fill-opacity="0.9"/>
<path d="M519.351 163.12C518.825 163.12 518.341 163.027 517.901 162.84C517.461 162.647 517.078 162.38 516.751 162.04C516.431 161.693 516.181 161.287 516.001 160.82C515.821 160.353 515.731 159.84 515.731 159.28C515.731 158.72 515.821 158.207 516.001 157.74C516.181 157.273 516.431 156.867 516.751 156.52C517.078 156.173 517.461 155.907 517.901 155.72C518.341 155.527 518.825 155.43 519.351 155.43C519.858 155.43 520.311 155.52 520.711 155.7C521.118 155.88 521.458 156.113 521.731 156.4C522.011 156.68 522.211 156.977 522.331 157.29L521.581 157.62C521.395 157.187 521.108 156.84 520.721 156.58C520.341 156.313 519.885 156.18 519.351 156.18C518.805 156.18 518.318 156.31 517.891 156.57C517.465 156.83 517.131 157.193 516.891 157.66C516.651 158.12 516.531 158.66 516.531 159.28C516.531 159.893 516.651 160.433 516.891 160.9C517.131 161.367 517.465 161.73 517.891 161.99C518.318 162.243 518.805 162.37 519.351 162.37C519.885 162.37 520.341 162.24 520.721 161.98C521.108 161.72 521.395 161.373 521.581 160.94L522.331 161.27C522.211 161.577 522.011 161.873 521.731 162.16C521.458 162.44 521.118 162.67 520.711 162.85C520.311 163.03 519.858 163.12 519.351 163.12ZM525.506 163.12C525.166 163.12 524.863 163.057 524.596 162.93C524.33 162.797 524.12 162.617 523.966 162.39C523.813 162.163 523.736 161.903 523.736 161.61C523.736 161.33 523.796 161.077 523.916 160.85C524.036 160.617 524.223 160.42 524.476 160.26C524.73 160.1 525.053 159.987 525.446 159.92L527.546 159.57V160.25L525.626 160.57C525.24 160.637 524.96 160.76 524.786 160.94C524.62 161.12 524.536 161.333 524.536 161.58C524.536 161.82 524.63 162.023 524.816 162.19C525.01 162.357 525.256 162.44 525.556 162.44C525.923 162.44 526.243 162.363 526.516 162.21C526.79 162.05 527.003 161.837 527.156 161.57C527.31 161.303 527.386 161.007 527.386 160.68V159.32C527.386 159 527.27 158.74 527.036 158.54C526.803 158.34 526.5 158.24 526.126 158.24C525.8 158.24 525.513 158.323 525.266 158.49C525.02 158.65 524.836 158.86 524.716 159.12L524.036 158.75C524.136 158.523 524.293 158.317 524.506 158.13C524.726 157.943 524.976 157.797 525.256 157.69C525.536 157.577 525.826 157.52 526.126 157.52C526.52 157.52 526.866 157.597 527.166 157.75C527.473 157.903 527.71 158.117 527.876 158.39C528.05 158.657 528.136 158.967 528.136 159.32V163H527.386V161.93L527.496 162.04C527.403 162.24 527.256 162.423 527.056 162.59C526.863 162.75 526.633 162.88 526.366 162.98C526.106 163.073 525.82 163.12 525.506 163.12ZM530.079 165V157.64H530.829V158.84L530.709 158.63C530.922 158.29 531.206 158.02 531.559 157.82C531.919 157.62 532.329 157.52 532.789 157.52C533.296 157.52 533.746 157.643 534.139 157.89C534.539 158.13 534.852 158.46 535.079 158.88C535.312 159.3 535.429 159.78 535.429 160.32C535.429 160.853 535.312 161.333 535.079 161.76C534.852 162.18 534.539 162.513 534.139 162.76C533.746 163 533.296 163.12 532.789 163.12C532.329 163.12 531.912 163.017 531.539 162.81C531.172 162.597 530.896 162.297 530.709 161.91L530.829 161.8V165H530.079ZM532.749 162.37C533.109 162.37 533.429 162.28 533.709 162.1C533.996 161.92 534.219 161.677 534.379 161.37C534.546 161.057 534.629 160.707 534.629 160.32C534.629 159.927 534.546 159.577 534.379 159.27C534.219 158.963 533.996 158.72 533.709 158.54C533.429 158.36 533.109 158.27 532.749 158.27C532.389 158.27 532.062 158.36 531.769 158.54C531.482 158.72 531.252 158.967 531.079 159.28C530.912 159.587 530.829 159.933 530.829 160.32C530.829 160.707 530.912 161.057 531.079 161.37C531.252 161.677 531.482 161.92 531.769 162.1C532.062 162.28 532.389 162.37 532.749 162.37ZM539.101 163.06C538.621 163.06 538.251 162.92 537.991 162.64C537.731 162.36 537.601 161.96 537.601 161.44V158.39H536.611V157.64H536.861C537.088 157.64 537.268 157.567 537.401 157.42C537.535 157.267 537.601 157.077 537.601 156.85V156.4H538.351V157.64H539.531V158.39H538.351V161.44C538.351 161.62 538.378 161.78 538.431 161.92C538.485 162.053 538.575 162.16 538.701 162.24C538.835 162.32 539.011 162.36 539.231 162.36C539.285 162.36 539.348 162.357 539.421 162.35C539.495 162.343 539.558 162.337 539.611 162.33V163C539.531 163.02 539.441 163.033 539.341 163.04C539.241 163.053 539.161 163.06 539.101 163.06ZM541.328 163V157.64H542.078V163H541.328ZM541.328 156.65V155.55H542.078V156.65H541.328ZM546.523 163.12C546.017 163.12 545.557 163 545.143 162.76C544.73 162.513 544.4 162.18 544.153 161.76C543.913 161.333 543.793 160.85 543.793 160.31C543.793 159.777 543.913 159.3 544.153 158.88C544.393 158.46 544.717 158.13 545.123 157.89C545.537 157.643 546.003 157.52 546.523 157.52C547.043 157.52 547.507 157.64 547.913 157.88C548.327 158.12 548.65 158.45 548.883 158.87C549.123 159.29 549.243 159.77 549.243 160.31C549.243 160.857 549.12 161.343 548.873 161.77C548.627 162.19 548.297 162.52 547.883 162.76C547.477 163 547.023 163.12 546.523 163.12ZM546.523 162.37C546.883 162.37 547.207 162.28 547.493 162.1C547.787 161.92 548.017 161.673 548.183 161.36C548.357 161.047 548.443 160.697 548.443 160.31C548.443 159.923 548.357 159.577 548.183 159.27C548.017 158.963 547.787 158.72 547.493 158.54C547.207 158.36 546.883 158.27 546.523 158.27C546.163 158.27 545.837 158.36 545.543 158.54C545.257 158.72 545.027 158.963 544.853 159.27C544.68 159.577 544.593 159.923 544.593 160.31C544.593 160.697 544.68 161.047 544.853 161.36C545.027 161.673 545.257 161.92 545.543 162.1C545.837 162.28 546.163 162.37 546.523 162.37ZM550.966 163V157.64H551.716V158.68L551.546 158.64C551.679 158.293 551.896 158.02 552.196 157.82C552.503 157.62 552.856 157.52 553.256 157.52C553.636 157.52 553.976 157.607 554.276 157.78C554.583 157.953 554.823 158.193 554.996 158.5C555.176 158.8 555.266 159.14 555.266 159.52V163H554.516V159.81C554.516 159.483 554.456 159.207 554.336 158.98C554.223 158.753 554.059 158.58 553.846 158.46C553.639 158.333 553.399 158.27 553.126 158.27C552.853 158.27 552.609 158.333 552.396 158.46C552.183 158.58 552.016 158.757 551.896 158.99C551.776 159.217 551.716 159.49 551.716 159.81V163H550.966Z" fill="white" fill-opacity="0.9"/>
<rect x="100" y="6" width="36" height="18" fill="#44454F" stroke="#2F67D4" stroke-width="2" stroke-dasharray="4 4"/>
<rect x="100" y="78" width="36" height="18" fill="#44454F" stroke="#2F67D4" stroke-width="2" stroke-dasharray="4 4"/>
<rect x="100" y="150" width="36" height="18" fill="#44454F" stroke="#2F67D4" stroke-width="2" stroke-dasharray="4 4"/>
<rect x="455" y="6" width="36" height="18" fill="#44454F" stroke="#2F67D4" stroke-width="2" stroke-dasharray="4 4"/>
<rect x="455" y="78" width="36" height="18" fill="#44454F" stroke="#2F67D4" stroke-width="2" stroke-dasharray="4 4"/>
<rect x="455" y="150" width="36" height="18" fill="#44454F" stroke="#2F67D4" stroke-width="2" stroke-dasharray="4 4"/>
<rect width="91" height="30" rx="8" fill="#5870DC"/>
<rect y="72" width="91" height="30" rx="8" fill="#5870DC"/>
<rect y="144" width="91" height="30" rx="8" fill="#5870DC"/>
<rect x="355" width="91" height="30" rx="8" fill="#5870DC"/>
<rect x="355" y="72" width="91" height="30" rx="8" fill="#5870DC"/>
<rect x="355" y="144" width="91" height="30" rx="8" fill="#5870DC"/>
<path d="M149 7V23" stroke="#2F67D4" stroke-width="2"/>
<path d="M149 79V95" stroke="#2F67D4" stroke-width="2"/>
<path d="M149 151V167" stroke="#2F67D4" stroke-width="2"/>
<path d="M504 7V23" stroke="#2F67D4" stroke-width="2"/>
<path d="M504 79V95" stroke="#2F67D4" stroke-width="2"/>
<path d="M504 151V167" stroke="#2F67D4" stroke-width="2"/>
<path d="M153 6L145 6" stroke="#2F67D4" stroke-width="2"/>
<path d="M153 78L145 78" stroke="#2F67D4" stroke-width="2"/>
<path d="M153 150L145 150" stroke="#2F67D4" stroke-width="2"/>
<path d="M508 6L500 6" stroke="#2F67D4" stroke-width="2"/>
<path d="M508 78L500 78" stroke="#2F67D4" stroke-width="2"/>
<path d="M508 150L500 150" stroke="#2F67D4" stroke-width="2"/>
<path d="M153 24L145 24" stroke="#2F67D4" stroke-width="2"/>
<path d="M153 96L145 96" stroke="#2F67D4" stroke-width="2"/>
<path d="M153 168L145 168" stroke="#2F67D4" stroke-width="2"/>
<path d="M508 24L500 24" stroke="#2F67D4" stroke-width="2"/>
<path d="M508 96L500 96" stroke="#2F67D4" stroke-width="2"/>
<path d="M508 168L500 168" stroke="#2F67D4" stroke-width="2"/>
<path d="M14.5513 19.12C14.0846 19.12 13.6513 19.0333 13.2513 18.86C12.8513 18.68 12.5113 18.4367 12.2313 18.13C11.9513 17.8233 11.7446 17.47 11.6113 17.07L12.6113 16.65C12.7913 17.11 13.0546 17.4633 13.4013 17.71C13.748 17.9567 14.148 18.08 14.6013 18.08C14.868 18.08 15.1013 18.04 15.3013 17.96C15.5013 17.8733 15.6546 17.7533 15.7613 17.6C15.8746 17.4467 15.9313 17.27 15.9313 17.07C15.9313 16.7967 15.8546 16.58 15.7013 16.42C15.548 16.26 15.3213 16.1333 15.0213 16.04L13.6213 15.6C13.0613 15.4267 12.6346 15.1633 12.3413 14.81C12.048 14.45 11.9013 14.03 11.9013 13.55C11.9013 13.13 12.0046 12.7633 12.2113 12.45C12.418 12.13 12.7013 11.88 13.0613 11.7C13.428 11.52 13.8446 11.43 14.3113 11.43C14.758 11.43 15.1646 11.51 15.5313 11.67C15.898 11.8233 16.2113 12.0367 16.4713 12.31C16.738 12.5833 16.9313 12.9 17.0513 13.26L16.0713 13.69C15.9246 13.2967 15.6946 12.9933 15.3813 12.78C15.0746 12.5667 14.718 12.46 14.3113 12.46C14.0646 12.46 13.848 12.5033 13.6613 12.59C13.4746 12.67 13.328 12.79 13.2213 12.95C13.1213 13.1033 13.0713 13.2833 13.0713 13.49C13.0713 13.73 13.148 13.9433 13.3013 14.13C13.4546 14.3167 13.688 14.4567 14.0013 14.55L15.3013 14.96C15.8946 15.14 16.3413 15.4 16.6413 15.74C16.9413 16.0733 17.0913 16.49 17.0913 16.99C17.0913 17.4033 16.9813 17.77 16.7613 18.09C16.548 18.41 16.2513 18.6633 15.8713 18.85C15.4913 19.03 15.0513 19.12 14.5513 19.12ZM21.2459 19.12C20.7059 19.12 20.2259 18.9967 19.8059 18.75C19.3926 18.4967 19.0692 18.1567 18.8359 17.73C18.6026 17.2967 18.4859 16.8133 18.4859 16.28C18.4859 15.7333 18.6026 15.25 18.8359 14.83C19.0759 14.41 19.3959 14.08 19.7959 13.84C20.1959 13.5933 20.6492 13.47 21.1559 13.47C21.5626 13.47 21.9259 13.54 22.2459 13.68C22.5659 13.82 22.8359 14.0133 23.0559 14.26C23.2759 14.5 23.4426 14.7767 23.5559 15.09C23.6759 15.4033 23.7359 15.7367 23.7359 16.09C23.7359 16.1767 23.7326 16.2667 23.7259 16.36C23.7192 16.4533 23.7059 16.54 23.6859 16.62H19.3759V15.72H23.0459L22.5059 16.13C22.5726 15.8033 22.5492 15.5133 22.4359 15.26C22.3292 15 22.1626 14.7967 21.9359 14.65C21.7159 14.4967 21.4559 14.42 21.1559 14.42C20.8559 14.42 20.5892 14.4967 20.3559 14.65C20.1226 14.7967 19.9426 15.01 19.8159 15.29C19.6892 15.5633 19.6392 15.8967 19.6659 16.29C19.6326 16.6567 19.6826 16.9767 19.8159 17.25C19.9559 17.5233 20.1492 17.7367 20.3959 17.89C20.6492 18.0433 20.9359 18.12 21.2559 18.12C21.5826 18.12 21.8592 18.0467 22.0859 17.9C22.3192 17.7533 22.5026 17.5633 22.6359 17.33L23.5559 17.78C23.4492 18.0333 23.2826 18.2633 23.0559 18.47C22.8359 18.67 22.5692 18.83 22.2559 18.95C21.9492 19.0633 21.6126 19.12 21.2459 19.12ZM25.2387 19V13.59H26.3187V14.76L26.1787 14.58C26.292 14.2133 26.4987 13.9367 26.7987 13.75C27.0987 13.5633 27.442 13.47 27.8287 13.47C28.262 13.47 28.6454 13.5867 28.9787 13.82C29.3187 14.0467 29.5454 14.35 29.6587 14.73L29.3387 14.76C29.4987 14.3267 29.742 14.0033 30.0687 13.79C30.402 13.5767 30.782 13.47 31.2087 13.47C31.582 13.47 31.9187 13.5567 32.2187 13.73C32.5254 13.9033 32.7687 14.1433 32.9487 14.45C33.1287 14.7567 33.2187 15.1067 33.2187 15.5V19H32.0887V15.81C32.0887 15.5367 32.0387 15.3067 31.9387 15.12C31.8454 14.9267 31.712 14.78 31.5387 14.68C31.372 14.5733 31.1754 14.52 30.9487 14.52C30.722 14.52 30.522 14.5733 30.3487 14.68C30.1754 14.78 30.0387 14.9267 29.9387 15.12C29.8387 15.3133 29.7887 15.5433 29.7887 15.81V19H28.6687V15.81C28.6687 15.5367 28.6187 15.3067 28.5187 15.12C28.4254 14.9267 28.292 14.78 28.1187 14.68C27.952 14.5733 27.752 14.52 27.5187 14.52C27.292 14.52 27.092 14.5733 26.9187 14.68C26.7454 14.78 26.6087 14.9267 26.5087 15.12C26.4154 15.3133 26.3687 15.5433 26.3687 15.81V19H25.2387ZM34.8282 19V13.59H35.9582V19H34.8282ZM34.8282 12.85V11.55H35.9582V12.85H34.8282ZM39.9374 19V11.55H43.0774C43.544 11.55 43.9474 11.6333 44.2874 11.8C44.6274 11.96 44.8874 12.1933 45.0674 12.5C45.2474 12.8 45.3374 13.1567 45.3374 13.57C45.3374 13.93 45.244 14.26 45.0574 14.56C44.8774 14.8533 44.594 15.0867 44.2074 15.26V14.76C44.5474 14.8933 44.824 15.0633 45.0374 15.27C45.2507 15.47 45.404 15.6967 45.4974 15.95C45.5974 16.2033 45.6474 16.47 45.6474 16.75C45.6474 17.45 45.4174 18 44.9574 18.4C44.504 18.8 43.8807 19 43.0874 19H39.9374ZM41.1174 17.95H43.1774C43.5707 17.95 43.884 17.8433 44.1174 17.63C44.3507 17.41 44.4674 17.12 44.4674 16.76C44.4674 16.3933 44.3507 16.1033 44.1174 15.89C43.884 15.67 43.5707 15.56 43.1774 15.56H41.1174V17.95ZM41.1174 14.52H43.1074C43.4274 14.52 43.684 14.43 43.8774 14.25C44.0707 14.0633 44.1674 13.82 44.1674 13.52C44.1674 13.22 44.0707 12.9867 43.8774 12.82C43.684 12.6533 43.4274 12.57 43.1074 12.57H41.1174V14.52ZM49.7612 19.12C49.2412 19.12 48.7645 18.9967 48.3312 18.75C47.9045 18.5033 47.5645 18.1667 47.3112 17.74C47.0579 17.3133 46.9312 16.83 46.9312 16.29C46.9312 15.7433 47.0579 15.26 47.3112 14.84C47.5645 14.4133 47.9045 14.08 48.3312 13.84C48.7579 13.5933 49.2345 13.47 49.7612 13.47C50.2945 13.47 50.7712 13.5933 51.1912 13.84C51.6179 14.08 51.9545 14.4133 52.2012 14.84C52.4545 15.26 52.5812 15.7433 52.5812 16.29C52.5812 16.8367 52.4545 17.3233 52.2012 17.75C51.9479 18.1767 51.6079 18.5133 51.1812 18.76C50.7545 19 50.2812 19.12 49.7612 19.12ZM49.7612 18.07C50.0812 18.07 50.3645 17.9933 50.6112 17.84C50.8579 17.6867 51.0512 17.4767 51.1912 17.21C51.3379 16.9367 51.4112 16.63 51.4112 16.29C51.4112 15.95 51.3379 15.6467 51.1912 15.38C51.0512 15.1133 50.8579 14.9033 50.6112 14.75C50.3645 14.5967 50.0812 14.52 49.7612 14.52C49.4479 14.52 49.1645 14.5967 48.9112 14.75C48.6645 14.9033 48.4679 15.1133 48.3212 15.38C48.1812 15.6467 48.1112 15.95 48.1112 16.29C48.1112 16.63 48.1812 16.9367 48.3212 17.21C48.4679 17.4767 48.6645 17.6867 48.9112 17.84C49.1645 17.9933 49.4479 18.07 49.7612 18.07ZM54.0844 19V11.43H55.2144V19H54.0844ZM59.4356 19.12C58.9156 19.12 58.4489 18.9967 58.0356 18.75C57.6289 18.4967 57.3056 18.1567 57.0656 17.73C56.8323 17.3033 56.7156 16.8233 56.7156 16.29C56.7156 15.7567 56.8356 15.2767 57.0756 14.85C57.3156 14.4233 57.6389 14.0867 58.0456 13.84C58.4523 13.5933 58.9123 13.47 59.4256 13.47C59.8589 13.47 60.2423 13.5567 60.5756 13.73C60.9089 13.9033 61.1723 14.1433 61.3656 14.45L61.1956 14.71V11.43H62.3156V19H61.2456V17.9L61.3756 18.11C61.1889 18.4367 60.9223 18.6867 60.5756 18.86C60.2289 19.0333 59.8489 19.12 59.4356 19.12ZM59.5456 18.07C59.8589 18.07 60.1389 17.9933 60.3856 17.84C60.6389 17.6867 60.8356 17.4767 60.9756 17.21C61.1223 16.9367 61.1956 16.63 61.1956 16.29C61.1956 15.95 61.1223 15.6467 60.9756 15.38C60.8356 15.1133 60.6389 14.9033 60.3856 14.75C60.1389 14.5967 59.8589 14.52 59.5456 14.52C59.2323 14.52 58.9489 14.5967 58.6956 14.75C58.4423 14.9033 58.2456 15.1133 58.1056 15.38C57.9656 15.6467 57.8956 15.95 57.8956 16.29C57.8956 16.63 57.9656 16.9367 58.1056 17.21C58.2456 17.4767 58.4389 17.6867 58.6856 17.84C58.9389 17.9933 59.2256 18.07 59.5456 18.07ZM64.3248 20.47V19.92C64.5448 19.8667 64.7148 19.7633 64.8348 19.61C64.9548 19.4633 65.0281 19.26 65.0548 19H64.5248V17.7H65.6748V18.55C65.6748 19.0833 65.5615 19.5133 65.3348 19.84C65.1081 20.1667 64.7715 20.3767 64.3248 20.47ZM70.9641 19V12.55H69.5341V11.55H72.1341V19H70.9641ZM76.6701 19.12C76.1501 19.12 75.6934 19.02 75.3001 18.82C74.9134 18.6133 74.6134 18.34 74.4001 18C74.1868 17.6533 74.0801 17.27 74.0801 16.85C74.0801 16.37 74.2101 15.9567 74.4701 15.61C74.7368 15.2567 75.1101 15 75.5901 14.84L75.5401 15.14C75.1868 15.0067 74.9068 14.7833 74.7001 14.47C74.5001 14.15 74.4001 13.8 74.4001 13.42C74.4001 13.04 74.4968 12.7 74.6901 12.4C74.8901 12.1 75.1601 11.8633 75.5001 11.69C75.8468 11.5167 76.2368 11.43 76.6701 11.43C77.1101 11.43 77.5001 11.5167 77.8401 11.69C78.1801 11.8567 78.4468 12.09 78.6401 12.39C78.8401 12.69 78.9401 13.0333 78.9401 13.42C78.9401 13.8133 78.8368 14.1667 78.6301 14.48C78.4301 14.7867 78.1568 15.0067 77.8101 15.14L77.7601 14.84C78.2401 15.0067 78.6134 15.2633 78.8801 15.61C79.1468 15.9567 79.2801 16.37 79.2801 16.85C79.2801 17.27 79.1701 17.6533 78.9501 18C78.7368 18.34 78.4334 18.6133 78.0401 18.82C77.6468 19.02 77.1901 19.12 76.6701 19.12ZM76.6701 18.12C76.9568 18.12 77.2068 18.0667 77.4201 17.96C77.6334 17.8467 77.8001 17.6933 77.9201 17.5C78.0401 17.3067 78.1001 17.08 78.1001 16.82C78.1001 16.56 78.0401 16.3333 77.9201 16.14C77.8001 15.9467 77.6334 15.7967 77.4201 15.69C77.2068 15.5833 76.9568 15.53 76.6701 15.53C76.3901 15.53 76.1434 15.5833 75.9301 15.69C75.7168 15.7967 75.5501 15.9467 75.4301 16.14C75.3101 16.3333 75.2501 16.56 75.2501 16.82C75.2501 17.08 75.3101 17.3067 75.4301 17.5C75.5501 17.6933 75.7168 17.8467 75.9301 17.96C76.1434 18.0667 76.3901 18.12 76.6701 18.12ZM76.6701 14.53C76.8834 14.53 77.0701 14.4867 77.2301 14.4C77.3968 14.3067 77.5268 14.18 77.6201 14.02C77.7134 13.86 77.7601 13.68 77.7601 13.48C77.7601 13.2733 77.7134 13.0933 77.6201 12.94C77.5268 12.78 77.3968 12.6567 77.2301 12.57C77.0701 12.4767 76.8834 12.43 76.6701 12.43C76.4634 12.43 76.2768 12.4767 76.1101 12.57C75.9434 12.6567 75.8134 12.78 75.7201 12.94C75.6268 13.0933 75.5801 13.2733 75.5801 13.48C75.5801 13.68 75.6268 13.86 75.7201 14.02C75.8134 14.18 75.9434 14.3067 76.1101 14.4C76.2768 14.4867 76.4634 14.53 76.6701 14.53Z" fill="white"/>
<path d="M14.7515 91.12C14.2848 91.12 13.8515 91.0333 13.4515 90.86C13.0515 90.68 12.7115 90.4367 12.4315 90.13C12.1515 89.8233 11.9448 89.47 11.8115 89.07L12.8115 88.65C12.9915 89.11 13.2548 89.4633 13.6015 89.71C13.9481 89.9567 14.3481 90.08 14.8015 90.08C15.0681 90.08 15.3015 90.04 15.5015 89.96C15.7015 89.8733 15.8548 89.7533 15.9615 89.6C16.0748 89.4467 16.1315 89.27 16.1315 89.07C16.1315 88.7967 16.0548 88.58 15.9015 88.42C15.7481 88.26 15.5215 88.1333 15.2215 88.04L13.8215 87.6C13.2615 87.4267 12.8348 87.1633 12.5415 86.81C12.2481 86.45 12.1015 86.03 12.1015 85.55C12.1015 85.13 12.2048 84.7633 12.4115 84.45C12.6181 84.13 12.9015 83.88 13.2615 83.7C13.6281 83.52 14.0448 83.43 14.5115 83.43C14.9581 83.43 15.3648 83.51 15.7315 83.67C16.0981 83.8233 16.4115 84.0367 16.6715 84.31C16.9381 84.5833 17.1315 84.9 17.2515 85.26L16.2715 85.69C16.1248 85.2967 15.8948 84.9933 15.5815 84.78C15.2748 84.5667 14.9181 84.46 14.5115 84.46C14.2648 84.46 14.0481 84.5033 13.8615 84.59C13.6748 84.67 13.5281 84.79 13.4215 84.95C13.3215 85.1033 13.2715 85.2833 13.2715 85.49C13.2715 85.73 13.3481 85.9433 13.5015 86.13C13.6548 86.3167 13.8881 86.4567 14.2015 86.55L15.5015 86.96C16.0948 87.14 16.5415 87.4 16.8415 87.74C17.1415 88.0733 17.2915 88.49 17.2915 88.99C17.2915 89.4033 17.1815 89.77 16.9615 90.09C16.7481 90.41 16.4515 90.6633 16.0715 90.85C15.6915 91.03 15.2515 91.12 14.7515 91.12ZM21.4461 91.12C20.9061 91.12 20.4261 90.9967 20.0061 90.75C19.5928 90.4967 19.2694 90.1567 19.0361 89.73C18.8028 89.2967 18.6861 88.8133 18.6861 88.28C18.6861 87.7333 18.8028 87.25 19.0361 86.83C19.2761 86.41 19.5961 86.08 19.9961 85.84C20.3961 85.5933 20.8494 85.47 21.3561 85.47C21.7628 85.47 22.1261 85.54 22.4461 85.68C22.7661 85.82 23.0361 86.0133 23.2561 86.26C23.4761 86.5 23.6428 86.7767 23.7561 87.09C23.8761 87.4033 23.9361 87.7367 23.9361 88.09C23.9361 88.1767 23.9328 88.2667 23.9261 88.36C23.9194 88.4533 23.9061 88.54 23.8861 88.62H19.5761V87.72H23.2461L22.7061 88.13C22.7728 87.8033 22.7494 87.5133 22.6361 87.26C22.5294 87 22.3628 86.7967 22.1361 86.65C21.9161 86.4967 21.6561 86.42 21.3561 86.42C21.0561 86.42 20.7894 86.4967 20.5561 86.65C20.3228 86.7967 20.1428 87.01 20.0161 87.29C19.8894 87.5633 19.8394 87.8967 19.8661 88.29C19.8328 88.6567 19.8828 88.9767 20.0161 89.25C20.1561 89.5233 20.3494 89.7367 20.5961 89.89C20.8494 90.0433 21.1361 90.12 21.4561 90.12C21.7828 90.12 22.0594 90.0467 22.2861 89.9C22.5194 89.7533 22.7028 89.5633 22.8361 89.33L23.7561 89.78C23.6494 90.0333 23.4828 90.2633 23.2561 90.47C23.0361 90.67 22.7694 90.83 22.4561 90.95C22.1494 91.0633 21.8128 91.12 21.4461 91.12ZM25.4389 91V85.59H26.5189V86.76L26.3789 86.58C26.4922 86.2133 26.6989 85.9367 26.9989 85.75C27.2989 85.5633 27.6422 85.47 28.0289 85.47C28.4622 85.47 28.8456 85.5867 29.1789 85.82C29.5189 86.0467 29.7456 86.35 29.8589 86.73L29.5389 86.76C29.6989 86.3267 29.9422 86.0033 30.2689 85.79C30.6022 85.5767 30.9822 85.47 31.4089 85.47C31.7822 85.47 32.1189 85.5567 32.4189 85.73C32.7256 85.9033 32.9689 86.1433 33.1489 86.45C33.3289 86.7567 33.4189 87.1067 33.4189 87.5V91H32.2889V87.81C32.2889 87.5367 32.2389 87.3067 32.1389 87.12C32.0456 86.9267 31.9122 86.78 31.7389 86.68C31.5722 86.5733 31.3756 86.52 31.1489 86.52C30.9222 86.52 30.7222 86.5733 30.5489 86.68C30.3756 86.78 30.2389 86.9267 30.1389 87.12C30.0389 87.3133 29.9889 87.5433 29.9889 87.81V91H28.8689V87.81C28.8689 87.5367 28.8189 87.3067 28.7189 87.12C28.6256 86.9267 28.4922 86.78 28.3189 86.68C28.1522 86.5733 27.9522 86.52 27.7189 86.52C27.4922 86.52 27.2922 86.5733 27.1189 86.68C26.9456 86.78 26.8089 86.9267 26.7089 87.12C26.6156 87.3133 26.5689 87.5433 26.5689 87.81V91H25.4389ZM35.0284 91V85.59H36.1584V91H35.0284ZM35.0284 84.85V83.55H36.1584V84.85H35.0284ZM40.1376 91V83.55H43.2776C43.7442 83.55 44.1476 83.6333 44.4876 83.8C44.8276 83.96 45.0876 84.1933 45.2676 84.5C45.4476 84.8 45.5376 85.1567 45.5376 85.57C45.5376 85.93 45.4442 86.26 45.2576 86.56C45.0776 86.8533 44.7942 87.0867 44.4076 87.26V86.76C44.7476 86.8933 45.0242 87.0633 45.2376 87.27C45.4509 87.47 45.6042 87.6967 45.6976 87.95C45.7976 88.2033 45.8476 88.47 45.8476 88.75C45.8476 89.45 45.6176 90 45.1576 90.4C44.7042 90.8 44.0809 91 43.2876 91H40.1376ZM41.3176 89.95H43.3776C43.7709 89.95 44.0842 89.8433 44.3176 89.63C44.5509 89.41 44.6676 89.12 44.6676 88.76C44.6676 88.3933 44.5509 88.1033 44.3176 87.89C44.0842 87.67 43.7709 87.56 43.3776 87.56H41.3176V89.95ZM41.3176 86.52H43.3076C43.6276 86.52 43.8842 86.43 44.0776 86.25C44.2709 86.0633 44.3676 85.82 44.3676 85.52C44.3676 85.22 44.2709 84.9867 44.0776 84.82C43.8842 84.6533 43.6276 84.57 43.3076 84.57H41.3176V86.52ZM49.9614 91.12C49.4414 91.12 48.9647 90.9967 48.5314 90.75C48.1047 90.5033 47.7647 90.1667 47.5114 89.74C47.2581 89.3133 47.1314 88.83 47.1314 88.29C47.1314 87.7433 47.2581 87.26 47.5114 86.84C47.7647 86.4133 48.1047 86.08 48.5314 85.84C48.9581 85.5933 49.4347 85.47 49.9614 85.47C50.4947 85.47 50.9714 85.5933 51.3914 85.84C51.8181 86.08 52.1547 86.4133 52.4014 86.84C52.6547 87.26 52.7814 87.7433 52.7814 88.29C52.7814 88.8367 52.6547 89.3233 52.4014 89.75C52.1481 90.1767 51.8081 90.5133 51.3814 90.76C50.9547 91 50.4814 91.12 49.9614 91.12ZM49.9614 90.07C50.2814 90.07 50.5647 89.9933 50.8114 89.84C51.0581 89.6867 51.2514 89.4767 51.3914 89.21C51.5381 88.9367 51.6114 88.63 51.6114 88.29C51.6114 87.95 51.5381 87.6467 51.3914 87.38C51.2514 87.1133 51.0581 86.9033 50.8114 86.75C50.5647 86.5967 50.2814 86.52 49.9614 86.52C49.6481 86.52 49.3647 86.5967 49.1114 86.75C48.8647 86.9033 48.6681 87.1133 48.5214 87.38C48.3814 87.6467 48.3114 87.95 48.3114 88.29C48.3114 88.63 48.3814 88.9367 48.5214 89.21C48.6681 89.4767 48.8647 89.6867 49.1114 89.84C49.3647 89.9933 49.6481 90.07 49.9614 90.07ZM54.2846 91V83.43H55.4146V91H54.2846ZM59.6358 91.12C59.1158 91.12 58.6491 90.9967 58.2358 90.75C57.8291 90.4967 57.5058 90.1567 57.2658 89.73C57.0324 89.3033 56.9158 88.8233 56.9158 88.29C56.9158 87.7567 57.0358 87.2767 57.2758 86.85C57.5158 86.4233 57.8391 86.0867 58.2458 85.84C58.6524 85.5933 59.1124 85.47 59.6258 85.47C60.0591 85.47 60.4424 85.5567 60.7758 85.73C61.1091 85.9033 61.3724 86.1433 61.5658 86.45L61.3958 86.71V83.43H62.5158V91H61.4458V89.9L61.5758 90.11C61.3891 90.4367 61.1224 90.6867 60.7758 90.86C60.4291 91.0333 60.0491 91.12 59.6358 91.12ZM59.7458 90.07C60.0591 90.07 60.3391 89.9933 60.5858 89.84C60.8391 89.6867 61.0358 89.4767 61.1758 89.21C61.3224 88.9367 61.3958 88.63 61.3958 88.29C61.3958 87.95 61.3224 87.6467 61.1758 87.38C61.0358 87.1133 60.8391 86.9033 60.5858 86.75C60.3391 86.5967 60.0591 86.52 59.7458 86.52C59.4324 86.52 59.1491 86.5967 58.8958 86.75C58.6424 86.9033 58.4458 87.1133 58.3058 87.38C58.1658 87.6467 58.0958 87.95 58.0958 88.29C58.0958 88.63 58.1658 88.9367 58.3058 89.21C58.4458 89.4767 58.6391 89.6867 58.8858 89.84C59.1391 89.9933 59.4258 90.07 59.7458 90.07ZM64.525 92.47V91.92C64.745 91.8667 64.915 91.7633 65.035 91.61C65.155 91.4633 65.2283 91.26 65.255 91H64.725V89.7H65.875V90.55C65.875 91.0833 65.7617 91.5133 65.535 91.84C65.3083 92.1667 64.9717 92.3767 64.525 92.47ZM71.1643 91V84.55H69.7343V83.55H72.3343V91H71.1643ZM76.6327 91.12C76.146 91.12 75.7127 91.0133 75.3327 90.8C74.9527 90.5867 74.6527 90.2933 74.4327 89.92C74.2193 89.5467 74.1127 89.1233 74.1127 88.65C74.1127 88.4033 74.1393 88.1567 74.1927 87.91C74.246 87.6633 74.3393 87.4067 74.4727 87.14C74.6127 86.8733 74.7993 86.5867 75.0327 86.28L77.1127 83.55H78.5227L75.9727 86.85L75.7727 86.72C75.866 86.6133 75.966 86.53 76.0727 86.47C76.186 86.41 76.3027 86.3667 76.4227 86.34C76.5493 86.3133 76.6827 86.3 76.8227 86.3C77.2693 86.3 77.6693 86.4033 78.0227 86.61C78.376 86.8167 78.6527 87.0967 78.8527 87.45C79.0593 87.8033 79.1627 88.21 79.1627 88.67C79.1627 89.1367 79.0527 89.5567 78.8327 89.93C78.6127 90.2967 78.3127 90.5867 77.9327 90.8C77.5593 91.0133 77.126 91.12 76.6327 91.12ZM76.6327 90.07C76.8927 90.07 77.1227 90.01 77.3227 89.89C77.5227 89.77 77.6827 89.6067 77.8027 89.4C77.9227 89.1867 77.9827 88.9467 77.9827 88.68C77.9827 88.4067 77.9227 88.1667 77.8027 87.96C77.6893 87.7533 77.5293 87.5933 77.3227 87.48C77.1227 87.36 76.8927 87.3 76.6327 87.3C76.3793 87.3 76.1493 87.36 75.9427 87.48C75.7427 87.5933 75.5827 87.7533 75.4627 87.96C75.3427 88.1667 75.2827 88.4067 75.2827 88.68C75.2827 88.9467 75.3427 89.1867 75.4627 89.4C75.5827 89.6067 75.7427 89.77 75.9427 89.89C76.1493 90.01 76.3793 90.07 76.6327 90.07Z" fill="white"/>
<path d="M14.4732 163.12C14.0065 163.12 13.5732 163.033 13.1732 162.86C12.7732 162.68 12.4332 162.437 12.1532 162.13C11.8732 161.823 11.6665 161.47 11.5332 161.07L12.5332 160.65C12.7132 161.11 12.9765 161.463 13.3232 161.71C13.6698 161.957 14.0698 162.08 14.5232 162.08C14.7898 162.08 15.0232 162.04 15.2232 161.96C15.4232 161.873 15.5765 161.753 15.6832 161.6C15.7965 161.447 15.8532 161.27 15.8532 161.07C15.8532 160.797 15.7765 160.58 15.6232 160.42C15.4698 160.26 15.2432 160.133 14.9432 160.04L13.5432 159.6C12.9832 159.427 12.5565 159.163 12.2632 158.81C11.9698 158.45 11.8232 158.03 11.8232 157.55C11.8232 157.13 11.9265 156.763 12.1332 156.45C12.3398 156.13 12.6232 155.88 12.9832 155.7C13.3498 155.52 13.7665 155.43 14.2332 155.43C14.6798 155.43 15.0865 155.51 15.4532 155.67C15.8198 155.823 16.1332 156.037 16.3932 156.31C16.6598 156.583 16.8532 156.9 16.9732 157.26L15.9932 157.69C15.8465 157.297 15.6165 156.993 15.3032 156.78C14.9965 156.567 14.6398 156.46 14.2332 156.46C13.9865 156.46 13.7698 156.503 13.5832 156.59C13.3965 156.67 13.2498 156.79 13.1432 156.95C13.0432 157.103 12.9932 157.283 12.9932 157.49C12.9932 157.73 13.0698 157.943 13.2232 158.13C13.3765 158.317 13.6098 158.457 13.9232 158.55L15.2232 158.96C15.8165 159.14 16.2632 159.4 16.5632 159.74C16.8632 160.073 17.0132 160.49 17.0132 160.99C17.0132 161.403 16.9032 161.77 16.6832 162.09C16.4698 162.41 16.1732 162.663 15.7932 162.85C15.4132 163.03 14.9732 163.12 14.4732 163.12ZM21.1678 163.12C20.6278 163.12 20.1478 162.997 19.7278 162.75C19.3144 162.497 18.9911 162.157 18.7578 161.73C18.5244 161.297 18.4078 160.813 18.4078 160.28C18.4078 159.733 18.5244 159.25 18.7578 158.83C18.9978 158.41 19.3178 158.08 19.7178 157.84C20.1178 157.593 20.5711 157.47 21.0778 157.47C21.4844 157.47 21.8478 157.54 22.1678 157.68C22.4878 157.82 22.7578 158.013 22.9778 158.26C23.1978 158.5 23.3644 158.777 23.4778 159.09C23.5978 159.403 23.6578 159.737 23.6578 160.09C23.6578 160.177 23.6544 160.267 23.6478 160.36C23.6411 160.453 23.6278 160.54 23.6078 160.62H19.2978V159.72H22.9678L22.4278 160.13C22.4944 159.803 22.4711 159.513 22.3578 159.26C22.2511 159 22.0844 158.797 21.8578 158.65C21.6378 158.497 21.3778 158.42 21.0778 158.42C20.7778 158.42 20.5111 158.497 20.2778 158.65C20.0444 158.797 19.8644 159.01 19.7378 159.29C19.6111 159.563 19.5611 159.897 19.5878 160.29C19.5544 160.657 19.6044 160.977 19.7378 161.25C19.8778 161.523 20.0711 161.737 20.3178 161.89C20.5711 162.043 20.8578 162.12 21.1778 162.12C21.5044 162.12 21.7811 162.047 22.0078 161.9C22.2411 161.753 22.4244 161.563 22.5578 161.33L23.4778 161.78C23.3711 162.033 23.2044 162.263 22.9778 162.47C22.7578 162.67 22.4911 162.83 22.1778 162.95C21.8711 163.063 21.5344 163.12 21.1678 163.12ZM25.1606 163V157.59H26.2406V158.76L26.1006 158.58C26.2139 158.213 26.4206 157.937 26.7206 157.75C27.0206 157.563 27.3639 157.47 27.7506 157.47C28.1839 157.47 28.5673 157.587 28.9006 157.82C29.2406 158.047 29.4673 158.35 29.5806 158.73L29.2606 158.76C29.4206 158.327 29.6639 158.003 29.9906 157.79C30.3239 157.577 30.7039 157.47 31.1306 157.47C31.5039 157.47 31.8406 157.557 32.1406 157.73C32.4473 157.903 32.6906 158.143 32.8706 158.45C33.0506 158.757 33.1406 159.107 33.1406 159.5V163H32.0106V159.81C32.0106 159.537 31.9606 159.307 31.8606 159.12C31.7673 158.927 31.6339 158.78 31.4606 158.68C31.2939 158.573 31.0973 158.52 30.8706 158.52C30.6439 158.52 30.4439 158.573 30.2706 158.68C30.0973 158.78 29.9606 158.927 29.8606 159.12C29.7606 159.313 29.7106 159.543 29.7106 159.81V163H28.5906V159.81C28.5906 159.537 28.5406 159.307 28.4406 159.12C28.3473 158.927 28.2139 158.78 28.0406 158.68C27.8739 158.573 27.6739 158.52 27.4406 158.52C27.2139 158.52 27.0139 158.573 26.8406 158.68C26.6673 158.78 26.5306 158.927 26.4306 159.12C26.3373 159.313 26.2906 159.543 26.2906 159.81V163H25.1606ZM34.75 163V157.59H35.88V163H34.75ZM34.75 156.85V155.55H35.88V156.85H34.75ZM39.8593 163V155.55H42.9993C43.4659 155.55 43.8693 155.633 44.2093 155.8C44.5493 155.96 44.8093 156.193 44.9893 156.5C45.1693 156.8 45.2593 157.157 45.2593 157.57C45.2593 157.93 45.1659 158.26 44.9793 158.56C44.7993 158.853 44.5159 159.087 44.1293 159.26V158.76C44.4693 158.893 44.7459 159.063 44.9593 159.27C45.1726 159.47 45.3259 159.697 45.4193 159.95C45.5193 160.203 45.5693 160.47 45.5693 160.75C45.5693 161.45 45.3393 162 44.8793 162.4C44.4259 162.8 43.8026 163 43.0093 163H39.8593ZM41.0393 161.95H43.0993C43.4926 161.95 43.8059 161.843 44.0393 161.63C44.2726 161.41 44.3893 161.12 44.3893 160.76C44.3893 160.393 44.2726 160.103 44.0393 159.89C43.8059 159.67 43.4926 159.56 43.0993 159.56H41.0393V161.95ZM41.0393 158.52H43.0293C43.3493 158.52 43.6059 158.43 43.7993 158.25C43.9926 158.063 44.0893 157.82 44.0893 157.52C44.0893 157.22 43.9926 156.987 43.7993 156.82C43.6059 156.653 43.3493 156.57 43.0293 156.57H41.0393V158.52ZM49.6831 163.12C49.1631 163.12 48.6864 162.997 48.2531 162.75C47.8264 162.503 47.4864 162.167 47.2331 161.74C46.9798 161.313 46.8531 160.83 46.8531 160.29C46.8531 159.743 46.9798 159.26 47.2331 158.84C47.4864 158.413 47.8264 158.08 48.2531 157.84C48.6798 157.593 49.1564 157.47 49.6831 157.47C50.2164 157.47 50.6931 157.593 51.1131 157.84C51.5398 158.08 51.8764 158.413 52.1231 158.84C52.3764 159.26 52.5031 159.743 52.5031 160.29C52.5031 160.837 52.3764 161.323 52.1231 161.75C51.8698 162.177 51.5298 162.513 51.1031 162.76C50.6764 163 50.2031 163.12 49.6831 163.12ZM49.6831 162.07C50.0031 162.07 50.2864 161.993 50.5331 161.84C50.7798 161.687 50.9731 161.477 51.1131 161.21C51.2598 160.937 51.3331 160.63 51.3331 160.29C51.3331 159.95 51.2598 159.647 51.1131 159.38C50.9731 159.113 50.7798 158.903 50.5331 158.75C50.2864 158.597 50.0031 158.52 49.6831 158.52C49.3698 158.52 49.0864 158.597 48.8331 158.75C48.5864 158.903 48.3898 159.113 48.2431 159.38C48.1031 159.647 48.0331 159.95 48.0331 160.29C48.0331 160.63 48.1031 160.937 48.2431 161.21C48.3898 161.477 48.5864 161.687 48.8331 161.84C49.0864 161.993 49.3698 162.07 49.6831 162.07ZM54.0063 163V155.43H55.1363V163H54.0063ZM59.3575 163.12C58.8375 163.12 58.3708 162.997 57.9575 162.75C57.5508 162.497 57.2275 162.157 56.9875 161.73C56.7541 161.303 56.6375 160.823 56.6375 160.29C56.6375 159.757 56.7575 159.277 56.9975 158.85C57.2375 158.423 57.5608 158.087 57.9675 157.84C58.3741 157.593 58.8341 157.47 59.3475 157.47C59.7808 157.47 60.1641 157.557 60.4975 157.73C60.8308 157.903 61.0941 158.143 61.2875 158.45L61.1175 158.71V155.43H62.2375V163H61.1675V161.9L61.2975 162.11C61.1108 162.437 60.8441 162.687 60.4975 162.86C60.1508 163.033 59.7708 163.12 59.3575 163.12ZM59.4675 162.07C59.7808 162.07 60.0608 161.993 60.3075 161.84C60.5608 161.687 60.7575 161.477 60.8975 161.21C61.0441 160.937 61.1175 160.63 61.1175 160.29C61.1175 159.95 61.0441 159.647 60.8975 159.38C60.7575 159.113 60.5608 158.903 60.3075 158.75C60.0608 158.597 59.7808 158.52 59.4675 158.52C59.1541 158.52 58.8708 158.597 58.6175 158.75C58.3641 158.903 58.1675 159.113 58.0275 159.38C57.8875 159.647 57.8175 159.95 57.8175 160.29C57.8175 160.63 57.8875 160.937 58.0275 161.21C58.1675 161.477 58.3608 161.687 58.6075 161.84C58.8608 161.993 59.1475 162.07 59.4675 162.07ZM64.2467 164.47V163.92C64.4667 163.867 64.6367 163.763 64.7567 163.61C64.8767 163.463 64.95 163.26 64.9767 163H64.4467V161.7H65.5967V162.55C65.5967 163.083 65.4833 163.513 65.2567 163.84C65.03 164.167 64.6933 164.377 64.2467 164.47ZM70.886 163V156.55H69.456V155.55H72.056V163H70.886ZM77.382 163V161.32H73.832V160.34L77.332 155.55H78.502V160.34H79.532V161.32H78.502V163H77.382ZM74.702 160.77L74.512 160.34H77.382V156.49L77.702 156.59L74.702 160.77Z" fill="white"/>
<path d="M372.229 19V11.55H373.329L376.129 15.43H375.579L378.329 11.55H379.429V19H378.259V12.94L378.699 13.06L375.889 16.9H375.769L373.019 13.06L373.409 12.94V19H372.229ZM383.799 19.12C383.259 19.12 382.779 18.9967 382.359 18.75C381.946 18.4967 381.622 18.1567 381.389 17.73C381.156 17.2967 381.039 16.8133 381.039 16.28C381.039 15.7333 381.156 15.25 381.389 14.83C381.629 14.41 381.949 14.08 382.349 13.84C382.749 13.5933 383.202 13.47 383.709 13.47C384.116 13.47 384.479 13.54 384.799 13.68C385.119 13.82 385.389 14.0133 385.609 14.26C385.829 14.5 385.996 14.7767 386.109 15.09C386.229 15.4033 386.289 15.7367 386.289 16.09C386.289 16.1767 386.286 16.2667 386.279 16.36C386.272 16.4533 386.259 16.54 386.239 16.62H381.929V15.72H385.599L385.059 16.13C385.126 15.8033 385.102 15.5133 384.989 15.26C384.882 15 384.716 14.7967 384.489 14.65C384.269 14.4967 384.009 14.42 383.709 14.42C383.409 14.42 383.142 14.4967 382.909 14.65C382.676 14.7967 382.496 15.01 382.369 15.29C382.242 15.5633 382.192 15.8967 382.219 16.29C382.186 16.6567 382.236 16.9767 382.369 17.25C382.509 17.5233 382.702 17.7367 382.949 17.89C383.202 18.0433 383.489 18.12 383.809 18.12C384.136 18.12 384.412 18.0467 384.639 17.9C384.872 17.7533 385.056 17.5633 385.189 17.33L386.109 17.78C386.002 18.0333 385.836 18.2633 385.609 18.47C385.389 18.67 385.122 18.83 384.809 18.95C384.502 19.0633 384.166 19.12 383.799 19.12ZM390.292 19.12C389.772 19.12 389.305 18.9967 388.892 18.75C388.485 18.4967 388.162 18.1567 387.922 17.73C387.689 17.3033 387.572 16.8233 387.572 16.29C387.572 15.7567 387.692 15.2767 387.932 14.85C388.172 14.4233 388.495 14.0867 388.902 13.84C389.309 13.5933 389.769 13.47 390.282 13.47C390.715 13.47 391.099 13.5567 391.432 13.73C391.765 13.9033 392.029 14.1433 392.222 14.45L392.052 14.71V11.43H393.172V19H392.102V17.9L392.232 18.11C392.045 18.4367 391.779 18.6867 391.432 18.86C391.085 19.0333 390.705 19.12 390.292 19.12ZM390.402 18.07C390.715 18.07 390.995 17.9933 391.242 17.84C391.495 17.6867 391.692 17.4767 391.832 17.21C391.979 16.9367 392.052 16.63 392.052 16.29C392.052 15.95 391.979 15.6467 391.832 15.38C391.692 15.1133 391.495 14.9033 391.242 14.75C390.995 14.5967 390.715 14.52 390.402 14.52C390.089 14.52 389.805 14.5967 389.552 14.75C389.299 14.9033 389.102 15.1133 388.962 15.38C388.822 15.6467 388.752 15.95 388.752 16.29C388.752 16.63 388.822 16.9367 388.962 17.21C389.102 17.4767 389.295 17.6867 389.542 17.84C389.795 17.9933 390.082 18.07 390.402 18.07ZM394.891 19V13.59H396.021V19H394.891ZM394.891 12.85V11.55H396.021V12.85H394.891ZM399.672 19.12C399.266 19.12 398.909 19.03 398.602 18.85C398.296 18.6633 398.056 18.4067 397.882 18.08C397.716 17.7467 397.632 17.3633 397.632 16.93V13.59H398.762V16.83C398.762 17.0767 398.812 17.2933 398.912 17.48C399.012 17.6667 399.152 17.8133 399.332 17.92C399.512 18.02 399.719 18.07 399.952 18.07C400.192 18.07 400.402 18.0167 400.582 17.91C400.762 17.8033 400.902 17.6533 401.002 17.46C401.109 17.2667 401.162 17.04 401.162 16.78V13.59H402.282V19H401.212V17.94L401.332 18.08C401.206 18.4133 400.996 18.67 400.702 18.85C400.409 19.03 400.066 19.12 399.672 19.12ZM404.002 19V13.59H405.082V14.76L404.942 14.58C405.055 14.2133 405.262 13.9367 405.562 13.75C405.862 13.5633 406.205 13.47 406.592 13.47C407.025 13.47 407.408 13.5867 407.742 13.82C408.082 14.0467 408.308 14.35 408.422 14.73L408.102 14.76C408.262 14.3267 408.505 14.0033 408.832 13.79C409.165 13.5767 409.545 13.47 409.972 13.47C410.345 13.47 410.682 13.5567 410.982 13.73C411.288 13.9033 411.532 14.1433 411.712 14.45C411.892 14.7567 411.982 15.1067 411.982 15.5V19H410.852V15.81C410.852 15.5367 410.802 15.3067 410.702 15.12C410.608 14.9267 410.475 14.78 410.302 14.68C410.135 14.5733 409.938 14.52 409.712 14.52C409.485 14.52 409.285 14.5733 409.112 14.68C408.938 14.78 408.802 14.9267 408.702 15.12C408.602 15.3133 408.552 15.5433 408.552 15.81V19H407.432V15.81C407.432 15.5367 407.382 15.3067 407.282 15.12C407.188 14.9267 407.055 14.78 406.882 14.68C406.715 14.5733 406.515 14.52 406.282 14.52C406.055 14.52 405.855 14.5733 405.682 14.68C405.508 14.78 405.372 14.9267 405.272 15.12C405.178 15.3133 405.132 15.5433 405.132 15.81V19H404.002ZM413.881 20.47V19.92C414.101 19.8667 414.271 19.7633 414.391 19.61C414.511 19.4633 414.584 19.26 414.611 19H414.081V17.7H415.231V18.55C415.231 19.0833 415.118 19.5133 414.891 19.84C414.664 20.1667 414.328 20.3767 413.881 20.47ZM420.52 19V12.55H419.09V11.55H421.69V19H420.52ZM427.016 19V17.32H423.466V16.34L426.966 11.55H428.136V16.34H429.166V17.32H428.136V19H427.016ZM424.336 16.77L424.146 16.34H427.016V12.49L427.336 12.59L424.336 16.77Z" fill="white"/>
<path d="M373.189 91V83.55H375.899C376.399 83.55 376.839 83.6433 377.219 83.83C377.599 84.01 377.896 84.2767 378.109 84.63C378.329 84.9767 378.439 85.3933 378.439 85.88C378.439 86.3933 378.309 86.8333 378.049 87.2C377.796 87.5667 377.452 87.8333 377.019 88L378.739 91H377.399L375.569 87.75L376.339 88.2H374.369V91H373.189ZM374.369 87.15H375.919C376.192 87.15 376.429 87.0967 376.629 86.99C376.829 86.8833 376.982 86.7367 377.089 86.55C377.202 86.3567 377.259 86.13 377.259 85.87C377.259 85.61 377.202 85.3867 377.089 85.2C376.982 85.0067 376.829 84.86 376.629 84.76C376.429 84.6533 376.192 84.6 375.919 84.6H374.369V87.15ZM382.259 91.12C381.719 91.12 381.239 90.9967 380.819 90.75C380.406 90.4967 380.083 90.1567 379.849 89.73C379.616 89.2967 379.499 88.8133 379.499 88.28C379.499 87.7333 379.616 87.25 379.849 86.83C380.089 86.41 380.409 86.08 380.809 85.84C381.209 85.5933 381.663 85.47 382.169 85.47C382.576 85.47 382.939 85.54 383.259 85.68C383.579 85.82 383.849 86.0133 384.069 86.26C384.289 86.5 384.456 86.7767 384.569 87.09C384.689 87.4033 384.749 87.7367 384.749 88.09C384.749 88.1767 384.746 88.2667 384.739 88.36C384.733 88.4533 384.719 88.54 384.699 88.62H380.389V87.72H384.059L383.519 88.13C383.586 87.8033 383.563 87.5133 383.449 87.26C383.343 87 383.176 86.7967 382.949 86.65C382.729 86.4967 382.469 86.42 382.169 86.42C381.869 86.42 381.603 86.4967 381.369 86.65C381.136 86.7967 380.956 87.01 380.829 87.29C380.703 87.5633 380.653 87.8967 380.679 88.29C380.646 88.6567 380.696 88.9767 380.829 89.25C380.969 89.5233 381.163 89.7367 381.409 89.89C381.663 90.0433 381.949 90.12 382.269 90.12C382.596 90.12 382.873 90.0467 383.099 89.9C383.333 89.7533 383.516 89.5633 383.649 89.33L384.569 89.78C384.463 90.0333 384.296 90.2633 384.069 90.47C383.849 90.67 383.583 90.83 383.269 90.95C382.963 91.0633 382.626 91.12 382.259 91.12ZM388.862 93.2C388.469 93.2 388.105 93.1367 387.772 93.01C387.439 92.8833 387.152 92.7067 386.912 92.48C386.672 92.26 386.492 92 386.372 91.7L387.412 91.27C387.505 91.5233 387.675 91.7333 387.922 91.9C388.175 92.0667 388.485 92.15 388.852 92.15C389.139 92.15 389.395 92.0933 389.622 91.98C389.849 91.8733 390.029 91.7133 390.162 91.5C390.295 91.2933 390.362 91.0433 390.362 90.75V89.53L390.562 89.76C390.375 90.1067 390.115 90.37 389.782 90.55C389.455 90.73 389.085 90.82 388.672 90.82C388.172 90.82 387.722 90.7033 387.322 90.47C386.922 90.2367 386.605 89.9167 386.372 89.51C386.145 89.1033 386.032 88.6467 386.032 88.14C386.032 87.6267 386.145 87.17 386.372 86.77C386.605 86.37 386.919 86.0533 387.312 85.82C387.705 85.5867 388.155 85.47 388.662 85.47C389.075 85.47 389.442 85.56 389.762 85.74C390.089 85.9133 390.355 86.1667 390.562 86.5L390.412 86.78V85.59H391.482V90.75C391.482 91.2167 391.369 91.6333 391.142 92C390.922 92.3733 390.615 92.6667 390.222 92.88C389.829 93.0933 389.375 93.2 388.862 93.2ZM388.802 89.77C389.102 89.77 389.369 89.7 389.602 89.56C389.835 89.4133 390.019 89.22 390.152 88.98C390.292 88.7333 390.362 88.4567 390.362 88.15C390.362 87.8433 390.292 87.5667 390.152 87.32C390.012 87.0733 389.825 86.88 389.592 86.74C389.359 86.5933 389.095 86.52 388.802 86.52C388.495 86.52 388.222 86.5933 387.982 86.74C387.742 86.88 387.552 87.0733 387.412 87.32C387.279 87.56 387.212 87.8367 387.212 88.15C387.212 88.45 387.279 88.7233 387.412 88.97C387.552 89.2167 387.742 89.4133 387.982 89.56C388.222 89.7 388.495 89.77 388.802 89.77ZM395.135 91.12C394.728 91.12 394.371 91.03 394.065 90.85C393.758 90.6633 393.518 90.4067 393.345 90.08C393.178 89.7467 393.095 89.3633 393.095 88.93V85.59H394.225V88.83C394.225 89.0767 394.275 89.2933 394.375 89.48C394.475 89.6667 394.615 89.8133 394.795 89.92C394.975 90.02 395.181 90.07 395.415 90.07C395.655 90.07 395.865 90.0167 396.045 89.91C396.225 89.8033 396.365 89.6533 396.465 89.46C396.571 89.2667 396.625 89.04 396.625 88.78V85.59H397.745V91H396.675V89.94L396.795 90.08C396.668 90.4133 396.458 90.67 396.165 90.85C395.871 91.03 395.528 91.12 395.135 91.12ZM399.464 91V83.43H400.594V91H399.464ZM403.935 91.12C403.569 91.12 403.245 91.0567 402.965 90.93C402.692 90.7967 402.479 90.6167 402.325 90.39C402.172 90.1567 402.095 89.8833 402.095 89.57C402.095 89.2767 402.159 89.0133 402.285 88.78C402.419 88.5467 402.622 88.35 402.895 88.19C403.169 88.03 403.512 87.9167 403.925 87.85L405.805 87.54V88.43L404.145 88.72C403.845 88.7733 403.625 88.87 403.485 89.01C403.345 89.1433 403.275 89.3167 403.275 89.53C403.275 89.7367 403.352 89.9067 403.505 90.04C403.665 90.1667 403.869 90.23 404.115 90.23C404.422 90.23 404.689 90.1633 404.915 90.03C405.149 89.8967 405.329 89.72 405.455 89.5C405.582 89.2733 405.645 89.0233 405.645 88.75V87.36C405.645 87.0933 405.545 86.8767 405.345 86.71C405.152 86.5367 404.892 86.45 404.565 86.45C404.265 86.45 404.002 86.53 403.775 86.69C403.555 86.8433 403.392 87.0433 403.285 87.29L402.345 86.82C402.445 86.5533 402.609 86.32 402.835 86.12C403.062 85.9133 403.325 85.7533 403.625 85.64C403.932 85.5267 404.255 85.47 404.595 85.47C405.022 85.47 405.399 85.55 405.725 85.71C406.059 85.87 406.315 86.0933 406.495 86.38C406.682 86.66 406.775 86.9867 406.775 87.36V91H405.695V90.02L405.925 90.05C405.799 90.27 405.635 90.46 405.435 90.62C405.242 90.78 405.019 90.9033 404.765 90.99C404.519 91.0767 404.242 91.12 403.935 91.12ZM408.497 91V85.59H409.577V86.68L409.477 86.52C409.597 86.1667 409.79 85.9133 410.057 85.76C410.323 85.6 410.643 85.52 411.017 85.52H411.347V86.55H410.877C410.503 86.55 410.2 86.6667 409.967 86.9C409.74 87.1267 409.627 87.4533 409.627 87.88V91H408.497ZM412.409 92.47V91.92C412.629 91.8667 412.799 91.7633 412.919 91.61C413.039 91.4633 413.113 91.26 413.139 91H412.609V89.7H413.759V90.55C413.759 91.0833 413.646 91.5133 413.419 91.84C413.193 92.1667 412.856 92.3767 412.409 92.47ZM419.048 91V84.55H417.618V83.55H420.218V91H419.048ZM422.104 91V90.15L424.144 87.97C424.544 87.5433 424.858 87.2 425.084 86.94C425.318 86.6733 425.484 86.44 425.584 86.24C425.691 86.04 425.744 85.83 425.744 85.61C425.744 85.25 425.634 84.9733 425.414 84.78C425.194 84.58 424.911 84.48 424.564 84.48C424.204 84.48 423.894 84.5833 423.634 84.79C423.374 84.99 423.194 85.2833 423.094 85.67L422.054 85.37C422.134 84.9767 422.294 84.6367 422.534 84.35C422.774 84.0567 423.068 83.83 423.414 83.67C423.768 83.51 424.148 83.43 424.554 83.43C425.028 83.43 425.441 83.52 425.794 83.7C426.148 83.8733 426.421 84.1167 426.614 84.43C426.814 84.7433 426.914 85.1067 426.914 85.52C426.914 85.7933 426.861 86.06 426.754 86.32C426.654 86.5733 426.498 86.8433 426.284 87.13C426.071 87.41 425.798 87.7267 425.464 88.08L423.664 90H427.054V91H422.104Z" fill="white"/>
<path d="M373.189 163V155.55H375.899C376.399 155.55 376.839 155.643 377.219 155.83C377.599 156.01 377.896 156.277 378.109 156.63C378.329 156.977 378.439 157.393 378.439 157.88C378.439 158.393 378.309 158.833 378.049 159.2C377.796 159.567 377.452 159.833 377.019 160L378.739 163H377.399L375.569 159.75L376.339 160.2H374.369V163H373.189ZM374.369 159.15H375.919C376.192 159.15 376.429 159.097 376.629 158.99C376.829 158.883 376.982 158.737 377.089 158.55C377.202 158.357 377.259 158.13 377.259 157.87C377.259 157.61 377.202 157.387 377.089 157.2C376.982 157.007 376.829 156.86 376.629 156.76C376.429 156.653 376.192 156.6 375.919 156.6H374.369V159.15ZM382.259 163.12C381.719 163.12 381.239 162.997 380.819 162.75C380.406 162.497 380.083 162.157 379.849 161.73C379.616 161.297 379.499 160.813 379.499 160.28C379.499 159.733 379.616 159.25 379.849 158.83C380.089 158.41 380.409 158.08 380.809 157.84C381.209 157.593 381.663 157.47 382.169 157.47C382.576 157.47 382.939 157.54 383.259 157.68C383.579 157.82 383.849 158.013 384.069 158.26C384.289 158.5 384.456 158.777 384.569 159.09C384.689 159.403 384.749 159.737 384.749 160.09C384.749 160.177 384.746 160.267 384.739 160.36C384.733 160.453 384.719 160.54 384.699 160.62H380.389V159.72H384.059L383.519 160.13C383.586 159.803 383.563 159.513 383.449 159.26C383.343 159 383.176 158.797 382.949 158.65C382.729 158.497 382.469 158.42 382.169 158.42C381.869 158.42 381.603 158.497 381.369 158.65C381.136 158.797 380.956 159.01 380.829 159.29C380.703 159.563 380.653 159.897 380.679 160.29C380.646 160.657 380.696 160.977 380.829 161.25C380.969 161.523 381.163 161.737 381.409 161.89C381.663 162.043 381.949 162.12 382.269 162.12C382.596 162.12 382.873 162.047 383.099 161.9C383.333 161.753 383.516 161.563 383.649 161.33L384.569 161.78C384.463 162.033 384.296 162.263 384.069 162.47C383.849 162.67 383.583 162.83 383.269 162.95C382.963 163.063 382.626 163.12 382.259 163.12ZM388.862 165.2C388.469 165.2 388.105 165.137 387.772 165.01C387.439 164.883 387.152 164.707 386.912 164.48C386.672 164.26 386.492 164 386.372 163.7L387.412 163.27C387.505 163.523 387.675 163.733 387.922 163.9C388.175 164.067 388.485 164.15 388.852 164.15C389.139 164.15 389.395 164.093 389.622 163.98C389.849 163.873 390.029 163.713 390.162 163.5C390.295 163.293 390.362 163.043 390.362 162.75V161.53L390.562 161.76C390.375 162.107 390.115 162.37 389.782 162.55C389.455 162.73 389.085 162.82 388.672 162.82C388.172 162.82 387.722 162.703 387.322 162.47C386.922 162.237 386.605 161.917 386.372 161.51C386.145 161.103 386.032 160.647 386.032 160.14C386.032 159.627 386.145 159.17 386.372 158.77C386.605 158.37 386.919 158.053 387.312 157.82C387.705 157.587 388.155 157.47 388.662 157.47C389.075 157.47 389.442 157.56 389.762 157.74C390.089 157.913 390.355 158.167 390.562 158.5L390.412 158.78V157.59H391.482V162.75C391.482 163.217 391.369 163.633 391.142 164C390.922 164.373 390.615 164.667 390.222 164.88C389.829 165.093 389.375 165.2 388.862 165.2ZM388.802 161.77C389.102 161.77 389.369 161.7 389.602 161.56C389.835 161.413 390.019 161.22 390.152 160.98C390.292 160.733 390.362 160.457 390.362 160.15C390.362 159.843 390.292 159.567 390.152 159.32C390.012 159.073 389.825 158.88 389.592 158.74C389.359 158.593 389.095 158.52 388.802 158.52C388.495 158.52 388.222 158.593 387.982 158.74C387.742 158.88 387.552 159.073 387.412 159.32C387.279 159.56 387.212 159.837 387.212 160.15C387.212 160.45 387.279 160.723 387.412 160.97C387.552 161.217 387.742 161.413 387.982 161.56C388.222 161.7 388.495 161.77 388.802 161.77ZM395.135 163.12C394.728 163.12 394.371 163.03 394.065 162.85C393.758 162.663 393.518 162.407 393.345 162.08C393.178 161.747 393.095 161.363 393.095 160.93V157.59H394.225V160.83C394.225 161.077 394.275 161.293 394.375 161.48C394.475 161.667 394.615 161.813 394.795 161.92C394.975 162.02 395.181 162.07 395.415 162.07C395.655 162.07 395.865 162.017 396.045 161.91C396.225 161.803 396.365 161.653 396.465 161.46C396.571 161.267 396.625 161.04 396.625 160.78V157.59H397.745V163H396.675V161.94L396.795 162.08C396.668 162.413 396.458 162.67 396.165 162.85C395.871 163.03 395.528 163.12 395.135 163.12ZM399.464 163V155.43H400.594V163H399.464ZM403.935 163.12C403.569 163.12 403.245 163.057 402.965 162.93C402.692 162.797 402.479 162.617 402.325 162.39C402.172 162.157 402.095 161.883 402.095 161.57C402.095 161.277 402.159 161.013 402.285 160.78C402.419 160.547 402.622 160.35 402.895 160.19C403.169 160.03 403.512 159.917 403.925 159.85L405.805 159.54V160.43L404.145 160.72C403.845 160.773 403.625 160.87 403.485 161.01C403.345 161.143 403.275 161.317 403.275 161.53C403.275 161.737 403.352 161.907 403.505 162.04C403.665 162.167 403.869 162.23 404.115 162.23C404.422 162.23 404.689 162.163 404.915 162.03C405.149 161.897 405.329 161.72 405.455 161.5C405.582 161.273 405.645 161.023 405.645 160.75V159.36C405.645 159.093 405.545 158.877 405.345 158.71C405.152 158.537 404.892 158.45 404.565 158.45C404.265 158.45 404.002 158.53 403.775 158.69C403.555 158.843 403.392 159.043 403.285 159.29L402.345 158.82C402.445 158.553 402.609 158.32 402.835 158.12C403.062 157.913 403.325 157.753 403.625 157.64C403.932 157.527 404.255 157.47 404.595 157.47C405.022 157.47 405.399 157.55 405.725 157.71C406.059 157.87 406.315 158.093 406.495 158.38C406.682 158.66 406.775 158.987 406.775 159.36V163H405.695V162.02L405.925 162.05C405.799 162.27 405.635 162.46 405.435 162.62C405.242 162.78 405.019 162.903 404.765 162.99C404.519 163.077 404.242 163.12 403.935 163.12ZM408.497 163V157.59H409.577V158.68L409.477 158.52C409.597 158.167 409.79 157.913 410.057 157.76C410.323 157.6 410.643 157.52 411.017 157.52H411.347V158.55H410.877C410.503 158.55 410.2 158.667 409.967 158.9C409.74 159.127 409.627 159.453 409.627 159.88V163H408.497ZM412.409 164.47V163.92C412.629 163.867 412.799 163.763 412.919 163.61C413.039 163.463 413.113 163.26 413.139 163H412.609V161.7H413.759V162.55C413.759 163.083 413.646 163.513 413.419 163.84C413.193 164.167 412.856 164.377 412.409 164.47ZM419.048 163V156.55H417.618V155.55H420.218V163H419.048ZM422.104 163V162.15L424.144 159.97C424.544 159.543 424.858 159.2 425.084 158.94C425.318 158.673 425.484 158.44 425.584 158.24C425.691 158.04 425.744 157.83 425.744 157.61C425.744 157.25 425.634 156.973 425.414 156.78C425.194 156.58 424.911 156.48 424.564 156.48C424.204 156.48 423.894 156.583 423.634 156.79C423.374 156.99 423.194 157.283 423.094 157.67L422.054 157.37C422.134 156.977 422.294 156.637 422.534 156.35C422.774 156.057 423.068 155.83 423.414 155.67C423.768 155.51 424.148 155.43 424.554 155.43C425.028 155.43 425.441 155.52 425.794 155.7C426.148 155.873 426.421 156.117 426.614 156.43C426.814 156.743 426.914 157.107 426.914 157.52C426.914 157.793 426.861 158.06 426.754 158.32C426.654 158.573 426.498 158.843 426.284 159.13C426.071 159.41 425.798 159.727 425.464 160.08L423.664 162H427.054V163H422.104Z" fill="white"/>
</svg>
