<svg width="24" height="24" viewBox="0 0 24 24" fill="none" xmlns="http://www.w3.org/2000/svg">
<path fill-rule="evenodd" clip-rule="evenodd" d="M2.00439 0.0707308C1.55673 0.186983 1.18188 0.411736 0.805473 0.789942C0.419775 1.1759 0.252485 1.4487 0.0975862 1.94781L0 2.25781V11.992V21.7261L0.0975862 22.0361C0.252485 22.5352 0.419775 22.808 0.805473 23.194C1.19117 23.5799 1.46379 23.7473 1.96257 23.9023L2.27236 24H12H21.7276L22.0374 23.9023C22.5362 23.7473 22.8088 23.5799 23.1945 23.194C23.5802 22.808 23.7475 22.5352 23.9024 22.0361L24 21.7261V11.992V2.25781L23.9024 1.94781C23.7475 1.4487 23.5802 1.1759 23.1945 0.789942C22.8119 0.405536 22.4386 0.183883 21.977 0.0676308C21.6146 -0.0238206 2.35601 -0.0222706 2.00439 0.0707308ZM21.5572 2.42832L21.6657 2.53837V11.992V21.4456L21.5619 21.5494C21.5046 21.6068 21.4008 21.6657 21.3295 21.6796C21.1623 21.7137 2.83774 21.7137 2.67045 21.6796C2.5992 21.6657 2.49542 21.6068 2.43811 21.5494L2.33432 21.4456V11.992V2.53837L2.44275 2.42832L2.55273 2.31982H12H21.4473L21.5572 2.42832Z" fill="white"/>
<path d="M12.75 12.5C12.75 11.5335 13.5335 10.75 14.5 10.75C15.4665 10.75 16.25 11.5335 16.25 12.5C16.25 13.4665 15.4665 14.25 14.5 14.25C13.5335 14.25 12.75 13.4665 12.75 12.5Z" stroke="#1ABCFE" stroke-width="1.5"/>
<path d="M7.75 17.5C7.75 16.5335 8.53351 15.75 9.5 15.75H11.25V17.5C11.25 18.4665 10.4665 19.25 9.5 19.25C8.53351 19.25 7.75 18.4665 7.75 17.5Z" stroke="#0ACF83" stroke-width="1.5"/>
<path d="M14.5 9.25H12.75V5.75H14.5C15.4665 5.75 16.25 6.53351 16.25 7.5C16.25 8.46647 15.4665 9.25 14.5 9.25Z" stroke="#FF7262" stroke-width="1.5"/>
<path d="M9.5 9.25C8.53351 9.25 7.75 8.46648 7.75 7.5C7.75 6.5335 8.5335 5.75 9.5 5.75H11.25V9.25H9.5Z" stroke="#F24E1E" stroke-width="1.5"/>
<path d="M9.5 14.25C8.53351 14.25 7.75 13.4665 7.75 12.5C7.75 11.5335 8.53351 10.75 9.5 10.75H11.25V14.25H9.5Z" stroke="#A259FF" stroke-width="1.5"/>
</svg>
