<svg width="24" height="24" viewBox="0 0 24 24" fill="none" xmlns="http://www.w3.org/2000/svg">
<path fill-rule="evenodd" clip-rule="evenodd" d="M2.00439 0.0707308C1.55673 0.186983 1.18188 0.411736 0.805473 0.789942C0.419775 1.1759 0.252485 1.4487 0.0975862 1.94781L0 2.25781V11.992V21.7261L0.0975862 22.0361C0.252485 22.5352 0.419775 22.808 0.805473 23.194C1.19117 23.5799 1.46379 23.7473 1.96257 23.9023L2.27236 24H12H21.7276L22.0374 23.9023C22.5362 23.7473 22.8088 23.5799 23.1945 23.194C23.5802 22.808 23.7475 22.5352 23.9024 22.0361L24 21.7261V11.992V2.25781L23.9024 1.94781C23.7475 1.4487 23.5802 1.1759 23.1945 0.789942C22.8119 0.405536 22.4386 0.183883 21.977 0.0676308C21.6146 -0.0238206 2.35601 -0.0222706 2.00439 0.0707308ZM21.5572 2.42832L21.6657 2.53837V11.992V21.4456L21.5619 21.5494C21.5046 21.6068 21.4008 21.6657 21.3295 21.6796C21.1623 21.7137 2.83774 21.7137 2.67045 21.6796C2.5992 21.6657 2.49542 21.6068 2.43811 21.5494L2.33432 21.4456V11.992V2.53837L2.44275 2.42832L2.55273 2.31982H12H21.4473L21.5572 2.42832Z" fill="#DBDBDB"/>
<path fill-rule="evenodd" clip-rule="evenodd" d="M8.25 9.16078C8.25 7.82931 9.3581 6.75 10.725 6.75H14.025C15.3919 6.75 16.5 7.82931 16.5 9.16078C16.5 9.77814 16.2617 10.3414 15.8698 10.7679C16.2617 11.1944 16.5 11.7576 16.5 12.3751C16.5 13.7064 15.3919 14.7858 14.025 14.7858C13.7357 14.7858 13.458 14.7374 13.2 14.6486V15.5893C13.2 16.9207 12.0919 18 10.725 18C9.3581 18 8.25 16.9207 8.25 15.5893C8.25 14.9719 8.4883 14.4087 8.88021 13.9822C8.4883 13.5557 8.25 12.9924 8.25 12.3751C8.25 11.7576 8.4883 11.1944 8.88021 10.7679C8.4883 10.3414 8.25 9.77814 8.25 9.16078ZM10.725 11.5715C10.2694 11.5715 9.9 11.9312 9.9 12.3751C9.9 12.8189 10.2694 13.1787 10.725 13.1787H11.55V11.5715H10.725ZM11.55 9.96436H10.725C10.2694 9.96436 9.9 9.60457 9.9 9.16078C9.9 8.71688 10.2694 8.3572 10.725 8.3572H11.55V9.96436ZM14.025 9.96436C14.4806 9.96436 14.85 9.60457 14.85 9.16078C14.85 8.71688 14.4806 8.3572 14.025 8.3572H13.2V9.96436H14.025ZM14.025 11.5715C13.5694 11.5715 13.2 11.9312 13.2 12.3751C13.2 12.8189 13.5694 13.1787 14.025 13.1787C14.4806 13.1787 14.85 12.8189 14.85 12.3751C14.85 11.9312 14.4806 11.5715 14.025 11.5715ZM11.55 14.7858H10.725C10.2694 14.7858 9.9 15.1455 9.9 15.5893C9.9 16.0332 10.2694 16.3928 10.725 16.3928C11.1806 16.3928 11.55 16.0332 11.55 15.5893V14.7858Z" fill="#DBDBDB"/>
</svg>
