<svg width="168" height="96" viewBox="0 0 168 96" fill="none" xmlns="http://www.w3.org/2000/svg">
<path d="M0.666572 5.5C0.666572 8.44552 3.05439 10.8333 5.99991 10.8333C8.94542 10.8333 11.3332 8.44552 11.3332 5.5C11.3332 2.55448 8.94542 0.166667 5.99991 0.166667C3.05439 0.166667 0.666572 2.55448 0.666572 5.5ZM5.99991 74L6.99736 74.0712L6.99991 74.0357V74H5.99991ZM166.5 96C167.052 96 167.5 95.5523 167.5 95C167.5 94.4477 167.052 94 166.5 94V96ZM4.99991 5.5V74H6.99991V5.5H4.99991ZM5.00245 73.9288C4.74026 77.5994 5.51899 83.0925 8.74317 87.6985C12.0076 92.362 17.7003 96 26.9999 96V94C18.2995 94 13.2422 90.638 10.3816 86.5515C7.48082 82.4075 6.75955 77.4006 6.99736 74.0712L5.00245 73.9288ZM26.9999 96C27.0351 96 27.0705 96 27.1061 96C27.1418 96 27.1777 96 27.2138 96C27.2499 96 27.2863 96 27.3229 96C27.3596 96 27.3964 96 27.4335 96C27.4707 96 27.508 96 27.5456 96C27.5832 96 27.621 96 27.6591 96C27.6972 96 27.7355 96 27.7741 96C27.8126 96 27.8514 96 27.8905 96C27.9295 96 27.9688 96 28.0083 96C28.0478 96 28.0876 96 28.1276 96C28.1676 96 28.2078 96 28.2483 96C28.2888 96 28.3295 96 28.3704 96C28.4114 96 28.4526 96 28.494 96C28.5354 96 28.577 96 28.6189 96C28.6608 96 28.7029 96 28.7453 96C28.7877 96 28.8303 96 28.8731 96C28.9159 96 28.959 96 29.0022 96C29.0455 96 29.0891 96 29.1328 96C29.1766 96 29.2205 96 29.2648 96C29.309 96 29.3534 96 29.3981 96C29.4428 96 29.4877 96 29.5328 96C29.578 96 29.6233 96 29.6689 96C29.7145 96 29.7603 96 29.8064 96C29.8524 96 29.8987 96 29.9452 96C29.9917 96 30.0384 96 30.0854 96C30.1323 96 30.1795 96 30.2269 96C30.2743 96 30.322 96 30.3698 96C30.4177 96 30.4658 96 30.5141 96C30.5624 96 30.6109 96 30.6597 96C30.7084 96 30.7574 96 30.8066 96C30.8558 96 30.9052 96 30.9548 96C31.0045 96 31.0543 96 31.1044 96C31.1545 96 31.2048 96 31.2553 96C31.3058 96 31.3566 96 31.4075 96C31.4585 96 31.5096 96 31.561 96C31.6124 96 31.664 96 31.7159 96C31.7677 96 31.8197 96 31.872 96C31.9243 96 31.9768 96 32.0294 96C32.0821 96 32.135 96 32.1882 96C32.2413 96 32.2946 96 32.3482 96C32.4017 96 32.4555 96 32.5095 96C32.5635 96 32.6177 96 32.6721 96C32.7265 96 32.7811 96 32.8359 96C32.8907 96 32.9458 96 33.001 96C33.0563 96 33.1117 96 33.1674 96C33.2231 96 33.279 96 33.3351 96C33.3911 96 33.4474 96 33.504 96C33.5605 96 33.6172 96 33.6741 96C33.731 96 33.7882 96 33.8455 96C33.9028 96 33.9604 96 34.0181 96C34.0759 96 34.1338 96 34.192 96C34.2501 96 34.3085 96 34.3671 96C34.4257 96 34.4844 96 34.5434 96C34.6024 96 34.6616 96 34.7209 96C34.7803 96 34.8399 96 34.8997 96C34.9595 96 35.0195 96 35.0797 96C35.1399 96 35.2002 96 35.2608 96C35.3214 96 35.3822 96 35.4432 96C35.5042 96 35.5654 96 35.6268 96C35.6882 96 35.7498 96 35.8115 96C35.8733 96 35.9353 96 35.9975 96C36.0597 96 36.122 96 36.1846 96C36.2472 96 36.31 96 36.3729 96C36.4359 96 36.4991 96 36.5624 96C36.6258 96 36.6893 96 36.7531 96C36.8168 96 36.8807 96 36.9449 96C37.009 96 37.0733 96 37.1378 96C37.2023 96 37.2671 96 37.332 96C37.3968 96 37.4619 96 37.5272 96C37.5925 96 37.658 96 37.7236 96C37.7893 96 37.8551 96 37.9212 96C37.9872 96 38.0534 96 38.1199 96C38.1863 96 38.2529 96 38.3197 96C38.3865 96 38.4534 96 38.5206 96C38.5878 96 38.6551 96 38.7227 96C38.7902 96 38.8579 96 38.9258 96C38.9937 96 39.0618 96 39.1301 96C39.1984 96 39.2668 96 39.3355 96C39.4041 96 39.473 96 39.542 96C39.611 96 39.6802 96 39.7495 96C39.8189 96 39.8885 96 39.9582 96C40.0279 96 40.0979 96 40.168 96C40.2381 96 40.3083 96 40.3788 96C40.4493 96 40.5199 96 40.5907 96C40.6615 96 40.7325 96 40.8037 96C40.8749 96 40.9462 96 41.0177 96C41.0893 96 41.161 96 41.2328 96C41.3047 96 41.3768 96 41.449 96C41.5212 96 41.5936 96 41.6662 96C41.7388 96 41.8115 96 41.8845 96C41.9574 96 42.0305 96 42.1038 96C42.177 96 42.2505 96 42.3241 96C42.3977 96 42.4715 96 42.5455 96C42.6194 96 42.6936 96 42.7679 96C42.8422 96 42.9167 96 42.9913 96C43.0659 96 43.1408 96 43.2157 96C43.2907 96 43.3659 96 43.4412 96C43.5165 96 43.592 96 43.6676 96C43.7433 96 43.8191 96 43.8951 96C43.9711 96 44.0472 96 44.1236 96C44.1999 96 44.2764 96 44.353 96C44.4297 96 44.5065 96 44.5835 96C44.6604 96 44.7376 96 44.8149 96C44.8922 96 44.9697 96 45.0473 96C45.1249 96 45.2027 96 45.2807 96C45.3586 96 45.4367 96 45.515 96C45.5933 96 45.6717 96 45.7503 96C45.8289 96 45.9077 96 45.9866 96C46.0655 96 46.1446 96 46.2238 96C46.3031 96 46.3825 96 46.462 96C46.5416 96 46.6213 96 46.7011 96C46.781 96 46.861 96 46.9412 96C47.0214 96 47.1017 96 47.1822 96C47.2627 96 47.3433 96 47.4241 96C47.5049 96 47.5859 96 47.667 96C47.7481 96 47.8293 96 47.9108 96C47.9922 96 48.0737 96 48.1555 96C48.2372 96 48.319 96 48.4011 96C48.4831 96 48.5652 96 48.6476 96C48.7299 96 48.8124 96 48.895 96C48.9776 96 49.0604 96 49.1433 96C49.2262 96 49.3093 96 49.3925 96C49.4757 96 49.5591 96 49.6426 96C49.7261 96 49.8097 96 49.8936 96C49.9774 96 50.0613 96 50.1454 96C50.2295 96 50.3137 96 50.3981 96C50.4825 96 50.567 96 50.6517 96C50.7364 96 50.8212 96 50.9062 96C50.9911 96 51.0762 96 51.1615 96C51.2467 96 51.3321 96 51.4176 96C51.5032 96 51.5888 96 51.6747 96C51.7605 96 51.8464 96 51.9325 96C52.0186 96 52.1048 96 52.1912 96C52.2776 96 52.3641 96 52.4507 96C52.5374 96 52.6242 96 52.7111 96C52.798 96 52.8851 96 52.9723 96C53.0595 96 53.1468 96 53.2343 96C53.3218 96 53.4094 96 53.4971 96C53.5849 96 53.6727 96 53.7607 96C53.8487 96 53.9369 96 54.0252 96C54.1134 96 54.2019 96 54.2904 96C54.3789 96 54.4676 96 54.5564 96C54.6452 96 54.7342 96 54.8233 96C54.9123 96 55.0015 96 55.0909 96C55.1802 96 55.2697 96 55.3592 96C55.4488 96 55.5386 96 55.6284 96C55.7183 96 55.8082 96 55.8983 96C55.9885 96 56.0787 96 56.1691 96C56.2594 96 56.3499 96 56.4405 96C56.5311 96 56.6219 96 56.7127 96C56.8036 96 56.8946 96 56.9857 96C57.0768 96 57.1681 96 57.2594 96C57.3508 96 57.4423 96 57.5339 96C57.6255 96 57.7172 96 57.8091 96C57.9009 96 57.9929 96 58.085 96C58.1771 96 58.2693 96 58.3617 96C58.454 96 58.5465 96 58.6391 96C58.7316 96 58.8243 96 58.9172 96C59.01 96 59.1029 96 59.196 96C59.289 96 59.3822 96 59.4755 96C59.5688 96 59.6622 96 59.7557 96C59.8493 96 59.9429 96 60.0367 96C60.1304 96 60.2243 96 60.3183 96C60.4123 96 60.5064 96 60.6006 96C60.6948 96 60.7891 96 60.8836 96C60.978 96 61.0726 96 61.1673 96C61.2619 96 61.3567 96 61.4516 96C61.5465 96 61.6415 96 61.7366 96C61.8317 96 61.927 96 62.0223 96C62.1177 96 62.2131 96 62.3087 96C62.4042 96 62.4999 96 62.5957 96C62.6914 96 62.7873 96 62.8833 96C62.9793 96 63.0754 96 63.1716 96C63.2678 96 63.3641 96 63.4605 96C63.557 96 63.6535 96 63.7501 96C63.8468 96 63.9435 96 64.0403 96C64.1372 96 64.2341 96 64.3312 96C64.4282 96 64.5254 96 64.6226 96C64.7199 96 64.8172 96 64.9147 96C65.0121 96 65.1097 96 65.2074 96C65.305 96 65.4028 96 65.5007 96C65.5985 96 65.6965 96 65.7946 96C65.8926 96 65.9908 96 66.089 96C66.1873 96 66.2857 96 66.3841 96C66.4826 96 66.5811 96 66.6798 96C66.7785 96 66.8772 96 66.9761 96C67.0749 96 67.1738 96 67.2729 96C67.3719 96 67.4711 96 67.5703 96C67.6695 96 67.7688 96 67.8683 96C67.9677 96 68.0672 96 68.1668 96C68.2664 96 68.3661 96 68.4659 96C68.5657 96 68.6656 96 68.7656 96C68.8655 96 68.9656 96 69.0658 96C69.1659 96 69.2662 96 69.3665 96C69.4668 96 69.5673 96 69.6678 96C69.7683 96 69.8689 96 69.9696 96C70.0703 96 70.1711 96 70.272 96C70.3728 96 70.4738 96 70.5748 96C70.6759 96 70.777 96 70.8782 96C70.9794 96 71.0807 96 71.1821 96C71.2835 96 71.385 96 71.4866 96C71.5881 96 71.6898 96 71.7915 96C71.8932 96 71.995 96 72.0969 96C72.1988 96 72.3008 96 72.4028 96C72.5049 96 72.607 96 72.7093 96C72.8115 96 72.9138 96 73.0162 96C73.1185 96 73.221 96 73.3235 96C73.4261 96 73.5287 96 73.6314 96C73.7341 96 73.8369 96 73.9397 96C74.0426 96 74.1455 96 74.2485 96C74.3515 96 74.4546 96 74.5578 96C74.661 96 74.7642 96 74.8675 96C74.9708 96 75.0742 96 75.1777 96C75.2812 96 75.3847 96 75.4883 96C75.5919 96 75.6956 96 75.7994 96C75.9031 96 76.007 96 76.1109 96C76.2148 96 76.3188 96 76.4228 96C76.5269 96 76.631 96 76.7352 96C76.8394 96 76.9436 96 77.048 96C77.1523 96 77.2567 96 77.3612 96C77.4656 96 77.5702 96 77.6748 96C77.7794 96 77.8841 96 77.9888 96C78.0936 96 78.1984 96 78.3033 96C78.4081 96 78.5131 96 78.6181 96C78.7231 96 78.8282 96 78.9333 96C79.0385 96 79.1437 96 79.2489 96C79.3542 96 79.4596 96 79.565 96C79.6703 96 79.7758 96 79.8813 96C79.9869 96 80.0925 96 80.1981 96C80.3037 96 80.4095 96 80.5152 96C80.621 96 80.7268 96 80.8327 96C80.9386 96 81.0446 96 81.1506 96C81.2566 96 81.3627 96 81.4688 96C81.5749 96 81.6811 96 81.7874 96C81.8936 96 81.9999 96 82.1063 96C82.2126 96 82.3191 96 82.4255 96C82.532 96 82.6385 96 82.7451 96C82.8517 96 82.9584 96 83.065 96C83.1717 96 83.2785 96 83.3853 96C83.4921 96 83.599 96 83.7059 96C83.8128 96 83.9197 96 84.0268 96C84.1338 96 84.2408 96 84.348 96C84.4551 96 84.5623 96 84.6695 96C84.7767 96 84.884 96 84.9913 96C85.0986 96 85.206 96 85.3134 96C85.4208 96 85.5283 96 85.6358 96C85.7433 96 85.8509 96 85.9585 96C86.0661 96 86.1738 96 86.2815 96C86.3892 96 86.4969 96 86.6047 96C86.7125 96 86.8204 96 86.9283 96C87.0362 96 87.1441 96 87.2521 96C87.36 96 87.4681 96 87.5761 96C87.6842 96 87.7923 96 87.9005 96C88.0086 96 88.1168 96 88.225 96C88.3333 96 88.4416 96 88.5499 96C88.6582 96 88.7665 96 88.8749 96C88.9833 96 89.0918 96 89.2003 96C89.3087 96 89.4173 96 89.5258 96C89.6344 96 89.743 96 89.8516 96C89.9602 96 90.0689 96 90.1776 96C90.2863 96 90.395 96 90.5038 96C90.6126 96 90.7214 96 90.8303 96C90.9391 96 91.048 96 91.1569 96C91.2658 96 91.3748 96 91.4838 96C91.5928 96 91.7018 96 91.8109 96C91.9199 96 92.029 96 92.1381 96C92.2472 96 92.3564 96 92.4656 96C92.5747 96 92.684 96 92.7932 96C92.9024 96 93.0117 96 93.121 96C93.2303 96 93.3397 96 93.449 96C93.5584 96 93.6678 96 93.7772 96C93.8866 96 93.9961 96 94.1055 96C94.215 96 94.3245 96 94.434 96C94.5436 96 94.6531 96 94.7627 96C94.8723 96 94.9819 96 95.0915 96C95.2011 96 95.3108 96 95.4205 96C95.5302 96 95.6399 96 95.7496 96C95.8593 96 95.9691 96 96.0788 96C96.1886 96 96.2984 96 96.4082 96C96.518 96 96.6279 96 96.7377 96C96.8476 96 96.9575 96 97.0674 96C97.1773 96 97.2872 96 97.3971 96C97.507 96 97.617 96 97.727 96C97.837 96 97.947 96 98.057 96C98.167 96 98.277 96 98.387 96C98.4971 96 98.6072 96 98.7172 96C98.8273 96 98.9374 96 99.0475 96C99.1576 96 99.2677 96 99.3779 96C99.488 96 99.5982 96 99.7083 96C99.8185 96 99.9287 96 100.039 96C100.149 96 100.259 96 100.369 96C100.48 96 100.59 96 100.7 96C100.81 96 100.921 96 101.031 96C101.141 96 101.251 96 101.362 96C101.472 96 101.582 96 101.693 96C101.803 96 101.913 96 102.024 96C102.134 96 102.244 96 102.354 96C102.465 96 102.575 96 102.686 96C102.796 96 102.906 96 103.017 96C103.127 96 103.237 96 103.348 96C103.458 96 103.568 96 103.679 96C103.789 96 103.899 96 104.01 96C104.12 96 104.231 96 104.341 96C104.451 96 104.562 96 104.672 96C104.783 96 104.893 96 105.003 96C105.114 96 105.224 96 105.335 96C105.445 96 105.555 96 105.666 96C105.776 96 105.886 96 105.997 96C106.107 96 106.218 96 106.328 96C106.438 96 106.549 96 106.659 96C106.77 96 106.88 96 106.99 96C107.101 96 107.211 96 107.321 96C107.432 96 107.542 96 107.652 96C107.763 96 107.873 96 107.984 96C108.094 96 108.204 96 108.315 96C108.425 96 108.535 96 108.645 96C108.756 96 108.866 96 108.976 96C109.087 96 109.197 96 109.307 96C109.417 96 109.528 96 109.638 96C109.748 96 109.858 96 109.969 96C110.079 96 110.189 96 110.299 96C110.41 96 110.52 96 110.63 96C110.74 96 110.85 96 110.96 96C111.071 96 111.181 96 111.291 96C111.401 96 111.511 96 111.621 96C111.731 96 111.841 96 111.951 96C112.061 96 112.172 96 112.282 96C112.392 96 112.502 96 112.612 96C112.722 96 112.832 96 112.942 96C113.051 96 113.161 96 113.271 96C113.381 96 113.491 96 113.601 96C113.711 96 113.821 96 113.931 96C114.04 96 114.15 96 114.26 96C114.37 96 114.48 96 114.589 96C114.699 96 114.809 96 114.919 96C115.028 96 115.138 96 115.248 96C115.357 96 115.467 96 115.577 96C115.686 96 115.796 96 115.905 96C116.015 96 116.124 96 116.234 96C116.343 96 116.453 96 116.562 96C116.672 96 116.781 96 116.891 96C117 96 117.109 96 117.219 96C117.328 96 117.437 96 117.547 96C117.656 96 117.765 96 117.874 96C117.984 96 118.093 96 118.202 96C118.311 96 118.42 96 118.529 96C118.638 96 118.747 96 118.856 96C118.965 96 119.074 96 119.183 96C119.292 96 119.401 96 119.51 96C119.619 96 119.728 96 119.837 96C119.946 96 120.054 96 120.163 96C120.272 96 120.381 96 120.489 96C120.598 96 120.707 96 120.815 96C120.924 96 121.032 96 121.141 96C121.249 96 121.358 96 121.466 96C121.575 96 121.683 96 121.791 96C121.9 96 122.008 96 122.116 96C122.225 96 122.333 96 122.441 96C122.549 96 122.658 96 122.766 96C122.874 96 122.982 96 123.09 96C123.198 96 123.306 96 123.414 96C123.522 96 123.63 96 123.737 96C123.845 96 123.953 96 124.061 96C124.169 96 124.276 96 124.384 96C124.492 96 124.599 96 124.707 96C124.814 96 124.922 96 125.029 96C125.137 96 125.244 96 125.352 96C125.459 96 125.566 96 125.674 96C125.781 96 125.888 96 125.995 96C126.103 96 126.21 96 126.317 96C126.424 96 126.531 96 126.638 96C126.745 96 126.852 96 126.959 96C127.065 96 127.172 96 127.279 96C127.386 96 127.492 96 127.599 96C127.706 96 127.812 96 127.919 96C128.025 96 128.132 96 128.238 96C128.345 96 128.451 96 128.557 96C128.664 96 128.77 96 128.876 96C128.982 96 129.088 96 129.195 96C129.301 96 129.407 96 129.513 96C129.619 96 129.724 96 129.83 96C129.936 96 130.042 96 130.148 96C130.253 96 130.359 96 130.465 96C130.57 96 130.676 96 130.781 96C130.887 96 130.992 96 131.097 96C131.203 96 131.308 96 131.413 96C131.518 96 131.624 96 131.729 96C131.834 96 131.939 96 132.044 96C132.149 96 132.254 96 132.358 96C132.463 96 132.568 96 132.673 96C132.777 96 132.882 96 132.987 96C133.091 96 133.196 96 133.3 96C133.404 96 133.509 96 133.613 96C133.717 96 133.821 96 133.926 96C134.03 96 134.134 96 134.238 96C134.342 96 134.446 96 134.55 96C134.653 96 134.757 96 134.861 96C134.965 96 135.068 96 135.172 96C135.275 96 135.379 96 135.482 96C135.586 96 135.689 96 135.792 96C135.895 96 135.999 96 136.102 96C136.205 96 136.308 96 136.411 96C136.514 96 136.616 96 136.719 96C136.822 96 136.925 96 137.027 96C137.13 96 137.233 96 137.335 96C137.438 96 137.54 96 137.642 96C137.745 96 137.847 96 137.949 96C138.051 96 138.153 96 138.255 96C138.357 96 138.459 96 138.561 96C138.663 96 138.764 96 138.866 96C138.968 96 139.069 96 139.171 96C139.272 96 139.374 96 139.475 96C139.576 96 139.677 96 139.779 96C139.88 96 139.981 96 140.082 96C140.183 96 140.284 96 140.384 96C140.485 96 140.586 96 140.687 96C140.787 96 140.888 96 140.988 96C141.089 96 141.189 96 141.289 96C141.389 96 141.49 96 141.59 96C141.69 96 141.79 96 141.89 96C141.989 96 142.089 96 142.189 96C142.289 96 142.388 96 142.488 96C142.587 96 142.687 96 142.786 96C142.885 96 142.985 96 143.084 96C143.183 96 143.282 96 143.381 96C143.48 96 143.579 96 143.678 96C143.776 96 143.875 96 143.974 96C144.072 96 144.171 96 144.269 96C144.367 96 144.466 96 144.564 96C144.662 96 144.76 96 144.858 96C144.956 96 145.054 96 145.152 96C145.249 96 145.347 96 145.445 96C145.542 96 145.64 96 145.737 96C145.834 96 145.932 96 146.029 96C146.126 96 146.223 96 146.32 96C146.417 96 146.514 96 146.611 96C146.707 96 146.804 96 146.901 96C146.997 96 147.094 96 147.19 96C147.286 96 147.382 96 147.479 96C147.575 96 147.671 96 147.767 96C147.862 96 147.958 96 148.054 96C148.15 96 148.245 96 148.341 96C148.436 96 148.531 96 148.627 96C148.722 96 148.817 96 148.912 96C149.007 96 149.102 96 149.197 96C149.292 96 149.386 96 149.481 96C149.575 96 149.67 96 149.764 96C149.859 96 149.953 96 150.047 96C150.141 96 150.235 96 150.329 96C150.423 96 150.517 96 150.61 96C150.704 96 150.797 96 150.891 96C150.984 96 151.078 96 151.171 96C151.264 96 151.357 96 151.45 96C151.543 96 151.636 96 151.728 96C151.821 96 151.914 96 152.006 96C152.099 96 152.191 96 152.283 96C152.376 96 152.468 96 152.56 96C152.652 96 152.743 96 152.835 96C152.927 96 153.019 96 153.11 96C153.202 96 153.293 96 153.384 96C153.475 96 153.567 96 153.658 96C153.749 96 153.839 96 153.93 96C154.021 96 154.112 96 154.202 96C154.293 96 154.383 96 154.473 96C154.564 96 154.654 96 154.744 96C154.834 96 154.923 96 155.013 96C155.103 96 155.193 96 155.282 96C155.372 96 155.461 96 155.55 96C155.639 96 155.728 96 155.817 96C155.906 96 155.995 96 156.084 96C156.172 96 156.261 96 156.349 96C156.438 96 156.526 96 156.614 96C156.703 96 156.791 96 156.878 96C156.966 96 157.054 96 157.142 96C157.229 96 157.317 96 157.404 96C157.492 96 157.579 96 157.666 96C157.753 96 157.84 96 157.927 96C158.013 96 158.1 96 158.187 96C158.273 96 158.36 96 158.446 96C158.532 96 158.618 96 158.704 96C158.79 96 158.876 96 158.962 96C159.047 96 159.133 96 159.218 96C159.304 96 159.389 96 159.474 96C159.559 96 159.644 96 159.729 96C159.814 96 159.898 96 159.983 96C160.068 96 160.152 96 160.236 96C160.32 96 160.405 96 160.489 96C160.573 96 160.656 96 160.74 96C160.824 96 160.907 96 160.991 96C161.074 96 161.157 96 161.24 96C161.323 96 161.406 96 161.489 96C161.572 96 161.655 96 161.737 96C161.819 96 161.902 96 161.984 96C162.066 96 162.148 96 162.23 96C162.312 96 162.394 96 162.475 96C162.557 96 162.638 96 162.72 96C162.801 96 162.882 96 162.963 96C163.044 96 163.125 96 163.205 96C163.286 96 163.367 96 163.447 96C163.527 96 163.607 96 163.688 96C163.768 96 163.847 96 163.927 96C164.007 96 164.086 96 164.166 96C164.245 96 164.325 96 164.404 96C164.483 96 164.562 96 164.64 96C164.719 96 164.798 96 164.876 96C164.955 96 165.033 96 165.111 96C165.189 96 165.267 96 165.345 96C165.423 96 165.501 96 165.578 96C165.656 96 165.733 96 165.81 96C165.887 96 165.964 96 166.041 96C166.118 96 166.194 96 166.271 96C166.347 96 166.424 96 166.5 96V94C166.424 94 166.347 94 166.271 94C166.194 94 166.118 94 166.041 94C165.964 94 165.887 94 165.81 94C165.733 94 165.656 94 165.578 94C165.501 94 165.423 94 165.345 94C165.267 94 165.189 94 165.111 94C165.033 94 164.955 94 164.876 94C164.798 94 164.719 94 164.64 94C164.562 94 164.483 94 164.404 94C164.325 94 164.245 94 164.166 94C164.086 94 164.007 94 163.927 94C163.847 94 163.768 94 163.688 94C163.607 94 163.527 94 163.447 94C163.367 94 163.286 94 163.205 94C163.125 94 163.044 94 162.963 94C162.882 94 162.801 94 162.72 94C162.638 94 162.557 94 162.475 94C162.394 94 162.312 94 162.23 94C162.148 94 162.066 94 161.984 94C161.902 94 161.819 94 161.737 94C161.655 94 161.572 94 161.489 94C161.406 94 161.323 94 161.24 94C161.157 94 161.074 94 160.991 94C160.907 94 160.824 94 160.74 94C160.656 94 160.573 94 160.489 94C160.405 94 160.32 94 160.236 94C160.152 94 160.068 94 159.983 94C159.898 94 159.814 94 159.729 94C159.644 94 159.559 94 159.474 94C159.389 94 159.304 94 159.218 94C159.133 94 159.047 94 158.962 94C158.876 94 158.79 94 158.704 94C158.618 94 158.532 94 158.446 94C158.36 94 158.273 94 158.187 94C158.1 94 158.013 94 157.927 94C157.84 94 157.753 94 157.666 94C157.579 94 157.492 94 157.404 94C157.317 94 157.229 94 157.142 94C157.054 94 156.966 94 156.878 94C156.791 94 156.703 94 156.614 94C156.526 94 156.438 94 156.349 94C156.261 94 156.172 94 156.084 94C155.995 94 155.906 94 155.817 94C155.728 94 155.639 94 155.55 94C155.461 94 155.372 94 155.282 94C155.193 94 155.103 94 155.013 94C154.923 94 154.834 94 154.744 94C154.654 94 154.564 94 154.473 94C154.383 94 154.293 94 154.202 94C154.112 94 154.021 94 153.93 94C153.839 94 153.749 94 153.658 94C153.567 94 153.475 94 153.384 94C153.293 94 153.202 94 153.11 94C153.019 94 152.927 94 152.835 94C152.743 94 152.652 94 152.56 94C152.468 94 152.376 94 152.283 94C152.191 94 152.099 94 152.006 94C151.914 94 151.821 94 151.728 94C151.636 94 151.543 94 151.45 94C151.357 94 151.264 94 151.171 94C151.078 94 150.984 94 150.891 94C150.797 94 150.704 94 150.61 94C150.517 94 150.423 94 150.329 94C150.235 94 150.141 94 150.047 94C149.953 94 149.859 94 149.764 94C149.67 94 149.575 94 149.481 94C149.386 94 149.292 94 149.197 94C149.102 94 149.007 94 148.912 94C148.817 94 148.722 94 148.627 94C148.531 94 148.436 94 148.341 94C148.245 94 148.15 94 148.054 94C147.958 94 147.862 94 147.767 94C147.671 94 147.575 94 147.479 94C147.382 94 147.286 94 147.19 94C147.094 94 146.997 94 146.901 94C146.804 94 146.707 94 146.611 94C146.514 94 146.417 94 146.32 94C146.223 94 146.126 94 146.029 94C145.932 94 145.834 94 145.737 94C145.64 94 145.542 94 145.445 94C145.347 94 145.249 94 145.152 94C145.054 94 144.956 94 144.858 94C144.76 94 144.662 94 144.564 94C144.466 94 144.367 94 144.269 94C144.171 94 144.072 94 143.974 94C143.875 94 143.776 94 143.678 94C143.579 94 143.48 94 143.381 94C143.282 94 143.183 94 143.084 94C142.985 94 142.885 94 142.786 94C142.687 94 142.587 94 142.488 94C142.388 94 142.289 94 142.189 94C142.089 94 141.989 94 141.89 94C141.79 94 141.69 94 141.59 94C141.49 94 141.389 94 141.289 94C141.189 94 141.089 94 140.988 94C140.888 94 140.787 94 140.687 94C140.586 94 140.485 94 140.384 94C140.284 94 140.183 94 140.082 94C139.981 94 139.88 94 139.779 94C139.677 94 139.576 94 139.475 94C139.374 94 139.272 94 139.171 94C139.069 94 138.968 94 138.866 94C138.764 94 138.663 94 138.561 94C138.459 94 138.357 94 138.255 94C138.153 94 138.051 94 137.949 94C137.847 94 137.745 94 137.642 94C137.54 94 137.438 94 137.335 94C137.233 94 137.13 94 137.027 94C136.925 94 136.822 94 136.719 94C136.616 94 136.514 94 136.411 94C136.308 94 136.205 94 136.102 94C135.999 94 135.895 94 135.792 94C135.689 94 135.586 94 135.482 94C135.379 94 135.275 94 135.172 94C135.068 94 134.965 94 134.861 94C134.757 94 134.653 94 134.55 94C134.446 94 134.342 94 134.238 94C134.134 94 134.03 94 133.926 94C133.821 94 133.717 94 133.613 94C133.509 94 133.404 94 133.3 94C133.196 94 133.091 94 132.987 94C132.882 94 132.777 94 132.673 94C132.568 94 132.463 94 132.358 94C132.254 94 132.149 94 132.044 94C131.939 94 131.834 94 131.729 94C131.624 94 131.518 94 131.413 94C131.308 94 131.203 94 131.097 94C130.992 94 130.887 94 130.781 94C130.676 94 130.57 94 130.465 94C130.359 94 130.253 94 130.148 94C130.042 94 129.936 94 129.83 94C129.724 94 129.619 94 129.513 94C129.407 94 129.301 94 129.195 94C129.088 94 128.982 94 128.876 94C128.77 94 128.664 94 128.557 94C128.451 94 128.345 94 128.238 94C128.132 94 128.025 94 127.919 94C127.812 94 127.706 94 127.599 94C127.492 94 127.386 94 127.279 94C127.172 94 127.065 94 126.959 94C126.852 94 126.745 94 126.638 94C126.531 94 126.424 94 126.317 94C126.21 94 126.103 94 125.995 94C125.888 94 125.781 94 125.674 94C125.566 94 125.459 94 125.352 94C125.244 94 125.137 94 125.029 94C124.922 94 124.814 94 124.707 94C124.599 94 124.492 94 124.384 94C124.276 94 124.169 94 124.061 94C123.953 94 123.845 94 123.737 94C123.63 94 123.522 94 123.414 94C123.306 94 123.198 94 123.09 94C122.982 94 122.874 94 122.766 94C122.658 94 122.549 94 122.441 94C122.333 94 122.225 94 122.116 94C122.008 94 121.9 94 121.791 94C121.683 94 121.575 94 121.466 94C121.358 94 121.249 94 121.141 94C121.032 94 120.924 94 120.815 94C120.707 94 120.598 94 120.489 94C120.381 94 120.272 94 120.163 94C120.054 94 119.946 94 119.837 94C119.728 94 119.619 94 119.51 94C119.401 94 119.292 94 119.183 94C119.074 94 118.965 94 118.856 94C118.747 94 118.638 94 118.529 94C118.42 94 118.311 94 118.202 94C118.093 94 117.984 94 117.874 94C117.765 94 117.656 94 117.547 94C117.437 94 117.328 94 117.219 94C117.109 94 117 94 116.891 94C116.781 94 116.672 94 116.562 94C116.453 94 116.343 94 116.234 94C116.124 94 116.015 94 115.905 94C115.796 94 115.686 94 115.577 94C115.467 94 115.357 94 115.248 94C115.138 94 115.028 94 114.919 94C114.809 94 114.699 94 114.589 94C114.48 94 114.37 94 114.26 94C114.15 94 114.04 94 113.931 94C113.821 94 113.711 94 113.601 94C113.491 94 113.381 94 113.271 94C113.161 94 113.051 94 112.942 94C112.832 94 112.722 94 112.612 94C112.502 94 112.392 94 112.282 94C112.172 94 112.061 94 111.951 94C111.841 94 111.731 94 111.621 94C111.511 94 111.401 94 111.291 94C111.181 94 111.071 94 110.96 94C110.85 94 110.74 94 110.63 94C110.52 94 110.41 94 110.299 94C110.189 94 110.079 94 109.969 94C109.858 94 109.748 94 109.638 94C109.528 94 109.417 94 109.307 94C109.197 94 109.087 94 108.976 94C108.866 94 108.756 94 108.645 94C108.535 94 108.425 94 108.315 94C108.204 94 108.094 94 107.984 94C107.873 94 107.763 94 107.652 94C107.542 94 107.432 94 107.321 94C107.211 94 107.101 94 106.99 94C106.88 94 106.77 94 106.659 94C106.549 94 106.438 94 106.328 94C106.218 94 106.107 94 105.997 94C105.886 94 105.776 94 105.666 94C105.555 94 105.445 94 105.335 94C105.224 94 105.114 94 105.003 94C104.893 94 104.783 94 104.672 94C104.562 94 104.451 94 104.341 94C104.231 94 104.12 94 104.01 94C103.899 94 103.789 94 103.679 94C103.568 94 103.458 94 103.348 94C103.237 94 103.127 94 103.017 94C102.906 94 102.796 94 102.686 94C102.575 94 102.465 94 102.354 94C102.244 94 102.134 94 102.024 94C101.913 94 101.803 94 101.693 94C101.582 94 101.472 94 101.362 94C101.251 94 101.141 94 101.031 94C100.921 94 100.81 94 100.7 94C100.59 94 100.48 94 100.369 94C100.259 94 100.149 94 100.039 94C99.9287 94 99.8185 94 99.7083 94C99.5982 94 99.488 94 99.3779 94C99.2677 94 99.1576 94 99.0475 94C98.9374 94 98.8273 94 98.7172 94C98.6072 94 98.4971 94 98.387 94C98.277 94 98.167 94 98.057 94C97.947 94 97.837 94 97.727 94C97.617 94 97.507 94 97.3971 94C97.2872 94 97.1773 94 97.0674 94C96.9575 94 96.8476 94 96.7377 94C96.6279 94 96.518 94 96.4082 94C96.2984 94 96.1886 94 96.0788 94C95.9691 94 95.8593 94 95.7496 94C95.6399 94 95.5302 94 95.4205 94C95.3108 94 95.2011 94 95.0915 94C94.9819 94 94.8723 94 94.7627 94C94.6531 94 94.5436 94 94.434 94C94.3245 94 94.215 94 94.1055 94C93.9961 94 93.8866 94 93.7772 94C93.6678 94 93.5584 94 93.449 94C93.3397 94 93.2303 94 93.121 94C93.0117 94 92.9024 94 92.7932 94C92.684 94 92.5747 94 92.4656 94C92.3564 94 92.2472 94 92.1381 94C92.029 94 91.9199 94 91.8109 94C91.7018 94 91.5928 94 91.4838 94C91.3748 94 91.2658 94 91.1569 94C91.048 94 90.9391 94 90.8303 94C90.7214 94 90.6126 94 90.5038 94C90.395 94 90.2863 94 90.1776 94C90.0689 94 89.9602 94 89.8516 94C89.743 94 89.6344 94 89.5258 94C89.4173 94 89.3087 94 89.2003 94C89.0918 94 88.9833 94 88.8749 94C88.7665 94 88.6582 94 88.5499 94C88.4416 94 88.3333 94 88.225 94C88.1168 94 88.0086 94 87.9005 94C87.7923 94 87.6842 94 87.5761 94C87.4681 94 87.36 94 87.2521 94C87.1441 94 87.0362 94 86.9283 94C86.8204 94 86.7125 94 86.6047 94C86.4969 94 86.3892 94 86.2815 94C86.1738 94 86.0661 94 85.9585 94C85.8509 94 85.7433 94 85.6358 94C85.5283 94 85.4208 94 85.3134 94C85.206 94 85.0986 94 84.9913 94C84.884 94 84.7767 94 84.6695 94C84.5623 94 84.4551 94 84.348 94C84.2408 94 84.1338 94 84.0268 94C83.9197 94 83.8128 94 83.7059 94C83.599 94 83.4921 94 83.3853 94C83.2785 94 83.1717 94 83.065 94C82.9584 94 82.8517 94 82.7451 94C82.6385 94 82.532 94 82.4255 94C82.3191 94 82.2126 94 82.1063 94C81.9999 94 81.8936 94 81.7874 94C81.6811 94 81.5749 94 81.4688 94C81.3627 94 81.2566 94 81.1506 94C81.0446 94 80.9386 94 80.8327 94C80.7268 94 80.621 94 80.5152 94C80.4095 94 80.3037 94 80.1981 94C80.0925 94 79.9869 94 79.8813 94C79.7758 94 79.6703 94 79.565 94C79.4596 94 79.3542 94 79.2489 94C79.1437 94 79.0385 94 78.9333 94C78.8282 94 78.7231 94 78.6181 94C78.5131 94 78.4081 94 78.3033 94C78.1984 94 78.0936 94 77.9888 94C77.8841 94 77.7794 94 77.6748 94C77.5702 94 77.4656 94 77.3612 94C77.2567 94 77.1523 94 77.048 94C76.9436 94 76.8394 94 76.7352 94C76.631 94 76.5269 94 76.4228 94C76.3188 94 76.2148 94 76.1109 94C76.007 94 75.9031 94 75.7994 94C75.6956 94 75.5919 94 75.4883 94C75.3847 94 75.2812 94 75.1777 94C75.0742 94 74.9708 94 74.8675 94C74.7642 94 74.661 94 74.5578 94C74.4546 94 74.3515 94 74.2485 94C74.1455 94 74.0426 94 73.9397 94C73.8369 94 73.7341 94 73.6314 94C73.5287 94 73.4261 94 73.3235 94C73.221 94 73.1185 94 73.0162 94C72.9138 94 72.8115 94 72.7093 94C72.607 94 72.5049 94 72.4028 94C72.3008 94 72.1988 94 72.0969 94C71.995 94 71.8932 94 71.7915 94C71.6898 94 71.5881 94 71.4866 94C71.385 94 71.2835 94 71.1821 94C71.0807 94 70.9794 94 70.8782 94C70.777 94 70.6759 94 70.5748 94C70.4738 94 70.3728 94 70.272 94C70.1711 94 70.0703 94 69.9696 94C69.8689 94 69.7683 94 69.6678 94C69.5673 94 69.4668 94 69.3665 94C69.2662 94 69.1659 94 69.0658 94C68.9656 94 68.8655 94 68.7656 94C68.6656 94 68.5657 94 68.4659 94C68.3661 94 68.2664 94 68.1668 94C68.0672 94 67.9677 94 67.8683 94C67.7688 94 67.6695 94 67.5703 94C67.4711 94 67.3719 94 67.2729 94C67.1738 94 67.0749 94 66.9761 94C66.8772 94 66.7785 94 66.6798 94C66.5811 94 66.4826 94 66.3841 94C66.2857 94 66.1873 94 66.089 94C65.9908 94 65.8926 94 65.7946 94C65.6965 94 65.5985 94 65.5007 94C65.4028 94 65.305 94 65.2074 94C65.1097 94 65.0121 94 64.9147 94C64.8172 94 64.7199 94 64.6226 94C64.5254 94 64.4282 94 64.3312 94C64.2341 94 64.1372 94 64.0403 94C63.9435 94 63.8468 94 63.7501 94C63.6535 94 63.557 94 63.4605 94C63.3641 94 63.2678 94 63.1716 94C63.0754 94 62.9793 94 62.8833 94C62.7873 94 62.6914 94 62.5957 94C62.4999 94 62.4042 94 62.3087 94C62.2131 94 62.1177 94 62.0223 94C61.927 94 61.8317 94 61.7366 94C61.6415 94 61.5465 94 61.4516 94C61.3567 94 61.2619 94 61.1673 94C61.0726 94 60.978 94 60.8836 94C60.7891 94 60.6948 94 60.6006 94C60.5064 94 60.4123 94 60.3183 94C60.2243 94 60.1304 94 60.0367 94C59.9429 94 59.8493 94 59.7557 94C59.6622 94 59.5688 94 59.4755 94C59.3822 94 59.289 94 59.196 94C59.1029 94 59.01 94 58.9172 94C58.8243 94 58.7316 94 58.6391 94C58.5465 94 58.454 94 58.3617 94C58.2693 94 58.1771 94 58.085 94C57.9929 94 57.9009 94 57.8091 94C57.7172 94 57.6255 94 57.5339 94C57.4423 94 57.3508 94 57.2594 94C57.1681 94 57.0768 94 56.9857 94C56.8946 94 56.8036 94 56.7127 94C56.6219 94 56.5311 94 56.4405 94C56.3499 94 56.2594 94 56.1691 94C56.0787 94 55.9885 94 55.8983 94C55.8082 94 55.7183 94 55.6284 94C55.5386 94 55.4488 94 55.3592 94C55.2697 94 55.1802 94 55.0909 94C55.0015 94 54.9123 94 54.8233 94C54.7342 94 54.6452 94 54.5564 94C54.4676 94 54.3789 94 54.2904 94C54.2019 94 54.1134 94 54.0252 94C53.9369 94 53.8487 94 53.7607 94C53.6727 94 53.5849 94 53.4971 94C53.4094 94 53.3218 94 53.2343 94C53.1468 94 53.0595 94 52.9723 94C52.8851 94 52.798 94 52.7111 94C52.6242 94 52.5374 94 52.4507 94C52.3641 94 52.2776 94 52.1912 94C52.1048 94 52.0186 94 51.9325 94C51.8464 94 51.7605 94 51.6747 94C51.5888 94 51.5032 94 51.4176 94C51.3321 94 51.2467 94 51.1615 94C51.0762 94 50.9911 94 50.9062 94C50.8212 94 50.7364 94 50.6517 94C50.567 94 50.4825 94 50.3981 94C50.3137 94 50.2295 94 50.1454 94C50.0613 94 49.9774 94 49.8936 94C49.8097 94 49.7261 94 49.6426 94C49.5591 94 49.4757 94 49.3925 94C49.3093 94 49.2262 94 49.1433 94C49.0604 94 48.9776 94 48.895 94C48.8124 94 48.7299 94 48.6476 94C48.5652 94 48.4831 94 48.4011 94C48.319 94 48.2372 94 48.1555 94C48.0737 94 47.9922 94 47.9108 94C47.8293 94 47.7481 94 47.667 94C47.5859 94 47.5049 94 47.4241 94C47.3433 94 47.2627 94 47.1822 94C47.1017 94 47.0214 94 46.9412 94C46.861 94 46.781 94 46.7011 94C46.6213 94 46.5416 94 46.462 94C46.3825 94 46.3031 94 46.2238 94C46.1446 94 46.0655 94 45.9866 94C45.9077 94 45.8289 94 45.7503 94C45.6717 94 45.5933 94 45.515 94C45.4367 94 45.3586 94 45.2807 94C45.2027 94 45.1249 94 45.0473 94C44.9697 94 44.8922 94 44.8149 94C44.7376 94 44.6604 94 44.5835 94C44.5065 94 44.4297 94 44.353 94C44.2764 94 44.1999 94 44.1236 94C44.0472 94 43.9711 94 43.8951 94C43.8191 94 43.7433 94 43.6676 94C43.592 94 43.5165 94 43.4412 94C43.3659 94 43.2907 94 43.2157 94C43.1408 94 43.0659 94 42.9913 94C42.9167 94 42.8422 94 42.7679 94C42.6936 94 42.6194 94 42.5455 94C42.4715 94 42.3977 94 42.3241 94C42.2505 94 42.177 94 42.1038 94C42.0305 94 41.9574 94 41.8845 94C41.8115 94 41.7388 94 41.6662 94C41.5936 94 41.5212 94 41.449 94C41.3768 94 41.3047 94 41.2328 94C41.161 94 41.0893 94 41.0177 94C40.9462 94 40.8749 94 40.8037 94C40.7325 94 40.6615 94 40.5907 94C40.5199 94 40.4493 94 40.3788 94C40.3083 94 40.2381 94 40.168 94C40.0979 94 40.0279 94 39.9582 94C39.8885 94 39.8189 94 39.7495 94C39.6802 94 39.611 94 39.542 94C39.473 94 39.4041 94 39.3355 94C39.2668 94 39.1984 94 39.1301 94C39.0618 94 38.9937 94 38.9258 94C38.8579 94 38.7902 94 38.7227 94C38.6551 94 38.5878 94 38.5206 94C38.4534 94 38.3865 94 38.3197 94C38.2529 94 38.1863 94 38.1199 94C38.0534 94 37.9872 94 37.9212 94C37.8551 94 37.7893 94 37.7236 94C37.658 94 37.5925 94 37.5272 94C37.4619 94 37.3968 94 37.332 94C37.2671 94 37.2023 94 37.1378 94C37.0733 94 37.009 94 36.9449 94C36.8807 94 36.8168 94 36.7531 94C36.6893 94 36.6258 94 36.5624 94C36.4991 94 36.4359 94 36.3729 94C36.31 94 36.2472 94 36.1846 94C36.122 94 36.0597 94 35.9975 94C35.9353 94 35.8733 94 35.8115 94C35.7498 94 35.6882 94 35.6268 94C35.5654 94 35.5042 94 35.4432 94C35.3822 94 35.3214 94 35.2608 94C35.2002 94 35.1399 94 35.0797 94C35.0195 94 34.9595 94 34.8997 94C34.8399 94 34.7803 94 34.7209 94C34.6616 94 34.6024 94 34.5434 94C34.4844 94 34.4257 94 34.3671 94C34.3085 94 34.2501 94 34.192 94C34.1338 94 34.0759 94 34.0181 94C33.9604 94 33.9028 94 33.8455 94C33.7882 94 33.731 94 33.6741 94C33.6172 94 33.5605 94 33.504 94C33.4474 94 33.3911 94 33.3351 94C33.279 94 33.2231 94 33.1674 94C33.1117 94 33.0563 94 33.001 94C32.9458 94 32.8907 94 32.8359 94C32.7811 94 32.7265 94 32.6721 94C32.6177 94 32.5635 94 32.5095 94C32.4555 94 32.4017 94 32.3482 94C32.2946 94 32.2413 94 32.1882 94C32.135 94 32.0821 94 32.0294 94C31.9768 94 31.9243 94 31.872 94C31.8197 94 31.7677 94 31.7159 94C31.664 94 31.6124 94 31.561 94C31.5096 94 31.4585 94 31.4075 94C31.3566 94 31.3058 94 31.2553 94C31.2048 94 31.1545 94 31.1044 94C31.0543 94 31.0045 94 30.9548 94C30.9052 94 30.8558 94 30.8066 94C30.7574 94 30.7084 94 30.6597 94C30.6109 94 30.5624 94 30.5141 94C30.4658 94 30.4177 94 30.3698 94C30.322 94 30.2743 94 30.2269 94C30.1795 94 30.1323 94 30.0854 94C30.0384 94 29.9917 94 29.9452 94C29.8987 94 29.8524 94 29.8064 94C29.7603 94 29.7145 94 29.6689 94C29.6233 94 29.578 94 29.5328 94C29.4877 94 29.4428 94 29.3981 94C29.3534 94 29.309 94 29.2648 94C29.2205 94 29.1766 94 29.1328 94C29.0891 94 29.0455 94 29.0022 94C28.959 94 28.9159 94 28.8731 94C28.8303 94 28.7877 94 28.7453 94C28.7029 94 28.6608 94 28.6189 94C28.577 94 28.5354 94 28.494 94C28.4526 94 28.4114 94 28.3704 94C28.3295 94 28.2888 94 28.2483 94C28.2078 94 28.1676 94 28.1276 94C28.0876 94 28.0478 94 28.0083 94C27.9688 94 27.9295 94 27.8905 94C27.8514 94 27.8126 94 27.7741 94C27.7355 94 27.6972 94 27.6591 94C27.621 94 27.5832 94 27.5456 94C27.508 94 27.4707 94 27.4335 94C27.3964 94 27.3596 94 27.3229 94C27.2863 94 27.2499 94 27.2138 94C27.1777 94 27.1418 94 27.1061 94C27.0705 94 27.0351 94 26.9999 94V96Z" fill="white"/>
</svg>
