<svg width="36" height="33" viewBox="0 0 36 33" fill="none" xmlns="http://www.w3.org/2000/svg">
<path d="M18 30.9998V26.1665" stroke="#454750" stroke-width="3" stroke-linecap="round"/>
<path d="M15.6001 22.1392V24.5558C15.6001 25.4456 16.3164 26.1669 17.2001 26.1669H18.8001C19.6838 26.1669 20.4001 25.4456 20.4001 24.5558V22.1392" stroke="#FAFBFE" stroke-width="3" stroke-linecap="round"/>
<path d="M32.7529 8.44444C31.6497 4.92583 29.8849 3.02283 27.7452 2.25873C27.1358 2.04107 26.4825 2 25.8358 2H24.8558C23.4518 2 22.0822 2.43863 20.9361 3.25541L20.1331 3.82766C19.5094 4.27213 18.7641 4.51082 18 4.51082C17.236 4.51082 16.4907 4.27213 15.867 3.82769L15.064 3.25541C13.9178 2.43863 12.5482 2 11.144 2H10.1641C9.51739 2 8.86413 2.04107 8.25463 2.25873C4.44231 3.62023 1.81998 8.59757 2.00966 19.8875C2.04787 22.1623 2.57647 24.6764 4.61476 25.6579C5.24993 25.9638 5.99466 26.1667 6.84272 26.1667C7.86035 26.1667 8.66846 25.8746 9.29219 25.4629C10.7544 24.4979 11.8259 22.8863 13.378 22.0759C14.3123 21.588 15.3494 21.3333 16.4017 21.3333H19.5982C20.6505 21.3333 21.6876 21.588 22.622 22.0759C24.174 22.8863 25.2456 24.4979 26.7078 25.4629C27.3315 25.8746 28.1396 26.1667 29.1572 26.1667C30.0052 26.1667 30.75 25.9638 31.3852 25.6579C33.4235 24.6764 33.9521 22.1623 33.9903 19.8875C34.0211 18.0597 33.978 16.3972 33.8681 14.8889" stroke="#454750" stroke-width="3" stroke-linecap="round"/>
<path d="M10.7999 10.0557V14.889M8.3999 12.4723H13.1999" stroke="#FAFBFE" stroke-width="3" stroke-linecap="round"/>
<path d="M29.1998 12.0692C29.1998 12.7365 28.6625 13.2775 27.9998 13.2775C27.3371 13.2775 26.7998 12.7365 26.7998 12.0692C26.7998 11.4018 27.3371 10.8608 27.9998 10.8608C28.6625 10.8608 29.1998 11.4018 29.1998 12.0692Z" fill="#58DC9D"/>
<path d="M24.4 12.0692C24.4 12.7365 23.8627 13.2775 23.2 13.2775C22.5373 13.2775 22 12.7365 22 12.0692C22 11.4018 22.5373 10.8608 23.2 10.8608C23.8627 10.8608 24.4 11.4018 24.4 12.0692Z" fill="#D1DC58"/>
<path d="M25.5999 8.44434C26.2626 8.44434 26.7999 8.98533 26.7999 9.65267C26.7999 10.32 26.2626 10.861 25.5999 10.861C24.9372 10.861 24.3999 10.32 24.3999 9.65267C24.3999 8.98533 24.9372 8.44434 25.5999 8.44434Z" fill="#588DDC"/>
<path d="M25.5999 13.2778C26.2626 13.2778 26.7999 13.8188 26.7999 14.4862C26.7999 15.1535 26.2626 15.6945 25.5999 15.6945C24.9372 15.6945 24.3999 15.1535 24.3999 14.4862C24.3999 13.8188 24.9372 13.2778 25.5999 13.2778Z" fill="#DC5858"/>
</svg>
