<svg width="32" height="32" viewBox="0 0 32 32" fill="none" xmlns="http://www.w3.org/2000/svg">
<path d="M29.0095 5.02999L23.2435 2.25399C22.9179 2.09699 22.5515 2.04518 22.1951 2.10574C21.8387 2.1663 21.51 2.33624 21.2545 2.59199L2.37954 19.8C2.15053 20.0078 2.01345 20.298 1.99844 20.6069C1.98344 20.9158 2.09175 21.218 2.29954 21.447C2.32454 21.474 2.34954 21.5 2.37654 21.524L3.91754 22.924C4.1189 23.1073 4.3781 23.2142 4.65011 23.2263C4.92211 23.2383 5.18975 23.1547 5.40654 22.99L28.1415 5.74999C28.3133 5.61968 28.518 5.53989 28.7326 5.5196C28.9472 5.49932 29.1632 5.53934 29.3563 5.63516C29.5494 5.73098 29.7119 5.8788 29.8255 6.06198C29.9392 6.24516 29.9995 6.45642 29.9995 6.67199V6.60499C29.9995 6.27589 29.9066 5.95348 29.7315 5.67485C29.5563 5.39622 29.3061 5.1727 29.0095 5.02999Z" fill="#0065A9"/>
<path d="M29.0095 26.97L23.2435 29.747C22.9178 29.9036 22.5515 29.9551 22.1952 29.8946C21.839 29.834 21.5103 29.6644 21.2545 29.409L2.37954 12.2C2.15053 11.9922 2.01345 11.7019 1.99844 11.3931C1.98344 11.0842 2.09175 10.782 2.29954 10.553C2.32454 10.526 2.34954 10.5 2.37654 10.476L3.91754 9.07599C4.11911 8.89195 4.3789 8.78453 4.65157 8.77247C4.92425 8.76041 5.19251 8.84447 5.40954 9.00999L28.1415 26.25C28.3133 26.3803 28.518 26.4601 28.7326 26.4804C28.9472 26.5007 29.1632 26.4606 29.3563 26.3648C29.5494 26.269 29.7119 26.1212 29.8255 25.938C29.9392 25.7548 29.9995 25.5436 29.9995 25.328V25.4C29.9985 25.7282 29.9051 26.0495 29.73 26.3271C29.5549 26.6048 29.3052 26.8276 29.0095 26.97Z" fill="#007ACC"/>
<path d="M23.244 29.747C22.9183 29.9036 22.552 29.9551 22.1957 29.8946C21.8394 29.834 21.5107 29.6644 21.255 29.409C21.3986 29.5507 21.5808 29.6469 21.7789 29.6855C21.9769 29.7241 22.1819 29.7034 22.3683 29.626C22.5546 29.5486 22.7139 29.4179 22.8263 29.2504C22.9387 29.0828 22.9991 28.8858 23 28.684V3.316C23.0001 3.11329 22.9401 2.91509 22.8276 2.74651C22.715 2.57792 22.5549 2.44655 22.3676 2.36901C22.1803 2.29148 21.9742 2.27128 21.7755 2.31098C21.5767 2.35068 21.3941 2.44848 21.251 2.592C21.5065 2.33634 21.8352 2.1664 22.1915 2.10566C22.5478 2.04493 22.9142 2.09642 23.24 2.253L29.005 5.025C29.3025 5.167 29.5537 5.39022 29.7298 5.6689C29.9058 5.94758 29.9995 6.27037 30 6.6V25.4C30.0001 25.7294 29.9071 26.0521 29.7317 26.3309C29.5564 26.6097 29.3059 26.8334 29.009 26.976L23.244 29.747Z" fill="#1F9CF0"/>
</svg>
