<?xml version="1.0" encoding="UTF-8" standalone="no"?>
<svg
   id="visual"
   viewBox="0 0 959.98901 543.96528"
   width="959.98901"
   height="543.96527"
   version="1.1"
   xmlns="http://www.w3.org/2000/svg"
   xmlns:svg="http://www.w3.org/2000/svg">
  <defs
     id="defs15" />
  <g
     id="layer6"
     transform="translate(-0.02856917,3.947849)">
    <path
       d="M 0.02856917,540.01741 960.00647,540.01041 960.01758,-3.947849 0.14013771,-3.923856 Z"
       fill="#ebf6ff"
       id="path2" />
  </g>
  <g
     id="layer5"
     style="display:none"
     transform="translate(-0.02856917,3.947849)">
    <path
       d="M 0.00758252,540.09034 960,540.09754 V 107 L 945.5,97.2 C 931,87.3 902,67.7 872.8,66.8 843.7,66 814.3,84 785.2,86.7 756,89.3 727,76.7 698,72.2 669,67.7 640,71.3 611,77.7 582,84 553,93 523.8,95.7 351.46892,86.602239 164.97205,145.56231 14.5,121.5 L 0,118 Z"
       fill="#d8edfe"
       id="path4" />
  </g>
  <g
     id="layer3"
     style="display:none"
     transform="translate(-0.02856917,3.947849)">
    <path
       d="M 0.00281554,540.01939 960.01562,540 960,210 945.5,205.5 C 931,201 902,192 872.8,202.7 c -29.1,10.6 -58.5,41 -87.6,41.8 -29.2,0.8 -58.2,-27.8 -87.2,-45.8 -29,-18 -58,-25.4 -87,-24.5 -29,0.8 -58,9.8 -87.2,17.1 -29.1,7.4 -58.5,13 -87.6,10.4 C 407,199 378,188 349,191.5 c -29,3.5 -58,21.5 -87,36 -29,14.5 -58,25.5 -87.2,23.7 -29.1,-1.9 -58.5,-16.5 -87.6,-21 -29.2,-4.5 -58.2,1.1 -72.7,4 L 0,237 Z"
       fill="#c4e3fd"
       id="path6" />
  </g>
  <g
     id="layer2"
     style="display:none"
     transform="translate(-0.02856917,3.947849)">
    <path
       d="M 0.00329661,540.0134 960.00735,540.01568 960,382 945.5,378.5 C 931,375 902,368 872.8,363.5 843.7,359 814.3,357 785.2,371.3 756,385.7 727,416.3 698,420.8 c -29,4.5 -58,-17.1 -87,-28 -29,-10.8 -58,-10.8 -87.2,-2.6 -29.1,8.1 -58.5,24.5 -87.6,26.3 C 407,418.3 378,405.7 349,411 251.23338,433.61114 104.92909,401.63887 14.5,362.3 L 0,355 c -0.00126093,61.67113 0.00117914,123.34227 0.00329661,185.0134 z"
       fill="#b0dafc"
       id="path8" />
  </g>
  <g
     id="layer1"
     style="display:none"
     transform="translate(-0.02856917,3.947849)">
    <path
       d="m 0,541 h 14.5 c 14.5,0 43.5,0 72.7,0 29.1,0 58.5,0 87.6,0 29.2,0 58.2,0 87.2,0 29,0 58,0 87,0 29,0 58,0 87.2,0 29.1,0 58.5,0 87.6,0 29.2,0 58.2,0 87.2,0 29,0 58,0 87,0 29,0 58,0 87.2,0 29.1,0 58.5,0 87.6,0 29.2,0 58.2,0 72.7,0 H 960 v -88 l -14.5,-1.8 C 931,449.3 902,445.7 872.8,443.8 843.7,442 814.3,442 785.2,450 756,458 727,474 698,477.5 669,481 640,472 611,467.5 582,463 553,463 523.8,463 c -29.1,0 -58.5,0 -87.6,-0.8 -29.2,-0.9 -58.2,-2.5 -87.2,3.8 -29,6.3 -58,20.7 -87,18 -29,-2.7 -58,-22.3 -87.2,-24.2 C 145.7,458 116.3,474 87.2,474 58,474 29,458 14.5,450 L 0,442 Z"
       fill="#9bd0fc"
       id="path10" />
  </g>
</svg>
