<?xml version="1.0" encoding="UTF-8" standalone="no"?>
<svg
   id="visual"
   viewBox="0 0 960.00647 614.86023"
   width="960.00647"
   height="614.86023"
   version="1.1"
   sodipodi:docname="waves-foreground.svg"
   inkscape:export-filename="waves.svg"
   inkscape:export-xdpi="96"
   inkscape:export-ydpi="96"
   xmlns:inkscape="http://www.inkscape.org/namespaces/inkscape"
   xmlns:sodipodi="http://sodipodi.sourceforge.net/DTD/sodipodi-0.dtd"
   xmlns="http://www.w3.org/2000/svg"
   xmlns:svg="http://www.w3.org/2000/svg">
  <defs
     id="defs15" />
  <sodipodi:namedview
     id="namedview13"
     pagecolor="#505050"
     bordercolor="#eeeeee"
     borderopacity="1"
     inkscape:showpageshadow="0"
     inkscape:pageopacity="0"
     inkscape:pagecheckerboard="0"
     inkscape:deskcolor="#505050"
     showgrid="false"
     inkscape:zoom="1.2614583"
     inkscape:cx="448.29067"
     inkscape:cy="-103.05533"
     inkscape:window-width="1920"
     inkscape:window-height="1017"
     inkscape:window-x="-8"
     inkscape:window-y="-8"
     inkscape:window-maximized="1"
     inkscape:current-layer="layer1" />
  <g
     inkscape:groupmode="layer"
     id="layer6"
     inkscape:label="background"
     style="display:inline;fill:#000000;fill-opacity:0"
     transform="translate(0,3.8602629)"
     inkscape:export-filename=".\waves-foreground-1.svg"
     inkscape:export-xdpi="96.969696"
     inkscape:export-ydpi="96.969696">
    <path
       d="m 0.02856917,540.01741 959.97790083,-0.007 -0.7071,-543.8706729 h -14.5 -72.7 -87.6 l -86.515,3.7896504 h -87 -87.2 -87.6 -87.2 L 262,0 H 174.8 87.2 14.5 0 Z"
       fill="#ebf6ff"
       id="path2"
       sodipodi:nodetypes="ccccccccccccccccc"
       style="fill:#000000;fill-opacity:0" />
  </g>
  <g
     inkscape:groupmode="layer"
     id="layer5"
     inkscape:label="background-1"
     style="display:none"
     transform="translate(0,3.8602629)">
    <path
       d="M 0.00758252,614.09034 960,614.09754 V 107 L 945.5,97.2 C 931,87.3 902,67.7 872.8,66.8 843.7,66 814.3,84 785.2,86.7 756,89.3 727,76.7 698,72.2 669,67.7 640,71.3 611,77.7 582,84 553,93 523.8,95.7 351.46892,86.602239 164.97205,145.56231 14.5,121.5 L 0,118 Z"
       fill="#d8edfe"
       id="path4"
       sodipodi:nodetypes="ccccccsccccc" />
  </g>
  <g
     inkscape:groupmode="layer"
     id="layer3"
     inkscape:label="foreground-2"
     style="display:none"
     transform="translate(0,3.8602629)">
    <path
       d="M 0.00281554,612.01939 960.01562,612 960,210 945.5,205.5 C 931,201 902,192 872.8,202.7 c -29.1,10.6 -58.5,41 -87.6,41.8 -29.2,0.8 -58.2,-27.8 -87.2,-45.8 -29,-18 -58,-25.4 -87,-24.5 -29,0.8 -58,9.8 -87.2,17.1 -29.1,7.4 -58.5,13 -87.6,10.4 C 407,199 378,188 349,191.5 c -29,3.5 -58,21.5 -87,36 -29,14.5 -58,25.5 -87.2,23.7 -29.1,-1.9 -58.5,-16.5 -87.6,-21 -29.2,-4.5 -58.2,1.1 -72.7,4 L 0,237 Z"
       fill="#c4e3fd"
       id="path6"
       sodipodi:nodetypes="cccsccscccssccccc" />
  </g>
  <g
     inkscape:groupmode="layer"
     id="layer2"
     inkscape:label="foreground-1"
     style="display:none"
     transform="translate(0,3.8602629)">
    <path
       d="M 0.00329661,612.0134 960.00735,612.01568 960,382 945.5,378.5 C 931,375 902,368 872.8,363.5 843.7,359 814.3,357 785.2,371.3 756,385.7 727,416.3 698,420.8 c -29,4.5 -58,-17.1 -87,-28 -29,-10.8 -58,-10.8 -87.2,-2.6 -29.1,8.1 -58.5,24.5 -87.6,26.3 C 407,418.3 378,405.7 349,411 251.23338,433.61114 104.92909,401.63887 14.5,362.3 L 0,355 c -0.00126093,61.67113 0.00117914,195.34227 0.00329661,257.0134 z"
       fill="#b0dafc"
       id="path8"
       sodipodi:nodetypes="cccsccsccccccc" />
  </g>
  <g
     inkscape:groupmode="layer"
     id="layer1"
     inkscape:label="foreground"
     style="display:inline"
     transform="translate(0,3.8602629)">
    <path
       d="m 0,611 h 14.5 72.7 87.6 87.2 87 87.2 87.6 87.2 87 l 87.20781,-0.0937 h 87.6 72.7 14.5 l -0.007,-170.30264 c -17.04005,-0.1951 -30.03305,16.10689 -44.26223,15.64203 -17.82279,-0.58226 -30.39001,-11.55028 -59.59001,-13.45028 -29.09952,-1.8 -41.84076,-0.88911 -70.94076,7.11089 -29.2,8 -58.2,24 -87.2,27.5 C 669.00781,480.90625 640,472 611,467.5 582,463 553,463 523.8,463 c -29.1,0 -58.5,0 -87.6,-0.8 -29.2,-0.9 -58.2,-2.5 -87.2,3.8 -29,6.3 -58,20.7 -87,18 -29,-2.7 -58,-22.3 -87.2,-24.2 C 145.7,458 116.3,474 87.2,474 58,474 38.749255,442.42664 6.5786779,440.90761 l -6.57879996,-0.30898 z"
       fill="#9bd0fc"
       id="path10"
       sodipodi:nodetypes="cccccccccccccccsccssscsscsscc"
       inkscape:export-filename="waves-foreground.svg"
       inkscape:export-xdpi="96"
       inkscape:export-ydpi="96" />
    <path
       style="fill:#000000;fill-rule:evenodd;stroke-linejoin:round;stroke-dasharray:24, 1;paint-order:stroke markers fill"
       d="M 0,440.59677 H 960.07423"
       id="path1" />
  </g>
</svg>
