<svg width="554" height="412" viewBox="0 0 554 412" fill="none" xmlns="http://www.w3.org/2000/svg">
<rect width="554" height="412" rx="8" fill="#EFF3F7"/>
<path d="M72.714 78.978C73.8993 78.026 74.828 77.2467 75.5 76.64C76.172 76.024 76.7367 75.3847 77.194 74.722C77.6607 74.05 77.894 73.392 77.894 72.748C77.894 72.1413 77.7447 71.6653 77.446 71.32C77.1567 70.9653 76.6853 70.788 76.032 70.788C75.3973 70.788 74.9027 70.9887 74.548 71.39C74.2027 71.782 74.016 72.3093 73.988 72.972H72.756C72.7933 71.9267 73.1107 71.1193 73.708 70.55C74.3053 69.9807 75.0753 69.696 76.018 69.696C76.9793 69.696 77.74 69.962 78.3 70.494C78.8693 71.026 79.154 71.7587 79.154 72.692C79.154 73.4667 78.9207 74.2227 78.454 74.96C77.9967 75.688 77.474 76.332 76.886 76.892C76.298 77.4427 75.5467 78.0867 74.632 78.824H79.448V79.888H72.714V78.978ZM80.9207 74.834C80.9207 73.2287 81.1821 71.978 81.7047 71.082C82.2274 70.1767 83.1421 69.724 84.4487 69.724C85.7461 69.724 86.6561 70.1767 87.1787 71.082C87.7014 71.978 87.9627 73.2287 87.9627 74.834C87.9627 76.4673 87.7014 77.7367 87.1787 78.642C86.6561 79.5473 85.7461 80 84.4487 80C83.1421 80 82.2274 79.5473 81.7047 78.642C81.1821 77.7367 80.9207 76.4673 80.9207 74.834ZM86.7027 74.834C86.7027 74.022 86.6467 73.336 86.5347 72.776C86.4321 72.2067 86.2127 71.7493 85.8767 71.404C85.5501 71.0587 85.0741 70.886 84.4487 70.886C83.8141 70.886 83.3287 71.0587 82.9927 71.404C82.6661 71.7493 82.4467 72.2067 82.3347 72.776C82.2321 73.336 82.1807 74.022 82.1807 74.834C82.1807 75.674 82.2321 76.3787 82.3347 76.948C82.4467 77.5173 82.6661 77.9747 82.9927 78.32C83.3287 78.6653 83.8141 78.838 84.4487 78.838C85.0741 78.838 85.5501 78.6653 85.8767 78.32C86.2127 77.9747 86.4321 77.5173 86.5347 76.948C86.6467 76.3787 86.7027 75.674 86.7027 74.834ZM89.4318 72.16C89.4318 71.5253 89.6231 71.0213 90.0058 70.648C90.3884 70.2653 90.8784 70.074 91.4758 70.074C92.0731 70.074 92.5631 70.2653 92.9458 70.648C93.3284 71.0213 93.5198 71.5253 93.5198 72.16C93.5198 72.804 93.3284 73.3173 92.9458 73.7C92.5631 74.0733 92.0731 74.26 91.4758 74.26C90.8784 74.26 90.3884 74.0733 90.0058 73.7C89.6231 73.3173 89.4318 72.804 89.4318 72.16ZM97.6078 70.228L91.9378 80H90.6778L96.3478 70.228H97.6078ZM91.4758 70.858C91.1584 70.858 90.9064 70.97 90.7198 71.194C90.5424 71.4087 90.4538 71.7307 90.4538 72.16C90.4538 72.5893 90.5424 72.916 90.7198 73.14C90.9064 73.364 91.1584 73.476 91.4758 73.476C91.7931 73.476 92.0451 73.364 92.2318 73.14C92.4184 72.9067 92.5118 72.58 92.5118 72.16C92.5118 71.7307 92.4184 71.4087 92.2318 71.194C92.0451 70.97 91.7931 70.858 91.4758 70.858ZM94.7938 78.068C94.7938 77.424 94.9851 76.9153 95.3678 76.542C95.7504 76.1593 96.2404 75.968 96.8378 75.968C97.4351 75.968 97.9204 76.1593 98.2938 76.542C98.6764 76.9153 98.8678 77.424 98.8678 78.068C98.8678 78.7027 98.6764 79.2113 98.2938 79.594C97.9204 79.9767 97.4351 80.168 96.8378 80.168C96.2404 80.168 95.7504 79.9813 95.3678 79.608C94.9851 79.2253 94.7938 78.712 94.7938 78.068ZM96.8238 76.766C96.5064 76.766 96.2544 76.878 96.0678 77.102C95.8811 77.3167 95.7878 77.6387 95.7878 78.068C95.7878 78.488 95.8811 78.81 96.0678 79.034C96.2544 79.2487 96.5064 79.356 96.8238 79.356C97.1411 79.356 97.3931 79.2487 97.5798 79.034C97.7664 78.81 97.8598 78.488 97.8598 78.068C97.8598 77.6387 97.7664 77.3167 97.5798 77.102C97.3931 76.878 97.1411 76.766 96.8238 76.766Z" fill="black"/>
<path d="M73.532 213.04V211.878H76.164V222H74.876V213.04H73.532ZM84.8064 212.984H79.8924V216.176C80.107 215.877 80.4244 215.635 80.8444 215.448C81.2644 215.252 81.717 215.154 82.2024 215.154C82.977 215.154 83.607 215.317 84.0924 215.644C84.5777 215.961 84.923 216.377 85.1284 216.89C85.343 217.394 85.4504 217.931 85.4504 218.5C85.4504 219.172 85.3244 219.774 85.0724 220.306C84.8204 220.838 84.433 221.258 83.9104 221.566C83.397 221.874 82.7577 222.028 81.9924 222.028C81.0124 222.028 80.219 221.776 79.6124 221.272C79.0057 220.768 78.637 220.096 78.5064 219.256H79.7524C79.8737 219.788 80.1304 220.203 80.5224 220.502C80.9144 220.801 81.409 220.95 82.0064 220.95C82.7437 220.95 83.299 220.731 83.6724 220.292C84.0457 219.844 84.2324 219.256 84.2324 218.528C84.2324 217.8 84.0457 217.24 83.6724 216.848C83.299 216.447 82.7484 216.246 82.0204 216.246C81.5257 216.246 81.0917 216.367 80.7184 216.61C80.3544 216.843 80.0884 217.165 79.9204 217.576H78.7164V211.864H84.8064V212.984ZM86.8634 214.16C86.8634 213.525 87.0547 213.021 87.4374 212.648C87.8201 212.265 88.3101 212.074 88.9074 212.074C89.5047 212.074 89.9947 212.265 90.3774 212.648C90.7601 213.021 90.9514 213.525 90.9514 214.16C90.9514 214.804 90.7601 215.317 90.3774 215.7C89.9947 216.073 89.5047 216.26 88.9074 216.26C88.3101 216.26 87.8201 216.073 87.4374 215.7C87.0547 215.317 86.8634 214.804 86.8634 214.16ZM95.0394 212.228L89.3694 222H88.1094L93.7794 212.228H95.0394ZM88.9074 212.858C88.5901 212.858 88.3381 212.97 88.1514 213.194C87.9741 213.409 87.8854 213.731 87.8854 214.16C87.8854 214.589 87.9741 214.916 88.1514 215.14C88.3381 215.364 88.5901 215.476 88.9074 215.476C89.2247 215.476 89.4767 215.364 89.6634 215.14C89.8501 214.907 89.9434 214.58 89.9434 214.16C89.9434 213.731 89.8501 213.409 89.6634 213.194C89.4767 212.97 89.2247 212.858 88.9074 212.858ZM92.2254 220.068C92.2254 219.424 92.4167 218.915 92.7994 218.542C93.1821 218.159 93.6721 217.968 94.2694 217.968C94.8667 217.968 95.3521 218.159 95.7254 218.542C96.1081 218.915 96.2994 219.424 96.2994 220.068C96.2994 220.703 96.1081 221.211 95.7254 221.594C95.3521 221.977 94.8667 222.168 94.2694 222.168C93.6721 222.168 93.1821 221.981 92.7994 221.608C92.4167 221.225 92.2254 220.712 92.2254 220.068ZM94.2554 218.766C93.9381 218.766 93.6861 218.878 93.4994 219.102C93.3127 219.317 93.2194 219.639 93.2194 220.068C93.2194 220.488 93.3127 220.81 93.4994 221.034C93.6861 221.249 93.9381 221.356 94.2554 221.356C94.5727 221.356 94.8247 221.249 95.0114 221.034C95.1981 220.81 95.2914 220.488 95.2914 220.068C95.2914 219.639 95.1981 219.317 95.0114 219.102C94.8247 218.878 94.5727 218.766 94.2554 218.766Z" fill="black"/>
<path d="M73.532 349.04V347.878H76.164V358H74.876V349.04H73.532ZM78.3524 352.834C78.3524 351.229 78.6137 349.978 79.1364 349.082C79.659 348.177 80.5737 347.724 81.8804 347.724C83.1777 347.724 84.0877 348.177 84.6104 349.082C85.133 349.978 85.3944 351.229 85.3944 352.834C85.3944 354.467 85.133 355.737 84.6104 356.642C84.0877 357.547 83.1777 358 81.8804 358C80.5737 358 79.659 357.547 79.1364 356.642C78.6137 355.737 78.3524 354.467 78.3524 352.834ZM84.1344 352.834C84.1344 352.022 84.0784 351.336 83.9664 350.776C83.8637 350.207 83.6444 349.749 83.3084 349.404C82.9817 349.059 82.5057 348.886 81.8804 348.886C81.2457 348.886 80.7604 349.059 80.4244 349.404C80.0977 349.749 79.8784 350.207 79.7664 350.776C79.6637 351.336 79.6124 352.022 79.6124 352.834C79.6124 353.674 79.6637 354.379 79.7664 354.948C79.8784 355.517 80.0977 355.975 80.4244 356.32C80.7604 356.665 81.2457 356.838 81.8804 356.838C82.5057 356.838 82.9817 356.665 83.3084 356.32C83.6444 355.975 83.8637 355.517 83.9664 354.948C84.0784 354.379 84.1344 353.674 84.1344 352.834ZM86.8634 350.16C86.8634 349.525 87.0547 349.021 87.4374 348.648C87.8201 348.265 88.3101 348.074 88.9074 348.074C89.5047 348.074 89.9947 348.265 90.3774 348.648C90.7601 349.021 90.9514 349.525 90.9514 350.16C90.9514 350.804 90.7601 351.317 90.3774 351.7C89.9947 352.073 89.5047 352.26 88.9074 352.26C88.3101 352.26 87.8201 352.073 87.4374 351.7C87.0547 351.317 86.8634 350.804 86.8634 350.16ZM95.0394 348.228L89.3694 358H88.1094L93.7794 348.228H95.0394ZM88.9074 348.858C88.5901 348.858 88.3381 348.97 88.1514 349.194C87.9741 349.409 87.8854 349.731 87.8854 350.16C87.8854 350.589 87.9741 350.916 88.1514 351.14C88.3381 351.364 88.5901 351.476 88.9074 351.476C89.2247 351.476 89.4767 351.364 89.6634 351.14C89.8501 350.907 89.9434 350.58 89.9434 350.16C89.9434 349.731 89.8501 349.409 89.6634 349.194C89.4767 348.97 89.2247 348.858 88.9074 348.858ZM92.2254 356.068C92.2254 355.424 92.4167 354.915 92.7994 354.542C93.1821 354.159 93.6721 353.968 94.2694 353.968C94.8667 353.968 95.3521 354.159 95.7254 354.542C96.1081 354.915 96.2994 355.424 96.2994 356.068C96.2994 356.703 96.1081 357.211 95.7254 357.594C95.3521 357.977 94.8667 358.168 94.2694 358.168C93.6721 358.168 93.1821 357.981 92.7994 357.608C92.4167 357.225 92.2254 356.712 92.2254 356.068ZM94.2554 354.766C93.9381 354.766 93.6861 354.878 93.4994 355.102C93.3127 355.317 93.2194 355.639 93.2194 356.068C93.2194 356.488 93.3127 356.81 93.4994 357.034C93.6861 357.249 93.9381 357.356 94.2554 357.356C94.5727 357.356 94.8247 357.249 95.0114 357.034C95.1981 356.81 95.2914 356.488 95.2914 356.068C95.2914 355.639 95.1981 355.317 95.0114 355.102C94.8247 354.878 94.5727 354.766 94.2554 354.766Z" fill="black"/>
<path d="M108.714 380.978C109.899 380.026 110.828 379.247 111.5 378.64C112.172 378.024 112.737 377.385 113.194 376.722C113.661 376.05 113.894 375.392 113.894 374.748C113.894 374.141 113.745 373.665 113.446 373.32C113.157 372.965 112.685 372.788 112.032 372.788C111.397 372.788 110.903 372.989 110.548 373.39C110.203 373.782 110.016 374.309 109.988 374.972H108.756C108.793 373.927 109.111 373.119 109.708 372.55C110.305 371.981 111.075 371.696 112.018 371.696C112.979 371.696 113.74 371.962 114.3 372.494C114.869 373.026 115.154 373.759 115.154 374.692C115.154 375.467 114.921 376.223 114.454 376.96C113.997 377.688 113.474 378.332 112.886 378.892C112.298 379.443 111.547 380.087 110.632 380.824H115.448V381.888H108.714V380.978ZM116.921 376.834C116.921 375.229 117.182 373.978 117.705 373.082C118.227 372.177 119.142 371.724 120.449 371.724C121.746 371.724 122.656 372.177 123.179 373.082C123.701 373.978 123.963 375.229 123.963 376.834C123.963 378.467 123.701 379.737 123.179 380.642C122.656 381.547 121.746 382 120.449 382C119.142 382 118.227 381.547 117.705 380.642C117.182 379.737 116.921 378.467 116.921 376.834ZM122.703 376.834C122.703 376.022 122.647 375.336 122.535 374.776C122.432 374.207 122.213 373.749 121.877 373.404C121.55 373.059 121.074 372.886 120.449 372.886C119.814 372.886 119.329 373.059 118.993 373.404C118.666 373.749 118.447 374.207 118.335 374.776C118.232 375.336 118.181 376.022 118.181 376.834C118.181 377.674 118.232 378.379 118.335 378.948C118.447 379.517 118.666 379.975 118.993 380.32C119.329 380.665 119.814 380.838 120.449 380.838C121.074 380.838 121.55 380.665 121.877 380.32C122.213 379.975 122.432 379.517 122.535 378.948C122.647 378.379 122.703 377.674 122.703 376.834ZM125.712 376.834C125.712 375.229 125.973 373.978 126.496 373.082C127.018 372.177 127.933 371.724 129.24 371.724C130.537 371.724 131.447 372.177 131.97 373.082C132.492 373.978 132.754 375.229 132.754 376.834C132.754 378.467 132.492 379.737 131.97 380.642C131.447 381.547 130.537 382 129.24 382C127.933 382 127.018 381.547 126.496 380.642C125.973 379.737 125.712 378.467 125.712 376.834ZM131.494 376.834C131.494 376.022 131.438 375.336 131.326 374.776C131.223 374.207 131.004 373.749 130.668 373.404C130.341 373.059 129.865 372.886 129.24 372.886C128.605 372.886 128.12 373.059 127.784 373.404C127.457 373.749 127.238 374.207 127.126 374.776C127.023 375.336 126.972 376.022 126.972 376.834C126.972 377.674 127.023 378.379 127.126 378.948C127.238 379.517 127.457 379.975 127.784 380.32C128.12 380.665 128.605 380.838 129.24 380.838C129.865 380.838 130.341 380.665 130.668 380.32C131.004 379.975 131.223 379.517 131.326 378.948C131.438 378.379 131.494 377.674 131.494 376.834ZM136.141 379.284C136.234 379.816 136.449 380.227 136.785 380.516C137.13 380.805 137.592 380.95 138.171 380.95C138.945 380.95 139.515 380.647 139.879 380.04C140.252 379.433 140.429 378.411 140.411 376.974C140.215 377.394 139.888 377.725 139.431 377.968C138.973 378.201 138.465 378.318 137.905 378.318C137.279 378.318 136.719 378.192 136.225 377.94C135.739 377.679 135.357 377.301 135.077 376.806C134.797 376.311 134.657 375.714 134.657 375.014C134.657 374.015 134.946 373.213 135.525 372.606C136.103 371.99 136.925 371.682 137.989 371.682C139.295 371.682 140.21 372.107 140.733 372.956C141.265 373.805 141.531 375.07 141.531 376.75C141.531 377.926 141.423 378.897 141.209 379.662C141.003 380.427 140.649 381.011 140.145 381.412C139.65 381.813 138.969 382.014 138.101 382.014C137.149 382.014 136.407 381.757 135.875 381.244C135.343 380.731 135.039 380.077 134.965 379.284H136.141ZM138.115 377.24C138.74 377.24 139.253 377.049 139.655 376.666C140.056 376.274 140.257 375.747 140.257 375.084C140.257 374.384 140.061 373.819 139.669 373.39C139.277 372.961 138.726 372.746 138.017 372.746C137.363 372.746 136.841 372.951 136.449 373.362C136.066 373.773 135.875 374.314 135.875 374.986C135.875 375.667 136.066 376.213 136.449 376.624C136.831 377.035 137.387 377.24 138.115 377.24Z" fill="black"/>
<path d="M434.714 380.978C435.899 380.026 436.828 379.247 437.5 378.64C438.172 378.024 438.737 377.385 439.194 376.722C439.661 376.05 439.894 375.392 439.894 374.748C439.894 374.141 439.745 373.665 439.446 373.32C439.157 372.965 438.685 372.788 438.032 372.788C437.397 372.788 436.903 372.989 436.548 373.39C436.203 373.782 436.016 374.309 435.988 374.972H434.756C434.793 373.927 435.111 373.119 435.708 372.55C436.305 371.981 437.075 371.696 438.018 371.696C438.979 371.696 439.74 371.962 440.3 372.494C440.869 373.026 441.154 373.759 441.154 374.692C441.154 375.467 440.921 376.223 440.454 376.96C439.997 377.688 439.474 378.332 438.886 378.892C438.298 379.443 437.547 380.087 436.632 380.824H441.448V381.888H434.714V380.978ZM442.921 376.834C442.921 375.229 443.182 373.978 443.705 373.082C444.227 372.177 445.142 371.724 446.449 371.724C447.746 371.724 448.656 372.177 449.179 373.082C449.701 373.978 449.963 375.229 449.963 376.834C449.963 378.467 449.701 379.737 449.179 380.642C448.656 381.547 447.746 382 446.449 382C445.142 382 444.227 381.547 443.705 380.642C443.182 379.737 442.921 378.467 442.921 376.834ZM448.703 376.834C448.703 376.022 448.647 375.336 448.535 374.776C448.432 374.207 448.213 373.749 447.877 373.404C447.55 373.059 447.074 372.886 446.449 372.886C445.814 372.886 445.329 373.059 444.993 373.404C444.666 373.749 444.447 374.207 444.335 374.776C444.232 375.336 444.181 376.022 444.181 376.834C444.181 377.674 444.232 378.379 444.335 378.948C444.447 379.517 444.666 379.975 444.993 380.32C445.329 380.665 445.814 380.838 446.449 380.838C447.074 380.838 447.55 380.665 447.877 380.32C448.213 379.975 448.432 379.517 448.535 378.948C448.647 378.379 448.703 377.674 448.703 376.834ZM451.376 373.04V371.878H454.008V382H452.72V373.04H451.376ZM462.426 372.872L458.534 382H457.246L461.194 372.998H455.79V371.906H462.426V372.872Z" fill="black"/>
<path d="M272.714 380.978C273.899 380.026 274.828 379.247 275.5 378.64C276.172 378.024 276.737 377.385 277.194 376.722C277.661 376.05 277.894 375.392 277.894 374.748C277.894 374.141 277.745 373.665 277.446 373.32C277.157 372.965 276.685 372.788 276.032 372.788C275.397 372.788 274.903 372.989 274.548 373.39C274.203 373.782 274.016 374.309 273.988 374.972H272.756C272.793 373.927 273.111 373.119 273.708 372.55C274.305 371.981 275.075 371.696 276.018 371.696C276.979 371.696 277.74 371.962 278.3 372.494C278.869 373.026 279.154 373.759 279.154 374.692C279.154 375.467 278.921 376.223 278.454 376.96C277.997 377.688 277.474 378.332 276.886 378.892C276.298 379.443 275.547 380.087 274.632 380.824H279.448V381.888H272.714V380.978ZM280.921 376.834C280.921 375.229 281.182 373.978 281.705 373.082C282.227 372.177 283.142 371.724 284.449 371.724C285.746 371.724 286.656 372.177 287.179 373.082C287.701 373.978 287.963 375.229 287.963 376.834C287.963 378.467 287.701 379.737 287.179 380.642C286.656 381.547 285.746 382 284.449 382C283.142 382 282.227 381.547 281.705 380.642C281.182 379.737 280.921 378.467 280.921 376.834ZM286.703 376.834C286.703 376.022 286.647 375.336 286.535 374.776C286.432 374.207 286.213 373.749 285.877 373.404C285.55 373.059 285.074 372.886 284.449 372.886C283.814 372.886 283.329 373.059 282.993 373.404C282.666 373.749 282.447 374.207 282.335 374.776C282.232 375.336 282.181 376.022 282.181 376.834C282.181 377.674 282.232 378.379 282.335 378.948C282.447 379.517 282.666 379.975 282.993 380.32C283.329 380.665 283.814 380.838 284.449 380.838C285.074 380.838 285.55 380.665 285.877 380.32C286.213 379.975 286.432 379.517 286.535 378.948C286.647 378.379 286.703 377.674 286.703 376.834ZM289.376 373.04V371.878H292.008V382H290.72V373.04H289.376ZM294.168 374.426C294.233 373.567 294.565 372.895 295.162 372.41C295.759 371.925 296.534 371.682 297.486 371.682C298.121 371.682 298.667 371.799 299.124 372.032C299.591 372.256 299.941 372.564 300.174 372.956C300.417 373.348 300.538 373.791 300.538 374.286C300.538 374.865 300.37 375.364 300.034 375.784C299.707 376.204 299.278 376.475 298.746 376.596V376.666C299.353 376.815 299.833 377.109 300.188 377.548C300.543 377.987 300.72 378.561 300.72 379.27C300.72 379.802 300.599 380.283 300.356 380.712C300.113 381.132 299.749 381.463 299.264 381.706C298.779 381.949 298.195 382.07 297.514 382.07C296.525 382.07 295.713 381.813 295.078 381.3C294.443 380.777 294.089 380.04 294.014 379.088H295.246C295.311 379.648 295.54 380.105 295.932 380.46C296.324 380.815 296.847 380.992 297.5 380.992C298.153 380.992 298.648 380.824 298.984 380.488C299.329 380.143 299.502 379.699 299.502 379.158C299.502 378.458 299.269 377.954 298.802 377.646C298.335 377.338 297.631 377.184 296.688 377.184H296.366V376.12H296.702C297.561 376.111 298.209 375.971 298.648 375.7C299.087 375.42 299.306 374.991 299.306 374.412C299.306 373.917 299.143 373.521 298.816 373.222C298.499 372.923 298.041 372.774 297.444 372.774C296.865 372.774 296.399 372.923 296.044 373.222C295.689 373.521 295.479 373.922 295.414 374.426H294.168Z" fill="black"/>
<path d="M108 66L108 359" stroke="black" stroke-width="2" stroke-linecap="round"/>
<path d="M466 359L108 359" stroke="black" stroke-width="2" stroke-linecap="round"/>
<path d="M118.092 38.252C118.092 38.7747 117.966 39.2647 117.714 39.722C117.471 40.1793 117.084 40.548 116.552 40.828C116.029 41.108 115.367 41.248 114.564 41.248H112.926V45H110.966V35.228H114.564C115.32 35.228 115.964 35.3587 116.496 35.62C117.028 35.8813 117.425 36.2407 117.686 36.698C117.957 37.1553 118.092 37.6733 118.092 38.252ZM114.48 39.666C115.021 39.666 115.423 39.5447 115.684 39.302C115.945 39.05 116.076 38.7 116.076 38.252C116.076 37.3 115.544 36.824 114.48 36.824H112.926V39.666H114.48ZM126.694 40.954C126.694 41.234 126.675 41.486 126.638 41.71H120.968C121.014 42.27 121.21 42.7087 121.556 43.026C121.901 43.3433 122.326 43.502 122.83 43.502C123.558 43.502 124.076 43.1893 124.384 42.564H126.498C126.274 43.3107 125.844 43.9267 125.21 44.412C124.575 44.888 123.796 45.126 122.872 45.126C122.125 45.126 121.453 44.9627 120.856 44.636C120.268 44.3 119.806 43.8287 119.47 43.222C119.143 42.6153 118.98 41.9153 118.98 41.122C118.98 40.3193 119.143 39.6147 119.47 39.008C119.796 38.4013 120.254 37.9347 120.842 37.608C121.43 37.2813 122.106 37.118 122.872 37.118C123.609 37.118 124.267 37.2767 124.846 37.594C125.434 37.9113 125.886 38.364 126.204 38.952C126.53 39.5307 126.694 40.198 126.694 40.954ZM124.664 40.394C124.654 39.89 124.472 39.4887 124.118 39.19C123.763 38.882 123.329 38.728 122.816 38.728C122.33 38.728 121.92 38.8773 121.584 39.176C121.257 39.4653 121.056 39.8713 120.982 40.394H124.664ZM130.084 38.448C130.336 38.0373 130.663 37.7153 131.064 37.482C131.475 37.2487 131.942 37.132 132.464 37.132V39.19H131.946C131.33 39.19 130.864 39.3347 130.546 39.624C130.238 39.9133 130.084 40.4173 130.084 41.136V45H128.124V37.244H130.084V38.448ZM133.28 41.122C133.28 40.3193 133.444 39.6193 133.77 39.022C134.097 38.4153 134.55 37.9487 135.128 37.622C135.707 37.286 136.37 37.118 137.116 37.118C138.078 37.118 138.871 37.3607 139.496 37.846C140.131 38.322 140.556 38.994 140.77 39.862H138.656C138.544 39.526 138.353 39.2647 138.082 39.078C137.821 38.882 137.494 38.784 137.102 38.784C136.542 38.784 136.099 38.9893 135.772 39.4C135.446 39.8013 135.282 40.3753 135.282 41.122C135.282 41.8593 135.446 42.4333 135.772 42.844C136.099 43.2453 136.542 43.446 137.102 43.446C137.896 43.446 138.414 43.0913 138.656 42.382H140.77C140.556 43.222 140.131 43.8893 139.496 44.384C138.862 44.8787 138.068 45.126 137.116 45.126C136.37 45.126 135.707 44.9627 135.128 44.636C134.55 44.3 134.097 43.8333 133.77 43.236C133.444 42.6293 133.28 41.9247 133.28 41.122ZM149.416 40.954C149.416 41.234 149.398 41.486 149.36 41.71H143.69C143.737 42.27 143.933 42.7087 144.278 43.026C144.624 43.3433 145.048 43.502 145.552 43.502C146.28 43.502 146.798 43.1893 147.106 42.564H149.22C148.996 43.3107 148.567 43.9267 147.932 44.412C147.298 44.888 146.518 45.126 145.594 45.126C144.848 45.126 144.176 44.9627 143.578 44.636C142.99 44.3 142.528 43.8287 142.192 43.222C141.866 42.6153 141.702 41.9153 141.702 41.122C141.702 40.3193 141.866 39.6147 142.192 39.008C142.519 38.4013 142.976 37.9347 143.564 37.608C144.152 37.2813 144.829 37.118 145.594 37.118C146.332 37.118 146.99 37.2767 147.568 37.594C148.156 37.9113 148.609 38.364 148.926 38.952C149.253 39.5307 149.416 40.198 149.416 40.954ZM147.386 40.394C147.377 39.89 147.195 39.4887 146.84 39.19C146.486 38.882 146.052 38.728 145.538 38.728C145.053 38.728 144.642 38.8773 144.306 39.176C143.98 39.4653 143.779 39.8713 143.704 40.394H147.386ZM155.145 37.132C156.069 37.132 156.816 37.426 157.385 38.014C157.954 38.5927 158.239 39.4047 158.239 40.45V45H156.279V40.716C156.279 40.1 156.125 39.6287 155.817 39.302C155.509 38.966 155.089 38.798 154.557 38.798C154.016 38.798 153.586 38.966 153.269 39.302C152.961 39.6287 152.807 40.1 152.807 40.716V45H150.847V37.244H152.807V38.21C153.068 37.874 153.4 37.6127 153.801 37.426C154.212 37.23 154.66 37.132 155.145 37.132ZM162.385 38.854V42.606C162.385 42.8673 162.445 43.0587 162.567 43.18C162.697 43.292 162.912 43.348 163.211 43.348H164.121V45H162.889C161.237 45 160.411 44.1973 160.411 42.592V38.854H159.487V37.244H160.411V35.326H162.385V37.244H164.121V38.854H162.385ZM165.026 41.094C165.026 40.31 165.18 39.6147 165.488 39.008C165.806 38.4013 166.23 37.9347 166.762 37.608C167.304 37.2813 167.906 37.118 168.568 37.118C169.147 37.118 169.651 37.2347 170.08 37.468C170.519 37.7013 170.869 37.9953 171.13 38.35V37.244H173.104V45H171.13V43.866C170.878 44.23 170.528 44.5333 170.08 44.776C169.642 45.0093 169.133 45.126 168.554 45.126C167.901 45.126 167.304 44.958 166.762 44.622C166.23 44.286 165.806 43.8147 165.488 43.208C165.18 42.592 165.026 41.8873 165.026 41.094ZM171.13 41.122C171.13 40.646 171.037 40.24 170.85 39.904C170.664 39.5587 170.412 39.2973 170.094 39.12C169.777 38.9333 169.436 38.84 169.072 38.84C168.708 38.84 168.372 38.9287 168.064 39.106C167.756 39.2833 167.504 39.5447 167.308 39.89C167.122 40.226 167.028 40.6273 167.028 41.094C167.028 41.5607 167.122 41.9713 167.308 42.326C167.504 42.6713 167.756 42.9373 168.064 43.124C168.382 43.3107 168.718 43.404 169.072 43.404C169.436 43.404 169.777 43.3153 170.094 43.138C170.412 42.9513 170.664 42.69 170.85 42.354C171.037 42.0087 171.13 41.598 171.13 41.122ZM178.057 37.118C178.635 37.118 179.144 37.2347 179.583 37.468C180.021 37.692 180.367 37.986 180.619 38.35V37.244H182.593V45.056C182.593 45.7747 182.448 46.414 182.159 46.974C181.869 47.5433 181.435 47.9913 180.857 48.318C180.278 48.654 179.578 48.822 178.757 48.822C177.655 48.822 176.75 48.5653 176.041 48.052C175.341 47.5387 174.944 46.8387 174.851 45.952H176.797C176.899 46.3067 177.119 46.5867 177.455 46.792C177.8 47.0067 178.215 47.114 178.701 47.114C179.27 47.114 179.732 46.9413 180.087 46.596C180.441 46.26 180.619 45.7467 180.619 45.056V43.852C180.367 44.216 180.017 44.5193 179.569 44.762C179.13 45.0047 178.626 45.126 178.057 45.126C177.403 45.126 176.806 44.958 176.265 44.622C175.723 44.286 175.294 43.8147 174.977 43.208C174.669 42.592 174.515 41.8873 174.515 41.094C174.515 40.31 174.669 39.6147 174.977 39.008C175.294 38.4013 175.719 37.9347 176.251 37.608C176.792 37.2813 177.394 37.118 178.057 37.118ZM180.619 41.122C180.619 40.646 180.525 40.24 180.339 39.904C180.152 39.5587 179.9 39.2973 179.583 39.12C179.265 38.9333 178.925 38.84 178.561 38.84C178.197 38.84 177.861 38.9287 177.553 39.106C177.245 39.2833 176.993 39.5447 176.797 39.89C176.61 40.226 176.517 40.6273 176.517 41.094C176.517 41.5607 176.61 41.9713 176.797 42.326C176.993 42.6713 177.245 42.9373 177.553 43.124C177.87 43.3107 178.206 43.404 178.561 43.404C178.925 43.404 179.265 43.3153 179.583 43.138C179.9 42.9513 180.152 42.69 180.339 42.354C180.525 42.0087 180.619 41.598 180.619 41.122ZM191.717 40.954C191.717 41.234 191.698 41.486 191.661 41.71H185.991C186.038 42.27 186.234 42.7087 186.579 43.026C186.924 43.3433 187.349 43.502 187.853 43.502C188.581 43.502 189.099 43.1893 189.407 42.564H191.521C191.297 43.3107 190.868 43.9267 190.233 44.412C189.598 44.888 188.819 45.126 187.895 45.126C187.148 45.126 186.476 44.9627 185.879 44.636C185.291 44.3 184.829 43.8287 184.493 43.222C184.166 42.6153 184.003 41.9153 184.003 41.122C184.003 40.3193 184.166 39.6147 184.493 39.008C184.82 38.4013 185.277 37.9347 185.865 37.608C186.453 37.2813 187.13 37.118 187.895 37.118C188.632 37.118 189.29 37.2767 189.869 37.594C190.457 37.9113 190.91 38.364 191.227 38.952C191.554 39.5307 191.717 40.198 191.717 40.954ZM189.687 40.394C189.678 39.89 189.496 39.4887 189.141 39.19C188.786 38.882 188.352 38.728 187.839 38.728C187.354 38.728 186.943 38.8773 186.607 39.176C186.28 39.4653 186.08 39.8713 186.005 40.394H189.687ZM199.928 45.126C199.181 45.126 198.509 44.9627 197.912 44.636C197.314 44.3 196.843 43.8287 196.498 43.222C196.162 42.6153 195.994 41.9153 195.994 41.122C195.994 40.3287 196.166 39.6287 196.512 39.022C196.866 38.4153 197.347 37.9487 197.954 37.622C198.56 37.286 199.237 37.118 199.984 37.118C200.73 37.118 201.407 37.286 202.014 37.622C202.62 37.9487 203.096 38.4153 203.442 39.022C203.796 39.6287 203.974 40.3287 203.974 41.122C203.974 41.9153 203.792 42.6153 203.428 43.222C203.073 43.8287 202.588 44.3 201.972 44.636C201.365 44.9627 200.684 45.126 199.928 45.126ZM199.928 43.418C200.282 43.418 200.614 43.334 200.922 43.166C201.239 42.9887 201.491 42.7273 201.678 42.382C201.864 42.0367 201.958 41.6167 201.958 41.122C201.958 40.3847 201.762 39.82 201.37 39.428C200.987 39.0267 200.516 38.826 199.956 38.826C199.396 38.826 198.924 39.0267 198.542 39.428C198.168 39.82 197.982 40.3847 197.982 41.122C197.982 41.8593 198.164 42.4287 198.528 42.83C198.901 43.222 199.368 43.418 199.928 43.418ZM208.967 38.854H207.609V45H205.621V38.854H204.739V37.244H205.621V36.852C205.621 35.9 205.892 35.2 206.433 34.752C206.975 34.304 207.791 34.094 208.883 34.122V35.774C208.407 35.7647 208.076 35.844 207.889 36.012C207.703 36.18 207.609 36.4833 207.609 36.922V37.244H208.967V38.854ZM215.855 38.854V42.606C215.855 42.8673 215.916 43.0587 216.037 43.18C216.168 43.292 216.383 43.348 216.681 43.348H217.591V45H216.359C214.707 45 213.881 44.1973 213.881 42.592V38.854H212.957V37.244H213.881V35.326H215.855V37.244H217.591V38.854H215.855ZM220.961 38.448C221.213 38.0373 221.54 37.7153 221.941 37.482C222.352 37.2487 222.818 37.132 223.341 37.132V39.19H222.823C222.207 39.19 221.74 39.3347 221.423 39.624C221.115 39.9133 220.961 40.4173 220.961 41.136V45H219.001V37.244H220.961V38.448ZM224.157 41.094C224.157 40.31 224.311 39.6147 224.619 39.008C224.937 38.4013 225.361 37.9347 225.893 37.608C226.435 37.2813 227.037 37.118 227.699 37.118C228.278 37.118 228.782 37.2347 229.211 37.468C229.65 37.7013 230 37.9953 230.261 38.35V37.244H232.235V45H230.261V43.866C230.009 44.23 229.659 44.5333 229.211 44.776C228.773 45.0093 228.264 45.126 227.685 45.126C227.032 45.126 226.435 44.958 225.893 44.622C225.361 44.286 224.937 43.8147 224.619 43.208C224.311 42.592 224.157 41.8873 224.157 41.094ZM230.261 41.122C230.261 40.646 230.168 40.24 229.981 39.904C229.795 39.5587 229.543 39.2973 229.225 39.12C228.908 38.9333 228.567 38.84 228.203 38.84C227.839 38.84 227.503 38.9287 227.195 39.106C226.887 39.2833 226.635 39.5447 226.439 39.89C226.253 40.226 226.159 40.6273 226.159 41.094C226.159 41.5607 226.253 41.9713 226.439 42.326C226.635 42.6713 226.887 42.9373 227.195 43.124C227.513 43.3107 227.849 43.404 228.203 43.404C228.567 43.404 228.908 43.3153 229.225 43.138C229.543 42.9513 229.795 42.69 229.981 42.354C230.168 42.0087 230.261 41.598 230.261 41.122ZM237.384 43.194L239.344 37.244H241.43L238.56 45H236.18L233.324 37.244H235.424L237.384 43.194ZM249.74 40.954C249.74 41.234 249.722 41.486 249.684 41.71H244.014C244.061 42.27 244.257 42.7087 244.602 43.026C244.948 43.3433 245.372 43.502 245.876 43.502C246.604 43.502 247.122 43.1893 247.43 42.564H249.544C249.32 43.3107 248.891 43.9267 248.256 44.412C247.622 44.888 246.842 45.126 245.918 45.126C245.172 45.126 244.5 44.9627 243.902 44.636C243.314 44.3 242.852 43.8287 242.516 43.222C242.19 42.6153 242.026 41.9153 242.026 41.122C242.026 40.3193 242.19 39.6147 242.516 39.008C242.843 38.4013 243.3 37.9347 243.888 37.608C244.476 37.2813 245.153 37.118 245.918 37.118C246.656 37.118 247.314 37.2767 247.892 37.594C248.48 37.9113 248.933 38.364 249.25 38.952C249.577 39.5307 249.74 40.198 249.74 40.954ZM247.71 40.394C247.701 39.89 247.519 39.4887 247.164 39.19C246.81 38.882 246.376 38.728 245.862 38.728C245.377 38.728 244.966 38.8773 244.63 39.176C244.304 39.4653 244.103 39.8713 244.028 40.394H247.71ZM253.131 34.64V45H251.171V34.64H253.131ZM261.96 38.854H260.602V45H258.614V38.854H257.732V37.244H258.614V36.852C258.614 35.9 258.884 35.2 259.426 34.752C259.967 34.304 260.784 34.094 261.876 34.122V35.774C261.4 35.7647 261.068 35.844 260.882 36.012C260.695 36.18 260.602 36.4833 260.602 36.922V37.244H261.96V38.854ZM266.674 45.126C265.927 45.126 265.255 44.9627 264.658 44.636C264.06 44.3 263.589 43.8287 263.244 43.222C262.908 42.6153 262.74 41.9153 262.74 41.122C262.74 40.3287 262.912 39.6287 263.258 39.022C263.612 38.4153 264.093 37.9487 264.7 37.622C265.306 37.286 265.983 37.118 266.73 37.118C267.476 37.118 268.153 37.286 268.76 37.622C269.366 37.9487 269.842 38.4153 270.188 39.022C270.542 39.6287 270.72 40.3287 270.72 41.122C270.72 41.9153 270.538 42.6153 270.174 43.222C269.819 43.8287 269.334 44.3 268.718 44.636C268.111 44.9627 267.43 45.126 266.674 45.126ZM266.674 43.418C267.028 43.418 267.36 43.334 267.668 43.166C267.985 42.9887 268.237 42.7273 268.424 42.382C268.61 42.0367 268.704 41.6167 268.704 41.122C268.704 40.3847 268.508 39.82 268.116 39.428C267.733 39.0267 267.262 38.826 266.702 38.826C266.142 38.826 265.67 39.0267 265.288 39.428C264.914 39.82 264.728 40.3847 264.728 41.122C264.728 41.8593 264.91 42.4287 265.274 42.83C265.647 43.222 266.114 43.418 266.674 43.418ZM274.117 38.448C274.369 38.0373 274.696 37.7153 275.097 37.482C275.508 37.2487 275.975 37.132 276.497 37.132V39.19H275.979C275.363 39.19 274.897 39.3347 274.579 39.624C274.271 39.9133 274.117 40.4173 274.117 41.136V45H272.157V37.244H274.117V38.448ZM283.114 38.364C283.366 38.0093 283.711 37.7153 284.15 37.482C284.598 37.2393 285.106 37.118 285.676 37.118C286.338 37.118 286.936 37.2813 287.468 37.608C288.009 37.9347 288.434 38.4013 288.742 39.008C289.059 39.6053 289.218 40.3007 289.218 41.094C289.218 41.8873 289.059 42.592 288.742 43.208C288.434 43.8147 288.009 44.286 287.468 44.622C286.936 44.958 286.338 45.126 285.676 45.126C285.106 45.126 284.602 45.0093 284.164 44.776C283.734 44.5427 283.384 44.2487 283.114 43.894V48.696H281.154V37.244H283.114V38.364ZM287.216 41.094C287.216 40.6273 287.118 40.226 286.922 39.89C286.735 39.5447 286.483 39.2833 286.166 39.106C285.858 38.9287 285.522 38.84 285.158 38.84C284.803 38.84 284.467 38.9333 284.15 39.12C283.842 39.2973 283.59 39.5587 283.394 39.904C283.207 40.2493 283.114 40.6553 283.114 41.122C283.114 41.5887 283.207 41.9947 283.394 42.34C283.59 42.6853 283.842 42.9513 284.15 43.138C284.467 43.3153 284.803 43.404 285.158 43.404C285.522 43.404 285.858 43.3107 286.166 43.124C286.483 42.9373 286.735 42.6713 286.922 42.326C287.118 41.9807 287.216 41.57 287.216 41.094ZM297.852 40.954C297.852 41.234 297.833 41.486 297.796 41.71H292.126C292.172 42.27 292.368 42.7087 292.714 43.026C293.059 43.3433 293.484 43.502 293.988 43.502C294.716 43.502 295.234 43.1893 295.542 42.564H297.656C297.432 43.3107 297.002 43.9267 296.368 44.412C295.733 44.888 294.954 45.126 294.03 45.126C293.283 45.126 292.611 44.9627 292.014 44.636C291.426 44.3 290.964 43.8287 290.628 43.222C290.301 42.6153 290.138 41.9153 290.138 41.122C290.138 40.3193 290.301 39.6147 290.628 39.008C290.954 38.4013 291.412 37.9347 292 37.608C292.588 37.2813 293.264 37.118 294.03 37.118C294.767 37.118 295.425 37.2767 296.004 37.594C296.592 37.9113 297.044 38.364 297.362 38.952C297.688 39.5307 297.852 40.198 297.852 40.954ZM295.822 40.394C295.812 39.89 295.63 39.4887 295.276 39.19C294.921 38.882 294.487 38.728 293.974 38.728C293.488 38.728 293.078 38.8773 292.742 39.176C292.415 39.4653 292.214 39.8713 292.14 40.394H295.822ZM302.726 45.126C301.98 45.126 301.308 44.9627 300.71 44.636C300.113 44.3 299.642 43.8287 299.296 43.222C298.96 42.6153 298.792 41.9153 298.792 41.122C298.792 40.3287 298.965 39.6287 299.31 39.022C299.665 38.4153 300.146 37.9487 300.752 37.622C301.359 37.286 302.036 37.118 302.782 37.118C303.529 37.118 304.206 37.286 304.812 37.622C305.419 37.9487 305.895 38.4153 306.24 39.022C306.595 39.6287 306.772 40.3287 306.772 41.122C306.772 41.9153 306.59 42.6153 306.226 43.222C305.872 43.8287 305.386 44.3 304.77 44.636C304.164 44.9627 303.482 45.126 302.726 45.126ZM302.726 43.418C303.081 43.418 303.412 43.334 303.72 43.166C304.038 42.9887 304.29 42.7273 304.476 42.382C304.663 42.0367 304.756 41.6167 304.756 41.122C304.756 40.3847 304.56 39.82 304.168 39.428C303.786 39.0267 303.314 38.826 302.754 38.826C302.194 38.826 301.723 39.0267 301.34 39.428C300.967 39.82 300.78 40.3847 300.78 41.122C300.78 41.8593 300.962 42.4287 301.326 42.83C301.7 43.222 302.166 43.418 302.726 43.418ZM310.17 38.364C310.422 38.0093 310.767 37.7153 311.206 37.482C311.654 37.2393 312.163 37.118 312.732 37.118C313.395 37.118 313.992 37.2813 314.524 37.608C315.065 37.9347 315.49 38.4013 315.798 39.008C316.115 39.6053 316.274 40.3007 316.274 41.094C316.274 41.8873 316.115 42.592 315.798 43.208C315.49 43.8147 315.065 44.286 314.524 44.622C313.992 44.958 313.395 45.126 312.732 45.126C312.163 45.126 311.659 45.0093 311.22 44.776C310.791 44.5427 310.441 44.2487 310.17 43.894V48.696H308.21V37.244H310.17V38.364ZM314.272 41.094C314.272 40.6273 314.174 40.226 313.978 39.89C313.791 39.5447 313.539 39.2833 313.222 39.106C312.914 38.9287 312.578 38.84 312.214 38.84C311.859 38.84 311.523 38.9333 311.206 39.12C310.898 39.2973 310.646 39.5587 310.45 39.904C310.263 40.2493 310.17 40.6553 310.17 41.122C310.17 41.5887 310.263 41.9947 310.45 42.34C310.646 42.6853 310.898 42.9513 311.206 43.138C311.523 43.3153 311.859 43.404 312.214 43.404C312.578 43.404 312.914 43.3107 313.222 43.124C313.539 42.9373 313.791 42.6713 313.978 42.326C314.174 41.9807 314.272 41.57 314.272 41.094ZM319.658 34.64V45H317.698V34.64H319.658ZM328.805 40.954C328.805 41.234 328.786 41.486 328.749 41.71H323.079C323.126 42.27 323.322 42.7087 323.667 43.026C324.012 43.3433 324.437 43.502 324.941 43.502C325.669 43.502 326.187 43.1893 326.495 42.564H328.609C328.385 43.3107 327.956 43.9267 327.321 44.412C326.686 44.888 325.907 45.126 324.983 45.126C324.236 45.126 323.564 44.9627 322.967 44.636C322.379 44.3 321.917 43.8287 321.581 43.222C321.254 42.6153 321.091 41.9153 321.091 41.122C321.091 40.3193 321.254 39.6147 321.581 39.008C321.908 38.4013 322.365 37.9347 322.953 37.608C323.541 37.2813 324.218 37.118 324.983 37.118C325.72 37.118 326.378 37.2767 326.957 37.594C327.545 37.9113 327.998 38.364 328.315 38.952C328.642 39.5307 328.805 40.198 328.805 40.954ZM326.775 40.394C326.766 39.89 326.584 39.4887 326.229 39.19C325.874 38.882 325.44 38.728 324.927 38.728C324.442 38.728 324.031 38.8773 323.695 39.176C323.368 39.4653 323.168 39.8713 323.093 40.394H326.775ZM344.323 37.244L342.055 45H339.941L338.527 39.582L337.113 45H334.985L332.703 37.244H334.691L336.063 43.152L337.547 37.244H339.619L341.075 43.138L342.447 37.244H344.323ZM346.378 36.32C346.033 36.32 345.743 36.2127 345.51 35.998C345.286 35.774 345.174 35.4987 345.174 35.172C345.174 34.8453 345.286 34.5747 345.51 34.36C345.743 34.136 346.033 34.024 346.378 34.024C346.723 34.024 347.008 34.136 347.232 34.36C347.465 34.5747 347.582 34.8453 347.582 35.172C347.582 35.4987 347.465 35.774 347.232 35.998C347.008 36.2127 346.723 36.32 346.378 36.32ZM347.344 37.244V45H345.384V37.244H347.344ZM351.562 38.854V42.606C351.562 42.8673 351.623 43.0587 351.744 43.18C351.875 43.292 352.09 43.348 352.388 43.348H353.298V45H352.066C350.414 45 349.588 44.1973 349.588 42.592V38.854H348.664V37.244H349.588V35.326H351.562V37.244H353.298V38.854H351.562ZM359.076 37.132C359.664 37.132 360.187 37.2627 360.644 37.524C361.102 37.776 361.456 38.154 361.708 38.658C361.97 39.1527 362.1 39.75 362.1 40.45V45H360.14V40.716C360.14 40.1 359.986 39.6287 359.678 39.302C359.37 38.966 358.95 38.798 358.418 38.798C357.877 38.798 357.448 38.966 357.13 39.302C356.822 39.6287 356.668 40.1 356.668 40.716V45H354.708V34.64H356.668V38.21C356.92 37.874 357.256 37.6127 357.676 37.426C358.096 37.23 358.563 37.132 359.076 37.132ZM366.796 41.094C366.796 40.31 366.95 39.6147 367.258 39.008C367.575 38.4013 368.005 37.9347 368.546 37.608C369.087 37.2813 369.689 37.118 370.352 37.118C370.856 37.118 371.337 37.23 371.794 37.454C372.251 37.6687 372.615 37.958 372.886 38.322V34.64H374.874V45H372.886V43.852C372.643 44.2347 372.303 44.5427 371.864 44.776C371.425 45.0093 370.917 45.126 370.338 45.126C369.685 45.126 369.087 44.958 368.546 44.622C368.005 44.286 367.575 43.8147 367.258 43.208C366.95 42.592 366.796 41.8873 366.796 41.094ZM372.9 41.122C372.9 40.646 372.807 40.24 372.62 39.904C372.433 39.5587 372.181 39.2973 371.864 39.12C371.547 38.9333 371.206 38.84 370.842 38.84C370.478 38.84 370.142 38.9287 369.834 39.106C369.526 39.2833 369.274 39.5447 369.078 39.89C368.891 40.226 368.798 40.6273 368.798 41.094C368.798 41.5607 368.891 41.9713 369.078 42.326C369.274 42.6713 369.526 42.9373 369.834 43.124C370.151 43.3107 370.487 43.404 370.842 43.404C371.206 43.404 371.547 43.3153 371.864 43.138C372.181 42.9513 372.433 42.69 372.62 42.354C372.807 42.0087 372.9 41.598 372.9 41.122ZM377.782 36.32C377.437 36.32 377.148 36.2127 376.914 35.998C376.69 35.774 376.578 35.4987 376.578 35.172C376.578 34.8453 376.69 34.5747 376.914 34.36C377.148 34.136 377.437 34.024 377.782 34.024C378.128 34.024 378.412 34.136 378.636 34.36C378.87 34.5747 378.986 34.8453 378.986 35.172C378.986 35.4987 378.87 35.774 378.636 35.998C378.412 36.2127 378.128 36.32 377.782 36.32ZM378.748 37.244V45H376.788V37.244H378.748ZM383.653 45.126C383.018 45.126 382.449 45.014 381.945 44.79C381.441 44.5567 381.039 44.244 380.741 43.852C380.451 43.46 380.293 43.026 380.265 42.55H382.239C382.276 42.8487 382.421 43.096 382.673 43.292C382.934 43.488 383.256 43.586 383.639 43.586C384.012 43.586 384.301 43.5113 384.507 43.362C384.721 43.2127 384.829 43.0213 384.829 42.788C384.829 42.536 384.698 42.3493 384.437 42.228C384.185 42.0973 383.779 41.9573 383.219 41.808C382.64 41.668 382.164 41.5233 381.791 41.374C381.427 41.2247 381.109 40.996 380.839 40.688C380.577 40.38 380.447 39.9647 380.447 39.442C380.447 39.0127 380.568 38.6207 380.811 38.266C381.063 37.9113 381.417 37.6313 381.875 37.426C382.341 37.2207 382.887 37.118 383.513 37.118C384.437 37.118 385.174 37.3513 385.725 37.818C386.275 38.2753 386.579 38.896 386.635 39.68H384.759C384.731 39.372 384.6 39.1293 384.367 38.952C384.143 38.7653 383.839 38.672 383.457 38.672C383.102 38.672 382.827 38.7373 382.631 38.868C382.444 38.9987 382.351 39.1807 382.351 39.414C382.351 39.6753 382.481 39.876 382.743 40.016C383.004 40.1467 383.41 40.282 383.961 40.422C384.521 40.562 384.983 40.7067 385.347 40.856C385.711 41.0053 386.023 41.2387 386.285 41.556C386.555 41.864 386.695 42.2747 386.705 42.788C386.705 43.236 386.579 43.6373 386.327 43.992C386.084 44.3467 385.729 44.6267 385.263 44.832C384.805 45.028 384.269 45.126 383.653 45.126ZM387.81 41.094C387.81 40.31 387.964 39.6147 388.272 39.008C388.589 38.4013 389.014 37.9347 389.546 37.608C390.087 37.2813 390.689 37.118 391.352 37.118C391.93 37.118 392.434 37.2347 392.864 37.468C393.302 37.7013 393.652 37.9953 393.914 38.35V37.244H395.888V45H393.914V43.866C393.662 44.23 393.312 44.5333 392.864 44.776C392.425 45.0093 391.916 45.126 391.338 45.126C390.684 45.126 390.087 44.958 389.546 44.622C389.014 44.286 388.589 43.8147 388.272 43.208C387.964 42.592 387.81 41.8873 387.81 41.094ZM393.914 41.122C393.914 40.646 393.82 40.24 393.634 39.904C393.447 39.5587 393.195 39.2973 392.878 39.12C392.56 38.9333 392.22 38.84 391.856 38.84C391.492 38.84 391.156 38.9287 390.848 39.106C390.54 39.2833 390.288 39.5447 390.092 39.89C389.905 40.226 389.812 40.6273 389.812 41.094C389.812 41.5607 389.905 41.9713 390.092 42.326C390.288 42.6713 390.54 42.9373 390.848 43.124C391.165 43.3107 391.501 43.404 391.856 43.404C392.22 43.404 392.56 43.3153 392.878 43.138C393.195 42.9513 393.447 42.69 393.634 42.354C393.82 42.0087 393.914 41.598 393.914 41.122ZM399.762 38.378C400.014 38.0047 400.359 37.7013 400.798 37.468C401.246 37.2347 401.755 37.118 402.324 37.118C402.987 37.118 403.584 37.2813 404.116 37.608C404.657 37.9347 405.082 38.4013 405.39 39.008C405.707 39.6053 405.866 40.3007 405.866 41.094C405.866 41.8873 405.707 42.592 405.39 43.208C405.082 43.8147 404.657 44.286 404.116 44.622C403.584 44.958 402.987 45.126 402.324 45.126C401.745 45.126 401.237 45.014 400.798 44.79C400.369 44.5567 400.023 44.258 399.762 43.894V45H397.802V34.64H399.762V38.378ZM403.864 41.094C403.864 40.6273 403.766 40.226 403.57 39.89C403.383 39.5447 403.131 39.2833 402.814 39.106C402.506 38.9287 402.17 38.84 401.806 38.84C401.451 38.84 401.115 38.9333 400.798 39.12C400.49 39.2973 400.238 39.5587 400.042 39.904C399.855 40.2493 399.762 40.6553 399.762 41.122C399.762 41.5887 399.855 41.9947 400.042 42.34C400.238 42.6853 400.49 42.9513 400.798 43.138C401.115 43.3153 401.451 43.404 401.806 43.404C402.17 43.404 402.506 43.3107 402.814 43.124C403.131 42.9373 403.383 42.6713 403.57 42.326C403.766 41.9807 403.864 41.57 403.864 41.094ZM408.284 36.32C407.939 36.32 407.65 36.2127 407.416 35.998C407.192 35.774 407.08 35.4987 407.08 35.172C407.08 34.8453 407.192 34.5747 407.416 34.36C407.65 34.136 407.939 34.024 408.284 34.024C408.63 34.024 408.914 34.136 409.138 34.36C409.372 34.5747 409.488 34.8453 409.488 35.172C409.488 35.4987 409.372 35.774 409.138 35.998C408.914 36.2127 408.63 36.32 408.284 36.32ZM409.25 37.244V45H407.29V37.244H409.25ZM413.147 34.64V45H411.187V34.64H413.147ZM416.077 36.32C415.732 36.32 415.443 36.2127 415.209 35.998C414.985 35.774 414.873 35.4987 414.873 35.172C414.873 34.8453 414.985 34.5747 415.209 34.36C415.443 34.136 415.732 34.024 416.077 34.024C416.423 34.024 416.707 34.136 416.931 34.36C417.165 34.5747 417.281 34.8453 417.281 35.172C417.281 35.4987 417.165 35.774 416.931 35.998C416.707 36.2127 416.423 36.32 416.077 36.32ZM417.043 37.244V45H415.083V37.244H417.043ZM421.262 38.854V42.606C421.262 42.8673 421.322 43.0587 421.444 43.18C421.574 43.292 421.789 43.348 422.088 43.348H422.998V45H421.766C420.114 45 419.288 44.1973 419.288 42.592V38.854H418.364V37.244H419.288V35.326H421.262V37.244H422.998V38.854H421.262ZM425.401 36.32C425.056 36.32 424.767 36.2127 424.533 35.998C424.309 35.774 424.197 35.4987 424.197 35.172C424.197 34.8453 424.309 34.5747 424.533 34.36C424.767 34.136 425.056 34.024 425.401 34.024C425.747 34.024 426.031 34.136 426.255 34.36C426.489 34.5747 426.605 34.8453 426.605 35.172C426.605 35.4987 426.489 35.774 426.255 35.998C426.031 36.2127 425.747 36.32 425.401 36.32ZM426.367 37.244V45H424.407V37.244H426.367ZM435.514 40.954C435.514 41.234 435.495 41.486 435.458 41.71H429.788C429.835 42.27 430.031 42.7087 430.376 43.026C430.721 43.3433 431.146 43.502 431.65 43.502C432.378 43.502 432.896 43.1893 433.204 42.564H435.318C435.094 43.3107 434.665 43.9267 434.03 44.412C433.395 44.888 432.616 45.126 431.692 45.126C430.945 45.126 430.273 44.9627 429.676 44.636C429.088 44.3 428.626 43.8287 428.29 43.222C427.963 42.6153 427.8 41.9153 427.8 41.122C427.8 40.3193 427.963 39.6147 428.29 39.008C428.617 38.4013 429.074 37.9347 429.662 37.608C430.25 37.2813 430.927 37.118 431.692 37.118C432.429 37.118 433.087 37.2767 433.666 37.594C434.254 37.9113 434.707 38.364 435.024 38.952C435.351 39.5307 435.514 40.198 435.514 40.954ZM433.484 40.394C433.475 39.89 433.293 39.4887 432.938 39.19C432.583 38.882 432.149 38.728 431.636 38.728C431.151 38.728 430.74 38.8773 430.404 39.176C430.077 39.4653 429.877 39.8713 429.802 40.394H433.484ZM439.913 45.126C439.278 45.126 438.709 45.014 438.205 44.79C437.701 44.5567 437.299 44.244 437.001 43.852C436.711 43.46 436.553 43.026 436.525 42.55H438.499C438.536 42.8487 438.681 43.096 438.933 43.292C439.194 43.488 439.516 43.586 439.899 43.586C440.272 43.586 440.561 43.5113 440.767 43.362C440.981 43.2127 441.089 43.0213 441.089 42.788C441.089 42.536 440.958 42.3493 440.697 42.228C440.445 42.0973 440.039 41.9573 439.479 41.808C438.9 41.668 438.424 41.5233 438.051 41.374C437.687 41.2247 437.369 40.996 437.099 40.688C436.837 40.38 436.707 39.9647 436.707 39.442C436.707 39.0127 436.828 38.6207 437.071 38.266C437.323 37.9113 437.677 37.6313 438.135 37.426C438.601 37.2207 439.147 37.118 439.773 37.118C440.697 37.118 441.434 37.3513 441.985 37.818C442.535 38.2753 442.839 38.896 442.895 39.68H441.019C440.991 39.372 440.86 39.1293 440.627 38.952C440.403 38.7653 440.099 38.672 439.717 38.672C439.362 38.672 439.087 38.7373 438.891 38.868C438.704 38.9987 438.611 39.1807 438.611 39.414C438.611 39.6753 438.741 39.876 439.003 40.016C439.264 40.1467 439.67 40.282 440.221 40.422C440.781 40.562 441.243 40.7067 441.607 40.856C441.971 41.0053 442.283 41.2387 442.545 41.556C442.815 41.864 442.955 42.2747 442.965 42.788C442.965 43.236 442.839 43.6373 442.587 43.992C442.344 44.3467 441.989 44.6267 441.523 44.832C441.065 45.028 440.529 45.126 439.913 45.126Z" fill="black"/>
<path d="M111 132L287.626 217.634L450 263" stroke="#44A0EC" stroke-width="4" stroke-linecap="round"/>
<circle cx="450" cy="263" r="9" fill="white" stroke="#44A0EC" stroke-width="8"/>
<g filter="url(#filter0_d_1927_1337)">
<path fill-rule="evenodd" clip-rule="evenodd" d="M331 238C326.582 238 323 241.582 323 246V279C323 283.418 326.582 287 331 287H416C420.418 287 424 283.418 424 279V272.82L434.213 262.607L424 252.393V246C424 241.582 420.418 238 416 238H331Z" fill="white"/>
</g>
<path d="M350.486 258.722V255.86H355.472V269H352.268V258.722H350.486ZM357.686 259.568C357.734 258.284 358.154 257.294 358.946 256.598C359.738 255.902 360.812 255.554 362.168 255.554C363.068 255.554 363.836 255.71 364.472 256.022C365.12 256.334 365.606 256.76 365.93 257.3C366.266 257.84 366.434 258.446 366.434 259.118C366.434 259.91 366.236 260.558 365.84 261.062C365.444 261.554 364.982 261.89 364.454 262.07V262.142C365.138 262.37 365.678 262.748 366.074 263.276C366.47 263.804 366.668 264.482 366.668 265.31C366.668 266.054 366.494 266.714 366.146 267.29C365.81 267.854 365.312 268.298 364.652 268.622C364.004 268.946 363.23 269.108 362.33 269.108C360.89 269.108 359.738 268.754 358.874 268.046C358.022 267.338 357.572 266.27 357.524 264.842H360.512C360.524 265.37 360.674 265.79 360.962 266.102C361.25 266.402 361.67 266.552 362.222 266.552C362.69 266.552 363.05 266.42 363.302 266.156C363.566 265.88 363.698 265.52 363.698 265.076C363.698 264.5 363.512 264.086 363.14 263.834C362.78 263.57 362.198 263.438 361.394 263.438H360.818V260.936H361.394C362.006 260.936 362.498 260.834 362.87 260.63C363.254 260.414 363.446 260.036 363.446 259.496C363.446 259.064 363.326 258.728 363.086 258.488C362.846 258.248 362.516 258.128 362.096 258.128C361.64 258.128 361.298 258.266 361.07 258.542C360.854 258.818 360.728 259.16 360.692 259.568H357.686ZM370.222 269.144C369.682 269.144 369.238 268.988 368.89 268.676C368.554 268.352 368.386 267.956 368.386 267.488C368.386 267.008 368.554 266.606 368.89 266.282C369.238 265.958 369.682 265.796 370.222 265.796C370.75 265.796 371.182 265.958 371.518 266.282C371.866 266.606 372.04 267.008 372.04 267.488C372.04 267.956 371.866 268.352 371.518 268.676C371.182 268.988 370.75 269.144 370.222 269.144ZM376.868 265.148C377.048 266.096 377.6 266.57 378.524 266.57C379.16 266.57 379.61 266.288 379.874 265.724C380.138 265.16 380.27 264.242 380.27 262.97C380.006 263.342 379.646 263.63 379.19 263.834C378.734 264.038 378.224 264.14 377.66 264.14C376.892 264.14 376.208 263.984 375.608 263.672C375.008 263.348 374.534 262.874 374.186 262.25C373.85 261.614 373.682 260.846 373.682 259.946C373.682 259.058 373.862 258.284 374.222 257.624C374.594 256.964 375.116 256.454 375.788 256.094C376.472 255.734 377.276 255.554 378.2 255.554C379.976 255.554 381.218 256.106 381.926 257.21C382.634 258.314 382.988 259.94 382.988 262.088C382.988 263.648 382.844 264.938 382.556 265.958C382.28 266.966 381.806 267.734 381.134 268.262C380.474 268.79 379.568 269.054 378.416 269.054C377.504 269.054 376.724 268.874 376.076 268.514C375.44 268.154 374.948 267.68 374.6 267.092C374.264 266.504 374.072 265.856 374.024 265.148H376.868ZM378.362 261.71C378.866 261.71 379.268 261.56 379.568 261.26C379.868 260.948 380.018 260.528 380.018 260C380.018 259.424 379.862 258.98 379.55 258.668C379.238 258.356 378.818 258.2 378.29 258.2C377.762 258.2 377.342 258.362 377.03 258.686C376.73 258.998 376.58 259.43 376.58 259.982C376.58 260.498 376.73 260.918 377.03 261.242C377.342 261.554 377.786 261.71 378.362 261.71ZM384.378 259.172C384.378 258.2 384.654 257.45 385.206 256.922C385.77 256.394 386.496 256.13 387.384 256.13C388.272 256.13 388.992 256.394 389.544 256.922C390.096 257.45 390.372 258.2 390.372 259.172C390.372 260.144 390.096 260.894 389.544 261.422C388.992 261.95 388.272 262.214 387.384 262.214C386.496 262.214 385.77 261.95 385.206 261.422C384.654 260.894 384.378 260.144 384.378 259.172ZM396.6 256.328L389.67 269H386.7L393.63 256.328H396.6ZM387.366 257.93C386.79 257.93 386.502 258.344 386.502 259.172C386.502 259.988 386.79 260.396 387.366 260.396C387.642 260.396 387.858 260.294 388.014 260.09C388.17 259.886 388.248 259.58 388.248 259.172C388.248 258.344 387.954 257.93 387.366 257.93ZM392.946 266.156C392.946 265.184 393.222 264.434 393.774 263.906C394.326 263.378 395.046 263.114 395.934 263.114C396.822 263.114 397.542 263.378 398.094 263.906C398.646 264.434 398.922 265.184 398.922 266.156C398.922 267.128 398.646 267.878 398.094 268.406C397.542 268.934 396.822 269.198 395.934 269.198C395.046 269.198 394.326 268.934 393.774 268.406C393.222 267.878 392.946 267.128 392.946 266.156ZM395.916 264.914C395.64 264.914 395.424 265.016 395.268 265.22C395.124 265.424 395.052 265.736 395.052 266.156C395.052 266.972 395.34 267.38 395.916 267.38C396.192 267.38 396.408 267.278 396.564 267.074C396.72 266.87 396.798 266.564 396.798 266.156C396.798 265.748 396.72 265.442 396.564 265.238C396.408 265.022 396.192 264.914 395.916 264.914Z" fill="black"/>
<line x1="109" y1="74" x2="466" y2="74" stroke="#C1C1C1" stroke-width="2" stroke-dasharray="6 6"/>
<line x1="109" y1="216" x2="466" y2="216" stroke="#C1C1C1" stroke-width="2" stroke-dasharray="6 6"/>
<defs>
<filter id="filter0_d_1927_1337" x="306" y="223" width="145.213" height="83" filterUnits="userSpaceOnUse" color-interpolation-filters="sRGB">
<feFlood flood-opacity="0" result="BackgroundImageFix"/>
<feColorMatrix in="SourceAlpha" type="matrix" values="0 0 0 0 0 0 0 0 0 0 0 0 0 0 0 0 0 0 127 0" result="hardAlpha"/>
<feOffset dy="2"/>
<feGaussianBlur stdDeviation="8.5"/>
<feComposite in2="hardAlpha" operator="out"/>
<feColorMatrix type="matrix" values="0 0 0 0 0 0 0 0 0 0 0 0 0 0 0 0 0 0 0.25 0"/>
<feBlend mode="normal" in2="BackgroundImageFix" result="effect1_dropShadow_1927_1337"/>
<feBlend mode="normal" in="SourceGraphic" in2="effect1_dropShadow_1927_1337" result="shape"/>
</filter>
</defs>
</svg>
