<svg width="1365" height="579" viewBox="0 0 1365 579" fill="none" xmlns="http://www.w3.org/2000/svg">
<rect x="545.5" y="110" width="470" height="397" rx="4" fill="#0B0C0E"/>
<g clip-path="url(#clip0_1751_2230)">
<rect x="593.5" y="134" width="115" height="32" rx="4" fill="#3D40CC"/>
<path d="M630.517 144H620.483C619.991 144 619.557 144.258 619.397 144.628L617.5 149.243V155.529C617.5 155.797 617.763 156 618.071 156H619.214C619.534 156 619.786 155.797 619.786 155.538V154.154H631.214V155.538C631.214 155.797 631.466 156 631.786 156H632.929C633.249 156 633.5 155.797 633.5 155.538V149.252L631.603 144.637C631.443 144.258 631.009 144 630.517 144ZM620.677 152.308C619.9 152.308 619.283 151.809 619.283 151.182C619.283 150.554 619.9 150.055 620.677 150.055C621.454 150.055 622.071 150.563 622.071 151.182C622.071 151.8 621.454 152.308 620.677 152.308ZM630.323 152.308C629.557 152.308 628.929 151.809 628.929 151.182C628.929 150.554 629.546 150.055 630.323 150.055C631.1 150.055 631.717 150.554 631.717 151.182C631.717 151.809 631.1 152.308 630.323 152.308ZM618.974 148.615L620.494 144.923H630.529L632.049 148.615H618.974Z" fill="white" fill-opacity="0.95"/>
<ellipse cx="621.94" cy="146.389" rx="1.42391" ry="1.19431" fill="white" fill-opacity="0.95"/>
<ellipse cx="621.94" cy="148.777" rx="2.84781" ry="1.19431" fill="white" fill-opacity="0.95"/>
<ellipse cx="629.06" cy="148.777" rx="2.84781" ry="1.19431" fill="white" fill-opacity="0.95"/>
<ellipse cx="629.06" cy="146.389" rx="1.42391" ry="1.19431" fill="white" fill-opacity="0.95"/>
<text fill="white" fill-opacity="0.95" xml:space="preserve" style="white-space: pre" font-family="Inter" font-size="16" font-weight="500" letter-spacing="0em"><tspan x="641.859" y="155.636">Rides</tspan></text>
<rect x="724.5" y="134" width="150" height="32" rx="4" fill="#CECFE5"/>
<path d="M764.056 142L763.913 142.027L759.167 143.867L753.833 142L748.82 143.689C748.633 143.751 748.5 143.911 748.5 144.116V157.556C748.5 157.804 748.696 158 748.944 158L749.087 157.973L753.833 156.133L759.167 158L764.18 156.311C764.367 156.249 764.5 156.089 764.5 155.884V142.444C764.5 142.196 764.304 142 764.056 142ZM759.167 156.222L753.833 154.347V143.778L759.167 145.653V156.222Z" fill="#3D40CC"/>
<text fill="#3D40CC" xml:space="preserve" style="white-space: pre" font-family="Inter" font-size="16" font-weight="500" letter-spacing="0em"><tspan x="772.727" y="155.636">Directions</tspan></text>
<rect x="890.5" y="134" width="101" height="32" rx="4" fill="#CECFE5"/>
<path d="M918.517 148.992C919.717 151.35 921.65 153.275 924.008 154.483L925.842 152.65C926.067 152.425 926.4 152.35 926.692 152.45C927.625 152.758 928.633 152.925 929.667 152.925C930.125 152.925 930.5 153.3 930.5 153.758V156.667C930.5 157.125 930.125 157.5 929.667 157.5C921.842 157.5 915.5 151.158 915.5 143.333C915.5 142.875 915.875 142.5 916.333 142.5H919.25C919.708 142.5 920.083 142.875 920.083 143.333C920.083 144.375 920.25 145.375 920.558 146.308C920.65 146.6 920.583 146.925 920.35 147.158L918.517 148.992Z" fill="#3D40CC"/>
<text fill="#3D40CC" xml:space="preserve" style="white-space: pre" font-family="Inter" font-size="16" font-weight="500" letter-spacing="0em"><tspan x="938.578" y="155.636">Call</tspan></text>
</g>
<text fill="white" xml:space="preserve" style="white-space: pre" font-family="Inter" font-size="18" font-weight="600" letter-spacing="0em"><tspan x="624.557" y="205.545">Whole Foods</tspan></text>
<text fill="white" fill-opacity="0.8" xml:space="preserve" style="white-space: pre" font-family="Inter" font-size="14" letter-spacing="0em"><tspan x="624.5" y="229.091">1423 Milford Path, Manchester, NY, 90782</tspan></text>
<text fill="white" fill-opacity="0.7" xml:space="preserve" style="white-space: pre" font-family="Inter" font-size="12" letter-spacing="0em"><tspan x="624.5" y="248.727">2.5km away</tspan></text>
<text fill="white" xml:space="preserve" style="white-space: pre" font-family="Inter" font-size="16" font-weight="500" letter-spacing="0em"><tspan x="624.5" y="285.636">4.4</tspan></text>
<path d="M664.5 274L665.847 278.146H670.206L666.68 280.708L668.027 284.854L664.5 282.292L660.973 284.854L662.32 280.708L658.794 278.146H663.153L664.5 274Z" fill="#5C5FE6"/>
<path d="M678.5 274L679.847 278.146H684.206L680.68 280.708L682.027 284.854L678.5 282.292L674.973 284.854L676.32 280.708L672.794 278.146H677.153L678.5 274Z" fill="#5C5FE6"/>
<path d="M692.5 274L693.847 278.146H698.206L694.68 280.708L696.027 284.854L692.5 282.292L688.973 284.854L690.32 280.708L686.794 278.146H691.153L692.5 274Z" fill="#5C5FE6"/>
<path d="M706.5 274L707.847 278.146H712.206L708.68 280.708L710.027 284.854L706.5 282.292L702.973 284.854L704.32 280.708L700.794 278.146H705.153L706.5 274Z" fill="#5C5FE6"/>
<path d="M720.5 274L721.847 278.146H726.206L722.68 280.708L724.027 284.854L720.5 282.292L716.973 284.854L718.32 280.708L714.794 278.146H719.153L720.5 274Z" fill="#D9D9D9"/>
<path d="M720.5 274L720.5 279.5L720.5 282.292L716.973 284.854L718.32 280.708L714.794 278.146H719.153L720.5 274Z" fill="#5C5FE5"/>
<text fill="white" xml:space="preserve" style="white-space: pre" font-family="Inter" font-size="16" font-weight="500" letter-spacing="0em"><tspan x="807.5" y="284.636">Open until </tspan></text>
<text fill="#5C5FE5" xml:space="preserve" style="white-space: pre" font-family="Inter" font-size="16" font-weight="500" letter-spacing="0em"><tspan x="894.5" y="284.636">10pm</tspan></text>
<text fill="white" xml:space="preserve" style="white-space: pre" font-family="Inter" font-size="16" font-weight="500" letter-spacing="0em"><tspan x="622.5" y="321.636">Accessibility Options</tspan></text>
<rect x="622.5" y="338" width="316" height="112" rx="4" fill="#1F2133"/>
<path d="M633.938 343.1C633.938 342.49 634.549 342 635.312 342C636.076 342 636.688 342.49 636.688 343.1C636.688 343.711 636.076 344.2 635.312 344.2C634.549 344.2 633.938 343.711 633.938 343.1ZM638.75 348.05C638.743 347.313 638.179 346.67 637.375 346.4C637.375 345.487 636.454 344.75 635.312 344.75C634.171 344.75 633.25 345.487 633.25 346.4V350.25H634.625V353H636.688V350.25H638.75V348.05Z" fill="white" fill-opacity="0.95"/>
<text fill="white" xml:space="preserve" style="white-space: pre" font-family="Inter" font-size="12" letter-spacing="0em"><tspan x="645.5" y="351.727">Pregnant Seating</tspan></text>
<path d="M774.5 356H630.5V358H774.5V356Z" fill="#2E3099" mask="url(#path-29-inside-1_1751_2230)"/>
<path d="M792.212 342H789.25V353H790.942V349.333H792.212C793.612 349.333 794.75 347.689 794.75 345.667C794.75 343.644 793.612 342 792.212 342ZM792.296 346.889H790.942V344.444H792.296C792.762 344.444 793.142 344.994 793.142 345.667C793.142 346.339 792.762 346.889 792.296 346.889Z" fill="white" fill-opacity="0.95"/>
<text fill="white" xml:space="preserve" style="white-space: pre" font-family="Inter" font-size="12" letter-spacing="0em"><tspan x="801.5" y="351.727">Disabled Parking</tspan></text>
<path d="M930.5 356H786.5V358H930.5V356Z" fill="#2E3099" mask="url(#path-33-inside-2_1751_2230)"/>
<path d="M640.125 375.539C639.405 375.539 638.822 376.037 638.761 376.674C637.727 376.427 637.199 375.785 636 375.785C634.796 375.785 634.273 376.427 633.239 376.674C633.179 376.042 632.596 375.539 631.875 375.539C631.116 375.539 630.5 376.091 630.5 376.773V377.019C630.5 379.981 632.48 380.874 634.086 380.958C634.642 381.274 635.296 381.462 636 381.462C636.704 381.462 637.358 381.274 637.914 380.958C639.52 380.874 641.5 379.981 641.5 377.019V376.773C641.5 376.091 640.884 375.539 640.125 375.539ZM631.325 377.019V376.773C631.325 376.501 631.573 376.279 631.875 376.279C632.178 376.279 632.425 376.501 632.425 376.773V378.253C632.425 378.885 632.634 379.472 632.981 379.971C632.145 379.621 631.325 378.821 631.325 377.019ZM640.675 377.019C640.675 378.821 639.856 379.621 639.02 379.971C639.372 379.472 639.575 378.885 639.575 378.253V376.773C639.575 376.501 639.823 376.279 640.125 376.279C640.428 376.279 640.675 376.501 640.675 376.773V377.019ZM635.279 377.75C635.037 377.878 634.752 378.026 634.35 378.125V377.612C634.614 377.528 634.812 377.424 634.999 377.325C635.296 377.167 635.577 377.019 636 377.019C636.424 377.019 636.699 377.167 636.99 377.325C637.177 377.424 637.381 377.533 637.65 377.617V378.13C637.238 378.026 636.957 377.878 636.71 377.745C636.457 377.612 636.27 377.513 636 377.513C635.731 377.513 635.538 377.612 635.279 377.75Z" fill="white" fill-opacity="0.95"/>
<text fill="white" xml:space="preserve" style="white-space: pre" font-family="Inter" font-size="12" letter-spacing="0em"><tspan x="645.5" y="382.727">Mask Available</tspan></text>
<path d="M774.5 387H630.5V389H774.5V387Z" fill="#2E3099" mask="url(#path-37-inside-3_1751_2230)"/>
<g clip-path="url(#clip1_1751_2230)">
<path d="M788.562 378.5C789.195 378.5 789.708 377.987 789.708 377.354C789.708 376.721 789.195 376.208 788.562 376.208C787.93 376.208 787.417 376.721 787.417 377.354C787.417 377.987 787.93 378.5 788.562 378.5Z" fill="white" fill-opacity="0.95"/>
<path d="M790.625 376.667C791.258 376.667 791.771 376.154 791.771 375.521C791.771 374.888 791.258 374.375 790.625 374.375C789.992 374.375 789.479 374.888 789.479 375.521C789.479 376.154 789.992 376.667 790.625 376.667Z" fill="white" fill-opacity="0.95"/>
<path d="M793.375 376.667C794.008 376.667 794.521 376.154 794.521 375.521C794.521 374.888 794.008 374.375 793.375 374.375C792.742 374.375 792.229 374.888 792.229 375.521C792.229 376.154 792.742 376.667 793.375 376.667Z" fill="white" fill-opacity="0.95"/>
<path d="M795.437 378.5C796.07 378.5 796.583 377.987 796.583 377.354C796.583 376.721 796.07 376.208 795.437 376.208C794.805 376.208 794.292 376.721 794.292 377.354C794.292 377.987 794.805 378.5 795.437 378.5Z" fill="white" fill-opacity="0.95"/>
<path d="M794.447 379.811C794.049 379.343 793.714 378.945 793.311 378.477C793.1 378.23 792.83 377.982 792.509 377.872C792.458 377.854 792.408 377.84 792.357 377.831C792.243 377.812 792.119 377.812 792 377.812C791.881 377.812 791.757 377.813 791.638 377.835C791.587 377.845 791.537 377.858 791.487 377.877C791.166 377.987 790.9 378.234 790.685 378.482C790.286 378.949 789.951 379.348 789.548 379.815C788.947 380.416 788.21 381.08 788.347 382.011C788.48 382.478 788.815 382.941 789.415 383.074C789.75 383.143 790.817 382.873 791.954 382.873H792.037C793.173 382.873 794.241 383.138 794.576 383.074C795.176 382.941 795.511 382.474 795.644 382.011C795.786 381.076 795.048 380.411 794.447 379.811Z" fill="white" fill-opacity="0.95"/>
</g>
<text fill="white" xml:space="preserve" style="white-space: pre" font-family="Inter" font-size="12" letter-spacing="0em"><tspan x="801.5" y="382.727">Service Pets Allowed</tspan></text>
<path d="M930.5 387H786.5V389H930.5V387Z" fill="#2E3099" mask="url(#path-41-inside-4_1751_2230)"/>
<path d="M632.562 405.833C632.562 405.325 632.97 404.917 633.479 404.917C633.988 404.917 634.396 405.325 634.396 405.833C634.396 406.342 633.988 406.75 633.479 406.75C632.97 406.75 632.562 406.342 632.562 405.833ZM635.083 409.019V408.125C635.083 407.621 634.671 407.208 634.167 407.208H632.792C632.288 407.208 631.875 407.621 631.875 408.125V410.875H632.792V414.083H634.396V414.033C633.828 413.455 633.479 412.663 633.479 411.792C633.479 410.609 634.125 409.573 635.083 409.019ZM638.062 411.792C638.062 412.548 637.444 413.167 636.688 413.167C635.931 413.167 635.312 412.548 635.312 411.792C635.312 411.283 635.592 410.848 636 410.609V409.619C635.074 409.913 634.399 410.737 634.396 411.792C634.391 413.057 635.423 414.083 636.688 414.083C637.952 414.083 638.979 413.057 638.979 411.792H638.062ZM639.456 410.417H637.375V407.667H636.458V411.333H638.961L640.093 413.034L640.854 412.525L639.456 410.417Z" fill="white" fill-opacity="0.95"/>
<text fill="white" xml:space="preserve" style="white-space: pre" font-family="Inter" font-size="12" letter-spacing="0em"><tspan x="645.5" y="413.727">Wheelchair Accessible</tspan></text>
<path d="M774.5 418H630.5V420H774.5V418Z" fill="#2E3099" mask="url(#path-49-inside-5_1751_2230)"/>
<path d="M794.876 405.65L795.206 406.403L795.923 406.75L795.206 407.097L794.876 407.85L794.546 407.097L793.828 406.75L794.546 406.403L794.876 405.65ZM791.738 406.272V405.1H792.786C793.084 405.1 793.362 405.193 793.598 405.347L794.347 404.561C793.912 404.214 793.378 404 792.786 404C792.01 404 789.905 404 789.905 404V405.1H790.69V406.277C789.763 406.48 789.02 407.19 788.731 408.125H790.816L793.833 409.307V408.966C793.833 407.635 792.932 406.525 791.738 406.272ZM786.5 415H788.595V408.95H786.5V415ZM796.452 412.25H792.786L791.691 411.849L791.864 411.332L792.786 411.7H794.263C794.603 411.7 794.881 411.408 794.881 411.051C794.881 410.781 794.719 410.54 794.478 410.441L790.675 408.95H789.643V413.911L793.31 415L797.5 413.35C797.495 412.745 797.034 412.25 796.452 412.25ZM796.452 410.6C797.029 410.6 797.5 410.105 797.5 409.5C797.5 408.895 796.452 407.3 796.452 407.3C796.452 407.3 795.405 408.895 795.405 409.5C795.405 410.105 795.876 410.6 796.452 410.6Z" fill="white" fill-opacity="0.95"/>
<text fill="white" xml:space="preserve" style="white-space: pre" font-family="Inter" font-size="12" letter-spacing="0em"><tspan x="801.5" y="413.727">Sanitation Station</tspan></text>
<path d="M930.5 418H786.5V420H930.5V418Z" fill="#2E3099" mask="url(#path-53-inside-6_1751_2230)"/>
<path d="M640.4 437.2H638.2V436.1C638.2 435.495 637.705 435 637.1 435H634.9C634.295 435 633.8 435.495 633.8 436.1V437.2H631.6C630.995 437.2 630.5 437.695 630.5 438.3V444.9C630.5 445.505 630.995 446 631.6 446H640.4C641.005 446 641.5 445.505 641.5 444.9V438.3C641.5 437.695 641.005 437.2 640.4 437.2ZM634.9 436.1H637.1V437.2H634.9V436.1ZM638.2 442.15H636.55V443.8H635.45V442.15H633.8V441.05H635.45V439.4H636.55V441.05H638.2V442.15Z" fill="white" fill-opacity="0.95"/>
<text fill="white" xml:space="preserve" style="white-space: pre" font-family="Inter" font-size="12" letter-spacing="0em"><tspan x="645.5" y="444.727">Medical Services</tspan></text>
<text fill="white" fill-opacity="0.8" xml:space="preserve" style="white-space: pre" font-family="Inter" font-size="12" letter-spacing="0em"><tspan x="625.5" y="482.727">Accessibility Rating</tspan></text>
<text fill="#3DCC49" xml:space="preserve" style="white-space: pre" font-family="Inter" font-size="12" letter-spacing="0em"><tspan x="835.125" y="482.727">Very Accessible</tspan></text>
<path d="M932.5 474C930.844 474 929.5 475.12 929.5 476.5C929.5 477.88 930.844 479 932.5 479C934.156 479 935.5 477.88 935.5 476.5C935.5 475.12 934.156 474 932.5 474ZM932.8 478.25H932.2V477.75H932.8V478.25ZM933.421 476.312L933.151 476.543C932.935 476.725 932.8 476.875 932.8 477.25H932.2V477.125C932.2 476.85 932.335 476.6 932.551 476.418L932.923 476.102C933.034 476.013 933.1 475.888 933.1 475.75C933.1 475.475 932.83 475.25 932.5 475.25C932.17 475.25 931.9 475.475 931.9 475.75H931.3C931.3 475.197 931.837 474.75 932.5 474.75C933.163 474.75 933.7 475.197 933.7 475.75C933.7 475.97 933.592 476.17 933.421 476.312Z" fill="#B8B8CC"/>
<text fill="black" xml:space="preserve" style="white-space: pre" font-family="Roboto" font-size="24" font-weight="600" letter-spacing="0em"><tspan x="172.117" y="62.0625">Grid</tspan></text>
<rect x="253.5" y="37.5" width="90" height="32" rx="3.5" fill="white"/>
<text fill="black" xml:space="preserve" style="white-space: pre" font-family="Roboto" font-size="24" letter-spacing="0em"><tspan x="261.375" y="62.0625">8-point</tspan></text>
<rect x="253.5" y="37.5" width="90" height="32" rx="3.5" stroke="black"/>
<rect x="356" y="37" width="46" height="33" rx="4" fill="#204DE1"/>
<text fill="white" xml:space="preserve" style="white-space: pre" font-family="Roboto" font-size="24" letter-spacing="0em"><tspan x="372.25" y="62.0625">8</tspan></text>
<rect x="452" y="210" width="41" height="27" rx="4" fill="#204DE1"/>
<text fill="white" xml:space="preserve" style="white-space: pre" font-family="Roboto" font-size="16" letter-spacing="0em"><tspan x="468" y="229.375">8</tspan></text>
<rect x="414" y="37" width="59" height="33" rx="4" fill="#5E20E1"/>
<text fill="white" xml:space="preserve" style="white-space: pre" font-family="Roboto" font-size="24" letter-spacing="0em"><tspan x="430" y="62.0625">12</tspan></text>
<rect x="418" y="349" width="50" height="27" rx="4" fill="#5E20E1"/>
<text fill="white" xml:space="preserve" style="white-space: pre" font-family="Roboto" font-size="16" letter-spacing="0em"><tspan x="434" y="368.375">12</tspan></text>
<rect x="418" y="380" width="50" height="27" rx="4" fill="#5E20E1"/>
<text fill="white" xml:space="preserve" style="white-space: pre" font-family="Roboto" font-size="16" letter-spacing="0em"><tspan x="434" y="399.375">12</tspan></text>
<rect x="418" y="411" width="50" height="27" rx="4" fill="#5E20E1"/>
<text fill="white" xml:space="preserve" style="white-space: pre" font-family="Roboto" font-size="16" letter-spacing="0em"><tspan x="434" y="430.375">12</tspan></text>
<rect x="365" y="316" width="50" height="27" rx="4" fill="#8E20E1"/>
<text fill="white" xml:space="preserve" style="white-space: pre" font-family="Roboto" font-size="16" letter-spacing="0em"><tspan x="381" y="335.375">16</tspan></text>
<rect x="485" y="37" width="59" height="33" rx="4" fill="#8E20E1"/>
<text fill="white" xml:space="preserve" style="white-space: pre" font-family="Roboto" font-size="24" letter-spacing="0em"><tspan x="501" y="62.0625">16</tspan></text>
<rect x="556" y="37" width="59" height="33" rx="4" fill="#E120C1"/>
<text fill="white" xml:space="preserve" style="white-space: pre" font-family="Roboto" font-size="24" letter-spacing="0em"><tspan x="572" y="62.0625">24</tspan></text>
<rect x="331" y="164" width="50" height="27" rx="4" fill="#E120C1"/>
<text fill="white" xml:space="preserve" style="white-space: pre" font-family="Roboto" font-size="16" letter-spacing="0em"><tspan x="347" y="183.375">24</tspan></text>
<rect x="331" y="248" width="50" height="27" rx="4" fill="#E120C1"/>
<text fill="white" xml:space="preserve" style="white-space: pre" font-family="Roboto" font-size="16" letter-spacing="0em"><tspan x="347" y="267.375">24</tspan></text>
<rect x="331" y="284" width="50" height="27" rx="4" fill="#E120C1"/>
<text fill="white" xml:space="preserve" style="white-space: pre" font-family="Roboto" font-size="16" letter-spacing="0em"><tspan x="347" y="303.375">24</tspan></text>
<rect x="331" y="448" width="50" height="27" rx="4" fill="#E120C1"/>
<text fill="white" xml:space="preserve" style="white-space: pre" font-family="Roboto" font-size="16" letter-spacing="0em"><tspan x="347" y="467.375">24</tspan></text>
<rect x="394" y="167" width="621" height="22" fill="#E120C1" fill-opacity="0.3" stroke="#E120C1" stroke-width="2" stroke-dasharray="2 2"/>
<rect x="394" y="251" width="621" height="22" fill="#E120C1" fill-opacity="0.3" stroke="#E120C1" stroke-width="2" stroke-dasharray="2 2"/>
<rect x="394" y="287" width="621" height="22" fill="#E120C1" fill-opacity="0.3" stroke="#E120C1" stroke-width="2" stroke-dasharray="2 2"/>
<rect x="394" y="451" width="621" height="22" fill="#E120C1" fill-opacity="0.3" stroke="#E120C1" stroke-width="2" stroke-dasharray="2 2"/>
<rect x="431" y="325" width="584" height="14" fill="#8E20E1" fill-opacity="0.3" stroke="#8E20E1" stroke-width="2" stroke-dasharray="2 2"/>
<rect x="478" y="358" width="537" height="10" fill="#5E20E1" fill-opacity="0.3" stroke="#5E20E1" stroke-width="2" stroke-dasharray="2 2"/>
<rect x="478" y="389" width="537" height="10" fill="#5E20E1" fill-opacity="0.3" stroke="#5E20E1" stroke-width="2" stroke-dasharray="2 2"/>
<rect x="478" y="420" width="537" height="10" fill="#5E20E1" fill-opacity="0.3" stroke="#5E20E1" stroke-width="2" stroke-dasharray="2 2"/>
<rect x="505" y="233" width="510" height="6" fill="#204DE1" fill-opacity="0.3" stroke="#204DE1" stroke-width="2" stroke-dasharray="2 2"/>
<rect x="505" y="209" width="510" height="6" fill="#204DE1" fill-opacity="0.3" stroke="#204DE1" stroke-width="2" stroke-dasharray="2 2"/>
<rect x="1028" y="134" width="16" height="32" fill="#DD1C1C"/>
<rect x="1028" y="190" width="16" height="60" fill="#DD781C"/>
<rect x="1028" y="274" width="16" height="11" fill="#DDA71C"/>
<rect x="1028" y="310" width="16" height="140" fill="#71DD1C"/>
<rect x="1028" y="474" width="16" height="18" fill="#1CDD97"/>
<line x1="1044" y1="149.5" x2="1076" y2="149.5" stroke="#DD1C1C" stroke-width="3"/>
<line x1="1044" y1="221.5" x2="1076" y2="221.5" stroke="#DD781C" stroke-width="3"/>
<line x1="1044" y1="279.5" x2="1076" y2="279.5" stroke="#DDA71C" stroke-width="3"/>
<line x1="1044" y1="379.5" x2="1076" y2="379.5" stroke="#71DD1C" stroke-width="3"/>
<line x1="1044" y1="483.5" x2="1076" y2="483.5" stroke="#1CDD97" stroke-width="3"/>
<text fill="#1A1B1C" xml:space="preserve" style="white-space: pre" font-family="Roboto" font-size="16" letter-spacing="0em"><tspan x="1084.02" y="155.375">Call to Action</tspan></text>
<text fill="black" xml:space="preserve" style="white-space: pre" font-family="Roboto" font-size="16" letter-spacing="0em"><tspan x="1084.11" y="227.375">Address</tspan></text>
<text fill="#1A1B1C" xml:space="preserve" style="white-space: pre" font-family="Roboto" font-size="16" letter-spacing="0em"><tspan x="1084.38" y="285.375">Reviews and Hours</tspan></text>
<text fill="#1A1B1C" xml:space="preserve" style="white-space: pre" font-family="Roboto" font-size="16" letter-spacing="0em"><tspan x="1084.05" y="386.375">Accessibility Options</tspan></text>
<text fill="#1A1B1C" xml:space="preserve" style="white-space: pre" font-family="Roboto" font-size="16" letter-spacing="0em"><tspan x="1088.48" y="488.375">Accessibility Rating</tspan></text>
<defs>
<clipPath id="clip0_1751_2230">
<rect width="422" height="32" fill="white" transform="translate(569.5 134)"/>
</clipPath>
<clipPath id="clip1_1751_2230">
<rect width="11" height="11" fill="white" transform="translate(786.5 373)"/>
</clipPath>
</defs>
</svg>
