<svg width="1365" height="253" viewBox="0 0 1365 253" fill="none" xmlns="http://www.w3.org/2000/svg">
<rect x="183" y="22" width="1000" height="135" rx="8" fill="#1F2133"/>
<path d="M240.6 82V73.5294H245.4V82H251.4V70.7059H255L243 58L231 70.7059H234.6V82H240.6Z" fill="white" fill-opacity="0.95"/>
<path d="M280.667 66.4H278V58H275.333V66.4H272.667V58H270V66.4C270 68.944 272.213 71.008 275 71.164V82H278.333V71.164C281.12 71.008 283.333 68.944 283.333 66.4V58H280.667V66.4ZM287.333 62.8V72.4H290.667V82H294V58C290.32 58 287.333 60.688 287.333 62.8Z" fill="white" fill-opacity="0.95"/>
<path d="M330.333 58H311.667C310.2 58 309.013 59.2 309.013 60.6667L309 79.3333C309 80.8 310.2 82 311.667 82H330.333C331.8 82 333 80.8 333 79.3333V60.6667C333 59.2 331.8 58 330.333 58ZM329 72.6667H323.667V78H318.333V72.6667H313V67.3333H318.333V62H323.667V67.3333H329V72.6667Z" fill="white" fill-opacity="0.95"/>
<path d="M371.686 77.6165L361.773 67.6439C362.754 65.1234 362.209 62.1645 360.139 60.0824C357.961 57.8906 354.693 57.4522 352.079 58.6577L356.763 63.37L353.495 66.6576L348.702 61.9454C347.395 64.5755 347.939 67.8631 350.118 70.0549C352.188 72.1371 355.129 72.685 357.634 71.6987L367.546 81.6712C367.982 82.1096 368.636 82.1096 369.071 81.6712L371.577 79.1507C372.121 78.7124 372.121 77.9452 371.686 77.6165Z" fill="white" fill-opacity="0.95"/>
<path d="M387.781 79.2461H410.266V82H387.781V79.2461ZM410.941 66.358C410.692 65.2565 409.71 64.5955 408.763 64.8985L402.479 66.8537L394.314 58L392.03 58.7022L396.929 68.5749L391.047 70.4062L388.716 68.2857L387 68.8227L390.065 75.0052C390.065 75.0052 398.491 72.389 409.675 68.9053C410.633 68.5886 411.189 67.4596 410.941 66.358Z" fill="white" fill-opacity="0.95"/>
<path d="M433.2 77.2C431.88 77.2 430.812 78.28 430.812 79.6C430.812 80.92 431.88 82 433.2 82C434.52 82 435.6 80.92 435.6 79.6C435.6 78.28 434.52 77.2 433.2 77.2ZM426 58V60.4H428.4L432.72 69.508L431.1 72.448C430.908 72.784 430.8 73.18 430.8 73.6C430.8 74.92 431.88 76 433.2 76H447.6V73.6H433.704C433.536 73.6 433.404 73.468 433.404 73.3L433.44 73.156L434.52 71.2H443.46C444.36 71.2 445.152 70.708 445.56 69.964L449.856 62.176C449.952 62.008 450 61.804 450 61.6C450 60.94 449.46 60.4 448.8 60.4H431.052L429.924 58H426ZM445.2 77.2C443.88 77.2 442.812 78.28 442.812 79.6C442.812 80.92 443.88 82 445.2 82C446.52 82 447.6 80.92 447.6 79.6C447.6 78.28 446.52 77.2 445.2 77.2Z" fill="white" fill-opacity="0.95"/>
<path d="M487.667 58H466.333V61H487.667V58ZM489 73V70L487.667 62.5H466.333L465 70V73H466.333V82H479.667V73H485V82H487.667V73H489ZM477 79H469V73H477V79Z" fill="white" fill-opacity="0.95"/>
<path d="M505.846 68.2769C505.404 68.2769 505.046 68.6351 505.046 69.0769C505.046 69.5187 505.404 69.8769 505.846 69.8769L505.846 68.2769ZM530.412 69.6426C530.724 69.3302 530.724 68.8236 530.412 68.5112L525.321 63.42C525.008 63.1076 524.502 63.1076 524.189 63.42C523.877 63.7325 523.877 64.239 524.189 64.5514L528.715 69.0769L524.189 73.6024C523.877 73.9148 523.877 74.4213 524.189 74.7338C524.502 75.0462 525.008 75.0462 525.321 74.7338L530.412 69.6426ZM505.846 69.8769L529.846 69.8769L529.846 68.2769L505.846 68.2769L505.846 69.8769Z" fill="white" fill-opacity="0.95"/>
<path d="M565.154 69.8769C565.596 69.8769 565.954 69.5187 565.954 69.0769C565.954 68.6351 565.596 68.2769 565.154 68.2769V69.8769ZM540.588 68.5112C540.276 68.8236 540.276 69.3302 540.588 69.6426L545.679 74.7338C545.992 75.0462 546.498 75.0462 546.811 74.7338C547.123 74.4213 547.123 73.9148 546.811 73.6024L542.285 69.0769L546.811 64.5514C547.123 64.239 547.123 63.7325 546.811 63.42C546.498 63.1076 545.992 63.1076 545.679 63.42L540.588 68.5112ZM565.154 68.2769H541.154V69.8769H565.154V68.2769Z" fill="white" fill-opacity="0.95"/>
<path d="M589.627 76.9351L583.937 69.472L582 71.9955L589.627 82L606 60.5235L604.076 58L589.627 76.9351Z" fill="white" fill-opacity="0.95"/>
<path d="M627.025 68.4875C628.825 72.025 631.725 74.9125 635.263 76.725L638.012 73.975C638.35 73.6375 638.85 73.525 639.288 73.675C640.688 74.1375 642.2 74.3875 643.75 74.3875C644.438 74.3875 645 74.95 645 75.6375V80C645 80.6875 644.438 81.25 643.75 81.25C632.012 81.25 622.5 71.7375 622.5 60C622.5 59.3125 623.062 58.75 623.75 58.75H628.125C628.813 58.75 629.375 59.3125 629.375 60C629.375 61.5625 629.625 63.0625 630.087 64.4625C630.225 64.9 630.125 65.3875 629.775 65.7375L627.025 68.4875Z" fill="white" fill-opacity="0.95"/>
<path d="M678.429 58H665.571C664.157 58 663.013 59.2 663.013 60.6667L663 82L672 78L681 82V60.6667C681 59.2 679.843 58 678.429 58Z" fill="white" fill-opacity="0.95"/>
<path d="M725.25 65.5C727.321 65.5 729 63.8211 729 61.75C729 59.6789 727.321 58 725.25 58C723.179 58 721.5 59.6789 721.5 61.75C721.5 63.8211 723.179 65.5 725.25 65.5Z" fill="white" fill-opacity="0.95"/>
<path d="M718.692 79.5386H715.492C715.492 82.1786 713.332 84.3386 710.692 84.3386C708.052 84.3386 705.892 82.1786 705.892 79.5386C705.892 76.8986 708.052 74.7386 710.692 74.7386V71.5386C706.276 71.5386 702.692 75.1226 702.692 79.5386C702.692 83.9546 706.276 87.5386 710.692 87.5386C715.108 87.5386 718.692 83.9546 718.692 79.5386ZM723.492 73.9386H720.516L723.188 68.0666C724.164 65.9386 722.596 63.5386 720.228 63.5386H711.908C710.612 63.5386 709.444 64.2906 708.916 65.4586L707.844 68.3386L710.916 69.1866L711.956 66.7386H715.492L712.564 73.2986C711.604 75.4266 713.188 77.9386 715.524 77.9386H723.492V85.9386H726.692V77.1386C726.692 75.3786 725.252 73.9386 723.492 73.9386Z" fill="white" fill-opacity="0.95"/>
<g clip-path="url(#clip0_1755_4358)">
<path d="M742.5 70C743.881 70 745 68.8807 745 67.5C745 66.1193 743.881 65 742.5 65C741.119 65 740 66.1193 740 67.5C740 68.8807 741.119 70 742.5 70Z" fill="white" fill-opacity="0.95"/>
<path d="M747 66C748.381 66 749.5 64.8807 749.5 63.5C749.5 62.1193 748.381 61 747 61C745.619 61 744.5 62.1193 744.5 63.5C744.5 64.8807 745.619 66 747 66Z" fill="white" fill-opacity="0.95"/>
<path d="M753 66C754.381 66 755.5 64.8807 755.5 63.5C755.5 62.1193 754.381 61 753 61C751.619 61 750.5 62.1193 750.5 63.5C750.5 64.8807 751.619 66 753 66Z" fill="white" fill-opacity="0.95"/>
<path d="M757.5 70C758.881 70 760 68.8807 760 67.5C760 66.1193 758.881 65 757.5 65C756.119 65 755 66.1193 755 67.5C755 68.8807 756.119 70 757.5 70Z" fill="white" fill-opacity="0.95"/>
<path d="M755.34 72.86C754.47 71.84 753.74 70.97 752.86 69.95C752.4 69.41 751.81 68.87 751.11 68.63C751 68.59 750.89 68.56 750.78 68.54C750.53 68.5 750.26 68.5 750 68.5C749.74 68.5 749.47 68.5 749.21 68.55C749.1 68.57 748.99 68.6 748.88 68.64C748.18 68.88 747.6 69.42 747.13 69.96C746.26 70.98 745.53 71.85 744.65 72.87C743.34 74.18 741.73 75.63 742.03 77.66C742.32 78.68 743.05 79.69 744.36 79.98C745.09 80.13 747.42 79.54 749.9 79.54H750.08C752.56 79.54 754.89 80.12 755.62 79.98C756.93 79.69 757.66 78.67 757.95 77.66C758.26 75.62 756.65 74.17 755.34 72.86Z" fill="white" fill-opacity="0.95"/>
</g>
<path d="M777 75.6842C777 76.7958 777.585 77.7937 778.5 78.4884V80.7368C778.5 81.4316 779.175 82 780 82H781.5C782.325 82 783 81.4316 783 80.7368V79.4737H795V80.7368C795 81.4316 795.675 82 796.5 82H798C798.825 82 799.5 81.4316 799.5 80.7368V78.4884C800.415 77.7937 801 76.7958 801 75.6842V63.0526C801 58.6316 795.63 58 789 58C782.37 58 777 58.6316 777 63.0526V75.6842ZM782.25 76.9474C781.005 76.9474 780 76.1011 780 75.0526C780 74.0042 781.005 73.1579 782.25 73.1579C783.495 73.1579 784.5 74.0042 784.5 75.0526C784.5 76.1011 783.495 76.9474 782.25 76.9474ZM795.75 76.9474C794.505 76.9474 793.5 76.1011 793.5 75.0526C793.5 74.0042 794.505 73.1579 795.75 73.1579C796.995 73.1579 798 74.0042 798 75.0526C798 76.1011 796.995 76.9474 795.75 76.9474ZM798 69.3684H780V63.0526H798V69.3684Z" fill="white" fill-opacity="0.95"/>
<path d="M823.5 60.4C823.5 59.068 824.835 58 826.5 58C828.165 58 829.5 59.068 829.5 60.4C829.5 61.732 828.165 62.8 826.5 62.8C824.835 62.8 823.5 61.732 823.5 60.4ZM834 71.2C833.985 69.592 832.755 68.188 831 67.6C831 65.608 828.99 64 826.5 64C824.01 64 822 65.608 822 67.6V76H825V82H829.5V76H834V71.2Z" fill="white" fill-opacity="0.95"/>
<path d="M859.5 62C859.5 60.89 860.39 60 861.5 60C862.61 60 863.5 60.89 863.5 62C863.5 63.11 862.61 64 861.5 64C860.39 64 859.5 63.11 859.5 62ZM865 68.95V67C865 65.9 864.1 65 863 65H860C858.9 65 858 65.9 858 67V73H860V80H863.5V79.89C862.26 78.63 861.5 76.9 861.5 75C861.5 72.42 862.91 70.16 865 68.95ZM871.5 75C871.5 76.65 870.15 78 868.5 78C866.85 78 865.5 76.65 865.5 75C865.5 73.89 866.11 72.94 867 72.42V70.26C864.98 70.9 863.508 72.699 863.5 75C863.491 77.7614 865.74 80 868.5 80C871.26 80 873.5 77.76 873.5 75H871.5ZM874.54 72H870V66H868V74H873.46L875.93 77.71L877.59 76.6L874.54 72Z" fill="white" fill-opacity="0.95"/>
<path d="M915.333 58H896.667C895.2 58 894 59.2 894 60.6667V79.3333C894 80.8 895.2 82 896.667 82H915.333C916.8 82 918 80.8 918 79.3333V60.6667C918 59.2 916.8 58 915.333 58ZM901.333 62C902.253 62 903 62.7467 903 63.6667C903 64.5867 902.253 65.3333 901.333 65.3333C900.413 65.3333 899.667 64.5867 899.667 63.6667C899.667 62.7467 900.413 62 901.333 62ZM904.667 72.6667H903.333V78H899.333V72.6667H898V69.3333C898 67.8667 899.2 66.6667 900.667 66.6667H902C903.467 66.6667 904.667 67.8667 904.667 69.3333V72.6667ZM910.667 76.6667L907.333 71.3333H914L910.667 76.6667ZM907.333 68.6667L910.667 63.3333L914 68.6667H907.333Z" fill="white" fill-opacity="0.95"/>
<path d="M954 63.5386C952.428 63.5386 951.156 64.6263 951.024 66.0155C948.768 65.477 947.616 64.077 945 64.077C942.372 64.077 941.232 65.477 938.976 66.0155C938.844 64.637 937.572 63.5386 936 63.5386C934.344 63.5386 933 64.7447 933 66.2309V66.7693C933 73.2309 937.32 75.1801 940.824 75.3632C942.036 76.0524 943.464 76.4617 945 76.4617C946.536 76.4617 947.964 76.0524 949.176 75.3632C952.68 75.1801 957 73.2309 957 66.7693V66.2309C957 64.7447 955.656 63.5386 954 63.5386ZM934.8 66.7693V66.2309C934.8 65.6386 935.34 65.154 936 65.154C936.66 65.154 937.2 65.6386 937.2 66.2309V69.4617C937.2 70.8401 937.656 72.1217 938.412 73.2093C936.588 72.4447 934.8 70.7001 934.8 66.7693ZM955.2 66.7693C955.2 70.7001 953.412 72.4447 951.588 73.2093C952.356 72.1217 952.8 70.8401 952.8 69.4617V66.2309C952.8 65.6386 953.34 65.154 954 65.154C954.66 65.154 955.2 65.6386 955.2 66.2309V66.7693ZM943.428 68.3632C942.9 68.6432 942.276 68.9663 941.4 69.1817V68.0617C941.976 67.8786 942.408 67.6524 942.816 67.437C943.464 67.0924 944.076 66.7693 945 66.7693C945.924 66.7693 946.524 67.0924 947.16 67.437C947.568 67.6524 948.012 67.8893 948.6 68.0724V69.1924C947.7 68.9663 947.088 68.6432 946.548 68.3524C945.996 68.0617 945.588 67.8463 945 67.8463C944.412 67.8463 943.992 68.0617 943.428 68.3632Z" fill="white" fill-opacity="0.95"/>
<path d="M993.6 62.8H988.8V60.4C988.8 59.08 987.72 58 986.4 58H981.6C980.28 58 979.2 59.08 979.2 60.4V62.8H974.4C973.08 62.8 972 63.88 972 65.2V79.6C972 80.92 973.08 82 974.4 82H993.6C994.92 82 996 80.92 996 79.6V65.2C996 63.88 994.92 62.8 993.6 62.8ZM981.6 60.4H986.4V62.8H981.6V60.4ZM988.8 73.6H985.2V77.2H982.8V73.6H979.2V71.2H982.8V67.6H985.2V71.2H988.8V73.6Z" fill="white" fill-opacity="0.95"/>
<path d="M1023.46 58H1017V82H1020.69V74H1023.46C1026.52 74 1029 70.4133 1029 66C1029 61.5867 1026.52 58 1023.46 58ZM1023.65 68.6667H1020.69V63.3333H1023.65C1024.66 63.3333 1025.49 64.5333 1025.49 66C1025.49 67.4667 1024.66 68.6667 1023.65 68.6667Z" fill="white" fill-opacity="0.95"/>
<path d="M1068.27 61.6L1068.99 63.244L1070.56 64L1068.99 64.756L1068.27 66.4L1067.55 64.756L1065.99 64L1067.55 63.244L1068.27 61.6ZM1061.43 62.956V60.4H1063.71C1064.37 60.4 1064.97 60.604 1065.49 60.94L1067.12 59.224C1066.17 58.468 1065.01 58 1063.71 58C1062.02 58 1057.43 58 1057.43 58V60.4H1059.14V62.968C1057.12 63.412 1055.5 64.96 1054.87 67H1059.42L1066 69.58V68.836C1066 65.932 1064.03 63.508 1061.43 62.956ZM1050 82H1054.57V68.8H1050V82ZM1071.71 76H1063.71L1061.33 75.124L1061.7 73.996L1063.71 74.8H1066.94C1067.68 74.8 1068.29 74.164 1068.29 73.384C1068.29 72.796 1067.93 72.268 1067.41 72.052L1059.11 68.8H1056.86V79.624L1064.86 82L1074 78.4C1073.99 77.08 1072.98 76 1071.71 76ZM1071.71 72.4C1072.97 72.4 1074 71.32 1074 70C1074 68.68 1071.71 65.2 1071.71 65.2C1071.71 65.2 1069.43 68.68 1069.43 70C1069.43 71.32 1070.46 72.4 1071.71 72.4Z" fill="white" fill-opacity="0.95"/>
<path d="M1091.82 63.5386L1101 72.6672L1110.18 63.5386L1113 66.3489L1101 78.3078L1089 66.3489L1091.82 63.5386Z" fill="white" fill-opacity="0.95"/>
<path d="M233.82 117.308L243 108.179L252.18 117.308L255 114.497L243 102.539L231 114.497L233.82 117.308Z" fill="white" fill-opacity="0.95"/>
<path d="M280.5 114.211C280.5 115.229 280.829 116.144 281.344 116.781V118.842C281.344 119.479 281.723 120 282.188 120H283.031C283.495 120 283.875 119.479 283.875 118.842V117.684H290.625V118.842C290.625 119.479 291.005 120 291.469 120H292.312C292.777 120 293.156 119.479 293.156 118.842V116.781C293.671 116.144 294 115.229 294 114.211V105.382C294 101.329 290.979 100.75 287.25 100.75C283.521 100.75 280.5 101.329 280.5 105.382V114.211ZM283.453 115.368C282.753 115.368 282.188 114.593 282.188 113.632C282.188 112.671 282.753 111.895 283.453 111.895C284.153 111.895 284.719 112.671 284.719 113.632C284.719 114.593 284.153 115.368 283.453 115.368ZM291.047 115.368C290.347 115.368 289.781 114.593 289.781 113.632C289.781 112.671 290.347 111.895 291.047 111.895C291.747 111.895 292.312 112.671 292.312 113.632C292.312 114.593 291.747 115.368 291.047 115.368ZM292.312 108.421H282.188V105.382H292.312V108.421Z" fill="white" fill-opacity="0.95"/>
<path d="M273.726 118.232C274.956 118.232 275.962 117.039 275.962 115.58H277.452C277.452 118.02 275.783 120 273.726 120C271.669 120 269.993 118.021 270 115.58C270.006 113.546 271.103 111.956 272.608 111.391V113.3C271.945 113.759 271.49 114.599 271.49 115.58C271.49 117.039 272.496 118.232 273.726 118.232Z" fill="white" fill-opacity="0.95"/>
<path d="M274.844 112.929H278.227L280.5 116.995L279.263 117.976L277.422 114.696H273.353V107.625H274.844V112.929Z" fill="white" fill-opacity="0.95"/>
<path d="M330.227 101.896C329.96 101.23 329.213 100.756 328.333 100.756H325V98.5H317V100.756H313.667C312.787 100.756 312.053 101.23 311.773 101.896L309 108.654V117.679C309 118.3 309.6 118.808 310.333 118.808H311.667C312.4 118.808 313 118.3 313 117.679V116.551H329V117.679C329 118.3 329.6 118.808 330.333 118.808H331.667C332.4 118.808 333 118.3 333 117.679V108.654L330.227 101.896ZM313.667 113.167C312.56 113.167 311.667 112.411 311.667 111.474C311.667 110.538 312.56 109.782 313.667 109.782C314.773 109.782 315.667 110.538 315.667 111.474C315.667 112.411 314.773 113.167 313.667 113.167ZM328.333 113.167C327.227 113.167 326.333 112.411 326.333 111.474C326.333 110.538 327.227 109.782 328.333 109.782C329.44 109.782 330.333 110.538 330.333 111.474C330.333 112.411 329.44 113.167 328.333 113.167ZM311.667 107.526L313.667 102.449H328.333L330.333 107.526H311.667Z" fill="white" fill-opacity="0.95"/>
<path d="M365.153 112.094H364.069L363.684 111.724C365.029 110.16 365.839 108.129 365.839 105.919C365.839 100.993 361.846 97 356.919 97C351.993 97 348 100.993 348 105.919C348 110.846 351.993 114.839 356.919 114.839C359.129 114.839 361.16 114.029 362.724 112.684L363.094 113.069V114.153L369.955 121L372 118.955L365.153 112.094ZM356.919 112.094C353.503 112.094 350.744 109.336 350.744 105.919C350.744 102.503 353.503 99.7444 356.919 99.7444C360.336 99.7444 363.094 102.503 363.094 105.919C363.094 109.336 360.336 112.094 356.919 112.094Z" fill="white" fill-opacity="0.95"/>
<path d="M408.175 110.175C408.227 109.8 408.253 109.413 408.253 109C408.253 108.6 408.227 108.2 408.163 107.825L410.771 105.85C411.003 105.675 411.067 105.337 410.925 105.087L408.458 100.938C408.304 100.663 407.983 100.575 407.7 100.662L404.629 101.862C403.986 101.387 403.305 100.987 402.547 100.687L402.084 97.5125C402.033 97.2125 401.776 97 401.467 97H396.533C396.224 97 395.98 97.2125 395.929 97.5125L395.466 100.687C394.708 100.987 394.014 101.4 393.384 101.862L390.313 100.662C390.03 100.562 389.709 100.663 389.555 100.938L387.1 105.087C386.946 105.35 386.997 105.675 387.254 105.85L389.863 107.825C389.799 108.2 389.747 108.613 389.747 109C389.747 109.388 389.773 109.8 389.837 110.175L387.229 112.15C386.997 112.325 386.933 112.662 387.075 112.912L389.542 117.063C389.696 117.338 390.017 117.425 390.3 117.338L393.371 116.137C394.014 116.612 394.695 117.013 395.453 117.312L395.916 120.488C395.98 120.788 396.224 121 396.533 121H401.467C401.776 121 402.033 120.788 402.071 120.488L402.534 117.312C403.292 117.013 403.986 116.612 404.616 116.137L407.687 117.338C407.97 117.438 408.291 117.338 408.445 117.063L410.913 112.912C411.067 112.637 411.003 112.325 410.758 112.15L408.175 110.175ZM399 113.5C396.456 113.5 394.374 111.475 394.374 109C394.374 106.525 396.456 104.5 399 104.5C401.544 104.5 403.626 106.525 403.626 109C403.626 111.475 401.544 113.5 399 113.5Z" fill="white" fill-opacity="0.95"/>
<path d="M438 121.75C439.65 121.75 441 120.642 441 119.288H435C435 120.642 436.335 121.75 438 121.75ZM447 114.365V108.212C447 104.433 444.54 101.27 440.25 100.433V99.5962C440.25 98.5746 439.245 97.75 438 97.75C436.755 97.75 435.75 98.5746 435.75 99.5962V100.433C431.445 101.27 429 104.421 429 108.212V114.365L426 116.827V118.058H450V116.827L447 114.365Z" fill="white" fill-opacity="0.95"/>
<path d="M486.6 101.8H481.8V99.4C481.8 98.068 480.732 97 479.4 97H474.6C473.268 97 472.2 98.068 472.2 99.4V101.8H467.4C466.068 101.8 465.012 102.868 465.012 104.2L465 117.4C465 118.732 466.068 119.8 467.4 119.8H486.6C487.932 119.8 489 118.732 489 117.4V104.2C489 102.868 487.932 101.8 486.6 101.8ZM479.4 101.8H474.6V99.4H479.4V101.8Z" fill="white"/>
<path d="M510 107.286H506.4V115.286H510V107.286Z" fill="#F3F3F3"/>
<path d="M517.8 107.286H514.2V115.286H517.8V107.286Z" fill="#F3F3F3"/>
<path d="M528 117.572H504V121H528V117.572Z" fill="#F3F3F3"/>
<path d="M525.6 107.286H522V115.286H525.6V107.286Z" fill="#F3F3F3"/>
<path d="M516 97L504 102.714V105H528V102.714L516 97Z" fill="#F3F3F3"/>
<path d="M557.182 102.25L553.091 107.875L556.2 112.15L554.455 113.5C552.611 110.969 549.545 106.75 549.545 106.75L543 115.75H567L557.182 102.25Z" fill="#F3F3F3"/>
<circle cx="546" cy="198" r="12" fill="#3D40CC"/>
<path d="M543.8 206V200H547.2V206H551.45V198H554L545.5 189L537 198H539.55V206H543.8Z" fill="white" fill-opacity="0.95"/>
<circle cx="585" cy="198" r="12" fill="#3D40CC"/>
<path d="M584.167 195.75H582.5V190.5H580.833V195.75H579.167V190.5H577.5V195.75C577.5 197.34 578.883 198.63 580.625 198.727V205.5H582.708V198.727C584.45 198.63 585.833 197.34 585.833 195.75V190.5H584.167V195.75ZM588.333 193.5V199.5H590.417V205.5H592.5V190.5C590.2 190.5 588.333 192.18 588.333 193.5Z" fill="white" fill-opacity="0.95"/>
<circle cx="624" cy="198" r="12" fill="#3D40CC"/>
<path d="M621 202.5C620.175 202.5 619.508 203.175 619.508 204C619.508 204.825 620.175 205.5 621 205.5C621.825 205.5 622.5 204.825 622.5 204C622.5 203.175 621.825 202.5 621 202.5ZM616.5 190.5V192H618L620.7 197.693L619.688 199.53C619.568 199.74 619.5 199.988 619.5 200.25C619.5 201.075 620.175 201.75 621 201.75H630V200.25H621.315C621.21 200.25 621.128 200.167 621.128 200.062L621.15 199.972L621.825 198.75H627.413C627.975 198.75 628.47 198.443 628.725 197.977L631.41 193.11C631.47 193.005 631.5 192.878 631.5 192.75C631.5 192.337 631.163 192 630.75 192H619.658L618.952 190.5H616.5ZM628.5 202.5C627.675 202.5 627.007 203.175 627.007 204C627.007 204.825 627.675 205.5 628.5 205.5C629.325 205.5 630 204.825 630 204C630 203.175 629.325 202.5 628.5 202.5Z" fill="white" fill-opacity="0.95"/>
<circle cx="663" cy="198" r="12" fill="#3D40CC"/>
<path d="M670.304 202.76L664.108 196.527C664.721 194.952 664.381 193.103 663.087 191.801C661.725 190.432 659.683 190.158 658.049 190.911L660.977 193.856L658.934 195.911L655.939 192.966C655.122 194.61 655.462 196.664 656.824 198.034C658.117 199.336 659.955 199.678 661.521 199.062L667.717 205.295C667.989 205.568 668.397 205.568 668.67 205.295L670.235 203.719C670.576 203.445 670.576 202.966 670.304 202.76Z" fill="white" fill-opacity="0.95"/>
<circle cx="702" cy="198" r="12" fill="#3D40CC"/>
<path d="M708.667 190.5H695.333V192.375H708.667V190.5ZM709.5 199.875V198L708.667 193.312H695.333L694.5 198V199.875H695.333V205.5H703.667V199.875H707V205.5H708.667V199.875H709.5ZM702 203.625H697V199.875H702V203.625Z" fill="white" fill-opacity="0.95"/>
<circle cx="741" cy="198" r="12" fill="#3D40CC"/>
<path d="M746.833 190.5H735.167C734.25 190.5 733.508 191.25 733.508 192.167L733.5 203.833C733.5 204.75 734.25 205.5 735.167 205.5H746.833C747.75 205.5 748.5 204.75 748.5 203.833V192.167C748.5 191.25 747.75 190.5 746.833 190.5ZM746 199.667H742.667V203H739.333V199.667H736V196.333H739.333V193H742.667V196.333H746V199.667Z" fill="white" fill-opacity="0.95"/>
<circle cx="780" cy="198" r="12" fill="#3D40CC"/>
<path d="M772.988 203.779H787.041V205.5H772.988V203.779ZM787.463 195.724C787.308 195.035 786.694 194.622 786.102 194.812L782.175 196.034L777.071 190.5L775.643 190.939L778.706 197.109L775.03 198.254L773.572 196.929L772.5 197.264L774.416 201.128C774.416 201.128 779.682 199.493 786.672 197.316C787.271 197.118 787.618 196.412 787.463 195.724Z" fill="white" fill-opacity="0.95"/>
<circle cx="819" cy="198" r="12" fill="#3D40CC"/>
<path d="M820.818 192.938L817.409 197.156L820 200.363L818.545 201.375C817.009 199.477 814.455 196.312 814.455 196.312L809 203.062H829L820.818 192.938Z" fill="#F3F3F3"/>
<defs>
<clipPath id="clip0_1755_4358">
<rect width="24" height="24" fill="white" transform="translate(738 58)"/>
</clipPath>
</defs>
</svg>
