<svg width="658" height="414" viewBox="0 0 658 414" fill="none" xmlns="http://www.w3.org/2000/svg">
<rect width="658" height="414" rx="8" fill="#EFF3F7"/>
<path d="M58.792 115.592H61.096L64.776 119.224L61.096 122.856H58.792L62.488 119.224L58.792 115.592ZM77.8258 116.04C77.7084 115.549 77.4951 115.181 77.1858 114.936C76.8764 114.691 76.4444 114.568 75.8898 114.568C75.0471 114.568 74.4178 114.893 74.0018 115.544C73.5858 116.184 73.3671 117.251 73.3458 118.744C73.6231 118.275 74.0284 117.912 74.5618 117.656C75.0951 117.4 75.6711 117.272 76.2898 117.272C76.9938 117.272 77.6124 117.427 78.1458 117.736C78.6898 118.035 79.1111 118.472 79.4097 119.048C79.7191 119.624 79.8738 120.312 79.8738 121.112C79.8738 121.859 79.7244 122.525 79.4258 123.112C79.1378 123.699 78.7058 124.163 78.1298 124.504C77.5538 124.835 76.8604 125 76.0498 125C74.9511 125 74.0871 124.76 73.4578 124.28C72.8391 123.789 72.4018 123.101 72.1458 122.216C71.9004 121.331 71.7778 120.227 71.7778 118.904C71.7778 115 73.1538 113.048 75.9058 113.048C76.9724 113.048 77.8098 113.336 78.4178 113.912C79.0364 114.488 79.3991 115.197 79.5058 116.04H77.8258ZM75.8898 118.808C75.2391 118.808 74.6844 119.005 74.2258 119.4C73.7778 119.784 73.5538 120.344 73.5538 121.08C73.5538 121.816 73.7618 122.403 74.1778 122.84C74.6044 123.267 75.1964 123.48 75.9538 123.48C76.6258 123.48 77.1538 123.272 77.5378 122.856C77.9324 122.44 78.1298 121.885 78.1298 121.192C78.1298 120.467 77.9378 119.891 77.5538 119.464C77.1804 119.027 76.6258 118.808 75.8898 118.808ZM89.8476 113.88C91.0316 113.88 92.0663 114.109 92.9516 114.568C93.8476 115.016 94.5356 115.667 95.0156 116.52C95.5063 117.363 95.7516 118.349 95.7516 119.48C95.7516 120.611 95.5063 121.592 95.0156 122.424C94.5356 123.256 93.8476 123.896 92.9516 124.344C92.0663 124.781 91.0316 125 89.8476 125H86.2156V113.88H89.8476ZM89.8476 123.512C91.149 123.512 92.1463 123.16 92.8396 122.456C93.533 121.752 93.8796 120.76 93.8796 119.48C93.8796 118.189 93.533 117.181 92.8396 116.456C92.1463 115.731 91.149 115.368 89.8476 115.368H88.0396V123.512H89.8476ZM96.9514 120.552C96.9514 119.667 97.1327 118.883 97.4954 118.2C97.8687 117.517 98.37 116.989 98.9994 116.616C99.6394 116.232 100.343 116.04 101.111 116.04C101.805 116.04 102.407 116.179 102.919 116.456C103.442 116.723 103.858 117.059 104.167 117.464V116.184H106.007V125H104.167V123.688C103.858 124.104 103.437 124.451 102.903 124.728C102.37 125.005 101.762 125.144 101.079 125.144C100.322 125.144 99.6287 124.952 98.9994 124.568C98.37 124.173 97.8687 123.629 97.4954 122.936C97.1327 122.232 96.9514 121.437 96.9514 120.552ZM104.167 120.584C104.167 119.976 104.039 119.448 103.783 119C103.538 118.552 103.213 118.211 102.807 117.976C102.402 117.741 101.965 117.624 101.495 117.624C101.026 117.624 100.589 117.741 100.183 117.976C99.778 118.2 99.4474 118.536 99.1914 118.984C98.946 119.421 98.8234 119.944 98.8234 120.552C98.8234 121.16 98.946 121.693 99.1914 122.152C99.4474 122.611 99.778 122.963 100.183 123.208C100.599 123.443 101.037 123.56 101.495 123.56C101.965 123.56 102.402 123.443 102.807 123.208C103.213 122.973 103.538 122.632 103.783 122.184C104.039 121.725 104.167 121.192 104.167 120.584ZM116.339 116.184L110.931 129.144H109.043L110.835 124.856L107.363 116.184H109.395L111.875 122.904L114.451 116.184H116.339ZM120.916 125.144C120.222 125.144 119.598 125.021 119.044 124.776C118.5 124.52 118.068 124.179 117.748 123.752C117.428 123.315 117.257 122.829 117.236 122.296H119.124C119.156 122.669 119.332 122.984 119.652 123.24C119.982 123.485 120.393 123.608 120.884 123.608C121.396 123.608 121.79 123.512 122.068 123.32C122.356 123.117 122.5 122.861 122.5 122.552C122.5 122.221 122.34 121.976 122.02 121.816C121.71 121.656 121.214 121.48 120.532 121.288C119.87 121.107 119.332 120.931 118.916 120.76C118.5 120.589 118.137 120.328 117.828 119.976C117.529 119.624 117.38 119.16 117.38 118.584C117.38 118.115 117.518 117.688 117.796 117.304C118.073 116.909 118.468 116.6 118.98 116.376C119.502 116.152 120.1 116.04 120.772 116.04C121.774 116.04 122.58 116.296 123.188 116.808C123.806 117.309 124.137 117.997 124.18 118.872H122.356C122.324 118.477 122.164 118.163 121.876 117.928C121.588 117.693 121.198 117.576 120.708 117.576C120.228 117.576 119.86 117.667 119.604 117.848C119.348 118.029 119.22 118.269 119.22 118.568C119.22 118.803 119.305 119 119.476 119.16C119.646 119.32 119.854 119.448 120.1 119.544C120.345 119.629 120.708 119.741 121.188 119.88C121.828 120.051 122.35 120.227 122.756 120.408C123.172 120.579 123.529 120.835 123.828 121.176C124.126 121.517 124.281 121.971 124.292 122.536C124.292 123.037 124.153 123.485 123.876 123.88C123.598 124.275 123.204 124.584 122.692 124.808C122.19 125.032 121.598 125.144 120.916 125.144Z" fill="black"/>
<path d="M57.736 181.568V180.192L63.112 172.48H65.32V179.984H66.808V181.568H65.32V184H63.528V181.568H57.736ZM63.608 174.336L59.832 179.984H63.608V174.336ZM75.3274 177.44V178.976H68.7514V177.44H75.3274ZM85.1988 173.904H79.8388V177.088C80.0628 176.789 80.3934 176.539 80.8307 176.336C81.2788 176.133 81.7534 176.032 82.2548 176.032C83.1508 176.032 83.8761 176.224 84.4308 176.608C84.9961 176.992 85.3961 177.477 85.6308 178.064C85.8761 178.651 85.9988 179.269 85.9988 179.92C85.9988 180.709 85.8441 181.413 85.5347 182.032C85.2361 182.64 84.7828 183.12 84.1748 183.472C83.5774 183.824 82.8414 184 81.9668 184C80.8041 184 79.8708 183.712 79.1668 183.136C78.4628 182.56 78.0414 181.797 77.9028 180.848H79.6788C79.7961 181.349 80.0574 181.749 80.4628 182.048C80.8681 182.336 81.3748 182.48 81.9828 182.48C82.7401 182.48 83.3054 182.251 83.6788 181.792C84.0628 181.333 84.2548 180.725 84.2548 179.968C84.2548 179.2 84.0628 178.613 83.6788 178.208C83.2948 177.792 82.7294 177.584 81.9828 177.584C81.4601 177.584 81.0174 177.717 80.6548 177.984C80.3028 178.24 80.0468 178.592 79.8868 179.04H78.1588V172.304H85.1988V173.904ZM95.9258 172.88C97.1098 172.88 98.1444 173.109 99.0298 173.568C99.9258 174.016 100.614 174.667 101.094 175.52C101.584 176.363 101.83 177.349 101.83 178.48C101.83 179.611 101.584 180.592 101.094 181.424C100.614 182.256 99.9258 182.896 99.0298 183.344C98.1444 183.781 97.1098 184 95.9258 184H92.2938V172.88H95.9258ZM95.9258 182.512C97.2271 182.512 98.2244 182.16 98.9178 181.456C99.6111 180.752 99.9578 179.76 99.9578 178.48C99.9578 177.189 99.6111 176.181 98.9178 175.456C98.2244 174.731 97.2271 174.368 95.9258 174.368H94.1178V182.512H95.9258ZM103.03 179.552C103.03 178.667 103.211 177.883 103.574 177.2C103.947 176.517 104.448 175.989 105.078 175.616C105.718 175.232 106.422 175.04 107.19 175.04C107.883 175.04 108.486 175.179 108.998 175.456C109.52 175.723 109.936 176.059 110.246 176.464V175.184H112.086V184H110.246V182.688C109.936 183.104 109.515 183.451 108.982 183.728C108.448 184.005 107.84 184.144 107.158 184.144C106.4 184.144 105.707 183.952 105.078 183.568C104.448 183.173 103.947 182.629 103.574 181.936C103.211 181.232 103.03 180.437 103.03 179.552ZM110.246 179.584C110.246 178.976 110.118 178.448 109.862 178C109.616 177.552 109.291 177.211 108.886 176.976C108.48 176.741 108.043 176.624 107.574 176.624C107.104 176.624 106.667 176.741 106.262 176.976C105.856 177.2 105.526 177.536 105.27 177.984C105.024 178.421 104.902 178.944 104.902 179.552C104.902 180.16 105.024 180.693 105.27 181.152C105.526 181.611 105.856 181.963 106.262 182.208C106.678 182.443 107.115 182.56 107.574 182.56C108.043 182.56 108.48 182.443 108.886 182.208C109.291 181.973 109.616 181.632 109.862 181.184C110.118 180.725 110.246 180.192 110.246 179.584ZM122.417 175.184L117.009 188.144H115.121L116.913 183.856L113.441 175.184H115.473L117.953 181.904L120.529 175.184H122.417ZM126.994 184.144C126.3 184.144 125.676 184.021 125.122 183.776C124.578 183.52 124.146 183.179 123.826 182.752C123.506 182.315 123.335 181.829 123.314 181.296H125.202C125.234 181.669 125.41 181.984 125.73 182.24C126.06 182.485 126.471 182.608 126.962 182.608C127.474 182.608 127.868 182.512 128.146 182.32C128.434 182.117 128.578 181.861 128.578 181.552C128.578 181.221 128.418 180.976 128.098 180.816C127.788 180.656 127.292 180.48 126.61 180.288C125.948 180.107 125.41 179.931 124.994 179.76C124.578 179.589 124.215 179.328 123.906 178.976C123.607 178.624 123.458 178.16 123.458 177.584C123.458 177.115 123.596 176.688 123.874 176.304C124.151 175.909 124.546 175.6 125.058 175.376C125.58 175.152 126.178 175.04 126.85 175.04C127.852 175.04 128.658 175.296 129.266 175.808C129.884 176.309 130.215 176.997 130.258 177.872H128.434C128.402 177.477 128.242 177.163 127.954 176.928C127.666 176.693 127.276 176.576 126.786 176.576C126.306 176.576 125.938 176.667 125.682 176.848C125.426 177.029 125.298 177.269 125.298 177.568C125.298 177.803 125.383 178 125.554 178.16C125.724 178.32 125.932 178.448 126.178 178.544C126.423 178.629 126.786 178.741 127.266 178.88C127.906 179.051 128.428 179.227 128.834 179.408C129.25 179.579 129.607 179.835 129.906 180.176C130.204 180.517 130.359 180.971 130.37 181.536C130.37 182.037 130.231 182.485 129.954 182.88C129.676 183.275 129.282 183.584 128.77 183.808C128.268 184.032 127.676 184.144 126.994 184.144Z" fill="black"/>
<path d="M57.72 234V232.336H61.048V244H59.208V234H57.72ZM70.5618 237.44V238.976H63.9858V237.44H70.5618ZM72.8811 235.216C72.9451 234.224 73.3238 233.451 74.0171 232.896C74.7211 232.341 75.6171 232.064 76.7051 232.064C77.4518 232.064 78.0971 232.197 78.6411 232.464C79.1851 232.731 79.5958 233.093 79.8731 233.552C80.1505 234.011 80.2891 234.528 80.2891 235.104C80.2891 235.765 80.1131 236.331 79.7611 236.8C79.4091 237.269 78.9878 237.584 78.4971 237.744V237.808C79.1265 238 79.6171 238.352 79.9691 238.864C80.3211 239.365 80.4971 240.011 80.4971 240.8C80.4971 241.429 80.3531 241.989 80.0651 242.48C79.7771 242.971 79.3505 243.36 78.7851 243.648C78.2198 243.925 77.5425 244.064 76.7531 244.064C75.6011 244.064 74.6518 243.771 73.9051 243.184C73.1691 242.587 72.7745 241.733 72.7211 240.624H74.4811C74.5238 241.189 74.7425 241.653 75.1371 242.016C75.5318 242.368 76.0651 242.544 76.7371 242.544C77.3878 242.544 77.8891 242.368 78.2411 242.016C78.5931 241.653 78.7691 241.189 78.7691 240.624C78.7691 239.877 78.5291 239.349 78.0491 239.04C77.5798 238.72 76.8545 238.56 75.8731 238.56H75.4571V237.056H75.8891C76.7531 237.045 77.4091 236.901 77.8571 236.624C78.3158 236.347 78.5451 235.909 78.5451 235.312C78.5451 234.8 78.3798 234.395 78.0491 234.096C77.7185 233.787 77.2491 233.632 76.6411 233.632C76.0438 233.632 75.5798 233.787 75.2491 234.096C74.9185 234.395 74.7211 234.768 74.6571 235.216H72.8811ZM90.4414 232.88C91.6254 232.88 92.66 233.109 93.5454 233.568C94.4414 234.016 95.1294 234.667 95.6094 235.52C96.1 236.363 96.3454 237.349 96.3454 238.48C96.3454 239.611 96.1 240.592 95.6094 241.424C95.1294 242.256 94.4414 242.896 93.5454 243.344C92.66 243.781 91.6254 244 90.4414 244H86.8094V232.88H90.4414ZM90.4414 242.512C91.7427 242.512 92.74 242.16 93.4334 241.456C94.1267 240.752 94.4734 239.76 94.4734 238.48C94.4734 237.189 94.1267 236.181 93.4334 235.456C92.74 234.731 91.7427 234.368 90.4414 234.368H88.6334V242.512H90.4414ZM97.5451 239.552C97.5451 238.667 97.7265 237.883 98.0891 237.2C98.4625 236.517 98.9638 235.989 99.5931 235.616C100.233 235.232 100.937 235.04 101.705 235.04C102.398 235.04 103.001 235.179 103.513 235.456C104.036 235.723 104.452 236.059 104.761 236.464V235.184H106.601V244H104.761V242.688C104.452 243.104 104.03 243.451 103.497 243.728C102.964 244.005 102.356 244.144 101.673 244.144C100.916 244.144 100.222 243.952 99.5931 243.568C98.9638 243.173 98.4625 242.629 98.0891 241.936C97.7265 241.232 97.5451 240.437 97.5451 239.552ZM104.761 239.584C104.761 238.976 104.633 238.448 104.377 238C104.132 237.552 103.806 237.211 103.401 236.976C102.996 236.741 102.558 236.624 102.089 236.624C101.62 236.624 101.182 236.741 100.777 236.976C100.372 237.2 100.041 237.536 99.7851 237.984C99.5398 238.421 99.4171 238.944 99.4171 239.552C99.4171 240.16 99.5398 240.693 99.7851 241.152C100.041 241.611 100.372 241.963 100.777 242.208C101.193 242.443 101.63 242.56 102.089 242.56C102.558 242.56 102.996 242.443 103.401 242.208C103.806 241.973 104.132 241.632 104.377 241.184C104.633 240.725 104.761 240.192 104.761 239.584ZM116.933 235.184L111.525 248.144H109.637L111.429 243.856L107.957 235.184H109.989L112.469 241.904L115.045 235.184H116.933ZM121.509 244.144C120.816 244.144 120.192 244.021 119.637 243.776C119.093 243.52 118.661 243.179 118.341 242.752C118.021 242.315 117.851 241.829 117.829 241.296H119.717C119.749 241.669 119.925 241.984 120.245 242.24C120.576 242.485 120.987 242.608 121.477 242.608C121.989 242.608 122.384 242.512 122.661 242.32C122.949 242.117 123.093 241.861 123.093 241.552C123.093 241.221 122.933 240.976 122.613 240.816C122.304 240.656 121.808 240.48 121.125 240.288C120.464 240.107 119.925 239.931 119.509 239.76C119.093 239.589 118.731 239.328 118.421 238.976C118.123 238.624 117.973 238.16 117.973 237.584C117.973 237.115 118.112 236.688 118.389 236.304C118.667 235.909 119.061 235.6 119.573 235.376C120.096 235.152 120.693 235.04 121.365 235.04C122.368 235.04 123.173 235.296 123.781 235.808C124.4 236.309 124.731 236.997 124.773 237.872H122.949C122.917 237.477 122.757 237.163 122.469 236.928C122.181 236.693 121.792 236.576 121.301 236.576C120.821 236.576 120.453 236.667 120.197 236.848C119.941 237.029 119.813 237.269 119.813 237.568C119.813 237.803 119.899 238 120.069 238.16C120.24 238.32 120.448 238.448 120.693 238.544C120.939 238.629 121.301 238.741 121.781 238.88C122.421 239.051 122.944 239.227 123.349 239.408C123.765 239.579 124.123 239.835 124.421 240.176C124.72 240.517 124.875 240.971 124.885 241.536C124.885 242.037 124.747 242.485 124.469 242.88C124.192 243.275 123.797 243.584 123.285 243.808C122.784 244.032 122.192 244.144 121.509 244.144Z" fill="black"/>
<path d="M31.768 278.8C31.768 277.616 32.0027 276.581 32.472 275.696C32.9413 274.811 33.6027 274.128 34.456 273.648C35.2987 273.157 36.2747 272.912 37.384 272.912C38.4827 272.912 39.4587 273.157 40.312 273.648C41.1653 274.128 41.8267 274.816 42.296 275.712C42.7653 276.597 43 277.627 43 278.8V283.008H31.768V278.8ZM40.632 278.976C40.632 277.941 40.3493 277.136 39.784 276.56C39.2187 275.984 38.4187 275.696 37.384 275.696C36.3493 275.696 35.544 275.984 34.968 276.56C34.392 277.136 34.104 277.941 34.104 278.976V280.272H40.632V278.976ZM38.52 271.927C37.6027 271.927 36.7973 271.756 36.104 271.415C35.4107 271.063 34.8773 270.588 34.504 269.991C34.1307 269.394 33.944 268.727 33.944 267.991C33.944 267.362 34.072 266.812 34.328 266.343C34.584 265.863 34.92 265.495 35.336 265.239H34.072V262.503H43V265.239H41.736C42.152 265.506 42.488 265.879 42.744 266.359C43 266.828 43.128 267.378 43.128 268.007C43.128 268.732 42.9413 269.394 42.568 269.991C42.184 270.588 41.6453 271.063 40.952 271.415C40.248 271.756 39.4373 271.927 38.52 271.927ZM38.536 265.239C37.8533 265.239 37.3147 265.431 36.92 265.815C36.5253 266.188 36.328 266.647 36.328 267.191C36.328 267.735 36.5253 268.199 36.92 268.583C37.304 268.956 37.8373 269.143 38.52 269.143C39.2027 269.143 39.7467 268.956 40.152 268.583C40.5467 268.199 40.744 267.735 40.744 267.191C40.744 266.647 40.5467 266.188 40.152 265.815C39.7573 265.431 39.2187 265.239 38.536 265.239ZM34.072 251.404L47.24 257.004V259.948L42.696 257.9L34.072 261.532V258.476L39.656 256.412L34.072 254.364V251.404ZM43.128 246.782C43.128 247.561 42.9947 248.254 42.728 248.862C42.4613 249.47 42.0987 249.95 41.64 250.302C41.1707 250.654 40.648 250.852 40.072 250.894V248.19C40.3813 248.158 40.632 248.014 40.824 247.758C41.016 247.502 41.112 247.188 41.112 246.814C41.112 246.473 41.048 246.212 40.92 246.03C40.7813 245.838 40.6053 245.742 40.392 245.742C40.136 245.742 39.9493 245.876 39.832 246.142C39.704 246.409 39.5653 246.841 39.416 247.438C39.2667 248.078 39.112 248.612 38.952 249.038C38.7813 249.465 38.52 249.833 38.168 250.142C37.8053 250.452 37.32 250.606 36.712 250.606C36.2 250.606 35.736 250.468 35.32 250.19C34.8933 249.902 34.5573 249.486 34.312 248.942C34.0667 248.388 33.944 247.732 33.944 246.974C33.944 245.854 34.2213 244.974 34.776 244.334C35.3307 243.684 36.0667 243.31 36.984 243.214V245.742C36.6747 245.785 36.4293 245.924 36.248 246.158C36.0667 246.382 35.976 246.681 35.976 247.054C35.976 247.374 36.04 247.62 36.168 247.79C36.2853 247.961 36.4507 248.046 36.664 248.046C36.92 248.046 37.112 247.913 37.24 247.646C37.368 247.369 37.496 246.942 37.624 246.366C37.7947 245.705 37.9653 245.166 38.136 244.75C38.296 244.334 38.5627 243.972 38.936 243.662C39.2987 243.342 39.7893 243.177 40.408 243.166C40.9307 243.166 41.4 243.316 41.816 243.614C42.2213 243.902 42.5413 244.324 42.776 244.878C43.0107 245.422 43.128 246.057 43.128 246.782ZM31.768 230.022H33.96V232.998H43V235.734H33.96V238.71H31.768V230.022ZM35.56 225.913C35.0693 225.593 34.6853 225.193 34.408 224.713C34.12 224.233 33.976 223.699 33.976 223.113H36.872V223.865C36.872 224.547 37.0213 225.059 37.32 225.401C37.608 225.742 38.12 225.913 38.856 225.913H43V228.649H34.072V225.913H35.56ZM38.52 222.349C37.6027 222.349 36.7973 222.178 36.104 221.837C35.4107 221.485 34.8773 221.01 34.504 220.413C34.1307 219.816 33.944 219.149 33.944 218.413C33.944 217.784 34.072 217.234 34.328 216.765C34.584 216.285 34.92 215.917 35.336 215.661H34.072V212.925H43V215.661H41.736C42.152 215.928 42.488 216.301 42.744 216.781C43 217.25 43.128 217.8 43.128 218.429C43.128 219.154 42.9413 219.816 42.568 220.413C42.184 221.01 41.6453 221.485 40.952 221.837C40.248 222.178 39.4373 222.349 38.52 222.349ZM38.536 215.661C37.8533 215.661 37.3147 215.853 36.92 216.237C36.5253 216.61 36.328 217.069 36.328 217.613C36.328 218.157 36.5253 218.621 36.92 219.005C37.304 219.378 37.8373 219.565 38.52 219.565C39.2027 219.565 39.7467 219.378 40.152 219.005C40.5467 218.621 40.744 218.157 40.744 217.613C40.744 217.069 40.5467 216.61 40.152 216.237C39.7573 215.853 39.2187 215.661 38.536 215.661ZM40.44 206.929L34.072 204.993V202.081L43 205.249V208.625L34.072 211.793V208.865L40.44 206.929ZM38.392 192.514C38.648 192.514 38.9147 192.53 39.192 192.562V198.754C39.7467 198.711 40.1733 198.535 40.472 198.226C40.76 197.906 40.904 197.517 40.904 197.058C40.904 196.375 40.616 195.901 40.04 195.634V192.722C40.6267 192.871 41.1547 193.143 41.624 193.538C42.0933 193.922 42.4613 194.407 42.728 194.994C42.9947 195.581 43.128 196.237 43.128 196.962C43.128 197.837 42.9413 198.615 42.568 199.298C42.1947 199.981 41.6613 200.514 40.968 200.898C40.2747 201.282 39.464 201.474 38.536 201.474C37.608 201.474 36.7973 201.287 36.104 200.914C35.4107 200.53 34.8773 199.997 34.504 199.314C34.1307 198.631 33.944 197.847 33.944 196.962C33.944 196.098 34.1253 195.33 34.488 194.658C34.8507 193.986 35.368 193.463 36.04 193.09C36.712 192.706 37.496 192.514 38.392 192.514ZM37.672 195.314C37.2027 195.314 36.8293 195.474 36.552 195.794C36.2747 196.114 36.136 196.514 36.136 196.994C36.136 197.453 36.2693 197.842 36.536 198.162C36.8027 198.471 37.1813 198.663 37.672 198.738V195.314ZM31.16 188.334H43V191.07H31.16V188.334ZM31.16 183.616H43V186.352H31.16V183.616ZM33.144 180.257C33.144 180.737 33.0053 181.132 32.728 181.441C32.44 181.74 32.088 181.889 31.672 181.889C31.2453 181.889 30.8933 181.74 30.616 181.441C30.328 181.132 30.184 180.737 30.184 180.257C30.184 179.788 30.328 179.404 30.616 179.105C30.8933 178.796 31.2453 178.641 31.672 178.641C32.088 178.641 32.44 178.796 32.728 179.105C33.0053 179.404 33.144 179.788 33.144 180.257ZM34.072 178.897H43V181.633H34.072V178.897ZM33.976 171.474C33.976 170.429 34.3173 169.597 35 168.978C35.672 168.349 36.6 168.034 37.784 168.034H43V170.754H38.152C37.5547 170.754 37.0907 170.909 36.76 171.218C36.4293 171.528 36.264 171.944 36.264 172.466C36.264 172.989 36.4293 173.405 36.76 173.714C37.0907 174.024 37.5547 174.178 38.152 174.178H43V176.914H34.072V174.178H35.256C34.8613 173.901 34.552 173.528 34.328 173.058C34.0933 172.589 33.976 172.061 33.976 171.474ZM33.944 162.741C33.944 162.112 34.072 161.562 34.328 161.093C34.584 160.613 34.92 160.245 35.336 159.989H34.072V157.253H42.984C43.8053 157.253 44.5467 157.418 45.208 157.749C45.88 158.069 46.4133 158.565 46.808 159.237C47.2027 159.898 47.4 160.725 47.4 161.717C47.4 163.04 47.0853 164.112 46.456 164.933C45.8373 165.754 44.9947 166.224 43.928 166.341V163.637C44.2693 163.552 44.536 163.349 44.728 163.029C44.9307 162.709 45.032 162.314 45.032 161.845C45.032 161.28 44.8667 160.832 44.536 160.501C44.216 160.16 43.6987 159.989 42.984 159.989H41.72C42.136 160.256 42.4773 160.624 42.744 161.093C43 161.562 43.128 162.112 43.128 162.741C43.128 163.477 42.9413 164.144 42.568 164.741C42.184 165.338 41.6453 165.813 40.952 166.165C40.248 166.506 39.4373 166.677 38.52 166.677C37.6027 166.677 36.7973 166.506 36.104 166.165C35.4107 165.813 34.8773 165.338 34.504 164.741C34.1307 164.144 33.944 163.477 33.944 162.741ZM38.536 159.989C37.8533 159.989 37.3147 160.181 36.92 160.565C36.5253 160.938 36.328 161.397 36.328 161.941C36.328 162.485 36.5253 162.949 36.92 163.333C37.304 163.706 37.8373 163.893 38.52 163.893C39.2027 163.893 39.7467 163.706 40.152 163.333C40.5467 162.949 40.744 162.485 40.744 161.941C40.744 161.397 40.5467 160.938 40.152 160.565C39.7573 160.181 39.2187 159.989 38.536 159.989Z" fill="black"/>
<path d="M263.552 374.384C263.552 375.035 263.403 375.632 263.104 376.176C262.805 376.709 262.347 377.141 261.728 377.472C261.109 377.803 260.341 377.968 259.424 377.968H257.728V382H254.992V370.768H259.424C260.32 370.768 261.077 370.923 261.696 371.232C262.315 371.541 262.779 371.968 263.088 372.512C263.397 373.056 263.552 373.68 263.552 374.384ZM259.216 375.792C259.739 375.792 260.128 375.669 260.384 375.424C260.64 375.179 260.768 374.832 260.768 374.384C260.768 373.936 260.64 373.589 260.384 373.344C260.128 373.099 259.739 372.976 259.216 372.976H257.728V375.792H259.216ZM273.392 377.392C273.392 377.648 273.376 377.915 273.344 378.192H267.152C267.195 378.747 267.371 379.173 267.68 379.472C268 379.76 268.39 379.904 268.848 379.904C269.531 379.904 270.006 379.616 270.272 379.04H273.184C273.035 379.627 272.763 380.155 272.368 380.624C271.984 381.093 271.499 381.461 270.912 381.728C270.326 381.995 269.67 382.128 268.944 382.128C268.07 382.128 267.291 381.941 266.608 381.568C265.926 381.195 265.392 380.661 265.008 379.968C264.624 379.275 264.432 378.464 264.432 377.536C264.432 376.608 264.619 375.797 264.992 375.104C265.376 374.411 265.91 373.877 266.592 373.504C267.275 373.131 268.059 372.944 268.944 372.944C269.808 372.944 270.576 373.125 271.248 373.488C271.92 373.851 272.443 374.368 272.816 375.04C273.2 375.712 273.392 376.496 273.392 377.392ZM270.592 376.672C270.592 376.203 270.432 375.829 270.112 375.552C269.792 375.275 269.392 375.136 268.912 375.136C268.454 375.136 268.064 375.269 267.744 375.536C267.435 375.803 267.243 376.181 267.168 376.672H270.592ZM277.572 374.56C277.892 374.069 278.292 373.685 278.772 373.408C279.252 373.12 279.785 372.976 280.372 372.976V375.872H279.62C278.937 375.872 278.425 376.021 278.084 376.32C277.742 376.608 277.572 377.12 277.572 377.856V382H274.836V373.072H277.572V374.56ZM281.136 377.536C281.136 376.608 281.322 375.797 281.696 375.104C282.08 374.411 282.608 373.877 283.28 373.504C283.962 373.131 284.741 372.944 285.616 372.944C286.736 372.944 287.669 373.237 288.416 373.824C289.173 374.411 289.669 375.237 289.904 376.304H286.992C286.746 375.621 286.272 375.28 285.568 375.28C285.066 375.28 284.666 375.477 284.368 375.872C284.069 376.256 283.92 376.811 283.92 377.536C283.92 378.261 284.069 378.821 284.368 379.216C284.666 379.6 285.066 379.792 285.568 379.792C286.272 379.792 286.746 379.451 286.992 378.768H289.904C289.669 379.813 289.173 380.635 288.416 381.232C287.658 381.829 286.725 382.128 285.616 382.128C284.741 382.128 283.962 381.941 283.28 381.568C282.608 381.195 282.08 380.661 281.696 379.968C281.322 379.275 281.136 378.464 281.136 377.536ZM299.783 377.392C299.783 377.648 299.767 377.915 299.735 378.192H293.543C293.586 378.747 293.762 379.173 294.071 379.472C294.391 379.76 294.78 379.904 295.239 379.904C295.922 379.904 296.396 379.616 296.663 379.04H299.575C299.426 379.627 299.154 380.155 298.759 380.624C298.375 381.093 297.89 381.461 297.303 381.728C296.716 381.995 296.06 382.128 295.335 382.128C294.46 382.128 293.682 381.941 292.999 381.568C292.316 381.195 291.783 380.661 291.399 379.968C291.015 379.275 290.823 378.464 290.823 377.536C290.823 376.608 291.01 375.797 291.383 375.104C291.767 374.411 292.3 373.877 292.983 373.504C293.666 373.131 294.45 372.944 295.335 372.944C296.199 372.944 296.967 373.125 297.639 373.488C298.311 373.851 298.834 374.368 299.207 375.04C299.591 375.712 299.783 376.496 299.783 377.392ZM296.983 376.672C296.983 376.203 296.823 375.829 296.503 375.552C296.183 375.275 295.783 375.136 295.303 375.136C294.844 375.136 294.455 375.269 294.135 375.536C293.826 375.803 293.634 376.181 293.559 376.672H296.983ZM306.666 372.976C307.712 372.976 308.544 373.317 309.162 374C309.792 374.672 310.106 375.6 310.106 376.784V382H307.386V377.152C307.386 376.555 307.232 376.091 306.922 375.76C306.613 375.429 306.197 375.264 305.674 375.264C305.152 375.264 304.736 375.429 304.426 375.76C304.117 376.091 303.962 376.555 303.962 377.152V382H301.226V373.072H303.962V374.256C304.24 373.861 304.613 373.552 305.082 373.328C305.552 373.093 306.08 372.976 306.666 372.976ZM316.984 379.68V382H315.592C314.6 382 313.826 381.76 313.272 381.28C312.717 380.789 312.44 379.995 312.44 378.896V375.344H311.352V373.072H312.44V370.896H315.176V373.072H316.968V375.344H315.176V378.928C315.176 379.195 315.24 379.387 315.368 379.504C315.496 379.621 315.709 379.68 316.008 379.68H316.984ZM317.964 377.52C317.964 376.603 318.134 375.797 318.476 375.104C318.828 374.411 319.302 373.877 319.9 373.504C320.497 373.131 321.164 372.944 321.9 372.944C322.529 372.944 323.078 373.072 323.548 373.328C324.028 373.584 324.396 373.92 324.652 374.336V373.072H327.388V382H324.652V380.736C324.385 381.152 324.012 381.488 323.532 381.744C323.062 382 322.513 382.128 321.884 382.128C321.158 382.128 320.497 381.941 319.9 381.568C319.302 381.184 318.828 380.645 318.476 379.952C318.134 379.248 317.964 378.437 317.964 377.52ZM324.652 377.536C324.652 376.853 324.46 376.315 324.076 375.92C323.702 375.525 323.244 375.328 322.7 375.328C322.156 375.328 321.692 375.525 321.308 375.92C320.934 376.304 320.748 376.837 320.748 377.52C320.748 378.203 320.934 378.747 321.308 379.152C321.692 379.547 322.156 379.744 322.7 379.744C323.244 379.744 323.702 379.547 324.076 379.152C324.46 378.757 324.652 378.219 324.652 377.536ZM332.759 372.944C333.388 372.944 333.938 373.072 334.407 373.328C334.887 373.584 335.255 373.92 335.511 374.336V373.072H338.247V381.984C338.247 382.805 338.082 383.547 337.751 384.208C337.431 384.88 336.935 385.413 336.263 385.808C335.602 386.203 334.775 386.4 333.783 386.4C332.46 386.4 331.388 386.085 330.567 385.456C329.746 384.837 329.276 383.995 329.159 382.928H331.863C331.948 383.269 332.151 383.536 332.471 383.728C332.791 383.931 333.186 384.032 333.655 384.032C334.22 384.032 334.668 383.867 334.999 383.536C335.34 383.216 335.511 382.699 335.511 381.984V380.72C335.244 381.136 334.876 381.477 334.407 381.744C333.938 382 333.388 382.128 332.759 382.128C332.023 382.128 331.356 381.941 330.759 381.568C330.162 381.184 329.687 380.645 329.335 379.952C328.994 379.248 328.823 378.437 328.823 377.52C328.823 376.603 328.994 375.797 329.335 375.104C329.687 374.411 330.162 373.877 330.759 373.504C331.356 373.131 332.023 372.944 332.759 372.944ZM335.511 377.536C335.511 376.853 335.319 376.315 334.935 375.92C334.562 375.525 334.103 375.328 333.559 375.328C333.015 375.328 332.551 375.525 332.167 375.92C331.794 376.304 331.607 376.837 331.607 377.52C331.607 378.203 331.794 378.747 332.167 379.152C332.551 379.547 333.015 379.744 333.559 379.744C334.103 379.744 334.562 379.547 334.935 379.152C335.319 378.757 335.511 378.219 335.511 377.536ZM348.642 377.392C348.642 377.648 348.626 377.915 348.594 378.192H342.402C342.445 378.747 342.621 379.173 342.93 379.472C343.25 379.76 343.64 379.904 344.098 379.904C344.781 379.904 345.256 379.616 345.522 379.04H348.434C348.285 379.627 348.013 380.155 347.618 380.624C347.234 381.093 346.749 381.461 346.162 381.728C345.576 381.995 344.92 382.128 344.194 382.128C343.32 382.128 342.541 381.941 341.858 381.568C341.176 381.195 340.642 380.661 340.258 379.968C339.874 379.275 339.682 378.464 339.682 377.536C339.682 376.608 339.869 375.797 340.242 375.104C340.626 374.411 341.16 373.877 341.842 373.504C342.525 373.131 343.309 372.944 344.194 372.944C345.058 372.944 345.826 373.125 346.498 373.488C347.17 373.851 347.693 374.368 348.066 375.04C348.45 375.712 348.642 376.496 348.642 377.392ZM345.842 376.672C345.842 376.203 345.682 375.829 345.362 375.552C345.042 375.275 344.642 375.136 344.162 375.136C343.704 375.136 343.314 375.269 342.994 375.536C342.685 375.803 342.493 376.181 342.418 376.672H345.842ZM357.54 382.128C356.666 382.128 355.876 381.941 355.172 381.568C354.479 381.195 353.93 380.661 353.524 379.968C353.13 379.275 352.932 378.464 352.932 377.536C352.932 376.619 353.135 375.813 353.54 375.12C353.946 374.416 354.5 373.877 355.204 373.504C355.908 373.131 356.698 372.944 357.572 372.944C358.447 372.944 359.236 373.131 359.94 373.504C360.644 373.877 361.199 374.416 361.604 375.12C362.01 375.813 362.212 376.619 362.212 377.536C362.212 378.453 362.004 379.264 361.588 379.968C361.183 380.661 360.623 381.195 359.908 381.568C359.204 381.941 358.415 382.128 357.54 382.128ZM357.54 379.76C358.063 379.76 358.506 379.568 358.868 379.184C359.242 378.8 359.428 378.251 359.428 377.536C359.428 376.821 359.247 376.272 358.884 375.888C358.532 375.504 358.095 375.312 357.572 375.312C357.039 375.312 356.596 375.504 356.244 375.888C355.892 376.261 355.716 376.811 355.716 377.536C355.716 378.251 355.887 378.8 356.228 379.184C356.58 379.568 357.018 379.76 357.54 379.76ZM368.144 375.344H366.672V382H363.936V375.344H362.944V373.072H363.936V372.816C363.936 371.717 364.251 370.885 364.88 370.32C365.509 369.744 366.432 369.456 367.648 369.456C367.851 369.456 368 369.461 368.096 369.472V371.792C367.573 371.76 367.205 371.835 366.992 372.016C366.779 372.197 366.672 372.523 366.672 372.992V373.072H368.144V375.344ZM378.548 382L376.212 377.76H375.556V382H372.82V370.768H377.412C378.297 370.768 379.049 370.923 379.668 371.232C380.297 371.541 380.767 371.968 381.076 372.512C381.385 373.045 381.54 373.643 381.54 374.304C381.54 375.051 381.327 375.717 380.9 376.304C380.484 376.891 379.865 377.307 379.044 377.552L381.636 382H378.548ZM375.556 375.824H377.252C377.753 375.824 378.127 375.701 378.372 375.456C378.628 375.211 378.756 374.864 378.756 374.416C378.756 373.989 378.628 373.653 378.372 373.408C378.127 373.163 377.753 373.04 377.252 373.04H375.556V375.824ZM391.674 377.392C391.674 377.648 391.658 377.915 391.626 378.192H385.434C385.476 378.747 385.652 379.173 385.962 379.472C386.282 379.76 386.671 379.904 387.13 379.904C387.812 379.904 388.287 379.616 388.554 379.04H391.466C391.316 379.627 391.044 380.155 390.65 380.624C390.266 381.093 389.78 381.461 389.194 381.728C388.607 381.995 387.951 382.128 387.226 382.128C386.351 382.128 385.572 381.941 384.89 381.568C384.207 381.195 383.674 380.661 383.29 379.968C382.906 379.275 382.714 378.464 382.714 377.536C382.714 376.608 382.9 375.797 383.274 375.104C383.658 374.411 384.191 373.877 384.874 373.504C385.556 373.131 386.34 372.944 387.226 372.944C388.09 372.944 388.858 373.125 389.53 373.488C390.202 373.851 390.724 374.368 391.098 375.04C391.482 375.712 391.674 376.496 391.674 377.392ZM388.874 376.672C388.874 376.203 388.714 375.829 388.394 375.552C388.074 375.275 387.674 375.136 387.194 375.136C386.735 375.136 386.346 375.269 386.026 375.536C385.716 375.803 385.524 376.181 385.45 376.672H388.874ZM396.749 382.128C395.97 382.128 395.277 381.995 394.669 381.728C394.061 381.461 393.581 381.099 393.229 380.64C392.877 380.171 392.68 379.648 392.637 379.072H395.341C395.373 379.381 395.517 379.632 395.773 379.824C396.029 380.016 396.344 380.112 396.717 380.112C397.058 380.112 397.32 380.048 397.501 379.92C397.693 379.781 397.789 379.605 397.789 379.392C397.789 379.136 397.656 378.949 397.389 378.832C397.122 378.704 396.69 378.565 396.093 378.416C395.453 378.267 394.92 378.112 394.493 377.952C394.066 377.781 393.698 377.52 393.389 377.168C393.08 376.805 392.925 376.32 392.925 375.712C392.925 375.2 393.064 374.736 393.341 374.32C393.629 373.893 394.045 373.557 394.589 373.312C395.144 373.067 395.8 372.944 396.557 372.944C397.677 372.944 398.557 373.221 399.197 373.776C399.848 374.331 400.221 375.067 400.317 375.984H397.789C397.746 375.675 397.608 375.429 397.373 375.248C397.149 375.067 396.85 374.976 396.477 374.976C396.157 374.976 395.912 375.04 395.741 375.168C395.57 375.285 395.485 375.451 395.485 375.664C395.485 375.92 395.618 376.112 395.885 376.24C396.162 376.368 396.589 376.496 397.165 376.624C397.826 376.795 398.365 376.965 398.781 377.136C399.197 377.296 399.56 377.563 399.869 377.936C400.189 378.299 400.354 378.789 400.365 379.408C400.365 379.931 400.216 380.4 399.917 380.816C399.629 381.221 399.208 381.541 398.653 381.776C398.109 382.011 397.474 382.128 396.749 382.128ZM404.775 374.336C405.042 373.92 405.41 373.584 405.879 373.328C406.348 373.072 406.898 372.944 407.527 372.944C408.263 372.944 408.93 373.131 409.527 373.504C410.124 373.877 410.594 374.411 410.935 375.104C411.287 375.797 411.463 376.603 411.463 377.52C411.463 378.437 411.287 379.248 410.935 379.952C410.594 380.645 410.124 381.184 409.527 381.568C408.93 381.941 408.263 382.128 407.527 382.128C406.908 382.128 406.359 382 405.879 381.744C405.41 381.488 405.042 381.157 404.775 380.752V386.256H402.039V373.072H404.775V374.336ZM408.679 377.52C408.679 376.837 408.487 376.304 408.103 375.92C407.73 375.525 407.266 375.328 406.711 375.328C406.167 375.328 405.703 375.525 405.319 375.92C404.946 376.315 404.759 376.853 404.759 377.536C404.759 378.219 404.946 378.757 405.319 379.152C405.703 379.547 406.167 379.744 406.711 379.744C407.255 379.744 407.719 379.547 408.103 379.152C408.487 378.747 408.679 378.203 408.679 377.52ZM416.962 382.128C416.088 382.128 415.298 381.941 414.594 381.568C413.901 381.195 413.352 380.661 412.946 379.968C412.552 379.275 412.354 378.464 412.354 377.536C412.354 376.619 412.557 375.813 412.962 375.12C413.368 374.416 413.922 373.877 414.626 373.504C415.33 373.131 416.12 372.944 416.994 372.944C417.869 372.944 418.658 373.131 419.362 373.504C420.066 373.877 420.621 374.416 421.026 375.12C421.432 375.813 421.634 376.619 421.634 377.536C421.634 378.453 421.426 379.264 421.01 379.968C420.605 380.661 420.045 381.195 419.33 381.568C418.626 381.941 417.837 382.128 416.962 382.128ZM416.962 379.76C417.485 379.76 417.928 379.568 418.29 379.184C418.664 378.8 418.85 378.251 418.85 377.536C418.85 376.821 418.669 376.272 418.306 375.888C417.954 375.504 417.517 375.312 416.994 375.312C416.461 375.312 416.018 375.504 415.666 375.888C415.314 376.261 415.138 376.811 415.138 377.536C415.138 378.251 415.309 378.8 415.65 379.184C416.002 379.568 416.44 379.76 416.962 379.76ZM428.526 372.976C429.571 372.976 430.403 373.317 431.022 374C431.651 374.672 431.966 375.6 431.966 376.784V382H429.246V377.152C429.246 376.555 429.091 376.091 428.782 375.76C428.472 375.429 428.056 375.264 427.534 375.264C427.011 375.264 426.595 375.429 426.286 375.76C425.976 376.091 425.822 376.555 425.822 377.152V382H423.086V373.072H425.822V374.256C426.099 373.861 426.472 373.552 426.942 373.328C427.411 373.093 427.939 372.976 428.526 372.976ZM433.323 377.52C433.323 376.603 433.494 375.797 433.835 375.104C434.187 374.411 434.662 373.877 435.259 373.504C435.856 373.131 436.523 372.944 437.259 372.944C437.846 372.944 438.379 373.067 438.859 373.312C439.35 373.557 439.734 373.888 440.011 374.304V370.16H442.747V382H440.011V380.72C439.755 381.147 439.387 381.488 438.907 381.744C438.438 382 437.888 382.128 437.259 382.128C436.523 382.128 435.856 381.941 435.259 381.568C434.662 381.184 434.187 380.645 433.835 379.952C433.494 379.248 433.323 378.437 433.323 377.52ZM440.011 377.536C440.011 376.853 439.819 376.315 439.435 375.92C439.062 375.525 438.603 375.328 438.059 375.328C437.515 375.328 437.051 375.525 436.667 375.92C436.294 376.304 436.107 376.837 436.107 377.52C436.107 378.203 436.294 378.747 436.667 379.152C437.051 379.547 437.515 379.744 438.059 379.744C438.603 379.744 439.062 379.547 439.435 379.152C439.819 378.757 440.011 378.219 440.011 377.536ZM453.142 377.392C453.142 377.648 453.126 377.915 453.094 378.192H446.902C446.945 378.747 447.121 379.173 447.43 379.472C447.75 379.76 448.14 379.904 448.598 379.904C449.281 379.904 449.756 379.616 450.022 379.04H452.934C452.785 379.627 452.513 380.155 452.118 380.624C451.734 381.093 451.249 381.461 450.662 381.728C450.076 381.995 449.42 382.128 448.694 382.128C447.82 382.128 447.041 381.941 446.358 381.568C445.676 381.195 445.142 380.661 444.758 379.968C444.374 379.275 444.182 378.464 444.182 377.536C444.182 376.608 444.369 375.797 444.742 375.104C445.126 374.411 445.66 373.877 446.342 373.504C447.025 373.131 447.809 372.944 448.694 372.944C449.558 372.944 450.326 373.125 450.998 373.488C451.67 373.851 452.193 374.368 452.566 375.04C452.95 375.712 453.142 376.496 453.142 377.392ZM450.342 376.672C450.342 376.203 450.182 375.829 449.862 375.552C449.542 375.275 449.142 375.136 448.662 375.136C448.204 375.136 447.814 375.269 447.494 375.536C447.185 375.803 446.993 376.181 446.918 376.672H450.342ZM460.026 372.976C461.071 372.976 461.903 373.317 462.522 374C463.151 374.672 463.466 375.6 463.466 376.784V382H460.746V377.152C460.746 376.555 460.591 376.091 460.282 375.76C459.972 375.429 459.556 375.264 459.034 375.264C458.511 375.264 458.095 375.429 457.786 375.76C457.476 376.091 457.322 376.555 457.322 377.152V382H454.586V373.072H457.322V374.256C457.599 373.861 457.972 373.552 458.442 373.328C458.911 373.093 459.439 372.976 460.026 372.976ZM470.343 379.68V382H468.951C467.959 382 467.186 381.76 466.631 381.28C466.076 380.789 465.799 379.995 465.799 378.896V375.344H464.711V373.072H465.799V370.896H468.535V373.072H470.327V375.344H468.535V378.928C468.535 379.195 468.599 379.387 468.727 379.504C468.855 379.621 469.068 379.68 469.367 379.68H470.343ZM475.499 382.128C474.72 382.128 474.027 381.995 473.419 381.728C472.811 381.461 472.331 381.099 471.979 380.64C471.627 380.171 471.43 379.648 471.387 379.072H474.091C474.123 379.381 474.267 379.632 474.523 379.824C474.779 380.016 475.094 380.112 475.467 380.112C475.808 380.112 476.07 380.048 476.251 379.92C476.443 379.781 476.539 379.605 476.539 379.392C476.539 379.136 476.406 378.949 476.139 378.832C475.872 378.704 475.44 378.565 474.843 378.416C474.203 378.267 473.67 378.112 473.243 377.952C472.816 377.781 472.448 377.52 472.139 377.168C471.83 376.805 471.675 376.32 471.675 375.712C471.675 375.2 471.814 374.736 472.091 374.32C472.379 373.893 472.795 373.557 473.339 373.312C473.894 373.067 474.55 372.944 475.307 372.944C476.427 372.944 477.307 373.221 477.947 373.776C478.598 374.331 478.971 375.067 479.067 375.984H476.539C476.496 375.675 476.358 375.429 476.123 375.248C475.899 375.067 475.6 374.976 475.227 374.976C474.907 374.976 474.662 375.04 474.491 375.168C474.32 375.285 474.235 375.451 474.235 375.664C474.235 375.92 474.368 376.112 474.635 376.24C474.912 376.368 475.339 376.496 475.915 376.624C476.576 376.795 477.115 376.965 477.531 377.136C477.947 377.296 478.31 377.563 478.619 377.936C478.939 378.299 479.104 378.789 479.115 379.408C479.115 379.931 478.966 380.4 478.667 380.816C478.379 381.221 477.958 381.541 477.403 381.776C476.859 382.011 476.224 382.128 475.499 382.128Z" fill="black"/>
<path d="M58.792 295.592H61.096L64.776 299.224L61.096 302.856H58.792L62.488 299.224L58.792 295.592ZM71.3138 295V293.336H74.6418V305H72.8018V295H71.3138ZM85.1758 293.88C86.3598 293.88 87.3944 294.109 88.2798 294.568C89.1758 295.016 89.8638 295.667 90.3438 296.52C90.8344 297.363 91.0798 298.349 91.0798 299.48C91.0798 300.611 90.8344 301.592 90.3438 302.424C89.8638 303.256 89.1758 303.896 88.2798 304.344C87.3944 304.781 86.3598 305 85.1758 305H81.5438V293.88H85.1758ZM85.1758 303.512C86.4771 303.512 87.4744 303.16 88.1678 302.456C88.8611 301.752 89.2078 300.76 89.2078 299.48C89.2078 298.189 88.8611 297.181 88.1678 296.456C87.4744 295.731 86.4771 295.368 85.1758 295.368H83.3678V303.512H85.1758ZM92.2795 300.552C92.2795 299.667 92.4608 298.883 92.8235 298.2C93.1968 297.517 93.6982 296.989 94.3275 296.616C94.9675 296.232 95.6715 296.04 96.4395 296.04C97.1328 296.04 97.7355 296.179 98.2475 296.456C98.7702 296.723 99.1862 297.059 99.4955 297.464V296.184H101.336V305H99.4955V303.688C99.1862 304.104 98.7648 304.451 98.2315 304.728C97.6982 305.005 97.0902 305.144 96.4075 305.144C95.6502 305.144 94.9568 304.952 94.3275 304.568C93.6982 304.173 93.1968 303.629 92.8235 302.936C92.4608 302.232 92.2795 301.437 92.2795 300.552ZM99.4955 300.584C99.4955 299.976 99.3675 299.448 99.1115 299C98.8662 298.552 98.5408 298.211 98.1355 297.976C97.7302 297.741 97.2928 297.624 96.8235 297.624C96.3542 297.624 95.9168 297.741 95.5115 297.976C95.1062 298.2 94.7755 298.536 94.5195 298.984C94.2742 299.421 94.1515 299.944 94.1515 300.552C94.1515 301.16 94.2742 301.693 94.5195 302.152C94.7755 302.611 95.1062 302.963 95.5115 303.208C95.9275 303.443 96.3648 303.56 96.8235 303.56C97.2928 303.56 97.7302 303.443 98.1355 303.208C98.5408 302.973 98.8662 302.632 99.1115 302.184C99.3675 301.725 99.4955 301.192 99.4955 300.584ZM111.667 296.184L106.259 309.144H104.371L106.163 304.856L102.691 296.184H104.723L107.203 302.904L109.779 296.184H111.667Z" fill="black"/>
<path d="M602.538 183.124C603.554 182.308 604.35 181.64 604.926 181.12C605.502 180.592 605.986 180.044 606.378 179.476C606.778 178.9 606.978 178.336 606.978 177.784C606.978 177.264 606.85 176.856 606.594 176.56C606.346 176.256 605.942 176.104 605.382 176.104C604.838 176.104 604.414 176.276 604.11 176.62C603.814 176.956 603.654 177.408 603.63 177.976H602.574C602.606 177.08 602.878 176.388 603.39 175.9C603.902 175.412 604.562 175.168 605.37 175.168C606.194 175.168 606.846 175.396 607.326 175.852C607.814 176.308 608.058 176.936 608.058 177.736C608.058 178.4 607.858 179.048 607.458 179.68C607.066 180.304 606.618 180.856 606.114 181.336C605.61 181.808 604.966 182.36 604.182 182.992H608.31V183.904H602.538V183.124ZM609.548 177.508C609.604 176.772 609.888 176.196 610.4 175.78C610.912 175.364 611.576 175.156 612.392 175.156C612.936 175.156 613.404 175.256 613.796 175.456C614.196 175.648 614.496 175.912 614.696 176.248C614.904 176.584 615.008 176.964 615.008 177.388C615.008 177.884 614.864 178.312 614.576 178.672C614.296 179.032 613.928 179.264 613.472 179.368V179.428C613.992 179.556 614.404 179.808 614.708 180.184C615.012 180.56 615.164 181.052 615.164 181.66C615.164 182.116 615.06 182.528 614.852 182.896C614.644 183.256 614.332 183.54 613.916 183.748C613.5 183.956 613 184.06 612.416 184.06C611.568 184.06 610.872 183.84 610.328 183.4C609.784 182.952 609.48 182.32 609.416 181.504H610.472C610.528 181.984 610.724 182.376 611.06 182.68C611.396 182.984 611.844 183.136 612.404 183.136C612.964 183.136 613.388 182.992 613.676 182.704C613.972 182.408 614.12 182.028 614.12 181.564C614.12 180.964 613.92 180.532 613.52 180.268C613.12 180.004 612.516 179.872 611.708 179.872H611.432V178.96H611.72C612.456 178.952 613.012 178.832 613.388 178.6C613.764 178.36 613.952 177.992 613.952 177.496C613.952 177.072 613.812 176.732 613.532 176.476C613.26 176.22 612.868 176.092 612.356 176.092C611.86 176.092 611.46 176.22 611.156 176.476C610.852 176.732 610.672 177.076 610.616 177.508H609.548ZM616.399 177.28C616.399 176.736 616.563 176.304 616.891 175.984C617.219 175.656 617.639 175.492 618.151 175.492C618.663 175.492 619.083 175.656 619.411 175.984C619.739 176.304 619.903 176.736 619.903 177.28C619.903 177.832 619.739 178.272 619.411 178.6C619.083 178.92 618.663 179.08 618.151 179.08C617.639 179.08 617.219 178.92 616.891 178.6C616.563 178.272 616.399 177.832 616.399 177.28ZM623.407 175.624L618.547 184H617.467L622.327 175.624H623.407ZM618.151 176.164C617.879 176.164 617.663 176.26 617.503 176.452C617.351 176.636 617.275 176.912 617.275 177.28C617.275 177.648 617.351 177.928 617.503 178.12C617.663 178.312 617.879 178.408 618.151 178.408C618.423 178.408 618.639 178.312 618.799 178.12C618.959 177.92 619.039 177.64 619.039 177.28C619.039 176.912 618.959 176.636 618.799 176.452C618.639 176.26 618.423 176.164 618.151 176.164ZM620.995 182.344C620.995 181.792 621.159 181.356 621.487 181.036C621.815 180.708 622.235 180.544 622.747 180.544C623.259 180.544 623.675 180.708 623.995 181.036C624.323 181.356 624.487 181.792 624.487 182.344C624.487 182.888 624.323 183.324 623.995 183.652C623.675 183.98 623.259 184.144 622.747 184.144C622.235 184.144 621.815 183.984 621.487 183.664C621.159 183.336 620.995 182.896 620.995 182.344ZM622.735 181.228C622.463 181.228 622.247 181.324 622.087 181.516C621.927 181.7 621.847 181.976 621.847 182.344C621.847 182.704 621.927 182.98 622.087 183.172C622.247 183.356 622.463 183.448 622.735 183.448C623.007 183.448 623.223 183.356 623.383 183.172C623.543 182.98 623.623 182.704 623.623 182.344C623.623 181.976 623.543 181.7 623.383 181.516C623.223 181.324 623.007 181.228 622.735 181.228Z" fill="black"/>
<path d="M604.89 115.32V114.324H607.146V123H606.042V115.32H604.89ZM613.857 116.388C613.681 115.5 613.133 115.056 612.213 115.056C611.501 115.056 610.969 115.332 610.617 115.884C610.265 116.428 610.093 117.328 610.101 118.584C610.285 118.168 610.589 117.844 611.013 117.612C611.445 117.372 611.925 117.252 612.453 117.252C613.277 117.252 613.933 117.508 614.421 118.02C614.917 118.532 615.165 119.24 615.165 120.144C615.165 120.688 615.057 121.176 614.841 121.608C614.633 122.04 614.313 122.384 613.881 122.64C613.457 122.896 612.941 123.024 612.333 123.024C611.509 123.024 610.865 122.84 610.401 122.472C609.937 122.104 609.613 121.596 609.429 120.948C609.245 120.3 609.153 119.5 609.153 118.548C609.153 115.612 610.177 114.144 612.225 114.144C613.009 114.144 613.625 114.356 614.073 114.78C614.521 115.204 614.785 115.74 614.865 116.388H613.857ZM612.225 118.176C611.881 118.176 611.557 118.248 611.253 118.392C610.949 118.528 610.701 118.74 610.509 119.028C610.325 119.308 610.233 119.652 610.233 120.06C610.233 120.668 610.409 121.164 610.761 121.548C611.113 121.924 611.617 122.112 612.273 122.112C612.833 122.112 613.277 121.94 613.605 121.596C613.941 121.244 614.109 120.772 614.109 120.18C614.109 119.556 613.949 119.068 613.629 118.716C613.309 118.356 612.841 118.176 612.225 118.176ZM616.399 116.28C616.399 115.736 616.563 115.304 616.891 114.984C617.219 114.656 617.639 114.492 618.151 114.492C618.663 114.492 619.083 114.656 619.411 114.984C619.739 115.304 619.903 115.736 619.903 116.28C619.903 116.832 619.739 117.272 619.411 117.6C619.083 117.92 618.663 118.08 618.151 118.08C617.639 118.08 617.219 117.92 616.891 117.6C616.563 117.272 616.399 116.832 616.399 116.28ZM623.407 114.624L618.547 123H617.467L622.327 114.624H623.407ZM618.151 115.164C617.879 115.164 617.663 115.26 617.503 115.452C617.351 115.636 617.275 115.912 617.275 116.28C617.275 116.648 617.351 116.928 617.503 117.12C617.663 117.312 617.879 117.408 618.151 117.408C618.423 117.408 618.639 117.312 618.799 117.12C618.959 116.92 619.039 116.64 619.039 116.28C619.039 115.912 618.959 115.636 618.799 115.452C618.639 115.26 618.423 115.164 618.151 115.164ZM620.995 121.344C620.995 120.792 621.159 120.356 621.487 120.036C621.815 119.708 622.235 119.544 622.747 119.544C623.259 119.544 623.675 119.708 623.995 120.036C624.323 120.356 624.487 120.792 624.487 121.344C624.487 121.888 624.323 122.324 623.995 122.652C623.675 122.98 623.259 123.144 622.747 123.144C622.235 123.144 621.815 122.984 621.487 122.664C621.159 122.336 620.995 121.896 620.995 121.344ZM622.735 120.228C622.463 120.228 622.247 120.324 622.087 120.516C621.927 120.7 621.847 120.976 621.847 121.344C621.847 121.704 621.927 121.98 622.087 122.172C622.247 122.356 622.463 122.448 622.735 122.448C623.007 122.448 623.223 122.356 623.383 122.172C623.543 121.98 623.623 121.704 623.623 121.344C623.623 120.976 623.543 120.7 623.383 120.516C623.223 120.324 623.007 120.228 622.735 120.228Z" fill="black"/>
<path d="M602.057 241.124C603.073 240.308 603.869 239.64 604.445 239.12C605.021 238.592 605.505 238.044 605.897 237.476C606.297 236.9 606.497 236.336 606.497 235.784C606.497 235.264 606.369 234.856 606.113 234.56C605.865 234.256 605.461 234.104 604.901 234.104C604.357 234.104 603.933 234.276 603.629 234.62C603.333 234.956 603.173 235.408 603.149 235.976H602.093C602.125 235.08 602.397 234.388 602.909 233.9C603.421 233.412 604.081 233.168 604.889 233.168C605.713 233.168 606.365 233.396 606.845 233.852C607.333 234.308 607.577 234.936 607.577 235.736C607.577 236.4 607.377 237.048 606.977 237.68C606.585 238.304 606.137 238.856 605.633 239.336C605.129 239.808 604.485 240.36 603.701 240.992H607.829V241.904H602.057V241.124ZM608.828 240.068V239.24L613.04 233.408H614.348V239.12H615.548V240.068H614.348V242H613.268V240.068H608.828ZM613.316 234.548L610.088 239.12H613.316V234.548ZM616.399 235.28C616.399 234.736 616.563 234.304 616.891 233.984C617.219 233.656 617.639 233.492 618.151 233.492C618.663 233.492 619.083 233.656 619.411 233.984C619.739 234.304 619.903 234.736 619.903 235.28C619.903 235.832 619.739 236.272 619.411 236.6C619.083 236.92 618.663 237.08 618.151 237.08C617.639 237.08 617.219 236.92 616.891 236.6C616.563 236.272 616.399 235.832 616.399 235.28ZM623.407 233.624L618.547 242H617.467L622.327 233.624H623.407ZM618.151 234.164C617.879 234.164 617.663 234.26 617.503 234.452C617.351 234.636 617.275 234.912 617.275 235.28C617.275 235.648 617.351 235.928 617.503 236.12C617.663 236.312 617.879 236.408 618.151 236.408C618.423 236.408 618.639 236.312 618.799 236.12C618.959 235.92 619.039 235.64 619.039 235.28C619.039 234.912 618.959 234.636 618.799 234.452C618.639 234.26 618.423 234.164 618.151 234.164ZM620.995 240.344C620.995 239.792 621.159 239.356 621.487 239.036C621.815 238.708 622.235 238.544 622.747 238.544C623.259 238.544 623.675 238.708 623.995 239.036C624.323 239.356 624.487 239.792 624.487 240.344C624.487 240.888 624.323 241.324 623.995 241.652C623.675 241.98 623.259 242.144 622.747 242.144C622.235 242.144 621.815 241.984 621.487 241.664C621.159 241.336 620.995 240.896 620.995 240.344ZM622.735 239.228C622.463 239.228 622.247 239.324 622.087 239.516C621.927 239.7 621.847 239.976 621.847 240.344C621.847 240.704 621.927 240.98 622.087 241.172C622.247 241.356 622.463 241.448 622.735 241.448C623.007 241.448 623.223 241.356 623.383 241.172C623.543 240.98 623.623 240.704 623.623 240.344C623.623 239.976 623.543 239.7 623.383 239.516C623.223 239.324 623.007 239.228 622.735 239.228Z" fill="black"/>
<path d="M602.997 296.508C603.053 295.772 603.337 295.196 603.849 294.78C604.361 294.364 605.025 294.156 605.841 294.156C606.385 294.156 606.853 294.256 607.245 294.456C607.645 294.648 607.945 294.912 608.145 295.248C608.353 295.584 608.457 295.964 608.457 296.388C608.457 296.884 608.313 297.312 608.025 297.672C607.745 298.032 607.377 298.264 606.921 298.368V298.428C607.441 298.556 607.853 298.808 608.157 299.184C608.461 299.56 608.613 300.052 608.613 300.66C608.613 301.116 608.509 301.528 608.301 301.896C608.093 302.256 607.781 302.54 607.365 302.748C606.949 302.956 606.449 303.06 605.865 303.06C605.017 303.06 604.321 302.84 603.777 302.4C603.233 301.952 602.929 301.32 602.865 300.504H603.921C603.977 300.984 604.173 301.376 604.509 301.68C604.845 301.984 605.293 302.136 605.853 302.136C606.413 302.136 606.837 301.992 607.125 301.704C607.421 301.408 607.569 301.028 607.569 300.564C607.569 299.964 607.369 299.532 606.969 299.268C606.569 299.004 605.965 298.872 605.157 298.872H604.881V297.96H605.169C605.905 297.952 606.461 297.832 606.837 297.6C607.213 297.36 607.401 296.992 607.401 296.496C607.401 296.072 607.261 295.732 606.981 295.476C606.709 295.22 606.317 295.092 605.805 295.092C605.309 295.092 604.909 295.22 604.605 295.476C604.301 295.732 604.121 296.076 604.065 296.508H602.997ZM615.428 295.176L612.092 303H610.988L614.372 295.284H609.74V294.348H615.428V295.176ZM616.399 296.28C616.399 295.736 616.563 295.304 616.891 294.984C617.219 294.656 617.639 294.492 618.151 294.492C618.663 294.492 619.083 294.656 619.411 294.984C619.739 295.304 619.903 295.736 619.903 296.28C619.903 296.832 619.739 297.272 619.411 297.6C619.083 297.92 618.663 298.08 618.151 298.08C617.639 298.08 617.219 297.92 616.891 297.6C616.563 297.272 616.399 296.832 616.399 296.28ZM623.407 294.624L618.547 303H617.467L622.327 294.624H623.407ZM618.151 295.164C617.879 295.164 617.663 295.26 617.503 295.452C617.351 295.636 617.275 295.912 617.275 296.28C617.275 296.648 617.351 296.928 617.503 297.12C617.663 297.312 617.879 297.408 618.151 297.408C618.423 297.408 618.639 297.312 618.799 297.12C618.959 296.92 619.039 296.64 619.039 296.28C619.039 295.912 618.959 295.636 618.799 295.452C618.639 295.26 618.423 295.164 618.151 295.164ZM620.995 301.344C620.995 300.792 621.159 300.356 621.487 300.036C621.815 299.708 622.235 299.544 622.747 299.544C623.259 299.544 623.675 299.708 623.995 300.036C624.323 300.356 624.487 300.792 624.487 301.344C624.487 301.888 624.323 302.324 623.995 302.652C623.675 302.98 623.259 303.144 622.747 303.144C622.235 303.144 621.815 302.984 621.487 302.664C621.159 302.336 620.995 301.896 620.995 301.344ZM622.735 300.228C622.463 300.228 622.247 300.324 622.087 300.516C621.927 300.7 621.847 300.976 621.847 301.344C621.847 301.704 621.927 301.98 622.087 302.172C622.247 302.356 622.463 302.448 622.735 302.448C623.007 302.448 623.223 302.356 623.383 302.172C623.543 301.98 623.623 301.704 623.623 301.344C623.623 300.976 623.543 300.7 623.383 300.516C623.223 300.324 623.007 300.228 622.735 300.228Z" fill="black"/>
<g filter="url(#filter0_d_1936_1338)">
<path d="M143 112H585C588.866 112 592 115.134 592 119C592 122.866 588.866 126 585 126H143V112Z" fill="white"/>
</g>
<g filter="url(#filter1_d_1936_1338)">
<path d="M143 173H585C588.866 173 592 176.134 592 180C592 183.866 588.866 187 585 187H143V173Z" fill="white"/>
</g>
<g filter="url(#filter2_d_1936_1338)">
<path d="M143 231H585C588.866 231 592 234.134 592 238C592 241.866 588.866 245 585 245H143V231Z" fill="white"/>
</g>
<g filter="url(#filter3_d_1936_1338)">
<path d="M143 292H585C588.866 292 592 295.134 592 299C592 302.866 588.866 306 585 306H143V292Z" fill="white"/>
</g>
<path d="M143 112H311C314.866 112 318 115.134 318 119C318 122.866 314.866 126 311 126H143V112Z" fill="#3378E0"/>
<path d="M143 173H403C406.866 173 410 176.134 410 180C410 183.866 406.866 187 403 187H143V173Z" fill="#3378E0"/>
<path d="M143 231H422C425.866 231 429 234.134 429 238C429 241.866 425.866 245 422 245H143V231Z" fill="#3378E0"/>
<path d="M143 292H542C545.866 292 549 295.134 549 299C549 302.866 545.866 306 542 306H143V292Z" fill="#3378E0"/>
<line x1="142.5" y1="100" x2="142.5" y2="341" stroke="black"/>
<line x1="592" y1="328.5" x2="142" y2="328.5" stroke="black"/>
<line x1="592.5" y1="328" x2="592.5" y2="341" stroke="black"/>
<line x1="367.5" y1="328" x2="367.5" y2="341" stroke="black"/>
<path d="M131.543 355.016C131.543 353.171 131.874 351.725 132.535 350.68C133.207 349.635 134.317 349.112 135.863 349.112C137.41 349.112 138.514 349.635 139.175 350.68C139.847 351.725 140.183 353.171 140.183 355.016C140.183 356.872 139.847 358.328 139.175 359.384C138.514 360.44 137.41 360.968 135.863 360.968C134.317 360.968 133.207 360.44 132.535 359.384C131.874 358.328 131.543 356.872 131.543 355.016ZM137.975 355.016C137.975 354.227 137.922 353.565 137.815 353.032C137.719 352.488 137.517 352.045 137.207 351.704C136.909 351.363 136.461 351.192 135.863 351.192C135.266 351.192 134.813 351.363 134.503 351.704C134.205 352.045 134.002 352.488 133.895 353.032C133.799 353.565 133.751 354.227 133.751 355.016C133.751 355.827 133.799 356.509 133.895 357.064C133.991 357.608 134.194 358.051 134.503 358.392C134.813 358.723 135.266 358.888 135.863 358.888C136.461 358.888 136.914 358.723 137.223 358.392C137.533 358.051 137.735 357.608 137.831 357.064C137.927 356.509 137.975 355.827 137.975 355.016ZM141.631 352.2C141.631 351.389 141.866 350.755 142.335 350.296C142.815 349.837 143.428 349.608 144.175 349.608C144.922 349.608 145.53 349.837 145.999 350.296C146.479 350.755 146.719 351.389 146.719 352.2C146.719 353.021 146.479 353.661 145.999 354.12C145.53 354.579 144.922 354.808 144.175 354.808C143.428 354.808 142.815 354.579 142.335 354.12C141.866 353.661 141.631 353.021 141.631 352.2ZM151.903 349.8L145.615 361H143.439L149.711 349.8H151.903ZM144.159 350.952C143.572 350.952 143.279 351.368 143.279 352.2C143.279 353.043 143.572 353.464 144.159 353.464C144.447 353.464 144.671 353.363 144.831 353.16C144.991 352.947 145.071 352.627 145.071 352.2C145.071 351.368 144.767 350.952 144.159 350.952ZM148.655 358.584C148.655 357.763 148.89 357.128 149.359 356.68C149.839 356.221 150.452 355.992 151.199 355.992C151.946 355.992 152.548 356.221 153.007 356.68C153.476 357.128 153.711 357.763 153.711 358.584C153.711 359.405 153.476 360.045 153.007 360.504C152.548 360.963 151.946 361.192 151.199 361.192C150.442 361.192 149.828 360.963 149.359 360.504C148.89 360.045 148.655 359.405 148.655 358.584ZM151.183 357.336C150.575 357.336 150.271 357.752 150.271 358.584C150.271 359.427 150.575 359.848 151.183 359.848C151.78 359.848 152.079 359.427 152.079 358.584C152.079 357.752 151.78 357.336 151.183 357.336Z" fill="black"/>
<path d="M355.755 358.472C356.779 357.619 357.595 356.909 358.203 356.344C358.811 355.768 359.318 355.171 359.723 354.552C360.128 353.933 360.331 353.325 360.331 352.728C360.331 352.184 360.203 351.757 359.947 351.448C359.691 351.139 359.296 350.984 358.763 350.984C358.23 350.984 357.819 351.165 357.531 351.528C357.243 351.88 357.094 352.365 357.083 352.984H354.907C354.95 351.704 355.328 350.733 356.043 350.072C356.768 349.411 357.686 349.08 358.795 349.08C360.011 349.08 360.944 349.405 361.595 350.056C362.246 350.696 362.571 351.544 362.571 352.6C362.571 353.432 362.347 354.227 361.899 354.984C361.451 355.741 360.939 356.403 360.363 356.968C359.787 357.523 359.035 358.195 358.107 358.984H362.827V360.84H354.923V359.176L355.755 358.472ZM364.239 355.016C364.239 353.171 364.569 351.725 365.231 350.68C365.903 349.635 367.012 349.112 368.559 349.112C370.105 349.112 371.209 349.635 371.871 350.68C372.543 351.725 372.879 353.171 372.879 355.016C372.879 356.872 372.543 358.328 371.871 359.384C371.209 360.44 370.105 360.968 368.559 360.968C367.012 360.968 365.903 360.44 365.231 359.384C364.569 358.328 364.239 356.872 364.239 355.016ZM370.671 355.016C370.671 354.227 370.617 353.565 370.511 353.032C370.415 352.488 370.212 352.045 369.903 351.704C369.604 351.363 369.156 351.192 368.559 351.192C367.961 351.192 367.508 351.363 367.199 351.704C366.9 352.045 366.697 352.488 366.591 353.032C366.495 353.565 366.447 354.227 366.447 355.016C366.447 355.827 366.495 356.509 366.591 357.064C366.687 357.608 366.889 358.051 367.199 358.392C367.508 358.723 367.961 358.888 368.559 358.888C369.156 358.888 369.609 358.723 369.919 358.392C370.228 358.051 370.431 357.608 370.527 357.064C370.623 356.509 370.671 355.827 370.671 355.016ZM374.326 352.2C374.326 351.389 374.561 350.755 375.03 350.296C375.51 349.837 376.124 349.608 376.87 349.608C377.617 349.608 378.225 349.837 378.694 350.296C379.174 350.755 379.414 351.389 379.414 352.2C379.414 353.021 379.174 353.661 378.694 354.12C378.225 354.579 377.617 354.808 376.87 354.808C376.124 354.808 375.51 354.579 375.03 354.12C374.561 353.661 374.326 353.021 374.326 352.2ZM384.598 349.8L378.31 361H376.134L382.406 349.8H384.598ZM376.854 350.952C376.268 350.952 375.974 351.368 375.974 352.2C375.974 353.043 376.268 353.464 376.854 353.464C377.142 353.464 377.366 353.363 377.526 353.16C377.686 352.947 377.766 352.627 377.766 352.2C377.766 351.368 377.462 350.952 376.854 350.952ZM381.35 358.584C381.35 357.763 381.585 357.128 382.054 356.68C382.534 356.221 383.148 355.992 383.894 355.992C384.641 355.992 385.244 356.221 385.702 356.68C386.172 357.128 386.406 357.763 386.406 358.584C386.406 359.405 386.172 360.045 385.702 360.504C385.244 360.963 384.641 361.192 383.894 361.192C383.137 361.192 382.524 360.963 382.054 360.504C381.585 360.045 381.35 359.405 381.35 358.584ZM383.878 357.336C383.27 357.336 382.966 357.752 382.966 358.584C382.966 359.427 383.27 359.848 383.878 359.848C384.476 359.848 384.774 359.427 384.774 358.584C384.774 357.752 384.476 357.336 383.878 357.336Z" fill="black"/>
<path d="M576.565 358.728V356.968L581.797 349.48H584.405V356.776H585.812V358.728H584.405V361H582.165V358.728H576.565ZM582.309 351.88L579.029 356.776H582.309V351.88ZM587.239 355.016C587.239 353.171 587.569 351.725 588.231 350.68C588.903 349.635 590.012 349.112 591.559 349.112C593.105 349.112 594.209 349.635 594.871 350.68C595.543 351.725 595.879 353.171 595.879 355.016C595.879 356.872 595.543 358.328 594.871 359.384C594.209 360.44 593.105 360.968 591.559 360.968C590.012 360.968 588.903 360.44 588.231 359.384C587.569 358.328 587.239 356.872 587.239 355.016ZM593.671 355.016C593.671 354.227 593.617 353.565 593.511 353.032C593.415 352.488 593.212 352.045 592.903 351.704C592.604 351.363 592.156 351.192 591.559 351.192C590.961 351.192 590.508 351.363 590.199 351.704C589.9 352.045 589.697 352.488 589.591 353.032C589.495 353.565 589.447 354.227 589.447 355.016C589.447 355.827 589.495 356.509 589.591 357.064C589.687 357.608 589.889 358.051 590.199 358.392C590.508 358.723 590.961 358.888 591.559 358.888C592.156 358.888 592.609 358.723 592.919 358.392C593.228 358.051 593.431 357.608 593.527 357.064C593.623 356.509 593.671 355.827 593.671 355.016ZM597.326 352.2C597.326 351.389 597.561 350.755 598.03 350.296C598.51 349.837 599.124 349.608 599.87 349.608C600.617 349.608 601.225 349.837 601.694 350.296C602.174 350.755 602.414 351.389 602.414 352.2C602.414 353.021 602.174 353.661 601.694 354.12C601.225 354.579 600.617 354.808 599.87 354.808C599.124 354.808 598.51 354.579 598.03 354.12C597.561 353.661 597.326 353.021 597.326 352.2ZM607.598 349.8L601.31 361H599.134L605.406 349.8H607.598ZM599.854 350.952C599.268 350.952 598.974 351.368 598.974 352.2C598.974 353.043 599.268 353.464 599.854 353.464C600.142 353.464 600.366 353.363 600.526 353.16C600.686 352.947 600.766 352.627 600.766 352.2C600.766 351.368 600.462 350.952 599.854 350.952ZM604.35 358.584C604.35 357.763 604.585 357.128 605.054 356.68C605.534 356.221 606.148 355.992 606.894 355.992C607.641 355.992 608.244 356.221 608.702 356.68C609.172 357.128 609.406 357.763 609.406 358.584C609.406 359.405 609.172 360.045 608.702 360.504C608.244 360.963 607.641 361.192 606.894 361.192C606.137 361.192 605.524 360.963 605.054 360.504C604.585 360.045 604.35 359.405 604.35 358.584ZM606.878 357.336C606.27 357.336 605.966 357.752 605.966 358.584C605.966 359.427 606.27 359.848 606.878 359.848C607.476 359.848 607.774 359.427 607.774 358.584C607.774 357.752 607.476 357.336 606.878 357.336Z" fill="black"/>
<path d="M75.5106 71.2273C75.7807 71.2273 76 71.0082 76 70.7379V55.6722H70.3725C69.5566 55.6722 68.8928 55.0081 68.8928 54.1916V49H60.4894C60.2191 49 60 49.2191 60 49.4894V70.7379C60 71.0082 60.2191 71.2273 60.4894 71.2273H75.5106ZM65.043 59.2913H73.6891V60.3789H65.043V59.2913ZM65.043 62.0103H73.6891V63.0978H65.043V62.0103ZM65.043 64.7291H73.6891V65.8167H65.043V64.7291ZM63.1941 59.0738C63.6144 59.0738 63.9554 59.4147 63.9554 59.8351C63.9554 60.2556 63.6144 60.5964 63.1941 60.5964C62.7737 60.5964 62.4328 60.2556 62.4328 59.8351C62.4328 59.4147 62.7737 59.0738 63.1941 59.0738ZM63.1941 61.7928C63.6144 61.7928 63.9554 62.1336 63.9554 62.5541C63.9554 62.9745 63.6144 63.3154 63.1941 63.3154C62.7737 63.3154 62.4328 62.9745 62.4328 62.5541C62.4328 62.1336 62.7737 61.7928 63.1941 61.7928ZM63.1941 64.5116C63.6144 64.5116 63.9554 64.8524 63.9554 65.2729C63.9554 65.6933 63.6144 66.0342 63.1941 66.0342C62.7737 66.0342 62.4328 65.6933 62.4328 65.2729C62.4328 64.8525 62.7737 64.5116 63.1941 64.5116ZM69.9803 54.1916V50.1306L74.7441 54.5846H70.3725C70.1562 54.5847 69.9803 54.4084 69.9803 54.1916Z" fill="#673AB7" stroke="#673AB7" stroke-width="0.5"/>
<path d="M95.728 54.768V66H92.992V54.768H95.728ZM102.191 59.344H100.719V66H97.9828V59.344H96.9908V57.072H97.9828V56.816C97.9828 55.7173 98.2974 54.8853 98.9268 54.32C99.5561 53.744 100.479 53.456 101.695 53.456C101.897 53.456 102.047 53.4613 102.143 53.472V55.792C101.62 55.76 101.252 55.8347 101.039 56.016C100.825 56.1973 100.719 56.5227 100.719 56.992V57.072H102.191V59.344ZM115.987 57.072L110.387 70.24H107.443L109.491 65.696L105.859 57.072H108.915L110.979 62.656L113.027 57.072H115.987ZM121.04 66.128C120.166 66.128 119.376 65.9413 118.672 65.568C117.979 65.1947 117.43 64.6613 117.024 63.968C116.63 63.2747 116.432 62.464 116.432 61.536C116.432 60.6187 116.635 59.8133 117.04 59.12C117.446 58.416 118 57.8773 118.704 57.504C119.408 57.1307 120.198 56.944 121.072 56.944C121.947 56.944 122.736 57.1307 123.44 57.504C124.144 57.8773 124.699 58.416 125.104 59.12C125.51 59.8133 125.712 60.6187 125.712 61.536C125.712 62.4533 125.504 63.264 125.088 63.968C124.683 64.6613 124.123 65.1947 123.408 65.568C122.704 65.9413 121.915 66.128 121.04 66.128ZM121.04 63.76C121.563 63.76 122.006 63.568 122.368 63.184C122.742 62.8 122.928 62.2507 122.928 61.536C122.928 60.8213 122.747 60.272 122.384 59.888C122.032 59.504 121.595 59.312 121.072 59.312C120.539 59.312 120.096 59.504 119.744 59.888C119.392 60.2613 119.216 60.8107 119.216 61.536C119.216 62.2507 119.387 62.8 119.728 63.184C120.08 63.568 120.518 63.76 121.04 63.76ZM135.98 57.072V66H133.244V64.784C132.967 65.1787 132.588 65.4987 132.108 65.744C131.639 65.9787 131.116 66.096 130.54 66.096C129.857 66.096 129.255 65.9467 128.732 65.648C128.209 65.3387 127.804 64.896 127.516 64.32C127.228 63.744 127.084 63.0667 127.084 62.288V57.072H129.804V61.92C129.804 62.5173 129.959 62.9813 130.268 63.312C130.577 63.6427 130.993 63.808 131.516 63.808C132.049 63.808 132.471 63.6427 132.78 63.312C133.089 62.9813 133.244 62.5173 133.244 61.92V57.072H135.98ZM146.824 56.976C147.848 56.976 148.669 57.3173 149.288 58C149.906 58.672 150.216 59.6 150.216 60.784V66H147.496V61.152C147.496 60.5547 147.341 60.0907 147.032 59.76C146.722 59.4293 146.306 59.264 145.784 59.264C145.261 59.264 144.845 59.4293 144.536 59.76C144.226 60.0907 144.072 60.5547 144.072 61.152V66H141.336V54.16H144.072V58.272C144.349 57.8773 144.728 57.5627 145.208 57.328C145.688 57.0933 146.226 56.976 146.824 56.976ZM151.573 61.52C151.573 60.6027 151.744 59.7973 152.085 59.104C152.437 58.4107 152.912 57.8773 153.509 57.504C154.106 57.1307 154.773 56.944 155.509 56.944C156.138 56.944 156.688 57.072 157.157 57.328C157.637 57.584 158.005 57.92 158.261 58.336V57.072H160.997V66H158.261V64.736C157.994 65.152 157.621 65.488 157.141 65.744C156.672 66 156.122 66.128 155.493 66.128C154.768 66.128 154.106 65.9413 153.509 65.568C152.912 65.184 152.437 64.6453 152.085 63.952C151.744 63.248 151.573 62.4373 151.573 61.52ZM158.261 61.536C158.261 60.8533 158.069 60.3147 157.685 59.92C157.312 59.5253 156.853 59.328 156.309 59.328C155.765 59.328 155.301 59.5253 154.917 59.92C154.544 60.304 154.357 60.8373 154.357 61.52C154.357 62.2027 154.544 62.7467 154.917 63.152C155.301 63.5467 155.765 63.744 156.309 63.744C156.853 63.744 157.312 63.5467 157.685 63.152C158.069 62.7573 158.261 62.2187 158.261 61.536ZM166.992 63.44L168.928 57.072H171.84L168.672 66H165.296L162.128 57.072H165.056L166.992 63.44ZM181.408 61.392C181.408 61.648 181.392 61.9147 181.36 62.192H175.168C175.211 62.7467 175.387 63.1733 175.696 63.472C176.016 63.76 176.405 63.904 176.864 63.904C177.547 63.904 178.021 63.616 178.288 63.04H181.2C181.051 63.6267 180.779 64.1547 180.384 64.624C180 65.0933 179.515 65.4613 178.928 65.728C178.341 65.9947 177.685 66.128 176.96 66.128C176.085 66.128 175.307 65.9413 174.624 65.568C173.941 65.1947 173.408 64.6613 173.024 63.968C172.64 63.2747 172.448 62.464 172.448 61.536C172.448 60.608 172.635 59.7973 173.008 59.104C173.392 58.4107 173.925 57.8773 174.608 57.504C175.291 57.1307 176.075 56.944 176.96 56.944C177.824 56.944 178.592 57.1253 179.264 57.488C179.936 57.8507 180.459 58.368 180.832 59.04C181.216 59.712 181.408 60.496 181.408 61.392ZM178.608 60.672C178.608 60.2027 178.448 59.8293 178.128 59.552C177.808 59.2747 177.408 59.136 176.928 59.136C176.469 59.136 176.08 59.2693 175.76 59.536C175.451 59.8027 175.259 60.1813 175.184 60.672H178.608ZM185.698 61.52C185.698 60.6027 185.869 59.7973 186.21 59.104C186.562 58.4107 187.037 57.8773 187.634 57.504C188.231 57.1307 188.898 56.944 189.634 56.944C190.263 56.944 190.813 57.072 191.282 57.328C191.762 57.584 192.13 57.92 192.386 58.336V57.072H195.122V66H192.386V64.736C192.119 65.152 191.746 65.488 191.266 65.744C190.797 66 190.247 66.128 189.618 66.128C188.893 66.128 188.231 65.9413 187.634 65.568C187.037 65.184 186.562 64.6453 186.21 63.952C185.869 63.248 185.698 62.4373 185.698 61.52ZM192.386 61.536C192.386 60.8533 192.194 60.3147 191.81 59.92C191.437 59.5253 190.978 59.328 190.434 59.328C189.89 59.328 189.426 59.5253 189.042 59.92C188.669 60.304 188.482 60.8373 188.482 61.52C188.482 62.2027 188.669 62.7467 189.042 63.152C189.426 63.5467 189.89 63.744 190.434 63.744C190.978 63.744 191.437 63.5467 191.81 63.152C192.194 62.7573 192.386 62.2187 192.386 61.536ZM199.948 61.52C199.948 60.6027 200.119 59.7973 200.46 59.104C200.812 58.4107 201.287 57.8773 201.884 57.504C202.481 57.1307 203.148 56.944 203.884 56.944C204.471 56.944 205.004 57.0667 205.484 57.312C205.975 57.5573 206.359 57.888 206.636 58.304V54.16H209.372V66H206.636V64.72C206.38 65.1467 206.012 65.488 205.532 65.744C205.063 66 204.513 66.128 203.884 66.128C203.148 66.128 202.481 65.9413 201.884 65.568C201.287 65.184 200.812 64.6453 200.46 63.952C200.119 63.248 199.948 62.4373 199.948 61.52ZM206.636 61.536C206.636 60.8533 206.444 60.3147 206.06 59.92C205.687 59.5253 205.228 59.328 204.684 59.328C204.14 59.328 203.676 59.5253 203.292 59.92C202.919 60.304 202.732 60.8373 202.732 61.52C202.732 62.2027 202.919 62.7467 203.292 63.152C203.676 63.5467 204.14 63.744 204.684 63.744C205.228 63.744 205.687 63.5467 206.06 63.152C206.444 62.7573 206.636 62.2187 206.636 61.536ZM212.727 56.144C212.247 56.144 211.853 56.0053 211.543 55.728C211.245 55.44 211.095 55.088 211.095 54.672C211.095 54.2453 211.245 53.8933 211.543 53.616C211.853 53.328 212.247 53.184 212.727 53.184C213.197 53.184 213.581 53.328 213.879 53.616C214.189 53.8933 214.343 54.2453 214.343 54.672C214.343 55.088 214.189 55.44 213.879 55.728C213.581 56.0053 213.197 56.144 212.727 56.144ZM214.087 57.072V66H211.351V57.072H214.087ZM219.702 66.128C218.923 66.128 218.23 65.9947 217.622 65.728C217.014 65.4613 216.534 65.0987 216.182 64.64C215.83 64.1707 215.633 63.648 215.59 63.072H218.294C218.326 63.3813 218.47 63.632 218.726 63.824C218.982 64.016 219.297 64.112 219.67 64.112C220.011 64.112 220.273 64.048 220.454 63.92C220.646 63.7813 220.742 63.6053 220.742 63.392C220.742 63.136 220.609 62.9493 220.342 62.832C220.075 62.704 219.643 62.5653 219.046 62.416C218.406 62.2667 217.873 62.112 217.446 61.952C217.019 61.7813 216.651 61.52 216.342 61.168C216.033 60.8053 215.878 60.32 215.878 59.712C215.878 59.2 216.017 58.736 216.294 58.32C216.582 57.8933 216.998 57.5573 217.542 57.312C218.097 57.0667 218.753 56.944 219.51 56.944C220.63 56.944 221.51 57.2213 222.15 57.776C222.801 58.3307 223.174 59.0667 223.27 59.984H220.742C220.699 59.6747 220.561 59.4293 220.326 59.248C220.102 59.0667 219.803 58.976 219.43 58.976C219.11 58.976 218.865 59.04 218.694 59.168C218.523 59.2853 218.438 59.4507 218.438 59.664C218.438 59.92 218.571 60.112 218.838 60.24C219.115 60.368 219.542 60.496 220.118 60.624C220.779 60.7947 221.318 60.9653 221.734 61.136C222.15 61.296 222.513 61.5627 222.822 61.936C223.142 62.2987 223.307 62.7893 223.318 63.408C223.318 63.9307 223.169 64.4 222.87 64.816C222.582 65.2213 222.161 65.5413 221.606 65.776C221.062 66.0107 220.427 66.128 219.702 66.128ZM224.448 61.52C224.448 60.6027 224.619 59.7973 224.96 59.104C225.312 58.4107 225.787 57.8773 226.384 57.504C226.981 57.1307 227.648 56.944 228.384 56.944C229.013 56.944 229.563 57.072 230.032 57.328C230.512 57.584 230.88 57.92 231.136 58.336V57.072H233.872V66H231.136V64.736C230.869 65.152 230.496 65.488 230.016 65.744C229.547 66 228.997 66.128 228.368 66.128C227.643 66.128 226.981 65.9413 226.384 65.568C225.787 65.184 225.312 64.6453 224.96 63.952C224.619 63.248 224.448 62.4373 224.448 61.52ZM231.136 61.536C231.136 60.8533 230.944 60.3147 230.56 59.92C230.187 59.5253 229.728 59.328 229.184 59.328C228.64 59.328 228.176 59.5253 227.792 59.92C227.419 60.304 227.232 60.8373 227.232 61.52C227.232 62.2027 227.419 62.7467 227.792 63.152C228.176 63.5467 228.64 63.744 229.184 63.744C229.728 63.744 230.187 63.5467 230.56 63.152C230.944 62.7573 231.136 62.2187 231.136 61.536ZM238.587 58.336C238.843 57.92 239.211 57.584 239.691 57.328C240.171 57.072 240.721 56.944 241.339 56.944C242.075 56.944 242.742 57.1307 243.339 57.504C243.937 57.8773 244.406 58.4107 244.747 59.104C245.099 59.7973 245.275 60.6027 245.275 61.52C245.275 62.4373 245.099 63.248 244.747 63.952C244.406 64.6453 243.937 65.184 243.339 65.568C242.742 65.9413 242.075 66.128 241.339 66.128C240.71 66.128 240.161 66.0053 239.691 65.76C239.222 65.504 238.854 65.168 238.587 64.752V66H235.851V54.16H238.587V58.336ZM242.491 61.52C242.491 60.8373 242.299 60.304 241.915 59.92C241.542 59.5253 241.078 59.328 240.523 59.328C239.979 59.328 239.515 59.5253 239.131 59.92C238.758 60.3147 238.571 60.8533 238.571 61.536C238.571 62.2187 238.758 62.7573 239.131 63.152C239.515 63.5467 239.979 63.744 240.523 63.744C241.067 63.744 241.531 63.5467 241.915 63.152C242.299 62.7467 242.491 62.2027 242.491 61.52ZM248.087 56.144C247.607 56.144 247.212 56.0053 246.903 55.728C246.604 55.44 246.455 55.088 246.455 54.672C246.455 54.2453 246.604 53.8933 246.903 53.616C247.212 53.328 247.607 53.184 248.087 53.184C248.556 53.184 248.94 53.328 249.239 53.616C249.548 53.8933 249.703 54.2453 249.703 54.672C249.703 55.088 249.548 55.44 249.239 55.728C248.94 56.0053 248.556 56.144 248.087 56.144ZM249.447 57.072V66H246.711V57.072H249.447ZM254.166 54.16V66H251.43V54.16H254.166ZM257.524 56.144C257.044 56.144 256.65 56.0053 256.34 55.728C256.042 55.44 255.892 55.088 255.892 54.672C255.892 54.2453 256.042 53.8933 256.34 53.616C256.65 53.328 257.044 53.184 257.524 53.184C257.994 53.184 258.378 53.328 258.676 53.616C258.986 53.8933 259.14 54.2453 259.14 54.672C259.14 55.088 258.986 55.44 258.676 55.728C258.378 56.0053 257.994 56.144 257.524 56.144ZM258.884 57.072V66H256.148V57.072H258.884ZM265.843 63.68V66H264.451C263.459 66 262.686 65.76 262.131 65.28C261.576 64.7893 261.299 63.9947 261.299 62.896V59.344H260.211V57.072H261.299V54.896H264.035V57.072H265.827V59.344H264.035V62.928C264.035 63.1947 264.099 63.3867 264.227 63.504C264.355 63.6213 264.568 63.68 264.867 63.68H265.843ZM276.487 57.072L270.887 70.24H267.943L269.991 65.696L266.359 57.072H269.415L271.479 62.656L273.527 57.072H276.487ZM284.931 66.128C284.056 66.128 283.267 65.9413 282.563 65.568C281.87 65.1947 281.32 64.6613 280.915 63.968C280.52 63.2747 280.323 62.464 280.323 61.536C280.323 60.6187 280.526 59.8133 280.931 59.12C281.336 58.416 281.891 57.8773 282.595 57.504C283.299 57.1307 284.088 56.944 284.963 56.944C285.838 56.944 286.627 57.1307 287.331 57.504C288.035 57.8773 288.59 58.416 288.995 59.12C289.4 59.8133 289.603 60.6187 289.603 61.536C289.603 62.4533 289.395 63.264 288.979 63.968C288.574 64.6613 288.014 65.1947 287.299 65.568C286.595 65.9413 285.806 66.128 284.931 66.128ZM284.931 63.76C285.454 63.76 285.896 63.568 286.259 63.184C286.632 62.8 286.819 62.2507 286.819 61.536C286.819 60.8213 286.638 60.272 286.275 59.888C285.923 59.504 285.486 59.312 284.963 59.312C284.43 59.312 283.987 59.504 283.635 59.888C283.283 60.2613 283.107 60.8107 283.107 61.536C283.107 62.2507 283.278 62.8 283.619 63.184C283.971 63.568 284.408 63.76 284.931 63.76ZM293.791 58.56C294.111 58.0693 294.511 57.6853 294.991 57.408C295.471 57.12 296.004 56.976 296.591 56.976V59.872H295.839C295.156 59.872 294.644 60.0213 294.303 60.32C293.961 60.608 293.791 61.12 293.791 61.856V66H291.055V57.072H293.791V58.56ZM300.745 61.52C300.745 60.6027 300.916 59.7973 301.257 59.104C301.609 58.4107 302.084 57.8773 302.681 57.504C303.278 57.1307 303.945 56.944 304.681 56.944C305.31 56.944 305.86 57.072 306.329 57.328C306.809 57.584 307.177 57.92 307.433 58.336V57.072H310.169V66H307.433V64.736C307.166 65.152 306.793 65.488 306.313 65.744C305.844 66 305.294 66.128 304.665 66.128C303.94 66.128 303.278 65.9413 302.681 65.568C302.084 65.184 301.609 64.6453 301.257 63.952C300.916 63.248 300.745 62.4373 300.745 61.52ZM307.433 61.536C307.433 60.8533 307.241 60.3147 306.857 59.92C306.484 59.5253 306.025 59.328 305.481 59.328C304.937 59.328 304.473 59.5253 304.089 59.92C303.716 60.304 303.529 60.8373 303.529 61.52C303.529 62.2027 303.716 62.7467 304.089 63.152C304.473 63.5467 304.937 63.744 305.481 63.744C306.025 63.744 306.484 63.5467 306.857 63.152C307.241 62.7573 307.433 62.2187 307.433 61.536ZM314.884 58.56C315.204 58.0693 315.604 57.6853 316.084 57.408C316.564 57.12 317.098 56.976 317.684 56.976V59.872H316.932C316.25 59.872 315.738 60.0213 315.396 60.32C315.055 60.608 314.884 61.12 314.884 61.856V66H312.148V57.072H314.884V58.56ZM327.408 61.392C327.408 61.648 327.392 61.9147 327.36 62.192H321.168C321.211 62.7467 321.387 63.1733 321.696 63.472C322.016 63.76 322.405 63.904 322.864 63.904C323.547 63.904 324.021 63.616 324.288 63.04H327.2C327.051 63.6267 326.779 64.1547 326.384 64.624C326 65.0933 325.515 65.4613 324.928 65.728C324.341 65.9947 323.685 66.128 322.96 66.128C322.085 66.128 321.307 65.9413 320.624 65.568C319.941 65.1947 319.408 64.6613 319.024 63.968C318.64 63.2747 318.448 62.464 318.448 61.536C318.448 60.608 318.635 59.7973 319.008 59.104C319.392 58.4107 319.925 57.8773 320.608 57.504C321.291 57.1307 322.075 56.944 322.96 56.944C323.824 56.944 324.592 57.1253 325.264 57.488C325.936 57.8507 326.459 58.368 326.832 59.04C327.216 59.712 327.408 60.496 327.408 61.392ZM324.608 60.672C324.608 60.2027 324.448 59.8293 324.128 59.552C323.808 59.2747 323.408 59.136 322.928 59.136C322.469 59.136 322.08 59.2693 321.76 59.536C321.451 59.8027 321.259 60.1813 321.184 60.672H324.608ZM340.658 61.392C340.658 61.648 340.642 61.9147 340.61 62.192H334.418C334.461 62.7467 334.637 63.1733 334.946 63.472C335.266 63.76 335.655 63.904 336.114 63.904C336.797 63.904 337.271 63.616 337.538 63.04H340.45C340.301 63.6267 340.029 64.1547 339.634 64.624C339.25 65.0933 338.765 65.4613 338.178 65.728C337.591 65.9947 336.935 66.128 336.21 66.128C335.335 66.128 334.557 65.9413 333.874 65.568C333.191 65.1947 332.658 64.6613 332.274 63.968C331.89 63.2747 331.698 62.464 331.698 61.536C331.698 60.608 331.885 59.7973 332.258 59.104C332.642 58.4107 333.175 57.8773 333.858 57.504C334.541 57.1307 335.325 56.944 336.21 56.944C337.074 56.944 337.842 57.1253 338.514 57.488C339.186 57.8507 339.709 58.368 340.082 59.04C340.466 59.712 340.658 60.496 340.658 61.392ZM337.858 60.672C337.858 60.2027 337.698 59.8293 337.378 59.552C337.058 59.2747 336.658 59.136 336.178 59.136C335.719 59.136 335.33 59.2693 335.01 59.536C334.701 59.8027 334.509 60.1813 334.434 60.672H337.858ZM344.837 54.16V66H342.101V54.16H344.837ZM346.276 61.52C346.276 60.6027 346.447 59.7973 346.788 59.104C347.14 58.4107 347.615 57.8773 348.212 57.504C348.809 57.1307 349.476 56.944 350.212 56.944C350.799 56.944 351.332 57.0667 351.812 57.312C352.303 57.5573 352.687 57.888 352.964 58.304V54.16H355.7V66H352.964V64.72C352.708 65.1467 352.34 65.488 351.86 65.744C351.391 66 350.841 66.128 350.212 66.128C349.476 66.128 348.809 65.9413 348.212 65.568C347.615 65.184 347.14 64.6453 346.788 63.952C346.447 63.248 346.276 62.4373 346.276 61.52ZM352.964 61.536C352.964 60.8533 352.772 60.3147 352.388 59.92C352.015 59.5253 351.556 59.328 351.012 59.328C350.468 59.328 350.004 59.5253 349.62 59.92C349.247 60.304 349.06 60.8373 349.06 61.52C349.06 62.2027 349.247 62.7467 349.62 63.152C350.004 63.5467 350.468 63.744 351.012 63.744C351.556 63.744 352.015 63.5467 352.388 63.152C352.772 62.7573 352.964 62.2187 352.964 61.536ZM366.095 61.392C366.095 61.648 366.08 61.9147 366.048 62.192H359.856C359.898 62.7467 360.074 63.1733 360.384 63.472C360.704 63.76 361.093 63.904 361.552 63.904C362.234 63.904 362.709 63.616 362.976 63.04H365.888C365.738 63.6267 365.466 64.1547 365.072 64.624C364.688 65.0933 364.202 65.4613 363.616 65.728C363.029 65.9947 362.373 66.128 361.648 66.128C360.773 66.128 359.994 65.9413 359.312 65.568C358.629 65.1947 358.096 64.6613 357.712 63.968C357.328 63.2747 357.136 62.464 357.136 61.536C357.136 60.608 357.322 59.7973 357.696 59.104C358.08 58.4107 358.613 57.8773 359.296 57.504C359.978 57.1307 360.762 56.944 361.648 56.944C362.512 56.944 363.28 57.1253 363.952 57.488C364.624 57.8507 365.146 58.368 365.52 59.04C365.904 59.712 366.095 60.496 366.095 61.392ZM363.296 60.672C363.296 60.2027 363.136 59.8293 362.816 59.552C362.496 59.2747 362.096 59.136 361.616 59.136C361.157 59.136 360.768 59.2693 360.448 59.536C360.138 59.8027 359.946 60.1813 359.872 60.672H363.296ZM370.275 58.56C370.595 58.0693 370.995 57.6853 371.475 57.408C371.955 57.12 372.488 56.976 373.075 56.976V59.872H372.323C371.64 59.872 371.128 60.0213 370.787 60.32C370.446 60.608 370.275 61.12 370.275 61.856V66H367.539V57.072H370.275V58.56ZM377.119 54.16V66H374.383V54.16H377.119ZM388.221 57.072L382.621 70.24H379.677L381.725 65.696L378.093 57.072H381.149L383.213 62.656L385.261 57.072H388.221ZM392.155 63.472L390.379 68.064H388.635L389.563 63.472H392.155ZM402.683 56.976C403.707 56.976 404.528 57.3173 405.147 58C405.766 58.672 406.075 59.6 406.075 60.784V66H403.355V61.152C403.355 60.5547 403.2 60.0907 402.891 59.76C402.582 59.4293 402.166 59.264 401.643 59.264C401.12 59.264 400.704 59.4293 400.395 59.76C400.086 60.0907 399.931 60.5547 399.931 61.152V66H397.195V54.16H399.931V58.272C400.208 57.8773 400.587 57.5627 401.067 57.328C401.547 57.0933 402.086 56.976 402.683 56.976ZM412.04 66.128C411.166 66.128 410.376 65.9413 409.672 65.568C408.979 65.1947 408.43 64.6613 408.024 63.968C407.63 63.2747 407.432 62.464 407.432 61.536C407.432 60.6187 407.635 59.8133 408.04 59.12C408.446 58.416 409 57.8773 409.704 57.504C410.408 57.1307 411.198 56.944 412.072 56.944C412.947 56.944 413.736 57.1307 414.44 57.504C415.144 57.8773 415.699 58.416 416.104 59.12C416.51 59.8133 416.712 60.6187 416.712 61.536C416.712 62.4533 416.504 63.264 416.088 63.968C415.683 64.6613 415.123 65.1947 414.408 65.568C413.704 65.9413 412.915 66.128 412.04 66.128ZM412.04 63.76C412.563 63.76 413.006 63.568 413.368 63.184C413.742 62.8 413.928 62.2507 413.928 61.536C413.928 60.8213 413.747 60.272 413.384 59.888C413.032 59.504 412.595 59.312 412.072 59.312C411.539 59.312 411.096 59.504 410.744 59.888C410.392 60.2613 410.216 60.8107 410.216 61.536C410.216 62.2507 410.387 62.8 410.728 63.184C411.08 63.568 411.518 63.76 412.04 63.76ZM430.98 57.072L428.564 66H425.54L424.132 60.208L422.676 66H419.668L417.236 57.072H419.972L421.236 63.456L422.74 57.072H425.636L427.156 63.424L428.404 57.072H430.98ZM439.478 66.128C438.603 66.128 437.814 65.9413 437.11 65.568C436.417 65.1947 435.867 64.6613 435.462 63.968C435.067 63.2747 434.87 62.464 434.87 61.536C434.87 60.6187 435.073 59.8133 435.478 59.12C435.883 58.416 436.438 57.8773 437.142 57.504C437.846 57.1307 438.635 56.944 439.51 56.944C440.385 56.944 441.174 57.1307 441.878 57.504C442.582 57.8773 443.137 58.416 443.542 59.12C443.947 59.8133 444.15 60.6187 444.15 61.536C444.15 62.4533 443.942 63.264 443.526 63.968C443.121 64.6613 442.561 65.1947 441.846 65.568C441.142 65.9413 440.353 66.128 439.478 66.128ZM439.478 63.76C440.001 63.76 440.443 63.568 440.806 63.184C441.179 62.8 441.366 62.2507 441.366 61.536C441.366 60.8213 441.185 60.272 440.822 59.888C440.47 59.504 440.033 59.312 439.51 59.312C438.977 59.312 438.534 59.504 438.182 59.888C437.83 60.2613 437.654 60.8107 437.654 61.536C437.654 62.2507 437.825 62.8 438.166 63.184C438.518 63.568 438.955 63.76 439.478 63.76ZM450.081 59.344H448.609V66H445.873V59.344H444.881V57.072H445.873V56.816C445.873 55.7173 446.188 54.8853 446.817 54.32C447.447 53.744 448.369 53.456 449.585 53.456C449.788 53.456 449.937 53.4613 450.033 53.472V55.792C449.511 55.76 449.143 55.8347 448.929 56.016C448.716 56.1973 448.609 56.5227 448.609 56.992V57.072H450.081V59.344ZM456.343 63.68V66H454.951C453.959 66 453.186 65.76 452.631 65.28C452.076 64.7893 451.799 63.9947 451.799 62.896V59.344H450.711V57.072H451.799V54.896H454.535V57.072H456.327V59.344H454.535V62.928C454.535 63.1947 454.599 63.3867 454.727 63.504C454.855 63.6213 455.068 63.68 455.367 63.68H456.343ZM466.283 61.392C466.283 61.648 466.267 61.9147 466.235 62.192H460.043C460.086 62.7467 460.262 63.1733 460.571 63.472C460.891 63.76 461.28 63.904 461.739 63.904C462.422 63.904 462.896 63.616 463.163 63.04H466.075C465.926 63.6267 465.654 64.1547 465.259 64.624C464.875 65.0933 464.39 65.4613 463.803 65.728C463.216 65.9947 462.56 66.128 461.835 66.128C460.96 66.128 460.182 65.9413 459.499 65.568C458.816 65.1947 458.283 64.6613 457.899 63.968C457.515 63.2747 457.323 62.464 457.323 61.536C457.323 60.608 457.51 59.7973 457.883 59.104C458.267 58.4107 458.8 57.8773 459.483 57.504C460.166 57.1307 460.95 56.944 461.835 56.944C462.699 56.944 463.467 57.1253 464.139 57.488C464.811 57.8507 465.334 58.368 465.707 59.04C466.091 59.712 466.283 60.496 466.283 61.392ZM463.483 60.672C463.483 60.2027 463.323 59.8293 463.003 59.552C462.683 59.2747 462.283 59.136 461.803 59.136C461.344 59.136 460.955 59.2693 460.635 59.536C460.326 59.8027 460.134 60.1813 460.059 60.672H463.483ZM473.166 56.976C474.212 56.976 475.044 57.3173 475.662 58C476.292 58.672 476.606 59.6 476.606 60.784V66H473.886V61.152C473.886 60.5547 473.732 60.0907 473.422 59.76C473.113 59.4293 472.697 59.264 472.174 59.264C471.652 59.264 471.236 59.4293 470.926 59.76C470.617 60.0907 470.462 60.5547 470.462 61.152V66H467.726V57.072H470.462V58.256C470.74 57.8613 471.113 57.552 471.582 57.328C472.052 57.0933 472.58 56.976 473.166 56.976ZM481.354 61.52C481.354 60.6027 481.525 59.7973 481.866 59.104C482.218 58.4107 482.693 57.8773 483.29 57.504C483.888 57.1307 484.554 56.944 485.29 56.944C485.877 56.944 486.41 57.0667 486.89 57.312C487.381 57.5573 487.765 57.888 488.042 58.304V54.16H490.778V66H488.042V64.72C487.786 65.1467 487.418 65.488 486.938 65.744C486.469 66 485.92 66.128 485.29 66.128C484.554 66.128 483.888 65.9413 483.29 65.568C482.693 65.184 482.218 64.6453 481.866 63.952C481.525 63.248 481.354 62.4373 481.354 61.52ZM488.042 61.536C488.042 60.8533 487.85 60.3147 487.466 59.92C487.093 59.5253 486.634 59.328 486.09 59.328C485.546 59.328 485.082 59.5253 484.698 59.92C484.325 60.304 484.138 60.8373 484.138 61.52C484.138 62.2027 484.325 62.7467 484.698 63.152C485.082 63.5467 485.546 63.744 486.09 63.744C486.634 63.744 487.093 63.5467 487.466 63.152C487.85 62.7573 488.042 62.2187 488.042 61.536ZM496.822 66.128C495.947 66.128 495.158 65.9413 494.454 65.568C493.76 65.1947 493.211 64.6613 492.806 63.968C492.411 63.2747 492.214 62.464 492.214 61.536C492.214 60.6187 492.416 59.8133 492.822 59.12C493.227 58.416 493.782 57.8773 494.486 57.504C495.19 57.1307 495.979 56.944 496.854 56.944C497.728 56.944 498.518 57.1307 499.222 57.504C499.926 57.8773 500.48 58.416 500.886 59.12C501.291 59.8133 501.494 60.6187 501.494 61.536C501.494 62.4533 501.286 63.264 500.87 63.968C500.464 64.6613 499.904 65.1947 499.19 65.568C498.486 65.9413 497.696 66.128 496.822 66.128ZM496.822 63.76C497.344 63.76 497.787 63.568 498.15 63.184C498.523 62.8 498.71 62.2507 498.71 61.536C498.71 60.8213 498.528 60.272 498.166 59.888C497.814 59.504 497.376 59.312 496.854 59.312C496.32 59.312 495.878 59.504 495.526 59.888C495.174 60.2613 494.998 60.8107 494.998 61.536C494.998 62.2507 495.168 62.8 495.51 63.184C495.862 63.568 496.299 63.76 496.822 63.76ZM515.456 57.072L509.856 70.24H506.912L508.96 65.696L505.328 57.072H508.384L510.448 62.656L512.496 57.072H515.456ZM520.509 66.128C519.634 66.128 518.845 65.9413 518.141 65.568C517.448 65.1947 516.898 64.6613 516.493 63.968C516.098 63.2747 515.901 62.464 515.901 61.536C515.901 60.6187 516.104 59.8133 516.509 59.12C516.914 58.416 517.469 57.8773 518.173 57.504C518.877 57.1307 519.666 56.944 520.541 56.944C521.416 56.944 522.205 57.1307 522.909 57.504C523.613 57.8773 524.168 58.416 524.573 59.12C524.978 59.8133 525.181 60.6187 525.181 61.536C525.181 62.4533 524.973 63.264 524.557 63.968C524.152 64.6613 523.592 65.1947 522.877 65.568C522.173 65.9413 521.384 66.128 520.509 66.128ZM520.509 63.76C521.032 63.76 521.474 63.568 521.837 63.184C522.21 62.8 522.397 62.2507 522.397 61.536C522.397 60.8213 522.216 60.272 521.853 59.888C521.501 59.504 521.064 59.312 520.541 59.312C520.008 59.312 519.565 59.504 519.213 59.888C518.861 60.2613 518.685 60.8107 518.685 61.536C518.685 62.2507 518.856 62.8 519.197 63.184C519.549 63.568 519.986 63.76 520.509 63.76ZM535.449 57.072V66H532.713V64.784C532.435 65.1787 532.057 65.4987 531.577 65.744C531.107 65.9787 530.585 66.096 530.009 66.096C529.326 66.096 528.723 65.9467 528.201 65.648C527.678 65.3387 527.273 64.896 526.985 64.32C526.697 63.744 526.553 63.0667 526.553 62.288V57.072H529.273V61.92C529.273 62.5173 529.427 62.9813 529.737 63.312C530.046 63.6427 530.462 63.808 530.985 63.808C531.518 63.808 531.939 63.6427 532.249 63.312C532.558 62.9813 532.713 62.5173 532.713 61.92V57.072H535.449ZM545.781 63.68V66H544.389C543.397 66 542.623 65.76 542.069 65.28C541.514 64.7893 541.237 63.9947 541.237 62.896V59.344H540.149V57.072H541.237V54.896H543.973V57.072H545.765V59.344H543.973V62.928C543.973 63.1947 544.037 63.3867 544.165 63.504C544.293 63.6213 544.506 63.68 544.805 63.68H545.781ZM550.041 58.56C550.361 58.0693 550.761 57.6853 551.241 57.408C551.721 57.12 552.254 56.976 552.841 56.976V59.872H552.089C551.406 59.872 550.894 60.0213 550.553 60.32C550.211 60.608 550.041 61.12 550.041 61.856V66H547.305V57.072H550.041V58.56ZM553.604 61.52C553.604 60.6027 553.775 59.7973 554.116 59.104C554.468 58.4107 554.943 57.8773 555.54 57.504C556.138 57.1307 556.804 56.944 557.54 56.944C558.17 56.944 558.719 57.072 559.188 57.328C559.668 57.584 560.036 57.92 560.292 58.336V57.072H563.028V66H560.292V64.736C560.026 65.152 559.652 65.488 559.172 65.744C558.703 66 558.154 66.128 557.524 66.128C556.799 66.128 556.138 65.9413 555.54 65.568C554.943 65.184 554.468 64.6453 554.116 63.952C553.775 63.248 553.604 62.4373 553.604 61.52ZM560.292 61.536C560.292 60.8533 560.1 60.3147 559.716 59.92C559.343 59.5253 558.884 59.328 558.34 59.328C557.796 59.328 557.332 59.5253 556.948 59.92C556.575 60.304 556.388 60.8373 556.388 61.52C556.388 62.2027 556.575 62.7467 556.948 63.152C557.332 63.5467 557.796 63.744 558.34 63.744C558.884 63.744 559.343 63.5467 559.716 63.152C560.1 62.7573 560.292 62.2187 560.292 61.536ZM569.024 63.44L570.96 57.072H573.872L570.704 66H567.328L564.16 57.072H567.088L569.024 63.44ZM583.439 61.392C583.439 61.648 583.423 61.9147 583.391 62.192H577.199C577.242 62.7467 577.418 63.1733 577.727 63.472C578.047 63.76 578.437 63.904 578.895 63.904C579.578 63.904 580.053 63.616 580.319 63.04H583.231C583.082 63.6267 582.81 64.1547 582.415 64.624C582.031 65.0933 581.546 65.4613 580.959 65.728C580.373 65.9947 579.717 66.128 578.991 66.128C578.117 66.128 577.338 65.9413 576.655 65.568C575.973 65.1947 575.439 64.6613 575.055 63.968C574.671 63.2747 574.479 62.464 574.479 61.536C574.479 60.608 574.666 59.7973 575.039 59.104C575.423 58.4107 575.957 57.8773 576.639 57.504C577.322 57.1307 578.106 56.944 578.991 56.944C579.855 56.944 580.623 57.1253 581.295 57.488C581.967 57.8507 582.49 58.368 582.863 59.04C583.247 59.712 583.439 60.496 583.439 61.392ZM580.639 60.672C580.639 60.2027 580.479 59.8293 580.159 59.552C579.839 59.2747 579.439 59.136 578.959 59.136C578.501 59.136 578.111 59.2693 577.791 59.536C577.482 59.8027 577.29 60.1813 577.215 60.672H580.639ZM587.619 54.16V66H584.883V54.16H587.619ZM592.881 54.144C594.023 54.144 594.935 54.4427 595.617 55.04C596.311 55.6373 596.657 56.48 596.657 57.568C596.657 58.5707 596.327 59.3547 595.665 59.92C595.015 60.4747 594.151 60.7573 593.073 60.768L592.993 61.968H590.593L590.513 58.992H591.473C592.295 58.992 592.919 58.8907 593.345 58.688C593.783 58.4853 594.001 58.1173 594.001 57.584C594.001 57.2107 593.9 56.9173 593.697 56.704C593.495 56.4907 593.212 56.384 592.849 56.384C592.465 56.384 592.167 56.496 591.953 56.72C591.74 56.9333 591.633 57.2267 591.633 57.6H589.057C589.036 56.9493 589.169 56.3627 589.457 55.84C589.756 55.3173 590.193 54.9067 590.769 54.608C591.356 54.2987 592.06 54.144 592.881 54.144ZM591.825 66.128C591.345 66.128 590.951 65.9893 590.641 65.712C590.343 65.424 590.193 65.072 590.193 64.656C590.193 64.2293 590.343 63.872 590.641 63.584C590.951 63.296 591.345 63.152 591.825 63.152C592.295 63.152 592.679 63.296 592.977 63.584C593.287 63.872 593.441 64.2293 593.441 64.656C593.441 65.072 593.287 65.424 592.977 65.712C592.679 65.9893 592.295 66.128 591.825 66.128Z" fill="black"/>
<defs>
<filter id="filter0_d_1936_1338" x="139" y="110" width="457" height="22" filterUnits="userSpaceOnUse" color-interpolation-filters="sRGB">
<feFlood flood-opacity="0" result="BackgroundImageFix"/>
<feColorMatrix in="SourceAlpha" type="matrix" values="0 0 0 0 0 0 0 0 0 0 0 0 0 0 0 0 0 0 127 0" result="hardAlpha"/>
<feOffset dy="2"/>
<feGaussianBlur stdDeviation="2"/>
<feComposite in2="hardAlpha" operator="out"/>
<feColorMatrix type="matrix" values="0 0 0 0 0.2 0 0 0 0 0.470588 0 0 0 0 0.878431 0 0 0 0.2 0"/>
<feBlend mode="normal" in2="BackgroundImageFix" result="effect1_dropShadow_1936_1338"/>
<feBlend mode="normal" in="SourceGraphic" in2="effect1_dropShadow_1936_1338" result="shape"/>
</filter>
<filter id="filter1_d_1936_1338" x="139" y="171" width="457" height="22" filterUnits="userSpaceOnUse" color-interpolation-filters="sRGB">
<feFlood flood-opacity="0" result="BackgroundImageFix"/>
<feColorMatrix in="SourceAlpha" type="matrix" values="0 0 0 0 0 0 0 0 0 0 0 0 0 0 0 0 0 0 127 0" result="hardAlpha"/>
<feOffset dy="2"/>
<feGaussianBlur stdDeviation="2"/>
<feComposite in2="hardAlpha" operator="out"/>
<feColorMatrix type="matrix" values="0 0 0 0 0.2 0 0 0 0 0.470588 0 0 0 0 0.878431 0 0 0 0.2 0"/>
<feBlend mode="normal" in2="BackgroundImageFix" result="effect1_dropShadow_1936_1338"/>
<feBlend mode="normal" in="SourceGraphic" in2="effect1_dropShadow_1936_1338" result="shape"/>
</filter>
<filter id="filter2_d_1936_1338" x="139" y="229" width="457" height="22" filterUnits="userSpaceOnUse" color-interpolation-filters="sRGB">
<feFlood flood-opacity="0" result="BackgroundImageFix"/>
<feColorMatrix in="SourceAlpha" type="matrix" values="0 0 0 0 0 0 0 0 0 0 0 0 0 0 0 0 0 0 127 0" result="hardAlpha"/>
<feOffset dy="2"/>
<feGaussianBlur stdDeviation="2"/>
<feComposite in2="hardAlpha" operator="out"/>
<feColorMatrix type="matrix" values="0 0 0 0 0.2 0 0 0 0 0.470588 0 0 0 0 0.878431 0 0 0 0.2 0"/>
<feBlend mode="normal" in2="BackgroundImageFix" result="effect1_dropShadow_1936_1338"/>
<feBlend mode="normal" in="SourceGraphic" in2="effect1_dropShadow_1936_1338" result="shape"/>
</filter>
<filter id="filter3_d_1936_1338" x="139" y="290" width="457" height="22" filterUnits="userSpaceOnUse" color-interpolation-filters="sRGB">
<feFlood flood-opacity="0" result="BackgroundImageFix"/>
<feColorMatrix in="SourceAlpha" type="matrix" values="0 0 0 0 0 0 0 0 0 0 0 0 0 0 0 0 0 0 127 0" result="hardAlpha"/>
<feOffset dy="2"/>
<feGaussianBlur stdDeviation="2"/>
<feComposite in2="hardAlpha" operator="out"/>
<feColorMatrix type="matrix" values="0 0 0 0 0.2 0 0 0 0 0.470588 0 0 0 0 0.878431 0 0 0 0.2 0"/>
<feBlend mode="normal" in2="BackgroundImageFix" result="effect1_dropShadow_1936_1338"/>
<feBlend mode="normal" in="SourceGraphic" in2="effect1_dropShadow_1936_1338" result="shape"/>
</filter>
</defs>
</svg>
