<svg width="275" height="168" viewBox="0 0 275 168" fill="none" xmlns="http://www.w3.org/2000/svg">
<rect width="91" height="30" rx="8" fill="#5870DC"/>
<path d="M13.4917 19.12C13.0251 19.12 12.5917 19.0333 12.1917 18.86C11.7917 18.68 11.4517 18.4367 11.1717 18.13C10.8917 17.8233 10.6851 17.47 10.5517 17.07L11.5517 16.65C11.7317 17.11 11.9951 17.4633 12.3417 17.71C12.6884 17.9567 13.0884 18.08 13.5417 18.08C13.8084 18.08 14.0417 18.04 14.2417 17.96C14.4417 17.8733 14.5951 17.7533 14.7017 17.6C14.8151 17.4467 14.8717 17.27 14.8717 17.07C14.8717 16.7967 14.7951 16.58 14.6417 16.42C14.4884 16.26 14.2617 16.1333 13.9617 16.04L12.5617 15.6C12.0017 15.4267 11.5751 15.1633 11.2817 14.81C10.9884 14.45 10.8417 14.03 10.8417 13.55C10.8417 13.13 10.9451 12.7633 11.1517 12.45C11.3584 12.13 11.6417 11.88 12.0017 11.7C12.3684 11.52 12.7851 11.43 13.2517 11.43C13.6984 11.43 14.1051 11.51 14.4717 11.67C14.8384 11.8233 15.1517 12.0367 15.4117 12.31C15.6784 12.5833 15.8717 12.9 15.9917 13.26L15.0117 13.69C14.8651 13.2967 14.6351 12.9933 14.3217 12.78C14.0151 12.5667 13.6584 12.46 13.2517 12.46C13.0051 12.46 12.7884 12.5033 12.6017 12.59C12.4151 12.67 12.2684 12.79 12.1617 12.95C12.0617 13.1033 12.0117 13.2833 12.0117 13.49C12.0117 13.73 12.0884 13.9433 12.2417 14.13C12.3951 14.3167 12.6284 14.4567 12.9417 14.55L14.2417 14.96C14.8351 15.14 15.2817 15.4 15.5817 15.74C15.8817 16.0733 16.0317 16.49 16.0317 16.99C16.0317 17.4033 15.9217 17.77 15.7017 18.09C15.4884 18.41 15.1917 18.6633 14.8117 18.85C14.4317 19.03 13.9917 19.12 13.4917 19.12ZM20.1863 19.12C19.6463 19.12 19.1663 18.9967 18.7463 18.75C18.333 18.4967 18.0097 18.1567 17.7763 17.73C17.543 17.2967 17.4263 16.8133 17.4263 16.28C17.4263 15.7333 17.543 15.25 17.7763 14.83C18.0163 14.41 18.3363 14.08 18.7363 13.84C19.1363 13.5933 19.5897 13.47 20.0963 13.47C20.503 13.47 20.8663 13.54 21.1863 13.68C21.5063 13.82 21.7763 14.0133 21.9963 14.26C22.2163 14.5 22.383 14.7767 22.4963 15.09C22.6163 15.4033 22.6763 15.7367 22.6763 16.09C22.6763 16.1767 22.673 16.2667 22.6663 16.36C22.6597 16.4533 22.6463 16.54 22.6263 16.62H18.3163V15.72H21.9863L21.4463 16.13C21.513 15.8033 21.4897 15.5133 21.3763 15.26C21.2697 15 21.103 14.7967 20.8763 14.65C20.6563 14.4967 20.3963 14.42 20.0963 14.42C19.7963 14.42 19.5297 14.4967 19.2963 14.65C19.063 14.7967 18.883 15.01 18.7563 15.29C18.6297 15.5633 18.5797 15.8967 18.6063 16.29C18.573 16.6567 18.623 16.9767 18.7563 17.25C18.8963 17.5233 19.0897 17.7367 19.3363 17.89C19.5897 18.0433 19.8763 18.12 20.1963 18.12C20.523 18.12 20.7997 18.0467 21.0263 17.9C21.2597 17.7533 21.443 17.5633 21.5763 17.33L22.4963 17.78C22.3897 18.0333 22.223 18.2633 21.9963 18.47C21.7763 18.67 21.5097 18.83 21.1963 18.95C20.8897 19.0633 20.553 19.12 20.1863 19.12ZM24.1791 19V13.59H25.2591V14.76L25.1191 14.58C25.2325 14.2133 25.4391 13.9367 25.7391 13.75C26.0391 13.5633 26.3825 13.47 26.7691 13.47C27.2025 13.47 27.5858 13.5867 27.9191 13.82C28.2591 14.0467 28.4858 14.35 28.5991 14.73L28.2791 14.76C28.4391 14.3267 28.6825 14.0033 29.0091 13.79C29.3425 13.5767 29.7225 13.47 30.1491 13.47C30.5225 13.47 30.8591 13.5567 31.1591 13.73C31.4658 13.9033 31.7091 14.1433 31.8891 14.45C32.0691 14.7567 32.1591 15.1067 32.1591 15.5V19H31.0291V15.81C31.0291 15.5367 30.9791 15.3067 30.8791 15.12C30.7858 14.9267 30.6525 14.78 30.4791 14.68C30.3125 14.5733 30.1158 14.52 29.8891 14.52C29.6625 14.52 29.4625 14.5733 29.2891 14.68C29.1158 14.78 28.9791 14.9267 28.8791 15.12C28.7791 15.3133 28.7291 15.5433 28.7291 15.81V19H27.6091V15.81C27.6091 15.5367 27.5591 15.3067 27.4591 15.12C27.3658 14.9267 27.2325 14.78 27.0591 14.68C26.8925 14.5733 26.6925 14.52 26.4591 14.52C26.2325 14.52 26.0325 14.5733 25.8591 14.68C25.6858 14.78 25.5491 14.9267 25.4491 15.12C25.3558 15.3133 25.3091 15.5433 25.3091 15.81V19H24.1791ZM33.7686 19V13.59H34.8986V19H33.7686ZM33.7686 12.85V11.55H34.8986V12.85H33.7686ZM38.8778 19V11.55H42.0178C42.4845 11.55 42.8878 11.6333 43.2278 11.8C43.5678 11.96 43.8278 12.1933 44.0078 12.5C44.1878 12.8 44.2778 13.1567 44.2778 13.57C44.2778 13.93 44.1845 14.26 43.9978 14.56C43.8178 14.8533 43.5345 15.0867 43.1478 15.26V14.76C43.4878 14.8933 43.7645 15.0633 43.9778 15.27C44.1911 15.47 44.3445 15.6967 44.4378 15.95C44.5378 16.2033 44.5878 16.47 44.5878 16.75C44.5878 17.45 44.3578 18 43.8978 18.4C43.4445 18.8 42.8211 19 42.0278 19H38.8778ZM40.0578 17.95H42.1178C42.5111 17.95 42.8245 17.8433 43.0578 17.63C43.2911 17.41 43.4078 17.12 43.4078 16.76C43.4078 16.3933 43.2911 16.1033 43.0578 15.89C42.8245 15.67 42.5111 15.56 42.1178 15.56H40.0578V17.95ZM40.0578 14.52H42.0478C42.3678 14.52 42.6245 14.43 42.8178 14.25C43.0111 14.0633 43.1078 13.82 43.1078 13.52C43.1078 13.22 43.0111 12.9867 42.8178 12.82C42.6245 12.6533 42.3678 12.57 42.0478 12.57H40.0578V14.52ZM48.7016 19.12C48.1816 19.12 47.705 18.9967 47.2716 18.75C46.845 18.5033 46.505 18.1667 46.2516 17.74C45.9983 17.3133 45.8716 16.83 45.8716 16.29C45.8716 15.7433 45.9983 15.26 46.2516 14.84C46.505 14.4133 46.845 14.08 47.2716 13.84C47.6983 13.5933 48.175 13.47 48.7016 13.47C49.235 13.47 49.7116 13.5933 50.1316 13.84C50.5583 14.08 50.895 14.4133 51.1416 14.84C51.395 15.26 51.5216 15.7433 51.5216 16.29C51.5216 16.8367 51.395 17.3233 51.1416 17.75C50.8883 18.1767 50.5483 18.5133 50.1216 18.76C49.695 19 49.2216 19.12 48.7016 19.12ZM48.7016 18.07C49.0216 18.07 49.305 17.9933 49.5516 17.84C49.7983 17.6867 49.9916 17.4767 50.1316 17.21C50.2783 16.9367 50.3516 16.63 50.3516 16.29C50.3516 15.95 50.2783 15.6467 50.1316 15.38C49.9916 15.1133 49.7983 14.9033 49.5516 14.75C49.305 14.5967 49.0216 14.52 48.7016 14.52C48.3883 14.52 48.105 14.5967 47.8516 14.75C47.605 14.9033 47.4083 15.1133 47.2616 15.38C47.1216 15.6467 47.0516 15.95 47.0516 16.29C47.0516 16.63 47.1216 16.9367 47.2616 17.21C47.4083 17.4767 47.605 17.6867 47.8516 17.84C48.105 17.9933 48.3883 18.07 48.7016 18.07ZM53.0248 19V11.43H54.1548V19H53.0248ZM58.376 19.12C57.856 19.12 57.3893 18.9967 56.976 18.75C56.5693 18.4967 56.246 18.1567 56.006 17.73C55.7727 17.3033 55.656 16.8233 55.656 16.29C55.656 15.7567 55.776 15.2767 56.016 14.85C56.256 14.4233 56.5793 14.0867 56.986 13.84C57.3927 13.5933 57.8527 13.47 58.366 13.47C58.7993 13.47 59.1827 13.5567 59.516 13.73C59.8493 13.9033 60.1127 14.1433 60.306 14.45L60.136 14.71V11.43H61.256V19H60.186V17.9L60.316 18.11C60.1293 18.4367 59.8627 18.6867 59.516 18.86C59.1693 19.0333 58.7893 19.12 58.376 19.12ZM58.486 18.07C58.7993 18.07 59.0793 17.9933 59.326 17.84C59.5793 17.6867 59.776 17.4767 59.916 17.21C60.0627 16.9367 60.136 16.63 60.136 16.29C60.136 15.95 60.0627 15.6467 59.916 15.38C59.776 15.1133 59.5793 14.9033 59.326 14.75C59.0793 14.5967 58.7993 14.52 58.486 14.52C58.1727 14.52 57.8893 14.5967 57.636 14.75C57.3827 14.9033 57.186 15.1133 57.046 15.38C56.906 15.6467 56.836 15.95 56.836 16.29C56.836 16.63 56.906 16.9367 57.046 17.21C57.186 17.4767 57.3793 17.6867 57.626 17.84C57.8793 17.9933 58.166 18.07 58.486 18.07ZM63.2652 20.47V19.92C63.4852 19.8667 63.6552 19.7633 63.7752 19.61C63.8952 19.4633 63.9686 19.26 63.9952 19H63.4652V17.7H64.6152V18.55C64.6152 19.0833 64.5019 19.5133 64.2752 19.84C64.0486 20.1667 63.7119 20.3767 63.2652 20.47ZM68.6445 19V18.15L70.6845 15.97C71.0845 15.5433 71.3979 15.2 71.6245 14.94C71.8579 14.6733 72.0245 14.44 72.1245 14.24C72.2312 14.04 72.2845 13.83 72.2845 13.61C72.2845 13.25 72.1745 12.9733 71.9545 12.78C71.7345 12.58 71.4512 12.48 71.1045 12.48C70.7445 12.48 70.4345 12.5833 70.1745 12.79C69.9145 12.99 69.7345 13.2833 69.6345 13.67L68.5945 13.37C68.6745 12.9767 68.8345 12.6367 69.0745 12.35C69.3145 12.0567 69.6079 11.83 69.9545 11.67C70.3079 11.51 70.6879 11.43 71.0945 11.43C71.5679 11.43 71.9812 11.52 72.3345 11.7C72.6879 11.8733 72.9612 12.1167 73.1545 12.43C73.3545 12.7433 73.4545 13.1067 73.4545 13.52C73.4545 13.7933 73.4012 14.06 73.2945 14.32C73.1945 14.5733 73.0379 14.8433 72.8245 15.13C72.6112 15.41 72.3379 15.7267 72.0045 16.08L70.2045 18H73.5945V19H68.6445ZM78.3634 19V17.32H74.8134V16.34L78.3134 11.55H79.4834V16.34H80.5134V17.32H79.4834V19H78.3634ZM75.6834 16.77L75.4934 16.34H78.3634V12.49L78.6834 12.59L75.6834 16.77Z" fill="white"/>
<rect x="100" y="6" width="36" height="18" fill="#44454F" stroke="#2F67D4" stroke-width="2" stroke-dasharray="4 4"/>
<path d="M149 6.5293V23.4705" stroke="#2F67D4" stroke-width="2"/>
<path d="M153 6L145 6" stroke="#2F67D4" stroke-width="2"/>
<path d="M153 24L145 24" stroke="#2F67D4" stroke-width="2"/>
<path d="M162.863 25V7.12H165.695V14.992H173.975V7.12H176.783V25H173.975V17.512H165.695V25H162.863ZM187.28 25.288C185.984 25.288 184.832 24.992 183.824 24.4C182.832 23.792 182.056 22.976 181.496 21.952C180.936 20.912 180.656 19.752 180.656 18.472C180.656 17.16 180.936 16 181.496 14.992C182.072 13.984 182.84 13.192 183.8 12.616C184.76 12.024 185.848 11.728 187.064 11.728C188.04 11.728 188.912 11.896 189.68 12.232C190.448 12.568 191.096 13.032 191.624 13.624C192.152 14.2 192.552 14.864 192.824 15.616C193.112 16.368 193.256 17.168 193.256 18.016C193.256 18.224 193.248 18.44 193.232 18.664C193.216 18.888 193.184 19.096 193.136 19.288H182.792V17.128H191.6L190.304 18.112C190.464 17.328 190.408 16.632 190.136 16.024C189.88 15.4 189.48 14.912 188.936 14.56C188.408 14.192 187.784 14.008 187.064 14.008C186.344 14.008 185.704 14.192 185.144 14.56C184.584 14.912 184.152 15.424 183.848 16.096C183.544 16.752 183.424 17.552 183.488 18.496C183.408 19.376 183.528 20.144 183.848 20.8C184.184 21.456 184.648 21.968 185.24 22.336C185.848 22.704 186.536 22.888 187.304 22.888C188.088 22.888 188.752 22.712 189.296 22.36C189.856 22.008 190.296 21.552 190.616 20.992L192.824 22.072C192.568 22.68 192.168 23.232 191.624 23.728C191.096 24.208 190.456 24.592 189.704 24.88C188.968 25.152 188.16 25.288 187.28 25.288ZM200.634 25.288C199.754 25.288 198.978 25.136 198.306 24.832C197.65 24.512 197.138 24.08 196.77 23.536C196.402 22.976 196.218 22.32 196.218 21.568C196.218 20.864 196.37 20.232 196.674 19.672C196.994 19.112 197.482 18.64 198.138 18.256C198.794 17.872 199.618 17.6 200.61 17.44L205.122 16.696V18.832L201.138 19.528C200.418 19.656 199.89 19.888 199.554 20.224C199.218 20.544 199.05 20.96 199.05 21.472C199.05 21.968 199.234 22.376 199.602 22.696C199.986 23 200.474 23.152 201.066 23.152C201.802 23.152 202.442 22.992 202.986 22.672C203.546 22.352 203.978 21.928 204.282 21.4C204.586 20.856 204.738 20.256 204.738 19.6V16.264C204.738 15.624 204.498 15.104 204.018 14.704C203.554 14.288 202.93 14.08 202.146 14.08C201.426 14.08 200.794 14.272 200.25 14.656C199.722 15.024 199.33 15.504 199.074 16.096L196.818 14.968C197.058 14.328 197.45 13.768 197.994 13.288C198.538 12.792 199.17 12.408 199.89 12.136C200.626 11.864 201.402 11.728 202.218 11.728C203.242 11.728 204.146 11.92 204.93 12.304C205.73 12.688 206.346 13.224 206.778 13.912C207.226 14.584 207.45 15.368 207.45 16.264V25H204.858V22.648L205.41 22.72C205.106 23.248 204.714 23.704 204.234 24.088C203.77 24.472 203.234 24.768 202.626 24.976C202.034 25.184 201.37 25.288 200.634 25.288ZM217.581 25.288C216.333 25.288 215.213 24.992 214.221 24.4C213.245 23.792 212.469 22.976 211.893 21.952C211.333 20.928 211.053 19.776 211.053 18.496C211.053 17.216 211.341 16.064 211.917 15.04C212.493 14.016 213.269 13.208 214.245 12.616C215.221 12.024 216.325 11.728 217.557 11.728C218.597 11.728 219.517 11.936 220.317 12.352C221.117 12.768 221.749 13.344 222.213 14.08L221.805 14.704V6.832H224.493V25H221.925V22.36L222.237 22.864C221.789 23.648 221.149 24.248 220.317 24.664C219.485 25.08 218.573 25.288 217.581 25.288ZM217.845 22.768C218.597 22.768 219.269 22.584 219.861 22.216C220.469 21.848 220.941 21.344 221.277 20.704C221.629 20.048 221.805 19.312 221.805 18.496C221.805 17.68 221.629 16.952 221.277 16.312C220.941 15.672 220.469 15.168 219.861 14.8C219.269 14.432 218.597 14.248 217.845 14.248C217.093 14.248 216.413 14.432 215.805 14.8C215.197 15.168 214.725 15.672 214.389 16.312C214.053 16.952 213.885 17.68 213.885 18.496C213.885 19.312 214.053 20.048 214.389 20.704C214.725 21.344 215.189 21.848 215.781 22.216C216.389 22.584 217.077 22.768 217.845 22.768ZM228.619 25V12.016H231.331V25H228.619ZM228.619 10.24V7.12H231.331V10.24H228.619ZM235.462 25V12.016H238.054V14.56L237.742 14.224C238.062 13.408 238.574 12.792 239.278 12.376C239.982 11.944 240.798 11.728 241.726 11.728C242.686 11.728 243.534 11.936 244.27 12.352C245.006 12.768 245.582 13.344 245.998 14.08C246.414 14.816 246.622 15.664 246.622 16.624V25H243.934V17.344C243.934 16.688 243.814 16.136 243.574 15.688C243.334 15.224 242.99 14.872 242.542 14.632C242.11 14.376 241.614 14.248 241.054 14.248C240.494 14.248 239.99 14.376 239.542 14.632C239.11 14.872 238.774 15.224 238.534 15.688C238.294 16.152 238.174 16.704 238.174 17.344V25H235.462ZM256.748 30.28C255.804 30.28 254.932 30.128 254.132 29.824C253.332 29.52 252.644 29.096 252.068 28.552C251.492 28.024 251.06 27.4 250.772 26.68L253.268 25.648C253.492 26.256 253.9 26.76 254.492 27.16C255.1 27.56 255.844 27.76 256.724 27.76C257.412 27.76 258.028 27.624 258.572 27.352C259.116 27.096 259.548 26.712 259.868 26.2C260.188 25.704 260.348 25.104 260.348 24.4V21.472L260.828 22.024C260.38 22.856 259.756 23.488 258.956 23.92C258.172 24.352 257.284 24.568 256.292 24.568C255.092 24.568 254.012 24.288 253.052 23.728C252.092 23.168 251.332 22.4 250.772 21.424C250.228 20.448 249.956 19.352 249.956 18.136C249.956 16.904 250.228 15.808 250.772 14.848C251.332 13.888 252.084 13.128 253.028 12.568C253.972 12.008 255.052 11.728 256.268 11.728C257.26 11.728 258.14 11.944 258.908 12.376C259.692 12.792 260.332 13.4 260.828 14.2L260.468 14.872V12.016H263.036V24.4C263.036 25.52 262.764 26.52 262.22 27.4C261.692 28.296 260.956 29 260.012 29.512C259.068 30.024 257.98 30.28 256.748 30.28ZM256.604 22.048C257.324 22.048 257.964 21.88 258.524 21.544C259.084 21.192 259.524 20.728 259.844 20.152C260.18 19.56 260.348 18.896 260.348 18.16C260.348 17.424 260.18 16.76 259.844 16.168C259.508 15.576 259.06 15.112 258.5 14.776C257.94 14.424 257.308 14.248 256.604 14.248C255.868 14.248 255.212 14.424 254.636 14.776C254.06 15.112 253.604 15.576 253.268 16.168C252.948 16.744 252.788 17.408 252.788 18.16C252.788 18.88 252.948 19.536 253.268 20.128C253.604 20.72 254.06 21.192 254.636 21.544C255.212 21.88 255.868 22.048 256.604 22.048ZM269.811 25V9.52H266.379V7.12H272.619V25H269.811Z" fill="white" fill-opacity="0.9"/>
<rect y="46" width="91" height="30" rx="8" fill="#5870DC"/>
<path d="M13.5926 64.07C13.1059 64.07 12.6659 63.9867 12.2726 63.82C11.8859 63.6533 11.5792 63.4133 11.3526 63.1C11.1259 62.7867 11.0092 62.4167 11.0026 61.99H12.5026C12.5226 62.2767 12.6226 62.5033 12.8026 62.67C12.9892 62.8367 13.2426 62.92 13.5626 62.92C13.8892 62.92 14.1459 62.8433 14.3326 62.69C14.5192 62.53 14.6126 62.3233 14.6126 62.07C14.6126 61.8633 14.5492 61.6933 14.4226 61.56C14.2959 61.4267 14.1359 61.3233 13.9426 61.25C13.7559 61.17 13.4959 61.0833 13.1626 60.99C12.7092 60.8567 12.3392 60.7267 12.0526 60.6C11.7726 60.4667 11.5292 60.27 11.3226 60.01C11.1226 59.7433 11.0226 59.39 11.0226 58.95C11.0226 58.5367 11.1259 58.1767 11.3326 57.87C11.5392 57.5633 11.8292 57.33 12.2026 57.17C12.5759 57.0033 13.0026 56.92 13.4826 56.92C14.2026 56.92 14.7859 57.0967 15.2326 57.45C15.6859 57.7967 15.9359 58.2833 15.9826 58.91H14.4426C14.4292 58.67 14.3259 58.4733 14.1326 58.32C13.9459 58.16 13.6959 58.08 13.3826 58.08C13.1092 58.08 12.8892 58.15 12.7226 58.29C12.5626 58.43 12.4826 58.6333 12.4826 58.9C12.4826 59.0867 12.5426 59.2433 12.6626 59.37C12.7892 59.49 12.9426 59.59 13.1226 59.67C13.3092 59.7433 13.5692 59.83 13.9026 59.93C14.3559 60.0633 14.7259 60.1967 15.0126 60.33C15.2992 60.4633 15.5459 60.6633 15.7526 60.93C15.9592 61.1967 16.0626 61.5467 16.0626 61.98C16.0626 62.3533 15.9659 62.7 15.7726 63.02C15.5792 63.34 15.2959 63.5967 14.9226 63.79C14.5492 63.9767 14.1059 64.07 13.5926 64.07ZM22.8263 61.11C22.8263 61.31 22.813 61.49 22.7863 61.65H18.7363C18.7697 62.05 18.9097 62.3633 19.1563 62.59C19.403 62.8167 19.7063 62.93 20.0663 62.93C20.5863 62.93 20.9563 62.7067 21.1763 62.26H22.6863C22.5263 62.7933 22.2197 63.2333 21.7663 63.58C21.313 63.92 20.7563 64.09 20.0963 64.09C19.563 64.09 19.083 63.9733 18.6563 63.74C18.2363 63.5 17.9063 63.1633 17.6663 62.73C17.433 62.2967 17.3163 61.7967 17.3163 61.23C17.3163 60.6567 17.433 60.1533 17.6663 59.72C17.8997 59.2867 18.2263 58.9533 18.6463 58.72C19.0663 58.4867 19.5497 58.37 20.0963 58.37C20.623 58.37 21.093 58.4833 21.5063 58.71C21.9263 58.9367 22.2497 59.26 22.4763 59.68C22.7097 60.0933 22.8263 60.57 22.8263 61.11ZM21.3763 60.71C21.3697 60.35 21.2397 60.0633 20.9863 59.85C20.733 59.63 20.423 59.52 20.0563 59.52C19.7097 59.52 19.4163 59.6267 19.1763 59.84C18.943 60.0467 18.7997 60.3367 18.7463 60.71H21.3763ZM31.1282 58.38C31.8082 58.38 32.3549 58.59 32.7682 59.01C33.1882 59.4233 33.3982 60.0033 33.3982 60.75V64H31.9982V60.94C31.9982 60.5067 31.8882 60.1767 31.6682 59.95C31.4482 59.7167 31.1482 59.6 30.7682 59.6C30.3882 59.6 30.0849 59.7167 29.8582 59.95C29.6382 60.1767 29.5282 60.5067 29.5282 60.94V64H28.1282V60.94C28.1282 60.5067 28.0182 60.1767 27.7982 59.95C27.5782 59.7167 27.2782 59.6 26.8982 59.6C26.5115 59.6 26.2049 59.7167 25.9782 59.95C25.7582 60.1767 25.6482 60.5067 25.6482 60.94V64H24.2482V58.46H25.6482V59.13C25.8282 58.8967 26.0582 58.7133 26.3382 58.58C26.6249 58.4467 26.9382 58.38 27.2782 58.38C27.7115 58.38 28.0982 58.4733 28.4382 58.66C28.7782 58.84 29.0415 59.1 29.2282 59.44C29.4082 59.12 29.6682 58.8633 30.0082 58.67C30.3549 58.4767 30.7282 58.38 31.1282 58.38ZM35.8367 57.8C35.5901 57.8 35.3834 57.7233 35.2167 57.57C35.0567 57.41 34.9767 57.2133 34.9767 56.98C34.9767 56.7467 35.0567 56.5533 35.2167 56.4C35.3834 56.24 35.5901 56.16 35.8367 56.16C36.0834 56.16 36.2867 56.24 36.4467 56.4C36.6134 56.5533 36.6967 56.7467 36.6967 56.98C36.6967 57.2133 36.6134 57.41 36.4467 57.57C36.2867 57.7233 36.0834 57.8 35.8367 57.8ZM36.5267 58.46V64H35.1267V58.46H36.5267ZM45.0527 60.42C45.4461 60.4933 45.7694 60.69 46.0227 61.01C46.2761 61.33 46.4027 61.6967 46.4027 62.11C46.4027 62.4833 46.3094 62.8133 46.1227 63.1C45.9427 63.38 45.6794 63.6 45.3327 63.76C44.9861 63.92 44.5761 64 44.1027 64H41.0927V57.02H43.9727C44.4461 57.02 44.8527 57.0967 45.1927 57.25C45.5394 57.4033 45.7994 57.6167 45.9727 57.89C46.1527 58.1633 46.2427 58.4733 46.2427 58.82C46.2427 59.2267 46.1327 59.5667 45.9127 59.84C45.6994 60.1133 45.4127 60.3067 45.0527 60.42ZM42.4927 59.9H43.7727C44.1061 59.9 44.3627 59.8267 44.5427 59.68C44.7227 59.5267 44.8127 59.31 44.8127 59.03C44.8127 58.75 44.7227 58.5333 44.5427 58.38C44.3627 58.2267 44.1061 58.15 43.7727 58.15H42.4927V59.9ZM43.9027 62.86C44.2427 62.86 44.5061 62.78 44.6927 62.62C44.8861 62.46 44.9827 62.2333 44.9827 61.94C44.9827 61.64 44.8827 61.4067 44.6827 61.24C44.4827 61.0667 44.2127 60.98 43.8727 60.98H42.4927V62.86H43.9027ZM50.3785 64.09C49.8452 64.09 49.3652 63.9733 48.9385 63.74C48.5118 63.5 48.1752 63.1633 47.9285 62.73C47.6885 62.2967 47.5685 61.7967 47.5685 61.23C47.5685 60.6633 47.6918 60.1633 47.9385 59.73C48.1918 59.2967 48.5352 58.9633 48.9685 58.73C49.4018 58.49 49.8852 58.37 50.4185 58.37C50.9518 58.37 51.4352 58.49 51.8685 58.73C52.3018 58.9633 52.6418 59.2967 52.8885 59.73C53.1418 60.1633 53.2685 60.6633 53.2685 61.23C53.2685 61.7967 53.1385 62.2967 52.8785 62.73C52.6252 63.1633 52.2785 63.5 51.8385 63.74C51.4052 63.9733 50.9185 64.09 50.3785 64.09ZM50.3785 62.87C50.6318 62.87 50.8685 62.81 51.0885 62.69C51.3152 62.5633 51.4952 62.3767 51.6285 62.13C51.7618 61.8833 51.8285 61.5833 51.8285 61.23C51.8285 60.7033 51.6885 60.3 51.4085 60.02C51.1352 59.7333 50.7985 59.59 50.3985 59.59C49.9985 59.59 49.6618 59.7333 49.3885 60.02C49.1218 60.3 48.9885 60.7033 48.9885 61.23C48.9885 61.7567 49.1185 62.1633 49.3785 62.45C49.6452 62.73 49.9785 62.87 50.3785 62.87ZM56.0955 56.6V64H54.6955V56.6H56.0955ZM57.5187 61.21C57.5187 60.65 57.6287 60.1533 57.8487 59.72C58.0753 59.2867 58.382 58.9533 58.7687 58.72C59.1553 58.4867 59.5853 58.37 60.0587 58.37C60.4187 58.37 60.762 58.45 61.0887 58.61C61.4153 58.7633 61.6753 58.97 61.8687 59.23V56.6H63.2887V64H61.8687V63.18C61.6953 63.4533 61.452 63.6733 61.1387 63.84C60.8253 64.0067 60.462 64.09 60.0487 64.09C59.582 64.09 59.1553 63.97 58.7687 63.73C58.382 63.49 58.0753 63.1533 57.8487 62.72C57.6287 62.28 57.5187 61.7767 57.5187 61.21ZM61.8787 61.23C61.8787 60.89 61.812 60.6 61.6787 60.36C61.5453 60.1133 61.3653 59.9267 61.1387 59.8C60.912 59.6667 60.6687 59.6 60.4087 59.6C60.1487 59.6 59.9087 59.6633 59.6887 59.79C59.4687 59.9167 59.2887 60.1033 59.1487 60.35C59.0153 60.59 58.9487 60.8767 58.9487 61.21C58.9487 61.5433 59.0153 61.8367 59.1487 62.09C59.2887 62.3367 59.4687 62.5267 59.6887 62.66C59.9153 62.7933 60.1553 62.86 60.4087 62.86C60.6687 62.86 60.912 62.7967 61.1387 62.67C61.3653 62.5367 61.5453 62.35 61.6787 62.11C61.812 61.8633 61.8787 61.57 61.8787 61.23ZM66.586 62.53L65.416 65.34H64.516L65.166 62.53H66.586ZM70.4479 58V56.71H72.8579V64H71.4179V58H70.4479ZM78.4209 58.53C78.3543 58.25 78.2376 58.04 78.0709 57.9C77.9109 57.76 77.6776 57.69 77.3709 57.69C76.9109 57.69 76.5709 57.8767 76.3509 58.25C76.1376 58.6167 76.0276 59.2167 76.0209 60.05C76.1809 59.7833 76.4143 59.5767 76.7209 59.43C77.0276 59.2767 77.3609 59.2 77.7209 59.2C78.1543 59.2 78.5376 59.2933 78.8709 59.48C79.2043 59.6667 79.4643 59.94 79.6509 60.3C79.8376 60.6533 79.9309 61.08 79.9309 61.58C79.9309 62.0533 79.8343 62.4767 79.6409 62.85C79.4543 63.2167 79.1776 63.5033 78.8109 63.71C78.4443 63.9167 78.0076 64.02 77.5009 64.02C76.8076 64.02 76.2609 63.8667 75.8609 63.56C75.4676 63.2533 75.1909 62.8267 75.0309 62.28C74.8776 61.7267 74.8009 61.0467 74.8009 60.24C74.8009 59.02 75.0109 58.1 75.4309 57.48C75.8509 56.8533 76.5143 56.54 77.4209 56.54C78.1209 56.54 78.6643 56.73 79.0509 57.11C79.4376 57.49 79.6609 57.9633 79.7209 58.53H78.4209ZM77.4009 60.35C77.0476 60.35 76.7509 60.4533 76.5109 60.66C76.2709 60.8667 76.1509 61.1667 76.1509 61.56C76.1509 61.9533 76.2609 62.2633 76.4809 62.49C76.7076 62.7167 77.0243 62.83 77.4309 62.83C77.7909 62.83 78.0743 62.72 78.2809 62.5C78.4943 62.28 78.6009 61.9833 78.6009 61.61C78.6009 61.2233 78.4976 60.9167 78.2909 60.69C78.0909 60.4633 77.7943 60.35 77.4009 60.35Z" fill="white"/>
<rect x="100" y="55.5" width="36" height="11" fill="#44454F" stroke="#2F67D4" stroke-width="2" stroke-dasharray="4 4"/>
<path d="M149 55.25V66.0735" stroke="#2F67D4" stroke-width="2"/>
<path d="M153 66.75L145 66.75" stroke="#2F67D4" stroke-width="2"/>
<path d="M153 55.9265L145 55.9265" stroke="#2F67D4" stroke-width="2"/>
<path d="M171.855 55.832V67H169.615V62.248H164.831V67H162.591V55.832H164.831V60.424H169.615V55.832H171.855ZM182.94 62.376C182.94 62.696 182.918 62.984 182.876 63.24H176.396C176.449 63.88 176.673 64.3813 177.068 64.744C177.462 65.1067 177.948 65.288 178.524 65.288C179.356 65.288 179.948 64.9307 180.3 64.216H182.716C182.46 65.0693 181.969 65.7733 181.244 66.328C180.518 66.872 179.628 67.144 178.572 67.144C177.718 67.144 176.95 66.9573 176.268 66.584C175.596 66.2 175.068 65.6613 174.684 64.968C174.31 64.2747 174.124 63.4747 174.124 62.568C174.124 61.6507 174.31 60.8453 174.684 60.152C175.057 59.4587 175.58 58.9253 176.252 58.552C176.924 58.1787 177.697 57.992 178.572 57.992C179.414 57.992 180.166 58.1733 180.828 58.536C181.5 58.8987 182.017 59.416 182.38 60.088C182.753 60.7493 182.94 61.512 182.94 62.376ZM180.62 61.736C180.609 61.16 180.401 60.7013 179.996 60.36C179.59 60.008 179.094 59.832 178.508 59.832C177.953 59.832 177.484 60.0027 177.1 60.344C176.726 60.6747 176.497 61.1387 176.412 61.736H180.62ZM184.639 62.536C184.639 61.64 184.815 60.8453 185.167 60.152C185.529 59.4587 186.015 58.9253 186.623 58.552C187.241 58.1787 187.929 57.992 188.687 57.992C189.348 57.992 189.924 58.1253 190.415 58.392C190.916 58.6587 191.316 58.9947 191.615 59.4V58.136H193.871V67H191.615V65.704C191.327 66.12 190.927 66.4667 190.415 66.744C189.913 67.0107 189.332 67.144 188.671 67.144C187.924 67.144 187.241 66.952 186.623 66.568C186.015 66.184 185.529 65.6453 185.167 64.952C184.815 64.248 184.639 63.4427 184.639 62.536ZM191.615 62.568C191.615 62.024 191.508 61.56 191.295 61.176C191.081 60.7813 190.793 60.4827 190.431 60.28C190.068 60.0667 189.679 59.96 189.263 59.96C188.847 59.96 188.463 60.0613 188.111 60.264C187.759 60.4667 187.471 60.7653 187.247 61.16C187.033 61.544 186.927 62.0027 186.927 62.536C186.927 63.0693 187.033 63.5387 187.247 63.944C187.471 64.3387 187.759 64.6427 188.111 64.856C188.473 65.0693 188.857 65.176 189.263 65.176C189.679 65.176 190.068 65.0747 190.431 64.872C190.793 64.6587 191.081 64.36 191.295 63.976C191.508 63.5813 191.615 63.112 191.615 62.568ZM196.122 62.536C196.122 61.64 196.298 60.8453 196.65 60.152C197.013 59.4587 197.504 58.9253 198.122 58.552C198.741 58.1787 199.429 57.992 200.186 57.992C200.762 57.992 201.312 58.12 201.834 58.376C202.357 58.6213 202.773 58.952 203.082 59.368V55.16H205.354V67H203.082V65.688C202.805 66.1253 202.416 66.4773 201.914 66.744C201.413 67.0107 200.832 67.144 200.17 67.144C199.424 67.144 198.741 66.952 198.122 66.568C197.504 66.184 197.013 65.6453 196.65 64.952C196.298 64.248 196.122 63.4427 196.122 62.536ZM203.098 62.568C203.098 62.024 202.992 61.56 202.778 61.176C202.565 60.7813 202.277 60.4827 201.914 60.28C201.552 60.0667 201.162 59.96 200.746 59.96C200.33 59.96 199.946 60.0613 199.594 60.264C199.242 60.4667 198.954 60.7653 198.73 61.16C198.517 61.544 198.41 62.0027 198.41 62.536C198.41 63.0693 198.517 63.5387 198.73 63.944C198.954 64.3387 199.242 64.6427 199.594 64.856C199.957 65.0693 200.341 65.176 200.746 65.176C201.162 65.176 201.552 65.0747 201.914 64.872C202.277 64.6587 202.565 64.36 202.778 63.976C202.992 63.5813 203.098 63.112 203.098 62.568ZM209.318 57.08C208.923 57.08 208.593 56.9573 208.326 56.712C208.07 56.456 207.942 56.1413 207.942 55.768C207.942 55.3947 208.07 55.0853 208.326 54.84C208.593 54.584 208.923 54.456 209.318 54.456C209.713 54.456 210.038 54.584 210.294 54.84C210.561 55.0853 210.694 55.3947 210.694 55.768C210.694 56.1413 210.561 56.456 210.294 56.712C210.038 56.9573 209.713 57.08 209.318 57.08ZM210.422 58.136V67H208.182V58.136H210.422ZM218.187 58.008C219.243 58.008 220.097 58.344 220.747 59.016C221.398 59.6773 221.723 60.6053 221.723 61.8V67H219.483V62.104C219.483 61.4 219.307 60.8613 218.955 60.488C218.603 60.104 218.123 59.912 217.515 59.912C216.897 59.912 216.406 60.104 216.043 60.488C215.691 60.8613 215.515 61.4 215.515 62.104V67H213.275V58.136H215.515V59.24C215.814 58.856 216.193 58.5573 216.651 58.344C217.121 58.12 217.633 58.008 218.187 58.008ZM227.965 57.992C228.627 57.992 229.208 58.1253 229.709 58.392C230.211 58.648 230.605 58.984 230.893 59.4V58.136H233.149V67.064C233.149 67.8853 232.984 68.616 232.653 69.256C232.323 69.9067 231.827 70.4187 231.165 70.792C230.504 71.176 229.704 71.368 228.765 71.368C227.507 71.368 226.472 71.0747 225.661 70.488C224.861 69.9013 224.408 69.1013 224.301 68.088H226.525C226.643 68.4933 226.893 68.8133 227.277 69.048C227.672 69.2933 228.147 69.416 228.701 69.416C229.352 69.416 229.88 69.2187 230.285 68.824C230.691 68.44 230.893 67.8533 230.893 67.064V65.688C230.605 66.104 230.205 66.4507 229.693 66.728C229.192 67.0053 228.616 67.144 227.965 67.144C227.219 67.144 226.536 66.952 225.917 66.568C225.299 66.184 224.808 65.6453 224.445 64.952C224.093 64.248 223.917 63.4427 223.917 62.536C223.917 61.64 224.093 60.8453 224.445 60.152C224.808 59.4587 225.293 58.9253 225.901 58.552C226.52 58.1787 227.208 57.992 227.965 57.992ZM230.893 62.568C230.893 62.024 230.787 61.56 230.573 61.176C230.36 60.7813 230.072 60.4827 229.709 60.28C229.347 60.0667 228.957 59.96 228.541 59.96C228.125 59.96 227.741 60.0613 227.389 60.264C227.037 60.4667 226.749 60.7653 226.525 61.16C226.312 61.544 226.205 62.0027 226.205 62.536C226.205 63.0693 226.312 63.5387 226.525 63.944C226.749 64.3387 227.037 64.6427 227.389 64.856C227.752 65.0693 228.136 65.176 228.541 65.176C228.957 65.176 229.347 65.0747 229.709 64.872C230.072 64.6587 230.36 64.36 230.573 63.976C230.787 63.5813 230.893 63.112 230.893 62.568ZM240.878 64.472C241.902 63.6187 242.718 62.9093 243.326 62.344C243.934 61.768 244.44 61.1707 244.846 60.552C245.251 59.9333 245.454 59.3253 245.454 58.728C245.454 58.184 245.326 57.7573 245.07 57.448C244.814 57.1387 244.419 56.984 243.886 56.984C243.352 56.984 242.942 57.1653 242.654 57.528C242.366 57.88 242.216 58.3653 242.206 58.984H240.03C240.072 57.704 240.451 56.7333 241.166 56.072C241.891 55.4107 242.808 55.08 243.918 55.08C245.134 55.08 246.067 55.4053 246.718 56.056C247.368 56.696 247.694 57.544 247.694 58.6C247.694 59.432 247.47 60.2267 247.022 60.984C246.574 61.7413 246.062 62.4027 245.486 62.968C244.91 63.5227 244.158 64.1947 243.23 64.984H247.95V66.84H240.046V65.176L240.878 64.472Z" fill="white" fill-opacity="0.9"/>
<rect y="92" width="91" height="30" rx="8" fill="#5870DC"/>
<path d="M23.5137 103.02V110H22.1137V105.46L20.2437 110H19.1837L17.3037 105.46V110H15.9037V103.02H17.4937L19.7137 108.21L21.9337 103.02H23.5137ZM30.4478 107.11C30.4478 107.31 30.4345 107.49 30.4078 107.65H26.3578C26.3911 108.05 26.5311 108.363 26.7778 108.59C27.0245 108.817 27.3278 108.93 27.6878 108.93C28.2078 108.93 28.5778 108.707 28.7978 108.26H30.3078C30.1478 108.793 29.8411 109.233 29.3878 109.58C28.9345 109.92 28.3778 110.09 27.7178 110.09C27.1845 110.09 26.7045 109.973 26.2778 109.74C25.8578 109.5 25.5278 109.163 25.2878 108.73C25.0545 108.297 24.9378 107.797 24.9378 107.23C24.9378 106.657 25.0545 106.153 25.2878 105.72C25.5211 105.287 25.8478 104.953 26.2678 104.72C26.6878 104.487 27.1711 104.37 27.7178 104.37C28.2445 104.37 28.7145 104.483 29.1278 104.71C29.5478 104.937 29.8711 105.26 30.0978 105.68C30.3311 106.093 30.4478 106.57 30.4478 107.11ZM28.9978 106.71C28.9911 106.35 28.8611 106.063 28.6078 105.85C28.3545 105.63 28.0445 105.52 27.6778 105.52C27.3311 105.52 27.0378 105.627 26.7978 105.84C26.5645 106.047 26.4211 106.337 26.3678 106.71H28.9978ZM31.5097 107.21C31.5097 106.65 31.6197 106.153 31.8397 105.72C32.0664 105.287 32.373 104.953 32.7597 104.72C33.1464 104.487 33.5764 104.37 34.0497 104.37C34.4097 104.37 34.753 104.45 35.0797 104.61C35.4064 104.763 35.6664 104.97 35.8597 105.23V102.6H37.2797V110H35.8597V109.18C35.6864 109.453 35.443 109.673 35.1297 109.84C34.8164 110.007 34.453 110.09 34.0397 110.09C33.573 110.09 33.1464 109.97 32.7597 109.73C32.373 109.49 32.0664 109.153 31.8397 108.72C31.6197 108.28 31.5097 107.777 31.5097 107.21ZM35.8697 107.23C35.8697 106.89 35.803 106.6 35.6697 106.36C35.5364 106.113 35.3564 105.927 35.1297 105.8C34.903 105.667 34.6597 105.6 34.3997 105.6C34.1397 105.6 33.8997 105.663 33.6797 105.79C33.4597 105.917 33.2797 106.103 33.1397 106.35C33.0064 106.59 32.9397 106.877 32.9397 107.21C32.9397 107.543 33.0064 107.837 33.1397 108.09C33.2797 108.337 33.4597 108.527 33.6797 108.66C33.9064 108.793 34.1464 108.86 34.3997 108.86C34.6597 108.86 34.903 108.797 35.1297 108.67C35.3564 108.537 35.5364 108.35 35.6697 108.11C35.803 107.863 35.8697 107.57 35.8697 107.23ZM39.757 103.8C39.5104 103.8 39.3037 103.723 39.137 103.57C38.977 103.41 38.897 103.213 38.897 102.98C38.897 102.747 38.977 102.553 39.137 102.4C39.3037 102.24 39.5104 102.16 39.757 102.16C40.0037 102.16 40.207 102.24 40.367 102.4C40.5337 102.553 40.617 102.747 40.617 102.98C40.617 103.213 40.5337 103.41 40.367 103.57C40.207 103.723 40.0037 103.8 39.757 103.8ZM40.447 104.46V110H39.047V104.46H40.447ZM47.4602 104.46V110H46.0502V109.3C45.8702 109.54 45.6336 109.73 45.3402 109.87C45.0536 110.003 44.7402 110.07 44.4002 110.07C43.9669 110.07 43.5836 109.98 43.2502 109.8C42.9169 109.613 42.6536 109.343 42.4602 108.99C42.2736 108.63 42.1802 108.203 42.1802 107.71V104.46H43.5802V107.51C43.5802 107.95 43.6902 108.29 43.9102 108.53C44.1302 108.763 44.4302 108.88 44.8102 108.88C45.1969 108.88 45.5002 108.763 45.7202 108.53C45.9402 108.29 46.0502 107.95 46.0502 107.51V104.46H47.4602ZM56.1216 104.38C56.8016 104.38 57.3482 104.59 57.7616 105.01C58.1816 105.423 58.3916 106.003 58.3916 106.75V110H56.9916V106.94C56.9916 106.507 56.8816 106.177 56.6616 105.95C56.4416 105.717 56.1416 105.6 55.7616 105.6C55.3816 105.6 55.0782 105.717 54.8516 105.95C54.6316 106.177 54.5216 106.507 54.5216 106.94V110H53.1216V106.94C53.1216 106.507 53.0116 106.177 52.7916 105.95C52.5716 105.717 52.2716 105.6 51.8916 105.6C51.5049 105.6 51.1982 105.717 50.9716 105.95C50.7516 106.177 50.6416 106.507 50.6416 106.94V110H49.2416V104.46H50.6416V105.13C50.8216 104.897 51.0516 104.713 51.3316 104.58C51.6182 104.447 51.9316 104.38 52.2716 104.38C52.7049 104.38 53.0916 104.473 53.4316 104.66C53.7716 104.84 54.0349 105.1 54.2216 105.44C54.4016 105.12 54.6616 104.863 55.0016 104.67C55.3482 104.477 55.7216 104.38 56.1216 104.38ZM61.6501 108.53L60.4801 111.34H59.5801L60.2301 108.53H61.6501ZM65.512 104V102.71H67.922V110H66.482V104H65.512ZM69.645 108.58V107.48L72.915 102.8H74.545V107.36H75.425V108.58H74.545V110H73.145V108.58H69.645ZM73.235 104.3L71.185 107.36H73.235V104.3Z" fill="white"/>
<rect x="100" y="102" width="36" height="10" fill="#44454F" stroke="#2F67D4" stroke-width="2" stroke-dasharray="4 4"/>
<path d="M149 102.833V111.167" stroke="#2F67D4" stroke-width="2"/>
<path d="M153 102L145 102" stroke="#2F67D4" stroke-width="2"/>
<path d="M153 112L145 112" stroke="#2F67D4" stroke-width="2"/>
<path d="M170.226 101.77V111.5H168.63V107.244H164.052V111.5H162.456V101.77H164.052V105.942H168.63V101.77H170.226ZM179.957 107.454C179.957 107.743 179.938 108.005 179.901 108.238H174.007C174.053 108.854 174.282 109.349 174.693 109.722C175.103 110.095 175.607 110.282 176.205 110.282C177.063 110.282 177.67 109.923 178.025 109.204H179.747C179.513 109.913 179.089 110.497 178.473 110.954C177.866 111.402 177.11 111.626 176.205 111.626C175.467 111.626 174.805 111.463 174.217 111.136C173.638 110.8 173.181 110.333 172.845 109.736C172.518 109.129 172.355 108.429 172.355 107.636C172.355 106.843 172.513 106.147 172.831 105.55C173.157 104.943 173.61 104.477 174.189 104.15C174.777 103.823 175.449 103.66 176.205 103.66C176.933 103.66 177.581 103.819 178.151 104.136C178.72 104.453 179.163 104.901 179.481 105.48C179.798 106.049 179.957 106.707 179.957 107.454ZM178.291 106.95C178.281 106.362 178.071 105.891 177.661 105.536C177.25 105.181 176.741 105.004 176.135 105.004C175.584 105.004 175.113 105.181 174.721 105.536C174.329 105.881 174.095 106.353 174.021 106.95H178.291ZM181.555 107.608C181.555 106.833 181.714 106.147 182.031 105.55C182.358 104.953 182.797 104.491 183.347 104.164C183.907 103.828 184.523 103.66 185.195 103.66C185.802 103.66 186.329 103.781 186.777 104.024C187.235 104.257 187.599 104.551 187.869 104.906V103.786H189.479V111.5H187.869V110.352C187.599 110.716 187.23 111.019 186.763 111.262C186.297 111.505 185.765 111.626 185.167 111.626C184.505 111.626 183.898 111.458 183.347 111.122C182.797 110.777 182.358 110.301 182.031 109.694C181.714 109.078 181.555 108.383 181.555 107.608ZM187.869 107.636C187.869 107.104 187.757 106.642 187.533 106.25C187.319 105.858 187.034 105.559 186.679 105.354C186.325 105.149 185.942 105.046 185.531 105.046C185.121 105.046 184.738 105.149 184.383 105.354C184.029 105.55 183.739 105.844 183.515 106.236C183.301 106.619 183.193 107.076 183.193 107.608C183.193 108.14 183.301 108.607 183.515 109.008C183.739 109.409 184.029 109.717 184.383 109.932C184.747 110.137 185.13 110.24 185.531 110.24C185.942 110.24 186.325 110.137 186.679 109.932C187.034 109.727 187.319 109.428 187.533 109.036C187.757 108.635 187.869 108.168 187.869 107.636ZM191.604 107.608C191.604 106.833 191.762 106.147 192.08 105.55C192.406 104.953 192.845 104.491 193.396 104.164C193.956 103.828 194.576 103.66 195.258 103.66C195.762 103.66 196.256 103.772 196.742 103.996C197.236 104.211 197.628 104.5 197.918 104.864V101.14H199.528V111.5H197.918V110.338C197.656 110.711 197.292 111.019 196.826 111.262C196.368 111.505 195.841 111.626 195.244 111.626C194.572 111.626 193.956 111.458 193.396 111.122C192.845 110.777 192.406 110.301 192.08 109.694C191.762 109.078 191.604 108.383 191.604 107.608ZM197.918 107.636C197.918 107.104 197.806 106.642 197.582 106.25C197.367 105.858 197.082 105.559 196.728 105.354C196.373 105.149 195.99 105.046 195.58 105.046C195.169 105.046 194.786 105.149 194.432 105.354C194.077 105.55 193.788 105.844 193.564 106.236C193.349 106.619 193.242 107.076 193.242 107.608C193.242 108.14 193.349 108.607 193.564 109.008C193.788 109.409 194.077 109.717 194.432 109.932C194.796 110.137 195.178 110.24 195.58 110.24C195.99 110.24 196.373 110.137 196.728 109.932C197.082 109.727 197.367 109.428 197.582 109.036C197.806 108.635 197.918 108.168 197.918 107.636ZM202.996 102.764C202.706 102.764 202.464 102.666 202.268 102.47C202.072 102.274 201.974 102.031 201.974 101.742C201.974 101.453 202.072 101.21 202.268 101.014C202.464 100.818 202.706 100.72 202.996 100.72C203.276 100.72 203.514 100.818 203.71 101.014C203.906 101.21 204.004 101.453 204.004 101.742C204.004 102.031 203.906 102.274 203.71 102.47C203.514 102.666 203.276 102.764 202.996 102.764ZM203.78 103.786V111.5H202.184V103.786H203.78ZM210.327 103.66C210.934 103.66 211.475 103.786 211.951 104.038C212.437 104.29 212.815 104.663 213.085 105.158C213.356 105.653 213.491 106.25 213.491 106.95V111.5H211.909V107.188C211.909 106.497 211.737 105.97 211.391 105.606C211.046 105.233 210.575 105.046 209.977 105.046C209.38 105.046 208.904 105.233 208.549 105.606C208.204 105.97 208.031 106.497 208.031 107.188V111.5H206.435V103.786H208.031V104.668C208.293 104.351 208.624 104.103 209.025 103.926C209.436 103.749 209.87 103.66 210.327 103.66ZM219.195 103.66C219.792 103.66 220.32 103.781 220.777 104.024C221.244 104.257 221.608 104.551 221.869 104.906V103.786H223.479V111.626C223.479 112.335 223.33 112.965 223.031 113.516C222.732 114.076 222.298 114.515 221.729 114.832C221.169 115.149 220.497 115.308 219.713 115.308C218.668 115.308 217.8 115.061 217.109 114.566C216.418 114.081 216.026 113.418 215.933 112.578H217.515C217.636 112.979 217.893 113.301 218.285 113.544C218.686 113.796 219.162 113.922 219.713 113.922C220.357 113.922 220.875 113.726 221.267 113.334C221.668 112.942 221.869 112.373 221.869 111.626V110.338C221.598 110.702 221.23 111.01 220.763 111.262C220.306 111.505 219.783 111.626 219.195 111.626C218.523 111.626 217.907 111.458 217.347 111.122C216.796 110.777 216.358 110.301 216.031 109.694C215.714 109.078 215.555 108.383 215.555 107.608C215.555 106.833 215.714 106.147 216.031 105.55C216.358 104.953 216.796 104.491 217.347 104.164C217.907 103.828 218.523 103.66 219.195 103.66ZM221.869 107.636C221.869 107.104 221.757 106.642 221.533 106.25C221.318 105.858 221.034 105.559 220.679 105.354C220.324 105.149 219.942 105.046 219.531 105.046C219.12 105.046 218.738 105.149 218.383 105.354C218.028 105.55 217.739 105.844 217.515 106.236C217.3 106.619 217.193 107.076 217.193 107.608C217.193 108.14 217.3 108.607 217.515 109.008C217.739 109.409 218.028 109.717 218.383 109.932C218.747 110.137 219.13 110.24 219.531 110.24C219.942 110.24 220.324 110.137 220.679 109.932C221.034 109.727 221.318 109.428 221.533 109.036C221.757 108.635 221.869 108.168 221.869 107.636ZM230.094 103.814C230.15 102.946 230.481 102.269 231.088 101.784C231.704 101.299 232.488 101.056 233.44 101.056C234.093 101.056 234.658 101.173 235.134 101.406C235.61 101.639 235.969 101.957 236.212 102.358C236.455 102.759 236.576 103.212 236.576 103.716C236.576 104.295 236.422 104.789 236.114 105.2C235.806 105.611 235.437 105.886 235.008 106.026V106.082C235.559 106.25 235.988 106.558 236.296 107.006C236.604 107.445 236.758 108.009 236.758 108.7C236.758 109.251 236.632 109.741 236.38 110.17C236.128 110.599 235.755 110.94 235.26 111.192C234.765 111.435 234.173 111.556 233.482 111.556C232.474 111.556 231.643 111.299 230.99 110.786C230.346 110.263 230.001 109.517 229.954 108.546H231.494C231.531 109.041 231.723 109.447 232.068 109.764C232.413 110.072 232.88 110.226 233.468 110.226C234.037 110.226 234.476 110.072 234.784 109.764C235.092 109.447 235.246 109.041 235.246 108.546C235.246 107.893 235.036 107.431 234.616 107.16C234.205 106.88 233.571 106.74 232.712 106.74H232.348V105.424H232.726C233.482 105.415 234.056 105.289 234.448 105.046C234.849 104.803 235.05 104.421 235.05 103.898C235.05 103.45 234.905 103.095 234.616 102.834C234.327 102.563 233.916 102.428 233.384 102.428C232.861 102.428 232.455 102.563 232.166 102.834C231.877 103.095 231.704 103.422 231.648 103.814H230.094Z" fill="white" fill-opacity="0.9"/>
<rect y="138" width="91" height="30" rx="8" fill="#5870DC"/>
<path d="M20.3613 156L18.8213 153.28H18.1613V156H16.7613V149.02H19.3813C19.9213 149.02 20.3813 149.117 20.7613 149.31C21.1413 149.497 21.4246 149.753 21.6113 150.08C21.8046 150.4 21.9013 150.76 21.9013 151.16C21.9013 151.62 21.768 152.037 21.5013 152.41C21.2346 152.777 20.838 153.03 20.3113 153.17L21.9813 156H20.3613ZM18.1613 152.23H19.3313C19.7113 152.23 19.9946 152.14 20.1813 151.96C20.368 151.773 20.4613 151.517 20.4613 151.19C20.4613 150.87 20.368 150.623 20.1813 150.45C19.9946 150.27 19.7113 150.18 19.3313 150.18H18.1613V152.23ZM28.7175 153.11C28.7175 153.31 28.7042 153.49 28.6775 153.65H24.6275C24.6609 154.05 24.8009 154.363 25.0475 154.59C25.2942 154.817 25.5975 154.93 25.9575 154.93C26.4775 154.93 26.8475 154.707 27.0675 154.26H28.5775C28.4175 154.793 28.1109 155.233 27.6575 155.58C27.2042 155.92 26.6475 156.09 25.9875 156.09C25.4542 156.09 24.9742 155.973 24.5475 155.74C24.1275 155.5 23.7975 155.163 23.5575 154.73C23.3242 154.297 23.2075 153.797 23.2075 153.23C23.2075 152.657 23.3242 152.153 23.5575 151.72C23.7909 151.287 24.1175 150.953 24.5375 150.72C24.9575 150.487 25.4409 150.37 25.9875 150.37C26.5142 150.37 26.9842 150.483 27.3975 150.71C27.8175 150.937 28.1409 151.26 28.3675 151.68C28.6009 152.093 28.7175 152.57 28.7175 153.11ZM27.2675 152.71C27.2609 152.35 27.1309 152.063 26.8775 151.85C26.6242 151.63 26.3142 151.52 25.9475 151.52C25.6009 151.52 25.3075 151.627 25.0675 151.84C24.8342 152.047 24.6909 152.337 24.6375 152.71H27.2675ZM32.3094 150.37C32.7227 150.37 33.0861 150.453 33.3994 150.62C33.7127 150.78 33.9594 150.99 34.1394 151.25V150.46H35.5494V156.04C35.5494 156.553 35.4461 157.01 35.2394 157.41C35.0327 157.817 34.7227 158.137 34.3094 158.37C33.8961 158.61 33.3961 158.73 32.8094 158.73C32.0227 158.73 31.3761 158.547 30.8694 158.18C30.3694 157.813 30.0861 157.313 30.0194 156.68H31.4094C31.4827 156.933 31.6394 157.133 31.8794 157.28C32.1261 157.433 32.4227 157.51 32.7694 157.51C33.1761 157.51 33.5061 157.387 33.7594 157.14C34.0127 156.9 34.1394 156.533 34.1394 156.04V155.18C33.9594 155.44 33.7094 155.657 33.3894 155.83C33.0761 156.003 32.7161 156.09 32.3094 156.09C31.8427 156.09 31.4161 155.97 31.0294 155.73C30.6427 155.49 30.3361 155.153 30.1094 154.72C29.8894 154.28 29.7794 153.777 29.7794 153.21C29.7794 152.65 29.8894 152.153 30.1094 151.72C30.3361 151.287 30.6394 150.953 31.0194 150.72C31.4061 150.487 31.8361 150.37 32.3094 150.37ZM34.1394 153.23C34.1394 152.89 34.0727 152.6 33.9394 152.36C33.8061 152.113 33.6261 151.927 33.3994 151.8C33.1727 151.667 32.9294 151.6 32.6694 151.6C32.4094 151.6 32.1694 151.663 31.9494 151.79C31.7294 151.917 31.5494 152.103 31.4094 152.35C31.2761 152.59 31.2094 152.877 31.2094 153.21C31.2094 153.543 31.2761 153.837 31.4094 154.09C31.5494 154.337 31.7294 154.527 31.9494 154.66C32.1761 154.793 32.4161 154.86 32.6694 154.86C32.9294 154.86 33.1727 154.797 33.3994 154.67C33.6261 154.537 33.8061 154.35 33.9394 154.11C34.0727 153.863 34.1394 153.57 34.1394 153.23ZM42.5468 150.46V156H41.1368V155.3C40.9568 155.54 40.7201 155.73 40.4268 155.87C40.1401 156.003 39.8268 156.07 39.4868 156.07C39.0534 156.07 38.6701 155.98 38.3368 155.8C38.0034 155.613 37.7401 155.343 37.5468 154.99C37.3601 154.63 37.2668 154.203 37.2668 153.71V150.46H38.6668V153.51C38.6668 153.95 38.7768 154.29 38.9968 154.53C39.2168 154.763 39.5168 154.88 39.8968 154.88C40.2834 154.88 40.5868 154.763 40.8068 154.53C41.0268 154.29 41.1368 153.95 41.1368 153.51V150.46H42.5468ZM45.7281 148.6V156H44.3281V148.6H45.7281ZM47.1513 153.21C47.1513 152.65 47.2613 152.153 47.4813 151.72C47.708 151.287 48.0113 150.953 48.3913 150.72C48.778 150.487 49.208 150.37 49.6813 150.37C50.0946 150.37 50.4546 150.453 50.7613 150.62C51.0746 150.787 51.3246 150.997 51.5113 151.25V150.46H52.9213V156H51.5113V155.19C51.3313 155.45 51.0813 155.667 50.7613 155.84C50.448 156.007 50.0846 156.09 49.6713 156.09C49.2046 156.09 48.778 155.97 48.3913 155.73C48.0113 155.49 47.708 155.153 47.4813 154.72C47.2613 154.28 47.1513 153.777 47.1513 153.21ZM51.5113 153.23C51.5113 152.89 51.4446 152.6 51.3113 152.36C51.178 152.113 50.998 151.927 50.7713 151.8C50.5446 151.667 50.3013 151.6 50.0413 151.6C49.7813 151.6 49.5413 151.663 49.3213 151.79C49.1013 151.917 48.9213 152.103 48.7813 152.35C48.648 152.59 48.5813 152.877 48.5813 153.21C48.5813 153.543 48.648 153.837 48.7813 154.09C48.9213 154.337 49.1013 154.527 49.3213 154.66C49.548 154.793 49.788 154.86 50.0413 154.86C50.3013 154.86 50.5446 154.797 50.7713 154.67C50.998 154.537 51.178 154.35 51.3113 154.11C51.4446 153.863 51.5113 153.57 51.5113 153.23ZM56.0886 151.32C56.2686 151.027 56.502 150.797 56.7886 150.63C57.082 150.463 57.4153 150.38 57.7886 150.38V151.85H57.4186C56.9786 151.85 56.6453 151.953 56.4186 152.16C56.1986 152.367 56.0886 152.727 56.0886 153.24V156H54.6886V150.46H56.0886V151.32ZM60.6616 154.53L59.4916 157.34H58.5916L59.2416 154.53H60.6616ZM64.5235 150V148.71H66.9335V156H65.4935V150H64.5235ZM69.1565 154.42C69.7965 153.887 70.3065 153.443 70.6865 153.09C71.0665 152.73 71.3832 152.357 71.6365 151.97C71.8899 151.583 72.0165 151.203 72.0165 150.83C72.0165 150.49 71.9365 150.223 71.7765 150.03C71.6165 149.837 71.3699 149.74 71.0365 149.74C70.7032 149.74 70.4465 149.853 70.2665 150.08C70.0865 150.3 69.9932 150.603 69.9865 150.99H68.6265C68.6532 150.19 68.8899 149.583 69.3365 149.17C69.7899 148.757 70.3632 148.55 71.0565 148.55C71.8165 148.55 72.3999 148.753 72.8065 149.16C73.2132 149.56 73.4165 150.09 73.4165 150.75C73.4165 151.27 73.2765 151.767 72.9965 152.24C72.7165 152.713 72.3965 153.127 72.0365 153.48C71.6765 153.827 71.2065 154.247 70.6265 154.74H73.5765V155.9H68.6365V154.86L69.1565 154.42Z" fill="white"/>
<rect x="100" y="148" width="36" height="10" fill="#44454F" stroke="#2F67D4" stroke-width="2" stroke-dasharray="4 4"/>
<path d="M149 148.833V157.167" stroke="#2F67D4" stroke-width="2"/>
<path d="M153 148L145 148" stroke="#2F67D4" stroke-width="2"/>
<path d="M153 158L145 158" stroke="#2F67D4" stroke-width="2"/>
<path d="M167.534 151.084C167.534 151.78 167.294 152.36 166.814 152.824C166.342 153.28 165.618 153.508 164.642 153.508H163.034V157H161.942V148.636H164.642C165.586 148.636 166.302 148.864 166.79 149.32C167.286 149.776 167.534 150.364 167.534 151.084ZM164.642 152.608C165.25 152.608 165.698 152.476 165.986 152.212C166.274 151.948 166.418 151.572 166.418 151.084C166.418 150.052 165.826 149.536 164.642 149.536H163.034V152.608H164.642ZM168.963 153.688C168.963 153.016 169.099 152.428 169.371 151.924C169.643 151.412 170.015 151.016 170.487 150.736C170.967 150.456 171.499 150.316 172.083 150.316C172.659 150.316 173.159 150.44 173.583 150.688C174.007 150.936 174.323 151.248 174.531 151.624V150.424H175.635V157H174.531V155.776C174.315 156.16 173.991 156.48 173.559 156.736C173.135 156.984 172.639 157.108 172.071 157.108C171.487 157.108 170.959 156.964 170.487 156.676C170.015 156.388 169.643 155.984 169.371 155.464C169.099 154.944 168.963 154.352 168.963 153.688ZM174.531 153.7C174.531 153.204 174.431 152.772 174.231 152.404C174.031 152.036 173.759 151.756 173.415 151.564C173.079 151.364 172.707 151.264 172.299 151.264C171.891 151.264 171.519 151.36 171.183 151.552C170.847 151.744 170.579 152.024 170.379 152.392C170.179 152.76 170.079 153.192 170.079 153.688C170.079 154.192 170.179 154.632 170.379 155.008C170.579 155.376 170.847 155.66 171.183 155.86C171.519 156.052 171.891 156.148 172.299 156.148C172.707 156.148 173.079 156.052 173.415 155.86C173.759 155.66 174.031 155.376 174.231 155.008C174.431 154.632 174.531 154.196 174.531 153.7ZM179.052 151.492C179.244 151.116 179.516 150.824 179.868 150.616C180.228 150.408 180.664 150.304 181.176 150.304V151.432H180.888C179.664 151.432 179.052 152.096 179.052 153.424V157H177.96V150.424H179.052V151.492ZM182.509 153.688C182.509 153.016 182.645 152.428 182.917 151.924C183.189 151.412 183.561 151.016 184.033 150.736C184.513 150.456 185.045 150.316 185.629 150.316C186.205 150.316 186.705 150.44 187.129 150.688C187.553 150.936 187.869 151.248 188.077 151.624V150.424H189.181V157H188.077V155.776C187.861 156.16 187.537 156.48 187.105 156.736C186.681 156.984 186.185 157.108 185.617 157.108C185.033 157.108 184.505 156.964 184.033 156.676C183.561 156.388 183.189 155.984 182.917 155.464C182.645 154.944 182.509 154.352 182.509 153.688ZM188.077 153.7C188.077 153.204 187.977 152.772 187.777 152.404C187.577 152.036 187.305 151.756 186.961 151.564C186.625 151.364 186.253 151.264 185.845 151.264C185.437 151.264 185.065 151.36 184.729 151.552C184.393 151.744 184.125 152.024 183.925 152.392C183.725 152.76 183.625 153.192 183.625 153.688C183.625 154.192 183.725 154.632 183.925 155.008C184.125 155.376 184.393 155.66 184.729 155.86C185.065 156.052 185.437 156.148 185.845 156.148C186.253 156.148 186.625 156.052 186.961 155.86C187.305 155.66 187.577 155.376 187.777 155.008C187.977 154.632 188.077 154.196 188.077 153.7ZM194.218 150.316C194.786 150.316 195.282 150.44 195.706 150.688C196.138 150.936 196.458 151.248 196.666 151.624V150.424H197.77V157.144C197.77 157.744 197.642 158.276 197.386 158.74C197.13 159.212 196.762 159.58 196.282 159.844C195.81 160.108 195.258 160.24 194.626 160.24C193.762 160.24 193.042 160.036 192.466 159.628C191.89 159.22 191.55 158.664 191.446 157.96H192.526C192.646 158.36 192.894 158.68 193.27 158.92C193.646 159.168 194.098 159.292 194.626 159.292C195.226 159.292 195.714 159.104 196.09 158.728C196.474 158.352 196.666 157.824 196.666 157.144V155.764C196.45 156.148 196.13 156.468 195.706 156.724C195.282 156.98 194.786 157.108 194.218 157.108C193.634 157.108 193.102 156.964 192.622 156.676C192.15 156.388 191.778 155.984 191.506 155.464C191.234 154.944 191.098 154.352 191.098 153.688C191.098 153.016 191.234 152.428 191.506 151.924C191.778 151.412 192.15 151.016 192.622 150.736C193.102 150.456 193.634 150.316 194.218 150.316ZM196.666 153.7C196.666 153.204 196.566 152.772 196.366 152.404C196.166 152.036 195.894 151.756 195.55 151.564C195.214 151.364 194.842 151.264 194.434 151.264C194.026 151.264 193.654 151.36 193.318 151.552C192.982 151.744 192.714 152.024 192.514 152.392C192.314 152.76 192.214 153.192 192.214 153.688C192.214 154.192 192.314 154.632 192.514 155.008C192.714 155.376 192.982 155.66 193.318 155.86C193.654 156.052 194.026 156.148 194.434 156.148C194.842 156.148 195.214 156.052 195.55 155.86C195.894 155.66 196.166 155.376 196.366 155.008C196.566 154.632 196.666 154.196 196.666 153.7ZM201.187 151.492C201.379 151.116 201.651 150.824 202.003 150.616C202.363 150.408 202.799 150.304 203.311 150.304V151.432H203.023C201.799 151.432 201.187 152.096 201.187 153.424V157H200.095V150.424H201.187V151.492ZM204.644 153.688C204.644 153.016 204.78 152.428 205.052 151.924C205.324 151.412 205.696 151.016 206.168 150.736C206.648 150.456 207.18 150.316 207.764 150.316C208.34 150.316 208.84 150.44 209.264 150.688C209.688 150.936 210.004 151.248 210.212 151.624V150.424H211.316V157H210.212V155.776C209.996 156.16 209.672 156.48 209.24 156.736C208.816 156.984 208.32 157.108 207.752 157.108C207.168 157.108 206.64 156.964 206.168 156.676C205.696 156.388 205.324 155.984 205.052 155.464C204.78 154.944 204.644 154.352 204.644 153.688ZM210.212 153.7C210.212 153.204 210.112 152.772 209.912 152.404C209.712 152.036 209.44 151.756 209.096 151.564C208.76 151.364 208.388 151.264 207.98 151.264C207.572 151.264 207.2 151.36 206.864 151.552C206.528 151.744 206.26 152.024 206.06 152.392C205.86 152.76 205.76 153.192 205.76 153.688C205.76 154.192 205.86 154.632 206.06 155.008C206.26 155.376 206.528 155.66 206.864 155.86C207.2 156.052 207.572 156.148 207.98 156.148C208.388 156.148 208.76 156.052 209.096 155.86C209.44 155.66 209.712 155.376 209.912 155.008C210.112 154.632 210.212 154.196 210.212 153.7ZM214.733 151.636C214.949 151.26 215.269 150.948 215.693 150.7C216.125 150.444 216.625 150.316 217.193 150.316C217.777 150.316 218.305 150.456 218.777 150.736C219.257 151.016 219.633 151.412 219.905 151.924C220.177 152.428 220.313 153.016 220.313 153.688C220.313 154.352 220.177 154.944 219.905 155.464C219.633 155.984 219.257 156.388 218.777 156.676C218.305 156.964 217.777 157.108 217.193 157.108C216.633 157.108 216.137 156.984 215.705 156.736C215.281 156.48 214.957 156.164 214.733 155.788V160.12H213.641V150.424H214.733V151.636ZM219.197 153.688C219.197 153.192 219.097 152.76 218.897 152.392C218.697 152.024 218.425 151.744 218.081 151.552C217.745 151.36 217.373 151.264 216.965 151.264C216.565 151.264 216.193 151.364 215.849 151.564C215.513 151.756 215.241 152.04 215.033 152.416C214.833 152.784 214.733 153.212 214.733 153.7C214.733 154.196 214.833 154.632 215.033 155.008C215.241 155.376 215.513 155.66 215.849 155.86C216.193 156.052 216.565 156.148 216.965 156.148C217.373 156.148 217.745 156.052 218.081 155.86C218.425 155.66 218.697 155.376 218.897 155.008C219.097 154.632 219.197 154.192 219.197 153.688ZM225.495 150.304C225.991 150.304 226.439 150.412 226.839 150.628C227.239 150.836 227.551 151.152 227.775 151.576C228.007 152 228.123 152.516 228.123 153.124V157H227.043V153.28C227.043 152.624 226.879 152.124 226.551 151.78C226.223 151.428 225.775 151.252 225.207 151.252C224.631 151.252 224.171 151.432 223.827 151.792C223.491 152.152 223.323 152.676 223.323 153.364V157H222.231V148.12H223.323V151.36C223.539 151.024 223.835 150.764 224.211 150.58C224.595 150.396 225.023 150.304 225.495 150.304Z" fill="white" fill-opacity="0.9"/>
</svg>
