<svg width="389" height="204" viewBox="0 0 389 204" fill="none" xmlns="http://www.w3.org/2000/svg">
<rect y="15" width="91" height="30" rx="8" fill="#5870DC"/>
<path d="M12.7769 34.12C12.3102 34.12 11.8769 34.0333 11.4769 33.86C11.0769 33.68 10.7369 33.4367 10.4569 33.13C10.1769 32.8233 9.97021 32.47 9.83687 32.07L10.8369 31.65C11.0169 32.11 11.2802 32.4633 11.6269 32.71C11.9735 32.9567 12.3735 33.08 12.8269 33.08C13.0935 33.08 13.3269 33.04 13.5269 32.96C13.7269 32.8733 13.8802 32.7533 13.9869 32.6C14.1002 32.4467 14.1569 32.27 14.1569 32.07C14.1569 31.7967 14.0802 31.58 13.9269 31.42C13.7735 31.26 13.5469 31.1333 13.2469 31.04L11.8469 30.6C11.2869 30.4267 10.8602 30.1633 10.5669 29.81C10.2735 29.45 10.1269 29.03 10.1269 28.55C10.1269 28.13 10.2302 27.7633 10.4369 27.45C10.6435 27.13 10.9269 26.88 11.2869 26.7C11.6535 26.52 12.0702 26.43 12.5369 26.43C12.9835 26.43 13.3902 26.51 13.7569 26.67C14.1235 26.8233 14.4369 27.0367 14.6969 27.31C14.9635 27.5833 15.1569 27.9 15.2769 28.26L14.2969 28.69C14.1502 28.2967 13.9202 27.9933 13.6069 27.78C13.3002 27.5667 12.9435 27.46 12.5369 27.46C12.2902 27.46 12.0735 27.5033 11.8869 27.59C11.7002 27.67 11.5535 27.79 11.4469 27.95C11.3469 28.1033 11.2969 28.2833 11.2969 28.49C11.2969 28.73 11.3735 28.9433 11.5269 29.13C11.6802 29.3167 11.9135 29.4567 12.2269 29.55L13.5269 29.96C14.1202 30.14 14.5669 30.4 14.8669 30.74C15.1669 31.0733 15.3169 31.49 15.3169 31.99C15.3169 32.4033 15.2069 32.77 14.9869 33.09C14.7735 33.41 14.4769 33.6633 14.0969 33.85C13.7169 34.03 13.2769 34.12 12.7769 34.12ZM19.4715 34.12C18.9315 34.12 18.4515 33.9967 18.0315 33.75C17.6181 33.4967 17.2948 33.1567 17.0615 32.73C16.8281 32.2967 16.7115 31.8133 16.7115 31.28C16.7115 30.7333 16.8281 30.25 17.0615 29.83C17.3015 29.41 17.6215 29.08 18.0215 28.84C18.4215 28.5933 18.8748 28.47 19.3815 28.47C19.7881 28.47 20.1515 28.54 20.4715 28.68C20.7915 28.82 21.0615 29.0133 21.2815 29.26C21.5015 29.5 21.6681 29.7767 21.7815 30.09C21.9015 30.4033 21.9615 30.7367 21.9615 31.09C21.9615 31.1767 21.9581 31.2667 21.9515 31.36C21.9448 31.4533 21.9315 31.54 21.9115 31.62H17.6015V30.72H21.2715L20.7315 31.13C20.7981 30.8033 20.7748 30.5133 20.6615 30.26C20.5548 30 20.3881 29.7967 20.1615 29.65C19.9415 29.4967 19.6815 29.42 19.3815 29.42C19.0815 29.42 18.8148 29.4967 18.5815 29.65C18.3481 29.7967 18.1681 30.01 18.0415 30.29C17.9148 30.5633 17.8648 30.8967 17.8915 31.29C17.8581 31.6567 17.9081 31.9767 18.0415 32.25C18.1815 32.5233 18.3748 32.7367 18.6215 32.89C18.8748 33.0433 19.1615 33.12 19.4815 33.12C19.8081 33.12 20.0848 33.0467 20.3115 32.9C20.5448 32.7533 20.7281 32.5633 20.8615 32.33L21.7815 32.78C21.6748 33.0333 21.5081 33.2633 21.2815 33.47C21.0615 33.67 20.7948 33.83 20.4815 33.95C20.1748 34.0633 19.8381 34.12 19.4715 34.12ZM23.4643 34V28.59H24.5443V29.76L24.4043 29.58C24.5176 29.2133 24.7243 28.9367 25.0243 28.75C25.3243 28.5633 25.6676 28.47 26.0543 28.47C26.4876 28.47 26.871 28.5867 27.2043 28.82C27.5443 29.0467 27.771 29.35 27.8843 29.73L27.5643 29.76C27.7243 29.3267 27.9676 29.0033 28.2943 28.79C28.6276 28.5767 29.0076 28.47 29.4343 28.47C29.8076 28.47 30.1443 28.5567 30.4443 28.73C30.751 28.9033 30.9943 29.1433 31.1743 29.45C31.3543 29.7567 31.4443 30.1067 31.4443 30.5V34H30.3143V30.81C30.3143 30.5367 30.2643 30.3067 30.1643 30.12C30.071 29.9267 29.9376 29.78 29.7643 29.68C29.5976 29.5733 29.401 29.52 29.1743 29.52C28.9476 29.52 28.7476 29.5733 28.5743 29.68C28.401 29.78 28.2643 29.9267 28.1643 30.12C28.0643 30.3133 28.0143 30.5433 28.0143 30.81V34H26.8943V30.81C26.8943 30.5367 26.8443 30.3067 26.7443 30.12C26.651 29.9267 26.5176 29.78 26.3443 29.68C26.1776 29.5733 25.9776 29.52 25.7443 29.52C25.5176 29.52 25.3176 29.5733 25.1443 29.68C24.971 29.78 24.8343 29.9267 24.7343 30.12C24.641 30.3133 24.5943 30.5433 24.5943 30.81V34H23.4643ZM33.0537 34V28.59H34.1837V34H33.0537ZM33.0537 27.85V26.55H34.1837V27.85H33.0537ZM38.163 34V26.55H41.303C41.7696 26.55 42.173 26.6333 42.513 26.8C42.853 26.96 43.113 27.1933 43.293 27.5C43.473 27.8 43.563 28.1567 43.563 28.57C43.563 28.93 43.4696 29.26 43.283 29.56C43.103 29.8533 42.8196 30.0867 42.433 30.26V29.76C42.773 29.8933 43.0496 30.0633 43.263 30.27C43.4763 30.47 43.6296 30.6967 43.723 30.95C43.823 31.2033 43.873 31.47 43.873 31.75C43.873 32.45 43.643 33 43.183 33.4C42.7296 33.8 42.1063 34 41.313 34H38.163ZM39.343 32.95H41.403C41.7963 32.95 42.1096 32.8433 42.343 32.63C42.5763 32.41 42.693 32.12 42.693 31.76C42.693 31.3933 42.5763 31.1033 42.343 30.89C42.1096 30.67 41.7963 30.56 41.403 30.56H39.343V32.95ZM39.343 29.52H41.333C41.653 29.52 41.9096 29.43 42.103 29.25C42.2963 29.0633 42.393 28.82 42.393 28.52C42.393 28.22 42.2963 27.9867 42.103 27.82C41.9096 27.6533 41.653 27.57 41.333 27.57H39.343V29.52ZM47.9868 34.12C47.4668 34.12 46.9901 33.9967 46.5568 33.75C46.1301 33.5033 45.7901 33.1667 45.5368 32.74C45.2835 32.3133 45.1568 31.83 45.1568 31.29C45.1568 30.7433 45.2835 30.26 45.5368 29.84C45.7901 29.4133 46.1301 29.08 46.5568 28.84C46.9835 28.5933 47.4601 28.47 47.9868 28.47C48.5201 28.47 48.9968 28.5933 49.4168 28.84C49.8435 29.08 50.1801 29.4133 50.4268 29.84C50.6801 30.26 50.8068 30.7433 50.8068 31.29C50.8068 31.8367 50.6801 32.3233 50.4268 32.75C50.1735 33.1767 49.8335 33.5133 49.4068 33.76C48.9801 34 48.5068 34.12 47.9868 34.12ZM47.9868 33.07C48.3068 33.07 48.5901 32.9933 48.8368 32.84C49.0835 32.6867 49.2768 32.4767 49.4168 32.21C49.5635 31.9367 49.6368 31.63 49.6368 31.29C49.6368 30.95 49.5635 30.6467 49.4168 30.38C49.2768 30.1133 49.0835 29.9033 48.8368 29.75C48.5901 29.5967 48.3068 29.52 47.9868 29.52C47.6735 29.52 47.3901 29.5967 47.1368 29.75C46.8901 29.9033 46.6935 30.1133 46.5468 30.38C46.4068 30.6467 46.3368 30.95 46.3368 31.29C46.3368 31.63 46.4068 31.9367 46.5468 32.21C46.6935 32.4767 46.8901 32.6867 47.1368 32.84C47.3901 32.9933 47.6735 33.07 47.9868 33.07ZM52.31 34V26.43H53.44V34H52.31ZM57.6612 34.12C57.1412 34.12 56.6745 33.9967 56.2612 33.75C55.8545 33.4967 55.5312 33.1567 55.2912 32.73C55.0578 32.3033 54.9412 31.8233 54.9412 31.29C54.9412 30.7567 55.0612 30.2767 55.3012 29.85C55.5412 29.4233 55.8645 29.0867 56.2712 28.84C56.6778 28.5933 57.1378 28.47 57.6512 28.47C58.0845 28.47 58.4678 28.5567 58.8012 28.73C59.1345 28.9033 59.3978 29.1433 59.5912 29.45L59.4212 29.71V26.43H60.5412V34H59.4712V32.9L59.6012 33.11C59.4145 33.4367 59.1478 33.6867 58.8012 33.86C58.4545 34.0333 58.0745 34.12 57.6612 34.12ZM57.7712 33.07C58.0845 33.07 58.3645 32.9933 58.6112 32.84C58.8645 32.6867 59.0612 32.4767 59.2012 32.21C59.3478 31.9367 59.4212 31.63 59.4212 31.29C59.4212 30.95 59.3478 30.6467 59.2012 30.38C59.0612 30.1133 58.8645 29.9033 58.6112 29.75C58.3645 29.5967 58.0845 29.52 57.7712 29.52C57.4578 29.52 57.1745 29.5967 56.9212 29.75C56.6678 29.9033 56.4712 30.1133 56.3312 30.38C56.1912 30.6467 56.1212 30.95 56.1212 31.29C56.1212 31.63 56.1912 31.9367 56.3312 32.21C56.4712 32.4767 56.6645 32.6867 56.9112 32.84C57.1645 32.9933 57.4512 33.07 57.7712 33.07ZM62.5504 35.47V34.92C62.7704 34.8667 62.9404 34.7633 63.0604 34.61C63.1804 34.4633 63.2537 34.26 63.2804 34H62.7504V32.7H63.9004V33.55C63.9004 34.0833 63.7871 34.5133 63.5604 34.84C63.3337 35.1667 62.9971 35.3767 62.5504 35.47ZM71.3697 34V32.32H67.8197V31.34L71.3197 26.55H72.4897V31.34H73.5197V32.32H72.4897V34H71.3697ZM68.6897 31.77L68.4997 31.34H71.3697V27.49L71.6897 27.59L68.6897 31.77ZM77.4445 34.12C76.9245 34.12 76.4679 34.02 76.0745 33.82C75.6879 33.6133 75.3879 33.34 75.1745 33C74.9612 32.6533 74.8545 32.27 74.8545 31.85C74.8545 31.37 74.9845 30.9567 75.2445 30.61C75.5112 30.2567 75.8845 30 76.3645 29.84L76.3145 30.14C75.9612 30.0067 75.6812 29.7833 75.4745 29.47C75.2745 29.15 75.1745 28.8 75.1745 28.42C75.1745 28.04 75.2712 27.7 75.4645 27.4C75.6645 27.1 75.9345 26.8633 76.2745 26.69C76.6212 26.5167 77.0112 26.43 77.4445 26.43C77.8845 26.43 78.2745 26.5167 78.6145 26.69C78.9545 26.8567 79.2212 27.09 79.4145 27.39C79.6145 27.69 79.7145 28.0333 79.7145 28.42C79.7145 28.8133 79.6112 29.1667 79.4045 29.48C79.2045 29.7867 78.9312 30.0067 78.5845 30.14L78.5345 29.84C79.0145 30.0067 79.3879 30.2633 79.6545 30.61C79.9212 30.9567 80.0545 31.37 80.0545 31.85C80.0545 32.27 79.9445 32.6533 79.7245 33C79.5112 33.34 79.2079 33.6133 78.8145 33.82C78.4212 34.02 77.9645 34.12 77.4445 34.12ZM77.4445 33.12C77.7312 33.12 77.9812 33.0667 78.1945 32.96C78.4079 32.8467 78.5745 32.6933 78.6945 32.5C78.8145 32.3067 78.8745 32.08 78.8745 31.82C78.8745 31.56 78.8145 31.3333 78.6945 31.14C78.5745 30.9467 78.4079 30.7967 78.1945 30.69C77.9812 30.5833 77.7312 30.53 77.4445 30.53C77.1645 30.53 76.9179 30.5833 76.7045 30.69C76.4912 30.7967 76.3245 30.9467 76.2045 31.14C76.0845 31.3333 76.0245 31.56 76.0245 31.82C76.0245 32.08 76.0845 32.3067 76.2045 32.5C76.3245 32.6933 76.4912 32.8467 76.7045 32.96C76.9179 33.0667 77.1645 33.12 77.4445 33.12ZM77.4445 29.53C77.6579 29.53 77.8445 29.4867 78.0045 29.4C78.1712 29.3067 78.3012 29.18 78.3945 29.02C78.4879 28.86 78.5345 28.68 78.5345 28.48C78.5345 28.2733 78.4879 28.0933 78.3945 27.94C78.3012 27.78 78.1712 27.6567 78.0045 27.57C77.8445 27.4767 77.6579 27.43 77.4445 27.43C77.2379 27.43 77.0512 27.4767 76.8845 27.57C76.7179 27.6567 76.5879 27.78 76.4945 27.94C76.4012 28.0933 76.3545 28.2733 76.3545 28.48C76.3545 28.68 76.4012 28.86 76.4945 29.02C76.5879 29.18 76.7179 29.3067 76.8845 29.4C77.0512 29.4867 77.2379 29.53 77.4445 29.53Z" fill="white"/>
<rect x="100" y="13" width="36" height="34" fill="#44454F" stroke="#2F67D4" stroke-width="2" stroke-dasharray="4 4"/>
<path d="M149 14V46" stroke="#2F67D4" stroke-width="2"/>
<path d="M153 13L145 13" stroke="#2F67D4" stroke-width="2"/>
<path d="M153 47L145 47" stroke="#2F67D4" stroke-width="2"/>
<path d="M164.726 50V14.24H170.39V29.984H186.95V14.24H192.566V50H186.95V35.024H170.39V50H164.726ZM213.56 50.576C210.968 50.576 208.664 49.984 206.648 48.8C204.664 47.584 203.112 45.952 201.992 43.904C200.872 41.824 200.312 39.504 200.312 36.944C200.312 34.32 200.872 32 201.992 29.984C203.144 27.968 204.68 26.384 206.6 25.232C208.52 24.048 210.696 23.456 213.128 23.456C215.08 23.456 216.824 23.792 218.36 24.464C219.896 25.136 221.192 26.064 222.248 27.248C223.304 28.4 224.104 29.728 224.648 31.232C225.224 32.736 225.512 34.336 225.512 36.032C225.512 36.448 225.496 36.88 225.464 37.328C225.432 37.776 225.368 38.192 225.272 38.576H204.584V34.256H222.2L219.608 36.224C219.928 34.656 219.816 33.264 219.272 32.048C218.76 30.8 217.96 29.824 216.872 29.12C215.816 28.384 214.568 28.016 213.128 28.016C211.688 28.016 210.408 28.384 209.288 29.12C208.168 29.824 207.304 30.848 206.696 32.192C206.088 33.504 205.848 35.104 205.976 36.992C205.816 38.752 206.056 40.288 206.696 41.6C207.368 42.912 208.296 43.936 209.48 44.672C210.696 45.408 212.072 45.776 213.608 45.776C215.176 45.776 216.504 45.424 217.592 44.72C218.712 44.016 219.592 43.104 220.232 41.984L224.648 44.144C224.136 45.36 223.336 46.464 222.248 47.456C221.192 48.416 219.912 49.184 218.408 49.76C216.936 50.304 215.32 50.576 213.56 50.576ZM240.267 50.576C238.507 50.576 236.955 50.272 235.611 49.664C234.299 49.024 233.275 48.16 232.539 47.072C231.803 45.952 231.435 44.64 231.435 43.136C231.435 41.728 231.739 40.464 232.347 39.344C232.987 38.224 233.963 37.28 235.275 36.512C236.587 35.744 238.235 35.2 240.219 34.88L249.243 33.392V37.664L241.275 39.056C239.835 39.312 238.779 39.776 238.107 40.448C237.435 41.088 237.099 41.92 237.099 42.944C237.099 43.936 237.467 44.752 238.203 45.392C238.971 46 239.947 46.304 241.131 46.304C242.603 46.304 243.883 45.984 244.971 45.344C246.091 44.704 246.955 43.856 247.563 42.8C248.171 41.712 248.475 40.512 248.475 39.2V32.528C248.475 31.248 247.995 30.208 247.035 29.408C246.107 28.576 244.859 28.16 243.291 28.16C241.851 28.16 240.587 28.544 239.499 29.312C238.443 30.048 237.659 31.008 237.147 32.192L232.635 29.936C233.115 28.656 233.899 27.536 234.987 26.576C236.075 25.584 237.339 24.816 238.779 24.272C240.251 23.728 241.803 23.456 243.435 23.456C245.483 23.456 247.291 23.84 248.859 24.608C250.459 25.376 251.691 26.448 252.555 27.824C253.451 29.168 253.899 30.736 253.899 32.528V50H248.715V45.296L249.819 45.44C249.211 46.496 248.427 47.408 247.467 48.176C246.539 48.944 245.467 49.536 244.251 49.952C243.067 50.368 241.739 50.576 240.267 50.576ZM274.161 50.576C271.665 50.576 269.425 49.984 267.441 48.8C265.489 47.584 263.937 45.952 262.785 43.904C261.665 41.856 261.105 39.552 261.105 36.992C261.105 34.432 261.681 32.128 262.833 30.08C263.985 28.032 265.537 26.416 267.489 25.232C269.441 24.048 271.649 23.456 274.113 23.456C276.193 23.456 278.033 23.872 279.633 24.704C281.233 25.536 282.497 26.688 283.425 28.16L282.609 29.408V13.664H287.985V50H282.849V44.72L283.473 45.728C282.577 47.296 281.297 48.496 279.633 49.328C277.969 50.16 276.145 50.576 274.161 50.576ZM274.689 45.536C276.193 45.536 277.537 45.168 278.721 44.432C279.937 43.696 280.881 42.688 281.553 41.408C282.257 40.096 282.609 38.624 282.609 36.992C282.609 35.36 282.257 33.904 281.553 32.624C280.881 31.344 279.937 30.336 278.721 29.6C277.537 28.864 276.193 28.496 274.689 28.496C273.185 28.496 271.825 28.864 270.609 29.6C269.393 30.336 268.449 31.344 267.777 32.624C267.105 33.904 266.769 35.36 266.769 36.992C266.769 38.624 267.105 40.096 267.777 41.408C268.449 42.688 269.377 43.696 270.561 44.432C271.777 45.168 273.153 45.536 274.689 45.536ZM296.237 50V24.032H301.661V50H296.237ZM296.237 20.48V14.24H301.661V20.48H296.237ZM309.923 50V24.032H315.107V29.12L314.483 28.448C315.123 26.816 316.147 25.584 317.555 24.752C318.963 23.888 320.595 23.456 322.451 23.456C324.371 23.456 326.067 23.872 327.539 24.704C329.011 25.536 330.163 26.688 330.995 28.16C331.827 29.632 332.243 31.328 332.243 33.248V50H326.867V34.688C326.867 33.376 326.627 32.272 326.147 31.376C325.667 30.448 324.979 29.744 324.083 29.264C323.219 28.752 322.227 28.496 321.107 28.496C319.987 28.496 318.979 28.752 318.083 29.264C317.219 29.744 316.547 30.448 316.067 31.376C315.587 32.304 315.347 33.408 315.347 34.688V50H309.923ZM352.496 60.56C350.608 60.56 348.864 60.256 347.264 59.648C345.664 59.04 344.288 58.192 343.136 57.104C341.984 56.048 341.12 54.8 340.544 53.36L345.536 51.296C345.984 52.512 346.8 53.52 347.984 54.32C349.2 55.12 350.688 55.52 352.448 55.52C353.824 55.52 355.056 55.248 356.144 54.704C357.232 54.192 358.096 53.424 358.736 52.4C359.376 51.408 359.696 50.208 359.696 48.8V42.944L360.656 44.048C359.76 45.712 358.512 46.976 356.912 47.84C355.344 48.704 353.568 49.136 351.584 49.136C349.184 49.136 347.024 48.576 345.104 47.456C343.184 46.336 341.664 44.8 340.544 42.848C339.456 40.896 338.912 38.704 338.912 36.272C338.912 33.808 339.456 31.616 340.544 29.696C341.664 27.776 343.168 26.256 345.056 25.136C346.944 24.016 349.104 23.456 351.536 23.456C353.52 23.456 355.28 23.888 356.816 24.752C358.384 25.584 359.664 26.8 360.656 28.4L359.936 29.744V24.032H365.072V48.8C365.072 51.04 364.528 53.04 363.44 54.8C362.384 56.592 360.912 58 359.024 59.024C357.136 60.048 354.96 60.56 352.496 60.56ZM352.208 44.096C353.648 44.096 354.928 43.76 356.048 43.088C357.168 42.384 358.048 41.456 358.688 40.304C359.36 39.12 359.696 37.792 359.696 36.32C359.696 34.848 359.36 33.52 358.688 32.336C358.016 31.152 357.12 30.224 356 29.552C354.88 28.848 353.616 28.496 352.208 28.496C350.736 28.496 349.424 28.848 348.272 29.552C347.12 30.224 346.208 31.152 345.536 32.336C344.896 33.488 344.576 34.816 344.576 36.32C344.576 37.76 344.896 39.072 345.536 40.256C346.208 41.44 347.12 42.384 348.272 43.088C349.424 43.76 350.736 44.096 352.208 44.096ZM378.621 50V19.04H371.757V14.24H384.237V50H378.621Z" fill="white" fill-opacity="0.9"/>
<rect y="79" width="91" height="30" rx="8" fill="#5870DC"/>
<path d="M12.4256 97.07C11.9389 97.07 11.4989 96.9867 11.1056 96.82C10.7189 96.6533 10.4123 96.4133 10.1856 96.1C9.95892 95.7867 9.84225 95.4167 9.83558 94.99H11.3356C11.3556 95.2767 11.4556 95.5033 11.6356 95.67C11.8223 95.8367 12.0756 95.92 12.3956 95.92C12.7223 95.92 12.9789 95.8433 13.1656 95.69C13.3523 95.53 13.4456 95.3233 13.4456 95.07C13.4456 94.8633 13.3823 94.6933 13.2556 94.56C13.1289 94.4267 12.9689 94.3233 12.7756 94.25C12.5889 94.17 12.3289 94.0833 11.9956 93.99C11.5423 93.8567 11.1723 93.7267 10.8856 93.6C10.6056 93.4667 10.3623 93.27 10.1556 93.01C9.95558 92.7433 9.85558 92.39 9.85558 91.95C9.85558 91.5367 9.95892 91.1767 10.1656 90.87C10.3723 90.5633 10.6623 90.33 11.0356 90.17C11.4089 90.0033 11.8356 89.92 12.3156 89.92C13.0356 89.92 13.6189 90.0967 14.0656 90.45C14.5189 90.7967 14.7689 91.2833 14.8156 91.91H13.2756C13.2623 91.67 13.1589 91.4733 12.9656 91.32C12.7789 91.16 12.5289 91.08 12.2156 91.08C11.9423 91.08 11.7223 91.15 11.5556 91.29C11.3956 91.43 11.3156 91.6333 11.3156 91.9C11.3156 92.0867 11.3756 92.2433 11.4956 92.37C11.6223 92.49 11.7756 92.59 11.9556 92.67C12.1423 92.7433 12.4023 92.83 12.7356 92.93C13.1889 93.0633 13.5589 93.1967 13.8456 93.33C14.1323 93.4633 14.3789 93.6633 14.5856 93.93C14.7923 94.1967 14.8956 94.5467 14.8956 94.98C14.8956 95.3533 14.7989 95.7 14.6056 96.02C14.4123 96.34 14.1289 96.5967 13.7556 96.79C13.3823 96.9767 12.9389 97.07 12.4256 97.07ZM21.6593 94.11C21.6593 94.31 21.646 94.49 21.6193 94.65H17.5693C17.6027 95.05 17.7427 95.3633 17.9893 95.59C18.236 95.8167 18.5393 95.93 18.8993 95.93C19.4193 95.93 19.7893 95.7067 20.0093 95.26H21.5193C21.3593 95.7933 21.0527 96.2333 20.5993 96.58C20.146 96.92 19.5893 97.09 18.9293 97.09C18.396 97.09 17.916 96.9733 17.4893 96.74C17.0693 96.5 16.7393 96.1633 16.4993 95.73C16.266 95.2967 16.1493 94.7967 16.1493 94.23C16.1493 93.6567 16.266 93.1533 16.4993 92.72C16.7327 92.2867 17.0593 91.9533 17.4793 91.72C17.8993 91.4867 18.3827 91.37 18.9293 91.37C19.456 91.37 19.926 91.4833 20.3393 91.71C20.7593 91.9367 21.0827 92.26 21.3093 92.68C21.5427 93.0933 21.6593 93.57 21.6593 94.11ZM20.2093 93.71C20.2027 93.35 20.0727 93.0633 19.8193 92.85C19.566 92.63 19.256 92.52 18.8893 92.52C18.5427 92.52 18.2493 92.6267 18.0093 92.84C17.776 93.0467 17.6327 93.3367 17.5793 93.71H20.2093ZM29.9612 91.38C30.6412 91.38 31.1879 91.59 31.6012 92.01C32.0212 92.4233 32.2312 93.0033 32.2312 93.75V97H30.8312V93.94C30.8312 93.5067 30.7212 93.1767 30.5012 92.95C30.2812 92.7167 29.9812 92.6 29.6012 92.6C29.2212 92.6 28.9179 92.7167 28.6912 92.95C28.4712 93.1767 28.3612 93.5067 28.3612 93.94V97H26.9612V93.94C26.9612 93.5067 26.8512 93.1767 26.6312 92.95C26.4112 92.7167 26.1112 92.6 25.7312 92.6C25.3445 92.6 25.0379 92.7167 24.8112 92.95C24.5912 93.1767 24.4812 93.5067 24.4812 93.94V97H23.0812V91.46H24.4812V92.13C24.6612 91.8967 24.8912 91.7133 25.1712 91.58C25.4579 91.4467 25.7712 91.38 26.1112 91.38C26.5445 91.38 26.9312 91.4733 27.2712 91.66C27.6112 91.84 27.8745 92.1 28.0612 92.44C28.2412 92.12 28.5012 91.8633 28.8412 91.67C29.1879 91.4767 29.5612 91.38 29.9612 91.38ZM34.6697 90.8C34.4231 90.8 34.2164 90.7233 34.0497 90.57C33.8897 90.41 33.8097 90.2133 33.8097 89.98C33.8097 89.7467 33.8897 89.5533 34.0497 89.4C34.2164 89.24 34.4231 89.16 34.6697 89.16C34.9164 89.16 35.1197 89.24 35.2797 89.4C35.4464 89.5533 35.5297 89.7467 35.5297 89.98C35.5297 90.2133 35.4464 90.41 35.2797 90.57C35.1197 90.7233 34.9164 90.8 34.6697 90.8ZM35.3597 91.46V97H33.9597V91.46H35.3597ZM43.8857 93.42C44.2791 93.4933 44.6024 93.69 44.8557 94.01C45.1091 94.33 45.2357 94.6967 45.2357 95.11C45.2357 95.4833 45.1424 95.8133 44.9557 96.1C44.7757 96.38 44.5124 96.6 44.1657 96.76C43.8191 96.92 43.4091 97 42.9357 97H39.9257V90.02H42.8057C43.2791 90.02 43.6857 90.0967 44.0257 90.25C44.3724 90.4033 44.6324 90.6167 44.8057 90.89C44.9857 91.1633 45.0757 91.4733 45.0757 91.82C45.0757 92.2267 44.9657 92.5667 44.7457 92.84C44.5324 93.1133 44.2457 93.3067 43.8857 93.42ZM41.3257 92.9H42.6057C42.9391 92.9 43.1957 92.8267 43.3757 92.68C43.5557 92.5267 43.6457 92.31 43.6457 92.03C43.6457 91.75 43.5557 91.5333 43.3757 91.38C43.1957 91.2267 42.9391 91.15 42.6057 91.15H41.3257V92.9ZM42.7357 95.86C43.0757 95.86 43.3391 95.78 43.5257 95.62C43.7191 95.46 43.8157 95.2333 43.8157 94.94C43.8157 94.64 43.7157 94.4067 43.5157 94.24C43.3157 94.0667 43.0457 93.98 42.7057 93.98H41.3257V95.86H42.7357ZM49.2115 97.09C48.6782 97.09 48.1982 96.9733 47.7715 96.74C47.3449 96.5 47.0082 96.1633 46.7615 95.73C46.5215 95.2967 46.4015 94.7967 46.4015 94.23C46.4015 93.6633 46.5249 93.1633 46.7715 92.73C47.0249 92.2967 47.3682 91.9633 47.8015 91.73C48.2349 91.49 48.7182 91.37 49.2515 91.37C49.7849 91.37 50.2682 91.49 50.7015 91.73C51.1349 91.9633 51.4749 92.2967 51.7215 92.73C51.9749 93.1633 52.1015 93.6633 52.1015 94.23C52.1015 94.7967 51.9715 95.2967 51.7115 95.73C51.4582 96.1633 51.1115 96.5 50.6715 96.74C50.2382 96.9733 49.7515 97.09 49.2115 97.09ZM49.2115 95.87C49.4649 95.87 49.7015 95.81 49.9215 95.69C50.1482 95.5633 50.3282 95.3767 50.4615 95.13C50.5949 94.8833 50.6615 94.5833 50.6615 94.23C50.6615 93.7033 50.5215 93.3 50.2415 93.02C49.9682 92.7333 49.6315 92.59 49.2315 92.59C48.8315 92.59 48.4949 92.7333 48.2215 93.02C47.9549 93.3 47.8215 93.7033 47.8215 94.23C47.8215 94.7567 47.9515 95.1633 48.2115 95.45C48.4782 95.73 48.8115 95.87 49.2115 95.87ZM54.9285 89.6V97H53.5285V89.6H54.9285ZM56.3517 94.21C56.3517 93.65 56.4617 93.1533 56.6817 92.72C56.9083 92.2867 57.215 91.9533 57.6017 91.72C57.9883 91.4867 58.4183 91.37 58.8917 91.37C59.2517 91.37 59.595 91.45 59.9217 91.61C60.2483 91.7633 60.5083 91.97 60.7017 92.23V89.6H62.1217V97H60.7017V96.18C60.5283 96.4533 60.285 96.6733 59.9717 96.84C59.6583 97.0067 59.295 97.09 58.8817 97.09C58.415 97.09 57.9883 96.97 57.6017 96.73C57.215 96.49 56.9083 96.1533 56.6817 95.72C56.4617 95.28 56.3517 94.7767 56.3517 94.21ZM60.7117 94.23C60.7117 93.89 60.645 93.6 60.5117 93.36C60.3783 93.1133 60.1983 92.9267 59.9717 92.8C59.745 92.6667 59.5017 92.6 59.2417 92.6C58.9817 92.6 58.7417 92.6633 58.5217 92.79C58.3017 92.9167 58.1217 93.1033 57.9817 93.35C57.8483 93.59 57.7817 93.8767 57.7817 94.21C57.7817 94.5433 57.8483 94.8367 57.9817 95.09C58.1217 95.3367 58.3017 95.5267 58.5217 95.66C58.7483 95.7933 58.9883 95.86 59.2417 95.86C59.5017 95.86 59.745 95.7967 59.9717 95.67C60.1983 95.5367 60.3783 95.35 60.5117 95.11C60.645 94.8633 60.7117 94.57 60.7117 94.23ZM65.419 95.53L64.249 98.34H63.349L63.999 95.53H65.419ZM69.8909 95.42C70.5309 94.8867 71.0409 94.4433 71.4209 94.09C71.8009 93.73 72.1176 93.3567 72.3709 92.97C72.6242 92.5833 72.7509 92.2033 72.7509 91.83C72.7509 91.49 72.6709 91.2233 72.5109 91.03C72.3509 90.8367 72.1042 90.74 71.7709 90.74C71.4376 90.74 71.1809 90.8533 71.0009 91.08C70.8209 91.3 70.7276 91.6033 70.7209 91.99H69.3609C69.3876 91.19 69.6242 90.5833 70.0709 90.17C70.5242 89.7567 71.0976 89.55 71.7909 89.55C72.5509 89.55 73.1342 89.7533 73.5409 90.16C73.9476 90.56 74.1509 91.09 74.1509 91.75C74.1509 92.27 74.0109 92.7667 73.7309 93.24C73.4509 93.7133 73.1309 94.1267 72.7709 94.48C72.4109 94.8267 71.9409 95.2467 71.3609 95.74H74.3109V96.9H69.3709V95.86L69.8909 95.42ZM75.5331 95.58V94.48L78.8031 89.8H80.4331V94.36H81.3131V95.58H80.4331V97H79.0331V95.58H75.5331ZM79.1231 91.3L77.0731 94.36H79.1231V91.3Z" fill="white"/>
<rect x="100" y="86" width="36" height="16" fill="#44454F" stroke="#2F67D4" stroke-width="2" stroke-dasharray="4 4"/>
<path d="M149 85.5V101.5" stroke="#2F67D4" stroke-width="2"/>
<path d="M153 102.5L145 102.5" stroke="#2F67D4" stroke-width="2"/>
<path d="M153 86.5L145 86.5" stroke="#2F67D4" stroke-width="2"/>
<path d="M176.782 85.248V102H173.422V94.872H166.246V102H162.886V85.248H166.246V92.136H173.422V85.248H176.782ZM193.409 95.064C193.409 95.544 193.377 95.976 193.313 96.36H183.593C183.673 97.32 184.009 98.072 184.601 98.616C185.193 99.16 185.921 99.432 186.785 99.432C188.033 99.432 188.921 98.896 189.449 97.824H193.073C192.689 99.104 191.953 100.16 190.865 100.992C189.777 101.808 188.441 102.216 186.857 102.216C185.577 102.216 184.425 101.936 183.401 101.376C182.393 100.8 181.601 99.992 181.025 98.952C180.465 97.912 180.185 96.712 180.185 95.352C180.185 93.976 180.465 92.768 181.025 91.728C181.585 90.688 182.369 89.888 183.377 89.328C184.385 88.768 185.545 88.488 186.857 88.488C188.121 88.488 189.249 88.76 190.241 89.304C191.249 89.848 192.025 90.624 192.569 91.632C193.129 92.624 193.409 93.768 193.409 95.064ZM189.929 94.104C189.913 93.24 189.601 92.552 188.993 92.04C188.385 91.512 187.641 91.248 186.761 91.248C185.929 91.248 185.225 91.504 184.649 92.016C184.089 92.512 183.745 93.208 183.617 94.104H189.929ZM195.958 95.304C195.958 93.96 196.222 92.768 196.75 91.728C197.294 90.688 198.022 89.888 198.934 89.328C199.862 88.768 200.894 88.488 202.03 88.488C203.022 88.488 203.886 88.688 204.622 89.088C205.374 89.488 205.974 89.992 206.422 90.6V88.704H209.806V102H206.422V100.056C205.99 100.68 205.39 101.2 204.622 101.616C203.87 102.016 202.998 102.216 202.006 102.216C200.886 102.216 199.862 101.928 198.934 101.352C198.022 100.776 197.294 99.968 196.75 98.928C196.222 97.872 195.958 96.664 195.958 95.304ZM206.422 95.352C206.422 94.536 206.262 93.84 205.942 93.264C205.622 92.672 205.19 92.224 204.646 91.92C204.102 91.6 203.518 91.44 202.894 91.44C202.27 91.44 201.694 91.592 201.166 91.896C200.638 92.2 200.206 92.648 199.87 93.24C199.55 93.816 199.39 94.504 199.39 95.304C199.39 96.104 199.55 96.808 199.87 97.416C200.206 98.008 200.638 98.464 201.166 98.784C201.71 99.104 202.286 99.264 202.894 99.264C203.518 99.264 204.102 99.112 204.646 98.808C205.19 98.488 205.622 98.04 205.942 97.464C206.262 96.872 206.422 96.168 206.422 95.352ZM213.184 95.304C213.184 93.96 213.448 92.768 213.976 91.728C214.52 90.688 215.256 89.888 216.184 89.328C217.112 88.768 218.144 88.488 219.28 88.488C220.144 88.488 220.968 88.68 221.752 89.064C222.536 89.432 223.16 89.928 223.624 90.552V84.24H227.032V102H223.624V100.032C223.208 100.688 222.624 101.216 221.872 101.616C221.12 102.016 220.248 102.216 219.256 102.216C218.136 102.216 217.112 101.928 216.184 101.352C215.256 100.776 214.52 99.968 213.976 98.928C213.448 97.872 213.184 96.664 213.184 95.304ZM223.648 95.352C223.648 94.536 223.488 93.84 223.168 93.264C222.848 92.672 222.416 92.224 221.872 91.92C221.328 91.6 220.744 91.44 220.12 91.44C219.496 91.44 218.92 91.592 218.392 91.896C217.864 92.2 217.432 92.648 217.096 93.24C216.776 93.816 216.616 94.504 216.616 95.304C216.616 96.104 216.776 96.808 217.096 97.416C217.432 98.008 217.864 98.464 218.392 98.784C218.936 99.104 219.512 99.264 220.12 99.264C220.744 99.264 221.328 99.112 221.872 98.808C222.416 98.488 222.848 98.04 223.168 97.464C223.488 96.872 223.648 96.168 223.648 95.352ZM232.977 87.12C232.385 87.12 231.889 86.936 231.489 86.568C231.105 86.184 230.913 85.712 230.913 85.152C230.913 84.592 231.105 84.128 231.489 83.76C231.889 83.376 232.385 83.184 232.977 83.184C233.569 83.184 234.057 83.376 234.441 83.76C234.841 84.128 235.041 84.592 235.041 85.152C235.041 85.712 234.841 86.184 234.441 86.568C234.057 86.936 233.569 87.12 232.977 87.12ZM234.633 88.704V102H231.273V88.704H234.633ZM246.281 88.512C247.865 88.512 249.145 89.016 250.121 90.024C251.097 91.016 251.585 92.408 251.585 94.2V102H248.225V94.656C248.225 93.6 247.961 92.792 247.433 92.232C246.905 91.656 246.185 91.368 245.273 91.368C244.345 91.368 243.609 91.656 243.065 92.232C242.537 92.792 242.273 93.6 242.273 94.656V102H238.913V88.704H242.273V90.36C242.721 89.784 243.289 89.336 243.977 89.016C244.681 88.68 245.449 88.512 246.281 88.512ZM260.948 88.488C261.94 88.488 262.812 88.688 263.564 89.088C264.316 89.472 264.908 89.976 265.34 90.6V88.704H268.724V102.096C268.724 103.328 268.476 104.424 267.98 105.384C267.484 106.36 266.74 107.128 265.748 107.688C264.756 108.264 263.556 108.552 262.148 108.552C260.26 108.552 258.708 108.112 257.492 107.232C256.292 106.352 255.612 105.152 255.452 103.632H258.788C258.964 104.24 259.34 104.72 259.916 105.072C260.508 105.44 261.22 105.624 262.052 105.624C263.028 105.624 263.82 105.328 264.428 104.736C265.036 104.16 265.34 103.28 265.34 102.096V100.032C264.908 100.656 264.308 101.176 263.54 101.592C262.788 102.008 261.924 102.216 260.948 102.216C259.828 102.216 258.804 101.928 257.876 101.352C256.948 100.776 256.212 99.968 255.668 98.928C255.14 97.872 254.876 96.664 254.876 95.304C254.876 93.96 255.14 92.768 255.668 91.728C256.212 90.688 256.94 89.888 257.852 89.328C258.78 88.768 259.812 88.488 260.948 88.488ZM265.34 95.352C265.34 94.536 265.18 93.84 264.86 93.264C264.54 92.672 264.108 92.224 263.564 91.92C263.02 91.6 262.436 91.44 261.812 91.44C261.188 91.44 260.612 91.592 260.084 91.896C259.556 92.2 259.124 92.648 258.788 93.24C258.468 93.816 258.308 94.504 258.308 95.304C258.308 96.104 258.468 96.808 258.788 97.416C259.124 98.008 259.556 98.464 260.084 98.784C260.628 99.104 261.204 99.264 261.812 99.264C262.436 99.264 263.02 99.112 263.564 98.808C264.108 98.488 264.54 98.04 264.86 97.464C265.18 96.872 265.34 96.168 265.34 95.352ZM280.316 98.208C281.852 96.928 283.076 95.864 283.988 95.016C284.9 94.152 285.66 93.256 286.268 92.328C286.876 91.4 287.18 90.488 287.18 89.592C287.18 88.776 286.988 88.136 286.604 87.672C286.22 87.208 285.628 86.976 284.828 86.976C284.028 86.976 283.412 87.248 282.98 87.792C282.548 88.32 282.324 89.048 282.308 89.976H279.044C279.108 88.056 279.676 86.6 280.748 85.608C281.836 84.616 283.212 84.12 284.876 84.12C286.7 84.12 288.1 84.608 289.076 85.584C290.052 86.544 290.54 87.816 290.54 89.4C290.54 90.648 290.204 91.84 289.532 92.976C288.86 94.112 288.092 95.104 287.228 95.952C286.364 96.784 285.236 97.792 283.844 98.976H290.924V101.76H279.068V99.264L280.316 98.208Z" fill="white" fill-opacity="0.9"/>
<rect y="128" width="91" height="30" rx="8" fill="#5870DC"/>
<path d="M23.6211 139.02V146H22.2211V141.46L20.3511 146H19.2911L17.4111 141.46V146H16.0111V139.02H17.6011L19.8211 144.21L22.0411 139.02H23.6211ZM30.5552 143.11C30.5552 143.31 30.5419 143.49 30.5152 143.65H26.4652C26.4986 144.05 26.6386 144.363 26.8852 144.59C27.1319 144.817 27.4352 144.93 27.7952 144.93C28.3152 144.93 28.6852 144.707 28.9052 144.26H30.4152C30.2552 144.793 29.9486 145.233 29.4952 145.58C29.0419 145.92 28.4852 146.09 27.8252 146.09C27.2919 146.09 26.8119 145.973 26.3852 145.74C25.9652 145.5 25.6352 145.163 25.3952 144.73C25.1619 144.297 25.0452 143.797 25.0452 143.23C25.0452 142.657 25.1619 142.153 25.3952 141.72C25.6286 141.287 25.9552 140.953 26.3752 140.72C26.7952 140.487 27.2786 140.37 27.8252 140.37C28.3519 140.37 28.8219 140.483 29.2352 140.71C29.6552 140.937 29.9786 141.26 30.2052 141.68C30.4386 142.093 30.5552 142.57 30.5552 143.11ZM29.1052 142.71C29.0986 142.35 28.9686 142.063 28.7152 141.85C28.4619 141.63 28.1519 141.52 27.7852 141.52C27.4386 141.52 27.1452 141.627 26.9052 141.84C26.6719 142.047 26.5286 142.337 26.4752 142.71H29.1052ZM31.6171 143.21C31.6171 142.65 31.7271 142.153 31.9471 141.72C32.1738 141.287 32.4804 140.953 32.8671 140.72C33.2538 140.487 33.6838 140.37 34.1571 140.37C34.5171 140.37 34.8604 140.45 35.1871 140.61C35.5138 140.763 35.7738 140.97 35.9671 141.23V138.6H37.3871V146H35.9671V145.18C35.7938 145.453 35.5504 145.673 35.2371 145.84C34.9238 146.007 34.5604 146.09 34.1471 146.09C33.6804 146.09 33.2538 145.97 32.8671 145.73C32.4804 145.49 32.1738 145.153 31.9471 144.72C31.7271 144.28 31.6171 143.777 31.6171 143.21ZM35.9771 143.23C35.9771 142.89 35.9104 142.6 35.7771 142.36C35.6438 142.113 35.4638 141.927 35.2371 141.8C35.0104 141.667 34.7671 141.6 34.5071 141.6C34.2471 141.6 34.0071 141.663 33.7871 141.79C33.5671 141.917 33.3871 142.103 33.2471 142.35C33.1138 142.59 33.0471 142.877 33.0471 143.21C33.0471 143.543 33.1138 143.837 33.2471 144.09C33.3871 144.337 33.5671 144.527 33.7871 144.66C34.0138 144.793 34.2538 144.86 34.5071 144.86C34.7671 144.86 35.0104 144.797 35.2371 144.67C35.4638 144.537 35.6438 144.35 35.7771 144.11C35.9104 143.863 35.9771 143.57 35.9771 143.23ZM39.8645 139.8C39.6178 139.8 39.4111 139.723 39.2445 139.57C39.0845 139.41 39.0045 139.213 39.0045 138.98C39.0045 138.747 39.0845 138.553 39.2445 138.4C39.4111 138.24 39.6178 138.16 39.8645 138.16C40.1111 138.16 40.3145 138.24 40.4745 138.4C40.6411 138.553 40.7245 138.747 40.7245 138.98C40.7245 139.213 40.6411 139.41 40.4745 139.57C40.3145 139.723 40.1111 139.8 39.8645 139.8ZM40.5545 140.46V146H39.1545V140.46H40.5545ZM47.5677 140.46V146H46.1577V145.3C45.9777 145.54 45.741 145.73 45.4477 145.87C45.161 146.003 44.8477 146.07 44.5077 146.07C44.0743 146.07 43.691 145.98 43.3577 145.8C43.0243 145.613 42.761 145.343 42.5677 144.99C42.381 144.63 42.2877 144.203 42.2877 143.71V140.46H43.6877V143.51C43.6877 143.95 43.7977 144.29 44.0177 144.53C44.2377 144.763 44.5377 144.88 44.9177 144.88C45.3043 144.88 45.6077 144.763 45.8277 144.53C46.0477 144.29 46.1577 143.95 46.1577 143.51V140.46H47.5677ZM56.229 140.38C56.909 140.38 57.4557 140.59 57.869 141.01C58.289 141.423 58.499 142.003 58.499 142.75V146H57.099V142.94C57.099 142.507 56.989 142.177 56.769 141.95C56.549 141.717 56.249 141.6 55.869 141.6C55.489 141.6 55.1857 141.717 54.959 141.95C54.739 142.177 54.629 142.507 54.629 142.94V146H53.229V142.94C53.229 142.507 53.119 142.177 52.899 141.95C52.679 141.717 52.379 141.6 51.999 141.6C51.6123 141.6 51.3057 141.717 51.079 141.95C50.859 142.177 50.749 142.507 50.749 142.94V146H49.349V140.46H50.749V141.13C50.929 140.897 51.159 140.713 51.439 140.58C51.7257 140.447 52.039 140.38 52.379 140.38C52.8123 140.38 53.199 140.473 53.539 140.66C53.879 140.84 54.1423 141.1 54.329 141.44C54.509 141.12 54.769 140.863 55.109 140.67C55.4557 140.477 55.829 140.38 56.229 140.38ZM61.7575 144.53L60.5875 147.34H59.6875L60.3375 144.53H61.7575ZM65.6194 140V138.71H68.0294V146H66.5894V140H65.6194ZM73.5924 140.53C73.5258 140.25 73.4091 140.04 73.2424 139.9C73.0824 139.76 72.8491 139.69 72.5424 139.69C72.0824 139.69 71.7424 139.877 71.5224 140.25C71.3091 140.617 71.1991 141.217 71.1924 142.05C71.3524 141.783 71.5858 141.577 71.8924 141.43C72.1991 141.277 72.5324 141.2 72.8924 141.2C73.3258 141.2 73.7091 141.293 74.0424 141.48C74.3758 141.667 74.6358 141.94 74.8224 142.3C75.0091 142.653 75.1024 143.08 75.1024 143.58C75.1024 144.053 75.0058 144.477 74.8124 144.85C74.6258 145.217 74.3491 145.503 73.9824 145.71C73.6158 145.917 73.1791 146.02 72.6724 146.02C71.9791 146.02 71.4324 145.867 71.0324 145.56C70.6391 145.253 70.3624 144.827 70.2024 144.28C70.0491 143.727 69.9724 143.047 69.9724 142.24C69.9724 141.02 70.1824 140.1 70.6024 139.48C71.0224 138.853 71.6858 138.54 72.5924 138.54C73.2924 138.54 73.8358 138.73 74.2224 139.11C74.6091 139.49 74.8324 139.963 74.8924 140.53H73.5924ZM72.5724 142.35C72.2191 142.35 71.9224 142.453 71.6824 142.66C71.4424 142.867 71.3224 143.167 71.3224 143.56C71.3224 143.953 71.4324 144.263 71.6524 144.49C71.8791 144.717 72.1958 144.83 72.6024 144.83C72.9624 144.83 73.2458 144.72 73.4524 144.5C73.6658 144.28 73.7724 143.983 73.7724 143.61C73.7724 143.223 73.6691 142.917 73.4624 142.69C73.2624 142.463 72.9658 142.35 72.5724 142.35Z" fill="white"/>
<rect x="100" y="137" width="36" height="12" fill="#44454F" stroke="#2F67D4" stroke-width="2" stroke-dasharray="4 4"/>
<path d="M149 138V148" stroke="#2F67D4" stroke-width="2"/>
<path d="M153 137L145 137" stroke="#2F67D4" stroke-width="2"/>
<path d="M153 149L145 149" stroke="#2F67D4" stroke-width="2"/>
<path d="M171.543 137.88V149H169.719V144.136H164.487V149H162.663V137.88H164.487V142.648H169.719V137.88H171.543ZM182.665 144.376C182.665 144.707 182.643 145.005 182.601 145.272H175.865C175.918 145.976 176.179 146.541 176.649 146.968C177.118 147.395 177.694 147.608 178.377 147.608C179.358 147.608 180.051 147.197 180.457 146.376H182.425C182.158 147.187 181.673 147.853 180.969 148.376C180.275 148.888 179.411 149.144 178.377 149.144C177.534 149.144 176.777 148.957 176.105 148.584C175.443 148.2 174.921 147.667 174.537 146.984C174.163 146.291 173.977 145.491 173.977 144.584C173.977 143.677 174.158 142.883 174.521 142.2C174.894 141.507 175.411 140.973 176.073 140.6C176.745 140.227 177.513 140.04 178.377 140.04C179.209 140.04 179.95 140.221 180.601 140.584C181.251 140.947 181.758 141.459 182.121 142.12C182.483 142.771 182.665 143.523 182.665 144.376ZM180.761 143.8C180.75 143.128 180.51 142.589 180.041 142.184C179.571 141.779 178.99 141.576 178.297 141.576C177.667 141.576 177.129 141.779 176.681 142.184C176.233 142.579 175.966 143.117 175.881 143.8H180.761ZM184.492 144.552C184.492 143.667 184.673 142.883 185.036 142.2C185.409 141.517 185.91 140.989 186.54 140.616C187.18 140.232 187.884 140.04 188.652 140.04C189.345 140.04 189.948 140.179 190.46 140.456C190.982 140.723 191.398 141.059 191.708 141.464V140.184H193.548V149H191.708V147.688C191.398 148.104 190.977 148.451 190.444 148.728C189.91 149.005 189.302 149.144 188.62 149.144C187.862 149.144 187.169 148.952 186.54 148.568C185.91 148.173 185.409 147.629 185.036 146.936C184.673 146.232 184.492 145.437 184.492 144.552ZM191.708 144.584C191.708 143.976 191.58 143.448 191.324 143C191.078 142.552 190.753 142.211 190.348 141.976C189.942 141.741 189.505 141.624 189.036 141.624C188.566 141.624 188.129 141.741 187.724 141.976C187.318 142.2 186.988 142.536 186.732 142.984C186.486 143.421 186.364 143.944 186.364 144.552C186.364 145.16 186.486 145.693 186.732 146.152C186.988 146.611 187.318 146.963 187.724 147.208C188.14 147.443 188.577 147.56 189.036 147.56C189.505 147.56 189.942 147.443 190.348 147.208C190.753 146.973 191.078 146.632 191.324 146.184C191.58 145.725 191.708 145.192 191.708 144.584ZM195.975 144.552C195.975 143.667 196.157 142.883 196.519 142.2C196.893 141.517 197.394 140.989 198.023 140.616C198.663 140.232 199.373 140.04 200.151 140.04C200.727 140.04 201.293 140.168 201.847 140.424C202.413 140.669 202.861 141 203.191 141.416V137.16H205.031V149H203.191V147.672C202.893 148.099 202.477 148.451 201.943 148.728C201.421 149.005 200.818 149.144 200.135 149.144C199.367 149.144 198.663 148.952 198.023 148.568C197.394 148.173 196.893 147.629 196.519 146.936C196.157 146.232 195.975 145.437 195.975 144.552ZM203.191 144.584C203.191 143.976 203.063 143.448 202.807 143C202.562 142.552 202.237 142.211 201.831 141.976C201.426 141.741 200.989 141.624 200.519 141.624C200.05 141.624 199.613 141.741 199.207 141.976C198.802 142.2 198.471 142.536 198.215 142.984C197.97 143.421 197.847 143.944 197.847 144.552C197.847 145.16 197.97 145.693 198.215 146.152C198.471 146.611 198.802 146.963 199.207 147.208C199.623 147.443 200.061 147.56 200.519 147.56C200.989 147.56 201.426 147.443 201.831 147.208C202.237 146.973 202.562 146.632 202.807 146.184C203.063 145.725 203.191 145.192 203.191 144.584ZM208.995 139.016C208.665 139.016 208.387 138.904 208.163 138.68C207.939 138.456 207.827 138.179 207.827 137.848C207.827 137.517 207.939 137.24 208.163 137.016C208.387 136.792 208.665 136.68 208.995 136.68C209.315 136.68 209.587 136.792 209.811 137.016C210.035 137.24 210.147 137.517 210.147 137.848C210.147 138.179 210.035 138.456 209.811 138.68C209.587 138.904 209.315 139.016 208.995 139.016ZM209.891 140.184V149H208.067V140.184H209.891ZM217.374 140.04C218.067 140.04 218.686 140.184 219.23 140.472C219.785 140.76 220.217 141.187 220.526 141.752C220.835 142.317 220.99 143 220.99 143.8V149H219.182V144.072C219.182 143.283 218.985 142.68 218.59 142.264C218.195 141.837 217.657 141.624 216.974 141.624C216.291 141.624 215.747 141.837 215.342 142.264C214.947 142.68 214.75 143.283 214.75 144.072V149H212.926V140.184H214.75V141.192C215.049 140.829 215.427 140.547 215.886 140.344C216.355 140.141 216.851 140.04 217.374 140.04ZM227.509 140.04C228.191 140.04 228.794 140.179 229.317 140.456C229.85 140.723 230.266 141.059 230.565 141.464V140.184H232.405V149.144C232.405 149.955 232.234 150.675 231.893 151.304C231.551 151.944 231.055 152.445 230.405 152.808C229.765 153.171 228.997 153.352 228.101 153.352C226.906 153.352 225.914 153.069 225.125 152.504C224.335 151.949 223.887 151.192 223.781 150.232H225.589C225.727 150.691 226.021 151.059 226.469 151.336C226.927 151.624 227.471 151.768 228.101 151.768C228.837 151.768 229.429 151.544 229.877 151.096C230.335 150.648 230.565 149.997 230.565 149.144V147.672C230.255 148.088 229.834 148.44 229.301 148.728C228.778 149.005 228.181 149.144 227.509 149.144C226.741 149.144 226.037 148.952 225.397 148.568C224.767 148.173 224.266 147.629 223.893 146.936C223.53 146.232 223.349 145.437 223.349 144.552C223.349 143.667 223.53 142.883 223.893 142.2C224.266 141.517 224.767 140.989 225.397 140.616C226.037 140.232 226.741 140.04 227.509 140.04ZM230.565 144.584C230.565 143.976 230.437 143.448 230.181 143C229.935 142.552 229.61 142.211 229.205 141.976C228.799 141.741 228.362 141.624 227.893 141.624C227.423 141.624 226.986 141.741 226.581 141.976C226.175 142.2 225.845 142.536 225.589 142.984C225.343 143.421 225.221 143.944 225.221 144.552C225.221 145.16 225.343 145.693 225.589 146.152C225.845 146.611 226.175 146.963 226.581 147.208C226.997 147.443 227.434 147.56 227.893 147.56C228.362 147.56 228.799 147.443 229.205 147.208C229.61 146.973 229.935 146.632 230.181 146.184C230.437 145.725 230.565 145.192 230.565 144.584ZM239.965 140.216C240.029 139.224 240.407 138.451 241.101 137.896C241.805 137.341 242.701 137.064 243.789 137.064C244.535 137.064 245.181 137.197 245.725 137.464C246.269 137.731 246.679 138.093 246.957 138.552C247.234 139.011 247.373 139.528 247.373 140.104C247.373 140.765 247.197 141.331 246.845 141.8C246.493 142.269 246.071 142.584 245.581 142.744V142.808C246.21 143 246.701 143.352 247.053 143.864C247.405 144.365 247.581 145.011 247.581 145.8C247.581 146.429 247.437 146.989 247.149 147.48C246.861 147.971 246.434 148.36 245.869 148.648C245.303 148.925 244.626 149.064 243.837 149.064C242.685 149.064 241.735 148.771 240.989 148.184C240.253 147.587 239.858 146.733 239.805 145.624H241.565C241.607 146.189 241.826 146.653 242.221 147.016C242.615 147.368 243.149 147.544 243.821 147.544C244.471 147.544 244.973 147.368 245.325 147.016C245.677 146.653 245.853 146.189 245.853 145.624C245.853 144.877 245.613 144.349 245.133 144.04C244.663 143.72 243.938 143.56 242.957 143.56H242.541V142.056H242.973C243.837 142.045 244.493 141.901 244.941 141.624C245.399 141.347 245.629 140.909 245.629 140.312C245.629 139.8 245.463 139.395 245.133 139.096C244.802 138.787 244.333 138.632 243.725 138.632C243.127 138.632 242.663 138.787 242.333 139.096C242.002 139.395 241.805 139.768 241.741 140.216H239.965Z" fill="white" fill-opacity="0.9"/>
<rect y="174" width="91" height="30" rx="8" fill="#5870DC"/>
<path d="M20.5341 192L18.9941 189.28H18.3341V192H16.9341V185.02H19.5541C20.0941 185.02 20.5541 185.117 20.9341 185.31C21.3141 185.497 21.5975 185.753 21.7841 186.08C21.9775 186.4 22.0741 186.76 22.0741 187.16C22.0741 187.62 21.9408 188.037 21.6741 188.41C21.4075 188.777 21.0108 189.03 20.4841 189.17L22.1541 192H20.5341ZM18.3341 188.23H19.5041C19.8841 188.23 20.1675 188.14 20.3541 187.96C20.5408 187.773 20.6341 187.517 20.6341 187.19C20.6341 186.87 20.5408 186.623 20.3541 186.45C20.1675 186.27 19.8841 186.18 19.5041 186.18H18.3341V188.23ZM28.8904 189.11C28.8904 189.31 28.8771 189.49 28.8504 189.65H24.8004C24.8337 190.05 24.9737 190.363 25.2204 190.59C25.4671 190.817 25.7704 190.93 26.1304 190.93C26.6504 190.93 27.0204 190.707 27.2404 190.26H28.7504C28.5904 190.793 28.2837 191.233 27.8304 191.58C27.3771 191.92 26.8204 192.09 26.1604 192.09C25.6271 192.09 25.1471 191.973 24.7204 191.74C24.3004 191.5 23.9704 191.163 23.7304 190.73C23.4971 190.297 23.3804 189.797 23.3804 189.23C23.3804 188.657 23.4971 188.153 23.7304 187.72C23.9637 187.287 24.2904 186.953 24.7104 186.72C25.1304 186.487 25.6137 186.37 26.1604 186.37C26.6871 186.37 27.1571 186.483 27.5704 186.71C27.9904 186.937 28.3137 187.26 28.5404 187.68C28.7737 188.093 28.8904 188.57 28.8904 189.11ZM27.4404 188.71C27.4337 188.35 27.3037 188.063 27.0504 187.85C26.7971 187.63 26.4871 187.52 26.1204 187.52C25.7737 187.52 25.4804 187.627 25.2404 187.84C25.0071 188.047 24.8637 188.337 24.8104 188.71H27.4404ZM32.4823 186.37C32.8956 186.37 33.2589 186.453 33.5723 186.62C33.8856 186.78 34.1323 186.99 34.3123 187.25V186.46H35.7223V192.04C35.7223 192.553 35.6189 193.01 35.4123 193.41C35.2056 193.817 34.8956 194.137 34.4823 194.37C34.0689 194.61 33.5689 194.73 32.9823 194.73C32.1956 194.73 31.5489 194.547 31.0423 194.18C30.5423 193.813 30.2589 193.313 30.1923 192.68H31.5823C31.6556 192.933 31.8123 193.133 32.0523 193.28C32.2989 193.433 32.5956 193.51 32.9423 193.51C33.3489 193.51 33.6789 193.387 33.9323 193.14C34.1856 192.9 34.3123 192.533 34.3123 192.04V191.18C34.1323 191.44 33.8823 191.657 33.5623 191.83C33.2489 192.003 32.8889 192.09 32.4823 192.09C32.0156 192.09 31.5889 191.97 31.2023 191.73C30.8156 191.49 30.5089 191.153 30.2823 190.72C30.0623 190.28 29.9523 189.777 29.9523 189.21C29.9523 188.65 30.0623 188.153 30.2823 187.72C30.5089 187.287 30.8123 186.953 31.1923 186.72C31.5789 186.487 32.0089 186.37 32.4823 186.37ZM34.3123 189.23C34.3123 188.89 34.2456 188.6 34.1123 188.36C33.9789 188.113 33.7989 187.927 33.5723 187.8C33.3456 187.667 33.1023 187.6 32.8423 187.6C32.5823 187.6 32.3423 187.663 32.1223 187.79C31.9023 187.917 31.7223 188.103 31.5823 188.35C31.4489 188.59 31.3823 188.877 31.3823 189.21C31.3823 189.543 31.4489 189.837 31.5823 190.09C31.7223 190.337 31.9023 190.527 32.1223 190.66C32.3489 190.793 32.5889 190.86 32.8423 190.86C33.1023 190.86 33.3456 190.797 33.5723 190.67C33.7989 190.537 33.9789 190.35 34.1123 190.11C34.2456 189.863 34.3123 189.57 34.3123 189.23ZM42.7196 186.46V192H41.3096V191.3C41.1296 191.54 40.8929 191.73 40.5996 191.87C40.3129 192.003 39.9996 192.07 39.6596 192.07C39.2263 192.07 38.8429 191.98 38.5096 191.8C38.1763 191.613 37.9129 191.343 37.7196 190.99C37.5329 190.63 37.4396 190.203 37.4396 189.71V186.46H38.8396V189.51C38.8396 189.95 38.9496 190.29 39.1696 190.53C39.3896 190.763 39.6896 190.88 40.0696 190.88C40.4563 190.88 40.7596 190.763 40.9796 190.53C41.1996 190.29 41.3096 189.95 41.3096 189.51V186.46H42.7196ZM45.9009 184.6V192H44.5009V184.6H45.9009ZM47.3241 189.21C47.3241 188.65 47.4341 188.153 47.6541 187.72C47.8808 187.287 48.1841 186.953 48.5641 186.72C48.9508 186.487 49.3808 186.37 49.8541 186.37C50.2675 186.37 50.6275 186.453 50.9341 186.62C51.2475 186.787 51.4975 186.997 51.6841 187.25V186.46H53.0941V192H51.6841V191.19C51.5041 191.45 51.2541 191.667 50.9341 191.84C50.6208 192.007 50.2575 192.09 49.8441 192.09C49.3775 192.09 48.9508 191.97 48.5641 191.73C48.1841 191.49 47.8808 191.153 47.6541 190.72C47.4341 190.28 47.3241 189.777 47.3241 189.21ZM51.6841 189.23C51.6841 188.89 51.6175 188.6 51.4841 188.36C51.3508 188.113 51.1708 187.927 50.9441 187.8C50.7175 187.667 50.4741 187.6 50.2141 187.6C49.9541 187.6 49.7141 187.663 49.4941 187.79C49.2741 187.917 49.0941 188.103 48.9541 188.35C48.8208 188.59 48.7541 188.877 48.7541 189.21C48.7541 189.543 48.8208 189.837 48.9541 190.09C49.0941 190.337 49.2741 190.527 49.4941 190.66C49.7208 190.793 49.9608 190.86 50.2141 190.86C50.4741 190.86 50.7175 190.797 50.9441 190.67C51.1708 190.537 51.3508 190.35 51.4841 190.11C51.6175 189.863 51.6841 189.57 51.6841 189.23ZM56.2615 187.32C56.4415 187.027 56.6748 186.797 56.9615 186.63C57.2548 186.463 57.5882 186.38 57.9615 186.38V187.85H57.5915C57.1515 187.85 56.8182 187.953 56.5915 188.16C56.3715 188.367 56.2615 188.727 56.2615 189.24V192H54.8615V186.46H56.2615V187.32ZM60.8345 190.53L59.6645 193.34H58.7645L59.4145 190.53H60.8345ZM64.6963 186V184.71H67.1063V192H65.6663V186H64.6963ZM72.6694 186.53C72.6027 186.25 72.486 186.04 72.3194 185.9C72.1594 185.76 71.926 185.69 71.6194 185.69C71.1594 185.69 70.8194 185.877 70.5994 186.25C70.386 186.617 70.276 187.217 70.2694 188.05C70.4294 187.783 70.6627 187.577 70.9694 187.43C71.276 187.277 71.6094 187.2 71.9694 187.2C72.4027 187.2 72.786 187.293 73.1194 187.48C73.4527 187.667 73.7127 187.94 73.8994 188.3C74.086 188.653 74.1794 189.08 74.1794 189.58C74.1794 190.053 74.0827 190.477 73.8894 190.85C73.7027 191.217 73.426 191.503 73.0594 191.71C72.6927 191.917 72.256 192.02 71.7494 192.02C71.056 192.02 70.5094 191.867 70.1094 191.56C69.716 191.253 69.4394 190.827 69.2794 190.28C69.126 189.727 69.0494 189.047 69.0494 188.24C69.0494 187.02 69.2594 186.1 69.6794 185.48C70.0994 184.853 70.7627 184.54 71.6694 184.54C72.3694 184.54 72.9127 184.73 73.2994 185.11C73.686 185.49 73.9094 185.963 73.9694 186.53H72.6694ZM71.6494 188.35C71.296 188.35 70.9994 188.453 70.7594 188.66C70.5194 188.867 70.3994 189.167 70.3994 189.56C70.3994 189.953 70.5094 190.263 70.7294 190.49C70.956 190.717 71.2727 190.83 71.6794 190.83C72.0394 190.83 72.3227 190.72 72.5294 190.5C72.7427 190.28 72.8494 189.983 72.8494 189.61C72.8494 189.223 72.746 188.917 72.5394 188.69C72.3394 188.463 72.0427 188.35 71.6494 188.35Z" fill="white"/>
<rect x="100" y="183" width="36" height="12" fill="#44454F" stroke="#2F67D4" stroke-width="2" stroke-dasharray="4 4"/>
<path d="M149 184V194" stroke="#2F67D4" stroke-width="2"/>
<path d="M153 183L145 183" stroke="#2F67D4" stroke-width="2"/>
<path d="M153 195L145 195" stroke="#2F67D4" stroke-width="2"/>
<path d="M169.878 187.112C169.878 188.04 169.558 188.813 168.918 189.432C168.289 190.04 167.323 190.344 166.022 190.344H163.878V195H162.422V183.848H166.022C167.281 183.848 168.235 184.152 168.886 184.76C169.547 185.368 169.878 186.152 169.878 187.112ZM166.022 189.144C166.833 189.144 167.43 188.968 167.814 188.616C168.198 188.264 168.39 187.763 168.39 187.112C168.39 185.736 167.601 185.048 166.022 185.048H163.878V189.144H166.022ZM171.784 190.584C171.784 189.688 171.965 188.904 172.328 188.232C172.69 187.549 173.186 187.021 173.816 186.648C174.456 186.275 175.165 186.088 175.944 186.088C176.712 186.088 177.378 186.253 177.944 186.584C178.509 186.915 178.93 187.331 179.208 187.832V186.232H180.68V195H179.208V193.368C178.92 193.88 178.488 194.307 177.912 194.648C177.346 194.979 176.685 195.144 175.928 195.144C175.149 195.144 174.445 194.952 173.816 194.568C173.186 194.184 172.69 193.645 172.328 192.952C171.965 192.259 171.784 191.469 171.784 190.584ZM179.208 190.6C179.208 189.939 179.074 189.363 178.808 188.872C178.541 188.381 178.178 188.008 177.72 187.752C177.272 187.485 176.776 187.352 176.232 187.352C175.688 187.352 175.192 187.48 174.744 187.736C174.296 187.992 173.938 188.365 173.672 188.856C173.405 189.347 173.272 189.923 173.272 190.584C173.272 191.256 173.405 191.843 173.672 192.344C173.938 192.835 174.296 193.213 174.744 193.48C175.192 193.736 175.688 193.864 176.232 193.864C176.776 193.864 177.272 193.736 177.72 193.48C178.178 193.213 178.541 192.835 178.808 192.344C179.074 191.843 179.208 191.261 179.208 190.6ZM185.236 187.656C185.492 187.155 185.855 186.765 186.324 186.488C186.804 186.211 187.385 186.072 188.068 186.072V187.576H187.684C186.052 187.576 185.236 188.461 185.236 190.232V195H183.78V186.232H185.236V187.656ZM189.845 190.584C189.845 189.688 190.026 188.904 190.389 188.232C190.752 187.549 191.248 187.021 191.877 186.648C192.517 186.275 193.226 186.088 194.005 186.088C194.773 186.088 195.44 186.253 196.005 186.584C196.57 186.915 196.992 187.331 197.269 187.832V186.232H198.741V195H197.269V193.368C196.981 193.88 196.549 194.307 195.973 194.648C195.408 194.979 194.746 195.144 193.989 195.144C193.21 195.144 192.506 194.952 191.877 194.568C191.248 194.184 190.752 193.645 190.389 192.952C190.026 192.259 189.845 191.469 189.845 190.584ZM197.269 190.6C197.269 189.939 197.136 189.363 196.869 188.872C196.602 188.381 196.24 188.008 195.781 187.752C195.333 187.485 194.837 187.352 194.293 187.352C193.749 187.352 193.253 187.48 192.805 187.736C192.357 187.992 192 188.365 191.733 188.856C191.466 189.347 191.333 189.923 191.333 190.584C191.333 191.256 191.466 191.843 191.733 192.344C192 192.835 192.357 193.213 192.805 193.48C193.253 193.736 193.749 193.864 194.293 193.864C194.837 193.864 195.333 193.736 195.781 193.48C196.24 193.213 196.602 192.835 196.869 192.344C197.136 191.843 197.269 191.261 197.269 190.6ZM205.457 186.088C206.215 186.088 206.876 186.253 207.441 186.584C208.017 186.915 208.444 187.331 208.721 187.832V186.232H210.193V195.192C210.193 195.992 210.023 196.701 209.681 197.32C209.34 197.949 208.849 198.44 208.209 198.792C207.58 199.144 206.844 199.32 206.001 199.32C204.849 199.32 203.889 199.048 203.121 198.504C202.353 197.96 201.9 197.219 201.761 196.28H203.201C203.361 196.813 203.692 197.24 204.193 197.56C204.695 197.891 205.297 198.056 206.001 198.056C206.801 198.056 207.452 197.805 207.953 197.304C208.465 196.803 208.721 196.099 208.721 195.192V193.352C208.433 193.864 208.007 194.291 207.441 194.632C206.876 194.973 206.215 195.144 205.457 195.144C204.679 195.144 203.969 194.952 203.329 194.568C202.7 194.184 202.204 193.645 201.841 192.952C201.479 192.259 201.297 191.469 201.297 190.584C201.297 189.688 201.479 188.904 201.841 188.232C202.204 187.549 202.7 187.021 203.329 186.648C203.969 186.275 204.679 186.088 205.457 186.088ZM208.721 190.6C208.721 189.939 208.588 189.363 208.321 188.872C208.055 188.381 207.692 188.008 207.233 187.752C206.785 187.485 206.289 187.352 205.745 187.352C205.201 187.352 204.705 187.48 204.257 187.736C203.809 187.992 203.452 188.365 203.185 188.856C202.919 189.347 202.785 189.923 202.785 190.584C202.785 191.256 202.919 191.843 203.185 192.344C203.452 192.835 203.809 193.213 204.257 193.48C204.705 193.736 205.201 193.864 205.745 193.864C206.289 193.864 206.785 193.736 207.233 193.48C207.692 193.213 208.055 192.835 208.321 192.344C208.588 191.843 208.721 191.261 208.721 190.6ZM214.75 187.656C215.006 187.155 215.369 186.765 215.838 186.488C216.318 186.211 216.899 186.072 217.582 186.072V187.576H217.198C215.566 187.576 214.75 188.461 214.75 190.232V195H213.294V186.232H214.75V187.656ZM219.359 190.584C219.359 189.688 219.54 188.904 219.903 188.232C220.265 187.549 220.761 187.021 221.391 186.648C222.031 186.275 222.74 186.088 223.519 186.088C224.287 186.088 224.953 186.253 225.519 186.584C226.084 186.915 226.505 187.331 226.783 187.832V186.232H228.255V195H226.783V193.368C226.495 193.88 226.063 194.307 225.487 194.648C224.921 194.979 224.26 195.144 223.503 195.144C222.724 195.144 222.02 194.952 221.391 194.568C220.761 194.184 220.265 193.645 219.903 192.952C219.54 192.259 219.359 191.469 219.359 190.584ZM226.783 190.6C226.783 189.939 226.649 189.363 226.383 188.872C226.116 188.381 225.753 188.008 225.295 187.752C224.847 187.485 224.351 187.352 223.807 187.352C223.263 187.352 222.767 187.48 222.319 187.736C221.871 187.992 221.513 188.365 221.247 188.856C220.98 189.347 220.847 189.923 220.847 190.584C220.847 191.256 220.98 191.843 221.247 192.344C221.513 192.835 221.871 193.213 222.319 193.48C222.767 193.736 223.263 193.864 223.807 193.864C224.351 193.864 224.847 193.736 225.295 193.48C225.753 193.213 226.116 192.835 226.383 192.344C226.649 191.843 226.783 191.261 226.783 190.6ZM232.811 187.848C233.099 187.347 233.526 186.931 234.091 186.6C234.667 186.259 235.334 186.088 236.091 186.088C236.87 186.088 237.574 186.275 238.203 186.648C238.843 187.021 239.344 187.549 239.707 188.232C240.07 188.904 240.251 189.688 240.251 190.584C240.251 191.469 240.07 192.259 239.707 192.952C239.344 193.645 238.843 194.184 238.203 194.568C237.574 194.952 236.87 195.144 236.091 195.144C235.344 195.144 234.683 194.979 234.107 194.648C233.542 194.307 233.11 193.885 232.811 193.384V199.16H231.355V186.232H232.811V187.848ZM238.763 190.584C238.763 189.923 238.63 189.347 238.363 188.856C238.096 188.365 237.734 187.992 237.275 187.736C236.827 187.48 236.331 187.352 235.787 187.352C235.254 187.352 234.758 187.485 234.299 187.752C233.851 188.008 233.488 188.387 233.211 188.888C232.944 189.379 232.811 189.949 232.811 190.6C232.811 191.261 232.944 191.843 233.211 192.344C233.488 192.835 233.851 193.213 234.299 193.48C234.758 193.736 235.254 193.864 235.787 193.864C236.331 193.864 236.827 193.736 237.275 193.48C237.734 193.213 238.096 192.835 238.363 192.344C238.63 191.843 238.763 191.256 238.763 190.584ZM247.16 186.072C247.821 186.072 248.418 186.216 248.952 186.504C249.485 186.781 249.901 187.203 250.2 187.768C250.509 188.333 250.664 189.021 250.664 189.832V195H249.224V190.04C249.224 189.165 249.005 188.499 248.568 188.04C248.13 187.571 247.533 187.336 246.776 187.336C246.008 187.336 245.394 187.576 244.936 188.056C244.488 188.536 244.264 189.235 244.264 190.152V195H242.808V183.16H244.264V187.48C244.552 187.032 244.946 186.685 245.448 186.44C245.96 186.195 246.53 186.072 247.16 186.072Z" fill="white" fill-opacity="0.9"/>
</svg>
